%TF.GenerationSoftware,KiCad,Pcbnew,(6.0.9)*%
%TF.CreationDate,2025-06-07T15:03:12-04:00*%
%TF.ProjectId,DebugBoard,44656275-6742-46f6-9172-642e6b696361,1*%
%TF.SameCoordinates,Original*%
%TF.FileFunction,Legend,Top*%
%TF.FilePolarity,Positive*%
%FSLAX46Y46*%
G04 Gerber Fmt 4.6, Leading zero omitted, Abs format (unit mm)*
G04 Created by KiCad (PCBNEW (6.0.9)) date 2025-06-07 15:03:12*
%MOMM*%
%LPD*%
G01*
G04 APERTURE LIST*
%ADD10C,0.150000*%
%ADD11C,0.250000*%
%ADD12C,0.300000*%
%ADD13C,0.225000*%
%ADD14C,0.120000*%
%ADD15C,1.400000*%
%ADD16O,1.400000X1.400000*%
%ADD17R,1.800000X1.800000*%
%ADD18C,1.800000*%
%ADD19C,2.000000*%
%ADD20R,1.600000X1.600000*%
%ADD21O,1.600000X1.600000*%
%ADD22R,1.700000X1.700000*%
%ADD23O,1.700000X1.700000*%
G04 APERTURE END LIST*
D10*
X153606666Y-104592380D02*
X153606666Y-103592380D01*
X153987619Y-103592380D01*
X154082857Y-103640000D01*
X154130476Y-103687619D01*
X154178095Y-103782857D01*
X154178095Y-103925714D01*
X154130476Y-104020952D01*
X154082857Y-104068571D01*
X153987619Y-104116190D01*
X153606666Y-104116190D01*
X154511428Y-103592380D02*
X154749523Y-104592380D01*
X154940000Y-103878095D01*
X155130476Y-104592380D01*
X155368571Y-103592380D01*
X156320952Y-104592380D02*
X155987619Y-104116190D01*
X155749523Y-104592380D02*
X155749523Y-103592380D01*
X156130476Y-103592380D01*
X156225714Y-103640000D01*
X156273333Y-103687619D01*
X156320952Y-103782857D01*
X156320952Y-103925714D01*
X156273333Y-104020952D01*
X156225714Y-104068571D01*
X156130476Y-104116190D01*
X155749523Y-104116190D01*
D11*
X165631904Y-104592380D02*
X165631904Y-103592380D01*
X165870000Y-103592380D01*
X166012857Y-103640000D01*
X166108095Y-103735238D01*
X166155714Y-103830476D01*
X166203333Y-104020952D01*
X166203333Y-104163809D01*
X166155714Y-104354285D01*
X166108095Y-104449523D01*
X166012857Y-104544761D01*
X165870000Y-104592380D01*
X165631904Y-104592380D01*
X167108095Y-103592380D02*
X166631904Y-103592380D01*
X166584285Y-104068571D01*
X166631904Y-104020952D01*
X166727142Y-103973333D01*
X166965238Y-103973333D01*
X167060476Y-104020952D01*
X167108095Y-104068571D01*
X167155714Y-104163809D01*
X167155714Y-104401904D01*
X167108095Y-104497142D01*
X167060476Y-104544761D01*
X166965238Y-104592380D01*
X166727142Y-104592380D01*
X166631904Y-104544761D01*
X166584285Y-104497142D01*
D12*
X168001428Y-92118571D02*
X168001428Y-90618571D01*
X168358571Y-90618571D01*
X168572857Y-90690000D01*
X168715714Y-90832857D01*
X168787142Y-90975714D01*
X168858571Y-91261428D01*
X168858571Y-91475714D01*
X168787142Y-91761428D01*
X168715714Y-91904285D01*
X168572857Y-92047142D01*
X168358571Y-92118571D01*
X168001428Y-92118571D01*
X170144285Y-92118571D02*
X170144285Y-91332857D01*
X170072857Y-91190000D01*
X169930000Y-91118571D01*
X169644285Y-91118571D01*
X169501428Y-91190000D01*
X170144285Y-92047142D02*
X170001428Y-92118571D01*
X169644285Y-92118571D01*
X169501428Y-92047142D01*
X169430000Y-91904285D01*
X169430000Y-91761428D01*
X169501428Y-91618571D01*
X169644285Y-91547142D01*
X170001428Y-91547142D01*
X170144285Y-91475714D01*
X170644285Y-91118571D02*
X171215714Y-91118571D01*
X170858571Y-90618571D02*
X170858571Y-91904285D01*
X170930000Y-92047142D01*
X171072857Y-92118571D01*
X171215714Y-92118571D01*
X172358571Y-92118571D02*
X172358571Y-91332857D01*
X172287142Y-91190000D01*
X172144285Y-91118571D01*
X171858571Y-91118571D01*
X171715714Y-91190000D01*
X172358571Y-92047142D02*
X172215714Y-92118571D01*
X171858571Y-92118571D01*
X171715714Y-92047142D01*
X171644285Y-91904285D01*
X171644285Y-91761428D01*
X171715714Y-91618571D01*
X171858571Y-91547142D01*
X172215714Y-91547142D01*
X172358571Y-91475714D01*
D11*
X136445714Y-104306666D02*
X136921904Y-104306666D01*
X136350476Y-104592380D02*
X136683809Y-103592380D01*
X137017142Y-104592380D01*
X137826666Y-103592380D02*
X137350476Y-103592380D01*
X137302857Y-104068571D01*
X137350476Y-104020952D01*
X137445714Y-103973333D01*
X137683809Y-103973333D01*
X137779047Y-104020952D01*
X137826666Y-104068571D01*
X137874285Y-104163809D01*
X137874285Y-104401904D01*
X137826666Y-104497142D01*
X137779047Y-104544761D01*
X137683809Y-104592380D01*
X137445714Y-104592380D01*
X137350476Y-104544761D01*
X137302857Y-104497142D01*
X173251904Y-104592380D02*
X173251904Y-103592380D01*
X173490000Y-103592380D01*
X173632857Y-103640000D01*
X173728095Y-103735238D01*
X173775714Y-103830476D01*
X173823333Y-104020952D01*
X173823333Y-104163809D01*
X173775714Y-104354285D01*
X173728095Y-104449523D01*
X173632857Y-104544761D01*
X173490000Y-104592380D01*
X173251904Y-104592380D01*
X174204285Y-103687619D02*
X174251904Y-103640000D01*
X174347142Y-103592380D01*
X174585238Y-103592380D01*
X174680476Y-103640000D01*
X174728095Y-103687619D01*
X174775714Y-103782857D01*
X174775714Y-103878095D01*
X174728095Y-104020952D01*
X174156666Y-104592380D01*
X174775714Y-104592380D01*
D12*
X125504285Y-90420000D02*
X126218571Y-90420000D01*
X125361428Y-90848571D02*
X125861428Y-89348571D01*
X126361428Y-90848571D01*
X127504285Y-90848571D02*
X127504285Y-89348571D01*
X127504285Y-90777142D02*
X127361428Y-90848571D01*
X127075714Y-90848571D01*
X126932857Y-90777142D01*
X126861428Y-90705714D01*
X126790000Y-90562857D01*
X126790000Y-90134285D01*
X126861428Y-89991428D01*
X126932857Y-89920000D01*
X127075714Y-89848571D01*
X127361428Y-89848571D01*
X127504285Y-89920000D01*
X128861428Y-90848571D02*
X128861428Y-89348571D01*
X128861428Y-90777142D02*
X128718571Y-90848571D01*
X128432857Y-90848571D01*
X128290000Y-90777142D01*
X128218571Y-90705714D01*
X128147142Y-90562857D01*
X128147142Y-90134285D01*
X128218571Y-89991428D01*
X128290000Y-89920000D01*
X128432857Y-89848571D01*
X128718571Y-89848571D01*
X128861428Y-89920000D01*
X129575714Y-90848571D02*
X129575714Y-89848571D01*
X129575714Y-90134285D02*
X129647142Y-89991428D01*
X129718571Y-89920000D01*
X129861428Y-89848571D01*
X130004285Y-89848571D01*
X131075714Y-90777142D02*
X130932857Y-90848571D01*
X130647142Y-90848571D01*
X130504285Y-90777142D01*
X130432857Y-90634285D01*
X130432857Y-90062857D01*
X130504285Y-89920000D01*
X130647142Y-89848571D01*
X130932857Y-89848571D01*
X131075714Y-89920000D01*
X131147142Y-90062857D01*
X131147142Y-90205714D01*
X130432857Y-90348571D01*
X131718571Y-90777142D02*
X131861428Y-90848571D01*
X132147142Y-90848571D01*
X132290000Y-90777142D01*
X132361428Y-90634285D01*
X132361428Y-90562857D01*
X132290000Y-90420000D01*
X132147142Y-90348571D01*
X131932857Y-90348571D01*
X131790000Y-90277142D01*
X131718571Y-90134285D01*
X131718571Y-90062857D01*
X131790000Y-89920000D01*
X131932857Y-89848571D01*
X132147142Y-89848571D01*
X132290000Y-89920000D01*
X132932857Y-90777142D02*
X133075714Y-90848571D01*
X133361428Y-90848571D01*
X133504285Y-90777142D01*
X133575714Y-90634285D01*
X133575714Y-90562857D01*
X133504285Y-90420000D01*
X133361428Y-90348571D01*
X133147142Y-90348571D01*
X133004285Y-90277142D01*
X132932857Y-90134285D01*
X132932857Y-90062857D01*
X133004285Y-89920000D01*
X133147142Y-89848571D01*
X133361428Y-89848571D01*
X133504285Y-89920000D01*
X108077142Y-75813928D02*
X109220000Y-75813928D01*
X109220000Y-75813928D02*
X110362857Y-75813928D01*
X109005714Y-77943214D02*
X108934285Y-78014642D01*
X108720000Y-78086071D01*
X108577142Y-78086071D01*
X108362857Y-78014642D01*
X108220000Y-77871785D01*
X108148571Y-77728928D01*
X108077142Y-77443214D01*
X108077142Y-77228928D01*
X108148571Y-76943214D01*
X108220000Y-76800357D01*
X108362857Y-76657500D01*
X108577142Y-76586071D01*
X108720000Y-76586071D01*
X108934285Y-76657500D01*
X109005714Y-76728928D01*
X109648571Y-77300357D02*
X110148571Y-77300357D01*
X110362857Y-78086071D02*
X109648571Y-78086071D01*
X109648571Y-76586071D01*
X110362857Y-76586071D01*
D11*
X144065714Y-104306666D02*
X144541904Y-104306666D01*
X143970476Y-104592380D02*
X144303809Y-103592380D01*
X144637142Y-104592380D01*
X144922857Y-103687619D02*
X144970476Y-103640000D01*
X145065714Y-103592380D01*
X145303809Y-103592380D01*
X145399047Y-103640000D01*
X145446666Y-103687619D01*
X145494285Y-103782857D01*
X145494285Y-103878095D01*
X145446666Y-104020952D01*
X144875238Y-104592380D01*
X145494285Y-104592380D01*
D12*
X193167142Y-79353928D02*
X194310000Y-79353928D01*
X194310000Y-79353928D02*
X195452857Y-79353928D01*
X192988571Y-80126071D02*
X193345714Y-81626071D01*
X193631428Y-80554642D01*
X193917142Y-81626071D01*
X194274285Y-80126071D01*
X194845714Y-80840357D02*
X195345714Y-80840357D01*
X195560000Y-81626071D02*
X194845714Y-81626071D01*
X194845714Y-80126071D01*
X195560000Y-80126071D01*
D11*
X131365714Y-104306666D02*
X131841904Y-104306666D01*
X131270476Y-104592380D02*
X131603809Y-103592380D01*
X131937142Y-104592380D01*
X132175238Y-103592380D02*
X132841904Y-103592380D01*
X132413333Y-104592380D01*
D12*
X193167142Y-88243928D02*
X194310000Y-88243928D01*
X194310000Y-88243928D02*
X195452857Y-88243928D01*
X193488571Y-89016071D02*
X193774285Y-89016071D01*
X193917142Y-89087500D01*
X194060000Y-89230357D01*
X194131428Y-89516071D01*
X194131428Y-90016071D01*
X194060000Y-90301785D01*
X193917142Y-90444642D01*
X193774285Y-90516071D01*
X193488571Y-90516071D01*
X193345714Y-90444642D01*
X193202857Y-90301785D01*
X193131428Y-90016071D01*
X193131428Y-89516071D01*
X193202857Y-89230357D01*
X193345714Y-89087500D01*
X193488571Y-89016071D01*
X194774285Y-89730357D02*
X195274285Y-89730357D01*
X195488571Y-90516071D02*
X194774285Y-90516071D01*
X194774285Y-89016071D01*
X195488571Y-89016071D01*
D13*
X117038571Y-104290000D02*
X117467142Y-104290000D01*
X116952857Y-104547142D02*
X117252857Y-103647142D01*
X117552857Y-104547142D01*
X118324285Y-104547142D02*
X117810000Y-104547142D01*
X118067142Y-104547142D02*
X118067142Y-103647142D01*
X117981428Y-103775714D01*
X117895714Y-103861428D01*
X117810000Y-103904285D01*
X119181428Y-104547142D02*
X118667142Y-104547142D01*
X118924285Y-104547142D02*
X118924285Y-103647142D01*
X118838571Y-103775714D01*
X118752857Y-103861428D01*
X118667142Y-103904285D01*
D11*
X133905714Y-104306666D02*
X134381904Y-104306666D01*
X133810476Y-104592380D02*
X134143809Y-103592380D01*
X134477142Y-104592380D01*
X135239047Y-103592380D02*
X135048571Y-103592380D01*
X134953333Y-103640000D01*
X134905714Y-103687619D01*
X134810476Y-103830476D01*
X134762857Y-104020952D01*
X134762857Y-104401904D01*
X134810476Y-104497142D01*
X134858095Y-104544761D01*
X134953333Y-104592380D01*
X135143809Y-104592380D01*
X135239047Y-104544761D01*
X135286666Y-104497142D01*
X135334285Y-104401904D01*
X135334285Y-104163809D01*
X135286666Y-104068571D01*
X135239047Y-104020952D01*
X135143809Y-103973333D01*
X134953333Y-103973333D01*
X134858095Y-104020952D01*
X134810476Y-104068571D01*
X134762857Y-104163809D01*
X163091904Y-104592380D02*
X163091904Y-103592380D01*
X163330000Y-103592380D01*
X163472857Y-103640000D01*
X163568095Y-103735238D01*
X163615714Y-103830476D01*
X163663333Y-104020952D01*
X163663333Y-104163809D01*
X163615714Y-104354285D01*
X163568095Y-104449523D01*
X163472857Y-104544761D01*
X163330000Y-104592380D01*
X163091904Y-104592380D01*
X164520476Y-103592380D02*
X164330000Y-103592380D01*
X164234761Y-103640000D01*
X164187142Y-103687619D01*
X164091904Y-103830476D01*
X164044285Y-104020952D01*
X164044285Y-104401904D01*
X164091904Y-104497142D01*
X164139523Y-104544761D01*
X164234761Y-104592380D01*
X164425238Y-104592380D01*
X164520476Y-104544761D01*
X164568095Y-104497142D01*
X164615714Y-104401904D01*
X164615714Y-104163809D01*
X164568095Y-104068571D01*
X164520476Y-104020952D01*
X164425238Y-103973333D01*
X164234761Y-103973333D01*
X164139523Y-104020952D01*
X164091904Y-104068571D01*
X164044285Y-104163809D01*
X138985714Y-104306666D02*
X139461904Y-104306666D01*
X138890476Y-104592380D02*
X139223809Y-103592380D01*
X139557142Y-104592380D01*
X140319047Y-103925714D02*
X140319047Y-104592380D01*
X140080952Y-103544761D02*
X139842857Y-104259047D01*
X140461904Y-104259047D01*
X175791904Y-104592380D02*
X175791904Y-103592380D01*
X176030000Y-103592380D01*
X176172857Y-103640000D01*
X176268095Y-103735238D01*
X176315714Y-103830476D01*
X176363333Y-104020952D01*
X176363333Y-104163809D01*
X176315714Y-104354285D01*
X176268095Y-104449523D01*
X176172857Y-104544761D01*
X176030000Y-104592380D01*
X175791904Y-104592380D01*
X177315714Y-104592380D02*
X176744285Y-104592380D01*
X177030000Y-104592380D02*
X177030000Y-103592380D01*
X176934761Y-103735238D01*
X176839523Y-103830476D01*
X176744285Y-103878095D01*
X178331904Y-104592380D02*
X178331904Y-103592380D01*
X178570000Y-103592380D01*
X178712857Y-103640000D01*
X178808095Y-103735238D01*
X178855714Y-103830476D01*
X178903333Y-104020952D01*
X178903333Y-104163809D01*
X178855714Y-104354285D01*
X178808095Y-104449523D01*
X178712857Y-104544761D01*
X178570000Y-104592380D01*
X178331904Y-104592380D01*
X179522380Y-103592380D02*
X179617619Y-103592380D01*
X179712857Y-103640000D01*
X179760476Y-103687619D01*
X179808095Y-103782857D01*
X179855714Y-103973333D01*
X179855714Y-104211428D01*
X179808095Y-104401904D01*
X179760476Y-104497142D01*
X179712857Y-104544761D01*
X179617619Y-104592380D01*
X179522380Y-104592380D01*
X179427142Y-104544761D01*
X179379523Y-104497142D01*
X179331904Y-104401904D01*
X179284285Y-104211428D01*
X179284285Y-103973333D01*
X179331904Y-103782857D01*
X179379523Y-103687619D01*
X179427142Y-103640000D01*
X179522380Y-103592380D01*
X125015714Y-104306666D02*
X125491904Y-104306666D01*
X124920476Y-104592380D02*
X125253809Y-103592380D01*
X125587142Y-104592380D01*
X126063333Y-104020952D02*
X125968095Y-103973333D01*
X125920476Y-103925714D01*
X125872857Y-103830476D01*
X125872857Y-103782857D01*
X125920476Y-103687619D01*
X125968095Y-103640000D01*
X126063333Y-103592380D01*
X126253809Y-103592380D01*
X126349047Y-103640000D01*
X126396666Y-103687619D01*
X126444285Y-103782857D01*
X126444285Y-103830476D01*
X126396666Y-103925714D01*
X126349047Y-103973333D01*
X126253809Y-104020952D01*
X126063333Y-104020952D01*
X125968095Y-104068571D01*
X125920476Y-104116190D01*
X125872857Y-104211428D01*
X125872857Y-104401904D01*
X125920476Y-104497142D01*
X125968095Y-104544761D01*
X126063333Y-104592380D01*
X126253809Y-104592380D01*
X126349047Y-104544761D01*
X126396666Y-104497142D01*
X126444285Y-104401904D01*
X126444285Y-104211428D01*
X126396666Y-104116190D01*
X126349047Y-104068571D01*
X126253809Y-104020952D01*
X146605714Y-104306666D02*
X147081904Y-104306666D01*
X146510476Y-104592380D02*
X146843809Y-103592380D01*
X147177142Y-104592380D01*
X148034285Y-104592380D02*
X147462857Y-104592380D01*
X147748571Y-104592380D02*
X147748571Y-103592380D01*
X147653333Y-103735238D01*
X147558095Y-103830476D01*
X147462857Y-103878095D01*
X170711904Y-104592380D02*
X170711904Y-103592380D01*
X170950000Y-103592380D01*
X171092857Y-103640000D01*
X171188095Y-103735238D01*
X171235714Y-103830476D01*
X171283333Y-104020952D01*
X171283333Y-104163809D01*
X171235714Y-104354285D01*
X171188095Y-104449523D01*
X171092857Y-104544761D01*
X170950000Y-104592380D01*
X170711904Y-104592380D01*
X171616666Y-103592380D02*
X172235714Y-103592380D01*
X171902380Y-103973333D01*
X172045238Y-103973333D01*
X172140476Y-104020952D01*
X172188095Y-104068571D01*
X172235714Y-104163809D01*
X172235714Y-104401904D01*
X172188095Y-104497142D01*
X172140476Y-104544761D01*
X172045238Y-104592380D01*
X171759523Y-104592380D01*
X171664285Y-104544761D01*
X171616666Y-104497142D01*
D13*
X114498571Y-104290000D02*
X114927142Y-104290000D01*
X114412857Y-104547142D02*
X114712857Y-103647142D01*
X115012857Y-104547142D01*
X115784285Y-104547142D02*
X115270000Y-104547142D01*
X115527142Y-104547142D02*
X115527142Y-103647142D01*
X115441428Y-103775714D01*
X115355714Y-103861428D01*
X115270000Y-103904285D01*
X116127142Y-103732857D02*
X116170000Y-103690000D01*
X116255714Y-103647142D01*
X116470000Y-103647142D01*
X116555714Y-103690000D01*
X116598571Y-103732857D01*
X116641428Y-103818571D01*
X116641428Y-103904285D01*
X116598571Y-104032857D01*
X116084285Y-104547142D01*
X116641428Y-104547142D01*
D11*
X149145714Y-104306666D02*
X149621904Y-104306666D01*
X149050476Y-104592380D02*
X149383809Y-103592380D01*
X149717142Y-104592380D01*
X150240952Y-103592380D02*
X150336190Y-103592380D01*
X150431428Y-103640000D01*
X150479047Y-103687619D01*
X150526666Y-103782857D01*
X150574285Y-103973333D01*
X150574285Y-104211428D01*
X150526666Y-104401904D01*
X150479047Y-104497142D01*
X150431428Y-104544761D01*
X150336190Y-104592380D01*
X150240952Y-104592380D01*
X150145714Y-104544761D01*
X150098095Y-104497142D01*
X150050476Y-104401904D01*
X150002857Y-104211428D01*
X150002857Y-103973333D01*
X150050476Y-103782857D01*
X150098095Y-103687619D01*
X150145714Y-103640000D01*
X150240952Y-103592380D01*
D12*
X141110000Y-80688571D02*
X141110000Y-79188571D01*
X141467142Y-79188571D01*
X141681428Y-79260000D01*
X141824285Y-79402857D01*
X141895714Y-79545714D01*
X141967142Y-79831428D01*
X141967142Y-80045714D01*
X141895714Y-80331428D01*
X141824285Y-80474285D01*
X141681428Y-80617142D01*
X141467142Y-80688571D01*
X141110000Y-80688571D01*
X143181428Y-80617142D02*
X143038571Y-80688571D01*
X142752857Y-80688571D01*
X142610000Y-80617142D01*
X142538571Y-80474285D01*
X142538571Y-79902857D01*
X142610000Y-79760000D01*
X142752857Y-79688571D01*
X143038571Y-79688571D01*
X143181428Y-79760000D01*
X143252857Y-79902857D01*
X143252857Y-80045714D01*
X142538571Y-80188571D01*
X143895714Y-80688571D02*
X143895714Y-79188571D01*
X143895714Y-79760000D02*
X144038571Y-79688571D01*
X144324285Y-79688571D01*
X144467142Y-79760000D01*
X144538571Y-79831428D01*
X144610000Y-79974285D01*
X144610000Y-80402857D01*
X144538571Y-80545714D01*
X144467142Y-80617142D01*
X144324285Y-80688571D01*
X144038571Y-80688571D01*
X143895714Y-80617142D01*
X145895714Y-79688571D02*
X145895714Y-80688571D01*
X145252857Y-79688571D02*
X145252857Y-80474285D01*
X145324285Y-80617142D01*
X145467142Y-80688571D01*
X145681428Y-80688571D01*
X145824285Y-80617142D01*
X145895714Y-80545714D01*
X147252857Y-79688571D02*
X147252857Y-80902857D01*
X147181428Y-81045714D01*
X147110000Y-81117142D01*
X146967142Y-81188571D01*
X146752857Y-81188571D01*
X146610000Y-81117142D01*
X147252857Y-80617142D02*
X147110000Y-80688571D01*
X146824285Y-80688571D01*
X146681428Y-80617142D01*
X146610000Y-80545714D01*
X146538571Y-80402857D01*
X146538571Y-79974285D01*
X146610000Y-79831428D01*
X146681428Y-79760000D01*
X146824285Y-79688571D01*
X147110000Y-79688571D01*
X147252857Y-79760000D01*
X149110000Y-80688571D02*
X149110000Y-79188571D01*
X149110000Y-79760000D02*
X149252857Y-79688571D01*
X149538571Y-79688571D01*
X149681428Y-79760000D01*
X149752857Y-79831428D01*
X149824285Y-79974285D01*
X149824285Y-80402857D01*
X149752857Y-80545714D01*
X149681428Y-80617142D01*
X149538571Y-80688571D01*
X149252857Y-80688571D01*
X149110000Y-80617142D01*
X150681428Y-80688571D02*
X150538571Y-80617142D01*
X150467142Y-80545714D01*
X150395714Y-80402857D01*
X150395714Y-79974285D01*
X150467142Y-79831428D01*
X150538571Y-79760000D01*
X150681428Y-79688571D01*
X150895714Y-79688571D01*
X151038571Y-79760000D01*
X151110000Y-79831428D01*
X151181428Y-79974285D01*
X151181428Y-80402857D01*
X151110000Y-80545714D01*
X151038571Y-80617142D01*
X150895714Y-80688571D01*
X150681428Y-80688571D01*
X152467142Y-80688571D02*
X152467142Y-79902857D01*
X152395714Y-79760000D01*
X152252857Y-79688571D01*
X151967142Y-79688571D01*
X151824285Y-79760000D01*
X152467142Y-80617142D02*
X152324285Y-80688571D01*
X151967142Y-80688571D01*
X151824285Y-80617142D01*
X151752857Y-80474285D01*
X151752857Y-80331428D01*
X151824285Y-80188571D01*
X151967142Y-80117142D01*
X152324285Y-80117142D01*
X152467142Y-80045714D01*
X153181428Y-80688571D02*
X153181428Y-79688571D01*
X153181428Y-79974285D02*
X153252857Y-79831428D01*
X153324285Y-79760000D01*
X153467142Y-79688571D01*
X153610000Y-79688571D01*
X154752857Y-80688571D02*
X154752857Y-79188571D01*
X154752857Y-80617142D02*
X154610000Y-80688571D01*
X154324285Y-80688571D01*
X154181428Y-80617142D01*
X154110000Y-80545714D01*
X154038571Y-80402857D01*
X154038571Y-79974285D01*
X154110000Y-79831428D01*
X154181428Y-79760000D01*
X154324285Y-79688571D01*
X154610000Y-79688571D01*
X154752857Y-79760000D01*
X156395714Y-79188571D02*
X156895714Y-80688571D01*
X157395714Y-79188571D01*
X158681428Y-80688571D02*
X157824285Y-80688571D01*
X158252857Y-80688571D02*
X158252857Y-79188571D01*
X158110000Y-79402857D01*
X157967142Y-79545714D01*
X157824285Y-79617142D01*
D11*
X168171904Y-104592380D02*
X168171904Y-103592380D01*
X168410000Y-103592380D01*
X168552857Y-103640000D01*
X168648095Y-103735238D01*
X168695714Y-103830476D01*
X168743333Y-104020952D01*
X168743333Y-104163809D01*
X168695714Y-104354285D01*
X168648095Y-104449523D01*
X168552857Y-104544761D01*
X168410000Y-104592380D01*
X168171904Y-104592380D01*
X169600476Y-103925714D02*
X169600476Y-104592380D01*
X169362380Y-103544761D02*
X169124285Y-104259047D01*
X169743333Y-104259047D01*
X160551904Y-104592380D02*
X160551904Y-103592380D01*
X160790000Y-103592380D01*
X160932857Y-103640000D01*
X161028095Y-103735238D01*
X161075714Y-103830476D01*
X161123333Y-104020952D01*
X161123333Y-104163809D01*
X161075714Y-104354285D01*
X161028095Y-104449523D01*
X160932857Y-104544761D01*
X160790000Y-104592380D01*
X160551904Y-104592380D01*
X161456666Y-103592380D02*
X162123333Y-103592380D01*
X161694761Y-104592380D01*
X122475714Y-104306666D02*
X122951904Y-104306666D01*
X122380476Y-104592380D02*
X122713809Y-103592380D01*
X123047142Y-104592380D01*
X123428095Y-104592380D02*
X123618571Y-104592380D01*
X123713809Y-104544761D01*
X123761428Y-104497142D01*
X123856666Y-104354285D01*
X123904285Y-104163809D01*
X123904285Y-103782857D01*
X123856666Y-103687619D01*
X123809047Y-103640000D01*
X123713809Y-103592380D01*
X123523333Y-103592380D01*
X123428095Y-103640000D01*
X123380476Y-103687619D01*
X123332857Y-103782857D01*
X123332857Y-104020952D01*
X123380476Y-104116190D01*
X123428095Y-104163809D01*
X123523333Y-104211428D01*
X123713809Y-104211428D01*
X123809047Y-104163809D01*
X123856666Y-104116190D01*
X123904285Y-104020952D01*
D13*
X119578571Y-104290000D02*
X120007142Y-104290000D01*
X119492857Y-104547142D02*
X119792857Y-103647142D01*
X120092857Y-104547142D01*
X120864285Y-104547142D02*
X120350000Y-104547142D01*
X120607142Y-104547142D02*
X120607142Y-103647142D01*
X120521428Y-103775714D01*
X120435714Y-103861428D01*
X120350000Y-103904285D01*
X121421428Y-103647142D02*
X121507142Y-103647142D01*
X121592857Y-103690000D01*
X121635714Y-103732857D01*
X121678571Y-103818571D01*
X121721428Y-103990000D01*
X121721428Y-104204285D01*
X121678571Y-104375714D01*
X121635714Y-104461428D01*
X121592857Y-104504285D01*
X121507142Y-104547142D01*
X121421428Y-104547142D01*
X121335714Y-104504285D01*
X121292857Y-104461428D01*
X121250000Y-104375714D01*
X121207142Y-104204285D01*
X121207142Y-103990000D01*
X121250000Y-103818571D01*
X121292857Y-103732857D01*
X121335714Y-103690000D01*
X121421428Y-103647142D01*
D11*
X141525714Y-104306666D02*
X142001904Y-104306666D01*
X141430476Y-104592380D02*
X141763809Y-103592380D01*
X142097142Y-104592380D01*
X142335238Y-103592380D02*
X142954285Y-103592380D01*
X142620952Y-103973333D01*
X142763809Y-103973333D01*
X142859047Y-104020952D01*
X142906666Y-104068571D01*
X142954285Y-104163809D01*
X142954285Y-104401904D01*
X142906666Y-104497142D01*
X142859047Y-104544761D01*
X142763809Y-104592380D01*
X142478095Y-104592380D01*
X142382857Y-104544761D01*
X142335238Y-104497142D01*
D14*
%TO.C,R9*%
X173060000Y-87010000D02*
X173060000Y-83170000D01*
X174900000Y-87010000D02*
X174900000Y-83170000D01*
%TO.C,R7*%
X186040000Y-102520000D02*
X189880000Y-102520000D01*
X186040000Y-100680000D02*
X189880000Y-100680000D01*
%TO.C,D1*%
X153860000Y-98770000D02*
X153704000Y-98770000D01*
X156176000Y-98770000D02*
X156020000Y-98770000D01*
X156019837Y-101371130D02*
G75*
G03*
X156020000Y-99289039I-1079837J1041130D01*
G01*
X153860000Y-99289039D02*
G75*
G03*
X153860163Y-101371130I1080000J-1040961D01*
G01*
X153704484Y-98770000D02*
G75*
G03*
X153861392Y-102002335I1235516J-1560000D01*
G01*
X156018608Y-102002335D02*
G75*
G03*
X156175516Y-98770000I-1078608J1672335D01*
G01*
%TO.C,SW4*%
X190210000Y-77760000D02*
X185710000Y-77760000D01*
X185710000Y-84260000D02*
X190210000Y-84260000D01*
X191460000Y-81760000D02*
X191460000Y-80260000D01*
X184460000Y-80260000D02*
X184460000Y-81760000D01*
%TO.C,R3*%
X186040000Y-98710000D02*
X189880000Y-98710000D01*
X186040000Y-96870000D02*
X189880000Y-96870000D01*
%TO.C,SW2*%
X125675000Y-99777500D02*
X125675000Y-98424167D01*
X112855000Y-99777500D02*
X112855000Y-98424167D01*
X122775000Y-99777500D02*
X122775000Y-98424167D01*
X125075000Y-95717500D02*
X125075000Y-99777500D01*
X110555000Y-99777500D02*
X110555000Y-98424167D01*
X118725000Y-99777500D02*
X118725000Y-95717500D01*
X125075000Y-98424167D02*
X126345000Y-98424167D01*
X105510000Y-102697500D02*
X128131000Y-102697500D01*
X117455000Y-98424167D02*
X118725000Y-98424167D01*
X120595000Y-99777500D02*
X120595000Y-98424167D01*
X120955000Y-99777500D02*
X120955000Y-98424167D01*
X109955000Y-99777500D02*
X109955000Y-98424167D01*
X110315000Y-99777500D02*
X110315000Y-98424167D01*
X115515000Y-99777500D02*
X115515000Y-98424167D01*
X113645000Y-99777500D02*
X113645000Y-95717500D01*
X118725000Y-95717500D02*
X117455000Y-95717500D01*
X107535000Y-99777500D02*
X107535000Y-98424167D01*
X118175000Y-99777500D02*
X118175000Y-98424167D01*
X123375000Y-99777500D02*
X123375000Y-98424167D01*
X112735000Y-99777500D02*
X112735000Y-98424167D01*
X125075000Y-99777500D02*
X126345000Y-99777500D01*
X119995000Y-99777500D02*
X121265000Y-99777500D01*
X125315000Y-99777500D02*
X125315000Y-98424167D01*
X122535000Y-99777500D02*
X123805000Y-99777500D01*
X123735000Y-99777500D02*
X123735000Y-98424167D01*
X112375000Y-98424167D02*
X113645000Y-98424167D01*
X118295000Y-99777500D02*
X118295000Y-98424167D01*
X123015000Y-99777500D02*
X123015000Y-98424167D01*
X120715000Y-99777500D02*
X120715000Y-98424167D01*
X115875000Y-99777500D02*
X115875000Y-98424167D01*
X123805000Y-99777500D02*
X123805000Y-95717500D01*
X110675000Y-99777500D02*
X110675000Y-98424167D01*
X126275000Y-99777500D02*
X126275000Y-98424167D01*
X112375000Y-99777500D02*
X113645000Y-99777500D01*
X105270000Y-102937500D02*
X105270000Y-101553500D01*
X121195000Y-99777500D02*
X121195000Y-98424167D01*
X107295000Y-99777500D02*
X108565000Y-99777500D01*
X111105000Y-99777500D02*
X111105000Y-95717500D01*
X123615000Y-99777500D02*
X123615000Y-98424167D01*
X107415000Y-99777500D02*
X107415000Y-98424167D01*
X115635000Y-99777500D02*
X115635000Y-98424167D01*
X108015000Y-99777500D02*
X108015000Y-98424167D01*
X123135000Y-99777500D02*
X123135000Y-98424167D01*
X125795000Y-99777500D02*
X125795000Y-98424167D01*
X115035000Y-99777500D02*
X115035000Y-98424167D01*
X107295000Y-98424167D02*
X108565000Y-98424167D01*
X113335000Y-99777500D02*
X113335000Y-98424167D01*
X108135000Y-99777500D02*
X108135000Y-98424167D01*
X105510000Y-92797500D02*
X128131000Y-92797500D01*
X126155000Y-99777500D02*
X126155000Y-98424167D01*
X114915000Y-99777500D02*
X116185000Y-99777500D01*
X123805000Y-95717500D02*
X122535000Y-95717500D01*
X122535000Y-98424167D02*
X123805000Y-98424167D01*
X115755000Y-99777500D02*
X115755000Y-98424167D01*
X117455000Y-99777500D02*
X118725000Y-99777500D01*
X109835000Y-95717500D02*
X109835000Y-99777500D01*
X113455000Y-99777500D02*
X113455000Y-98424167D01*
X107775000Y-99777500D02*
X107775000Y-98424167D01*
X114915000Y-95717500D02*
X114915000Y-99777500D01*
X119995000Y-98424167D02*
X121265000Y-98424167D01*
X107295000Y-95717500D02*
X107295000Y-99777500D01*
X115155000Y-99777500D02*
X115155000Y-98424167D01*
X110075000Y-99777500D02*
X110075000Y-98424167D01*
X128131000Y-102697500D02*
X128131000Y-92797500D01*
X112495000Y-99777500D02*
X112495000Y-98424167D01*
X123495000Y-99777500D02*
X123495000Y-98424167D01*
X110915000Y-99777500D02*
X110915000Y-98424167D01*
X120235000Y-99777500D02*
X120235000Y-98424167D01*
X118415000Y-99777500D02*
X118415000Y-98424167D01*
X110195000Y-99777500D02*
X110195000Y-98424167D01*
X111035000Y-99777500D02*
X111035000Y-98424167D01*
X120115000Y-99777500D02*
X120115000Y-98424167D01*
X115275000Y-99777500D02*
X115275000Y-98424167D01*
X107895000Y-99777500D02*
X107895000Y-98424167D01*
X108495000Y-99777500D02*
X108495000Y-98424167D01*
X120355000Y-99777500D02*
X120355000Y-98424167D01*
X119995000Y-95717500D02*
X119995000Y-99777500D01*
X115995000Y-99777500D02*
X115995000Y-98424167D01*
X118535000Y-99777500D02*
X118535000Y-98424167D01*
X113215000Y-99777500D02*
X113215000Y-98424167D01*
X122895000Y-99777500D02*
X122895000Y-98424167D01*
X125555000Y-99777500D02*
X125555000Y-98424167D01*
X125915000Y-99777500D02*
X125915000Y-98424167D01*
X118055000Y-99777500D02*
X118055000Y-98424167D01*
X120475000Y-99777500D02*
X120475000Y-98424167D01*
X116185000Y-99777500D02*
X116185000Y-95717500D01*
X125195000Y-99777500D02*
X125195000Y-98424167D01*
X117575000Y-99777500D02*
X117575000Y-98424167D01*
X121075000Y-99777500D02*
X121075000Y-98424167D01*
X116185000Y-95717500D02*
X114915000Y-95717500D01*
X113645000Y-95717500D02*
X112375000Y-95717500D01*
X105270000Y-102937500D02*
X106653000Y-102937500D01*
X117815000Y-99777500D02*
X117815000Y-98424167D01*
X121265000Y-95717500D02*
X119995000Y-95717500D01*
X125435000Y-99777500D02*
X125435000Y-98424167D01*
X109835000Y-99777500D02*
X111105000Y-99777500D01*
X126345000Y-95717500D02*
X125075000Y-95717500D01*
X108565000Y-99777500D02*
X108565000Y-95717500D01*
X126035000Y-99777500D02*
X126035000Y-98424167D01*
X113575000Y-99777500D02*
X113575000Y-98424167D01*
X107655000Y-99777500D02*
X107655000Y-98424167D01*
X122535000Y-95717500D02*
X122535000Y-99777500D01*
X112975000Y-99777500D02*
X112975000Y-98424167D01*
X117935000Y-99777500D02*
X117935000Y-98424167D01*
X108375000Y-99777500D02*
X108375000Y-98424167D01*
X108565000Y-95717500D02*
X107295000Y-95717500D01*
X122655000Y-99777500D02*
X122655000Y-98424167D01*
X113095000Y-99777500D02*
X113095000Y-98424167D01*
X111105000Y-95717500D02*
X109835000Y-95717500D01*
X108255000Y-99777500D02*
X108255000Y-98424167D01*
X109835000Y-98424167D02*
X111105000Y-98424167D01*
X117695000Y-99777500D02*
X117695000Y-98424167D01*
X112375000Y-95717500D02*
X112375000Y-99777500D01*
X110795000Y-99777500D02*
X110795000Y-98424167D01*
X126345000Y-99777500D02*
X126345000Y-95717500D01*
X114915000Y-98424167D02*
X116185000Y-98424167D01*
X120835000Y-99777500D02*
X120835000Y-98424167D01*
X123255000Y-99777500D02*
X123255000Y-98424167D01*
X110435000Y-99777500D02*
X110435000Y-98424167D01*
X116115000Y-99777500D02*
X116115000Y-98424167D01*
X117455000Y-95717500D02*
X117455000Y-99777500D01*
X118655000Y-99777500D02*
X118655000Y-98424167D01*
X105510000Y-102697500D02*
X105510000Y-92797500D01*
X112615000Y-99777500D02*
X112615000Y-98424167D01*
X115395000Y-99777500D02*
X115395000Y-98424167D01*
X121265000Y-99777500D02*
X121265000Y-95717500D01*
%TO.C,R1*%
X162200000Y-87010000D02*
X162200000Y-83170000D01*
X160360000Y-87010000D02*
X160360000Y-83170000D01*
%TO.C,J1*%
X136270000Y-76992071D02*
X136270000Y-76595000D01*
X128650000Y-67935000D02*
X128650000Y-73935000D01*
X159130000Y-76992071D02*
X159130000Y-76595000D01*
X125350000Y-76992071D02*
X125350000Y-76595000D01*
X150750000Y-67935000D02*
X151510000Y-67935000D01*
X174370000Y-67935000D02*
X174370000Y-73935000D01*
X176910000Y-67935000D02*
X176910000Y-73935000D01*
X115490000Y-73935000D02*
X115490000Y-67935000D01*
X125350000Y-73935000D02*
X125350000Y-67935000D01*
X133730000Y-76992071D02*
X133730000Y-76595000D01*
X117730000Y-67935000D02*
X118490000Y-67935000D01*
X136270000Y-67935000D02*
X136270000Y-73935000D01*
X156590000Y-67935000D02*
X156590000Y-73935000D01*
X171070000Y-76992071D02*
X171070000Y-76595000D01*
X117730000Y-76992071D02*
X117730000Y-76595000D01*
X122810000Y-73935000D02*
X122810000Y-67935000D01*
X134620000Y-76595000D02*
X134620000Y-73935000D01*
X140590000Y-73935000D02*
X140590000Y-67935000D01*
X171070000Y-67935000D02*
X171830000Y-67935000D01*
X138810000Y-67935000D02*
X138810000Y-73935000D01*
X176910000Y-76992071D02*
X176910000Y-76595000D01*
X135510000Y-67935000D02*
X136270000Y-67935000D01*
X148210000Y-67935000D02*
X148970000Y-67935000D01*
X132970000Y-67935000D02*
X133730000Y-67935000D01*
X135510000Y-76992071D02*
X135510000Y-76595000D01*
X140590000Y-76992071D02*
X140590000Y-76595000D01*
X153290000Y-73935000D02*
X153290000Y-67935000D01*
X171830000Y-76992071D02*
X171830000Y-76595000D01*
X157480000Y-76595000D02*
X157480000Y-73935000D01*
X178690000Y-73935000D02*
X178690000Y-67935000D01*
X115190000Y-73935000D02*
X115190000Y-67935000D01*
X155830000Y-67935000D02*
X156590000Y-67935000D01*
X117730000Y-73935000D02*
X117730000Y-67935000D01*
X160020000Y-76595000D02*
X160020000Y-73935000D01*
X126110000Y-76992071D02*
X126110000Y-76595000D01*
X165100000Y-76595000D02*
X165100000Y-73935000D01*
X120270000Y-67935000D02*
X121030000Y-67935000D01*
X176150000Y-67935000D02*
X176910000Y-67935000D01*
X123570000Y-76992071D02*
X123570000Y-76595000D01*
X168530000Y-73935000D02*
X168530000Y-67935000D01*
X166750000Y-76992071D02*
X166750000Y-76595000D01*
X127000000Y-76595000D02*
X127000000Y-73935000D01*
X116840000Y-76595000D02*
X116840000Y-73935000D01*
X161670000Y-76992071D02*
X161670000Y-76595000D01*
X178690000Y-67935000D02*
X179450000Y-67935000D01*
X148970000Y-76992071D02*
X148970000Y-76595000D01*
X153290000Y-76992071D02*
X153290000Y-76595000D01*
X161670000Y-67935000D02*
X161670000Y-73935000D01*
X160910000Y-67935000D02*
X161670000Y-67935000D01*
X178690000Y-76992071D02*
X178690000Y-76595000D01*
X168530000Y-67935000D02*
X169290000Y-67935000D01*
X171070000Y-73935000D02*
X171070000Y-67935000D01*
X155830000Y-76992071D02*
X155830000Y-76595000D01*
X132970000Y-76992071D02*
X132970000Y-76595000D01*
X145670000Y-67935000D02*
X146430000Y-67935000D01*
X147320000Y-76595000D02*
X147320000Y-73935000D01*
X122810000Y-67935000D02*
X123570000Y-67935000D01*
X137160000Y-76595000D02*
X137160000Y-73935000D01*
X118490000Y-67935000D02*
X118490000Y-73935000D01*
X138050000Y-76992071D02*
X138050000Y-76595000D01*
X166750000Y-67935000D02*
X166750000Y-73935000D01*
X174370000Y-76992071D02*
X174370000Y-76595000D01*
X170180000Y-76595000D02*
X170180000Y-73935000D01*
X115730000Y-73935000D02*
X115730000Y-67935000D01*
X138810000Y-76992071D02*
X138810000Y-76595000D01*
X115250000Y-73935000D02*
X115250000Y-67935000D01*
X176150000Y-73935000D02*
X176150000Y-67935000D01*
X118490000Y-76992071D02*
X118490000Y-76595000D01*
X145670000Y-76992071D02*
X145670000Y-76595000D01*
X115950000Y-67935000D02*
X115950000Y-73935000D01*
X158370000Y-76992071D02*
X158370000Y-76595000D01*
X169290000Y-67935000D02*
X169290000Y-73935000D01*
X141350000Y-67935000D02*
X141350000Y-73935000D01*
X126110000Y-67935000D02*
X126110000Y-73935000D01*
X130430000Y-67935000D02*
X131190000Y-67935000D01*
X133730000Y-67935000D02*
X133730000Y-73935000D01*
X160910000Y-76992071D02*
X160910000Y-76595000D01*
X150750000Y-76992071D02*
X150750000Y-76595000D01*
X159130000Y-67935000D02*
X159130000Y-73935000D01*
X151510000Y-67935000D02*
X151510000Y-73935000D01*
X124460000Y-76595000D02*
X124460000Y-73935000D01*
X121920000Y-76595000D02*
X121920000Y-73935000D01*
X115850000Y-73935000D02*
X115850000Y-67935000D01*
X160910000Y-73935000D02*
X160910000Y-67935000D01*
X171830000Y-67935000D02*
X171830000Y-73935000D01*
X115190000Y-67935000D02*
X115950000Y-67935000D01*
X175260000Y-76595000D02*
X175260000Y-73935000D01*
X158370000Y-73935000D02*
X158370000Y-67935000D01*
X148210000Y-76992071D02*
X148210000Y-76595000D01*
X143890000Y-67935000D02*
X143890000Y-73935000D01*
X119380000Y-76595000D02*
X119380000Y-73935000D01*
X143130000Y-73935000D02*
X143130000Y-67935000D01*
X115610000Y-73935000D02*
X115610000Y-67935000D01*
X145670000Y-73935000D02*
X145670000Y-67935000D01*
X158370000Y-67935000D02*
X159130000Y-67935000D01*
X128650000Y-76992071D02*
X128650000Y-76595000D01*
X144780000Y-76595000D02*
X144780000Y-73935000D01*
X180400000Y-76595000D02*
X180400000Y-73935000D01*
X142240000Y-76595000D02*
X142240000Y-73935000D01*
X132970000Y-73935000D02*
X132970000Y-67935000D01*
X138050000Y-73935000D02*
X138050000Y-67935000D01*
X139700000Y-76595000D02*
X139700000Y-73935000D01*
X177800000Y-76595000D02*
X177800000Y-73935000D01*
X150750000Y-73935000D02*
X150750000Y-67935000D01*
X165990000Y-73935000D02*
X165990000Y-67935000D01*
X143130000Y-76992071D02*
X143130000Y-76595000D01*
X164210000Y-67935000D02*
X164210000Y-73935000D01*
X114240000Y-73935000D02*
X114240000Y-76595000D01*
X168530000Y-76992071D02*
X168530000Y-76595000D01*
X127890000Y-73935000D02*
X127890000Y-67935000D01*
X141350000Y-76992071D02*
X141350000Y-76595000D01*
X152400000Y-76595000D02*
X152400000Y-73935000D01*
X163450000Y-73935000D02*
X163450000Y-67935000D01*
X114300000Y-79305000D02*
X114300000Y-78035000D01*
X130430000Y-76992071D02*
X130430000Y-76595000D01*
X169290000Y-76992071D02*
X169290000Y-76595000D01*
X172720000Y-76595000D02*
X172720000Y-73935000D01*
X120270000Y-73935000D02*
X120270000Y-67935000D01*
X165990000Y-76992071D02*
X165990000Y-76595000D01*
X115570000Y-79305000D02*
X114300000Y-79305000D01*
X179450000Y-76992071D02*
X179450000Y-76595000D01*
X143130000Y-67935000D02*
X143890000Y-67935000D01*
X140590000Y-67935000D02*
X141350000Y-67935000D01*
X154050000Y-67935000D02*
X154050000Y-73935000D01*
X115190000Y-76925000D02*
X115190000Y-76595000D01*
X163450000Y-76992071D02*
X163450000Y-76595000D01*
X143890000Y-76992071D02*
X143890000Y-76595000D01*
X151510000Y-76992071D02*
X151510000Y-76595000D01*
X176150000Y-76992071D02*
X176150000Y-76595000D01*
X167640000Y-76595000D02*
X167640000Y-73935000D01*
X179450000Y-67935000D02*
X179450000Y-73935000D01*
X165990000Y-67935000D02*
X166750000Y-67935000D01*
X146430000Y-67935000D02*
X146430000Y-73935000D01*
X123570000Y-67935000D02*
X123570000Y-73935000D01*
X154940000Y-76595000D02*
X154940000Y-73935000D01*
X129540000Y-76595000D02*
X129540000Y-73935000D01*
X115950000Y-76925000D02*
X115950000Y-76595000D01*
X148970000Y-67935000D02*
X148970000Y-73935000D01*
X131190000Y-76992071D02*
X131190000Y-76595000D01*
X127890000Y-76992071D02*
X127890000Y-76595000D01*
X173610000Y-76992071D02*
X173610000Y-76595000D01*
X125350000Y-67935000D02*
X126110000Y-67935000D01*
X120270000Y-76992071D02*
X120270000Y-76595000D01*
X173610000Y-67935000D02*
X174370000Y-67935000D01*
X162560000Y-76595000D02*
X162560000Y-73935000D01*
X180400000Y-73935000D02*
X114240000Y-73935000D01*
X121030000Y-67935000D02*
X121030000Y-73935000D01*
X127890000Y-67935000D02*
X128650000Y-67935000D01*
X146430000Y-76992071D02*
X146430000Y-76595000D01*
X155830000Y-73935000D02*
X155830000Y-67935000D01*
X149860000Y-76595000D02*
X149860000Y-73935000D01*
X164210000Y-76992071D02*
X164210000Y-76595000D01*
X121030000Y-76992071D02*
X121030000Y-76595000D01*
X115370000Y-73935000D02*
X115370000Y-67935000D01*
X122810000Y-76992071D02*
X122810000Y-76595000D01*
X135510000Y-73935000D02*
X135510000Y-67935000D01*
X173610000Y-73935000D02*
X173610000Y-67935000D01*
X154050000Y-76992071D02*
X154050000Y-76595000D01*
X153290000Y-67935000D02*
X154050000Y-67935000D01*
X163450000Y-67935000D02*
X164210000Y-67935000D01*
X131190000Y-67935000D02*
X131190000Y-73935000D01*
X156590000Y-76992071D02*
X156590000Y-76595000D01*
X114240000Y-76595000D02*
X180400000Y-76595000D01*
X148210000Y-73935000D02*
X148210000Y-67935000D01*
X132080000Y-76595000D02*
X132080000Y-73935000D01*
X130430000Y-73935000D02*
X130430000Y-67935000D01*
X138050000Y-67935000D02*
X138810000Y-67935000D01*
%TO.C,R13*%
X119020000Y-87010000D02*
X119020000Y-83170000D01*
X117180000Y-87010000D02*
X117180000Y-83170000D01*
%TO.C,R21*%
X141320000Y-87010000D02*
X141320000Y-83170000D01*
X143160000Y-87010000D02*
X143160000Y-83170000D01*
%TO.C,R25*%
X155860000Y-92060000D02*
X155860000Y-95900000D01*
X154020000Y-92060000D02*
X154020000Y-95900000D01*
%TO.C,R14*%
X121560000Y-87010000D02*
X121560000Y-83170000D01*
X119720000Y-87010000D02*
X119720000Y-83170000D01*
%TO.C,SW5*%
X108470000Y-87320000D02*
X109970000Y-87320000D01*
X109970000Y-80320000D02*
X108470000Y-80320000D01*
X105970000Y-81570000D02*
X105970000Y-86070000D01*
X112470000Y-86070000D02*
X112470000Y-81570000D01*
%TO.C,SW3*%
X134695000Y-99777500D02*
X134695000Y-98424167D01*
X147515000Y-99777500D02*
X147515000Y-98424167D01*
X134455000Y-99777500D02*
X134455000Y-98424167D01*
X140325000Y-99777500D02*
X140325000Y-95717500D01*
X132035000Y-99777500D02*
X132035000Y-98424167D01*
X150485000Y-99777500D02*
X150485000Y-95717500D01*
X149455000Y-99777500D02*
X149455000Y-98424167D01*
X146675000Y-98424167D02*
X147945000Y-98424167D01*
X140325000Y-95717500D02*
X139055000Y-95717500D01*
X145405000Y-95717500D02*
X144135000Y-95717500D01*
X133975000Y-99777500D02*
X135245000Y-99777500D01*
X131435000Y-95717500D02*
X131435000Y-99777500D01*
X152271000Y-102697500D02*
X152271000Y-92797500D01*
X137785000Y-95717500D02*
X136515000Y-95717500D01*
X140255000Y-99777500D02*
X140255000Y-98424167D01*
X137475000Y-99777500D02*
X137475000Y-98424167D01*
X147755000Y-99777500D02*
X147755000Y-98424167D01*
X146795000Y-99777500D02*
X146795000Y-98424167D01*
X139535000Y-99777500D02*
X139535000Y-98424167D01*
X149935000Y-99777500D02*
X149935000Y-98424167D01*
X137115000Y-99777500D02*
X137115000Y-98424167D01*
X147945000Y-95717500D02*
X146675000Y-95717500D01*
X139055000Y-98424167D02*
X140325000Y-98424167D01*
X139175000Y-99777500D02*
X139175000Y-98424167D01*
X133975000Y-95717500D02*
X133975000Y-99777500D01*
X136635000Y-99777500D02*
X136635000Y-98424167D01*
X144135000Y-98424167D02*
X145405000Y-98424167D01*
X141715000Y-99777500D02*
X141715000Y-98424167D01*
X147035000Y-99777500D02*
X147035000Y-98424167D01*
X132515000Y-99777500D02*
X132515000Y-98424167D01*
X132155000Y-99777500D02*
X132155000Y-98424167D01*
X147155000Y-99777500D02*
X147155000Y-98424167D01*
X146675000Y-95717500D02*
X146675000Y-99777500D01*
X135245000Y-95717500D02*
X133975000Y-95717500D01*
X149575000Y-99777500D02*
X149575000Y-98424167D01*
X150295000Y-99777500D02*
X150295000Y-98424167D01*
X129410000Y-102937500D02*
X129410000Y-101553500D01*
X129650000Y-102697500D02*
X152271000Y-102697500D01*
X132275000Y-99777500D02*
X132275000Y-98424167D01*
X147635000Y-99777500D02*
X147635000Y-98424167D01*
X142865000Y-99777500D02*
X142865000Y-95717500D01*
X147395000Y-99777500D02*
X147395000Y-98424167D01*
X144135000Y-99777500D02*
X145405000Y-99777500D01*
X139295000Y-99777500D02*
X139295000Y-98424167D01*
X139655000Y-99777500D02*
X139655000Y-98424167D01*
X132705000Y-95717500D02*
X131435000Y-95717500D01*
X136755000Y-99777500D02*
X136755000Y-98424167D01*
X132705000Y-99777500D02*
X132705000Y-95717500D01*
X136515000Y-95717500D02*
X136515000Y-99777500D01*
X131435000Y-98424167D02*
X132705000Y-98424167D01*
X142795000Y-99777500D02*
X142795000Y-98424167D01*
X131915000Y-99777500D02*
X131915000Y-98424167D01*
X137595000Y-99777500D02*
X137595000Y-98424167D01*
X144975000Y-99777500D02*
X144975000Y-98424167D01*
X142315000Y-99777500D02*
X142315000Y-98424167D01*
X141595000Y-99777500D02*
X142865000Y-99777500D01*
X144255000Y-99777500D02*
X144255000Y-98424167D01*
X147875000Y-99777500D02*
X147875000Y-98424167D01*
X137785000Y-99777500D02*
X137785000Y-95717500D01*
X144615000Y-99777500D02*
X144615000Y-98424167D01*
X139055000Y-95717500D02*
X139055000Y-99777500D01*
X136515000Y-99777500D02*
X137785000Y-99777500D01*
X144495000Y-99777500D02*
X144495000Y-98424167D01*
X141955000Y-99777500D02*
X141955000Y-98424167D01*
X135055000Y-99777500D02*
X135055000Y-98424167D01*
X134095000Y-99777500D02*
X134095000Y-98424167D01*
X133975000Y-98424167D02*
X135245000Y-98424167D01*
X132635000Y-99777500D02*
X132635000Y-98424167D01*
X142435000Y-99777500D02*
X142435000Y-98424167D01*
X146915000Y-99777500D02*
X146915000Y-98424167D01*
X150175000Y-99777500D02*
X150175000Y-98424167D01*
X129650000Y-92797500D02*
X152271000Y-92797500D01*
X144855000Y-99777500D02*
X144855000Y-98424167D01*
X139895000Y-99777500D02*
X139895000Y-98424167D01*
X149215000Y-99777500D02*
X150485000Y-99777500D01*
X150485000Y-95717500D02*
X149215000Y-95717500D01*
X145215000Y-99777500D02*
X145215000Y-98424167D01*
X139055000Y-99777500D02*
X140325000Y-99777500D01*
X150055000Y-99777500D02*
X150055000Y-98424167D01*
X131675000Y-99777500D02*
X131675000Y-98424167D01*
X131435000Y-99777500D02*
X132705000Y-99777500D01*
X137715000Y-99777500D02*
X137715000Y-98424167D01*
X142675000Y-99777500D02*
X142675000Y-98424167D01*
X132395000Y-99777500D02*
X132395000Y-98424167D01*
X134935000Y-99777500D02*
X134935000Y-98424167D01*
X134815000Y-99777500D02*
X134815000Y-98424167D01*
X149335000Y-99777500D02*
X149335000Y-98424167D01*
X134575000Y-99777500D02*
X134575000Y-98424167D01*
X135175000Y-99777500D02*
X135175000Y-98424167D01*
X149695000Y-99777500D02*
X149695000Y-98424167D01*
X134215000Y-99777500D02*
X134215000Y-98424167D01*
X141595000Y-98424167D02*
X142865000Y-98424167D01*
X136875000Y-99777500D02*
X136875000Y-98424167D01*
X145405000Y-99777500D02*
X145405000Y-95717500D01*
X131795000Y-99777500D02*
X131795000Y-98424167D01*
X129650000Y-102697500D02*
X129650000Y-92797500D01*
X150415000Y-99777500D02*
X150415000Y-98424167D01*
X139415000Y-99777500D02*
X139415000Y-98424167D01*
X144375000Y-99777500D02*
X144375000Y-98424167D01*
X145335000Y-99777500D02*
X145335000Y-98424167D01*
X137355000Y-99777500D02*
X137355000Y-98424167D01*
X140015000Y-99777500D02*
X140015000Y-98424167D01*
X136995000Y-99777500D02*
X136995000Y-98424167D01*
X139775000Y-99777500D02*
X139775000Y-98424167D01*
X147945000Y-99777500D02*
X147945000Y-95717500D01*
X141595000Y-95717500D02*
X141595000Y-99777500D01*
X134335000Y-99777500D02*
X134335000Y-98424167D01*
X145095000Y-99777500D02*
X145095000Y-98424167D01*
X129410000Y-102937500D02*
X130793000Y-102937500D01*
X149815000Y-99777500D02*
X149815000Y-98424167D01*
X146675000Y-99777500D02*
X147945000Y-99777500D01*
X137235000Y-99777500D02*
X137235000Y-98424167D01*
X142195000Y-99777500D02*
X142195000Y-98424167D01*
X142555000Y-99777500D02*
X142555000Y-98424167D01*
X149215000Y-98424167D02*
X150485000Y-98424167D01*
X147275000Y-99777500D02*
X147275000Y-98424167D01*
X135245000Y-99777500D02*
X135245000Y-95717500D01*
X144135000Y-95717500D02*
X144135000Y-99777500D01*
X149215000Y-95717500D02*
X149215000Y-99777500D01*
X144735000Y-99777500D02*
X144735000Y-98424167D01*
X140135000Y-99777500D02*
X140135000Y-98424167D01*
X142865000Y-95717500D02*
X141595000Y-95717500D01*
X131555000Y-99777500D02*
X131555000Y-98424167D01*
X136515000Y-98424167D02*
X137785000Y-98424167D01*
X142075000Y-99777500D02*
X142075000Y-98424167D01*
X141835000Y-99777500D02*
X141835000Y-98424167D01*
%TO.C,R15*%
X124100000Y-87010000D02*
X124100000Y-83170000D01*
X122260000Y-87010000D02*
X122260000Y-83170000D01*
%TO.C,R23*%
X146390000Y-87010000D02*
X146390000Y-83170000D01*
X148230000Y-87010000D02*
X148230000Y-83170000D01*
%TO.C,R8*%
X170520000Y-87010000D02*
X170520000Y-83170000D01*
X172360000Y-87010000D02*
X172360000Y-83170000D01*
%TO.C,R11*%
X179980000Y-87010000D02*
X179980000Y-83170000D01*
X178140000Y-87010000D02*
X178140000Y-83170000D01*
%TO.C,R12*%
X116480000Y-87010000D02*
X116480000Y-83170000D01*
X114640000Y-87010000D02*
X114640000Y-83170000D01*
%TO.C,R4*%
X167280000Y-87010000D02*
X167280000Y-83170000D01*
X165440000Y-87010000D02*
X165440000Y-83170000D01*
%TO.C,R20*%
X140610000Y-87010000D02*
X140610000Y-83170000D01*
X138770000Y-87010000D02*
X138770000Y-83170000D01*
%TO.C,SW1*%
X177075000Y-99777500D02*
X177075000Y-98424167D01*
X171275000Y-99777500D02*
X171275000Y-98424167D01*
X166315000Y-99777500D02*
X166315000Y-98424167D01*
X164445000Y-99777500D02*
X164445000Y-95717500D01*
X169215000Y-99777500D02*
X169215000Y-98424167D01*
X160995000Y-99777500D02*
X160995000Y-98424167D01*
X173335000Y-98424167D02*
X174605000Y-98424167D01*
X163655000Y-99777500D02*
X163655000Y-98424167D01*
X178775000Y-99777500D02*
X178775000Y-98424167D01*
X174055000Y-99777500D02*
X174055000Y-98424167D01*
X160635000Y-95717500D02*
X160635000Y-99777500D01*
X170795000Y-95717500D02*
X170795000Y-99777500D01*
X169335000Y-99777500D02*
X169335000Y-98424167D01*
X169095000Y-99777500D02*
X169095000Y-98424167D01*
X166435000Y-99777500D02*
X166435000Y-98424167D01*
X161905000Y-95717500D02*
X160635000Y-95717500D01*
X170795000Y-98424167D02*
X172065000Y-98424167D01*
X163895000Y-99777500D02*
X163895000Y-98424167D01*
X174535000Y-99777500D02*
X174535000Y-98424167D01*
X178415000Y-95717500D02*
X178415000Y-99777500D01*
X174415000Y-99777500D02*
X174415000Y-98424167D01*
X179135000Y-99777500D02*
X179135000Y-98424167D01*
X164255000Y-99777500D02*
X164255000Y-98424167D01*
X176115000Y-99777500D02*
X176115000Y-98424167D01*
X173575000Y-99777500D02*
X173575000Y-98424167D01*
X160755000Y-99777500D02*
X160755000Y-98424167D01*
X176955000Y-99777500D02*
X176955000Y-98424167D01*
X174605000Y-99777500D02*
X174605000Y-95717500D01*
X179495000Y-99777500D02*
X179495000Y-98424167D01*
X168855000Y-99777500D02*
X168855000Y-98424167D01*
X161115000Y-99777500D02*
X161115000Y-98424167D01*
X160635000Y-99777500D02*
X161905000Y-99777500D01*
X171995000Y-99777500D02*
X171995000Y-98424167D01*
X164135000Y-99777500D02*
X164135000Y-98424167D01*
X174605000Y-95717500D02*
X173335000Y-95717500D01*
X161905000Y-99777500D02*
X161905000Y-95717500D01*
X168375000Y-99777500D02*
X168375000Y-98424167D01*
X173455000Y-99777500D02*
X173455000Y-98424167D01*
X163775000Y-99777500D02*
X163775000Y-98424167D01*
X166795000Y-99777500D02*
X166795000Y-98424167D01*
X174295000Y-99777500D02*
X174295000Y-98424167D01*
X171635000Y-99777500D02*
X171635000Y-98424167D01*
X169525000Y-95717500D02*
X168255000Y-95717500D01*
X165715000Y-95717500D02*
X165715000Y-99777500D01*
X161475000Y-99777500D02*
X161475000Y-98424167D01*
X166985000Y-99777500D02*
X166985000Y-95717500D01*
X168255000Y-95717500D02*
X168255000Y-99777500D01*
X171395000Y-99777500D02*
X171395000Y-98424167D01*
X158610000Y-102937500D02*
X158610000Y-101553500D01*
X166985000Y-95717500D02*
X165715000Y-95717500D01*
X163295000Y-99777500D02*
X163295000Y-98424167D01*
X158850000Y-102697500D02*
X158850000Y-92797500D01*
X173935000Y-99777500D02*
X173935000Y-98424167D01*
X168495000Y-99777500D02*
X168495000Y-98424167D01*
X176835000Y-99777500D02*
X176835000Y-98424167D01*
X161595000Y-99777500D02*
X161595000Y-98424167D01*
X175875000Y-95717500D02*
X175875000Y-99777500D01*
X179615000Y-99777500D02*
X179615000Y-98424167D01*
X168615000Y-99777500D02*
X168615000Y-98424167D01*
X165715000Y-98424167D02*
X166985000Y-98424167D01*
X161715000Y-99777500D02*
X161715000Y-98424167D01*
X160635000Y-98424167D02*
X161905000Y-98424167D01*
X163175000Y-98424167D02*
X164445000Y-98424167D01*
X164015000Y-99777500D02*
X164015000Y-98424167D01*
X165835000Y-99777500D02*
X165835000Y-98424167D01*
X166075000Y-99777500D02*
X166075000Y-98424167D01*
X165955000Y-99777500D02*
X165955000Y-98424167D01*
X179255000Y-99777500D02*
X179255000Y-98424167D01*
X170915000Y-99777500D02*
X170915000Y-98424167D01*
X178895000Y-99777500D02*
X178895000Y-98424167D01*
X166555000Y-99777500D02*
X166555000Y-98424167D01*
X158850000Y-92797500D02*
X181471000Y-92797500D01*
X169455000Y-99777500D02*
X169455000Y-98424167D01*
X173695000Y-99777500D02*
X173695000Y-98424167D01*
X172065000Y-99777500D02*
X172065000Y-95717500D01*
X175875000Y-98424167D02*
X177145000Y-98424167D01*
X160875000Y-99777500D02*
X160875000Y-98424167D01*
X166915000Y-99777500D02*
X166915000Y-98424167D01*
X163415000Y-99777500D02*
X163415000Y-98424167D01*
X168735000Y-99777500D02*
X168735000Y-98424167D01*
X164445000Y-95717500D02*
X163175000Y-95717500D01*
X178655000Y-99777500D02*
X178655000Y-98424167D01*
X163535000Y-99777500D02*
X163535000Y-98424167D01*
X171035000Y-99777500D02*
X171035000Y-98424167D01*
X176235000Y-99777500D02*
X176235000Y-98424167D01*
X179375000Y-99777500D02*
X179375000Y-98424167D01*
X168255000Y-99777500D02*
X169525000Y-99777500D01*
X170795000Y-99777500D02*
X172065000Y-99777500D01*
X171515000Y-99777500D02*
X171515000Y-98424167D01*
X178535000Y-99777500D02*
X178535000Y-98424167D01*
X173815000Y-99777500D02*
X173815000Y-98424167D01*
X176595000Y-99777500D02*
X176595000Y-98424167D01*
X175995000Y-99777500D02*
X175995000Y-98424167D01*
X164375000Y-99777500D02*
X164375000Y-98424167D01*
X161835000Y-99777500D02*
X161835000Y-98424167D01*
X176475000Y-99777500D02*
X176475000Y-98424167D01*
X177145000Y-99777500D02*
X177145000Y-95717500D01*
X161235000Y-99777500D02*
X161235000Y-98424167D01*
X178415000Y-98424167D02*
X179685000Y-98424167D01*
X163175000Y-95717500D02*
X163175000Y-99777500D01*
X179685000Y-95717500D02*
X178415000Y-95717500D01*
X158610000Y-102937500D02*
X159993000Y-102937500D01*
X177145000Y-95717500D02*
X175875000Y-95717500D01*
X172065000Y-95717500D02*
X170795000Y-95717500D01*
X175875000Y-99777500D02*
X177145000Y-99777500D01*
X168975000Y-99777500D02*
X168975000Y-98424167D01*
X174175000Y-99777500D02*
X174175000Y-98424167D01*
X169525000Y-99777500D02*
X169525000Y-95717500D01*
X171755000Y-99777500D02*
X171755000Y-98424167D01*
X163175000Y-99777500D02*
X164445000Y-99777500D01*
X173335000Y-99777500D02*
X174605000Y-99777500D01*
X173335000Y-95717500D02*
X173335000Y-99777500D01*
X178415000Y-99777500D02*
X179685000Y-99777500D01*
X181471000Y-102697500D02*
X181471000Y-92797500D01*
X166195000Y-99777500D02*
X166195000Y-98424167D01*
X161355000Y-99777500D02*
X161355000Y-98424167D01*
X168255000Y-98424167D02*
X169525000Y-98424167D01*
X179685000Y-99777500D02*
X179685000Y-95717500D01*
X176355000Y-99777500D02*
X176355000Y-98424167D01*
X179015000Y-99777500D02*
X179015000Y-98424167D01*
X171875000Y-99777500D02*
X171875000Y-98424167D01*
X165715000Y-99777500D02*
X166985000Y-99777500D01*
X158850000Y-102697500D02*
X181471000Y-102697500D01*
X171155000Y-99777500D02*
X171155000Y-98424167D01*
X166675000Y-99777500D02*
X166675000Y-98424167D01*
X176715000Y-99777500D02*
X176715000Y-98424167D01*
%TO.C,R24*%
X150770000Y-87010000D02*
X150770000Y-83170000D01*
X148930000Y-87010000D02*
X148930000Y-83170000D01*
%TO.C,R22*%
X145700000Y-87010000D02*
X145700000Y-83170000D01*
X143860000Y-87010000D02*
X143860000Y-83170000D01*
%TO.C,R2*%
X162900000Y-87010000D02*
X162900000Y-83170000D01*
X164740000Y-87010000D02*
X164740000Y-83170000D01*
%TO.C,R5*%
X101950000Y-92090000D02*
X101950000Y-88250000D01*
X103790000Y-92090000D02*
X103790000Y-88250000D01*
%TO.C,R18*%
X135530000Y-87010000D02*
X135530000Y-83170000D01*
X133690000Y-87010000D02*
X133690000Y-83170000D01*
%TO.C,R17*%
X131160000Y-87010000D02*
X131160000Y-83170000D01*
X133000000Y-87010000D02*
X133000000Y-83170000D01*
%TO.C,R6*%
X167980000Y-87010000D02*
X167980000Y-83170000D01*
X169820000Y-87010000D02*
X169820000Y-83170000D01*
%TO.C,R10*%
X175610000Y-87010000D02*
X175610000Y-83170000D01*
X177450000Y-87010000D02*
X177450000Y-83170000D01*
%TO.C,SW6*%
X191460000Y-90920000D02*
X191460000Y-89420000D01*
X185710000Y-93420000D02*
X190210000Y-93420000D01*
X190210000Y-86920000D02*
X185710000Y-86920000D01*
X184460000Y-89420000D02*
X184460000Y-90920000D01*
%TO.C,R19*%
X138070000Y-87010000D02*
X138070000Y-83170000D01*
X136230000Y-87010000D02*
X136230000Y-83170000D01*
%TO.C,R16*%
X124800000Y-87010000D02*
X124800000Y-83170000D01*
X126640000Y-87010000D02*
X126640000Y-83170000D01*
%TD*%
%LPC*%
D15*
%TO.C,R9*%
X173980000Y-87630000D03*
D16*
X173980000Y-82550000D03*
%TD*%
D15*
%TO.C,R7*%
X185420000Y-101600000D03*
D16*
X190500000Y-101600000D03*
%TD*%
D17*
%TO.C,D1*%
X154940000Y-99060000D03*
D18*
X154940000Y-101600000D03*
%TD*%
D19*
%TO.C,SW4*%
X191210000Y-78760000D03*
X184710000Y-78760000D03*
X191210000Y-83260000D03*
X184710000Y-83260000D03*
%TD*%
D15*
%TO.C,R3*%
X185420000Y-97790000D03*
D16*
X190500000Y-97790000D03*
%TD*%
D20*
%TO.C,SW2*%
X107930000Y-101557500D03*
D21*
X110470000Y-101557500D03*
X113010000Y-101557500D03*
X115550000Y-101557500D03*
X118090000Y-101557500D03*
X120630000Y-101557500D03*
X123170000Y-101557500D03*
X125710000Y-101557500D03*
X125710000Y-93937500D03*
X123170000Y-93937500D03*
X120630000Y-93937500D03*
X118090000Y-93937500D03*
X115550000Y-93937500D03*
X113010000Y-93937500D03*
X110470000Y-93937500D03*
X107930000Y-93937500D03*
%TD*%
D15*
%TO.C,R1*%
X161280000Y-87630000D03*
D16*
X161280000Y-82550000D03*
%TD*%
D22*
%TO.C,J1*%
X115570000Y-78035000D03*
D23*
X118110000Y-78035000D03*
X120650000Y-78035000D03*
X123190000Y-78035000D03*
X125730000Y-78035000D03*
X128270000Y-78035000D03*
X130810000Y-78035000D03*
X133350000Y-78035000D03*
X135890000Y-78035000D03*
X138430000Y-78035000D03*
X140970000Y-78035000D03*
X143510000Y-78035000D03*
X146050000Y-78035000D03*
X148590000Y-78035000D03*
X151130000Y-78035000D03*
X153670000Y-78035000D03*
X156210000Y-78035000D03*
X158750000Y-78035000D03*
X161290000Y-78035000D03*
X163830000Y-78035000D03*
X166370000Y-78035000D03*
X168910000Y-78035000D03*
X171450000Y-78035000D03*
X173990000Y-78035000D03*
X176530000Y-78035000D03*
X179070000Y-78035000D03*
%TD*%
D15*
%TO.C,R13*%
X118100000Y-87630000D03*
D16*
X118100000Y-82550000D03*
%TD*%
D15*
%TO.C,R21*%
X142240000Y-87630000D03*
D16*
X142240000Y-82550000D03*
%TD*%
D15*
%TO.C,R25*%
X154940000Y-91440000D03*
D16*
X154940000Y-96520000D03*
%TD*%
D15*
%TO.C,R14*%
X120640000Y-87630000D03*
D16*
X120640000Y-82550000D03*
%TD*%
D19*
%TO.C,SW5*%
X111470000Y-87070000D03*
X111470000Y-80570000D03*
X106970000Y-80570000D03*
X106970000Y-87070000D03*
%TD*%
D20*
%TO.C,SW3*%
X132070000Y-101557500D03*
D21*
X134610000Y-101557500D03*
X137150000Y-101557500D03*
X139690000Y-101557500D03*
X142230000Y-101557500D03*
X144770000Y-101557500D03*
X147310000Y-101557500D03*
X149850000Y-101557500D03*
X149850000Y-93937500D03*
X147310000Y-93937500D03*
X144770000Y-93937500D03*
X142230000Y-93937500D03*
X139690000Y-93937500D03*
X137150000Y-93937500D03*
X134610000Y-93937500D03*
X132070000Y-93937500D03*
%TD*%
D15*
%TO.C,R15*%
X123180000Y-87630000D03*
D16*
X123180000Y-82550000D03*
%TD*%
D15*
%TO.C,R23*%
X147310000Y-87630000D03*
D16*
X147310000Y-82550000D03*
%TD*%
D15*
%TO.C,R8*%
X171440000Y-87630000D03*
D16*
X171440000Y-82550000D03*
%TD*%
D15*
%TO.C,R11*%
X179060000Y-87630000D03*
D16*
X179060000Y-82550000D03*
%TD*%
D15*
%TO.C,R12*%
X115560000Y-87630000D03*
D16*
X115560000Y-82550000D03*
%TD*%
D15*
%TO.C,R4*%
X166360000Y-87630000D03*
D16*
X166360000Y-82550000D03*
%TD*%
D15*
%TO.C,R20*%
X139690000Y-87630000D03*
D16*
X139690000Y-82550000D03*
%TD*%
D20*
%TO.C,SW1*%
X161270000Y-101557500D03*
D21*
X163810000Y-101557500D03*
X166350000Y-101557500D03*
X168890000Y-101557500D03*
X171430000Y-101557500D03*
X173970000Y-101557500D03*
X176510000Y-101557500D03*
X179050000Y-101557500D03*
X179050000Y-93937500D03*
X176510000Y-93937500D03*
X173970000Y-93937500D03*
X171430000Y-93937500D03*
X168890000Y-93937500D03*
X166350000Y-93937500D03*
X163810000Y-93937500D03*
X161270000Y-93937500D03*
%TD*%
D15*
%TO.C,R24*%
X149850000Y-87630000D03*
D16*
X149850000Y-82550000D03*
%TD*%
D15*
%TO.C,R22*%
X144780000Y-87630000D03*
D16*
X144780000Y-82550000D03*
%TD*%
D15*
%TO.C,R2*%
X163820000Y-87630000D03*
D16*
X163820000Y-82550000D03*
%TD*%
D15*
%TO.C,R5*%
X102870000Y-92710000D03*
D16*
X102870000Y-87630000D03*
%TD*%
D15*
%TO.C,R18*%
X134610000Y-87630000D03*
D16*
X134610000Y-82550000D03*
%TD*%
D15*
%TO.C,R17*%
X132080000Y-87630000D03*
D16*
X132080000Y-82550000D03*
%TD*%
D15*
%TO.C,R6*%
X168900000Y-87630000D03*
D16*
X168900000Y-82550000D03*
%TD*%
D15*
%TO.C,R10*%
X176530000Y-87630000D03*
D16*
X176530000Y-82550000D03*
%TD*%
D19*
%TO.C,SW6*%
X191210000Y-87920000D03*
X184710000Y-87920000D03*
X184710000Y-92420000D03*
X191210000Y-92420000D03*
%TD*%
D15*
%TO.C,R19*%
X137150000Y-87630000D03*
D16*
X137150000Y-82550000D03*
%TD*%
D15*
%TO.C,R16*%
X125720000Y-87630000D03*
D16*
X125720000Y-82550000D03*
%TD*%
M02*
