%TF.GenerationSoftware,KiCad,Pcbnew,(6.0.9)*%
%TF.CreationDate,2025-06-07T15:03:21-04:00*%
%TF.ProjectId,DebugBoard,44656275-6742-46f6-9172-642e6b696361,1*%
%TF.SameCoordinates,Original*%
%TF.FileFunction,Drillmap*%
%TF.FilePolarity,Positive*%
%FSLAX45Y45*%
G04 Gerber Fmt 4.5, Leading zero omitted, Abs format (unit mm)*
G04 Created by KiCad (PCBNEW (6.0.9)) date 2025-06-07 15:03:21*
%MOMM*%
%LPD*%
G01*
G04 APERTURE LIST*
%ADD10C,0.100000*%
%ADD11C,0.200000*%
G04 APERTURE END LIST*
D10*
X19050000Y-10541000D02*
X10668000Y-10541000D01*
X10668000Y-7493000D02*
G75*
G03*
X10033000Y-8128000I0J-635000D01*
G01*
X10033000Y-9906000D02*
G75*
G03*
X10668000Y-10541000I635000J0D01*
G01*
X10668000Y-7493000D02*
X19050000Y-7493000D01*
X19050000Y-10541000D02*
G75*
G03*
X19685000Y-9906000I0J635000D01*
G01*
X19685000Y-8128000D02*
G75*
G03*
X19050000Y-7493000I-635000J0D01*
G01*
X10033000Y-9906000D02*
X10033000Y-8128000D01*
X19685000Y-8128000D02*
X19685000Y-9906000D01*
D11*
X10285619Y-10856476D02*
X10285619Y-10656476D01*
X10333238Y-10656476D01*
X10361810Y-10666000D01*
X10380857Y-10685048D01*
X10390381Y-10704095D01*
X10399905Y-10742190D01*
X10399905Y-10770762D01*
X10390381Y-10808857D01*
X10380857Y-10827905D01*
X10361810Y-10846952D01*
X10333238Y-10856476D01*
X10285619Y-10856476D01*
X10485619Y-10856476D02*
X10485619Y-10723143D01*
X10485619Y-10761238D02*
X10495143Y-10742190D01*
X10504667Y-10732667D01*
X10523714Y-10723143D01*
X10542762Y-10723143D01*
X10609429Y-10856476D02*
X10609429Y-10723143D01*
X10609429Y-10656476D02*
X10599905Y-10666000D01*
X10609429Y-10675524D01*
X10618952Y-10666000D01*
X10609429Y-10656476D01*
X10609429Y-10675524D01*
X10733238Y-10856476D02*
X10714190Y-10846952D01*
X10704667Y-10827905D01*
X10704667Y-10656476D01*
X10838000Y-10856476D02*
X10818952Y-10846952D01*
X10809429Y-10827905D01*
X10809429Y-10656476D01*
X11066571Y-10856476D02*
X11066571Y-10656476D01*
X11133238Y-10799333D01*
X11199905Y-10656476D01*
X11199905Y-10856476D01*
X11380857Y-10856476D02*
X11380857Y-10751714D01*
X11371333Y-10732667D01*
X11352286Y-10723143D01*
X11314190Y-10723143D01*
X11295143Y-10732667D01*
X11380857Y-10846952D02*
X11361809Y-10856476D01*
X11314190Y-10856476D01*
X11295143Y-10846952D01*
X11285619Y-10827905D01*
X11285619Y-10808857D01*
X11295143Y-10789810D01*
X11314190Y-10780286D01*
X11361809Y-10780286D01*
X11380857Y-10770762D01*
X11476095Y-10723143D02*
X11476095Y-10923143D01*
X11476095Y-10732667D02*
X11495143Y-10723143D01*
X11533238Y-10723143D01*
X11552286Y-10732667D01*
X11561809Y-10742190D01*
X11571333Y-10761238D01*
X11571333Y-10818381D01*
X11561809Y-10837429D01*
X11552286Y-10846952D01*
X11533238Y-10856476D01*
X11495143Y-10856476D01*
X11476095Y-10846952D01*
X11657048Y-10837429D02*
X11666571Y-10846952D01*
X11657048Y-10856476D01*
X11647524Y-10846952D01*
X11657048Y-10837429D01*
X11657048Y-10856476D01*
X11657048Y-10732667D02*
X11666571Y-10742190D01*
X11657048Y-10751714D01*
X11647524Y-10742190D01*
X11657048Y-10732667D01*
X11657048Y-10751714D01*
M02*
