%TF.GenerationSoftware,KiCad,Pcbnew,(6.0.9)*%
%TF.CreationDate,2025-06-07T15:03:12-04:00*%
%TF.ProjectId,DebugBoard,44656275-6742-46f6-9172-642e6b696361,1*%
%TF.SameCoordinates,Original*%
%TF.FileFunction,Soldermask,Top*%
%TF.FilePolarity,Negative*%
%FSLAX46Y46*%
G04 Gerber Fmt 4.6, Leading zero omitted, Abs format (unit mm)*
G04 Created by KiCad (PCBNEW (6.0.9)) date 2025-06-07 15:03:12*
%MOMM*%
%LPD*%
G01*
G04 APERTURE LIST*
%ADD10C,1.400000*%
%ADD11O,1.400000X1.400000*%
%ADD12R,1.800000X1.800000*%
%ADD13C,1.800000*%
%ADD14C,2.000000*%
%ADD15R,1.600000X1.600000*%
%ADD16O,1.600000X1.600000*%
%ADD17R,1.700000X1.700000*%
%ADD18O,1.700000X1.700000*%
G04 APERTURE END LIST*
D10*
%TO.C,R9*%
X173980000Y-87630000D03*
D11*
X173980000Y-82550000D03*
%TD*%
D10*
%TO.C,R7*%
X185420000Y-101600000D03*
D11*
X190500000Y-101600000D03*
%TD*%
D12*
%TO.C,D1*%
X154940000Y-99060000D03*
D13*
X154940000Y-101600000D03*
%TD*%
D14*
%TO.C,SW4*%
X191210000Y-78760000D03*
X184710000Y-78760000D03*
X191210000Y-83260000D03*
X184710000Y-83260000D03*
%TD*%
D10*
%TO.C,R3*%
X185420000Y-97790000D03*
D11*
X190500000Y-97790000D03*
%TD*%
D15*
%TO.C,SW2*%
X107930000Y-101557500D03*
D16*
X110470000Y-101557500D03*
X113010000Y-101557500D03*
X115550000Y-101557500D03*
X118090000Y-101557500D03*
X120630000Y-101557500D03*
X123170000Y-101557500D03*
X125710000Y-101557500D03*
X125710000Y-93937500D03*
X123170000Y-93937500D03*
X120630000Y-93937500D03*
X118090000Y-93937500D03*
X115550000Y-93937500D03*
X113010000Y-93937500D03*
X110470000Y-93937500D03*
X107930000Y-93937500D03*
%TD*%
D10*
%TO.C,R1*%
X161280000Y-87630000D03*
D11*
X161280000Y-82550000D03*
%TD*%
D17*
%TO.C,J1*%
X115570000Y-78035000D03*
D18*
X118110000Y-78035000D03*
X120650000Y-78035000D03*
X123190000Y-78035000D03*
X125730000Y-78035000D03*
X128270000Y-78035000D03*
X130810000Y-78035000D03*
X133350000Y-78035000D03*
X135890000Y-78035000D03*
X138430000Y-78035000D03*
X140970000Y-78035000D03*
X143510000Y-78035000D03*
X146050000Y-78035000D03*
X148590000Y-78035000D03*
X151130000Y-78035000D03*
X153670000Y-78035000D03*
X156210000Y-78035000D03*
X158750000Y-78035000D03*
X161290000Y-78035000D03*
X163830000Y-78035000D03*
X166370000Y-78035000D03*
X168910000Y-78035000D03*
X171450000Y-78035000D03*
X173990000Y-78035000D03*
X176530000Y-78035000D03*
X179070000Y-78035000D03*
%TD*%
D10*
%TO.C,R13*%
X118100000Y-87630000D03*
D11*
X118100000Y-82550000D03*
%TD*%
D10*
%TO.C,R21*%
X142240000Y-87630000D03*
D11*
X142240000Y-82550000D03*
%TD*%
D10*
%TO.C,R25*%
X154940000Y-91440000D03*
D11*
X154940000Y-96520000D03*
%TD*%
D10*
%TO.C,R14*%
X120640000Y-87630000D03*
D11*
X120640000Y-82550000D03*
%TD*%
D14*
%TO.C,SW5*%
X111470000Y-87070000D03*
X111470000Y-80570000D03*
X106970000Y-80570000D03*
X106970000Y-87070000D03*
%TD*%
D15*
%TO.C,SW3*%
X132070000Y-101557500D03*
D16*
X134610000Y-101557500D03*
X137150000Y-101557500D03*
X139690000Y-101557500D03*
X142230000Y-101557500D03*
X144770000Y-101557500D03*
X147310000Y-101557500D03*
X149850000Y-101557500D03*
X149850000Y-93937500D03*
X147310000Y-93937500D03*
X144770000Y-93937500D03*
X142230000Y-93937500D03*
X139690000Y-93937500D03*
X137150000Y-93937500D03*
X134610000Y-93937500D03*
X132070000Y-93937500D03*
%TD*%
D10*
%TO.C,R15*%
X123180000Y-87630000D03*
D11*
X123180000Y-82550000D03*
%TD*%
D10*
%TO.C,R23*%
X147310000Y-87630000D03*
D11*
X147310000Y-82550000D03*
%TD*%
D10*
%TO.C,R8*%
X171440000Y-87630000D03*
D11*
X171440000Y-82550000D03*
%TD*%
D10*
%TO.C,R11*%
X179060000Y-87630000D03*
D11*
X179060000Y-82550000D03*
%TD*%
D10*
%TO.C,R12*%
X115560000Y-87630000D03*
D11*
X115560000Y-82550000D03*
%TD*%
D10*
%TO.C,R4*%
X166360000Y-87630000D03*
D11*
X166360000Y-82550000D03*
%TD*%
D10*
%TO.C,R20*%
X139690000Y-87630000D03*
D11*
X139690000Y-82550000D03*
%TD*%
D15*
%TO.C,SW1*%
X161270000Y-101557500D03*
D16*
X163810000Y-101557500D03*
X166350000Y-101557500D03*
X168890000Y-101557500D03*
X171430000Y-101557500D03*
X173970000Y-101557500D03*
X176510000Y-101557500D03*
X179050000Y-101557500D03*
X179050000Y-93937500D03*
X176510000Y-93937500D03*
X173970000Y-93937500D03*
X171430000Y-93937500D03*
X168890000Y-93937500D03*
X166350000Y-93937500D03*
X163810000Y-93937500D03*
X161270000Y-93937500D03*
%TD*%
D10*
%TO.C,R24*%
X149850000Y-87630000D03*
D11*
X149850000Y-82550000D03*
%TD*%
D10*
%TO.C,R22*%
X144780000Y-87630000D03*
D11*
X144780000Y-82550000D03*
%TD*%
D10*
%TO.C,R2*%
X163820000Y-87630000D03*
D11*
X163820000Y-82550000D03*
%TD*%
D10*
%TO.C,R5*%
X102870000Y-92710000D03*
D11*
X102870000Y-87630000D03*
%TD*%
D10*
%TO.C,R18*%
X134610000Y-87630000D03*
D11*
X134610000Y-82550000D03*
%TD*%
D10*
%TO.C,R17*%
X132080000Y-87630000D03*
D11*
X132080000Y-82550000D03*
%TD*%
D10*
%TO.C,R6*%
X168900000Y-87630000D03*
D11*
X168900000Y-82550000D03*
%TD*%
D10*
%TO.C,R10*%
X176530000Y-87630000D03*
D11*
X176530000Y-82550000D03*
%TD*%
D14*
%TO.C,SW6*%
X191210000Y-87920000D03*
X184710000Y-87920000D03*
X184710000Y-92420000D03*
X191210000Y-92420000D03*
%TD*%
D10*
%TO.C,R19*%
X137150000Y-87630000D03*
D11*
X137150000Y-82550000D03*
%TD*%
D10*
%TO.C,R16*%
X125720000Y-87630000D03*
D11*
X125720000Y-82550000D03*
%TD*%
M02*
