%TF.GenerationSoftware,KiCad,Pcbnew,(6.0.9)*%
%TF.CreationDate,2025-06-07T15:03:12-04:00*%
%TF.ProjectId,DebugBoard,44656275-6742-46f6-9172-642e6b696361,1*%
%TF.SameCoordinates,Original*%
%TF.FileFunction,Copper,L2,Bot*%
%TF.FilePolarity,Positive*%
%FSLAX46Y46*%
G04 Gerber Fmt 4.6, Leading zero omitted, Abs format (unit mm)*
G04 Created by KiCad (PCBNEW (6.0.9)) date 2025-06-07 15:03:12*
%MOMM*%
%LPD*%
G01*
G04 APERTURE LIST*
%TA.AperFunction,ComponentPad*%
%ADD10C,1.400000*%
%TD*%
%TA.AperFunction,ComponentPad*%
%ADD11O,1.400000X1.400000*%
%TD*%
%TA.AperFunction,ComponentPad*%
%ADD12R,1.800000X1.800000*%
%TD*%
%TA.AperFunction,ComponentPad*%
%ADD13C,1.800000*%
%TD*%
%TA.AperFunction,ComponentPad*%
%ADD14C,2.000000*%
%TD*%
%TA.AperFunction,ComponentPad*%
%ADD15R,1.600000X1.600000*%
%TD*%
%TA.AperFunction,ComponentPad*%
%ADD16O,1.600000X1.600000*%
%TD*%
%TA.AperFunction,ComponentPad*%
%ADD17R,1.700000X1.700000*%
%TD*%
%TA.AperFunction,ComponentPad*%
%ADD18O,1.700000X1.700000*%
%TD*%
%TA.AperFunction,ViaPad*%
%ADD19C,0.800000*%
%TD*%
%TA.AperFunction,Conductor*%
%ADD20C,0.250000*%
%TD*%
G04 APERTURE END LIST*
D10*
%TO.P,R9,1*%
%TO.N,D2*%
X173980000Y-87630000D03*
D11*
%TO.P,R9,2*%
%TO.N,GND*%
X173980000Y-82550000D03*
%TD*%
D10*
%TO.P,R7,1*%
%TO.N,VCC*%
X185420000Y-101600000D03*
D11*
%TO.P,R7,2*%
%TO.N,WE'*%
X190500000Y-101600000D03*
%TD*%
D12*
%TO.P,D1,1,K*%
%TO.N,Net-(D1-Pad1)*%
X154940000Y-99060000D03*
D13*
%TO.P,D1,2,A*%
%TO.N,VCC*%
X154940000Y-101600000D03*
%TD*%
D14*
%TO.P,SW4,1,1*%
%TO.N,GND*%
X191210000Y-78760000D03*
X184710000Y-78760000D03*
%TO.P,SW4,2,2*%
%TO.N,WE'*%
X191210000Y-83260000D03*
X184710000Y-83260000D03*
%TD*%
D10*
%TO.P,R3,1*%
%TO.N,VCC*%
X185420000Y-97790000D03*
D11*
%TO.P,R3,2*%
%TO.N,OE'*%
X190500000Y-97790000D03*
%TD*%
D15*
%TO.P,SW2,1*%
%TO.N,unconnected-(SW2-Pad1)*%
X107930000Y-101557500D03*
D16*
%TO.P,SW2,2*%
%TO.N,unconnected-(SW2-Pad2)*%
X110470000Y-101557500D03*
%TO.P,SW2,3*%
%TO.N,unconnected-(SW2-Pad3)*%
X113010000Y-101557500D03*
%TO.P,SW2,4*%
%TO.N,VCC*%
X115550000Y-101557500D03*
%TO.P,SW2,5*%
X118090000Y-101557500D03*
%TO.P,SW2,6*%
X120630000Y-101557500D03*
%TO.P,SW2,7*%
X123170000Y-101557500D03*
%TO.P,SW2,8*%
X125710000Y-101557500D03*
%TO.P,SW2,9*%
%TO.N,A8*%
X125710000Y-93937500D03*
%TO.P,SW2,10*%
%TO.N,A9*%
X123170000Y-93937500D03*
%TO.P,SW2,11*%
%TO.N,A10*%
X120630000Y-93937500D03*
%TO.P,SW2,12*%
%TO.N,A11*%
X118090000Y-93937500D03*
%TO.P,SW2,13*%
%TO.N,A12*%
X115550000Y-93937500D03*
%TO.P,SW2,14*%
%TO.N,unconnected-(SW2-Pad14)*%
X113010000Y-93937500D03*
%TO.P,SW2,15*%
%TO.N,unconnected-(SW2-Pad15)*%
X110470000Y-93937500D03*
%TO.P,SW2,16*%
%TO.N,unconnected-(SW2-Pad16)*%
X107930000Y-93937500D03*
%TD*%
D10*
%TO.P,R1,1*%
%TO.N,D7*%
X161280000Y-87630000D03*
D11*
%TO.P,R1,2*%
%TO.N,GND*%
X161280000Y-82550000D03*
%TD*%
D17*
%TO.P,J1,1,Pin_1*%
%TO.N,A12*%
X115570000Y-78035000D03*
D18*
%TO.P,J1,2,Pin_2*%
%TO.N,A11*%
X118110000Y-78035000D03*
%TO.P,J1,3,Pin_3*%
%TO.N,A10*%
X120650000Y-78035000D03*
%TO.P,J1,4,Pin_4*%
%TO.N,A9*%
X123190000Y-78035000D03*
%TO.P,J1,5,Pin_5*%
%TO.N,A8*%
X125730000Y-78035000D03*
%TO.P,J1,6,Pin_6*%
%TO.N,A7*%
X128270000Y-78035000D03*
%TO.P,J1,7,Pin_7*%
%TO.N,A6*%
X130810000Y-78035000D03*
%TO.P,J1,8,Pin_8*%
%TO.N,A5*%
X133350000Y-78035000D03*
%TO.P,J1,9,Pin_9*%
%TO.N,A4*%
X135890000Y-78035000D03*
%TO.P,J1,10,Pin_10*%
%TO.N,A3*%
X138430000Y-78035000D03*
%TO.P,J1,11,Pin_11*%
%TO.N,A2*%
X140970000Y-78035000D03*
%TO.P,J1,12,Pin_12*%
%TO.N,A1*%
X143510000Y-78035000D03*
%TO.P,J1,13,Pin_13*%
%TO.N,A0*%
X146050000Y-78035000D03*
%TO.P,J1,14,Pin_14*%
%TO.N,D7*%
X148590000Y-78035000D03*
%TO.P,J1,15,Pin_15*%
%TO.N,D6*%
X151130000Y-78035000D03*
%TO.P,J1,16,Pin_16*%
%TO.N,D5*%
X153670000Y-78035000D03*
%TO.P,J1,17,Pin_17*%
%TO.N,D4*%
X156210000Y-78035000D03*
%TO.P,J1,18,Pin_18*%
%TO.N,D3*%
X158750000Y-78035000D03*
%TO.P,J1,19,Pin_19*%
%TO.N,D2*%
X161290000Y-78035000D03*
%TO.P,J1,20,Pin_20*%
%TO.N,D1*%
X163830000Y-78035000D03*
%TO.P,J1,21,Pin_21*%
%TO.N,D0*%
X166370000Y-78035000D03*
%TO.P,J1,22,Pin_22*%
%TO.N,WE'*%
X168910000Y-78035000D03*
%TO.P,J1,23,Pin_23*%
%TO.N,CE'*%
X171450000Y-78035000D03*
%TO.P,J1,24,Pin_24*%
%TO.N,OE'*%
X173990000Y-78035000D03*
%TO.P,J1,25,Pin_25*%
%TO.N,VCC*%
X176530000Y-78035000D03*
%TO.P,J1,26,Pin_26*%
%TO.N,GND*%
X179070000Y-78035000D03*
%TD*%
D10*
%TO.P,R13,1*%
%TO.N,A11*%
X118100000Y-87630000D03*
D11*
%TO.P,R13,2*%
%TO.N,GND*%
X118100000Y-82550000D03*
%TD*%
D10*
%TO.P,R21,1*%
%TO.N,A3*%
X142240000Y-87630000D03*
D11*
%TO.P,R21,2*%
%TO.N,GND*%
X142240000Y-82550000D03*
%TD*%
D10*
%TO.P,R25,1*%
%TO.N,GND*%
X154940000Y-91440000D03*
D11*
%TO.P,R25,2*%
%TO.N,Net-(D1-Pad1)*%
X154940000Y-96520000D03*
%TD*%
D10*
%TO.P,R14,1*%
%TO.N,A10*%
X120640000Y-87630000D03*
D11*
%TO.P,R14,2*%
%TO.N,GND*%
X120640000Y-82550000D03*
%TD*%
D14*
%TO.P,SW5,1,1*%
%TO.N,GND*%
X111470000Y-87070000D03*
X111470000Y-80570000D03*
%TO.P,SW5,2,2*%
%TO.N,CE'*%
X106970000Y-80570000D03*
X106970000Y-87070000D03*
%TD*%
D15*
%TO.P,SW3,1*%
%TO.N,VCC*%
X132070000Y-101557500D03*
D16*
%TO.P,SW3,2*%
X134610000Y-101557500D03*
%TO.P,SW3,3*%
X137150000Y-101557500D03*
%TO.P,SW3,4*%
X139690000Y-101557500D03*
%TO.P,SW3,5*%
X142230000Y-101557500D03*
%TO.P,SW3,6*%
X144770000Y-101557500D03*
%TO.P,SW3,7*%
X147310000Y-101557500D03*
%TO.P,SW3,8*%
X149850000Y-101557500D03*
%TO.P,SW3,9*%
%TO.N,A0*%
X149850000Y-93937500D03*
%TO.P,SW3,10*%
%TO.N,A1*%
X147310000Y-93937500D03*
%TO.P,SW3,11*%
%TO.N,A2*%
X144770000Y-93937500D03*
%TO.P,SW3,12*%
%TO.N,A3*%
X142230000Y-93937500D03*
%TO.P,SW3,13*%
%TO.N,A4*%
X139690000Y-93937500D03*
%TO.P,SW3,14*%
%TO.N,A5*%
X137150000Y-93937500D03*
%TO.P,SW3,15*%
%TO.N,A6*%
X134610000Y-93937500D03*
%TO.P,SW3,16*%
%TO.N,A7*%
X132070000Y-93937500D03*
%TD*%
D10*
%TO.P,R15,1*%
%TO.N,A9*%
X123180000Y-87630000D03*
D11*
%TO.P,R15,2*%
%TO.N,GND*%
X123180000Y-82550000D03*
%TD*%
D10*
%TO.P,R23,1*%
%TO.N,A1*%
X147310000Y-87630000D03*
D11*
%TO.P,R23,2*%
%TO.N,GND*%
X147310000Y-82550000D03*
%TD*%
D10*
%TO.P,R8,1*%
%TO.N,D3*%
X171440000Y-87630000D03*
D11*
%TO.P,R8,2*%
%TO.N,GND*%
X171440000Y-82550000D03*
%TD*%
D10*
%TO.P,R11,1*%
%TO.N,D0*%
X179060000Y-87630000D03*
D11*
%TO.P,R11,2*%
%TO.N,GND*%
X179060000Y-82550000D03*
%TD*%
D10*
%TO.P,R12,1*%
%TO.N,A12*%
X115560000Y-87630000D03*
D11*
%TO.P,R12,2*%
%TO.N,GND*%
X115560000Y-82550000D03*
%TD*%
D10*
%TO.P,R4,1*%
%TO.N,D5*%
X166360000Y-87630000D03*
D11*
%TO.P,R4,2*%
%TO.N,GND*%
X166360000Y-82550000D03*
%TD*%
D10*
%TO.P,R20,1*%
%TO.N,A4*%
X139690000Y-87630000D03*
D11*
%TO.P,R20,2*%
%TO.N,GND*%
X139690000Y-82550000D03*
%TD*%
D15*
%TO.P,SW1,1*%
%TO.N,VCC*%
X161270000Y-101557500D03*
D16*
%TO.P,SW1,2*%
X163810000Y-101557500D03*
%TO.P,SW1,3*%
X166350000Y-101557500D03*
%TO.P,SW1,4*%
X168890000Y-101557500D03*
%TO.P,SW1,5*%
X171430000Y-101557500D03*
%TO.P,SW1,6*%
X173970000Y-101557500D03*
%TO.P,SW1,7*%
X176510000Y-101557500D03*
%TO.P,SW1,8*%
X179050000Y-101557500D03*
%TO.P,SW1,9*%
%TO.N,D0*%
X179050000Y-93937500D03*
%TO.P,SW1,10*%
%TO.N,D1*%
X176510000Y-93937500D03*
%TO.P,SW1,11*%
%TO.N,D2*%
X173970000Y-93937500D03*
%TO.P,SW1,12*%
%TO.N,D3*%
X171430000Y-93937500D03*
%TO.P,SW1,13*%
%TO.N,D4*%
X168890000Y-93937500D03*
%TO.P,SW1,14*%
%TO.N,D5*%
X166350000Y-93937500D03*
%TO.P,SW1,15*%
%TO.N,D6*%
X163810000Y-93937500D03*
%TO.P,SW1,16*%
%TO.N,D7*%
X161270000Y-93937500D03*
%TD*%
D10*
%TO.P,R24,1*%
%TO.N,A0*%
X149850000Y-87630000D03*
D11*
%TO.P,R24,2*%
%TO.N,GND*%
X149850000Y-82550000D03*
%TD*%
D10*
%TO.P,R22,1*%
%TO.N,A2*%
X144780000Y-87630000D03*
D11*
%TO.P,R22,2*%
%TO.N,GND*%
X144780000Y-82550000D03*
%TD*%
D10*
%TO.P,R2,1*%
%TO.N,D6*%
X163820000Y-87630000D03*
D11*
%TO.P,R2,2*%
%TO.N,GND*%
X163820000Y-82550000D03*
%TD*%
D10*
%TO.P,R5,1*%
%TO.N,VCC*%
X102870000Y-92710000D03*
D11*
%TO.P,R5,2*%
%TO.N,CE'*%
X102870000Y-87630000D03*
%TD*%
D10*
%TO.P,R18,1*%
%TO.N,A6*%
X134610000Y-87630000D03*
D11*
%TO.P,R18,2*%
%TO.N,GND*%
X134610000Y-82550000D03*
%TD*%
D10*
%TO.P,R17,1*%
%TO.N,A7*%
X132080000Y-87630000D03*
D11*
%TO.P,R17,2*%
%TO.N,GND*%
X132080000Y-82550000D03*
%TD*%
D10*
%TO.P,R6,1*%
%TO.N,D4*%
X168900000Y-87630000D03*
D11*
%TO.P,R6,2*%
%TO.N,GND*%
X168900000Y-82550000D03*
%TD*%
D10*
%TO.P,R10,1*%
%TO.N,D1*%
X176530000Y-87630000D03*
D11*
%TO.P,R10,2*%
%TO.N,GND*%
X176530000Y-82550000D03*
%TD*%
D14*
%TO.P,SW6,1,1*%
%TO.N,GND*%
X191210000Y-87920000D03*
X184710000Y-87920000D03*
%TO.P,SW6,2,2*%
%TO.N,OE'*%
X184710000Y-92420000D03*
X191210000Y-92420000D03*
%TD*%
D10*
%TO.P,R19,1*%
%TO.N,A5*%
X137150000Y-87630000D03*
D11*
%TO.P,R19,2*%
%TO.N,GND*%
X137150000Y-82550000D03*
%TD*%
D10*
%TO.P,R16,1*%
%TO.N,A8*%
X125720000Y-87630000D03*
D11*
%TO.P,R16,2*%
%TO.N,GND*%
X125720000Y-82550000D03*
%TD*%
D19*
%TO.N,VCC*%
X187960000Y-80010000D03*
%TD*%
D20*
%TO.N,GND*%
X132080000Y-82550000D02*
X134610000Y-82550000D01*
X144780000Y-82550000D02*
X147310000Y-82550000D01*
X118100000Y-82550000D02*
X120640000Y-82550000D01*
X134610000Y-82550000D02*
X137150000Y-82550000D01*
X113450000Y-82550000D02*
X115560000Y-82550000D01*
X137150000Y-82550000D02*
X139690000Y-82550000D01*
X166360000Y-82550000D02*
X168900000Y-82550000D01*
X123180000Y-82550000D02*
X125720000Y-82550000D01*
X179060000Y-82550000D02*
X176530000Y-82550000D01*
X193040000Y-86090000D02*
X191210000Y-87920000D01*
X183985000Y-78035000D02*
X184710000Y-78760000D01*
X161280000Y-82550000D02*
X163820000Y-82550000D01*
X179070000Y-78035000D02*
X183985000Y-78035000D01*
X139690000Y-82550000D02*
X142240000Y-82550000D01*
X147310000Y-82550000D02*
X149850000Y-82550000D01*
X120640000Y-82550000D02*
X123180000Y-82550000D01*
X163820000Y-82550000D02*
X166360000Y-82550000D01*
X179070000Y-82540000D02*
X179060000Y-82550000D01*
X115560000Y-82550000D02*
X118100000Y-82550000D01*
X142240000Y-82550000D02*
X144780000Y-82550000D01*
X149850000Y-82550000D02*
X161280000Y-82550000D01*
X125720000Y-82550000D02*
X132080000Y-82550000D01*
X193040000Y-80590000D02*
X193040000Y-86090000D01*
X191210000Y-78760000D02*
X193040000Y-80590000D01*
X111470000Y-80570000D02*
X113450000Y-82550000D01*
X179070000Y-78035000D02*
X179070000Y-82540000D01*
%TO.N,VCC*%
X187960000Y-95250000D02*
X185420000Y-97790000D01*
X187960000Y-80010000D02*
X187960000Y-95250000D01*
%TO.N,D3*%
X158750000Y-78035000D02*
X158750000Y-81280000D01*
X158750000Y-81280000D02*
X170180000Y-81280000D01*
X170180000Y-81280000D02*
X170180000Y-86370000D01*
X170180000Y-86370000D02*
X171440000Y-87630000D01*
%TO.N,D2*%
X161290000Y-78035000D02*
X161290000Y-80830000D01*
X172270000Y-80830000D02*
X172720000Y-81280000D01*
X172720000Y-86370000D02*
X173980000Y-87630000D01*
X172720000Y-81280000D02*
X172720000Y-86370000D01*
X161290000Y-80830000D02*
X172270000Y-80830000D01*
%TO.N,D1*%
X175260000Y-81280000D02*
X175260000Y-86360000D01*
X172456396Y-80380000D02*
X173356396Y-81280000D01*
X175260000Y-86360000D02*
X176530000Y-87630000D01*
X163830000Y-78035000D02*
X163830000Y-80380000D01*
X173356396Y-81280000D02*
X175260000Y-81280000D01*
X163830000Y-80380000D02*
X172456396Y-80380000D01*
%TD*%
M02*
