%TF.GenerationSoftware,KiCad,Pcbnew,(6.0.9)*%
%TF.CreationDate,2025-06-07T15:03:12-04:00*%
%TF.ProjectId,DebugBoard,44656275-6742-46f6-9172-642e6b696361,1*%
%TF.SameCoordinates,Original*%
%TF.FileFunction,Legend,Bot*%
%TF.FilePolarity,Positive*%
%FSLAX46Y46*%
G04 Gerber Fmt 4.6, Leading zero omitted, Abs format (unit mm)*
G04 Created by KiCad (PCBNEW (6.0.9)) date 2025-06-07 15:03:12*
%MOMM*%
%LPD*%
G01*
G04 APERTURE LIST*
%ADD10C,0.150000*%
%ADD11C,1.400000*%
%ADD12O,1.400000X1.400000*%
%ADD13R,1.800000X1.800000*%
%ADD14C,1.800000*%
%ADD15C,2.000000*%
%ADD16R,1.600000X1.600000*%
%ADD17O,1.600000X1.600000*%
%ADD18R,1.700000X1.700000*%
%ADD19O,1.700000X1.700000*%
G04 APERTURE END LIST*
D10*
X156763571Y-80349285D02*
X156763571Y-79599285D01*
X156585000Y-79599285D01*
X156477857Y-79635000D01*
X156406428Y-79706428D01*
X156370714Y-79777857D01*
X156335000Y-79920714D01*
X156335000Y-80027857D01*
X156370714Y-80170714D01*
X156406428Y-80242142D01*
X156477857Y-80313571D01*
X156585000Y-80349285D01*
X156763571Y-80349285D01*
X155692142Y-79849285D02*
X155692142Y-80349285D01*
X155870714Y-79563571D02*
X156049285Y-80099285D01*
X155585000Y-80099285D01*
X121542857Y-80135000D02*
X121185714Y-80135000D01*
X121614285Y-80349285D02*
X121364285Y-79599285D01*
X121114285Y-80349285D01*
X120471428Y-80349285D02*
X120900000Y-80349285D01*
X120685714Y-80349285D02*
X120685714Y-79599285D01*
X120757142Y-79706428D01*
X120828571Y-79777857D01*
X120900000Y-79813571D01*
X120007142Y-79599285D02*
X119935714Y-79599285D01*
X119864285Y-79635000D01*
X119828571Y-79670714D01*
X119792857Y-79742142D01*
X119757142Y-79885000D01*
X119757142Y-80063571D01*
X119792857Y-80206428D01*
X119828571Y-80277857D01*
X119864285Y-80313571D01*
X119935714Y-80349285D01*
X120007142Y-80349285D01*
X120078571Y-80313571D01*
X120114285Y-80277857D01*
X120150000Y-80206428D01*
X120185714Y-80063571D01*
X120185714Y-79885000D01*
X120150000Y-79742142D01*
X120114285Y-79670714D01*
X120078571Y-79635000D01*
X120007142Y-79599285D01*
X172021428Y-79816964D02*
X171450000Y-79816964D01*
X171450000Y-79816964D02*
X170878571Y-79816964D01*
X171557142Y-80881607D02*
X171592857Y-80917321D01*
X171700000Y-80953035D01*
X171771428Y-80953035D01*
X171878571Y-80917321D01*
X171950000Y-80845892D01*
X171985714Y-80774464D01*
X172021428Y-80631607D01*
X172021428Y-80524464D01*
X171985714Y-80381607D01*
X171950000Y-80310178D01*
X171878571Y-80238750D01*
X171771428Y-80203035D01*
X171700000Y-80203035D01*
X171592857Y-80238750D01*
X171557142Y-80274464D01*
X171235714Y-80560178D02*
X170985714Y-80560178D01*
X170878571Y-80953035D02*
X171235714Y-80953035D01*
X171235714Y-80203035D01*
X170878571Y-80203035D01*
X169481428Y-79816964D02*
X168910000Y-79816964D01*
X168910000Y-79816964D02*
X168338571Y-79816964D01*
X169570714Y-80203035D02*
X169392142Y-80953035D01*
X169249285Y-80417321D01*
X169106428Y-80953035D01*
X168927857Y-80203035D01*
X168642142Y-80560178D02*
X168392142Y-80560178D01*
X168285000Y-80953035D02*
X168642142Y-80953035D01*
X168642142Y-80203035D01*
X168285000Y-80203035D01*
X128805714Y-80135000D02*
X128448571Y-80135000D01*
X128877142Y-80349285D02*
X128627142Y-79599285D01*
X128377142Y-80349285D01*
X128198571Y-79599285D02*
X127698571Y-79599285D01*
X128020000Y-80349285D01*
X174561428Y-79816964D02*
X173990000Y-79816964D01*
X173990000Y-79816964D02*
X173418571Y-79816964D01*
X174400714Y-80203035D02*
X174257857Y-80203035D01*
X174186428Y-80238750D01*
X174115000Y-80310178D01*
X174079285Y-80453035D01*
X174079285Y-80703035D01*
X174115000Y-80845892D01*
X174186428Y-80917321D01*
X174257857Y-80953035D01*
X174400714Y-80953035D01*
X174472142Y-80917321D01*
X174543571Y-80845892D01*
X174579285Y-80703035D01*
X174579285Y-80453035D01*
X174543571Y-80310178D01*
X174472142Y-80238750D01*
X174400714Y-80203035D01*
X173757857Y-80560178D02*
X173507857Y-80560178D01*
X173400714Y-80953035D02*
X173757857Y-80953035D01*
X173757857Y-80203035D01*
X173400714Y-80203035D01*
X141505714Y-80135000D02*
X141148571Y-80135000D01*
X141577142Y-80349285D02*
X141327142Y-79599285D01*
X141077142Y-80349285D01*
X140862857Y-79670714D02*
X140827142Y-79635000D01*
X140755714Y-79599285D01*
X140577142Y-79599285D01*
X140505714Y-79635000D01*
X140470000Y-79670714D01*
X140434285Y-79742142D01*
X140434285Y-79813571D01*
X140470000Y-79920714D01*
X140898571Y-80349285D01*
X140434285Y-80349285D01*
X144045714Y-80135000D02*
X143688571Y-80135000D01*
X144117142Y-80349285D02*
X143867142Y-79599285D01*
X143617142Y-80349285D01*
X142974285Y-80349285D02*
X143402857Y-80349285D01*
X143188571Y-80349285D02*
X143188571Y-79599285D01*
X143260000Y-79706428D01*
X143331428Y-79777857D01*
X143402857Y-79813571D01*
X161843571Y-80349285D02*
X161843571Y-79599285D01*
X161665000Y-79599285D01*
X161557857Y-79635000D01*
X161486428Y-79706428D01*
X161450714Y-79777857D01*
X161415000Y-79920714D01*
X161415000Y-80027857D01*
X161450714Y-80170714D01*
X161486428Y-80242142D01*
X161557857Y-80313571D01*
X161665000Y-80349285D01*
X161843571Y-80349285D01*
X161129285Y-79670714D02*
X161093571Y-79635000D01*
X161022142Y-79599285D01*
X160843571Y-79599285D01*
X160772142Y-79635000D01*
X160736428Y-79670714D01*
X160700714Y-79742142D01*
X160700714Y-79813571D01*
X160736428Y-79920714D01*
X161165000Y-80349285D01*
X160700714Y-80349285D01*
X138965714Y-80135000D02*
X138608571Y-80135000D01*
X139037142Y-80349285D02*
X138787142Y-79599285D01*
X138537142Y-80349285D01*
X138358571Y-79599285D02*
X137894285Y-79599285D01*
X138144285Y-79885000D01*
X138037142Y-79885000D01*
X137965714Y-79920714D01*
X137930000Y-79956428D01*
X137894285Y-80027857D01*
X137894285Y-80206428D01*
X137930000Y-80277857D01*
X137965714Y-80313571D01*
X138037142Y-80349285D01*
X138251428Y-80349285D01*
X138322857Y-80313571D01*
X138358571Y-80277857D01*
X149143571Y-80349285D02*
X149143571Y-79599285D01*
X148965000Y-79599285D01*
X148857857Y-79635000D01*
X148786428Y-79706428D01*
X148750714Y-79777857D01*
X148715000Y-79920714D01*
X148715000Y-80027857D01*
X148750714Y-80170714D01*
X148786428Y-80242142D01*
X148857857Y-80313571D01*
X148965000Y-80349285D01*
X149143571Y-80349285D01*
X148465000Y-79599285D02*
X147965000Y-79599285D01*
X148286428Y-80349285D01*
X166923571Y-80349285D02*
X166923571Y-79599285D01*
X166745000Y-79599285D01*
X166637857Y-79635000D01*
X166566428Y-79706428D01*
X166530714Y-79777857D01*
X166495000Y-79920714D01*
X166495000Y-80027857D01*
X166530714Y-80170714D01*
X166566428Y-80242142D01*
X166637857Y-80313571D01*
X166745000Y-80349285D01*
X166923571Y-80349285D01*
X166030714Y-79599285D02*
X165959285Y-79599285D01*
X165887857Y-79635000D01*
X165852142Y-79670714D01*
X165816428Y-79742142D01*
X165780714Y-79885000D01*
X165780714Y-80063571D01*
X165816428Y-80206428D01*
X165852142Y-80277857D01*
X165887857Y-80313571D01*
X165959285Y-80349285D01*
X166030714Y-80349285D01*
X166102142Y-80313571D01*
X166137857Y-80277857D01*
X166173571Y-80206428D01*
X166209285Y-80063571D01*
X166209285Y-79885000D01*
X166173571Y-79742142D01*
X166137857Y-79670714D01*
X166102142Y-79635000D01*
X166030714Y-79599285D01*
X146585714Y-80135000D02*
X146228571Y-80135000D01*
X146657142Y-80349285D02*
X146407142Y-79599285D01*
X146157142Y-80349285D01*
X145764285Y-79599285D02*
X145692857Y-79599285D01*
X145621428Y-79635000D01*
X145585714Y-79670714D01*
X145550000Y-79742142D01*
X145514285Y-79885000D01*
X145514285Y-80063571D01*
X145550000Y-80206428D01*
X145585714Y-80277857D01*
X145621428Y-80313571D01*
X145692857Y-80349285D01*
X145764285Y-80349285D01*
X145835714Y-80313571D01*
X145871428Y-80277857D01*
X145907142Y-80206428D01*
X145942857Y-80063571D01*
X145942857Y-79885000D01*
X145907142Y-79742142D01*
X145871428Y-79670714D01*
X145835714Y-79635000D01*
X145764285Y-79599285D01*
X151683571Y-80349285D02*
X151683571Y-79599285D01*
X151505000Y-79599285D01*
X151397857Y-79635000D01*
X151326428Y-79706428D01*
X151290714Y-79777857D01*
X151255000Y-79920714D01*
X151255000Y-80027857D01*
X151290714Y-80170714D01*
X151326428Y-80242142D01*
X151397857Y-80313571D01*
X151505000Y-80349285D01*
X151683571Y-80349285D01*
X150612142Y-79599285D02*
X150755000Y-79599285D01*
X150826428Y-79635000D01*
X150862142Y-79670714D01*
X150933571Y-79777857D01*
X150969285Y-79920714D01*
X150969285Y-80206428D01*
X150933571Y-80277857D01*
X150897857Y-80313571D01*
X150826428Y-80349285D01*
X150683571Y-80349285D01*
X150612142Y-80313571D01*
X150576428Y-80277857D01*
X150540714Y-80206428D01*
X150540714Y-80027857D01*
X150576428Y-79956428D01*
X150612142Y-79920714D01*
X150683571Y-79885000D01*
X150826428Y-79885000D01*
X150897857Y-79920714D01*
X150933571Y-79956428D01*
X150969285Y-80027857D01*
X164383571Y-80349285D02*
X164383571Y-79599285D01*
X164205000Y-79599285D01*
X164097857Y-79635000D01*
X164026428Y-79706428D01*
X163990714Y-79777857D01*
X163955000Y-79920714D01*
X163955000Y-80027857D01*
X163990714Y-80170714D01*
X164026428Y-80242142D01*
X164097857Y-80313571D01*
X164205000Y-80349285D01*
X164383571Y-80349285D01*
X163240714Y-80349285D02*
X163669285Y-80349285D01*
X163455000Y-80349285D02*
X163455000Y-79599285D01*
X163526428Y-79706428D01*
X163597857Y-79777857D01*
X163669285Y-79813571D01*
X133885714Y-80135000D02*
X133528571Y-80135000D01*
X133957142Y-80349285D02*
X133707142Y-79599285D01*
X133457142Y-80349285D01*
X132850000Y-79599285D02*
X133207142Y-79599285D01*
X133242857Y-79956428D01*
X133207142Y-79920714D01*
X133135714Y-79885000D01*
X132957142Y-79885000D01*
X132885714Y-79920714D01*
X132850000Y-79956428D01*
X132814285Y-80027857D01*
X132814285Y-80206428D01*
X132850000Y-80277857D01*
X132885714Y-80313571D01*
X132957142Y-80349285D01*
X133135714Y-80349285D01*
X133207142Y-80313571D01*
X133242857Y-80277857D01*
X154223571Y-80349285D02*
X154223571Y-79599285D01*
X154045000Y-79599285D01*
X153937857Y-79635000D01*
X153866428Y-79706428D01*
X153830714Y-79777857D01*
X153795000Y-79920714D01*
X153795000Y-80027857D01*
X153830714Y-80170714D01*
X153866428Y-80242142D01*
X153937857Y-80313571D01*
X154045000Y-80349285D01*
X154223571Y-80349285D01*
X153116428Y-79599285D02*
X153473571Y-79599285D01*
X153509285Y-79956428D01*
X153473571Y-79920714D01*
X153402142Y-79885000D01*
X153223571Y-79885000D01*
X153152142Y-79920714D01*
X153116428Y-79956428D01*
X153080714Y-80027857D01*
X153080714Y-80206428D01*
X153116428Y-80277857D01*
X153152142Y-80313571D01*
X153223571Y-80349285D01*
X153402142Y-80349285D01*
X153473571Y-80313571D01*
X153509285Y-80277857D01*
X179641428Y-79635000D02*
X179712857Y-79599285D01*
X179820000Y-79599285D01*
X179927142Y-79635000D01*
X179998571Y-79706428D01*
X180034285Y-79777857D01*
X180070000Y-79920714D01*
X180070000Y-80027857D01*
X180034285Y-80170714D01*
X179998571Y-80242142D01*
X179927142Y-80313571D01*
X179820000Y-80349285D01*
X179748571Y-80349285D01*
X179641428Y-80313571D01*
X179605714Y-80277857D01*
X179605714Y-80027857D01*
X179748571Y-80027857D01*
X179284285Y-80349285D02*
X179284285Y-79599285D01*
X178855714Y-80349285D01*
X178855714Y-79599285D01*
X178498571Y-80349285D02*
X178498571Y-79599285D01*
X178320000Y-79599285D01*
X178212857Y-79635000D01*
X178141428Y-79706428D01*
X178105714Y-79777857D01*
X178070000Y-79920714D01*
X178070000Y-80027857D01*
X178105714Y-80170714D01*
X178141428Y-80242142D01*
X178212857Y-80313571D01*
X178320000Y-80349285D01*
X178498571Y-80349285D01*
X116462857Y-80135000D02*
X116105714Y-80135000D01*
X116534285Y-80349285D02*
X116284285Y-79599285D01*
X116034285Y-80349285D01*
X115391428Y-80349285D02*
X115820000Y-80349285D01*
X115605714Y-80349285D02*
X115605714Y-79599285D01*
X115677142Y-79706428D01*
X115748571Y-79777857D01*
X115820000Y-79813571D01*
X115105714Y-79670714D02*
X115070000Y-79635000D01*
X114998571Y-79599285D01*
X114820000Y-79599285D01*
X114748571Y-79635000D01*
X114712857Y-79670714D01*
X114677142Y-79742142D01*
X114677142Y-79813571D01*
X114712857Y-79920714D01*
X115141428Y-80349285D01*
X114677142Y-80349285D01*
X119002857Y-80135000D02*
X118645714Y-80135000D01*
X119074285Y-80349285D02*
X118824285Y-79599285D01*
X118574285Y-80349285D01*
X117931428Y-80349285D02*
X118360000Y-80349285D01*
X118145714Y-80349285D02*
X118145714Y-79599285D01*
X118217142Y-79706428D01*
X118288571Y-79777857D01*
X118360000Y-79813571D01*
X117217142Y-80349285D02*
X117645714Y-80349285D01*
X117431428Y-80349285D02*
X117431428Y-79599285D01*
X117502857Y-79706428D01*
X117574285Y-79777857D01*
X117645714Y-79813571D01*
X123725714Y-80135000D02*
X123368571Y-80135000D01*
X123797142Y-80349285D02*
X123547142Y-79599285D01*
X123297142Y-80349285D01*
X123011428Y-80349285D02*
X122868571Y-80349285D01*
X122797142Y-80313571D01*
X122761428Y-80277857D01*
X122690000Y-80170714D01*
X122654285Y-80027857D01*
X122654285Y-79742142D01*
X122690000Y-79670714D01*
X122725714Y-79635000D01*
X122797142Y-79599285D01*
X122940000Y-79599285D01*
X123011428Y-79635000D01*
X123047142Y-79670714D01*
X123082857Y-79742142D01*
X123082857Y-79920714D01*
X123047142Y-79992142D01*
X123011428Y-80027857D01*
X122940000Y-80063571D01*
X122797142Y-80063571D01*
X122725714Y-80027857D01*
X122690000Y-79992142D01*
X122654285Y-79920714D01*
X136425714Y-80135000D02*
X136068571Y-80135000D01*
X136497142Y-80349285D02*
X136247142Y-79599285D01*
X135997142Y-80349285D01*
X135425714Y-79849285D02*
X135425714Y-80349285D01*
X135604285Y-79563571D02*
X135782857Y-80099285D01*
X135318571Y-80099285D01*
X159303571Y-80349285D02*
X159303571Y-79599285D01*
X159125000Y-79599285D01*
X159017857Y-79635000D01*
X158946428Y-79706428D01*
X158910714Y-79777857D01*
X158875000Y-79920714D01*
X158875000Y-80027857D01*
X158910714Y-80170714D01*
X158946428Y-80242142D01*
X159017857Y-80313571D01*
X159125000Y-80349285D01*
X159303571Y-80349285D01*
X158625000Y-79599285D02*
X158160714Y-79599285D01*
X158410714Y-79885000D01*
X158303571Y-79885000D01*
X158232142Y-79920714D01*
X158196428Y-79956428D01*
X158160714Y-80027857D01*
X158160714Y-80206428D01*
X158196428Y-80277857D01*
X158232142Y-80313571D01*
X158303571Y-80349285D01*
X158517857Y-80349285D01*
X158589285Y-80313571D01*
X158625000Y-80277857D01*
X131345714Y-80135000D02*
X130988571Y-80135000D01*
X131417142Y-80349285D02*
X131167142Y-79599285D01*
X130917142Y-80349285D01*
X130345714Y-79599285D02*
X130488571Y-79599285D01*
X130560000Y-79635000D01*
X130595714Y-79670714D01*
X130667142Y-79777857D01*
X130702857Y-79920714D01*
X130702857Y-80206428D01*
X130667142Y-80277857D01*
X130631428Y-80313571D01*
X130560000Y-80349285D01*
X130417142Y-80349285D01*
X130345714Y-80313571D01*
X130310000Y-80277857D01*
X130274285Y-80206428D01*
X130274285Y-80027857D01*
X130310000Y-79956428D01*
X130345714Y-79920714D01*
X130417142Y-79885000D01*
X130560000Y-79885000D01*
X130631428Y-79920714D01*
X130667142Y-79956428D01*
X130702857Y-80027857D01*
X177530000Y-80349285D02*
X177530000Y-79599285D01*
X177244285Y-79599285D01*
X177172857Y-79635000D01*
X177137142Y-79670714D01*
X177101428Y-79742142D01*
X177101428Y-79849285D01*
X177137142Y-79920714D01*
X177172857Y-79956428D01*
X177244285Y-79992142D01*
X177530000Y-79992142D01*
X176851428Y-79599285D02*
X176672857Y-80349285D01*
X176530000Y-79813571D01*
X176387142Y-80349285D01*
X176208571Y-79599285D01*
X175494285Y-80349285D02*
X175744285Y-79992142D01*
X175922857Y-80349285D02*
X175922857Y-79599285D01*
X175637142Y-79599285D01*
X175565714Y-79635000D01*
X175530000Y-79670714D01*
X175494285Y-79742142D01*
X175494285Y-79849285D01*
X175530000Y-79920714D01*
X175565714Y-79956428D01*
X175637142Y-79992142D01*
X175922857Y-79992142D01*
X126265714Y-80135000D02*
X125908571Y-80135000D01*
X126337142Y-80349285D02*
X126087142Y-79599285D01*
X125837142Y-80349285D01*
X125480000Y-79920714D02*
X125551428Y-79885000D01*
X125587142Y-79849285D01*
X125622857Y-79777857D01*
X125622857Y-79742142D01*
X125587142Y-79670714D01*
X125551428Y-79635000D01*
X125480000Y-79599285D01*
X125337142Y-79599285D01*
X125265714Y-79635000D01*
X125230000Y-79670714D01*
X125194285Y-79742142D01*
X125194285Y-79777857D01*
X125230000Y-79849285D01*
X125265714Y-79885000D01*
X125337142Y-79920714D01*
X125480000Y-79920714D01*
X125551428Y-79956428D01*
X125587142Y-79992142D01*
X125622857Y-80063571D01*
X125622857Y-80206428D01*
X125587142Y-80277857D01*
X125551428Y-80313571D01*
X125480000Y-80349285D01*
X125337142Y-80349285D01*
X125265714Y-80313571D01*
X125230000Y-80277857D01*
X125194285Y-80206428D01*
X125194285Y-80063571D01*
X125230000Y-79992142D01*
X125265714Y-79956428D01*
X125337142Y-79920714D01*
%LPC*%
D11*
%TO.C,R9*%
X173980000Y-87630000D03*
D12*
X173980000Y-82550000D03*
%TD*%
D11*
%TO.C,R7*%
X185420000Y-101600000D03*
D12*
X190500000Y-101600000D03*
%TD*%
D13*
%TO.C,D1*%
X154940000Y-99060000D03*
D14*
X154940000Y-101600000D03*
%TD*%
D15*
%TO.C,SW4*%
X191210000Y-78760000D03*
X184710000Y-78760000D03*
X191210000Y-83260000D03*
X184710000Y-83260000D03*
%TD*%
D11*
%TO.C,R3*%
X185420000Y-97790000D03*
D12*
X190500000Y-97790000D03*
%TD*%
D16*
%TO.C,SW2*%
X107930000Y-101557500D03*
D17*
X110470000Y-101557500D03*
X113010000Y-101557500D03*
X115550000Y-101557500D03*
X118090000Y-101557500D03*
X120630000Y-101557500D03*
X123170000Y-101557500D03*
X125710000Y-101557500D03*
X125710000Y-93937500D03*
X123170000Y-93937500D03*
X120630000Y-93937500D03*
X118090000Y-93937500D03*
X115550000Y-93937500D03*
X113010000Y-93937500D03*
X110470000Y-93937500D03*
X107930000Y-93937500D03*
%TD*%
D11*
%TO.C,R1*%
X161280000Y-87630000D03*
D12*
X161280000Y-82550000D03*
%TD*%
D18*
%TO.C,J1*%
X115570000Y-78035000D03*
D19*
X118110000Y-78035000D03*
X120650000Y-78035000D03*
X123190000Y-78035000D03*
X125730000Y-78035000D03*
X128270000Y-78035000D03*
X130810000Y-78035000D03*
X133350000Y-78035000D03*
X135890000Y-78035000D03*
X138430000Y-78035000D03*
X140970000Y-78035000D03*
X143510000Y-78035000D03*
X146050000Y-78035000D03*
X148590000Y-78035000D03*
X151130000Y-78035000D03*
X153670000Y-78035000D03*
X156210000Y-78035000D03*
X158750000Y-78035000D03*
X161290000Y-78035000D03*
X163830000Y-78035000D03*
X166370000Y-78035000D03*
X168910000Y-78035000D03*
X171450000Y-78035000D03*
X173990000Y-78035000D03*
X176530000Y-78035000D03*
X179070000Y-78035000D03*
%TD*%
D11*
%TO.C,R13*%
X118100000Y-87630000D03*
D12*
X118100000Y-82550000D03*
%TD*%
D11*
%TO.C,R21*%
X142240000Y-87630000D03*
D12*
X142240000Y-82550000D03*
%TD*%
D11*
%TO.C,R25*%
X154940000Y-91440000D03*
D12*
X154940000Y-96520000D03*
%TD*%
D11*
%TO.C,R14*%
X120640000Y-87630000D03*
D12*
X120640000Y-82550000D03*
%TD*%
D15*
%TO.C,SW5*%
X111470000Y-87070000D03*
X111470000Y-80570000D03*
X106970000Y-80570000D03*
X106970000Y-87070000D03*
%TD*%
D16*
%TO.C,SW3*%
X132070000Y-101557500D03*
D17*
X134610000Y-101557500D03*
X137150000Y-101557500D03*
X139690000Y-101557500D03*
X142230000Y-101557500D03*
X144770000Y-101557500D03*
X147310000Y-101557500D03*
X149850000Y-101557500D03*
X149850000Y-93937500D03*
X147310000Y-93937500D03*
X144770000Y-93937500D03*
X142230000Y-93937500D03*
X139690000Y-93937500D03*
X137150000Y-93937500D03*
X134610000Y-93937500D03*
X132070000Y-93937500D03*
%TD*%
D11*
%TO.C,R15*%
X123180000Y-87630000D03*
D12*
X123180000Y-82550000D03*
%TD*%
D11*
%TO.C,R23*%
X147310000Y-87630000D03*
D12*
X147310000Y-82550000D03*
%TD*%
D11*
%TO.C,R8*%
X171440000Y-87630000D03*
D12*
X171440000Y-82550000D03*
%TD*%
D11*
%TO.C,R11*%
X179060000Y-87630000D03*
D12*
X179060000Y-82550000D03*
%TD*%
D11*
%TO.C,R12*%
X115560000Y-87630000D03*
D12*
X115560000Y-82550000D03*
%TD*%
D11*
%TO.C,R4*%
X166360000Y-87630000D03*
D12*
X166360000Y-82550000D03*
%TD*%
D11*
%TO.C,R20*%
X139690000Y-87630000D03*
D12*
X139690000Y-82550000D03*
%TD*%
D16*
%TO.C,SW1*%
X161270000Y-101557500D03*
D17*
X163810000Y-101557500D03*
X166350000Y-101557500D03*
X168890000Y-101557500D03*
X171430000Y-101557500D03*
X173970000Y-101557500D03*
X176510000Y-101557500D03*
X179050000Y-101557500D03*
X179050000Y-93937500D03*
X176510000Y-93937500D03*
X173970000Y-93937500D03*
X171430000Y-93937500D03*
X168890000Y-93937500D03*
X166350000Y-93937500D03*
X163810000Y-93937500D03*
X161270000Y-93937500D03*
%TD*%
D11*
%TO.C,R24*%
X149850000Y-87630000D03*
D12*
X149850000Y-82550000D03*
%TD*%
D11*
%TO.C,R22*%
X144780000Y-87630000D03*
D12*
X144780000Y-82550000D03*
%TD*%
D11*
%TO.C,R2*%
X163820000Y-87630000D03*
D12*
X163820000Y-82550000D03*
%TD*%
D11*
%TO.C,R5*%
X102870000Y-92710000D03*
D12*
X102870000Y-87630000D03*
%TD*%
D11*
%TO.C,R18*%
X134610000Y-87630000D03*
D12*
X134610000Y-82550000D03*
%TD*%
D11*
%TO.C,R17*%
X132080000Y-87630000D03*
D12*
X132080000Y-82550000D03*
%TD*%
D11*
%TO.C,R6*%
X168900000Y-87630000D03*
D12*
X168900000Y-82550000D03*
%TD*%
D11*
%TO.C,R10*%
X176530000Y-87630000D03*
D12*
X176530000Y-82550000D03*
%TD*%
D15*
%TO.C,SW6*%
X191210000Y-87920000D03*
X184710000Y-87920000D03*
X184710000Y-92420000D03*
X191210000Y-92420000D03*
%TD*%
D11*
%TO.C,R19*%
X137150000Y-87630000D03*
D12*
X137150000Y-82550000D03*
%TD*%
D11*
%TO.C,R16*%
X125720000Y-87630000D03*
D12*
X125720000Y-82550000D03*
%TD*%
M02*
