M48
; DRILL file {KiCad (6.0.9)} date Sat Jun  7 15:03:20 2025
; FORMAT={-:-/ absolute / metric / decimal}
; #@! TF.CreationDate,2025-06-07T15:03:20-04:00
; #@! TF.GenerationSoftware,Kicad,Pcbnew,(6.0.9)
; #@! TF.FileFunction,Plated,1,2,PTH
FMAT,2
METRIC
; #@! TA.AperFunction,Plated,PTH,ViaDrill
T1C0.400
; #@! TA.AperFunction,Plated,PTH,ComponentDrill
T2C0.700
; #@! TA.AperFunction,Plated,PTH,ComponentDrill
T3C0.800
; #@! TA.AperFunction,Plated,PTH,ComponentDrill
T4C0.900
; #@! TA.AperFunction,Plated,PTH,ComponentDrill
T5C1.000
; #@! TA.AperFunction,Plated,PTH,ComponentDrill
T6C1.100
%
G90
G05
T1
X187.96Y-80.01
T2
X102.87Y-87.63
X102.87Y-92.71
X115.56Y-82.55
X115.56Y-87.63
X118.1Y-82.55
X118.1Y-87.63
X120.64Y-82.55
X120.64Y-87.63
X123.18Y-82.55
X123.18Y-87.63
X125.72Y-82.55
X125.72Y-87.63
X132.08Y-82.55
X132.08Y-87.63
X134.61Y-82.55
X134.61Y-87.63
X137.15Y-82.55
X137.15Y-87.63
X139.69Y-82.55
X139.69Y-87.63
X142.24Y-82.55
X142.24Y-87.63
X144.78Y-82.55
X144.78Y-87.63
X147.31Y-82.55
X147.31Y-87.63
X149.85Y-82.55
X149.85Y-87.63
X154.94Y-91.44
X154.94Y-96.52
X161.28Y-82.55
X161.28Y-87.63
X163.82Y-82.55
X163.82Y-87.63
X166.36Y-82.55
X166.36Y-87.63
X168.9Y-82.55
X168.9Y-87.63
X171.44Y-82.55
X171.44Y-87.63
X173.98Y-82.55
X173.98Y-87.63
X176.53Y-82.55
X176.53Y-87.63
X179.06Y-82.55
X179.06Y-87.63
X185.42Y-97.79
X185.42Y-101.6
X190.5Y-97.79
X190.5Y-101.6
T3
X107.93Y-93.938
X107.93Y-101.557
X110.47Y-93.938
X110.47Y-101.557
X113.01Y-93.938
X113.01Y-101.557
X115.55Y-93.938
X115.55Y-101.557
X118.09Y-93.938
X118.09Y-101.557
X120.63Y-93.938
X120.63Y-101.557
X123.17Y-93.938
X123.17Y-101.557
X125.71Y-93.938
X125.71Y-101.557
X132.07Y-93.938
X132.07Y-101.557
X134.61Y-93.938
X134.61Y-101.557
X137.15Y-93.938
X137.15Y-101.557
X139.69Y-93.938
X139.69Y-101.557
X142.23Y-93.938
X142.23Y-101.557
X144.77Y-93.938
X144.77Y-101.557
X147.31Y-93.938
X147.31Y-101.557
X149.85Y-93.938
X149.85Y-101.557
X161.27Y-93.938
X161.27Y-101.557
X163.81Y-93.938
X163.81Y-101.557
X166.35Y-93.938
X166.35Y-101.557
X168.89Y-93.938
X168.89Y-101.557
X171.43Y-93.938
X171.43Y-101.557
X173.97Y-93.938
X173.97Y-101.557
X176.51Y-93.938
X176.51Y-101.557
X179.05Y-93.938
X179.05Y-101.557
T4
X154.94Y-99.06
X154.94Y-101.6
T5
X115.57Y-78.035
X118.11Y-78.035
X120.65Y-78.035
X123.19Y-78.035
X125.73Y-78.035
X128.27Y-78.035
X130.81Y-78.035
X133.35Y-78.035
X135.89Y-78.035
X138.43Y-78.035
X140.97Y-78.035
X143.51Y-78.035
X146.05Y-78.035
X148.59Y-78.035
X151.13Y-78.035
X153.67Y-78.035
X156.21Y-78.035
X158.75Y-78.035
X161.29Y-78.035
X163.83Y-78.035
X166.37Y-78.035
X168.91Y-78.035
X171.45Y-78.035
X173.99Y-78.035
X176.53Y-78.035
X179.07Y-78.035
T6
X106.97Y-80.57
X106.97Y-87.07
X111.47Y-80.57
X111.47Y-87.07
X184.71Y-78.76
X184.71Y-83.26
X184.71Y-87.92
X184.71Y-92.42
X191.21Y-78.76
X191.21Y-83.26
X191.21Y-87.92
X191.21Y-92.42
T0
M30
