%TF.GenerationSoftware,KiCad,Pcbnew,(6.0.9)*%
%TF.CreationDate,2025-06-18T12:23:47-04:00*%
%TF.ProjectId,Seven Segment Display,53657665-6e20-4536-9567-6d656e742044,2*%
%TF.SameCoordinates,Original*%
%TF.FileFunction,Drillmap*%
%TF.FilePolarity,Positive*%
%FSLAX45Y45*%
G04 Gerber Fmt 4.5, Leading zero omitted, Abs format (unit mm)*
G04 Created by KiCad (PCBNEW (6.0.9)) date 2025-06-18 12:23:47*
%MOMM*%
%LPD*%
G01*
G04 APERTURE LIST*
%ADD10C,0.100000*%
%ADD11C,0.200000*%
G04 APERTURE END LIST*
D10*
X10921500Y-3557000D02*
X10921500Y-12447000D01*
X11557000Y-2921000D02*
X16256000Y-2921000D01*
X16256000Y-13080751D02*
X11556500Y-13082000D01*
X16891000Y-3556000D02*
X16890750Y-12447000D01*
X11557000Y-2921000D02*
X11556500Y-2922000D01*
X16891000Y-3556000D02*
G75*
G03*
X16256000Y-2921000I-635000J0D01*
G01*
X11556500Y-2922000D02*
G75*
G03*
X10921500Y-3557000I0J-635000D01*
G01*
X10921500Y-12447000D02*
G75*
G03*
X11556500Y-13082000I635000J0D01*
G01*
X16256000Y-13080751D02*
G75*
G03*
X16890750Y-12447000I0J634751D01*
G01*
D11*
X11174119Y-13397476D02*
X11174119Y-13197476D01*
X11221738Y-13197476D01*
X11250309Y-13207000D01*
X11269357Y-13226048D01*
X11278881Y-13245095D01*
X11288405Y-13283190D01*
X11288405Y-13311762D01*
X11278881Y-13349857D01*
X11269357Y-13368905D01*
X11250309Y-13387952D01*
X11221738Y-13397476D01*
X11174119Y-13397476D01*
X11374119Y-13397476D02*
X11374119Y-13264143D01*
X11374119Y-13302238D02*
X11383643Y-13283190D01*
X11393167Y-13273667D01*
X11412214Y-13264143D01*
X11431262Y-13264143D01*
X11497928Y-13397476D02*
X11497928Y-13264143D01*
X11497928Y-13197476D02*
X11488405Y-13207000D01*
X11497928Y-13216524D01*
X11507452Y-13207000D01*
X11497928Y-13197476D01*
X11497928Y-13216524D01*
X11621738Y-13397476D02*
X11602690Y-13387952D01*
X11593167Y-13368905D01*
X11593167Y-13197476D01*
X11726500Y-13397476D02*
X11707452Y-13387952D01*
X11697928Y-13368905D01*
X11697928Y-13197476D01*
X11955071Y-13397476D02*
X11955071Y-13197476D01*
X12021738Y-13340333D01*
X12088405Y-13197476D01*
X12088405Y-13397476D01*
X12269357Y-13397476D02*
X12269357Y-13292714D01*
X12259833Y-13273667D01*
X12240786Y-13264143D01*
X12202690Y-13264143D01*
X12183643Y-13273667D01*
X12269357Y-13387952D02*
X12250309Y-13397476D01*
X12202690Y-13397476D01*
X12183643Y-13387952D01*
X12174119Y-13368905D01*
X12174119Y-13349857D01*
X12183643Y-13330809D01*
X12202690Y-13321286D01*
X12250309Y-13321286D01*
X12269357Y-13311762D01*
X12364595Y-13264143D02*
X12364595Y-13464143D01*
X12364595Y-13273667D02*
X12383643Y-13264143D01*
X12421738Y-13264143D01*
X12440786Y-13273667D01*
X12450309Y-13283190D01*
X12459833Y-13302238D01*
X12459833Y-13359381D01*
X12450309Y-13378428D01*
X12440786Y-13387952D01*
X12421738Y-13397476D01*
X12383643Y-13397476D01*
X12364595Y-13387952D01*
X12545548Y-13378428D02*
X12555071Y-13387952D01*
X12545548Y-13397476D01*
X12536024Y-13387952D01*
X12545548Y-13378428D01*
X12545548Y-13397476D01*
X12545548Y-13273667D02*
X12555071Y-13283190D01*
X12545548Y-13292714D01*
X12536024Y-13283190D01*
X12545548Y-13273667D01*
X12545548Y-13292714D01*
M02*
