%TF.GenerationSoftware,KiCad,Pcbnew,(6.0.9)*%
%TF.CreationDate,2025-06-18T12:23:39-04:00*%
%TF.ProjectId,Seven Segment Display,53657665-6e20-4536-9567-6d656e742044,2*%
%TF.SameCoordinates,Original*%
%TF.FileFunction,Soldermask,Bot*%
%TF.FilePolarity,Negative*%
%FSLAX46Y46*%
G04 Gerber Fmt 4.6, Leading zero omitted, Abs format (unit mm)*
G04 Created by KiCad (PCBNEW (6.0.9)) date 2025-06-18 12:23:39*
%MOMM*%
%LPD*%
G01*
G04 APERTURE LIST*
%ADD10R,1.800000X1.800000*%
%ADD11C,1.800000*%
%ADD12O,1.700000X1.700000*%
%ADD13R,1.700000X1.700000*%
%ADD14R,1.600000X1.600000*%
%ADD15O,1.600000X1.600000*%
%ADD16C,1.400000*%
%ADD17O,1.400000X1.400000*%
G04 APERTURE END LIST*
D10*
%TO.C,D1*%
X127000000Y-33020000D03*
D11*
X124460000Y-33020000D03*
%TD*%
D12*
%TO.C,J1*%
X123185000Y-127705000D03*
X125725000Y-127705000D03*
X128265000Y-127705000D03*
X130805000Y-127705000D03*
X133345000Y-127705000D03*
X135885000Y-127705000D03*
X138425000Y-127705000D03*
X140965000Y-127705000D03*
X143505000Y-127705000D03*
X146045000Y-127705000D03*
X148585000Y-127705000D03*
X151125000Y-127705000D03*
D13*
X153665000Y-127705000D03*
%TD*%
D14*
%TO.C,U1*%
X142245000Y-81285000D03*
D15*
X142245000Y-83825000D03*
X142245000Y-86365000D03*
X142245000Y-88905000D03*
X142245000Y-91445000D03*
X142245000Y-93985000D03*
X142245000Y-96525000D03*
X149865000Y-96525000D03*
X149865000Y-93985000D03*
X149865000Y-91445000D03*
X149865000Y-88905000D03*
X149865000Y-86365000D03*
X149865000Y-83825000D03*
X149865000Y-81285000D03*
%TD*%
D14*
%TO.C,U10*%
X114305000Y-59695000D03*
D15*
X114305000Y-62235000D03*
X114305000Y-64775000D03*
X114305000Y-67315000D03*
X114305000Y-69855000D03*
X114305000Y-72395000D03*
X114305000Y-74935000D03*
X121925000Y-74935000D03*
X121925000Y-72395000D03*
X121925000Y-69855000D03*
X121925000Y-67315000D03*
X121925000Y-64775000D03*
X121925000Y-62235000D03*
X121925000Y-59695000D03*
%TD*%
D14*
%TO.C,U15*%
X142245000Y-102875000D03*
D15*
X142245000Y-105415000D03*
X142245000Y-107955000D03*
X142245000Y-110495000D03*
X142245000Y-113035000D03*
X142245000Y-115575000D03*
X142245000Y-118115000D03*
X149865000Y-118115000D03*
X149865000Y-115575000D03*
X149865000Y-113035000D03*
X149865000Y-110495000D03*
X149865000Y-107955000D03*
X149865000Y-105415000D03*
X149865000Y-102875000D03*
%TD*%
D14*
%TO.C,U4*%
X128275000Y-39375000D03*
D15*
X128275000Y-41915000D03*
X128275000Y-44455000D03*
X128275000Y-46995000D03*
X128275000Y-49535000D03*
X128275000Y-52075000D03*
X128275000Y-54615000D03*
X135895000Y-54615000D03*
X135895000Y-52075000D03*
X135895000Y-49535000D03*
X135895000Y-46995000D03*
X135895000Y-44455000D03*
X135895000Y-41915000D03*
X135895000Y-39375000D03*
%TD*%
D16*
%TO.C,R1*%
X135230000Y-33020000D03*
D17*
X130150000Y-33020000D03*
%TD*%
D14*
%TO.C,U11*%
X128275000Y-102875000D03*
D15*
X128275000Y-105415000D03*
X128275000Y-107955000D03*
X128275000Y-110495000D03*
X128275000Y-113035000D03*
X128275000Y-115575000D03*
X128275000Y-118115000D03*
X135895000Y-118115000D03*
X135895000Y-115575000D03*
X135895000Y-113035000D03*
X135895000Y-110495000D03*
X135895000Y-107955000D03*
X135895000Y-105415000D03*
X135895000Y-102875000D03*
%TD*%
D14*
%TO.C,U8*%
X156215000Y-81285000D03*
D15*
X156215000Y-83825000D03*
X156215000Y-86365000D03*
X156215000Y-88905000D03*
X156215000Y-91445000D03*
X156215000Y-93985000D03*
X156215000Y-96525000D03*
X163835000Y-96525000D03*
X163835000Y-93985000D03*
X163835000Y-91445000D03*
X163835000Y-88905000D03*
X163835000Y-86365000D03*
X163835000Y-83825000D03*
X163835000Y-81285000D03*
%TD*%
D14*
%TO.C,U12*%
X142245000Y-39375000D03*
D15*
X142245000Y-41915000D03*
X142245000Y-44455000D03*
X142245000Y-46995000D03*
X142245000Y-49535000D03*
X142245000Y-52075000D03*
X142245000Y-54615000D03*
X149865000Y-54615000D03*
X149865000Y-52075000D03*
X149865000Y-49535000D03*
X149865000Y-46995000D03*
X149865000Y-44455000D03*
X149865000Y-41915000D03*
X149865000Y-39375000D03*
%TD*%
D14*
%TO.C,U13*%
X156215000Y-102875000D03*
D15*
X156215000Y-105415000D03*
X156215000Y-107955000D03*
X156215000Y-110495000D03*
X156215000Y-113035000D03*
X156215000Y-115575000D03*
X156215000Y-118115000D03*
X163835000Y-118115000D03*
X163835000Y-115575000D03*
X163835000Y-113035000D03*
X163835000Y-110495000D03*
X163835000Y-107955000D03*
X163835000Y-105415000D03*
X163835000Y-102875000D03*
%TD*%
D14*
%TO.C,U2*%
X156215000Y-59695000D03*
D15*
X156215000Y-62235000D03*
X156215000Y-64775000D03*
X156215000Y-67315000D03*
X156215000Y-69855000D03*
X156215000Y-72395000D03*
X156215000Y-74935000D03*
X163835000Y-74935000D03*
X163835000Y-72395000D03*
X163835000Y-69855000D03*
X163835000Y-67315000D03*
X163835000Y-64775000D03*
X163835000Y-62235000D03*
X163835000Y-59695000D03*
%TD*%
D14*
%TO.C,U14*%
X128275000Y-81285000D03*
D15*
X128275000Y-83825000D03*
X128275000Y-86365000D03*
X128275000Y-88905000D03*
X128275000Y-91445000D03*
X128275000Y-93985000D03*
X128275000Y-96525000D03*
X135895000Y-96525000D03*
X135895000Y-93985000D03*
X135895000Y-91445000D03*
X135895000Y-88905000D03*
X135895000Y-86365000D03*
X135895000Y-83825000D03*
X135895000Y-81285000D03*
%TD*%
D14*
%TO.C,U6*%
X114305000Y-102875000D03*
D15*
X114305000Y-105415000D03*
X114305000Y-107955000D03*
X114305000Y-110495000D03*
X114305000Y-113035000D03*
X114305000Y-115575000D03*
X114305000Y-118115000D03*
X121925000Y-118115000D03*
X121925000Y-115575000D03*
X121925000Y-113035000D03*
X121925000Y-110495000D03*
X121925000Y-107955000D03*
X121925000Y-105415000D03*
X121925000Y-102875000D03*
%TD*%
D14*
%TO.C,U7*%
X142245000Y-59695000D03*
D15*
X142245000Y-62235000D03*
X142245000Y-64775000D03*
X142245000Y-67315000D03*
X142245000Y-69855000D03*
X142245000Y-72395000D03*
X142245000Y-74935000D03*
X149865000Y-74935000D03*
X149865000Y-72395000D03*
X149865000Y-69855000D03*
X149865000Y-67315000D03*
X149865000Y-64775000D03*
X149865000Y-62235000D03*
X149865000Y-59695000D03*
%TD*%
D14*
%TO.C,U9*%
X128275000Y-59695000D03*
D15*
X128275000Y-62235000D03*
X128275000Y-64775000D03*
X128275000Y-67315000D03*
X128275000Y-69855000D03*
X128275000Y-72395000D03*
X128275000Y-74935000D03*
X135895000Y-74935000D03*
X135895000Y-72395000D03*
X135895000Y-69855000D03*
X135895000Y-67315000D03*
X135895000Y-64775000D03*
X135895000Y-62235000D03*
X135895000Y-59695000D03*
%TD*%
D14*
%TO.C,U16*%
X114305000Y-81285000D03*
D15*
X114305000Y-83825000D03*
X114305000Y-86365000D03*
X114305000Y-88905000D03*
X114305000Y-91445000D03*
X114305000Y-93985000D03*
X114305000Y-96525000D03*
X121925000Y-96525000D03*
X121925000Y-93985000D03*
X121925000Y-91445000D03*
X121925000Y-88905000D03*
X121925000Y-86365000D03*
X121925000Y-83825000D03*
X121925000Y-81285000D03*
%TD*%
D14*
%TO.C,U3*%
X114305000Y-39375000D03*
D15*
X114305000Y-41915000D03*
X114305000Y-44455000D03*
X114305000Y-46995000D03*
X114305000Y-49535000D03*
X114305000Y-52075000D03*
X114305000Y-54615000D03*
X121925000Y-54615000D03*
X121925000Y-52075000D03*
X121925000Y-49535000D03*
X121925000Y-46995000D03*
X121925000Y-44455000D03*
X121925000Y-41915000D03*
X121925000Y-39375000D03*
%TD*%
D14*
%TO.C,U5*%
X156205000Y-39375000D03*
D15*
X156205000Y-41915000D03*
X156205000Y-44455000D03*
X156205000Y-46995000D03*
X156205000Y-49535000D03*
X156205000Y-52075000D03*
X156205000Y-54615000D03*
X163825000Y-54615000D03*
X163825000Y-52075000D03*
X163825000Y-49535000D03*
X163825000Y-46995000D03*
X163825000Y-44455000D03*
X163825000Y-41915000D03*
X163825000Y-39375000D03*
%TD*%
M02*
