M48
; DRILL file {KiCad (6.0.9)} date Wed Jun 18 12:23:47 2025
; FORMAT={-:-/ absolute / metric / decimal}
; #@! TF.CreationDate,2025-06-18T12:23:47-04:00
; #@! TF.GenerationSoftware,Kicad,Pcbnew,(6.0.9)
; #@! TF.FileFunction,Plated,1,4,PTH
FMAT,2
METRIC
; #@! TA.AperFunction,Plated,PTH,ViaDrill
T1C0.400
; #@! TA.AperFunction,Plated,PTH,ComponentDrill
T2C0.700
; #@! TA.AperFunction,Plated,PTH,ComponentDrill
T3C0.800
; #@! TA.AperFunction,Plated,PTH,ComponentDrill
T4C0.900
; #@! TA.AperFunction,Plated,PTH,ComponentDrill
T5C1.000
%
G90
G05
T1
X111.755Y-78.75
X116.835Y-99.07
X116.835Y-125.74
X119.375Y-93.99
X119.375Y-118.12
X123.73Y-101.61
X124.455Y-54.62
X125.725Y-78.75
X125.725Y-123.2
X127.0Y-125.74
X127.452Y-66.183
X128.265Y-123.2
X130.805Y-77.48
X132.075Y-60.97
X132.075Y-67.32
X132.075Y-123.2
X133.345Y-41.92
X133.345Y-116.85
X133.345Y-120.66
X137.155Y-78.75
X138.425Y-110.5
X139.695Y-83.83
X140.145Y-110.05
X143.505Y-100.34
X144.775Y-67.32
X144.775Y-77.754
X146.045Y-44.46
X146.045Y-63.51
X146.045Y-68.59
X147.315Y-109.23
X147.315Y-123.2
X148.585Y-76.21
X151.125Y-78.75
X151.125Y-92.72
X152.395Y-48.27
X152.395Y-118.12
X153.665Y-102.88
X154.935Y-78.75
X156.205Y-57.16
X157.475Y-78.75
X158.745Y-64.78
X158.745Y-88.91
X158.75Y-67.31
X158.75Y-74.93
X160.015Y-44.46
X160.015Y-81.29
X160.015Y-85.1
X160.015Y-92.72
X160.015Y-116.85
X160.02Y-109.22
X161.285Y-87.64
X163.83Y-78.74
X166.365Y-69.86
X166.37Y-59.69
T2
X130.15Y-33.02
X135.23Y-33.02
T3
X114.305Y-39.375
X114.305Y-41.915
X114.305Y-44.455
X114.305Y-46.995
X114.305Y-49.535
X114.305Y-52.075
X114.305Y-54.615
X114.305Y-59.695
X114.305Y-62.235
X114.305Y-64.775
X114.305Y-67.315
X114.305Y-69.855
X114.305Y-72.395
X114.305Y-74.935
X114.305Y-81.285
X114.305Y-83.825
X114.305Y-86.365
X114.305Y-88.905
X114.305Y-91.445
X114.305Y-93.985
X114.305Y-96.525
X114.305Y-102.875
X114.305Y-105.415
X114.305Y-107.955
X114.305Y-110.495
X114.305Y-113.035
X114.305Y-115.575
X114.305Y-118.115
X121.925Y-39.375
X121.925Y-41.915
X121.925Y-44.455
X121.925Y-46.995
X121.925Y-49.535
X121.925Y-52.075
X121.925Y-54.615
X121.925Y-59.695
X121.925Y-62.235
X121.925Y-64.775
X121.925Y-67.315
X121.925Y-69.855
X121.925Y-72.395
X121.925Y-74.935
X121.925Y-81.285
X121.925Y-83.825
X121.925Y-86.365
X121.925Y-88.905
X121.925Y-91.445
X121.925Y-93.985
X121.925Y-96.525
X121.925Y-102.875
X121.925Y-105.415
X121.925Y-107.955
X121.925Y-110.495
X121.925Y-113.035
X121.925Y-115.575
X121.925Y-118.115
X128.275Y-39.375
X128.275Y-41.915
X128.275Y-44.455
X128.275Y-46.995
X128.275Y-49.535
X128.275Y-52.075
X128.275Y-54.615
X128.275Y-59.695
X128.275Y-62.235
X128.275Y-64.775
X128.275Y-67.315
X128.275Y-69.855
X128.275Y-72.395
X128.275Y-74.935
X128.275Y-81.285
X128.275Y-83.825
X128.275Y-86.365
X128.275Y-88.905
X128.275Y-91.445
X128.275Y-93.985
X128.275Y-96.525
X128.275Y-102.875
X128.275Y-105.415
X128.275Y-107.955
X128.275Y-110.495
X128.275Y-113.035
X128.275Y-115.575
X128.275Y-118.115
X135.895Y-39.375
X135.895Y-41.915
X135.895Y-44.455
X135.895Y-46.995
X135.895Y-49.535
X135.895Y-52.075
X135.895Y-54.615
X135.895Y-59.695
X135.895Y-62.235
X135.895Y-64.775
X135.895Y-67.315
X135.895Y-69.855
X135.895Y-72.395
X135.895Y-74.935
X135.895Y-81.285
X135.895Y-83.825
X135.895Y-86.365
X135.895Y-88.905
X135.895Y-91.445
X135.895Y-93.985
X135.895Y-96.525
X135.895Y-102.875
X135.895Y-105.415
X135.895Y-107.955
X135.895Y-110.495
X135.895Y-113.035
X135.895Y-115.575
X135.895Y-118.115
X142.245Y-39.375
X142.245Y-41.915
X142.245Y-44.455
X142.245Y-46.995
X142.245Y-49.535
X142.245Y-52.075
X142.245Y-54.615
X142.245Y-59.695
X142.245Y-62.235
X142.245Y-64.775
X142.245Y-67.315
X142.245Y-69.855
X142.245Y-72.395
X142.245Y-74.935
X142.245Y-81.285
X142.245Y-83.825
X142.245Y-86.365
X142.245Y-88.905
X142.245Y-91.445
X142.245Y-93.985
X142.245Y-96.525
X142.245Y-102.875
X142.245Y-105.415
X142.245Y-107.955
X142.245Y-110.495
X142.245Y-113.035
X142.245Y-115.575
X142.245Y-118.115
X149.865Y-39.375
X149.865Y-41.915
X149.865Y-44.455
X149.865Y-46.995
X149.865Y-49.535
X149.865Y-52.075
X149.865Y-54.615
X149.865Y-59.695
X149.865Y-62.235
X149.865Y-64.775
X149.865Y-67.315
X149.865Y-69.855
X149.865Y-72.395
X149.865Y-74.935
X149.865Y-81.285
X149.865Y-83.825
X149.865Y-86.365
X149.865Y-88.905
X149.865Y-91.445
X149.865Y-93.985
X149.865Y-96.525
X149.865Y-102.875
X149.865Y-105.415
X149.865Y-107.955
X149.865Y-110.495
X149.865Y-113.035
X149.865Y-115.575
X149.865Y-118.115
X156.205Y-39.375
X156.205Y-41.915
X156.205Y-44.455
X156.205Y-46.995
X156.205Y-49.535
X156.205Y-52.075
X156.205Y-54.615
X156.215Y-59.695
X156.215Y-62.235
X156.215Y-64.775
X156.215Y-67.315
X156.215Y-69.855
X156.215Y-72.395
X156.215Y-74.935
X156.215Y-81.285
X156.215Y-83.825
X156.215Y-86.365
X156.215Y-88.905
X156.215Y-91.445
X156.215Y-93.985
X156.215Y-96.525
X156.215Y-102.875
X156.215Y-105.415
X156.215Y-107.955
X156.215Y-110.495
X156.215Y-113.035
X156.215Y-115.575
X156.215Y-118.115
X163.825Y-39.375
X163.825Y-41.915
X163.825Y-44.455
X163.825Y-46.995
X163.825Y-49.535
X163.825Y-52.075
X163.825Y-54.615
X163.835Y-59.695
X163.835Y-62.235
X163.835Y-64.775
X163.835Y-67.315
X163.835Y-69.855
X163.835Y-72.395
X163.835Y-74.935
X163.835Y-81.285
X163.835Y-83.825
X163.835Y-86.365
X163.835Y-88.905
X163.835Y-91.445
X163.835Y-93.985
X163.835Y-96.525
X163.835Y-102.875
X163.835Y-105.415
X163.835Y-107.955
X163.835Y-110.495
X163.835Y-113.035
X163.835Y-115.575
X163.835Y-118.115
T4
X124.46Y-33.02
X127.0Y-33.02
T5
X123.185Y-127.705
X125.725Y-127.705
X128.265Y-127.705
X130.805Y-127.705
X133.345Y-127.705
X135.885Y-127.705
X138.425Y-127.705
X140.965Y-127.705
X143.505Y-127.705
X146.045Y-127.705
X148.585Y-127.705
X151.125Y-127.705
X153.665Y-127.705
T0
M30
