%TF.GenerationSoftware,KiCad,Pcbnew,(6.0.9)*%
%TF.CreationDate,2025-06-18T12:23:39-04:00*%
%TF.ProjectId,Seven Segment Display,53657665-6e20-4536-9567-6d656e742044,2*%
%TF.SameCoordinates,Original*%
%TF.FileFunction,Copper,L4,Bot*%
%TF.FilePolarity,Positive*%
%FSLAX46Y46*%
G04 Gerber Fmt 4.6, Leading zero omitted, Abs format (unit mm)*
G04 Created by KiCad (PCBNEW (6.0.9)) date 2025-06-18 12:23:39*
%MOMM*%
%LPD*%
G01*
G04 APERTURE LIST*
%TA.AperFunction,ComponentPad*%
%ADD10R,1.800000X1.800000*%
%TD*%
%TA.AperFunction,ComponentPad*%
%ADD11C,1.800000*%
%TD*%
%TA.AperFunction,ComponentPad*%
%ADD12O,1.700000X1.700000*%
%TD*%
%TA.AperFunction,ComponentPad*%
%ADD13R,1.700000X1.700000*%
%TD*%
%TA.AperFunction,ComponentPad*%
%ADD14R,1.600000X1.600000*%
%TD*%
%TA.AperFunction,ComponentPad*%
%ADD15O,1.600000X1.600000*%
%TD*%
%TA.AperFunction,ComponentPad*%
%ADD16C,1.400000*%
%TD*%
%TA.AperFunction,ComponentPad*%
%ADD17O,1.400000X1.400000*%
%TD*%
%TA.AperFunction,ViaPad*%
%ADD18C,0.800000*%
%TD*%
%TA.AperFunction,Conductor*%
%ADD19C,0.250000*%
%TD*%
G04 APERTURE END LIST*
D10*
%TO.P,D1,1,K*%
%TO.N,Net-(D1-Pad1)*%
X127000000Y-33020000D03*
D11*
%TO.P,D1,2,A*%
%TO.N,+5V*%
X124460000Y-33020000D03*
%TD*%
D12*
%TO.P,J1,13,Pin_13*%
%TO.N,GND*%
X123185000Y-127705000D03*
%TO.P,J1,12,Pin_12*%
%TO.N,+5V*%
X125725000Y-127705000D03*
%TO.P,J1,11,Pin_11*%
%TO.N,D*%
X128265000Y-127705000D03*
%TO.P,J1,10,Pin_10*%
%TO.N,C*%
X130805000Y-127705000D03*
%TO.P,J1,9,Pin_9*%
%TO.N,B*%
X133345000Y-127705000D03*
%TO.P,J1,8,Pin_8*%
%TO.N,A*%
X135885000Y-127705000D03*
%TO.P,J1,7,Pin_7*%
%TO.N,G-segment*%
X138425000Y-127705000D03*
%TO.P,J1,6,Pin_6*%
%TO.N,F-segment*%
X140965000Y-127705000D03*
%TO.P,J1,5,Pin_5*%
%TO.N,E-segment*%
X143505000Y-127705000D03*
%TO.P,J1,4,Pin_4*%
%TO.N,D-segment*%
X146045000Y-127705000D03*
%TO.P,J1,3,Pin_3*%
%TO.N,C-segment*%
X148585000Y-127705000D03*
%TO.P,J1,2,Pin_2*%
%TO.N,B-segment*%
X151125000Y-127705000D03*
D13*
%TO.P,J1,1,Pin_1*%
%TO.N,A-segment*%
X153665000Y-127705000D03*
%TD*%
D14*
%TO.P,U1,1*%
%TO.N,A*%
X142245000Y-81285000D03*
D15*
%TO.P,U1,2*%
%TO.N,B'*%
X142245000Y-83825000D03*
%TO.P,U1,3*%
%TO.N,Net-(U1-Pad3)*%
X142245000Y-86365000D03*
%TO.P,U1,4*%
%TO.N,A'*%
X142245000Y-88905000D03*
%TO.P,U1,5*%
%TO.N,Net-(U1-Pad5)*%
X142245000Y-91445000D03*
%TO.P,U1,6*%
%TO.N,Net-(U1-Pad6)*%
X142245000Y-93985000D03*
%TO.P,U1,7,GND*%
%TO.N,GND*%
X142245000Y-96525000D03*
%TO.P,U1,8*%
%TO.N,Net-(U1-Pad8)*%
X149865000Y-96525000D03*
%TO.P,U1,9*%
%TO.N,C'*%
X149865000Y-93985000D03*
%TO.P,U1,10*%
%TO.N,D*%
X149865000Y-91445000D03*
%TO.P,U1,11*%
%TO.N,Net-(U1-Pad11)*%
X149865000Y-88905000D03*
%TO.P,U1,12*%
%TO.N,B'*%
X149865000Y-86365000D03*
%TO.P,U1,13*%
%TO.N,D'*%
X149865000Y-83825000D03*
%TO.P,U1,14,VCC*%
%TO.N,+5V*%
X149865000Y-81285000D03*
%TD*%
D14*
%TO.P,U10,1*%
%TO.N,Net-(U10-Pad1)*%
X114305000Y-59695000D03*
D15*
%TO.P,U10,2*%
%TO.N,D'*%
X114305000Y-62235000D03*
%TO.P,U10,3*%
%TO.N,Net-(U10-Pad3)*%
X114305000Y-64775000D03*
%TO.P,U10,4*%
%TO.N,Net-(U10-Pad4)*%
X114305000Y-67315000D03*
%TO.P,U10,5*%
%TO.N,C*%
X114305000Y-69855000D03*
%TO.P,U10,6*%
%TO.N,Net-(U10-Pad6)*%
X114305000Y-72395000D03*
%TO.P,U10,7,GND*%
%TO.N,GND*%
X114305000Y-74935000D03*
%TO.P,U10,8*%
%TO.N,Net-(U10-Pad12)*%
X121925000Y-74935000D03*
%TO.P,U10,9*%
%TO.N,Net-(U10-Pad9)*%
X121925000Y-72395000D03*
%TO.P,U10,10*%
%TO.N,Net-(U10-Pad10)*%
X121925000Y-69855000D03*
%TO.P,U10,11*%
%TO.N,Net-(U10-Pad11)*%
X121925000Y-67315000D03*
%TO.P,U10,12*%
%TO.N,Net-(U10-Pad12)*%
X121925000Y-64775000D03*
%TO.P,U10,13*%
%TO.N,Net-(U10-Pad13)*%
X121925000Y-62235000D03*
%TO.P,U10,14,VCC*%
%TO.N,+5V*%
X121925000Y-59695000D03*
%TD*%
D14*
%TO.P,U15,1*%
%TO.N,Net-(U11-Pad6)*%
X142245000Y-102875000D03*
D15*
%TO.P,U15,2*%
%TO.N,Net-(U13-Pad6)*%
X142245000Y-105415000D03*
%TO.P,U15,3*%
%TO.N,Net-(U13-Pad12)*%
X142245000Y-107955000D03*
%TO.P,U15,4*%
%TO.N,Net-(U11-Pad8)*%
X142245000Y-110495000D03*
%TO.P,U15,5*%
%TO.N,C'*%
X142245000Y-113035000D03*
%TO.P,U15,6*%
%TO.N,Net-(U13-Pad13)*%
X142245000Y-115575000D03*
%TO.P,U15,7,GND*%
%TO.N,GND*%
X142245000Y-118115000D03*
%TO.P,U15,8*%
%TO.N,Net-(U14-Pad12)*%
X149865000Y-118115000D03*
%TO.P,U15,9*%
%TO.N,A*%
X149865000Y-115575000D03*
%TO.P,U15,10*%
%TO.N,Net-(U14-Pad6)*%
X149865000Y-113035000D03*
%TO.P,U15,11*%
%TO.N,Net-(U14-Pad13)*%
X149865000Y-110495000D03*
%TO.P,U15,12*%
%TO.N,Net-(U14-Pad8)*%
X149865000Y-107955000D03*
%TO.P,U15,13*%
%TO.N,C*%
X149865000Y-105415000D03*
%TO.P,U15,14,VCC*%
%TO.N,+5V*%
X149865000Y-102875000D03*
%TD*%
D14*
%TO.P,U4,1*%
%TO.N,A'*%
X128275000Y-39375000D03*
D15*
%TO.P,U4,2*%
%TO.N,Net-(U10-Pad6)*%
X128275000Y-41915000D03*
%TO.P,U4,3*%
%TO.N,Net-(U10-Pad9)*%
X128275000Y-44455000D03*
%TO.P,U4,4*%
%TO.N,A*%
X128275000Y-46995000D03*
%TO.P,U4,5*%
%TO.N,Net-(U10-Pad3)*%
X128275000Y-49535000D03*
%TO.P,U4,6*%
%TO.N,Net-(U10-Pad10)*%
X128275000Y-52075000D03*
%TO.P,U4,7,GND*%
%TO.N,GND*%
X128275000Y-54615000D03*
%TO.P,U4,8*%
%TO.N,Net-(U4-Pad8)*%
X135895000Y-54615000D03*
%TO.P,U4,9*%
%TO.N,A*%
X135895000Y-52075000D03*
%TO.P,U4,10*%
%TO.N,C'*%
X135895000Y-49535000D03*
%TO.P,U4,11*%
%TO.N,Net-(U4-Pad11)*%
X135895000Y-46995000D03*
%TO.P,U4,12*%
%TO.N,C*%
X135895000Y-44455000D03*
%TO.P,U4,13*%
%TO.N,D*%
X135895000Y-41915000D03*
%TO.P,U4,14,VCC*%
%TO.N,+5V*%
X135895000Y-39375000D03*
%TD*%
D16*
%TO.P,R1,1*%
%TO.N,GND*%
X135230000Y-33020000D03*
D17*
%TO.P,R1,2*%
%TO.N,Net-(D1-Pad1)*%
X130150000Y-33020000D03*
%TD*%
D14*
%TO.P,U11,1*%
%TO.N,Net-(U11-Pad1)*%
X128275000Y-102875000D03*
D15*
%TO.P,U11,2*%
%TO.N,D'*%
X128275000Y-105415000D03*
%TO.P,U11,3*%
%TO.N,Net-(U11-Pad3)*%
X128275000Y-107955000D03*
%TO.P,U11,4*%
%TO.N,A*%
X128275000Y-110495000D03*
%TO.P,U11,5*%
%TO.N,D*%
X128275000Y-113035000D03*
%TO.P,U11,6*%
%TO.N,Net-(U11-Pad6)*%
X128275000Y-115575000D03*
%TO.P,U11,7,GND*%
%TO.N,GND*%
X128275000Y-118115000D03*
%TO.P,U11,8*%
%TO.N,Net-(U11-Pad8)*%
X135895000Y-118115000D03*
%TO.P,U11,9*%
%TO.N,A'*%
X135895000Y-115575000D03*
%TO.P,U11,10*%
%TO.N,B*%
X135895000Y-113035000D03*
%TO.P,U11,11*%
%TO.N,Net-(U11-Pad11)*%
X135895000Y-110495000D03*
%TO.P,U11,12*%
%TO.N,Net-(U11-Pad12)*%
X135895000Y-107955000D03*
%TO.P,U11,13*%
%TO.N,D'*%
X135895000Y-105415000D03*
%TO.P,U11,14,VCC*%
%TO.N,+5V*%
X135895000Y-102875000D03*
%TD*%
D14*
%TO.P,U8,1*%
%TO.N,Net-(U1-Pad3)*%
X156215000Y-81285000D03*
D15*
%TO.P,U8,2*%
%TO.N,Net-(U1-Pad6)*%
X156215000Y-83825000D03*
%TO.P,U8,3*%
%TO.N,Net-(U2-Pad4)*%
X156215000Y-86365000D03*
%TO.P,U8,4*%
%TO.N,Net-(U6-Pad6)*%
X156215000Y-88905000D03*
%TO.P,U8,5*%
%TO.N,Net-(U6-Pad3)*%
X156215000Y-91445000D03*
%TO.P,U8,6*%
%TO.N,Net-(U7-Pad2)*%
X156215000Y-93985000D03*
%TO.P,U8,7,GND*%
%TO.N,GND*%
X156215000Y-96525000D03*
%TO.P,U8,8*%
%TO.N,Net-(U6-Pad2)*%
X163835000Y-96525000D03*
%TO.P,U8,9*%
%TO.N,B'*%
X163835000Y-93985000D03*
%TO.P,U8,10*%
%TO.N,D'*%
X163835000Y-91445000D03*
%TO.P,U8,11*%
%TO.N,Net-(U6-Pad5)*%
X163835000Y-88905000D03*
%TO.P,U8,12*%
%TO.N,D*%
X163835000Y-86365000D03*
%TO.P,U8,13*%
%TO.N,A*%
X163835000Y-83825000D03*
%TO.P,U8,14,VCC*%
%TO.N,+5V*%
X163835000Y-81285000D03*
%TD*%
D14*
%TO.P,U12,1*%
%TO.N,A*%
X142245000Y-39375000D03*
D15*
%TO.P,U12,2*%
%TO.N,A'*%
X142245000Y-41915000D03*
%TO.P,U12,3*%
%TO.N,B*%
X142245000Y-44455000D03*
%TO.P,U12,4*%
%TO.N,B'*%
X142245000Y-46995000D03*
%TO.P,U12,5*%
%TO.N,C*%
X142245000Y-49535000D03*
%TO.P,U12,6*%
%TO.N,C'*%
X142245000Y-52075000D03*
%TO.P,U12,7,GND*%
%TO.N,GND*%
X142245000Y-54615000D03*
%TO.P,U12,8*%
%TO.N,D'*%
X149865000Y-54615000D03*
%TO.P,U12,9*%
%TO.N,D*%
X149865000Y-52075000D03*
%TO.P,U12,10*%
%TO.N,N/C*%
X149865000Y-49535000D03*
%TO.P,U12,11*%
X149865000Y-46995000D03*
%TO.P,U12,12*%
X149865000Y-44455000D03*
%TO.P,U12,13*%
X149865000Y-41915000D03*
%TO.P,U12,14,VCC*%
%TO.N,+5V*%
X149865000Y-39375000D03*
%TD*%
D14*
%TO.P,U13,1*%
%TO.N,Net-(U13-Pad1)*%
X156215000Y-102875000D03*
D15*
%TO.P,U13,2*%
%TO.N,Net-(U11-Pad11)*%
X156215000Y-105415000D03*
%TO.P,U13,3*%
%TO.N,F-segment*%
X156215000Y-107955000D03*
%TO.P,U13,4*%
%TO.N,B'*%
X156215000Y-110495000D03*
%TO.P,U13,5*%
%TO.N,C*%
X156215000Y-113035000D03*
%TO.P,U13,6*%
%TO.N,Net-(U13-Pad6)*%
X156215000Y-115575000D03*
%TO.P,U13,7,GND*%
%TO.N,GND*%
X156215000Y-118115000D03*
%TO.P,U13,8*%
%TO.N,Net-(U11-Pad12)*%
X163835000Y-118115000D03*
%TO.P,U13,9*%
%TO.N,B*%
X163835000Y-115575000D03*
%TO.P,U13,10*%
%TO.N,C'*%
X163835000Y-113035000D03*
%TO.P,U13,11*%
%TO.N,Net-(U13-Pad1)*%
X163835000Y-110495000D03*
%TO.P,U13,12*%
%TO.N,Net-(U13-Pad12)*%
X163835000Y-107955000D03*
%TO.P,U13,13*%
%TO.N,Net-(U13-Pad13)*%
X163835000Y-105415000D03*
%TO.P,U13,14,VCC*%
%TO.N,+5V*%
X163835000Y-102875000D03*
%TD*%
D14*
%TO.P,U2,1*%
%TO.N,C'*%
X156215000Y-59695000D03*
D15*
%TO.P,U2,2*%
%TO.N,D'*%
X156215000Y-62235000D03*
%TO.P,U2,3*%
%TO.N,Net-(U2-Pad3)*%
X156215000Y-64775000D03*
%TO.P,U2,4*%
%TO.N,Net-(U2-Pad4)*%
X156215000Y-67315000D03*
%TO.P,U2,5*%
%TO.N,Net-(U1-Pad8)*%
X156215000Y-69855000D03*
%TO.P,U2,6*%
%TO.N,C-segment*%
X156215000Y-72395000D03*
%TO.P,U2,7,GND*%
%TO.N,GND*%
X156215000Y-74935000D03*
%TO.P,U2,8*%
%TO.N,Net-(U2-Pad12)*%
X163835000Y-74935000D03*
%TO.P,U2,9*%
%TO.N,B*%
X163835000Y-72395000D03*
%TO.P,U2,10*%
%TO.N,C'*%
X163835000Y-69855000D03*
%TO.P,U2,11*%
%TO.N,Net-(U1-Pad5)*%
X163835000Y-67315000D03*
%TO.P,U2,12*%
%TO.N,Net-(U2-Pad12)*%
X163835000Y-64775000D03*
%TO.P,U2,13*%
%TO.N,D*%
X163835000Y-62235000D03*
%TO.P,U2,14,VCC*%
%TO.N,+5V*%
X163835000Y-59695000D03*
%TD*%
D14*
%TO.P,U14,1*%
%TO.N,Net-(U14-Pad1)*%
X128275000Y-81285000D03*
D15*
%TO.P,U14,2*%
%TO.N,Net-(U14-Pad2)*%
X128275000Y-83825000D03*
%TO.P,U14,3*%
%TO.N,G-segment*%
X128275000Y-86365000D03*
%TO.P,U14,4*%
%TO.N,B'*%
X128275000Y-88905000D03*
%TO.P,U14,5*%
%TO.N,D*%
X128275000Y-91445000D03*
%TO.P,U14,6*%
%TO.N,Net-(U14-Pad6)*%
X128275000Y-93985000D03*
%TO.P,U14,7,GND*%
%TO.N,GND*%
X128275000Y-96525000D03*
%TO.P,U14,8*%
%TO.N,Net-(U14-Pad8)*%
X135895000Y-96525000D03*
%TO.P,U14,9*%
%TO.N,B'*%
X135895000Y-93985000D03*
%TO.P,U14,10*%
%TO.N,D'*%
X135895000Y-91445000D03*
%TO.P,U14,11*%
%TO.N,Net-(U14-Pad1)*%
X135895000Y-88905000D03*
%TO.P,U14,12*%
%TO.N,Net-(U14-Pad12)*%
X135895000Y-86365000D03*
%TO.P,U14,13*%
%TO.N,Net-(U14-Pad13)*%
X135895000Y-83825000D03*
%TO.P,U14,14,VCC*%
%TO.N,+5V*%
X135895000Y-81285000D03*
%TD*%
D14*
%TO.P,U6,1*%
%TO.N,C*%
X114305000Y-102875000D03*
D15*
%TO.P,U6,2*%
%TO.N,Net-(U6-Pad2)*%
X114305000Y-105415000D03*
%TO.P,U6,3*%
%TO.N,Net-(U6-Pad3)*%
X114305000Y-107955000D03*
%TO.P,U6,4*%
%TO.N,Net-(U6-Pad4)*%
X114305000Y-110495000D03*
%TO.P,U6,5*%
%TO.N,Net-(U6-Pad5)*%
X114305000Y-113035000D03*
%TO.P,U6,6*%
%TO.N,Net-(U6-Pad6)*%
X114305000Y-115575000D03*
%TO.P,U6,7,GND*%
%TO.N,GND*%
X114305000Y-118115000D03*
%TO.P,U6,8*%
%TO.N,Net-(U6-Pad4)*%
X121925000Y-118115000D03*
%TO.P,U6,9*%
%TO.N,B*%
X121925000Y-115575000D03*
%TO.P,U6,10*%
%TO.N,C'*%
X121925000Y-113035000D03*
%TO.P,U6,11*%
%TO.N,Net-(U6-Pad11)*%
X121925000Y-110495000D03*
%TO.P,U6,12*%
%TO.N,A*%
X121925000Y-107955000D03*
%TO.P,U6,13*%
%TO.N,Net-(U6-Pad13)*%
X121925000Y-105415000D03*
%TO.P,U6,14,VCC*%
%TO.N,+5V*%
X121925000Y-102875000D03*
%TD*%
D14*
%TO.P,U7,1*%
%TO.N,Net-(U1-Pad11)*%
X142245000Y-59695000D03*
D15*
%TO.P,U7,2*%
%TO.N,Net-(U7-Pad2)*%
X142245000Y-62235000D03*
%TO.P,U7,3*%
%TO.N,D-segment*%
X142245000Y-64775000D03*
%TO.P,U7,4*%
%TO.N,Net-(U6-Pad11)*%
X142245000Y-67315000D03*
%TO.P,U7,5*%
%TO.N,Net-(U11-Pad3)*%
X142245000Y-69855000D03*
%TO.P,U7,6*%
%TO.N,E-segment*%
X142245000Y-72395000D03*
%TO.P,U7,7,GND*%
%TO.N,GND*%
X142245000Y-74935000D03*
%TO.P,U7,8*%
%TO.N,Net-(U6-Pad13)*%
X149865000Y-74935000D03*
%TO.P,U7,9*%
%TO.N,B*%
X149865000Y-72395000D03*
%TO.P,U7,10*%
%TO.N,C*%
X149865000Y-69855000D03*
%TO.P,U7,11*%
%TO.N,Net-(U11-Pad1)*%
X149865000Y-67315000D03*
%TO.P,U7,12*%
%TO.N,C*%
X149865000Y-64775000D03*
%TO.P,U7,13*%
%TO.N,B'*%
X149865000Y-62235000D03*
%TO.P,U7,14,VCC*%
%TO.N,+5V*%
X149865000Y-59695000D03*
%TD*%
D14*
%TO.P,U9,1*%
%TO.N,Net-(U10-Pad11)*%
X128275000Y-59695000D03*
D15*
%TO.P,U9,2*%
%TO.N,Net-(U3-Pad11)*%
X128275000Y-62235000D03*
%TO.P,U9,3*%
%TO.N,A-segment*%
X128275000Y-64775000D03*
%TO.P,U9,4*%
%TO.N,Net-(U5-Pad6)*%
X128275000Y-67315000D03*
%TO.P,U9,5*%
%TO.N,Net-(U5-Pad8)*%
X128275000Y-69855000D03*
%TO.P,U9,6*%
%TO.N,Net-(U9-Pad12)*%
X128275000Y-72395000D03*
%TO.P,U9,7,GND*%
%TO.N,GND*%
X128275000Y-74935000D03*
%TO.P,U9,8*%
%TO.N,Net-(U5-Pad10)*%
X135895000Y-74935000D03*
%TO.P,U9,9*%
%TO.N,Net-(U4-Pad11)*%
X135895000Y-72395000D03*
%TO.P,U9,10*%
%TO.N,Net-(U5-Pad3)*%
X135895000Y-69855000D03*
%TO.P,U9,11*%
%TO.N,B-segment*%
X135895000Y-67315000D03*
%TO.P,U9,12*%
%TO.N,Net-(U9-Pad12)*%
X135895000Y-64775000D03*
%TO.P,U9,13*%
%TO.N,Net-(U5-Pad11)*%
X135895000Y-62235000D03*
%TO.P,U9,14,VCC*%
%TO.N,+5V*%
X135895000Y-59695000D03*
%TD*%
D14*
%TO.P,U16,1*%
%TO.N,Net-(U16-Pad1)*%
X114305000Y-81285000D03*
D15*
%TO.P,U16,2*%
%TO.N,C'*%
X114305000Y-83825000D03*
%TO.P,U16,3*%
%TO.N,Net-(U14-Pad2)*%
X114305000Y-86365000D03*
%TO.P,U16,4*%
%TO.N,A'*%
X114305000Y-88905000D03*
%TO.P,U16,5*%
%TO.N,B*%
X114305000Y-91445000D03*
%TO.P,U16,6*%
%TO.N,Net-(U16-Pad1)*%
X114305000Y-93985000D03*
%TO.P,U16,7,GND*%
%TO.N,GND*%
X114305000Y-96525000D03*
%TO.P,U16,8*%
%TO.N,unconnected-(U16-Pad8)*%
X121925000Y-96525000D03*
%TO.P,U16,9*%
%TO.N,unconnected-(U16-Pad9)*%
X121925000Y-93985000D03*
%TO.P,U16,10*%
%TO.N,unconnected-(U16-Pad10)*%
X121925000Y-91445000D03*
%TO.P,U16,11*%
%TO.N,unconnected-(U16-Pad11)*%
X121925000Y-88905000D03*
%TO.P,U16,12*%
%TO.N,unconnected-(U16-Pad12)*%
X121925000Y-86365000D03*
%TO.P,U16,13*%
%TO.N,unconnected-(U16-Pad13)*%
X121925000Y-83825000D03*
%TO.P,U16,14,VCC*%
%TO.N,+5V*%
X121925000Y-81285000D03*
%TD*%
D14*
%TO.P,U3,1*%
%TO.N,B*%
X114305000Y-39375000D03*
D15*
%TO.P,U3,2*%
%TO.N,D*%
X114305000Y-41915000D03*
%TO.P,U3,3*%
%TO.N,Net-(U10-Pad4)*%
X114305000Y-44455000D03*
%TO.P,U3,4*%
%TO.N,B'*%
X114305000Y-46995000D03*
%TO.P,U3,5*%
%TO.N,C'*%
X114305000Y-49535000D03*
%TO.P,U3,6*%
%TO.N,Net-(U10-Pad1)*%
X114305000Y-52075000D03*
%TO.P,U3,7,GND*%
%TO.N,GND*%
X114305000Y-54615000D03*
%TO.P,U3,8*%
%TO.N,Net-(U10-Pad13)*%
X121925000Y-54615000D03*
%TO.P,U3,9*%
%TO.N,B'*%
X121925000Y-52075000D03*
%TO.P,U3,10*%
%TO.N,D'*%
X121925000Y-49535000D03*
%TO.P,U3,11*%
%TO.N,Net-(U3-Pad11)*%
X121925000Y-46995000D03*
%TO.P,U3,12*%
%TO.N,B*%
X121925000Y-44455000D03*
%TO.P,U3,13*%
%TO.N,C*%
X121925000Y-41915000D03*
%TO.P,U3,14,VCC*%
%TO.N,+5V*%
X121925000Y-39375000D03*
%TD*%
D14*
%TO.P,U5,1*%
%TO.N,C'*%
X156205000Y-39375000D03*
D15*
%TO.P,U5,2*%
%TO.N,D'*%
X156205000Y-41915000D03*
%TO.P,U5,3*%
%TO.N,Net-(U5-Pad3)*%
X156205000Y-44455000D03*
%TO.P,U5,4*%
%TO.N,Net-(U4-Pad8)*%
X156205000Y-46995000D03*
%TO.P,U5,5*%
%TO.N,D*%
X156205000Y-49535000D03*
%TO.P,U5,6*%
%TO.N,Net-(U5-Pad6)*%
X156205000Y-52075000D03*
%TO.P,U5,7,GND*%
%TO.N,GND*%
X156205000Y-54615000D03*
%TO.P,U5,8*%
%TO.N,Net-(U5-Pad8)*%
X163825000Y-54615000D03*
%TO.P,U5,9*%
%TO.N,A'*%
X163825000Y-52075000D03*
%TO.P,U5,10*%
%TO.N,Net-(U5-Pad10)*%
X163825000Y-49535000D03*
%TO.P,U5,11*%
%TO.N,Net-(U5-Pad11)*%
X163825000Y-46995000D03*
%TO.P,U5,12*%
%TO.N,Net-(U2-Pad3)*%
X163825000Y-44455000D03*
%TO.P,U5,13*%
%TO.N,B'*%
X163825000Y-41915000D03*
%TO.P,U5,14,VCC*%
%TO.N,+5V*%
X163825000Y-39375000D03*
%TD*%
D18*
%TO.N,A*%
X147315000Y-109230000D03*
%TO.N,B*%
X133345000Y-116850000D03*
%TO.N,C*%
X133345000Y-41920000D03*
X146045000Y-63510000D03*
X146045000Y-68590000D03*
X127000000Y-125740000D03*
X143505000Y-100340000D03*
X116835000Y-125740000D03*
%TO.N,D*%
X128265000Y-123200000D03*
X146045000Y-44460000D03*
%TO.N,B-segment*%
X156205000Y-57160000D03*
%TO.N,D-segment*%
X144775000Y-67320000D03*
%TO.N,G-segment*%
X125725000Y-123200000D03*
%TO.N,A'*%
X111755000Y-78750000D03*
X140145000Y-110050000D03*
X160015000Y-44460000D03*
X130805000Y-77480000D03*
X144775000Y-77754500D03*
%TO.N,C'*%
X152395000Y-48270000D03*
X119375000Y-93990000D03*
%TO.N,GND*%
X148585000Y-76210000D03*
%TO.N,D'*%
X124455000Y-54620000D03*
X160015000Y-85100000D03*
X139695000Y-83830000D03*
%TO.N,+5V*%
X152395000Y-118120000D03*
X154935000Y-78750000D03*
X119375000Y-118120000D03*
%TO.N,Net-(U2-Pad4)*%
X160015000Y-81290000D03*
X160015000Y-92720000D03*
%TO.N,Net-(U10-Pad3)*%
X127451995Y-66183067D03*
%TO.N,Net-(U10-Pad11)*%
X132075000Y-67320000D03*
X132075000Y-60970000D03*
%TO.N,Net-(U11-Pad6)*%
X123730500Y-101610000D03*
%TO.N,Net-(U1-Pad3)*%
X151125000Y-78750000D03*
%TO.N,Net-(U1-Pad5)*%
X163830000Y-78740000D03*
X158750000Y-67310000D03*
X158750000Y-74930000D03*
%TO.N,Net-(U1-Pad6)*%
X151125000Y-92720000D03*
X161285000Y-87640000D03*
%TO.N,Net-(U1-Pad8)*%
X158745000Y-88910000D03*
%TO.N,Net-(U5-Pad6)*%
X158745000Y-64780000D03*
%TO.N,Net-(U5-Pad8)*%
X166365000Y-69860000D03*
%TO.N,Net-(U5-Pad11)*%
X166370000Y-59690000D03*
%TO.N,Net-(U6-Pad2)*%
X116835000Y-99070000D03*
%TO.N,Net-(U6-Pad3)*%
X153665000Y-102880000D03*
%TO.N,Net-(U6-Pad6)*%
X160020000Y-109220000D03*
%TO.N,Net-(U6-Pad11)*%
X137155000Y-78750000D03*
X125725000Y-78750000D03*
%TO.N,Net-(U13-Pad13)*%
X160015000Y-116850000D03*
%TO.N,Net-(U14-Pad6)*%
X147315000Y-123200000D03*
X132075000Y-123200000D03*
%TO.N,Net-(U14-Pad8)*%
X138425000Y-110500000D03*
%TO.N,Net-(U14-Pad12)*%
X133345000Y-120660000D03*
%TO.N,Net-(U14-Pad13)*%
X157475000Y-78750000D03*
%TD*%
D19*
%TO.N,C*%
X116835000Y-125740000D02*
X127000000Y-125740000D01*
%TO.N,A-segment*%
X161857792Y-127705000D02*
X153665000Y-127705000D01*
X168090000Y-121472792D02*
X161857792Y-127705000D01*
X168090000Y-66490000D02*
X168090000Y-121472792D01*
X165110000Y-63510000D02*
X168090000Y-66490000D01*
X144775000Y-63510000D02*
X146045000Y-62240000D01*
X147315000Y-62240000D02*
X148585000Y-63510000D01*
X132075000Y-63510000D02*
X144775000Y-63510000D01*
X146045000Y-62240000D02*
X147315000Y-62240000D01*
X130810000Y-64775000D02*
X132075000Y-63510000D01*
X148585000Y-63510000D02*
X165110000Y-63510000D01*
X128275000Y-64775000D02*
X130810000Y-64775000D01*
%TO.N,D-segment*%
X148020000Y-125730000D02*
X146045000Y-127705000D01*
X163196396Y-125730000D02*
X148020000Y-125730000D01*
X166805000Y-79066701D02*
X166805000Y-122121396D01*
X167640000Y-69860000D02*
X167640000Y-78231701D01*
X148585000Y-68590000D02*
X166370000Y-68590000D01*
X166805000Y-122121396D02*
X163196396Y-125730000D01*
X147315000Y-67320000D02*
X148585000Y-68590000D01*
X166370000Y-68590000D02*
X167640000Y-69860000D01*
X167640000Y-78231701D02*
X166805000Y-79066701D01*
X144775000Y-67320000D02*
X147315000Y-67320000D01*
%TO.N,E-segment*%
X146750000Y-124460000D02*
X143505000Y-127705000D01*
X163830000Y-124460000D02*
X146750000Y-124460000D01*
X165100000Y-99060000D02*
X165100000Y-123190000D01*
X152395000Y-73670000D02*
X154935000Y-76210000D01*
X147315000Y-73670000D02*
X152395000Y-73670000D01*
X146040000Y-72395000D02*
X147315000Y-73670000D01*
X165095000Y-76210000D02*
X166355000Y-77470000D01*
X166355000Y-97805000D02*
X165100000Y-99060000D01*
X142245000Y-72395000D02*
X146040000Y-72395000D01*
X154935000Y-76210000D02*
X165095000Y-76210000D01*
X166355000Y-77470000D02*
X166355000Y-97805000D01*
X165100000Y-123190000D02*
X163830000Y-124460000D01*
%TO.N,B*%
X132770000Y-127705000D02*
X133345000Y-127705000D01*
X130805000Y-119390000D02*
X130805000Y-125740000D01*
X130805000Y-125740000D02*
X132770000Y-127705000D01*
X133345000Y-116850000D02*
X130805000Y-119390000D01*
%TO.N,D*%
X128265000Y-123200000D02*
X128265000Y-127705000D01*
%TO.N,GND*%
X115565000Y-127010000D02*
X115565000Y-123200000D01*
X116825000Y-128270000D02*
X115565000Y-127010000D01*
X122620000Y-128270000D02*
X116825000Y-128270000D01*
X115565000Y-123200000D02*
X118105000Y-120660000D01*
X123185000Y-127705000D02*
X122620000Y-128270000D01*
%TO.N,A*%
X121925000Y-107955000D02*
X123180000Y-107955000D01*
X128275000Y-110495000D02*
X130810000Y-110495000D01*
X162570000Y-82560000D02*
X163835000Y-83825000D01*
X142245000Y-81285000D02*
X148274009Y-81285000D01*
X123180000Y-107955000D02*
X125725000Y-110500000D01*
X149549009Y-82560000D02*
X162570000Y-82560000D01*
X125725000Y-110500000D02*
X125730000Y-110495000D01*
X148274009Y-81285000D02*
X149549009Y-82560000D01*
X125730000Y-110495000D02*
X128275000Y-110495000D01*
X132075000Y-109230000D02*
X147315000Y-109230000D01*
X130810000Y-110495000D02*
X132075000Y-109230000D01*
%TO.N,B*%
X138425000Y-45730000D02*
X139700000Y-44455000D01*
X163835000Y-115575000D02*
X162560000Y-115575000D01*
X124450000Y-44455000D02*
X125725000Y-45730000D01*
X161290000Y-72395000D02*
X163835000Y-72395000D01*
X133345000Y-116850000D02*
X123200000Y-116850000D01*
X136849009Y-120660000D02*
X133345000Y-117155991D01*
X152390000Y-72395000D02*
X153665000Y-73670000D01*
X149865000Y-72395000D02*
X152390000Y-72395000D01*
X125725000Y-45730000D02*
X138425000Y-45730000D01*
X133345000Y-117155991D02*
X133345000Y-116850000D01*
X157475000Y-120660000D02*
X136849009Y-120660000D01*
X121925000Y-44455000D02*
X124450000Y-44455000D01*
X160015000Y-73670000D02*
X161290000Y-72395000D01*
X162560000Y-115575000D02*
X157475000Y-120660000D01*
X153665000Y-73670000D02*
X160015000Y-73670000D01*
X139700000Y-44455000D02*
X142245000Y-44455000D01*
X123200000Y-116850000D02*
X121925000Y-115575000D01*
%TO.N,C*%
X147310000Y-64775000D02*
X149865000Y-64775000D01*
X121925000Y-41915000D02*
X123190000Y-40650000D01*
X123190000Y-40650000D02*
X132075000Y-40650000D01*
X116840000Y-100340000D02*
X114305000Y-102875000D01*
X147310000Y-69855000D02*
X149865000Y-69855000D01*
X146045000Y-68590000D02*
X147310000Y-69855000D01*
X143505000Y-100340000D02*
X116840000Y-100340000D01*
X146045000Y-63510000D02*
X147310000Y-64775000D01*
X132075000Y-40650000D02*
X133345000Y-41920000D01*
%TO.N,D*%
X157475000Y-88910000D02*
X157475000Y-90180000D01*
X114305000Y-41915000D02*
X116830000Y-41915000D01*
X149865000Y-52075000D02*
X153665000Y-52075000D01*
X138425000Y-43190000D02*
X144775000Y-43190000D01*
X148590000Y-91445000D02*
X147315000Y-92720000D01*
X132075000Y-92720000D02*
X130800000Y-91445000D01*
X151130000Y-90180000D02*
X149865000Y-91445000D01*
X135895000Y-41915000D02*
X137150000Y-41915000D01*
X144775000Y-43190000D02*
X146045000Y-44460000D01*
X147315000Y-92720000D02*
X132075000Y-92720000D01*
X137150000Y-41915000D02*
X138425000Y-43190000D01*
X153665000Y-52075000D02*
X156205000Y-49535000D01*
X160020000Y-86365000D02*
X157475000Y-88910000D01*
X116830000Y-41915000D02*
X118105000Y-43190000D01*
X157475000Y-90180000D02*
X151130000Y-90180000D01*
X163835000Y-86365000D02*
X160020000Y-86365000D01*
X134620000Y-43190000D02*
X135895000Y-41915000D01*
X118105000Y-43190000D02*
X134620000Y-43190000D01*
X130800000Y-91445000D02*
X128275000Y-91445000D01*
X149865000Y-91445000D02*
X148590000Y-91445000D01*
%TO.N,A'*%
X134304009Y-39375000D02*
X135579009Y-40650000D01*
X128275000Y-39375000D02*
X134304009Y-39375000D01*
X142245000Y-41915000D02*
X148274009Y-41915000D01*
X158745000Y-43190000D02*
X160015000Y-44460000D01*
X113025000Y-77480000D02*
X111755000Y-78750000D01*
X144775000Y-77754500D02*
X144500500Y-77480000D01*
X149549009Y-43190000D02*
X158745000Y-43190000D01*
X130805000Y-77480000D02*
X113025000Y-77480000D01*
X135579009Y-40650000D02*
X138425000Y-40650000D01*
X138425000Y-40650000D02*
X139690000Y-41915000D01*
X144500500Y-77480000D02*
X130805000Y-77480000D01*
X139690000Y-41915000D02*
X142245000Y-41915000D01*
X148274009Y-41915000D02*
X149549009Y-43190000D01*
%TO.N,B'*%
X124460000Y-52075000D02*
X125725000Y-50810000D01*
X120800000Y-50950000D02*
X121925000Y-52075000D01*
X160015000Y-45730000D02*
X160015000Y-45725000D01*
X160015000Y-45725000D02*
X163825000Y-41915000D01*
X146040000Y-83825000D02*
X142245000Y-83825000D01*
X138430000Y-50810000D02*
X142245000Y-46995000D01*
X143510000Y-45730000D02*
X160015000Y-45730000D01*
X142245000Y-46995000D02*
X143510000Y-45730000D01*
X121925000Y-52075000D02*
X124460000Y-52075000D01*
X114305000Y-46995000D02*
X113030000Y-46995000D01*
X111755000Y-48270000D02*
X111755000Y-49540000D01*
X125725000Y-50810000D02*
X138430000Y-50810000D01*
X111755000Y-49540000D02*
X113165000Y-50950000D01*
X148580000Y-86365000D02*
X146040000Y-83825000D01*
X113030000Y-46995000D02*
X111755000Y-48270000D01*
X149865000Y-86365000D02*
X148580000Y-86365000D01*
X113165000Y-50950000D02*
X120800000Y-50950000D01*
%TO.N,C'*%
X146045000Y-95260000D02*
X147320000Y-93985000D01*
X140970000Y-113035000D02*
X142245000Y-113035000D01*
X147320000Y-93985000D02*
X149865000Y-93985000D01*
X139695000Y-114310000D02*
X140970000Y-113035000D01*
X142245000Y-113035000D02*
X144770000Y-113035000D01*
X118105000Y-49540000D02*
X119375000Y-48270000D01*
X124450000Y-113035000D02*
X125725000Y-114310000D01*
X118100000Y-49535000D02*
X118105000Y-49540000D01*
X144770000Y-113035000D02*
X146045000Y-114310000D01*
X161285000Y-114310000D02*
X162560000Y-113035000D01*
X162560000Y-113035000D02*
X163835000Y-113035000D01*
X132075000Y-48270000D02*
X133340000Y-49535000D01*
X125725000Y-114310000D02*
X139695000Y-114310000D01*
X142245000Y-52075000D02*
X144780000Y-52075000D01*
X148585000Y-48270000D02*
X152395000Y-48270000D01*
X121925000Y-113035000D02*
X124450000Y-113035000D01*
X119375000Y-48270000D02*
X132075000Y-48270000D01*
X133340000Y-49535000D02*
X135895000Y-49535000D01*
X119375000Y-93990000D02*
X120645000Y-95260000D01*
X120645000Y-95260000D02*
X146045000Y-95260000D01*
X144780000Y-52075000D02*
X148585000Y-48270000D01*
X114305000Y-49535000D02*
X118100000Y-49535000D01*
X146045000Y-114310000D02*
X161285000Y-114310000D01*
%TO.N,GND*%
X116835000Y-120660000D02*
X116835000Y-120645000D01*
X128275000Y-118115000D02*
X127000000Y-118115000D01*
X139695000Y-55890000D02*
X140970000Y-54615000D01*
X128275000Y-96525000D02*
X130800000Y-96525000D01*
X140970000Y-54615000D02*
X142245000Y-54615000D01*
X154950000Y-95260000D02*
X156215000Y-96525000D01*
X130800000Y-96525000D02*
X132075000Y-97800000D01*
X127000000Y-118115000D02*
X124455000Y-120660000D01*
X118105000Y-120660000D02*
X116835000Y-120660000D01*
X147310000Y-74935000D02*
X142245000Y-74935000D01*
X147315000Y-53350000D02*
X154940000Y-53350000D01*
X156215000Y-118115000D02*
X154940000Y-119390000D01*
X130805000Y-55890000D02*
X139695000Y-55890000D01*
X115570000Y-73670000D02*
X114305000Y-74935000D01*
X129530000Y-54615000D02*
X130805000Y-55890000D01*
X114305000Y-96525000D02*
X118100000Y-96525000D01*
X116835000Y-120645000D02*
X114305000Y-118115000D01*
X114305000Y-54615000D02*
X119380000Y-54615000D01*
X137788604Y-97800000D02*
X139063604Y-96525000D01*
X128275000Y-54615000D02*
X129530000Y-54615000D01*
X119375000Y-97800000D02*
X127000000Y-97800000D01*
X119380000Y-54615000D02*
X120645000Y-53350000D01*
X118100000Y-96525000D02*
X119375000Y-97800000D01*
X142245000Y-96525000D02*
X146050000Y-96525000D01*
X127000000Y-97800000D02*
X128275000Y-96525000D01*
X129540000Y-73670000D02*
X128275000Y-74935000D01*
X154940000Y-119390000D02*
X143505000Y-119390000D01*
X143505000Y-119390000D02*
X143505000Y-119375000D01*
X154940000Y-53350000D02*
X156205000Y-54615000D01*
X140960000Y-74935000D02*
X139695000Y-73670000D01*
X127010000Y-53350000D02*
X128275000Y-54615000D01*
X128275000Y-74935000D02*
X125720000Y-74935000D01*
X146045000Y-54620000D02*
X147315000Y-53350000D01*
X143505000Y-119375000D02*
X142245000Y-118115000D01*
X146040000Y-54615000D02*
X146045000Y-54620000D01*
X124455000Y-120660000D02*
X118105000Y-120660000D01*
X132075000Y-97800000D02*
X137788604Y-97800000D01*
X142245000Y-54615000D02*
X146040000Y-54615000D01*
X124455000Y-73670000D02*
X115570000Y-73670000D01*
X146050000Y-96525000D02*
X147315000Y-95260000D01*
X120645000Y-53350000D02*
X127010000Y-53350000D01*
X125720000Y-74935000D02*
X124455000Y-73670000D01*
X139063604Y-96525000D02*
X142245000Y-96525000D01*
X142245000Y-74935000D02*
X140960000Y-74935000D01*
X139695000Y-73670000D02*
X129540000Y-73670000D01*
X147315000Y-95260000D02*
X154950000Y-95260000D01*
X148585000Y-76210000D02*
X147310000Y-74935000D01*
%TO.N,D'*%
X126995000Y-57160000D02*
X124455000Y-54620000D01*
X151140000Y-85100000D02*
X160015000Y-85100000D01*
X149865000Y-54615000D02*
X149865000Y-55880000D01*
X140825000Y-82700000D02*
X139695000Y-83830000D01*
X148740000Y-82700000D02*
X140825000Y-82700000D01*
X149865000Y-83825000D02*
X148740000Y-82700000D01*
X149865000Y-83825000D02*
X151140000Y-85100000D01*
X135895000Y-105415000D02*
X128275000Y-105415000D01*
X148585000Y-57160000D02*
X126995000Y-57160000D01*
X149865000Y-55880000D02*
X148585000Y-57160000D01*
%TO.N,+5V*%
X138425000Y-36845000D02*
X138425000Y-36840000D01*
X152395000Y-100340000D02*
X161300000Y-100340000D01*
X133360000Y-36840000D02*
X135895000Y-39375000D01*
X147330000Y-36840000D02*
X149865000Y-39375000D01*
X148580000Y-59695000D02*
X147315000Y-58430000D01*
X138425000Y-36840000D02*
X147330000Y-36840000D01*
X161300000Y-100340000D02*
X163835000Y-102875000D01*
X137160000Y-58430000D02*
X135895000Y-59695000D01*
X121925000Y-39375000D02*
X124455000Y-36845000D01*
X124455000Y-36840000D02*
X133360000Y-36840000D01*
X121925000Y-81285000D02*
X124460000Y-81285000D01*
X152395000Y-36845000D02*
X152395000Y-36840000D01*
X124460000Y-81285000D02*
X125725000Y-80020000D01*
X149865000Y-39375000D02*
X152395000Y-36845000D01*
X124455000Y-36845000D02*
X124455000Y-36840000D01*
X123050000Y-58570000D02*
X121925000Y-59695000D01*
X152395000Y-100345000D02*
X152395000Y-100340000D01*
X134770000Y-58570000D02*
X123050000Y-58570000D01*
X135895000Y-59695000D02*
X134770000Y-58570000D01*
X135895000Y-39375000D02*
X138425000Y-36845000D01*
X149865000Y-59695000D02*
X148580000Y-59695000D01*
X134630000Y-80020000D02*
X135895000Y-81285000D01*
X152395000Y-36840000D02*
X161290000Y-36840000D01*
X125725000Y-80020000D02*
X134630000Y-80020000D01*
X161290000Y-36840000D02*
X163825000Y-39375000D01*
X149865000Y-102875000D02*
X152395000Y-100345000D01*
X147315000Y-58430000D02*
X137160000Y-58430000D01*
%TO.N,Net-(U4-Pad8)*%
X152395000Y-50805000D02*
X156205000Y-46995000D01*
X135895000Y-54615000D02*
X138430000Y-54615000D01*
X146045000Y-53350000D02*
X148585000Y-50810000D01*
X139695000Y-53350000D02*
X146045000Y-53350000D01*
X138430000Y-54615000D02*
X139695000Y-53350000D01*
X148585000Y-50810000D02*
X152395000Y-50810000D01*
X152395000Y-50810000D02*
X152395000Y-50805000D01*
%TO.N,Net-(U10-Pad3)*%
X119375000Y-66050000D02*
X118100000Y-64775000D01*
X127451995Y-66183067D02*
X127318928Y-66050000D01*
X127318928Y-66050000D02*
X119375000Y-66050000D01*
X118100000Y-64775000D02*
X114305000Y-64775000D01*
%TO.N,Net-(U10-Pad11)*%
X121925000Y-67315000D02*
X123180000Y-67315000D01*
X130800000Y-59695000D02*
X128275000Y-59695000D01*
X123180000Y-67315000D02*
X124455000Y-68590000D01*
X130805000Y-68590000D02*
X132075000Y-67320000D01*
X132075000Y-60970000D02*
X130800000Y-59695000D01*
X124455000Y-68590000D02*
X130805000Y-68590000D01*
%TO.N,Net-(U11-Pad6)*%
X139690000Y-102875000D02*
X142245000Y-102875000D01*
X123730500Y-101610000D02*
X138425000Y-101610000D01*
X138425000Y-101610000D02*
X139690000Y-102875000D01*
%TO.N,Net-(U14-Pad1)*%
X135895000Y-88905000D02*
X128275000Y-81285000D01*
%TO.N,Net-(U1-Pad3)*%
X153660000Y-81285000D02*
X156215000Y-81285000D01*
X151125000Y-78750000D02*
X153660000Y-81285000D01*
%TO.N,Net-(U1-Pad5)*%
X153043604Y-87630000D02*
X153670000Y-87630000D01*
X160206396Y-85915000D02*
X161735000Y-85915000D01*
X165905000Y-80815000D02*
X163830000Y-78740000D01*
X142245000Y-91445000D02*
X146045000Y-91445000D01*
X165905000Y-81280000D02*
X165905000Y-80815000D01*
X165905000Y-84285000D02*
X165905000Y-81280000D01*
X147320000Y-90170000D02*
X150503604Y-90170000D01*
X157480000Y-87630000D02*
X158750000Y-86360000D01*
X158750000Y-86360000D02*
X159195000Y-85915000D01*
X159195000Y-85915000D02*
X160206396Y-85915000D01*
X162560000Y-85090000D02*
X165100000Y-85090000D01*
X146045000Y-91445000D02*
X147320000Y-90170000D01*
X150503604Y-90170000D02*
X153043604Y-87630000D01*
X161735000Y-85915000D02*
X162560000Y-85090000D01*
X153670000Y-87630000D02*
X157480000Y-87630000D01*
X165100000Y-85090000D02*
X165905000Y-84285000D01*
%TO.N,Net-(U1-Pad6)*%
X151125000Y-92720000D02*
X156530991Y-92720000D01*
X161285000Y-87965991D02*
X161285000Y-87640000D01*
X156530991Y-92720000D02*
X161285000Y-87965991D01*
%TO.N,Net-(U5-Pad6)*%
X132075000Y-66050000D02*
X157475000Y-66050000D01*
X128275000Y-67315000D02*
X130810000Y-67315000D01*
X130810000Y-67315000D02*
X132075000Y-66050000D01*
X157475000Y-66050000D02*
X158745000Y-64780000D01*
%TO.N,Net-(U5-Pad8)*%
X129535000Y-71115000D02*
X128275000Y-69855000D01*
X165095000Y-71130000D02*
X129535000Y-71130000D01*
X166365000Y-69860000D02*
X165095000Y-71130000D01*
X129535000Y-71130000D02*
X129535000Y-71115000D01*
%TO.N,Net-(U5-Pad11)*%
X137160000Y-62235000D02*
X135895000Y-62235000D01*
X165090000Y-60970000D02*
X138425000Y-60970000D01*
X138425000Y-60970000D02*
X137160000Y-62235000D01*
X166370000Y-59690000D02*
X165090000Y-60970000D01*
%TO.N,Net-(U6-Pad2)*%
X116835000Y-99070000D02*
X137155000Y-99070000D01*
X138425000Y-97800000D02*
X160015000Y-97800000D01*
X161290000Y-96525000D02*
X163835000Y-96525000D01*
X160015000Y-97800000D02*
X161290000Y-96525000D01*
X137155000Y-99070000D02*
X138425000Y-97800000D01*
%TO.N,Net-(U6-Pad3)*%
X152395000Y-104150000D02*
X118110000Y-104150000D01*
X118110000Y-104150000D02*
X114305000Y-107955000D01*
X153665000Y-102880000D02*
X152395000Y-104150000D01*
%TO.N,Net-(U6-Pad6)*%
X160020000Y-109220000D02*
X157470000Y-111770000D01*
X118110000Y-111770000D02*
X114305000Y-115575000D01*
X157470000Y-111770000D02*
X118110000Y-111770000D01*
%TO.N,Net-(U6-Pad11)*%
X125725000Y-78750000D02*
X137155000Y-78750000D01*
%TO.N,Net-(U13-Pad12)*%
X163835000Y-107955000D02*
X161280000Y-107955000D01*
X143510000Y-106690000D02*
X142245000Y-107955000D01*
X160015000Y-106690000D02*
X143510000Y-106690000D01*
X161280000Y-107955000D02*
X160015000Y-106690000D01*
%TO.N,Net-(U13-Pad13)*%
X144770000Y-115575000D02*
X146045000Y-116850000D01*
X146045000Y-116850000D02*
X160015000Y-116850000D01*
X142245000Y-115575000D02*
X144770000Y-115575000D01*
%TO.N,Net-(U14-Pad2)*%
X125730000Y-83825000D02*
X124455000Y-85100000D01*
X128275000Y-83825000D02*
X125730000Y-83825000D01*
X124455000Y-85100000D02*
X115570000Y-85100000D01*
X115570000Y-85100000D02*
X114305000Y-86365000D01*
%TO.N,Net-(U14-Pad6)*%
X147315000Y-123200000D02*
X132075000Y-123200000D01*
%TO.N,Net-(U14-Pad13)*%
X140965000Y-78750000D02*
X140965000Y-78755000D01*
X149855000Y-77480000D02*
X148585000Y-78750000D01*
X156205000Y-77480000D02*
X149855000Y-77480000D01*
X157475000Y-78750000D02*
X156205000Y-77480000D01*
X148585000Y-78750000D02*
X140965000Y-78750000D01*
X140965000Y-78755000D02*
X135895000Y-83825000D01*
%TD*%
M02*
