%TF.GenerationSoftware,KiCad,Pcbnew,(6.0.9)*%
%TF.CreationDate,2025-06-18T12:23:39-04:00*%
%TF.ProjectId,Seven Segment Display,53657665-6e20-4536-9567-6d656e742044,2*%
%TF.SameCoordinates,Original*%
%TF.FileFunction,Legend,Top*%
%TF.FilePolarity,Positive*%
%FSLAX46Y46*%
G04 Gerber Fmt 4.6, Leading zero omitted, Abs format (unit mm)*
G04 Created by KiCad (PCBNEW (6.0.9)) date 2025-06-18 12:23:39*
%MOMM*%
%LPD*%
G01*
G04 APERTURE LIST*
%ADD10C,0.187500*%
%ADD11C,0.300000*%
%ADD12C,0.150000*%
%ADD13C,0.120000*%
%ADD14R,1.800000X1.800000*%
%ADD15C,1.800000*%
%ADD16O,1.700000X1.700000*%
%ADD17R,1.700000X1.700000*%
%ADD18R,1.600000X1.600000*%
%ADD19O,1.600000X1.600000*%
%ADD20C,1.400000*%
%ADD21O,1.400000X1.400000*%
G04 APERTURE END LIST*
D10*
X132791428Y-126069285D02*
X132791428Y-125319285D01*
X132970000Y-125319285D01*
X133077142Y-125355000D01*
X133148571Y-125426428D01*
X133184285Y-125497857D01*
X133220000Y-125640714D01*
X133220000Y-125747857D01*
X133184285Y-125890714D01*
X133148571Y-125962142D01*
X133077142Y-126033571D01*
X132970000Y-126069285D01*
X132791428Y-126069285D01*
X133505714Y-125390714D02*
X133541428Y-125355000D01*
X133612857Y-125319285D01*
X133791428Y-125319285D01*
X133862857Y-125355000D01*
X133898571Y-125390714D01*
X133934285Y-125462142D01*
X133934285Y-125533571D01*
X133898571Y-125640714D01*
X133470000Y-126069285D01*
X133934285Y-126069285D01*
D11*
X145152142Y-56338571D02*
X145437857Y-56338571D01*
X145580714Y-56410000D01*
X145723571Y-56552857D01*
X145795000Y-56838571D01*
X145795000Y-57338571D01*
X145723571Y-57624285D01*
X145580714Y-57767142D01*
X145437857Y-57838571D01*
X145152142Y-57838571D01*
X145009285Y-57767142D01*
X144866428Y-57624285D01*
X144795000Y-57338571D01*
X144795000Y-56838571D01*
X144866428Y-56552857D01*
X145009285Y-56410000D01*
X145152142Y-56338571D01*
X147295000Y-57838571D02*
X146795000Y-57124285D01*
X146437857Y-57838571D02*
X146437857Y-56338571D01*
X147009285Y-56338571D01*
X147152142Y-56410000D01*
X147223571Y-56481428D01*
X147295000Y-56624285D01*
X147295000Y-56838571D01*
X147223571Y-56981428D01*
X147152142Y-57052857D01*
X147009285Y-57124285D01*
X146437857Y-57124285D01*
D10*
X135336428Y-126069285D02*
X135336428Y-125319285D01*
X135515000Y-125319285D01*
X135622142Y-125355000D01*
X135693571Y-125426428D01*
X135729285Y-125497857D01*
X135765000Y-125640714D01*
X135765000Y-125747857D01*
X135729285Y-125890714D01*
X135693571Y-125962142D01*
X135622142Y-126033571D01*
X135515000Y-126069285D01*
X135336428Y-126069285D01*
X136015000Y-125319285D02*
X136479285Y-125319285D01*
X136229285Y-125605000D01*
X136336428Y-125605000D01*
X136407857Y-125640714D01*
X136443571Y-125676428D01*
X136479285Y-125747857D01*
X136479285Y-125926428D01*
X136443571Y-125997857D01*
X136407857Y-126033571D01*
X136336428Y-126069285D01*
X136122142Y-126069285D01*
X136050714Y-126033571D01*
X136015000Y-125997857D01*
D11*
X159122142Y-56338571D02*
X159407857Y-56338571D01*
X159550714Y-56410000D01*
X159693571Y-56552857D01*
X159765000Y-56838571D01*
X159765000Y-57338571D01*
X159693571Y-57624285D01*
X159550714Y-57767142D01*
X159407857Y-57838571D01*
X159122142Y-57838571D01*
X158979285Y-57767142D01*
X158836428Y-57624285D01*
X158765000Y-57338571D01*
X158765000Y-56838571D01*
X158836428Y-56552857D01*
X158979285Y-56410000D01*
X159122142Y-56338571D01*
X161265000Y-57838571D02*
X160765000Y-57124285D01*
X160407857Y-57838571D02*
X160407857Y-56338571D01*
X160979285Y-56338571D01*
X161122142Y-56410000D01*
X161193571Y-56481428D01*
X161265000Y-56624285D01*
X161265000Y-56838571D01*
X161193571Y-56981428D01*
X161122142Y-57052857D01*
X160979285Y-57124285D01*
X160407857Y-57124285D01*
X130182142Y-37090000D02*
X130896428Y-37090000D01*
X130039285Y-37518571D02*
X130539285Y-36018571D01*
X131039285Y-37518571D01*
X131539285Y-37518571D02*
X131539285Y-36018571D01*
X132396428Y-37518571D01*
X132396428Y-36018571D01*
X133110714Y-37518571D02*
X133110714Y-36018571D01*
X133467857Y-36018571D01*
X133682142Y-36090000D01*
X133825000Y-36232857D01*
X133896428Y-36375714D01*
X133967857Y-36661428D01*
X133967857Y-36875714D01*
X133896428Y-37161428D01*
X133825000Y-37304285D01*
X133682142Y-37447142D01*
X133467857Y-37518571D01*
X133110714Y-37518571D01*
X158122142Y-37090000D02*
X158836428Y-37090000D01*
X157979285Y-37518571D02*
X158479285Y-36018571D01*
X158979285Y-37518571D01*
X159479285Y-37518571D02*
X159479285Y-36018571D01*
X160336428Y-37518571D01*
X160336428Y-36018571D01*
X161050714Y-37518571D02*
X161050714Y-36018571D01*
X161407857Y-36018571D01*
X161622142Y-36090000D01*
X161765000Y-36232857D01*
X161836428Y-36375714D01*
X161907857Y-36661428D01*
X161907857Y-36875714D01*
X161836428Y-37161428D01*
X161765000Y-37304285D01*
X161622142Y-37447142D01*
X161407857Y-37518571D01*
X161050714Y-37518571D01*
X131182142Y-56338571D02*
X131467857Y-56338571D01*
X131610714Y-56410000D01*
X131753571Y-56552857D01*
X131825000Y-56838571D01*
X131825000Y-57338571D01*
X131753571Y-57624285D01*
X131610714Y-57767142D01*
X131467857Y-57838571D01*
X131182142Y-57838571D01*
X131039285Y-57767142D01*
X130896428Y-57624285D01*
X130825000Y-57338571D01*
X130825000Y-56838571D01*
X130896428Y-56552857D01*
X131039285Y-56410000D01*
X131182142Y-56338571D01*
X133325000Y-57838571D02*
X132825000Y-57124285D01*
X132467857Y-57838571D02*
X132467857Y-56338571D01*
X133039285Y-56338571D01*
X133182142Y-56410000D01*
X133253571Y-56481428D01*
X133325000Y-56624285D01*
X133325000Y-56838571D01*
X133253571Y-56981428D01*
X133182142Y-57052857D01*
X133039285Y-57124285D01*
X132467857Y-57124285D01*
X144259285Y-37518571D02*
X144259285Y-36018571D01*
X145116428Y-37518571D01*
X145116428Y-36018571D01*
X146116428Y-36018571D02*
X146402142Y-36018571D01*
X146545000Y-36090000D01*
X146687857Y-36232857D01*
X146759285Y-36518571D01*
X146759285Y-37018571D01*
X146687857Y-37304285D01*
X146545000Y-37447142D01*
X146402142Y-37518571D01*
X146116428Y-37518571D01*
X145973571Y-37447142D01*
X145830714Y-37304285D01*
X145759285Y-37018571D01*
X145759285Y-36518571D01*
X145830714Y-36232857D01*
X145973571Y-36090000D01*
X146116428Y-36018571D01*
X147187857Y-36018571D02*
X148045000Y-36018571D01*
X147616428Y-37518571D02*
X147616428Y-36018571D01*
X116212142Y-79000000D02*
X116926428Y-79000000D01*
X116069285Y-79428571D02*
X116569285Y-77928571D01*
X117069285Y-79428571D01*
X117569285Y-79428571D02*
X117569285Y-77928571D01*
X118426428Y-79428571D01*
X118426428Y-77928571D01*
X119140714Y-79428571D02*
X119140714Y-77928571D01*
X119497857Y-77928571D01*
X119712142Y-78000000D01*
X119855000Y-78142857D01*
X119926428Y-78285714D01*
X119997857Y-78571428D01*
X119997857Y-78785714D01*
X119926428Y-79071428D01*
X119855000Y-79214285D01*
X119712142Y-79357142D01*
X119497857Y-79428571D01*
X119140714Y-79428571D01*
X116212142Y-100590000D02*
X116926428Y-100590000D01*
X116069285Y-101018571D02*
X116569285Y-99518571D01*
X117069285Y-101018571D01*
X117569285Y-101018571D02*
X117569285Y-99518571D01*
X118426428Y-101018571D01*
X118426428Y-99518571D01*
X119140714Y-101018571D02*
X119140714Y-99518571D01*
X119497857Y-99518571D01*
X119712142Y-99590000D01*
X119855000Y-99732857D01*
X119926428Y-99875714D01*
X119997857Y-100161428D01*
X119997857Y-100375714D01*
X119926428Y-100661428D01*
X119855000Y-100804285D01*
X119712142Y-100947142D01*
X119497857Y-101018571D01*
X119140714Y-101018571D01*
X118650000Y-32428571D02*
X118650000Y-30928571D01*
X119221428Y-30928571D01*
X119364285Y-31000000D01*
X119435714Y-31071428D01*
X119507142Y-31214285D01*
X119507142Y-31428571D01*
X119435714Y-31571428D01*
X119364285Y-31642857D01*
X119221428Y-31714285D01*
X118650000Y-31714285D01*
X120007142Y-30928571D02*
X120364285Y-32428571D01*
X120650000Y-31357142D01*
X120935714Y-32428571D01*
X121292857Y-30928571D01*
X122721428Y-32428571D02*
X122221428Y-31714285D01*
X121864285Y-32428571D02*
X121864285Y-30928571D01*
X122435714Y-30928571D01*
X122578571Y-31000000D01*
X122650000Y-31071428D01*
X122721428Y-31214285D01*
X122721428Y-31428571D01*
X122650000Y-31571428D01*
X122578571Y-31642857D01*
X122435714Y-31714285D01*
X121864285Y-31714285D01*
D12*
X113954047Y-124058571D02*
X114096904Y-124106190D01*
X114144523Y-124153809D01*
X114192142Y-124249047D01*
X114192142Y-124391904D01*
X114144523Y-124487142D01*
X114096904Y-124534761D01*
X114001666Y-124582380D01*
X113620714Y-124582380D01*
X113620714Y-123582380D01*
X113954047Y-123582380D01*
X114049285Y-123630000D01*
X114096904Y-123677619D01*
X114144523Y-123772857D01*
X114144523Y-123868095D01*
X114096904Y-123963333D01*
X114049285Y-124010952D01*
X113954047Y-124058571D01*
X113620714Y-124058571D01*
X114620714Y-124582380D02*
X114620714Y-123915714D01*
X114620714Y-123582380D02*
X114573095Y-123630000D01*
X114620714Y-123677619D01*
X114668333Y-123630000D01*
X114620714Y-123582380D01*
X114620714Y-123677619D01*
X115096904Y-123915714D02*
X115096904Y-124582380D01*
X115096904Y-124010952D02*
X115144523Y-123963333D01*
X115239761Y-123915714D01*
X115382619Y-123915714D01*
X115477857Y-123963333D01*
X115525476Y-124058571D01*
X115525476Y-124582380D01*
X116430238Y-124582380D02*
X116430238Y-124058571D01*
X116382619Y-123963333D01*
X116287380Y-123915714D01*
X116096904Y-123915714D01*
X116001666Y-123963333D01*
X116430238Y-124534761D02*
X116335000Y-124582380D01*
X116096904Y-124582380D01*
X116001666Y-124534761D01*
X115954047Y-124439523D01*
X115954047Y-124344285D01*
X116001666Y-124249047D01*
X116096904Y-124201428D01*
X116335000Y-124201428D01*
X116430238Y-124153809D01*
X116906428Y-124582380D02*
X116906428Y-123915714D01*
X116906428Y-124106190D02*
X116954047Y-124010952D01*
X117001666Y-123963333D01*
X117096904Y-123915714D01*
X117192142Y-123915714D01*
X117430238Y-123915714D02*
X117668333Y-124582380D01*
X117906428Y-123915714D02*
X117668333Y-124582380D01*
X117573095Y-124820476D01*
X117525476Y-124868095D01*
X117430238Y-124915714D01*
X118906428Y-123915714D02*
X119287380Y-123915714D01*
X119049285Y-123582380D02*
X119049285Y-124439523D01*
X119096904Y-124534761D01*
X119192142Y-124582380D01*
X119287380Y-124582380D01*
X119763571Y-124582380D02*
X119668333Y-124534761D01*
X119620714Y-124487142D01*
X119573095Y-124391904D01*
X119573095Y-124106190D01*
X119620714Y-124010952D01*
X119668333Y-123963333D01*
X119763571Y-123915714D01*
X119906428Y-123915714D01*
X120001666Y-123963333D01*
X120049285Y-124010952D01*
X120096904Y-124106190D01*
X120096904Y-124391904D01*
X120049285Y-124487142D01*
X120001666Y-124534761D01*
X119906428Y-124582380D01*
X119763571Y-124582380D01*
X113263571Y-125192380D02*
X113930238Y-125192380D01*
X113501666Y-126192380D01*
X114311190Y-125811428D02*
X115073095Y-125811428D01*
X115501666Y-126144761D02*
X115644523Y-126192380D01*
X115882619Y-126192380D01*
X115977857Y-126144761D01*
X116025476Y-126097142D01*
X116073095Y-126001904D01*
X116073095Y-125906666D01*
X116025476Y-125811428D01*
X115977857Y-125763809D01*
X115882619Y-125716190D01*
X115692142Y-125668571D01*
X115596904Y-125620952D01*
X115549285Y-125573333D01*
X115501666Y-125478095D01*
X115501666Y-125382857D01*
X115549285Y-125287619D01*
X115596904Y-125240000D01*
X115692142Y-125192380D01*
X115930238Y-125192380D01*
X116073095Y-125240000D01*
X116501666Y-126192380D02*
X116501666Y-125192380D01*
X116739761Y-125192380D01*
X116882619Y-125240000D01*
X116977857Y-125335238D01*
X117025476Y-125430476D01*
X117073095Y-125620952D01*
X117073095Y-125763809D01*
X117025476Y-125954285D01*
X116977857Y-126049523D01*
X116882619Y-126144761D01*
X116739761Y-126192380D01*
X116501666Y-126192380D01*
X118263571Y-126192380D02*
X118263571Y-125192380D01*
X118263571Y-125668571D02*
X118835000Y-125668571D01*
X118835000Y-126192380D02*
X118835000Y-125192380D01*
X119739761Y-126192380D02*
X119739761Y-125668571D01*
X119692142Y-125573333D01*
X119596904Y-125525714D01*
X119406428Y-125525714D01*
X119311190Y-125573333D01*
X119739761Y-126144761D02*
X119644523Y-126192380D01*
X119406428Y-126192380D01*
X119311190Y-126144761D01*
X119263571Y-126049523D01*
X119263571Y-125954285D01*
X119311190Y-125859047D01*
X119406428Y-125811428D01*
X119644523Y-125811428D01*
X119739761Y-125763809D01*
X120073095Y-125525714D02*
X120454047Y-125525714D01*
X120215952Y-125192380D02*
X120215952Y-126049523D01*
X120263571Y-126144761D01*
X120358809Y-126192380D01*
X120454047Y-126192380D01*
X116025476Y-126802380D02*
X116358809Y-127802380D01*
X116692142Y-126802380D01*
X116977857Y-126897619D02*
X117025476Y-126850000D01*
X117120714Y-126802380D01*
X117358809Y-126802380D01*
X117454047Y-126850000D01*
X117501666Y-126897619D01*
X117549285Y-126992857D01*
X117549285Y-127088095D01*
X117501666Y-127230952D01*
X116930238Y-127802380D01*
X117549285Y-127802380D01*
D10*
X141077142Y-125676428D02*
X140827142Y-125676428D01*
X140827142Y-126069285D02*
X140827142Y-125319285D01*
X141184285Y-125319285D01*
D11*
X144152142Y-100590000D02*
X144866428Y-100590000D01*
X144009285Y-101018571D02*
X144509285Y-99518571D01*
X145009285Y-101018571D01*
X145509285Y-101018571D02*
X145509285Y-99518571D01*
X146366428Y-101018571D01*
X146366428Y-99518571D01*
X147080714Y-101018571D02*
X147080714Y-99518571D01*
X147437857Y-99518571D01*
X147652142Y-99590000D01*
X147795000Y-99732857D01*
X147866428Y-99875714D01*
X147937857Y-100161428D01*
X147937857Y-100375714D01*
X147866428Y-100661428D01*
X147795000Y-100804285D01*
X147652142Y-100947142D01*
X147437857Y-101018571D01*
X147080714Y-101018571D01*
D10*
X124908571Y-126069285D02*
X124908571Y-125319285D01*
X125194285Y-125319285D01*
X125265714Y-125355000D01*
X125301428Y-125390714D01*
X125337142Y-125462142D01*
X125337142Y-125569285D01*
X125301428Y-125640714D01*
X125265714Y-125676428D01*
X125194285Y-125712142D01*
X124908571Y-125712142D01*
X125587142Y-125569285D02*
X125730000Y-126069285D01*
X125872857Y-125712142D01*
X126015714Y-126069285D01*
X126158571Y-125569285D01*
X126444285Y-126069285D02*
X126444285Y-125569285D01*
X126444285Y-125712142D02*
X126480000Y-125640714D01*
X126515714Y-125605000D01*
X126587142Y-125569285D01*
X126658571Y-125569285D01*
X148817142Y-125997857D02*
X148781428Y-126033571D01*
X148674285Y-126069285D01*
X148602857Y-126069285D01*
X148495714Y-126033571D01*
X148424285Y-125962142D01*
X148388571Y-125890714D01*
X148352857Y-125747857D01*
X148352857Y-125640714D01*
X148388571Y-125497857D01*
X148424285Y-125426428D01*
X148495714Y-125355000D01*
X148602857Y-125319285D01*
X148674285Y-125319285D01*
X148781428Y-125355000D01*
X148817142Y-125390714D01*
D11*
X117212142Y-56338571D02*
X117497857Y-56338571D01*
X117640714Y-56410000D01*
X117783571Y-56552857D01*
X117855000Y-56838571D01*
X117855000Y-57338571D01*
X117783571Y-57624285D01*
X117640714Y-57767142D01*
X117497857Y-57838571D01*
X117212142Y-57838571D01*
X117069285Y-57767142D01*
X116926428Y-57624285D01*
X116855000Y-57338571D01*
X116855000Y-56838571D01*
X116926428Y-56552857D01*
X117069285Y-56410000D01*
X117212142Y-56338571D01*
X119355000Y-57838571D02*
X118855000Y-57124285D01*
X118497857Y-57838571D02*
X118497857Y-56338571D01*
X119069285Y-56338571D01*
X119212142Y-56410000D01*
X119283571Y-56481428D01*
X119355000Y-56624285D01*
X119355000Y-56838571D01*
X119283571Y-56981428D01*
X119212142Y-57052857D01*
X119069285Y-57124285D01*
X118497857Y-57124285D01*
X130182142Y-100590000D02*
X130896428Y-100590000D01*
X130039285Y-101018571D02*
X130539285Y-99518571D01*
X131039285Y-101018571D01*
X131539285Y-101018571D02*
X131539285Y-99518571D01*
X132396428Y-101018571D01*
X132396428Y-99518571D01*
X133110714Y-101018571D02*
X133110714Y-99518571D01*
X133467857Y-99518571D01*
X133682142Y-99590000D01*
X133825000Y-99732857D01*
X133896428Y-99875714D01*
X133967857Y-100161428D01*
X133967857Y-100375714D01*
X133896428Y-100661428D01*
X133825000Y-100804285D01*
X133682142Y-100947142D01*
X133467857Y-101018571D01*
X133110714Y-101018571D01*
D10*
X130256428Y-126069285D02*
X130256428Y-125319285D01*
X130435000Y-125319285D01*
X130542142Y-125355000D01*
X130613571Y-125426428D01*
X130649285Y-125497857D01*
X130685000Y-125640714D01*
X130685000Y-125747857D01*
X130649285Y-125890714D01*
X130613571Y-125962142D01*
X130542142Y-126033571D01*
X130435000Y-126069285D01*
X130256428Y-126069285D01*
X131399285Y-126069285D02*
X130970714Y-126069285D01*
X131185000Y-126069285D02*
X131185000Y-125319285D01*
X131113571Y-125426428D01*
X131042142Y-125497857D01*
X130970714Y-125533571D01*
D11*
X116212142Y-37090000D02*
X116926428Y-37090000D01*
X116069285Y-37518571D02*
X116569285Y-36018571D01*
X117069285Y-37518571D01*
X117569285Y-37518571D02*
X117569285Y-36018571D01*
X118426428Y-37518571D01*
X118426428Y-36018571D01*
X119140714Y-37518571D02*
X119140714Y-36018571D01*
X119497857Y-36018571D01*
X119712142Y-36090000D01*
X119855000Y-36232857D01*
X119926428Y-36375714D01*
X119997857Y-36661428D01*
X119997857Y-36875714D01*
X119926428Y-37161428D01*
X119855000Y-37304285D01*
X119712142Y-37447142D01*
X119497857Y-37518571D01*
X119140714Y-37518571D01*
X144152142Y-79000000D02*
X144866428Y-79000000D01*
X144009285Y-79428571D02*
X144509285Y-77928571D01*
X145009285Y-79428571D01*
X145509285Y-79428571D02*
X145509285Y-77928571D01*
X146366428Y-79428571D01*
X146366428Y-77928571D01*
X147080714Y-79428571D02*
X147080714Y-77928571D01*
X147437857Y-77928571D01*
X147652142Y-78000000D01*
X147795000Y-78142857D01*
X147866428Y-78285714D01*
X147937857Y-78571428D01*
X147937857Y-78785714D01*
X147866428Y-79071428D01*
X147795000Y-79214285D01*
X147652142Y-79357142D01*
X147437857Y-79428571D01*
X147080714Y-79428571D01*
D10*
X145848571Y-126069285D02*
X145848571Y-125319285D01*
X146027142Y-125319285D01*
X146134285Y-125355000D01*
X146205714Y-125426428D01*
X146241428Y-125497857D01*
X146277142Y-125640714D01*
X146277142Y-125747857D01*
X146241428Y-125890714D01*
X146205714Y-125962142D01*
X146134285Y-126033571D01*
X146027142Y-126069285D01*
X145848571Y-126069285D01*
D11*
X159122142Y-77928571D02*
X159407857Y-77928571D01*
X159550714Y-78000000D01*
X159693571Y-78142857D01*
X159765000Y-78428571D01*
X159765000Y-78928571D01*
X159693571Y-79214285D01*
X159550714Y-79357142D01*
X159407857Y-79428571D01*
X159122142Y-79428571D01*
X158979285Y-79357142D01*
X158836428Y-79214285D01*
X158765000Y-78928571D01*
X158765000Y-78428571D01*
X158836428Y-78142857D01*
X158979285Y-78000000D01*
X159122142Y-77928571D01*
X161265000Y-79428571D02*
X160765000Y-78714285D01*
X160407857Y-79428571D02*
X160407857Y-77928571D01*
X160979285Y-77928571D01*
X161122142Y-78000000D01*
X161193571Y-78071428D01*
X161265000Y-78214285D01*
X161265000Y-78428571D01*
X161193571Y-78571428D01*
X161122142Y-78642857D01*
X160979285Y-78714285D01*
X160407857Y-78714285D01*
D10*
X153486428Y-125855000D02*
X153843571Y-125855000D01*
X153415000Y-126069285D02*
X153665000Y-125319285D01*
X153915000Y-126069285D01*
X122707857Y-125355000D02*
X122636428Y-125319285D01*
X122529285Y-125319285D01*
X122422142Y-125355000D01*
X122350714Y-125426428D01*
X122315000Y-125497857D01*
X122279285Y-125640714D01*
X122279285Y-125747857D01*
X122315000Y-125890714D01*
X122350714Y-125962142D01*
X122422142Y-126033571D01*
X122529285Y-126069285D01*
X122600714Y-126069285D01*
X122707857Y-126033571D01*
X122743571Y-125997857D01*
X122743571Y-125747857D01*
X122600714Y-125747857D01*
X123065000Y-125569285D02*
X123065000Y-126069285D01*
X123065000Y-125640714D02*
X123100714Y-125605000D01*
X123172142Y-125569285D01*
X123279285Y-125569285D01*
X123350714Y-125605000D01*
X123386428Y-125676428D01*
X123386428Y-126069285D01*
X124065000Y-126069285D02*
X124065000Y-125319285D01*
X124065000Y-126033571D02*
X123993571Y-126069285D01*
X123850714Y-126069285D01*
X123779285Y-126033571D01*
X123743571Y-125997857D01*
X123707857Y-125926428D01*
X123707857Y-125712142D01*
X123743571Y-125640714D01*
X123779285Y-125605000D01*
X123850714Y-125569285D01*
X123993571Y-125569285D01*
X124065000Y-125605000D01*
X143349285Y-125676428D02*
X143599285Y-125676428D01*
X143706428Y-126069285D02*
X143349285Y-126069285D01*
X143349285Y-125319285D01*
X143706428Y-125319285D01*
X127716428Y-126069285D02*
X127716428Y-125319285D01*
X127895000Y-125319285D01*
X128002142Y-125355000D01*
X128073571Y-125426428D01*
X128109285Y-125497857D01*
X128145000Y-125640714D01*
X128145000Y-125747857D01*
X128109285Y-125890714D01*
X128073571Y-125962142D01*
X128002142Y-126033571D01*
X127895000Y-126069285D01*
X127716428Y-126069285D01*
X128609285Y-125319285D02*
X128680714Y-125319285D01*
X128752142Y-125355000D01*
X128787857Y-125390714D01*
X128823571Y-125462142D01*
X128859285Y-125605000D01*
X128859285Y-125783571D01*
X128823571Y-125926428D01*
X128787857Y-125997857D01*
X128752142Y-126033571D01*
X128680714Y-126069285D01*
X128609285Y-126069285D01*
X128537857Y-126033571D01*
X128502142Y-125997857D01*
X128466428Y-125926428D01*
X128430714Y-125783571D01*
X128430714Y-125605000D01*
X128466428Y-125462142D01*
X128502142Y-125390714D01*
X128537857Y-125355000D01*
X128609285Y-125319285D01*
X151183571Y-125676428D02*
X151290714Y-125712142D01*
X151326428Y-125747857D01*
X151362142Y-125819285D01*
X151362142Y-125926428D01*
X151326428Y-125997857D01*
X151290714Y-126033571D01*
X151219285Y-126069285D01*
X150933571Y-126069285D01*
X150933571Y-125319285D01*
X151183571Y-125319285D01*
X151255000Y-125355000D01*
X151290714Y-125390714D01*
X151326428Y-125462142D01*
X151326428Y-125533571D01*
X151290714Y-125605000D01*
X151255000Y-125640714D01*
X151183571Y-125676428D01*
X150933571Y-125676428D01*
D11*
X131182142Y-77928571D02*
X131467857Y-77928571D01*
X131610714Y-78000000D01*
X131753571Y-78142857D01*
X131825000Y-78428571D01*
X131825000Y-78928571D01*
X131753571Y-79214285D01*
X131610714Y-79357142D01*
X131467857Y-79428571D01*
X131182142Y-79428571D01*
X131039285Y-79357142D01*
X130896428Y-79214285D01*
X130825000Y-78928571D01*
X130825000Y-78428571D01*
X130896428Y-78142857D01*
X131039285Y-78000000D01*
X131182142Y-77928571D01*
X133325000Y-79428571D02*
X132825000Y-78714285D01*
X132467857Y-79428571D02*
X132467857Y-77928571D01*
X133039285Y-77928571D01*
X133182142Y-78000000D01*
X133253571Y-78071428D01*
X133325000Y-78214285D01*
X133325000Y-78428571D01*
X133253571Y-78571428D01*
X133182142Y-78642857D01*
X133039285Y-78714285D01*
X132467857Y-78714285D01*
D10*
X138626428Y-125355000D02*
X138555000Y-125319285D01*
X138447857Y-125319285D01*
X138340714Y-125355000D01*
X138269285Y-125426428D01*
X138233571Y-125497857D01*
X138197857Y-125640714D01*
X138197857Y-125747857D01*
X138233571Y-125890714D01*
X138269285Y-125962142D01*
X138340714Y-126033571D01*
X138447857Y-126069285D01*
X138519285Y-126069285D01*
X138626428Y-126033571D01*
X138662142Y-125997857D01*
X138662142Y-125747857D01*
X138519285Y-125747857D01*
D11*
X159132142Y-99518571D02*
X159417857Y-99518571D01*
X159560714Y-99590000D01*
X159703571Y-99732857D01*
X159775000Y-100018571D01*
X159775000Y-100518571D01*
X159703571Y-100804285D01*
X159560714Y-100947142D01*
X159417857Y-101018571D01*
X159132142Y-101018571D01*
X158989285Y-100947142D01*
X158846428Y-100804285D01*
X158775000Y-100518571D01*
X158775000Y-100018571D01*
X158846428Y-99732857D01*
X158989285Y-99590000D01*
X159132142Y-99518571D01*
X161275000Y-101018571D02*
X160775000Y-100304285D01*
X160417857Y-101018571D02*
X160417857Y-99518571D01*
X160989285Y-99518571D01*
X161132142Y-99590000D01*
X161203571Y-99661428D01*
X161275000Y-99804285D01*
X161275000Y-100018571D01*
X161203571Y-100161428D01*
X161132142Y-100232857D01*
X160989285Y-100304285D01*
X160417857Y-100304285D01*
D13*
%TO.C,D1*%
X127290000Y-31940000D02*
X127290000Y-31784000D01*
X127290000Y-34256000D02*
X127290000Y-34100000D01*
X126770961Y-31940000D02*
G75*
G03*
X124688870Y-31940163I-1040961J-1080000D01*
G01*
X124688870Y-34099837D02*
G75*
G03*
X126770961Y-34100000I1041130J1079837D01*
G01*
X124057665Y-34098608D02*
G75*
G03*
X127290000Y-34255516I1672335J1078608D01*
G01*
X127290000Y-31784484D02*
G75*
G03*
X124057665Y-31941392I-1560000J-1235516D01*
G01*
%TO.C,J1*%
X121855000Y-131805000D02*
X154995000Y-131805000D01*
X145665000Y-137805000D02*
X145665000Y-131805000D01*
X153285000Y-128815000D02*
X153285000Y-129145000D01*
X126995000Y-129145000D02*
X126995000Y-131805000D01*
X135505000Y-128747929D02*
X135505000Y-129145000D01*
X141345000Y-128747929D02*
X141345000Y-129145000D01*
X123565000Y-137805000D02*
X122805000Y-137805000D01*
X128645000Y-128747929D02*
X128645000Y-129145000D01*
X127885000Y-128747929D02*
X127885000Y-129145000D01*
X128645000Y-137805000D02*
X127885000Y-137805000D01*
X131185000Y-137805000D02*
X130425000Y-137805000D01*
X153865000Y-131805000D02*
X153865000Y-137805000D01*
X143885000Y-128747929D02*
X143885000Y-129145000D01*
X150745000Y-128747929D02*
X150745000Y-129145000D01*
X141345000Y-137805000D02*
X140585000Y-137805000D01*
X130425000Y-137805000D02*
X130425000Y-131805000D01*
X154045000Y-128815000D02*
X154045000Y-129145000D01*
X127885000Y-137805000D02*
X127885000Y-131805000D01*
X151505000Y-128747929D02*
X151505000Y-129145000D01*
X126105000Y-131805000D02*
X126105000Y-137805000D01*
X131185000Y-131805000D02*
X131185000Y-137805000D01*
X146425000Y-128747929D02*
X146425000Y-129145000D01*
X132075000Y-129145000D02*
X132075000Y-131805000D01*
X136265000Y-137805000D02*
X135505000Y-137805000D01*
X123565000Y-131805000D02*
X123565000Y-137805000D01*
X129535000Y-129145000D02*
X129535000Y-131805000D01*
X132965000Y-137805000D02*
X132965000Y-131805000D01*
X140585000Y-128747929D02*
X140585000Y-129145000D01*
X136265000Y-128747929D02*
X136265000Y-129145000D01*
X154935000Y-126435000D02*
X154935000Y-127705000D01*
X153665000Y-126435000D02*
X154935000Y-126435000D01*
X138805000Y-131805000D02*
X138805000Y-137805000D01*
X126105000Y-128747929D02*
X126105000Y-129145000D01*
X125345000Y-137805000D02*
X125345000Y-131805000D01*
X153505000Y-131805000D02*
X153505000Y-137805000D01*
X138805000Y-137805000D02*
X138045000Y-137805000D01*
X152395000Y-129145000D02*
X152395000Y-131805000D01*
X126105000Y-137805000D02*
X125345000Y-137805000D01*
X153625000Y-131805000D02*
X153625000Y-137805000D01*
X154045000Y-137805000D02*
X153285000Y-137805000D01*
X147315000Y-129145000D02*
X147315000Y-131805000D01*
X133725000Y-137805000D02*
X132965000Y-137805000D01*
X133725000Y-131805000D02*
X133725000Y-137805000D01*
X148965000Y-137805000D02*
X148205000Y-137805000D01*
X133725000Y-128747929D02*
X133725000Y-129145000D01*
X151505000Y-137805000D02*
X150745000Y-137805000D01*
X149855000Y-129145000D02*
X149855000Y-131805000D01*
X131185000Y-128747929D02*
X131185000Y-129145000D01*
X150745000Y-137805000D02*
X150745000Y-131805000D01*
X154995000Y-131805000D02*
X154995000Y-129145000D01*
X139695000Y-129145000D02*
X139695000Y-131805000D01*
X143885000Y-131805000D02*
X143885000Y-137805000D01*
X143885000Y-137805000D02*
X143125000Y-137805000D01*
X144775000Y-129145000D02*
X144775000Y-131805000D01*
X153985000Y-131805000D02*
X153985000Y-137805000D01*
X135505000Y-137805000D02*
X135505000Y-131805000D01*
X124455000Y-129145000D02*
X124455000Y-131805000D01*
X140585000Y-137805000D02*
X140585000Y-131805000D01*
X138805000Y-128747929D02*
X138805000Y-129145000D01*
X145665000Y-128747929D02*
X145665000Y-129145000D01*
X154995000Y-129145000D02*
X121855000Y-129145000D01*
X148205000Y-137805000D02*
X148205000Y-131805000D01*
X122805000Y-128747929D02*
X122805000Y-129145000D01*
X146425000Y-137805000D02*
X145665000Y-137805000D01*
X151505000Y-131805000D02*
X151505000Y-137805000D01*
X125345000Y-128747929D02*
X125345000Y-129145000D01*
X137155000Y-129145000D02*
X137155000Y-131805000D01*
X132965000Y-128747929D02*
X132965000Y-129145000D01*
X148965000Y-128747929D02*
X148965000Y-129145000D01*
X154045000Y-131805000D02*
X154045000Y-137805000D01*
X134615000Y-129145000D02*
X134615000Y-131805000D01*
X153285000Y-137805000D02*
X153285000Y-131805000D01*
X141345000Y-131805000D02*
X141345000Y-137805000D01*
X153745000Y-131805000D02*
X153745000Y-137805000D01*
X122805000Y-137805000D02*
X122805000Y-131805000D01*
X153385000Y-131805000D02*
X153385000Y-137805000D01*
X128645000Y-131805000D02*
X128645000Y-137805000D01*
X146425000Y-131805000D02*
X146425000Y-137805000D01*
X148205000Y-128747929D02*
X148205000Y-129145000D01*
X148965000Y-131805000D02*
X148965000Y-137805000D01*
X142235000Y-129145000D02*
X142235000Y-131805000D01*
X143125000Y-128747929D02*
X143125000Y-129145000D01*
X138045000Y-128747929D02*
X138045000Y-129145000D01*
X143125000Y-137805000D02*
X143125000Y-131805000D01*
X121855000Y-129145000D02*
X121855000Y-131805000D01*
X136265000Y-131805000D02*
X136265000Y-137805000D01*
X130425000Y-128747929D02*
X130425000Y-129145000D01*
X138045000Y-137805000D02*
X138045000Y-131805000D01*
X123565000Y-128747929D02*
X123565000Y-129145000D01*
%TO.C,U1*%
X148705000Y-97855000D02*
X148705000Y-79955000D01*
X143405000Y-97855000D02*
X148705000Y-97855000D01*
X145055000Y-79955000D02*
X143405000Y-79955000D01*
X143405000Y-79955000D02*
X143405000Y-97855000D01*
X148705000Y-79955000D02*
X147055000Y-79955000D01*
X145055000Y-79955000D02*
G75*
G03*
X147055000Y-79955000I1000000J0D01*
G01*
%TO.C,U10*%
X120765000Y-58365000D02*
X119115000Y-58365000D01*
X117115000Y-58365000D02*
X115465000Y-58365000D01*
X115465000Y-76265000D02*
X120765000Y-76265000D01*
X120765000Y-76265000D02*
X120765000Y-58365000D01*
X115465000Y-58365000D02*
X115465000Y-76265000D01*
X117115000Y-58365000D02*
G75*
G03*
X119115000Y-58365000I1000000J0D01*
G01*
%TO.C,U15*%
X148705000Y-101545000D02*
X147055000Y-101545000D01*
X143405000Y-119445000D02*
X148705000Y-119445000D01*
X143405000Y-101545000D02*
X143405000Y-119445000D01*
X148705000Y-119445000D02*
X148705000Y-101545000D01*
X145055000Y-101545000D02*
X143405000Y-101545000D01*
X145055000Y-101545000D02*
G75*
G03*
X147055000Y-101545000I1000000J0D01*
G01*
%TO.C,U4*%
X134735000Y-38045000D02*
X133085000Y-38045000D01*
X129435000Y-55945000D02*
X134735000Y-55945000D01*
X131085000Y-38045000D02*
X129435000Y-38045000D01*
X134735000Y-55945000D02*
X134735000Y-38045000D01*
X129435000Y-38045000D02*
X129435000Y-55945000D01*
X131085000Y-38045000D02*
G75*
G03*
X133085000Y-38045000I1000000J0D01*
G01*
%TO.C,R1*%
X134610000Y-32100000D02*
X130770000Y-32100000D01*
X134610000Y-33940000D02*
X130770000Y-33940000D01*
%TO.C,U11*%
X134735000Y-119445000D02*
X134735000Y-101545000D01*
X129435000Y-119445000D02*
X134735000Y-119445000D01*
X131085000Y-101545000D02*
X129435000Y-101545000D01*
X129435000Y-101545000D02*
X129435000Y-119445000D01*
X134735000Y-101545000D02*
X133085000Y-101545000D01*
X131085000Y-101545000D02*
G75*
G03*
X133085000Y-101545000I1000000J0D01*
G01*
%TO.C,U8*%
X159025000Y-79955000D02*
X157375000Y-79955000D01*
X157375000Y-79955000D02*
X157375000Y-97855000D01*
X162675000Y-79955000D02*
X161025000Y-79955000D01*
X162675000Y-97855000D02*
X162675000Y-79955000D01*
X157375000Y-97855000D02*
X162675000Y-97855000D01*
X159025000Y-79955000D02*
G75*
G03*
X161025000Y-79955000I1000000J0D01*
G01*
%TO.C,U12*%
X145055000Y-38045000D02*
X143405000Y-38045000D01*
X143405000Y-38045000D02*
X143405000Y-55945000D01*
X148705000Y-55945000D02*
X148705000Y-38045000D01*
X148705000Y-38045000D02*
X147055000Y-38045000D01*
X143405000Y-55945000D02*
X148705000Y-55945000D01*
X145055000Y-38045000D02*
G75*
G03*
X147055000Y-38045000I1000000J0D01*
G01*
%TO.C,U13*%
X157375000Y-101545000D02*
X157375000Y-119445000D01*
X162675000Y-101545000D02*
X161025000Y-101545000D01*
X157375000Y-119445000D02*
X162675000Y-119445000D01*
X159025000Y-101545000D02*
X157375000Y-101545000D01*
X162675000Y-119445000D02*
X162675000Y-101545000D01*
X159025000Y-101545000D02*
G75*
G03*
X161025000Y-101545000I1000000J0D01*
G01*
%TO.C,U2*%
X157375000Y-58365000D02*
X157375000Y-76265000D01*
X162675000Y-76265000D02*
X162675000Y-58365000D01*
X157375000Y-76265000D02*
X162675000Y-76265000D01*
X159025000Y-58365000D02*
X157375000Y-58365000D01*
X162675000Y-58365000D02*
X161025000Y-58365000D01*
X159025000Y-58365000D02*
G75*
G03*
X161025000Y-58365000I1000000J0D01*
G01*
%TO.C,U14*%
X134735000Y-97855000D02*
X134735000Y-79955000D01*
X134735000Y-79955000D02*
X133085000Y-79955000D01*
X131085000Y-79955000D02*
X129435000Y-79955000D01*
X129435000Y-79955000D02*
X129435000Y-97855000D01*
X129435000Y-97855000D02*
X134735000Y-97855000D01*
X131085000Y-79955000D02*
G75*
G03*
X133085000Y-79955000I1000000J0D01*
G01*
%TO.C,U6*%
X120765000Y-101545000D02*
X119115000Y-101545000D01*
X117115000Y-101545000D02*
X115465000Y-101545000D01*
X115465000Y-101545000D02*
X115465000Y-119445000D01*
X120765000Y-119445000D02*
X120765000Y-101545000D01*
X115465000Y-119445000D02*
X120765000Y-119445000D01*
X117115000Y-101545000D02*
G75*
G03*
X119115000Y-101545000I1000000J0D01*
G01*
%TO.C,U7*%
X145055000Y-58365000D02*
X143405000Y-58365000D01*
X148705000Y-76265000D02*
X148705000Y-58365000D01*
X148705000Y-58365000D02*
X147055000Y-58365000D01*
X143405000Y-76265000D02*
X148705000Y-76265000D01*
X143405000Y-58365000D02*
X143405000Y-76265000D01*
X145055000Y-58365000D02*
G75*
G03*
X147055000Y-58365000I1000000J0D01*
G01*
%TO.C,U9*%
X134735000Y-58365000D02*
X133085000Y-58365000D01*
X131085000Y-58365000D02*
X129435000Y-58365000D01*
X129435000Y-76265000D02*
X134735000Y-76265000D01*
X134735000Y-76265000D02*
X134735000Y-58365000D01*
X129435000Y-58365000D02*
X129435000Y-76265000D01*
X131085000Y-58365000D02*
G75*
G03*
X133085000Y-58365000I1000000J0D01*
G01*
%TO.C,U16*%
X120765000Y-79955000D02*
X119115000Y-79955000D01*
X117115000Y-79955000D02*
X115465000Y-79955000D01*
X115465000Y-79955000D02*
X115465000Y-97855000D01*
X115465000Y-97855000D02*
X120765000Y-97855000D01*
X120765000Y-97855000D02*
X120765000Y-79955000D01*
X117115000Y-79955000D02*
G75*
G03*
X119115000Y-79955000I1000000J0D01*
G01*
%TO.C,U3*%
X115465000Y-38045000D02*
X115465000Y-55945000D01*
X120765000Y-38045000D02*
X119115000Y-38045000D01*
X120765000Y-55945000D02*
X120765000Y-38045000D01*
X115465000Y-55945000D02*
X120765000Y-55945000D01*
X117115000Y-38045000D02*
X115465000Y-38045000D01*
X117115000Y-38045000D02*
G75*
G03*
X119115000Y-38045000I1000000J0D01*
G01*
%TO.C,U5*%
X157365000Y-38045000D02*
X157365000Y-55945000D01*
X162665000Y-38045000D02*
X161015000Y-38045000D01*
X159015000Y-38045000D02*
X157365000Y-38045000D01*
X162665000Y-55945000D02*
X162665000Y-38045000D01*
X157365000Y-55945000D02*
X162665000Y-55945000D01*
X159015000Y-38045000D02*
G75*
G03*
X161015000Y-38045000I1000000J0D01*
G01*
%TD*%
%LPC*%
D14*
%TO.C,D1*%
X127000000Y-33020000D03*
D15*
X124460000Y-33020000D03*
%TD*%
D16*
%TO.C,J1*%
X123185000Y-127705000D03*
X125725000Y-127705000D03*
X128265000Y-127705000D03*
X130805000Y-127705000D03*
X133345000Y-127705000D03*
X135885000Y-127705000D03*
X138425000Y-127705000D03*
X140965000Y-127705000D03*
X143505000Y-127705000D03*
X146045000Y-127705000D03*
X148585000Y-127705000D03*
X151125000Y-127705000D03*
D17*
X153665000Y-127705000D03*
%TD*%
D18*
%TO.C,U1*%
X142245000Y-81285000D03*
D19*
X142245000Y-83825000D03*
X142245000Y-86365000D03*
X142245000Y-88905000D03*
X142245000Y-91445000D03*
X142245000Y-93985000D03*
X142245000Y-96525000D03*
X149865000Y-96525000D03*
X149865000Y-93985000D03*
X149865000Y-91445000D03*
X149865000Y-88905000D03*
X149865000Y-86365000D03*
X149865000Y-83825000D03*
X149865000Y-81285000D03*
%TD*%
D18*
%TO.C,U10*%
X114305000Y-59695000D03*
D19*
X114305000Y-62235000D03*
X114305000Y-64775000D03*
X114305000Y-67315000D03*
X114305000Y-69855000D03*
X114305000Y-72395000D03*
X114305000Y-74935000D03*
X121925000Y-74935000D03*
X121925000Y-72395000D03*
X121925000Y-69855000D03*
X121925000Y-67315000D03*
X121925000Y-64775000D03*
X121925000Y-62235000D03*
X121925000Y-59695000D03*
%TD*%
D18*
%TO.C,U15*%
X142245000Y-102875000D03*
D19*
X142245000Y-105415000D03*
X142245000Y-107955000D03*
X142245000Y-110495000D03*
X142245000Y-113035000D03*
X142245000Y-115575000D03*
X142245000Y-118115000D03*
X149865000Y-118115000D03*
X149865000Y-115575000D03*
X149865000Y-113035000D03*
X149865000Y-110495000D03*
X149865000Y-107955000D03*
X149865000Y-105415000D03*
X149865000Y-102875000D03*
%TD*%
D18*
%TO.C,U4*%
X128275000Y-39375000D03*
D19*
X128275000Y-41915000D03*
X128275000Y-44455000D03*
X128275000Y-46995000D03*
X128275000Y-49535000D03*
X128275000Y-52075000D03*
X128275000Y-54615000D03*
X135895000Y-54615000D03*
X135895000Y-52075000D03*
X135895000Y-49535000D03*
X135895000Y-46995000D03*
X135895000Y-44455000D03*
X135895000Y-41915000D03*
X135895000Y-39375000D03*
%TD*%
D20*
%TO.C,R1*%
X135230000Y-33020000D03*
D21*
X130150000Y-33020000D03*
%TD*%
D18*
%TO.C,U11*%
X128275000Y-102875000D03*
D19*
X128275000Y-105415000D03*
X128275000Y-107955000D03*
X128275000Y-110495000D03*
X128275000Y-113035000D03*
X128275000Y-115575000D03*
X128275000Y-118115000D03*
X135895000Y-118115000D03*
X135895000Y-115575000D03*
X135895000Y-113035000D03*
X135895000Y-110495000D03*
X135895000Y-107955000D03*
X135895000Y-105415000D03*
X135895000Y-102875000D03*
%TD*%
D18*
%TO.C,U8*%
X156215000Y-81285000D03*
D19*
X156215000Y-83825000D03*
X156215000Y-86365000D03*
X156215000Y-88905000D03*
X156215000Y-91445000D03*
X156215000Y-93985000D03*
X156215000Y-96525000D03*
X163835000Y-96525000D03*
X163835000Y-93985000D03*
X163835000Y-91445000D03*
X163835000Y-88905000D03*
X163835000Y-86365000D03*
X163835000Y-83825000D03*
X163835000Y-81285000D03*
%TD*%
D18*
%TO.C,U12*%
X142245000Y-39375000D03*
D19*
X142245000Y-41915000D03*
X142245000Y-44455000D03*
X142245000Y-46995000D03*
X142245000Y-49535000D03*
X142245000Y-52075000D03*
X142245000Y-54615000D03*
X149865000Y-54615000D03*
X149865000Y-52075000D03*
X149865000Y-49535000D03*
X149865000Y-46995000D03*
X149865000Y-44455000D03*
X149865000Y-41915000D03*
X149865000Y-39375000D03*
%TD*%
D18*
%TO.C,U13*%
X156215000Y-102875000D03*
D19*
X156215000Y-105415000D03*
X156215000Y-107955000D03*
X156215000Y-110495000D03*
X156215000Y-113035000D03*
X156215000Y-115575000D03*
X156215000Y-118115000D03*
X163835000Y-118115000D03*
X163835000Y-115575000D03*
X163835000Y-113035000D03*
X163835000Y-110495000D03*
X163835000Y-107955000D03*
X163835000Y-105415000D03*
X163835000Y-102875000D03*
%TD*%
D18*
%TO.C,U2*%
X156215000Y-59695000D03*
D19*
X156215000Y-62235000D03*
X156215000Y-64775000D03*
X156215000Y-67315000D03*
X156215000Y-69855000D03*
X156215000Y-72395000D03*
X156215000Y-74935000D03*
X163835000Y-74935000D03*
X163835000Y-72395000D03*
X163835000Y-69855000D03*
X163835000Y-67315000D03*
X163835000Y-64775000D03*
X163835000Y-62235000D03*
X163835000Y-59695000D03*
%TD*%
D18*
%TO.C,U14*%
X128275000Y-81285000D03*
D19*
X128275000Y-83825000D03*
X128275000Y-86365000D03*
X128275000Y-88905000D03*
X128275000Y-91445000D03*
X128275000Y-93985000D03*
X128275000Y-96525000D03*
X135895000Y-96525000D03*
X135895000Y-93985000D03*
X135895000Y-91445000D03*
X135895000Y-88905000D03*
X135895000Y-86365000D03*
X135895000Y-83825000D03*
X135895000Y-81285000D03*
%TD*%
D18*
%TO.C,U6*%
X114305000Y-102875000D03*
D19*
X114305000Y-105415000D03*
X114305000Y-107955000D03*
X114305000Y-110495000D03*
X114305000Y-113035000D03*
X114305000Y-115575000D03*
X114305000Y-118115000D03*
X121925000Y-118115000D03*
X121925000Y-115575000D03*
X121925000Y-113035000D03*
X121925000Y-110495000D03*
X121925000Y-107955000D03*
X121925000Y-105415000D03*
X121925000Y-102875000D03*
%TD*%
D18*
%TO.C,U7*%
X142245000Y-59695000D03*
D19*
X142245000Y-62235000D03*
X142245000Y-64775000D03*
X142245000Y-67315000D03*
X142245000Y-69855000D03*
X142245000Y-72395000D03*
X142245000Y-74935000D03*
X149865000Y-74935000D03*
X149865000Y-72395000D03*
X149865000Y-69855000D03*
X149865000Y-67315000D03*
X149865000Y-64775000D03*
X149865000Y-62235000D03*
X149865000Y-59695000D03*
%TD*%
D18*
%TO.C,U9*%
X128275000Y-59695000D03*
D19*
X128275000Y-62235000D03*
X128275000Y-64775000D03*
X128275000Y-67315000D03*
X128275000Y-69855000D03*
X128275000Y-72395000D03*
X128275000Y-74935000D03*
X135895000Y-74935000D03*
X135895000Y-72395000D03*
X135895000Y-69855000D03*
X135895000Y-67315000D03*
X135895000Y-64775000D03*
X135895000Y-62235000D03*
X135895000Y-59695000D03*
%TD*%
D18*
%TO.C,U16*%
X114305000Y-81285000D03*
D19*
X114305000Y-83825000D03*
X114305000Y-86365000D03*
X114305000Y-88905000D03*
X114305000Y-91445000D03*
X114305000Y-93985000D03*
X114305000Y-96525000D03*
X121925000Y-96525000D03*
X121925000Y-93985000D03*
X121925000Y-91445000D03*
X121925000Y-88905000D03*
X121925000Y-86365000D03*
X121925000Y-83825000D03*
X121925000Y-81285000D03*
%TD*%
D18*
%TO.C,U3*%
X114305000Y-39375000D03*
D19*
X114305000Y-41915000D03*
X114305000Y-44455000D03*
X114305000Y-46995000D03*
X114305000Y-49535000D03*
X114305000Y-52075000D03*
X114305000Y-54615000D03*
X121925000Y-54615000D03*
X121925000Y-52075000D03*
X121925000Y-49535000D03*
X121925000Y-46995000D03*
X121925000Y-44455000D03*
X121925000Y-41915000D03*
X121925000Y-39375000D03*
%TD*%
D18*
%TO.C,U5*%
X156205000Y-39375000D03*
D19*
X156205000Y-41915000D03*
X156205000Y-44455000D03*
X156205000Y-46995000D03*
X156205000Y-49535000D03*
X156205000Y-52075000D03*
X156205000Y-54615000D03*
X163825000Y-54615000D03*
X163825000Y-52075000D03*
X163825000Y-49535000D03*
X163825000Y-46995000D03*
X163825000Y-44455000D03*
X163825000Y-41915000D03*
X163825000Y-39375000D03*
%TD*%
M02*
