M48
; DRILL file {KiCad (6.0.9)} date Wed Jun 18 12:34:03 2025
; FORMAT={-:-/ absolute / metric / decimal}
; #@! TF.CreationDate,2025-06-18T12:34:03-04:00
; #@! TF.GenerationSoftware,Kicad,Pcbnew,(6.0.9)
; #@! TF.FileFunction,Plated,1,2,PTH
FMAT,2
METRIC
; #@! TA.AperFunction,Plated,PTH,ViaDrill
T1C0.400
; #@! TA.AperFunction,Plated,PTH,ComponentDrill
T2C0.650
; #@! TA.AperFunction,Plated,PTH,ComponentDrill
T3C0.700
; #@! TA.AperFunction,Plated,PTH,ComponentDrill
T4C0.762
; #@! TA.AperFunction,Plated,PTH,ComponentDrill
T5C0.780
; #@! TA.AperFunction,Plated,PTH,ComponentDrill
T6C0.787
; #@! TA.AperFunction,Plated,PTH,ComponentDrill
T7C0.800
; #@! TA.AperFunction,Plated,PTH,ComponentDrill
T8C0.870
; #@! TA.AperFunction,Plated,PTH,ComponentDrill
T9C0.900
; #@! TA.AperFunction,Plated,PTH,ComponentDrill
T10C1.000
%
G90
G05
T1
X36.83Y-109.22
X38.1Y-143.51
X39.37Y-60.96
X40.64Y-86.36
X40.64Y-114.3
X40.64Y-132.08
X41.91Y-68.58
X41.91Y-73.66
X41.91Y-76.2
X41.91Y-86.36
X41.91Y-129.54
X43.18Y-63.5
X43.18Y-88.9
X43.18Y-96.52
X43.18Y-99.06
X43.18Y-109.22
X43.18Y-123.19
X43.18Y-125.73
X43.18Y-128.27
X44.45Y-60.96
X44.45Y-67.31
X44.45Y-74.93
X44.45Y-85.09
X44.45Y-93.98
X44.45Y-105.41
X44.45Y-116.84
X45.69Y-95.22
X45.69Y-107.92
X45.72Y-72.39
X45.72Y-74.93
X45.72Y-77.47
X45.72Y-87.63
X45.72Y-92.71
X45.72Y-105.41
X45.72Y-113.03
X46.99Y-58.42
X46.99Y-59.69
X46.99Y-97.79
X46.99Y-104.14
X46.99Y-110.49
X46.99Y-111.76
X46.99Y-115.57
X46.99Y-119.38
X46.99Y-134.62
X46.99Y-138.43
X48.26Y-95.25
X48.26Y-148.59
X49.53Y-57.15
X49.53Y-148.59
X52.07Y-55.88
X52.326Y-113.286
X54.61Y-59.69
X54.61Y-62.23
X54.61Y-67.31
X54.61Y-82.55
X54.61Y-93.98
X54.61Y-105.41
X55.85Y-102.84
X55.88Y-69.85
X55.88Y-81.28
X55.88Y-91.44
X57.15Y-66.01
X57.15Y-91.44
X58.42Y-101.6
X58.42Y-102.87
X59.69Y-81.28
X59.69Y-85.54
X59.715Y-101.625
X60.96Y-63.5
X60.96Y-68.58
X60.96Y-69.85
X60.96Y-73.66
X60.96Y-80.01
X60.96Y-83.82
X60.96Y-92.71
X60.96Y-104.14
X60.96Y-112.111
X62.23Y-80.01
X62.23Y-92.71
X62.23Y-121.344
X63.5Y-72.39
X63.5Y-83.82
X63.5Y-90.17
X63.5Y-92.71
X63.5Y-104.14
X64.77Y-77.47
X66.04Y-68.58
X66.04Y-90.17
X66.04Y-101.6
X66.04Y-104.14
X66.04Y-133.35
X67.31Y-67.31
X67.31Y-88.9
X67.31Y-121.92
X68.58Y-93.064
X68.58Y-104.14
X68.58Y-114.935
X69.85Y-59.69
X69.85Y-90.17
X71.12Y-58.42
X71.12Y-105.41
X71.12Y-107.95
X72.39Y-90.17
X72.39Y-92.71
X73.66Y-104.14
X73.66Y-117.475
X74.93Y-62.23
X74.93Y-91.44
X76.2Y-133.35
X77.47Y-53.34
X77.47Y-77.47
X77.47Y-83.82
X78.74Y-55.88
X78.74Y-97.34
X78.74Y-114.46
X80.01Y-91.44
X80.01Y-120.015
X81.28Y-71.12
X81.28Y-91.44
X82.55Y-57.15
X82.55Y-84.365
X82.55Y-129.54
X83.82Y-54.61
X85.09Y-57.15
X85.09Y-90.17
X85.09Y-120.65
X86.36Y-54.61
X86.36Y-73.66
X86.36Y-83.82
X86.36Y-113.575
X86.36Y-115.063
X86.36Y-132.08
X87.63Y-58.42
X87.63Y-93.98
X87.63Y-115.57
X88.9Y-88.9
X90.17Y-62.23
X91.184Y-113.286
X91.44Y-55.88
X92.71Y-59.69
X93.98Y-78.74
X93.98Y-85.09
X93.98Y-107.95
X95.25Y-107.95
X95.795Y-60.235
X96.52Y-78.74
X96.52Y-96.52
X96.52Y-143.51
X97.79Y-60.96
X97.79Y-97.79
X97.79Y-100.33
X99.06Y-81.28
X99.06Y-101.6
X100.33Y-68.58
X100.33Y-95.25
X100.33Y-115.57
X100.33Y-119.38
X100.509Y-110.49
X101.6Y-74.93
X102.855Y-96.52
X102.87Y-116.84
X102.87Y-143.51
X104.14Y-61.956
X105.44Y-111.76
X106.68Y-62.23
X106.68Y-63.5
X106.68Y-96.52
X106.68Y-118.11
X107.95Y-69.85
X107.95Y-76.2
X107.95Y-92.71
X107.95Y-111.76
X109.22Y-55.88
X109.22Y-71.12
X109.22Y-83.82
X110.49Y-68.58
X110.49Y-71.12
X110.49Y-92.71
X110.49Y-102.87
X111.76Y-54.61
X111.76Y-67.31
X111.76Y-74.93
X111.76Y-77.47
X111.76Y-86.36
X111.76Y-116.84
X113.03Y-74.93
X113.03Y-105.41
X114.3Y-63.5
X114.3Y-76.2
X114.3Y-88.9
X115.57Y-73.66
X115.57Y-80.01
X115.57Y-82.55
X115.57Y-83.82
X115.57Y-101.6
X115.57Y-119.38
X115.57Y-120.65
X116.84Y-72.39
X116.84Y-88.9
X116.84Y-130.81
X116.84Y-143.51
X117.21Y-86.36
X118.11Y-97.79
X118.11Y-102.87
X118.11Y-118.11
X118.11Y-142.24
X119.365Y-57.135
X119.38Y-62.23
X119.38Y-134.62
X120.65Y-58.42
X120.65Y-142.24
X120.65Y-144.78
X121.92Y-55.88
X121.92Y-78.74
X121.92Y-90.17
X121.92Y-130.81
X121.92Y-133.35
X121.92Y-143.51
X123.19Y-62.23
X123.19Y-96.52
X123.19Y-111.76
X123.19Y-137.16
X124.46Y-54.61
X124.46Y-92.71
X124.46Y-97.79
X124.46Y-129.361
X124.46Y-139.7
X125.73Y-69.85
X125.73Y-87.63
X125.73Y-93.98
X125.73Y-105.41
X125.73Y-134.62
X127.0Y-91.44
X127.0Y-130.81
X128.27Y-67.31
X128.27Y-83.82
X128.27Y-93.98
X128.27Y-99.06
X128.27Y-129.54
X128.27Y-131.32
X129.54Y-68.58
X129.54Y-71.12
X129.54Y-81.28
X129.54Y-85.09
X129.54Y-88.9
X129.54Y-132.08
X130.81Y-64.77
X132.08Y-60.414
X133.35Y-125.73
X133.35Y-129.54
X134.605Y-58.435
X134.62Y-60.96
X135.165Y-109.22
X135.89Y-68.58
X135.89Y-113.03
T3
X45.72Y-123.19
X45.72Y-125.73
X45.72Y-128.27
X45.72Y-130.81
X50.8Y-123.19
X50.8Y-125.73
X50.8Y-128.27
X50.8Y-130.81
X53.34Y-123.19
X53.34Y-140.97
X58.42Y-123.19
X58.42Y-140.97
X60.96Y-123.19
X60.96Y-140.97
X66.04Y-123.19
X66.04Y-140.97
X68.58Y-123.19
X68.58Y-135.89
X68.58Y-140.97
X71.12Y-135.89
X71.12Y-138.43
X71.12Y-140.97
X73.66Y-123.19
X76.2Y-123.19
X76.2Y-135.89
X76.2Y-138.43
X76.2Y-140.97
X78.74Y-140.97
X81.28Y-123.19
X83.82Y-123.19
X83.82Y-140.97
X86.36Y-140.97
X88.9Y-123.19
X91.44Y-123.19
X91.44Y-140.97
X93.98Y-140.97
X96.52Y-123.19
X99.06Y-123.19
X99.06Y-140.97
X101.6Y-140.97
X104.14Y-123.19
X106.68Y-123.19
X106.68Y-140.97
X109.22Y-140.97
X111.76Y-123.19
X114.3Y-123.19
X114.3Y-140.97
X119.38Y-123.19
X129.54Y-140.97
X133.35Y-109.22
X133.35Y-114.3
X134.62Y-140.97
T4
X104.151Y-101.6
X104.151Y-104.14
X104.151Y-106.68
X104.151Y-109.22
X104.151Y-111.76
X104.151Y-114.3
X119.701Y-101.6
X119.701Y-104.14
X119.701Y-106.68
X119.701Y-109.22
X119.701Y-111.76
X119.701Y-114.3
T5
X50.64Y-64.77
X50.64Y-67.31
X50.64Y-69.85
X50.64Y-72.39
X50.64Y-74.93
X50.64Y-77.47
X50.64Y-80.01
X50.64Y-82.55
X50.8Y-87.47
X50.8Y-95.41
X50.8Y-98.9
X50.8Y-106.84
X50.8Y-110.33
X50.8Y-118.27
X53.34Y-87.47
X53.34Y-95.41
X53.34Y-98.9
X53.34Y-106.84
X53.34Y-110.33
X53.34Y-118.27
X55.88Y-87.47
X55.88Y-95.41
X55.88Y-98.9
X55.88Y-106.84
X55.88Y-110.33
X55.88Y-118.27
X58.42Y-87.47
X58.42Y-95.41
X58.42Y-98.9
X58.42Y-106.84
X58.42Y-110.33
X58.42Y-118.27
X58.58Y-64.77
X58.58Y-67.31
X58.58Y-69.85
X58.58Y-72.39
X58.58Y-74.93
X58.58Y-77.47
X58.58Y-80.01
X58.58Y-82.55
X60.96Y-87.47
X60.96Y-95.41
X60.96Y-98.9
X60.96Y-106.84
X60.96Y-110.33
X60.96Y-118.27
X63.5Y-87.47
X63.5Y-95.41
X63.5Y-98.9
X63.5Y-106.84
X63.5Y-110.33
X63.5Y-118.27
X66.04Y-87.47
X66.04Y-95.41
X66.04Y-98.9
X66.04Y-106.84
X66.04Y-110.33
X66.04Y-118.27
X68.58Y-87.47
X68.58Y-95.41
X68.58Y-98.9
X68.58Y-106.84
X68.58Y-110.33
X68.58Y-118.27
T6
X76.2Y-87.63
X76.2Y-95.25
X76.2Y-99.06
X76.2Y-106.68
X76.2Y-110.49
X76.2Y-118.11
X78.74Y-87.63
X78.74Y-95.25
X78.74Y-99.06
X78.74Y-106.68
X78.74Y-110.49
X78.74Y-118.11
X81.28Y-87.63
X81.28Y-95.25
X81.28Y-99.06
X81.28Y-106.68
X81.28Y-110.49
X81.28Y-118.11
X83.82Y-87.63
X83.82Y-95.25
X83.82Y-99.06
X83.82Y-106.68
X83.82Y-110.49
X83.82Y-118.11
X86.36Y-87.63
X86.36Y-95.25
X86.36Y-99.06
X86.36Y-106.68
X86.36Y-110.49
X86.36Y-118.11
X88.9Y-87.63
X88.9Y-95.25
X88.9Y-99.06
X88.9Y-106.68
X88.9Y-110.49
X88.9Y-118.11
X91.44Y-87.63
X91.44Y-95.25
X91.44Y-99.06
X91.44Y-106.68
X91.44Y-110.49
X91.44Y-118.11
X93.98Y-87.63
X93.98Y-95.25
X93.98Y-99.06
X93.98Y-106.68
X93.98Y-110.49
X93.98Y-118.11
T7
X69.85Y-65.918
X69.85Y-81.157
X72.39Y-65.918
X72.39Y-81.157
X74.93Y-65.918
X74.93Y-81.157
X77.47Y-65.918
X77.47Y-81.157
X80.01Y-65.918
X80.01Y-81.157
X85.09Y-65.918
X85.09Y-81.157
X87.63Y-65.918
X87.63Y-81.157
X90.17Y-65.918
X90.17Y-81.157
X92.71Y-65.918
X92.71Y-81.157
X95.25Y-65.918
X95.25Y-81.157
X129.54Y-109.26
X129.54Y-111.76
X129.54Y-114.26
T8
X104.144Y-71.12
X104.144Y-73.66
X104.144Y-76.2
X104.144Y-78.74
X104.144Y-81.28
X104.144Y-83.82
X104.144Y-86.36
X104.144Y-88.9
X104.144Y-91.44
X104.144Y-93.98
X104.144Y-96.52
X104.151Y-66.04
X104.151Y-68.58
X104.151Y-99.06
X119.701Y-66.04
X119.701Y-68.58
X119.701Y-71.12
X119.701Y-73.66
X119.701Y-76.2
X119.701Y-78.74
X119.701Y-81.28
X119.701Y-83.82
X119.701Y-86.36
X119.701Y-88.9
X119.701Y-91.44
X119.701Y-93.98
X119.701Y-96.52
X119.701Y-99.06
T9
X53.34Y-127.0
X53.34Y-137.16
X55.88Y-127.0
X55.88Y-137.16
X58.42Y-127.0
X58.42Y-137.16
X60.96Y-127.0
X60.96Y-137.16
X63.5Y-127.0
X63.5Y-137.16
X66.04Y-127.0
X66.04Y-137.16
X68.58Y-127.0
X71.12Y-127.0
X73.66Y-127.0
X76.2Y-127.0
X78.74Y-127.0
X78.74Y-137.16
X81.28Y-127.0
X81.28Y-137.16
X83.82Y-127.0
X83.82Y-137.16
X86.36Y-127.0
X86.36Y-137.16
X88.9Y-127.0
X88.9Y-137.16
X91.44Y-127.0
X91.44Y-137.16
X93.98Y-127.0
X93.98Y-137.16
X96.52Y-127.0
X96.52Y-137.16
X99.06Y-127.0
X99.06Y-137.16
X101.6Y-127.0
X101.6Y-137.16
X104.14Y-127.0
X104.14Y-137.16
X106.68Y-127.0
X106.68Y-137.16
X109.22Y-127.0
X109.22Y-137.16
X111.76Y-127.0
X111.76Y-137.16
X114.3Y-127.0
X114.3Y-137.16
X116.84Y-127.0
X116.84Y-137.16
X130.81Y-137.16
X133.35Y-137.16
T10
X38.69Y-64.74
X38.69Y-67.28
X38.69Y-69.82
X38.69Y-72.36
X38.69Y-74.9
X38.69Y-77.44
X38.69Y-79.98
X38.69Y-82.52
X38.69Y-85.06
X38.69Y-87.6
X38.69Y-90.14
X38.69Y-92.68
X38.69Y-95.22
X38.69Y-97.76
X38.69Y-100.3
X38.69Y-102.84
X38.69Y-105.38
X38.69Y-107.92
X38.69Y-110.46
X38.69Y-113.0
X38.69Y-115.54
X38.69Y-118.08
X38.69Y-120.62
X38.69Y-123.16
X38.69Y-125.7
X38.69Y-128.24
X38.69Y-130.78
X39.355Y-52.66
X41.895Y-52.66
X44.435Y-52.66
X46.975Y-52.66
X49.515Y-52.66
X52.055Y-52.66
X54.595Y-52.66
X54.635Y-146.73
X57.135Y-52.66
X57.175Y-146.73
X59.675Y-52.66
X59.715Y-146.73
X62.215Y-52.66
X62.255Y-146.73
X64.755Y-52.66
X64.795Y-146.73
X67.295Y-52.66
X67.335Y-146.73
X69.835Y-52.66
X69.875Y-146.73
X72.415Y-146.73
X74.955Y-146.73
X77.495Y-146.73
X80.035Y-146.73
X82.575Y-146.73
X85.115Y-146.73
X87.655Y-146.73
X90.195Y-146.73
X92.735Y-146.73
X95.275Y-146.73
X97.815Y-146.73
X100.355Y-146.73
X102.895Y-146.73
X104.125Y-52.66
X105.435Y-146.73
X106.665Y-52.66
X107.975Y-146.73
X109.205Y-52.66
X110.515Y-146.73
X111.745Y-52.66
X113.055Y-146.73
X114.285Y-52.66
X115.595Y-146.73
X116.825Y-52.66
X118.135Y-146.73
X119.365Y-52.66
X121.905Y-52.66
X124.445Y-52.66
X126.985Y-52.66
X129.525Y-52.66
X132.065Y-52.66
X132.76Y-68.61
X132.76Y-71.15
X132.76Y-73.69
X132.76Y-76.23
X132.76Y-78.77
X132.76Y-81.31
X132.76Y-83.85
X132.76Y-86.39
X132.76Y-88.93
X132.76Y-91.47
X132.76Y-94.01
X132.76Y-96.55
X134.605Y-52.66
T2
X131.37Y-122.68G85X131.97Y-122.68
G05
X131.37Y-131.32G85X131.97Y-131.32
G05
X135.17Y-122.68G85X135.77Y-122.68
G05
X135.17Y-131.32G85X135.77Y-131.32
G05
T0
M30
