%TF.GenerationSoftware,KiCad,Pcbnew,(6.0.9)*%
%TF.CreationDate,2025-06-18T12:34:04-04:00*%
%TF.ProjectId,Motherboard,4d6f7468-6572-4626-9f61-72642e6b6963,1*%
%TF.SameCoordinates,Original*%
%TF.FileFunction,Drillmap*%
%TF.FilePolarity,Positive*%
%FSLAX45Y45*%
G04 Gerber Fmt 4.5, Leading zero omitted, Abs format (unit mm)*
G04 Created by KiCad (PCBNEW (6.0.9)) date 2025-06-18 12:34:04*
%MOMM*%
%LPD*%
G01*
G04 APERTURE LIST*
%ADD10C,0.100000*%
%ADD11C,0.200000*%
G04 APERTURE END LIST*
D10*
X3556000Y-5461000D02*
X3556000Y-14351000D01*
X4191000Y-4826000D02*
G75*
G03*
X3556000Y-5461000I0J-635000D01*
G01*
X13081000Y-14986000D02*
G75*
G03*
X13716000Y-14351000I0J635000D01*
G01*
X13716000Y-5461000D02*
G75*
G03*
X13081000Y-4826000I-635000J0D01*
G01*
X13716000Y-14351000D02*
X13716000Y-5461000D01*
X4191000Y-14986000D02*
X13081000Y-14986000D01*
X3556000Y-14351000D02*
G75*
G03*
X4191000Y-14986000I635000J0D01*
G01*
X13081000Y-4826000D02*
X4191000Y-4826000D01*
D11*
X3808619Y-15301476D02*
X3808619Y-15101476D01*
X3856238Y-15101476D01*
X3884809Y-15111000D01*
X3903857Y-15130048D01*
X3913381Y-15149095D01*
X3922905Y-15187190D01*
X3922905Y-15215762D01*
X3913381Y-15253857D01*
X3903857Y-15272905D01*
X3884809Y-15291952D01*
X3856238Y-15301476D01*
X3808619Y-15301476D01*
X4008619Y-15301476D02*
X4008619Y-15168143D01*
X4008619Y-15206238D02*
X4018143Y-15187190D01*
X4027667Y-15177667D01*
X4046714Y-15168143D01*
X4065762Y-15168143D01*
X4132428Y-15301476D02*
X4132428Y-15168143D01*
X4132428Y-15101476D02*
X4122905Y-15111000D01*
X4132428Y-15120524D01*
X4141952Y-15111000D01*
X4132428Y-15101476D01*
X4132428Y-15120524D01*
X4256238Y-15301476D02*
X4237190Y-15291952D01*
X4227667Y-15272905D01*
X4227667Y-15101476D01*
X4361000Y-15301476D02*
X4341952Y-15291952D01*
X4332429Y-15272905D01*
X4332429Y-15101476D01*
X4589571Y-15301476D02*
X4589571Y-15101476D01*
X4656238Y-15244333D01*
X4722905Y-15101476D01*
X4722905Y-15301476D01*
X4903857Y-15301476D02*
X4903857Y-15196714D01*
X4894333Y-15177667D01*
X4875286Y-15168143D01*
X4837190Y-15168143D01*
X4818143Y-15177667D01*
X4903857Y-15291952D02*
X4884810Y-15301476D01*
X4837190Y-15301476D01*
X4818143Y-15291952D01*
X4808619Y-15272905D01*
X4808619Y-15253857D01*
X4818143Y-15234809D01*
X4837190Y-15225286D01*
X4884810Y-15225286D01*
X4903857Y-15215762D01*
X4999095Y-15168143D02*
X4999095Y-15368143D01*
X4999095Y-15177667D02*
X5018143Y-15168143D01*
X5056238Y-15168143D01*
X5075286Y-15177667D01*
X5084810Y-15187190D01*
X5094333Y-15206238D01*
X5094333Y-15263381D01*
X5084810Y-15282428D01*
X5075286Y-15291952D01*
X5056238Y-15301476D01*
X5018143Y-15301476D01*
X4999095Y-15291952D01*
X5180048Y-15282428D02*
X5189571Y-15291952D01*
X5180048Y-15301476D01*
X5170524Y-15291952D01*
X5180048Y-15282428D01*
X5180048Y-15301476D01*
X5180048Y-15177667D02*
X5189571Y-15187190D01*
X5180048Y-15196714D01*
X5170524Y-15187190D01*
X5180048Y-15177667D01*
X5180048Y-15196714D01*
M02*
