%TF.GenerationSoftware,KiCad,Pcbnew,(6.0.9)*%
%TF.CreationDate,2025-06-18T12:34:04-04:00*%
%TF.ProjectId,Motherboard,4d6f7468-6572-4626-9f61-72642e6b6963,1*%
%TF.SameCoordinates,Original*%
%TF.FileFunction,Drillmap*%
%TF.FilePolarity,Positive*%
%FSLAX45Y45*%
G04 Gerber Fmt 4.5, Leading zero omitted, Abs format (unit mm)*
G04 Created by KiCad (PCBNEW (6.0.9)) date 2025-06-18 12:34:04*
%MOMM*%
%LPD*%
G01*
G04 APERTURE LIST*
%ADD10C,0.100000*%
%ADD11C,0.200000*%
%ADD12C,0.040000*%
%ADD13C,0.065000*%
%ADD14C,0.070000*%
%ADD15C,0.076200*%
%ADD16C,0.078000*%
%ADD17C,0.078740*%
%ADD18C,0.080000*%
%ADD19C,0.087000*%
%ADD20C,0.090000*%
G04 APERTURE END LIST*
D10*
X3556000Y-5461000D02*
X3556000Y-14351000D01*
X4191000Y-4826000D02*
G75*
G03*
X3556000Y-5461000I0J-635000D01*
G01*
X13081000Y-14986000D02*
G75*
G03*
X13716000Y-14351000I0J635000D01*
G01*
X13716000Y-5461000D02*
G75*
G03*
X13081000Y-4826000I-635000J0D01*
G01*
X13716000Y-14351000D02*
X13716000Y-5461000D01*
X4191000Y-14986000D02*
X13081000Y-14986000D01*
X3556000Y-14351000D02*
G75*
G03*
X4191000Y-14986000I635000J0D01*
G01*
X13081000Y-4826000D02*
X4191000Y-4826000D01*
D11*
D12*
X3663000Y-10902000D02*
X3703000Y-10942000D01*
X3703000Y-10902000D02*
X3663000Y-10942000D01*
X3790000Y-14331000D02*
X3830000Y-14371000D01*
X3830000Y-14331000D02*
X3790000Y-14371000D01*
X3917000Y-6076000D02*
X3957000Y-6116000D01*
X3957000Y-6076000D02*
X3917000Y-6116000D01*
X4044000Y-8616000D02*
X4084000Y-8656000D01*
X4084000Y-8616000D02*
X4044000Y-8656000D01*
X4044000Y-11410000D02*
X4084000Y-11450000D01*
X4084000Y-11410000D02*
X4044000Y-11450000D01*
X4044000Y-13188000D02*
X4084000Y-13228000D01*
X4084000Y-13188000D02*
X4044000Y-13228000D01*
X4171000Y-6838000D02*
X4211000Y-6878000D01*
X4211000Y-6838000D02*
X4171000Y-6878000D01*
X4171000Y-7346000D02*
X4211000Y-7386000D01*
X4211000Y-7346000D02*
X4171000Y-7386000D01*
X4171000Y-7600000D02*
X4211000Y-7640000D01*
X4211000Y-7600000D02*
X4171000Y-7640000D01*
X4171000Y-8616000D02*
X4211000Y-8656000D01*
X4211000Y-8616000D02*
X4171000Y-8656000D01*
X4171000Y-12934000D02*
X4211000Y-12974000D01*
X4211000Y-12934000D02*
X4171000Y-12974000D01*
X4298000Y-6330000D02*
X4338000Y-6370000D01*
X4338000Y-6330000D02*
X4298000Y-6370000D01*
X4298000Y-8870000D02*
X4338000Y-8910000D01*
X4338000Y-8870000D02*
X4298000Y-8910000D01*
X4298000Y-9632000D02*
X4338000Y-9672000D01*
X4338000Y-9632000D02*
X4298000Y-9672000D01*
X4298000Y-9886000D02*
X4338000Y-9926000D01*
X4338000Y-9886000D02*
X4298000Y-9926000D01*
X4298000Y-10902000D02*
X4338000Y-10942000D01*
X4338000Y-10902000D02*
X4298000Y-10942000D01*
X4298000Y-12299000D02*
X4338000Y-12339000D01*
X4338000Y-12299000D02*
X4298000Y-12339000D01*
X4298000Y-12553000D02*
X4338000Y-12593000D01*
X4338000Y-12553000D02*
X4298000Y-12593000D01*
X4298000Y-12807000D02*
X4338000Y-12847000D01*
X4338000Y-12807000D02*
X4298000Y-12847000D01*
X4425000Y-6076000D02*
X4465000Y-6116000D01*
X4465000Y-6076000D02*
X4425000Y-6116000D01*
X4425000Y-6711000D02*
X4465000Y-6751000D01*
X4465000Y-6711000D02*
X4425000Y-6751000D01*
X4425000Y-7473000D02*
X4465000Y-7513000D01*
X4465000Y-7473000D02*
X4425000Y-7513000D01*
X4425000Y-8489000D02*
X4465000Y-8529000D01*
X4465000Y-8489000D02*
X4425000Y-8529000D01*
X4425000Y-9378000D02*
X4465000Y-9418000D01*
X4465000Y-9378000D02*
X4425000Y-9418000D01*
X4425000Y-10521000D02*
X4465000Y-10561000D01*
X4465000Y-10521000D02*
X4425000Y-10561000D01*
X4425000Y-11664000D02*
X4465000Y-11704000D01*
X4465000Y-11664000D02*
X4425000Y-11704000D01*
X4549000Y-9502000D02*
X4589000Y-9542000D01*
X4589000Y-9502000D02*
X4549000Y-9542000D01*
X4549000Y-10772000D02*
X4589000Y-10812000D01*
X4589000Y-10772000D02*
X4549000Y-10812000D01*
X4552000Y-7219000D02*
X4592000Y-7259000D01*
X4592000Y-7219000D02*
X4552000Y-7259000D01*
X4552000Y-7473000D02*
X4592000Y-7513000D01*
X4592000Y-7473000D02*
X4552000Y-7513000D01*
X4552000Y-7727000D02*
X4592000Y-7767000D01*
X4592000Y-7727000D02*
X4552000Y-7767000D01*
X4552000Y-8743000D02*
X4592000Y-8783000D01*
X4592000Y-8743000D02*
X4552000Y-8783000D01*
X4552000Y-9251000D02*
X4592000Y-9291000D01*
X4592000Y-9251000D02*
X4552000Y-9291000D01*
X4552000Y-10521000D02*
X4592000Y-10561000D01*
X4592000Y-10521000D02*
X4552000Y-10561000D01*
X4552000Y-11283000D02*
X4592000Y-11323000D01*
X4592000Y-11283000D02*
X4552000Y-11323000D01*
X4679000Y-5822000D02*
X4719000Y-5862000D01*
X4719000Y-5822000D02*
X4679000Y-5862000D01*
X4679000Y-5949000D02*
X4719000Y-5989000D01*
X4719000Y-5949000D02*
X4679000Y-5989000D01*
X4679000Y-9759000D02*
X4719000Y-9799000D01*
X4719000Y-9759000D02*
X4679000Y-9799000D01*
X4679000Y-10394000D02*
X4719000Y-10434000D01*
X4719000Y-10394000D02*
X4679000Y-10434000D01*
X4679000Y-11029000D02*
X4719000Y-11069000D01*
X4719000Y-11029000D02*
X4679000Y-11069000D01*
X4679000Y-11156000D02*
X4719000Y-11196000D01*
X4719000Y-11156000D02*
X4679000Y-11196000D01*
X4679000Y-11537000D02*
X4719000Y-11577000D01*
X4719000Y-11537000D02*
X4679000Y-11577000D01*
X4679000Y-11918000D02*
X4719000Y-11958000D01*
X4719000Y-11918000D02*
X4679000Y-11958000D01*
X4679000Y-13442000D02*
X4719000Y-13482000D01*
X4719000Y-13442000D02*
X4679000Y-13482000D01*
X4679000Y-13823000D02*
X4719000Y-13863000D01*
X4719000Y-13823000D02*
X4679000Y-13863000D01*
X4806000Y-9505000D02*
X4846000Y-9545000D01*
X4846000Y-9505000D02*
X4806000Y-9545000D01*
X4806000Y-14839000D02*
X4846000Y-14879000D01*
X4846000Y-14839000D02*
X4806000Y-14879000D01*
X4933000Y-5695000D02*
X4973000Y-5735000D01*
X4973000Y-5695000D02*
X4933000Y-5735000D01*
X4933000Y-14839000D02*
X4973000Y-14879000D01*
X4973000Y-14839000D02*
X4933000Y-14879000D01*
X5187000Y-5568000D02*
X5227000Y-5608000D01*
X5227000Y-5568000D02*
X5187000Y-5608000D01*
X5212600Y-11308600D02*
X5252600Y-11348600D01*
X5252600Y-11308600D02*
X5212600Y-11348600D01*
X5441000Y-5949000D02*
X5481000Y-5989000D01*
X5481000Y-5949000D02*
X5441000Y-5989000D01*
X5441000Y-6203000D02*
X5481000Y-6243000D01*
X5481000Y-6203000D02*
X5441000Y-6243000D01*
X5441000Y-6711000D02*
X5481000Y-6751000D01*
X5481000Y-6711000D02*
X5441000Y-6751000D01*
X5441000Y-8235000D02*
X5481000Y-8275000D01*
X5481000Y-8235000D02*
X5441000Y-8275000D01*
X5441000Y-9378000D02*
X5481000Y-9418000D01*
X5481000Y-9378000D02*
X5441000Y-9418000D01*
X5441000Y-10521000D02*
X5481000Y-10561000D01*
X5481000Y-10521000D02*
X5441000Y-10561000D01*
X5565000Y-10264000D02*
X5605000Y-10304000D01*
X5605000Y-10264000D02*
X5565000Y-10304000D01*
X5568000Y-6965000D02*
X5608000Y-7005000D01*
X5608000Y-6965000D02*
X5568000Y-7005000D01*
X5568000Y-8108000D02*
X5608000Y-8148000D01*
X5608000Y-8108000D02*
X5568000Y-8148000D01*
X5568000Y-9124000D02*
X5608000Y-9164000D01*
X5608000Y-9124000D02*
X5568000Y-9164000D01*
X5695000Y-6581000D02*
X5735000Y-6621000D01*
X5735000Y-6581000D02*
X5695000Y-6621000D01*
X5695000Y-9124000D02*
X5735000Y-9164000D01*
X5735000Y-9124000D02*
X5695000Y-9164000D01*
X5822000Y-10140000D02*
X5862000Y-10180000D01*
X5862000Y-10140000D02*
X5822000Y-10180000D01*
X5822000Y-10267000D02*
X5862000Y-10307000D01*
X5862000Y-10267000D02*
X5822000Y-10307000D01*
X5949000Y-8108000D02*
X5989000Y-8148000D01*
X5989000Y-8108000D02*
X5949000Y-8148000D01*
X5949000Y-8534000D02*
X5989000Y-8574000D01*
X5989000Y-8534000D02*
X5949000Y-8574000D01*
X5951500Y-10142500D02*
X5991500Y-10182500D01*
X5991500Y-10142500D02*
X5951500Y-10182500D01*
X6076000Y-6330000D02*
X6116000Y-6370000D01*
X6116000Y-6330000D02*
X6076000Y-6370000D01*
X6076000Y-6838000D02*
X6116000Y-6878000D01*
X6116000Y-6838000D02*
X6076000Y-6878000D01*
X6076000Y-6965000D02*
X6116000Y-7005000D01*
X6116000Y-6965000D02*
X6076000Y-7005000D01*
X6076000Y-7346000D02*
X6116000Y-7386000D01*
X6116000Y-7346000D02*
X6076000Y-7386000D01*
X6076000Y-7981000D02*
X6116000Y-8021000D01*
X6116000Y-7981000D02*
X6076000Y-8021000D01*
X6076000Y-8362000D02*
X6116000Y-8402000D01*
X6116000Y-8362000D02*
X6076000Y-8402000D01*
X6076000Y-9251000D02*
X6116000Y-9291000D01*
X6116000Y-9251000D02*
X6076000Y-9291000D01*
X6076000Y-10394000D02*
X6116000Y-10434000D01*
X6116000Y-10394000D02*
X6076000Y-10434000D01*
X6076000Y-11191150D02*
X6116000Y-11231150D01*
X6116000Y-11191150D02*
X6076000Y-11231150D01*
X6203000Y-7981000D02*
X6243000Y-8021000D01*
X6243000Y-7981000D02*
X6203000Y-8021000D01*
X6203000Y-9251000D02*
X6243000Y-9291000D01*
X6243000Y-9251000D02*
X6203000Y-9291000D01*
X6203000Y-12114450D02*
X6243000Y-12154450D01*
X6243000Y-12114450D02*
X6203000Y-12154450D01*
X6330000Y-7219000D02*
X6370000Y-7259000D01*
X6370000Y-7219000D02*
X6330000Y-7259000D01*
X6330000Y-8362000D02*
X6370000Y-8402000D01*
X6370000Y-8362000D02*
X6330000Y-8402000D01*
X6330000Y-8997000D02*
X6370000Y-9037000D01*
X6370000Y-8997000D02*
X6330000Y-9037000D01*
X6330000Y-9251000D02*
X6370000Y-9291000D01*
X6370000Y-9251000D02*
X6330000Y-9291000D01*
X6330000Y-10394000D02*
X6370000Y-10434000D01*
X6370000Y-10394000D02*
X6330000Y-10434000D01*
X6457000Y-7727000D02*
X6497000Y-7767000D01*
X6497000Y-7727000D02*
X6457000Y-7767000D01*
X6584000Y-6838000D02*
X6624000Y-6878000D01*
X6624000Y-6838000D02*
X6584000Y-6878000D01*
X6584000Y-8997000D02*
X6624000Y-9037000D01*
X6624000Y-8997000D02*
X6584000Y-9037000D01*
X6584000Y-10140000D02*
X6624000Y-10180000D01*
X6624000Y-10140000D02*
X6584000Y-10180000D01*
X6584000Y-10394000D02*
X6624000Y-10434000D01*
X6624000Y-10394000D02*
X6584000Y-10434000D01*
X6584000Y-13315000D02*
X6624000Y-13355000D01*
X6624000Y-13315000D02*
X6584000Y-13355000D01*
X6711000Y-6711000D02*
X6751000Y-6751000D01*
X6751000Y-6711000D02*
X6711000Y-6751000D01*
X6711000Y-8870000D02*
X6751000Y-8910000D01*
X6751000Y-8870000D02*
X6711000Y-8910000D01*
X6711000Y-12172000D02*
X6751000Y-12212000D01*
X6751000Y-12172000D02*
X6711000Y-12212000D01*
X6838000Y-9286450D02*
X6878000Y-9326450D01*
X6878000Y-9286450D02*
X6838000Y-9326450D01*
X6838000Y-10394000D02*
X6878000Y-10434000D01*
X6878000Y-10394000D02*
X6838000Y-10434000D01*
X6838000Y-11473500D02*
X6878000Y-11513500D01*
X6878000Y-11473500D02*
X6838000Y-11513500D01*
X6965000Y-5949000D02*
X7005000Y-5989000D01*
X7005000Y-5949000D02*
X6965000Y-5989000D01*
X6965000Y-8997000D02*
X7005000Y-9037000D01*
X7005000Y-8997000D02*
X6965000Y-9037000D01*
X7092000Y-5822000D02*
X7132000Y-5862000D01*
X7132000Y-5822000D02*
X7092000Y-5862000D01*
X7092000Y-10521000D02*
X7132000Y-10561000D01*
X7132000Y-10521000D02*
X7092000Y-10561000D01*
X7092000Y-10775000D02*
X7132000Y-10815000D01*
X7132000Y-10775000D02*
X7092000Y-10815000D01*
X7219000Y-8997000D02*
X7259000Y-9037000D01*
X7259000Y-8997000D02*
X7219000Y-9037000D01*
X7219000Y-9251000D02*
X7259000Y-9291000D01*
X7259000Y-9251000D02*
X7219000Y-9291000D01*
X7346000Y-10394000D02*
X7386000Y-10434000D01*
X7386000Y-10394000D02*
X7346000Y-10434000D01*
X7346000Y-11727500D02*
X7386000Y-11767500D01*
X7386000Y-11727500D02*
X7346000Y-11767500D01*
X7473000Y-6203000D02*
X7513000Y-6243000D01*
X7513000Y-6203000D02*
X7473000Y-6243000D01*
X7473000Y-9124000D02*
X7513000Y-9164000D01*
X7513000Y-9124000D02*
X7473000Y-9164000D01*
X7600000Y-13315000D02*
X7640000Y-13355000D01*
X7640000Y-13315000D02*
X7600000Y-13355000D01*
X7727000Y-5314000D02*
X7767000Y-5354000D01*
X7767000Y-5314000D02*
X7727000Y-5354000D01*
X7727000Y-7727000D02*
X7767000Y-7767000D01*
X7767000Y-7727000D02*
X7727000Y-7767000D01*
X7727000Y-8362000D02*
X7767000Y-8402000D01*
X7767000Y-8362000D02*
X7727000Y-8402000D01*
X7854000Y-5568000D02*
X7894000Y-5608000D01*
X7894000Y-5568000D02*
X7854000Y-5608000D01*
X7854000Y-9714000D02*
X7894000Y-9754000D01*
X7894000Y-9714000D02*
X7854000Y-9754000D01*
X7854000Y-11426050D02*
X7894000Y-11466050D01*
X7894000Y-11426050D02*
X7854000Y-11466050D01*
X7981000Y-9124000D02*
X8021000Y-9164000D01*
X8021000Y-9124000D02*
X7981000Y-9164000D01*
X7981000Y-11981500D02*
X8021000Y-12021500D01*
X8021000Y-11981500D02*
X7981000Y-12021500D01*
X8108000Y-7092000D02*
X8148000Y-7132000D01*
X8148000Y-7092000D02*
X8108000Y-7132000D01*
X8108000Y-9124000D02*
X8148000Y-9164000D01*
X8148000Y-9124000D02*
X8108000Y-9164000D01*
X8235000Y-5695000D02*
X8275000Y-5735000D01*
X8275000Y-5695000D02*
X8235000Y-5735000D01*
X8235000Y-8416550D02*
X8275000Y-8456550D01*
X8275000Y-8416550D02*
X8235000Y-8456550D01*
X8235000Y-12934000D02*
X8275000Y-12974000D01*
X8275000Y-12934000D02*
X8235000Y-12974000D01*
X8362000Y-5441000D02*
X8402000Y-5481000D01*
X8402000Y-5441000D02*
X8362000Y-5481000D01*
X8489000Y-5695000D02*
X8529000Y-5735000D01*
X8529000Y-5695000D02*
X8489000Y-5735000D01*
X8489000Y-8997000D02*
X8529000Y-9037000D01*
X8529000Y-8997000D02*
X8489000Y-9037000D01*
X8489000Y-12045000D02*
X8529000Y-12085000D01*
X8529000Y-12045000D02*
X8489000Y-12085000D01*
X8616000Y-5441000D02*
X8656000Y-5481000D01*
X8656000Y-5441000D02*
X8616000Y-5481000D01*
X8616000Y-7346000D02*
X8656000Y-7386000D01*
X8656000Y-7346000D02*
X8616000Y-7386000D01*
X8616000Y-8362000D02*
X8656000Y-8402000D01*
X8656000Y-8362000D02*
X8616000Y-8402000D01*
X8616000Y-11337550D02*
X8656000Y-11377550D01*
X8656000Y-11337550D02*
X8616000Y-11377550D01*
X8616000Y-11486280D02*
X8656000Y-11526280D01*
X8656000Y-11486280D02*
X8616000Y-11526280D01*
X8616000Y-13188000D02*
X8656000Y-13228000D01*
X8656000Y-13188000D02*
X8616000Y-13228000D01*
X8743000Y-5822000D02*
X8783000Y-5862000D01*
X8783000Y-5822000D02*
X8743000Y-5862000D01*
X8743000Y-9378000D02*
X8783000Y-9418000D01*
X8783000Y-9378000D02*
X8743000Y-9418000D01*
X8743000Y-11537000D02*
X8783000Y-11577000D01*
X8783000Y-11537000D02*
X8743000Y-11577000D01*
X8870000Y-8870000D02*
X8910000Y-8910000D01*
X8910000Y-8870000D02*
X8870000Y-8910000D01*
X8997000Y-6203000D02*
X9037000Y-6243000D01*
X9037000Y-6203000D02*
X8997000Y-6243000D01*
X9098400Y-11308600D02*
X9138400Y-11348600D01*
X9138400Y-11308600D02*
X9098400Y-11348600D01*
X9124000Y-5568000D02*
X9164000Y-5608000D01*
X9164000Y-5568000D02*
X9124000Y-5608000D01*
X9251000Y-5949000D02*
X9291000Y-5989000D01*
X9291000Y-5949000D02*
X9251000Y-5989000D01*
X9378000Y-7854000D02*
X9418000Y-7894000D01*
X9418000Y-7854000D02*
X9378000Y-7894000D01*
X9378000Y-8489000D02*
X9418000Y-8529000D01*
X9418000Y-8489000D02*
X9378000Y-8529000D01*
X9378000Y-10775000D02*
X9418000Y-10815000D01*
X9418000Y-10775000D02*
X9378000Y-10815000D01*
X9505000Y-10775000D02*
X9545000Y-10815000D01*
X9545000Y-10775000D02*
X9505000Y-10815000D01*
X9559500Y-6003500D02*
X9599500Y-6043500D01*
X9599500Y-6003500D02*
X9559500Y-6043500D01*
X9632000Y-7854000D02*
X9672000Y-7894000D01*
X9672000Y-7854000D02*
X9632000Y-7894000D01*
X9632000Y-9632000D02*
X9672000Y-9672000D01*
X9672000Y-9632000D02*
X9632000Y-9672000D01*
X9632000Y-14331000D02*
X9672000Y-14371000D01*
X9672000Y-14331000D02*
X9632000Y-14371000D01*
X9759000Y-6076000D02*
X9799000Y-6116000D01*
X9799000Y-6076000D02*
X9759000Y-6116000D01*
X9759000Y-9759000D02*
X9799000Y-9799000D01*
X9799000Y-9759000D02*
X9759000Y-9799000D01*
X9759000Y-10013000D02*
X9799000Y-10053000D01*
X9799000Y-10013000D02*
X9759000Y-10053000D01*
X9886000Y-8108000D02*
X9926000Y-8148000D01*
X9926000Y-8108000D02*
X9886000Y-8148000D01*
X9886000Y-10140000D02*
X9926000Y-10180000D01*
X9926000Y-10140000D02*
X9886000Y-10180000D01*
X10013000Y-6838000D02*
X10053000Y-6878000D01*
X10053000Y-6838000D02*
X10013000Y-6878000D01*
X10013000Y-9505000D02*
X10053000Y-9545000D01*
X10053000Y-9505000D02*
X10013000Y-9545000D01*
X10013000Y-11537000D02*
X10053000Y-11577000D01*
X10053000Y-11537000D02*
X10013000Y-11577000D01*
X10013000Y-11918000D02*
X10053000Y-11958000D01*
X10053000Y-11918000D02*
X10013000Y-11958000D01*
X10030950Y-11029000D02*
X10070950Y-11069000D01*
X10070950Y-11029000D02*
X10030950Y-11069000D01*
X10140000Y-7473000D02*
X10180000Y-7513000D01*
X10180000Y-7473000D02*
X10140000Y-7513000D01*
X10265525Y-9632000D02*
X10305525Y-9672000D01*
X10305525Y-9632000D02*
X10265525Y-9672000D01*
X10267000Y-11664000D02*
X10307000Y-11704000D01*
X10307000Y-11664000D02*
X10267000Y-11704000D01*
X10267000Y-14331000D02*
X10307000Y-14371000D01*
X10307000Y-14331000D02*
X10267000Y-14371000D01*
X10394000Y-6175550D02*
X10434000Y-6215550D01*
X10434000Y-6175550D02*
X10394000Y-6215550D01*
X10523975Y-11156000D02*
X10563975Y-11196000D01*
X10563975Y-11156000D02*
X10523975Y-11196000D01*
X10648000Y-6203000D02*
X10688000Y-6243000D01*
X10688000Y-6203000D02*
X10648000Y-6243000D01*
X10648000Y-6330000D02*
X10688000Y-6370000D01*
X10688000Y-6330000D02*
X10648000Y-6370000D01*
X10648000Y-9632000D02*
X10688000Y-9672000D01*
X10688000Y-9632000D02*
X10648000Y-9672000D01*
X10648000Y-11791000D02*
X10688000Y-11831000D01*
X10688000Y-11791000D02*
X10648000Y-11831000D01*
X10775000Y-6965000D02*
X10815000Y-7005000D01*
X10815000Y-6965000D02*
X10775000Y-7005000D01*
X10775000Y-7600000D02*
X10815000Y-7640000D01*
X10815000Y-7600000D02*
X10775000Y-7640000D01*
X10775000Y-9251000D02*
X10815000Y-9291000D01*
X10815000Y-9251000D02*
X10775000Y-9291000D01*
X10775000Y-11156000D02*
X10815000Y-11196000D01*
X10815000Y-11156000D02*
X10775000Y-11196000D01*
X10902000Y-5568000D02*
X10942000Y-5608000D01*
X10942000Y-5568000D02*
X10902000Y-5608000D01*
X10902000Y-7092000D02*
X10942000Y-7132000D01*
X10942000Y-7092000D02*
X10902000Y-7132000D01*
X10902000Y-8362000D02*
X10942000Y-8402000D01*
X10942000Y-8362000D02*
X10902000Y-8402000D01*
X11029000Y-6838000D02*
X11069000Y-6878000D01*
X11069000Y-6838000D02*
X11029000Y-6878000D01*
X11029000Y-7092000D02*
X11069000Y-7132000D01*
X11069000Y-7092000D02*
X11029000Y-7132000D01*
X11029000Y-9251000D02*
X11069000Y-9291000D01*
X11069000Y-9251000D02*
X11029000Y-9291000D01*
X11029000Y-10267000D02*
X11069000Y-10307000D01*
X11069000Y-10267000D02*
X11029000Y-10307000D01*
X11156000Y-5441000D02*
X11196000Y-5481000D01*
X11196000Y-5441000D02*
X11156000Y-5481000D01*
X11156000Y-6711000D02*
X11196000Y-6751000D01*
X11196000Y-6711000D02*
X11156000Y-6751000D01*
X11156000Y-7473000D02*
X11196000Y-7513000D01*
X11196000Y-7473000D02*
X11156000Y-7513000D01*
X11156000Y-7727000D02*
X11196000Y-7767000D01*
X11196000Y-7727000D02*
X11156000Y-7767000D01*
X11156000Y-8616000D02*
X11196000Y-8656000D01*
X11196000Y-8616000D02*
X11156000Y-8656000D01*
X11156000Y-11664000D02*
X11196000Y-11704000D01*
X11196000Y-11664000D02*
X11156000Y-11704000D01*
X11283000Y-7473000D02*
X11323000Y-7513000D01*
X11323000Y-7473000D02*
X11283000Y-7513000D01*
X11283000Y-10521000D02*
X11323000Y-10561000D01*
X11323000Y-10521000D02*
X11283000Y-10561000D01*
X11410000Y-6330000D02*
X11450000Y-6370000D01*
X11450000Y-6330000D02*
X11410000Y-6370000D01*
X11410000Y-7600000D02*
X11450000Y-7640000D01*
X11450000Y-7600000D02*
X11410000Y-7640000D01*
X11410000Y-8870000D02*
X11450000Y-8910000D01*
X11450000Y-8870000D02*
X11410000Y-8910000D01*
X11537000Y-7346000D02*
X11577000Y-7386000D01*
X11577000Y-7346000D02*
X11537000Y-7386000D01*
X11537000Y-7981000D02*
X11577000Y-8021000D01*
X11577000Y-7981000D02*
X11537000Y-8021000D01*
X11537000Y-8235000D02*
X11577000Y-8275000D01*
X11577000Y-8235000D02*
X11537000Y-8275000D01*
X11537000Y-8362000D02*
X11577000Y-8402000D01*
X11577000Y-8362000D02*
X11537000Y-8402000D01*
X11537000Y-10140000D02*
X11577000Y-10180000D01*
X11577000Y-10140000D02*
X11537000Y-10180000D01*
X11537000Y-11918000D02*
X11577000Y-11958000D01*
X11577000Y-11918000D02*
X11537000Y-11958000D01*
X11537000Y-12045000D02*
X11577000Y-12085000D01*
X11577000Y-12045000D02*
X11537000Y-12085000D01*
X11664000Y-7219000D02*
X11704000Y-7259000D01*
X11704000Y-7219000D02*
X11664000Y-7259000D01*
X11664000Y-8870000D02*
X11704000Y-8910000D01*
X11704000Y-8870000D02*
X11664000Y-8910000D01*
X11664000Y-13061000D02*
X11704000Y-13101000D01*
X11704000Y-13061000D02*
X11664000Y-13101000D01*
X11664000Y-14331000D02*
X11704000Y-14371000D01*
X11704000Y-14331000D02*
X11664000Y-14371000D01*
X11701000Y-8616000D02*
X11741000Y-8656000D01*
X11741000Y-8616000D02*
X11701000Y-8656000D01*
X11791000Y-9759000D02*
X11831000Y-9799000D01*
X11831000Y-9759000D02*
X11791000Y-9799000D01*
X11791000Y-10267000D02*
X11831000Y-10307000D01*
X11831000Y-10267000D02*
X11791000Y-10307000D01*
X11791000Y-11791000D02*
X11831000Y-11831000D01*
X11831000Y-11791000D02*
X11791000Y-11831000D01*
X11791000Y-14204000D02*
X11831000Y-14244000D01*
X11831000Y-14204000D02*
X11791000Y-14244000D01*
X11916500Y-5693500D02*
X11956500Y-5733500D01*
X11956500Y-5693500D02*
X11916500Y-5733500D01*
X11918000Y-6203000D02*
X11958000Y-6243000D01*
X11958000Y-6203000D02*
X11918000Y-6243000D01*
X11918000Y-13442000D02*
X11958000Y-13482000D01*
X11958000Y-13442000D02*
X11918000Y-13482000D01*
X12045000Y-5822000D02*
X12085000Y-5862000D01*
X12085000Y-5822000D02*
X12045000Y-5862000D01*
X12045000Y-14204000D02*
X12085000Y-14244000D01*
X12085000Y-14204000D02*
X12045000Y-14244000D01*
X12045000Y-14458000D02*
X12085000Y-14498000D01*
X12085000Y-14458000D02*
X12045000Y-14498000D01*
X12172000Y-5568000D02*
X12212000Y-5608000D01*
X12212000Y-5568000D02*
X12172000Y-5608000D01*
X12172000Y-7854000D02*
X12212000Y-7894000D01*
X12212000Y-7854000D02*
X12172000Y-7894000D01*
X12172000Y-8997000D02*
X12212000Y-9037000D01*
X12212000Y-8997000D02*
X12172000Y-9037000D01*
X12172000Y-13061000D02*
X12212000Y-13101000D01*
X12212000Y-13061000D02*
X12172000Y-13101000D01*
X12172000Y-13315000D02*
X12212000Y-13355000D01*
X12212000Y-13315000D02*
X12172000Y-13355000D01*
X12172000Y-14331000D02*
X12212000Y-14371000D01*
X12212000Y-14331000D02*
X12172000Y-14371000D01*
X12299000Y-6203000D02*
X12339000Y-6243000D01*
X12339000Y-6203000D02*
X12299000Y-6243000D01*
X12299000Y-9632000D02*
X12339000Y-9672000D01*
X12339000Y-9632000D02*
X12299000Y-9672000D01*
X12299000Y-11156000D02*
X12339000Y-11196000D01*
X12339000Y-11156000D02*
X12299000Y-11196000D01*
X12299000Y-13696000D02*
X12339000Y-13736000D01*
X12339000Y-13696000D02*
X12299000Y-13736000D01*
X12426000Y-5441000D02*
X12466000Y-5481000D01*
X12466000Y-5441000D02*
X12426000Y-5481000D01*
X12426000Y-9251000D02*
X12466000Y-9291000D01*
X12466000Y-9251000D02*
X12426000Y-9291000D01*
X12426000Y-9759000D02*
X12466000Y-9799000D01*
X12466000Y-9759000D02*
X12426000Y-9799000D01*
X12426000Y-12916050D02*
X12466000Y-12956050D01*
X12466000Y-12916050D02*
X12426000Y-12956050D01*
X12426000Y-13950000D02*
X12466000Y-13990000D01*
X12466000Y-13950000D02*
X12426000Y-13990000D01*
X12553000Y-6965000D02*
X12593000Y-7005000D01*
X12593000Y-6965000D02*
X12553000Y-7005000D01*
X12553000Y-8743000D02*
X12593000Y-8783000D01*
X12593000Y-8743000D02*
X12553000Y-8783000D01*
X12553000Y-9378000D02*
X12593000Y-9418000D01*
X12593000Y-9378000D02*
X12553000Y-9418000D01*
X12553000Y-10521000D02*
X12593000Y-10561000D01*
X12593000Y-10521000D02*
X12553000Y-10561000D01*
X12553000Y-13442000D02*
X12593000Y-13482000D01*
X12593000Y-13442000D02*
X12553000Y-13482000D01*
X12680000Y-9124000D02*
X12720000Y-9164000D01*
X12720000Y-9124000D02*
X12680000Y-9164000D01*
X12680000Y-13061000D02*
X12720000Y-13101000D01*
X12720000Y-13061000D02*
X12680000Y-13101000D01*
X12807000Y-6711000D02*
X12847000Y-6751000D01*
X12847000Y-6711000D02*
X12807000Y-6751000D01*
X12807000Y-8362000D02*
X12847000Y-8402000D01*
X12847000Y-8362000D02*
X12807000Y-8402000D01*
X12807000Y-9378000D02*
X12847000Y-9418000D01*
X12847000Y-9378000D02*
X12807000Y-9418000D01*
X12807000Y-9886000D02*
X12847000Y-9926000D01*
X12847000Y-9886000D02*
X12807000Y-9926000D01*
X12807000Y-12934000D02*
X12847000Y-12974000D01*
X12847000Y-12934000D02*
X12807000Y-12974000D01*
X12807000Y-13112000D02*
X12847000Y-13152000D01*
X12847000Y-13112000D02*
X12807000Y-13152000D01*
X12934000Y-6838000D02*
X12974000Y-6878000D01*
X12974000Y-6838000D02*
X12934000Y-6878000D01*
X12934000Y-7092000D02*
X12974000Y-7132000D01*
X12974000Y-7092000D02*
X12934000Y-7132000D01*
X12934000Y-8108000D02*
X12974000Y-8148000D01*
X12974000Y-8108000D02*
X12934000Y-8148000D01*
X12934000Y-8489000D02*
X12974000Y-8529000D01*
X12974000Y-8489000D02*
X12934000Y-8529000D01*
X12934000Y-8870000D02*
X12974000Y-8910000D01*
X12974000Y-8870000D02*
X12934000Y-8910000D01*
X12934000Y-13188000D02*
X12974000Y-13228000D01*
X12974000Y-13188000D02*
X12934000Y-13228000D01*
X13061000Y-6457000D02*
X13101000Y-6497000D01*
X13101000Y-6457000D02*
X13061000Y-6497000D01*
X13188000Y-6021450D02*
X13228000Y-6061450D01*
X13228000Y-6021450D02*
X13188000Y-6061450D01*
X13315000Y-12553000D02*
X13355000Y-12593000D01*
X13355000Y-12553000D02*
X13315000Y-12593000D01*
X13315000Y-12934000D02*
X13355000Y-12974000D01*
X13355000Y-12934000D02*
X13315000Y-12974000D01*
X13440500Y-5823500D02*
X13480500Y-5863500D01*
X13480500Y-5823500D02*
X13440500Y-5863500D01*
X13442000Y-6076000D02*
X13482000Y-6116000D01*
X13482000Y-6076000D02*
X13442000Y-6116000D01*
X13496550Y-10902000D02*
X13536550Y-10942000D01*
X13536550Y-10902000D02*
X13496550Y-10942000D01*
X13569000Y-6838000D02*
X13609000Y-6878000D01*
X13609000Y-6838000D02*
X13569000Y-6878000D01*
X13569000Y-11283000D02*
X13609000Y-11323000D01*
X13609000Y-11283000D02*
X13569000Y-11323000D01*
D13*
X13199500Y-12268000D02*
G75*
G03*
X13199500Y-12268000I-32500J0D01*
G01*
D11*
X13137000Y-12300500D02*
X13197000Y-12300500D01*
X13137000Y-12235500D02*
X13197000Y-12235500D01*
X13197000Y-12300500D02*
G75*
G03*
X13197000Y-12235500I0J32500D01*
G01*
X13137000Y-12235500D02*
G75*
G03*
X13137000Y-12300500I0J-32500D01*
G01*
D13*
X13199500Y-13132000D02*
G75*
G03*
X13199500Y-13132000I-32500J0D01*
G01*
D11*
X13137000Y-13164500D02*
X13197000Y-13164500D01*
X13137000Y-13099500D02*
X13197000Y-13099500D01*
X13197000Y-13164500D02*
G75*
G03*
X13197000Y-13099500I0J32500D01*
G01*
X13137000Y-13099500D02*
G75*
G03*
X13137000Y-13164500I0J-32500D01*
G01*
D13*
X13579500Y-12268000D02*
G75*
G03*
X13579500Y-12268000I-32500J0D01*
G01*
D11*
X13517000Y-12300500D02*
X13577000Y-12300500D01*
X13517000Y-12235500D02*
X13577000Y-12235500D01*
X13577000Y-12300500D02*
G75*
G03*
X13577000Y-12235500I0J32500D01*
G01*
X13517000Y-12235500D02*
G75*
G03*
X13517000Y-12300500I0J-32500D01*
G01*
D13*
X13579500Y-13132000D02*
G75*
G03*
X13579500Y-13132000I-32500J0D01*
G01*
D11*
X13517000Y-13164500D02*
X13577000Y-13164500D01*
X13517000Y-13099500D02*
X13577000Y-13099500D01*
X13577000Y-13164500D02*
G75*
G03*
X13577000Y-13099500I0J32500D01*
G01*
X13517000Y-13099500D02*
G75*
G03*
X13517000Y-13164500I0J-32500D01*
G01*
D14*
X4572000Y-12284000D02*
X4572000Y-12354000D01*
X4537000Y-12319000D02*
X4607000Y-12319000D01*
X4572000Y-12538000D02*
X4572000Y-12608000D01*
X4537000Y-12573000D02*
X4607000Y-12573000D01*
X4572000Y-12792000D02*
X4572000Y-12862000D01*
X4537000Y-12827000D02*
X4607000Y-12827000D01*
X4572000Y-13046000D02*
X4572000Y-13116000D01*
X4537000Y-13081000D02*
X4607000Y-13081000D01*
X5080000Y-12284000D02*
X5080000Y-12354000D01*
X5045000Y-12319000D02*
X5115000Y-12319000D01*
X5080000Y-12538000D02*
X5080000Y-12608000D01*
X5045000Y-12573000D02*
X5115000Y-12573000D01*
X5080000Y-12792000D02*
X5080000Y-12862000D01*
X5045000Y-12827000D02*
X5115000Y-12827000D01*
X5080000Y-13046000D02*
X5080000Y-13116000D01*
X5045000Y-13081000D02*
X5115000Y-13081000D01*
X5334000Y-12284000D02*
X5334000Y-12354000D01*
X5299000Y-12319000D02*
X5369000Y-12319000D01*
X5334000Y-14062000D02*
X5334000Y-14132000D01*
X5299000Y-14097000D02*
X5369000Y-14097000D01*
X5842000Y-12284000D02*
X5842000Y-12354000D01*
X5807000Y-12319000D02*
X5877000Y-12319000D01*
X5842000Y-14062000D02*
X5842000Y-14132000D01*
X5807000Y-14097000D02*
X5877000Y-14097000D01*
X6096000Y-12284000D02*
X6096000Y-12354000D01*
X6061000Y-12319000D02*
X6131000Y-12319000D01*
X6096000Y-14062000D02*
X6096000Y-14132000D01*
X6061000Y-14097000D02*
X6131000Y-14097000D01*
X6604000Y-12284000D02*
X6604000Y-12354000D01*
X6569000Y-12319000D02*
X6639000Y-12319000D01*
X6604000Y-14062000D02*
X6604000Y-14132000D01*
X6569000Y-14097000D02*
X6639000Y-14097000D01*
X6858000Y-12284000D02*
X6858000Y-12354000D01*
X6823000Y-12319000D02*
X6893000Y-12319000D01*
X6858000Y-13554000D02*
X6858000Y-13624000D01*
X6823000Y-13589000D02*
X6893000Y-13589000D01*
X6858000Y-14062000D02*
X6858000Y-14132000D01*
X6823000Y-14097000D02*
X6893000Y-14097000D01*
X7112000Y-13554000D02*
X7112000Y-13624000D01*
X7077000Y-13589000D02*
X7147000Y-13589000D01*
X7112000Y-13808000D02*
X7112000Y-13878000D01*
X7077000Y-13843000D02*
X7147000Y-13843000D01*
X7112000Y-14062000D02*
X7112000Y-14132000D01*
X7077000Y-14097000D02*
X7147000Y-14097000D01*
X7366000Y-12284000D02*
X7366000Y-12354000D01*
X7331000Y-12319000D02*
X7401000Y-12319000D01*
X7620000Y-12284000D02*
X7620000Y-12354000D01*
X7585000Y-12319000D02*
X7655000Y-12319000D01*
X7620000Y-13554000D02*
X7620000Y-13624000D01*
X7585000Y-13589000D02*
X7655000Y-13589000D01*
X7620000Y-13808000D02*
X7620000Y-13878000D01*
X7585000Y-13843000D02*
X7655000Y-13843000D01*
X7620000Y-14062000D02*
X7620000Y-14132000D01*
X7585000Y-14097000D02*
X7655000Y-14097000D01*
X7874000Y-14062000D02*
X7874000Y-14132000D01*
X7839000Y-14097000D02*
X7909000Y-14097000D01*
X8128000Y-12284000D02*
X8128000Y-12354000D01*
X8093000Y-12319000D02*
X8163000Y-12319000D01*
X8382000Y-12284000D02*
X8382000Y-12354000D01*
X8347000Y-12319000D02*
X8417000Y-12319000D01*
X8382000Y-14062000D02*
X8382000Y-14132000D01*
X8347000Y-14097000D02*
X8417000Y-14097000D01*
X8636000Y-14062000D02*
X8636000Y-14132000D01*
X8601000Y-14097000D02*
X8671000Y-14097000D01*
X8890000Y-12284000D02*
X8890000Y-12354000D01*
X8855000Y-12319000D02*
X8925000Y-12319000D01*
X9144000Y-12284000D02*
X9144000Y-12354000D01*
X9109000Y-12319000D02*
X9179000Y-12319000D01*
X9144000Y-14062000D02*
X9144000Y-14132000D01*
X9109000Y-14097000D02*
X9179000Y-14097000D01*
X9398000Y-14062000D02*
X9398000Y-14132000D01*
X9363000Y-14097000D02*
X9433000Y-14097000D01*
X9652000Y-12284000D02*
X9652000Y-12354000D01*
X9617000Y-12319000D02*
X9687000Y-12319000D01*
X9906000Y-12284000D02*
X9906000Y-12354000D01*
X9871000Y-12319000D02*
X9941000Y-12319000D01*
X9906000Y-14062000D02*
X9906000Y-14132000D01*
X9871000Y-14097000D02*
X9941000Y-14097000D01*
X10160000Y-14062000D02*
X10160000Y-14132000D01*
X10125000Y-14097000D02*
X10195000Y-14097000D01*
X10414000Y-12284000D02*
X10414000Y-12354000D01*
X10379000Y-12319000D02*
X10449000Y-12319000D01*
X10668000Y-12284000D02*
X10668000Y-12354000D01*
X10633000Y-12319000D02*
X10703000Y-12319000D01*
X10668000Y-14062000D02*
X10668000Y-14132000D01*
X10633000Y-14097000D02*
X10703000Y-14097000D01*
X10922000Y-14062000D02*
X10922000Y-14132000D01*
X10887000Y-14097000D02*
X10957000Y-14097000D01*
X11176000Y-12284000D02*
X11176000Y-12354000D01*
X11141000Y-12319000D02*
X11211000Y-12319000D01*
X11430000Y-12284000D02*
X11430000Y-12354000D01*
X11395000Y-12319000D02*
X11465000Y-12319000D01*
X11430000Y-14062000D02*
X11430000Y-14132000D01*
X11395000Y-14097000D02*
X11465000Y-14097000D01*
X11938000Y-12284000D02*
X11938000Y-12354000D01*
X11903000Y-12319000D02*
X11973000Y-12319000D01*
X12954000Y-14062000D02*
X12954000Y-14132000D01*
X12919000Y-14097000D02*
X12989000Y-14097000D01*
X13335000Y-10887000D02*
X13335000Y-10957000D01*
X13300000Y-10922000D02*
X13370000Y-10922000D01*
X13335000Y-11395000D02*
X13335000Y-11465000D01*
X13300000Y-11430000D02*
X13370000Y-11430000D01*
X13462000Y-14062000D02*
X13462000Y-14132000D01*
X13427000Y-14097000D02*
X13497000Y-14097000D01*
D15*
X10442066Y-10186941D02*
X10442066Y-10133059D01*
X10388184Y-10133059D01*
X10388184Y-10186941D01*
X10442066Y-10186941D01*
X10442066Y-10440941D02*
X10442066Y-10387059D01*
X10388184Y-10387059D01*
X10388184Y-10440941D01*
X10442066Y-10440941D01*
X10442066Y-10694941D02*
X10442066Y-10641059D01*
X10388184Y-10641059D01*
X10388184Y-10694941D01*
X10442066Y-10694941D01*
X10442066Y-10948941D02*
X10442066Y-10895059D01*
X10388184Y-10895059D01*
X10388184Y-10948941D01*
X10442066Y-10948941D01*
X10442066Y-11202941D02*
X10442066Y-11149059D01*
X10388184Y-11149059D01*
X10388184Y-11202941D01*
X10442066Y-11202941D01*
X10442066Y-11456941D02*
X10442066Y-11403059D01*
X10388184Y-11403059D01*
X10388184Y-11456941D01*
X10442066Y-11456941D01*
X11997066Y-10186941D02*
X11997066Y-10133059D01*
X11943184Y-10133059D01*
X11943184Y-10186941D01*
X11997066Y-10186941D01*
X11997066Y-10440941D02*
X11997066Y-10387059D01*
X11943184Y-10387059D01*
X11943184Y-10440941D01*
X11997066Y-10440941D01*
X11997066Y-10694941D02*
X11997066Y-10641059D01*
X11943184Y-10641059D01*
X11943184Y-10694941D01*
X11997066Y-10694941D01*
X11997066Y-10948941D02*
X11997066Y-10895059D01*
X11943184Y-10895059D01*
X11943184Y-10948941D01*
X11997066Y-10948941D01*
X11997066Y-11202941D02*
X11997066Y-11149059D01*
X11943184Y-11149059D01*
X11943184Y-11202941D01*
X11997066Y-11202941D01*
X11997066Y-11456941D02*
X11997066Y-11403059D01*
X11943184Y-11403059D01*
X11943184Y-11456941D01*
X11997066Y-11456941D01*
D16*
X5064000Y-6516000D02*
X5103000Y-6477000D01*
X5064000Y-6438000D01*
X5025000Y-6477000D01*
X5064000Y-6516000D01*
X5064000Y-6770000D02*
X5103000Y-6731000D01*
X5064000Y-6692000D01*
X5025000Y-6731000D01*
X5064000Y-6770000D01*
X5064000Y-7024000D02*
X5103000Y-6985000D01*
X5064000Y-6946000D01*
X5025000Y-6985000D01*
X5064000Y-7024000D01*
X5064000Y-7278000D02*
X5103000Y-7239000D01*
X5064000Y-7200000D01*
X5025000Y-7239000D01*
X5064000Y-7278000D01*
X5064000Y-7532000D02*
X5103000Y-7493000D01*
X5064000Y-7454000D01*
X5025000Y-7493000D01*
X5064000Y-7532000D01*
X5064000Y-7786000D02*
X5103000Y-7747000D01*
X5064000Y-7708000D01*
X5025000Y-7747000D01*
X5064000Y-7786000D01*
X5064000Y-8040000D02*
X5103000Y-8001000D01*
X5064000Y-7962000D01*
X5025000Y-8001000D01*
X5064000Y-8040000D01*
X5064000Y-8294000D02*
X5103000Y-8255000D01*
X5064000Y-8216000D01*
X5025000Y-8255000D01*
X5064000Y-8294000D01*
X5080000Y-8786000D02*
X5119000Y-8747000D01*
X5080000Y-8708000D01*
X5041000Y-8747000D01*
X5080000Y-8786000D01*
X5080000Y-9580000D02*
X5119000Y-9541000D01*
X5080000Y-9502000D01*
X5041000Y-9541000D01*
X5080000Y-9580000D01*
X5080000Y-9929000D02*
X5119000Y-9890000D01*
X5080000Y-9851000D01*
X5041000Y-9890000D01*
X5080000Y-9929000D01*
X5080000Y-10723000D02*
X5119000Y-10684000D01*
X5080000Y-10645000D01*
X5041000Y-10684000D01*
X5080000Y-10723000D01*
X5080000Y-11072000D02*
X5119000Y-11033000D01*
X5080000Y-10994000D01*
X5041000Y-11033000D01*
X5080000Y-11072000D01*
X5080000Y-11866000D02*
X5119000Y-11827000D01*
X5080000Y-11788000D01*
X5041000Y-11827000D01*
X5080000Y-11866000D01*
X5334000Y-8786000D02*
X5373000Y-8747000D01*
X5334000Y-8708000D01*
X5295000Y-8747000D01*
X5334000Y-8786000D01*
X5334000Y-9580000D02*
X5373000Y-9541000D01*
X5334000Y-9502000D01*
X5295000Y-9541000D01*
X5334000Y-9580000D01*
X5334000Y-9929000D02*
X5373000Y-9890000D01*
X5334000Y-9851000D01*
X5295000Y-9890000D01*
X5334000Y-9929000D01*
X5334000Y-10723000D02*
X5373000Y-10684000D01*
X5334000Y-10645000D01*
X5295000Y-10684000D01*
X5334000Y-10723000D01*
X5334000Y-11072000D02*
X5373000Y-11033000D01*
X5334000Y-10994000D01*
X5295000Y-11033000D01*
X5334000Y-11072000D01*
X5334000Y-11866000D02*
X5373000Y-11827000D01*
X5334000Y-11788000D01*
X5295000Y-11827000D01*
X5334000Y-11866000D01*
X5588000Y-8786000D02*
X5627000Y-8747000D01*
X5588000Y-8708000D01*
X5549000Y-8747000D01*
X5588000Y-8786000D01*
X5588000Y-9580000D02*
X5627000Y-9541000D01*
X5588000Y-9502000D01*
X5549000Y-9541000D01*
X5588000Y-9580000D01*
X5588000Y-9929000D02*
X5627000Y-9890000D01*
X5588000Y-9851000D01*
X5549000Y-9890000D01*
X5588000Y-9929000D01*
X5588000Y-10723000D02*
X5627000Y-10684000D01*
X5588000Y-10645000D01*
X5549000Y-10684000D01*
X5588000Y-10723000D01*
X5588000Y-11072000D02*
X5627000Y-11033000D01*
X5588000Y-10994000D01*
X5549000Y-11033000D01*
X5588000Y-11072000D01*
X5588000Y-11866000D02*
X5627000Y-11827000D01*
X5588000Y-11788000D01*
X5549000Y-11827000D01*
X5588000Y-11866000D01*
X5842000Y-8786000D02*
X5881000Y-8747000D01*
X5842000Y-8708000D01*
X5803000Y-8747000D01*
X5842000Y-8786000D01*
X5842000Y-9580000D02*
X5881000Y-9541000D01*
X5842000Y-9502000D01*
X5803000Y-9541000D01*
X5842000Y-9580000D01*
X5842000Y-9929000D02*
X5881000Y-9890000D01*
X5842000Y-9851000D01*
X5803000Y-9890000D01*
X5842000Y-9929000D01*
X5842000Y-10723000D02*
X5881000Y-10684000D01*
X5842000Y-10645000D01*
X5803000Y-10684000D01*
X5842000Y-10723000D01*
X5842000Y-11072000D02*
X5881000Y-11033000D01*
X5842000Y-10994000D01*
X5803000Y-11033000D01*
X5842000Y-11072000D01*
X5842000Y-11866000D02*
X5881000Y-11827000D01*
X5842000Y-11788000D01*
X5803000Y-11827000D01*
X5842000Y-11866000D01*
X5858000Y-6516000D02*
X5897000Y-6477000D01*
X5858000Y-6438000D01*
X5819000Y-6477000D01*
X5858000Y-6516000D01*
X5858000Y-6770000D02*
X5897000Y-6731000D01*
X5858000Y-6692000D01*
X5819000Y-6731000D01*
X5858000Y-6770000D01*
X5858000Y-7024000D02*
X5897000Y-6985000D01*
X5858000Y-6946000D01*
X5819000Y-6985000D01*
X5858000Y-7024000D01*
X5858000Y-7278000D02*
X5897000Y-7239000D01*
X5858000Y-7200000D01*
X5819000Y-7239000D01*
X5858000Y-7278000D01*
X5858000Y-7532000D02*
X5897000Y-7493000D01*
X5858000Y-7454000D01*
X5819000Y-7493000D01*
X5858000Y-7532000D01*
X5858000Y-7786000D02*
X5897000Y-7747000D01*
X5858000Y-7708000D01*
X5819000Y-7747000D01*
X5858000Y-7786000D01*
X5858000Y-8040000D02*
X5897000Y-8001000D01*
X5858000Y-7962000D01*
X5819000Y-8001000D01*
X5858000Y-8040000D01*
X5858000Y-8294000D02*
X5897000Y-8255000D01*
X5858000Y-8216000D01*
X5819000Y-8255000D01*
X5858000Y-8294000D01*
X6096000Y-8786000D02*
X6135000Y-8747000D01*
X6096000Y-8708000D01*
X6057000Y-8747000D01*
X6096000Y-8786000D01*
X6096000Y-9580000D02*
X6135000Y-9541000D01*
X6096000Y-9502000D01*
X6057000Y-9541000D01*
X6096000Y-9580000D01*
X6096000Y-9929000D02*
X6135000Y-9890000D01*
X6096000Y-9851000D01*
X6057000Y-9890000D01*
X6096000Y-9929000D01*
X6096000Y-10723000D02*
X6135000Y-10684000D01*
X6096000Y-10645000D01*
X6057000Y-10684000D01*
X6096000Y-10723000D01*
X6096000Y-11072000D02*
X6135000Y-11033000D01*
X6096000Y-10994000D01*
X6057000Y-11033000D01*
X6096000Y-11072000D01*
X6096000Y-11866000D02*
X6135000Y-11827000D01*
X6096000Y-11788000D01*
X6057000Y-11827000D01*
X6096000Y-11866000D01*
X6350000Y-8786000D02*
X6389000Y-8747000D01*
X6350000Y-8708000D01*
X6311000Y-8747000D01*
X6350000Y-8786000D01*
X6350000Y-9580000D02*
X6389000Y-9541000D01*
X6350000Y-9502000D01*
X6311000Y-9541000D01*
X6350000Y-9580000D01*
X6350000Y-9929000D02*
X6389000Y-9890000D01*
X6350000Y-9851000D01*
X6311000Y-9890000D01*
X6350000Y-9929000D01*
X6350000Y-10723000D02*
X6389000Y-10684000D01*
X6350000Y-10645000D01*
X6311000Y-10684000D01*
X6350000Y-10723000D01*
X6350000Y-11072000D02*
X6389000Y-11033000D01*
X6350000Y-10994000D01*
X6311000Y-11033000D01*
X6350000Y-11072000D01*
X6350000Y-11866000D02*
X6389000Y-11827000D01*
X6350000Y-11788000D01*
X6311000Y-11827000D01*
X6350000Y-11866000D01*
X6604000Y-8786000D02*
X6643000Y-8747000D01*
X6604000Y-8708000D01*
X6565000Y-8747000D01*
X6604000Y-8786000D01*
X6604000Y-9580000D02*
X6643000Y-9541000D01*
X6604000Y-9502000D01*
X6565000Y-9541000D01*
X6604000Y-9580000D01*
X6604000Y-9929000D02*
X6643000Y-9890000D01*
X6604000Y-9851000D01*
X6565000Y-9890000D01*
X6604000Y-9929000D01*
X6604000Y-10723000D02*
X6643000Y-10684000D01*
X6604000Y-10645000D01*
X6565000Y-10684000D01*
X6604000Y-10723000D01*
X6604000Y-11072000D02*
X6643000Y-11033000D01*
X6604000Y-10994000D01*
X6565000Y-11033000D01*
X6604000Y-11072000D01*
X6604000Y-11866000D02*
X6643000Y-11827000D01*
X6604000Y-11788000D01*
X6565000Y-11827000D01*
X6604000Y-11866000D01*
X6858000Y-8786000D02*
X6897000Y-8747000D01*
X6858000Y-8708000D01*
X6819000Y-8747000D01*
X6858000Y-8786000D01*
X6858000Y-9580000D02*
X6897000Y-9541000D01*
X6858000Y-9502000D01*
X6819000Y-9541000D01*
X6858000Y-9580000D01*
X6858000Y-9929000D02*
X6897000Y-9890000D01*
X6858000Y-9851000D01*
X6819000Y-9890000D01*
X6858000Y-9929000D01*
X6858000Y-10723000D02*
X6897000Y-10684000D01*
X6858000Y-10645000D01*
X6819000Y-10684000D01*
X6858000Y-10723000D01*
X6858000Y-11072000D02*
X6897000Y-11033000D01*
X6858000Y-10994000D01*
X6819000Y-11033000D01*
X6858000Y-11072000D01*
X6858000Y-11866000D02*
X6897000Y-11827000D01*
X6858000Y-11788000D01*
X6819000Y-11827000D01*
X6858000Y-11866000D01*
D17*
X7580630Y-8723630D02*
X7659370Y-8802370D01*
X7659370Y-8723630D02*
X7580630Y-8802370D01*
X7659370Y-8763000D02*
G75*
G03*
X7659370Y-8763000I-39370J0D01*
G01*
X7580630Y-9485630D02*
X7659370Y-9564370D01*
X7659370Y-9485630D02*
X7580630Y-9564370D01*
X7659370Y-9525000D02*
G75*
G03*
X7659370Y-9525000I-39370J0D01*
G01*
X7580630Y-9866630D02*
X7659370Y-9945370D01*
X7659370Y-9866630D02*
X7580630Y-9945370D01*
X7659370Y-9906000D02*
G75*
G03*
X7659370Y-9906000I-39370J0D01*
G01*
X7580630Y-10628630D02*
X7659370Y-10707370D01*
X7659370Y-10628630D02*
X7580630Y-10707370D01*
X7659370Y-10668000D02*
G75*
G03*
X7659370Y-10668000I-39370J0D01*
G01*
X7580630Y-11009630D02*
X7659370Y-11088370D01*
X7659370Y-11009630D02*
X7580630Y-11088370D01*
X7659370Y-11049000D02*
G75*
G03*
X7659370Y-11049000I-39370J0D01*
G01*
X7580630Y-11771630D02*
X7659370Y-11850370D01*
X7659370Y-11771630D02*
X7580630Y-11850370D01*
X7659370Y-11811000D02*
G75*
G03*
X7659370Y-11811000I-39370J0D01*
G01*
X7834630Y-8723630D02*
X7913370Y-8802370D01*
X7913370Y-8723630D02*
X7834630Y-8802370D01*
X7913370Y-8763000D02*
G75*
G03*
X7913370Y-8763000I-39370J0D01*
G01*
X7834630Y-9485630D02*
X7913370Y-9564370D01*
X7913370Y-9485630D02*
X7834630Y-9564370D01*
X7913370Y-9525000D02*
G75*
G03*
X7913370Y-9525000I-39370J0D01*
G01*
X7834630Y-9866630D02*
X7913370Y-9945370D01*
X7913370Y-9866630D02*
X7834630Y-9945370D01*
X7913370Y-9906000D02*
G75*
G03*
X7913370Y-9906000I-39370J0D01*
G01*
X7834630Y-10628630D02*
X7913370Y-10707370D01*
X7913370Y-10628630D02*
X7834630Y-10707370D01*
X7913370Y-10668000D02*
G75*
G03*
X7913370Y-10668000I-39370J0D01*
G01*
X7834630Y-11009630D02*
X7913370Y-11088370D01*
X7913370Y-11009630D02*
X7834630Y-11088370D01*
X7913370Y-11049000D02*
G75*
G03*
X7913370Y-11049000I-39370J0D01*
G01*
X7834630Y-11771630D02*
X7913370Y-11850370D01*
X7913370Y-11771630D02*
X7834630Y-11850370D01*
X7913370Y-11811000D02*
G75*
G03*
X7913370Y-11811000I-39370J0D01*
G01*
X8088630Y-8723630D02*
X8167370Y-8802370D01*
X8167370Y-8723630D02*
X8088630Y-8802370D01*
X8167370Y-8763000D02*
G75*
G03*
X8167370Y-8763000I-39370J0D01*
G01*
X8088630Y-9485630D02*
X8167370Y-9564370D01*
X8167370Y-9485630D02*
X8088630Y-9564370D01*
X8167370Y-9525000D02*
G75*
G03*
X8167370Y-9525000I-39370J0D01*
G01*
X8088630Y-9866630D02*
X8167370Y-9945370D01*
X8167370Y-9866630D02*
X8088630Y-9945370D01*
X8167370Y-9906000D02*
G75*
G03*
X8167370Y-9906000I-39370J0D01*
G01*
X8088630Y-10628630D02*
X8167370Y-10707370D01*
X8167370Y-10628630D02*
X8088630Y-10707370D01*
X8167370Y-10668000D02*
G75*
G03*
X8167370Y-10668000I-39370J0D01*
G01*
X8088630Y-11009630D02*
X8167370Y-11088370D01*
X8167370Y-11009630D02*
X8088630Y-11088370D01*
X8167370Y-11049000D02*
G75*
G03*
X8167370Y-11049000I-39370J0D01*
G01*
X8088630Y-11771630D02*
X8167370Y-11850370D01*
X8167370Y-11771630D02*
X8088630Y-11850370D01*
X8167370Y-11811000D02*
G75*
G03*
X8167370Y-11811000I-39370J0D01*
G01*
X8342630Y-8723630D02*
X8421370Y-8802370D01*
X8421370Y-8723630D02*
X8342630Y-8802370D01*
X8421370Y-8763000D02*
G75*
G03*
X8421370Y-8763000I-39370J0D01*
G01*
X8342630Y-9485630D02*
X8421370Y-9564370D01*
X8421370Y-9485630D02*
X8342630Y-9564370D01*
X8421370Y-9525000D02*
G75*
G03*
X8421370Y-9525000I-39370J0D01*
G01*
X8342630Y-9866630D02*
X8421370Y-9945370D01*
X8421370Y-9866630D02*
X8342630Y-9945370D01*
X8421370Y-9906000D02*
G75*
G03*
X8421370Y-9906000I-39370J0D01*
G01*
X8342630Y-10628630D02*
X8421370Y-10707370D01*
X8421370Y-10628630D02*
X8342630Y-10707370D01*
X8421370Y-10668000D02*
G75*
G03*
X8421370Y-10668000I-39370J0D01*
G01*
X8342630Y-11009630D02*
X8421370Y-11088370D01*
X8421370Y-11009630D02*
X8342630Y-11088370D01*
X8421370Y-11049000D02*
G75*
G03*
X8421370Y-11049000I-39370J0D01*
G01*
X8342630Y-11771630D02*
X8421370Y-11850370D01*
X8421370Y-11771630D02*
X8342630Y-11850370D01*
X8421370Y-11811000D02*
G75*
G03*
X8421370Y-11811000I-39370J0D01*
G01*
X8596630Y-8723630D02*
X8675370Y-8802370D01*
X8675370Y-8723630D02*
X8596630Y-8802370D01*
X8675370Y-8763000D02*
G75*
G03*
X8675370Y-8763000I-39370J0D01*
G01*
X8596630Y-9485630D02*
X8675370Y-9564370D01*
X8675370Y-9485630D02*
X8596630Y-9564370D01*
X8675370Y-9525000D02*
G75*
G03*
X8675370Y-9525000I-39370J0D01*
G01*
X8596630Y-9866630D02*
X8675370Y-9945370D01*
X8675370Y-9866630D02*
X8596630Y-9945370D01*
X8675370Y-9906000D02*
G75*
G03*
X8675370Y-9906000I-39370J0D01*
G01*
X8596630Y-10628630D02*
X8675370Y-10707370D01*
X8675370Y-10628630D02*
X8596630Y-10707370D01*
X8675370Y-10668000D02*
G75*
G03*
X8675370Y-10668000I-39370J0D01*
G01*
X8596630Y-11009630D02*
X8675370Y-11088370D01*
X8675370Y-11009630D02*
X8596630Y-11088370D01*
X8675370Y-11049000D02*
G75*
G03*
X8675370Y-11049000I-39370J0D01*
G01*
X8596630Y-11771630D02*
X8675370Y-11850370D01*
X8675370Y-11771630D02*
X8596630Y-11850370D01*
X8675370Y-11811000D02*
G75*
G03*
X8675370Y-11811000I-39370J0D01*
G01*
X8850630Y-8723630D02*
X8929370Y-8802370D01*
X8929370Y-8723630D02*
X8850630Y-8802370D01*
X8929370Y-8763000D02*
G75*
G03*
X8929370Y-8763000I-39370J0D01*
G01*
X8850630Y-9485630D02*
X8929370Y-9564370D01*
X8929370Y-9485630D02*
X8850630Y-9564370D01*
X8929370Y-9525000D02*
G75*
G03*
X8929370Y-9525000I-39370J0D01*
G01*
X8850630Y-9866630D02*
X8929370Y-9945370D01*
X8929370Y-9866630D02*
X8850630Y-9945370D01*
X8929370Y-9906000D02*
G75*
G03*
X8929370Y-9906000I-39370J0D01*
G01*
X8850630Y-10628630D02*
X8929370Y-10707370D01*
X8929370Y-10628630D02*
X8850630Y-10707370D01*
X8929370Y-10668000D02*
G75*
G03*
X8929370Y-10668000I-39370J0D01*
G01*
X8850630Y-11009630D02*
X8929370Y-11088370D01*
X8929370Y-11009630D02*
X8850630Y-11088370D01*
X8929370Y-11049000D02*
G75*
G03*
X8929370Y-11049000I-39370J0D01*
G01*
X8850630Y-11771630D02*
X8929370Y-11850370D01*
X8929370Y-11771630D02*
X8850630Y-11850370D01*
X8929370Y-11811000D02*
G75*
G03*
X8929370Y-11811000I-39370J0D01*
G01*
X9104630Y-8723630D02*
X9183370Y-8802370D01*
X9183370Y-8723630D02*
X9104630Y-8802370D01*
X9183370Y-8763000D02*
G75*
G03*
X9183370Y-8763000I-39370J0D01*
G01*
X9104630Y-9485630D02*
X9183370Y-9564370D01*
X9183370Y-9485630D02*
X9104630Y-9564370D01*
X9183370Y-9525000D02*
G75*
G03*
X9183370Y-9525000I-39370J0D01*
G01*
X9104630Y-9866630D02*
X9183370Y-9945370D01*
X9183370Y-9866630D02*
X9104630Y-9945370D01*
X9183370Y-9906000D02*
G75*
G03*
X9183370Y-9906000I-39370J0D01*
G01*
X9104630Y-10628630D02*
X9183370Y-10707370D01*
X9183370Y-10628630D02*
X9104630Y-10707370D01*
X9183370Y-10668000D02*
G75*
G03*
X9183370Y-10668000I-39370J0D01*
G01*
X9104630Y-11009630D02*
X9183370Y-11088370D01*
X9183370Y-11009630D02*
X9104630Y-11088370D01*
X9183370Y-11049000D02*
G75*
G03*
X9183370Y-11049000I-39370J0D01*
G01*
X9104630Y-11771630D02*
X9183370Y-11850370D01*
X9183370Y-11771630D02*
X9104630Y-11850370D01*
X9183370Y-11811000D02*
G75*
G03*
X9183370Y-11811000I-39370J0D01*
G01*
X9358630Y-8723630D02*
X9437370Y-8802370D01*
X9437370Y-8723630D02*
X9358630Y-8802370D01*
X9437370Y-8763000D02*
G75*
G03*
X9437370Y-8763000I-39370J0D01*
G01*
X9358630Y-9485630D02*
X9437370Y-9564370D01*
X9437370Y-9485630D02*
X9358630Y-9564370D01*
X9437370Y-9525000D02*
G75*
G03*
X9437370Y-9525000I-39370J0D01*
G01*
X9358630Y-9866630D02*
X9437370Y-9945370D01*
X9437370Y-9866630D02*
X9358630Y-9945370D01*
X9437370Y-9906000D02*
G75*
G03*
X9437370Y-9906000I-39370J0D01*
G01*
X9358630Y-10628630D02*
X9437370Y-10707370D01*
X9437370Y-10628630D02*
X9358630Y-10707370D01*
X9437370Y-10668000D02*
G75*
G03*
X9437370Y-10668000I-39370J0D01*
G01*
X9358630Y-11009630D02*
X9437370Y-11088370D01*
X9437370Y-11009630D02*
X9358630Y-11088370D01*
X9437370Y-11049000D02*
G75*
G03*
X9437370Y-11049000I-39370J0D01*
G01*
X9358630Y-11771630D02*
X9437370Y-11850370D01*
X9437370Y-11771630D02*
X9358630Y-11850370D01*
X9437370Y-11811000D02*
G75*
G03*
X9437370Y-11811000I-39370J0D01*
G01*
D18*
X6945000Y-6551750D02*
X7025000Y-6631750D01*
X7025000Y-6551750D02*
X6945000Y-6631750D01*
X6985000Y-6551750D02*
X6985000Y-6631750D01*
X6945000Y-6591750D02*
X7025000Y-6591750D01*
X6945000Y-8075750D02*
X7025000Y-8155750D01*
X7025000Y-8075750D02*
X6945000Y-8155750D01*
X6985000Y-8075750D02*
X6985000Y-8155750D01*
X6945000Y-8115750D02*
X7025000Y-8115750D01*
X7199000Y-6551750D02*
X7279000Y-6631750D01*
X7279000Y-6551750D02*
X7199000Y-6631750D01*
X7239000Y-6551750D02*
X7239000Y-6631750D01*
X7199000Y-6591750D02*
X7279000Y-6591750D01*
X7199000Y-8075750D02*
X7279000Y-8155750D01*
X7279000Y-8075750D02*
X7199000Y-8155750D01*
X7239000Y-8075750D02*
X7239000Y-8155750D01*
X7199000Y-8115750D02*
X7279000Y-8115750D01*
X7453000Y-6551750D02*
X7533000Y-6631750D01*
X7533000Y-6551750D02*
X7453000Y-6631750D01*
X7493000Y-6551750D02*
X7493000Y-6631750D01*
X7453000Y-6591750D02*
X7533000Y-6591750D01*
X7453000Y-8075750D02*
X7533000Y-8155750D01*
X7533000Y-8075750D02*
X7453000Y-8155750D01*
X7493000Y-8075750D02*
X7493000Y-8155750D01*
X7453000Y-8115750D02*
X7533000Y-8115750D01*
X7707000Y-6551750D02*
X7787000Y-6631750D01*
X7787000Y-6551750D02*
X7707000Y-6631750D01*
X7747000Y-6551750D02*
X7747000Y-6631750D01*
X7707000Y-6591750D02*
X7787000Y-6591750D01*
X7707000Y-8075750D02*
X7787000Y-8155750D01*
X7787000Y-8075750D02*
X7707000Y-8155750D01*
X7747000Y-8075750D02*
X7747000Y-8155750D01*
X7707000Y-8115750D02*
X7787000Y-8115750D01*
X7961000Y-6551750D02*
X8041000Y-6631750D01*
X8041000Y-6551750D02*
X7961000Y-6631750D01*
X8001000Y-6551750D02*
X8001000Y-6631750D01*
X7961000Y-6591750D02*
X8041000Y-6591750D01*
X7961000Y-8075750D02*
X8041000Y-8155750D01*
X8041000Y-8075750D02*
X7961000Y-8155750D01*
X8001000Y-8075750D02*
X8001000Y-8155750D01*
X7961000Y-8115750D02*
X8041000Y-8115750D01*
X8469000Y-6551750D02*
X8549000Y-6631750D01*
X8549000Y-6551750D02*
X8469000Y-6631750D01*
X8509000Y-6551750D02*
X8509000Y-6631750D01*
X8469000Y-6591750D02*
X8549000Y-6591750D01*
X8469000Y-8075750D02*
X8549000Y-8155750D01*
X8549000Y-8075750D02*
X8469000Y-8155750D01*
X8509000Y-8075750D02*
X8509000Y-8155750D01*
X8469000Y-8115750D02*
X8549000Y-8115750D01*
X8723000Y-6551750D02*
X8803000Y-6631750D01*
X8803000Y-6551750D02*
X8723000Y-6631750D01*
X8763000Y-6551750D02*
X8763000Y-6631750D01*
X8723000Y-6591750D02*
X8803000Y-6591750D01*
X8723000Y-8075750D02*
X8803000Y-8155750D01*
X8803000Y-8075750D02*
X8723000Y-8155750D01*
X8763000Y-8075750D02*
X8763000Y-8155750D01*
X8723000Y-8115750D02*
X8803000Y-8115750D01*
X8977000Y-6551750D02*
X9057000Y-6631750D01*
X9057000Y-6551750D02*
X8977000Y-6631750D01*
X9017000Y-6551750D02*
X9017000Y-6631750D01*
X8977000Y-6591750D02*
X9057000Y-6591750D01*
X8977000Y-8075750D02*
X9057000Y-8155750D01*
X9057000Y-8075750D02*
X8977000Y-8155750D01*
X9017000Y-8075750D02*
X9017000Y-8155750D01*
X8977000Y-8115750D02*
X9057000Y-8115750D01*
X9231000Y-6551750D02*
X9311000Y-6631750D01*
X9311000Y-6551750D02*
X9231000Y-6631750D01*
X9271000Y-6551750D02*
X9271000Y-6631750D01*
X9231000Y-6591750D02*
X9311000Y-6591750D01*
X9231000Y-8075750D02*
X9311000Y-8155750D01*
X9311000Y-8075750D02*
X9231000Y-8155750D01*
X9271000Y-8075750D02*
X9271000Y-8155750D01*
X9231000Y-8115750D02*
X9311000Y-8115750D01*
X9485000Y-6551750D02*
X9565000Y-6631750D01*
X9565000Y-6551750D02*
X9485000Y-6631750D01*
X9525000Y-6551750D02*
X9525000Y-6631750D01*
X9485000Y-6591750D02*
X9565000Y-6591750D01*
X9485000Y-8075750D02*
X9565000Y-8155750D01*
X9565000Y-8075750D02*
X9485000Y-8155750D01*
X9525000Y-8075750D02*
X9525000Y-8155750D01*
X9485000Y-8115750D02*
X9565000Y-8115750D01*
X12914000Y-10886000D02*
X12994000Y-10966000D01*
X12994000Y-10886000D02*
X12914000Y-10966000D01*
X12954000Y-10886000D02*
X12954000Y-10966000D01*
X12914000Y-10926000D02*
X12994000Y-10926000D01*
X12914000Y-11136000D02*
X12994000Y-11216000D01*
X12994000Y-11136000D02*
X12914000Y-11216000D01*
X12954000Y-11136000D02*
X12954000Y-11216000D01*
X12914000Y-11176000D02*
X12994000Y-11176000D01*
X12914000Y-11386000D02*
X12994000Y-11466000D01*
X12994000Y-11386000D02*
X12914000Y-11466000D01*
X12954000Y-11386000D02*
X12954000Y-11466000D01*
X12914000Y-11426000D02*
X12994000Y-11426000D01*
D19*
X10370875Y-7068500D02*
X10457875Y-7155500D01*
X10457875Y-7068500D02*
X10370875Y-7155500D01*
X10445134Y-7142759D02*
X10445134Y-7081241D01*
X10383616Y-7081241D01*
X10383616Y-7142759D01*
X10445134Y-7142759D01*
X10370875Y-7322500D02*
X10457875Y-7409500D01*
X10457875Y-7322500D02*
X10370875Y-7409500D01*
X10445134Y-7396759D02*
X10445134Y-7335241D01*
X10383616Y-7335241D01*
X10383616Y-7396759D01*
X10445134Y-7396759D01*
X10370875Y-7576500D02*
X10457875Y-7663500D01*
X10457875Y-7576500D02*
X10370875Y-7663500D01*
X10445134Y-7650759D02*
X10445134Y-7589241D01*
X10383616Y-7589241D01*
X10383616Y-7650759D01*
X10445134Y-7650759D01*
X10370875Y-7830500D02*
X10457875Y-7917500D01*
X10457875Y-7830500D02*
X10370875Y-7917500D01*
X10445134Y-7904759D02*
X10445134Y-7843241D01*
X10383616Y-7843241D01*
X10383616Y-7904759D01*
X10445134Y-7904759D01*
X10370875Y-8084500D02*
X10457875Y-8171500D01*
X10457875Y-8084500D02*
X10370875Y-8171500D01*
X10445134Y-8158759D02*
X10445134Y-8097241D01*
X10383616Y-8097241D01*
X10383616Y-8158759D01*
X10445134Y-8158759D01*
X10370875Y-8338500D02*
X10457875Y-8425500D01*
X10457875Y-8338500D02*
X10370875Y-8425500D01*
X10445134Y-8412759D02*
X10445134Y-8351241D01*
X10383616Y-8351241D01*
X10383616Y-8412759D01*
X10445134Y-8412759D01*
X10370875Y-8592500D02*
X10457875Y-8679500D01*
X10457875Y-8592500D02*
X10370875Y-8679500D01*
X10445134Y-8666759D02*
X10445134Y-8605241D01*
X10383616Y-8605241D01*
X10383616Y-8666759D01*
X10445134Y-8666759D01*
X10370875Y-8846500D02*
X10457875Y-8933500D01*
X10457875Y-8846500D02*
X10370875Y-8933500D01*
X10445134Y-8920759D02*
X10445134Y-8859241D01*
X10383616Y-8859241D01*
X10383616Y-8920759D01*
X10445134Y-8920759D01*
X10370875Y-9100500D02*
X10457875Y-9187500D01*
X10457875Y-9100500D02*
X10370875Y-9187500D01*
X10445134Y-9174759D02*
X10445134Y-9113241D01*
X10383616Y-9113241D01*
X10383616Y-9174759D01*
X10445134Y-9174759D01*
X10370875Y-9354500D02*
X10457875Y-9441500D01*
X10457875Y-9354500D02*
X10370875Y-9441500D01*
X10445134Y-9428759D02*
X10445134Y-9367241D01*
X10383616Y-9367241D01*
X10383616Y-9428759D01*
X10445134Y-9428759D01*
X10370875Y-9608500D02*
X10457875Y-9695500D01*
X10457875Y-9608500D02*
X10370875Y-9695500D01*
X10445134Y-9682759D02*
X10445134Y-9621241D01*
X10383616Y-9621241D01*
X10383616Y-9682759D01*
X10445134Y-9682759D01*
X10371625Y-6560500D02*
X10458625Y-6647500D01*
X10458625Y-6560500D02*
X10371625Y-6647500D01*
X10445884Y-6634759D02*
X10445884Y-6573241D01*
X10384366Y-6573241D01*
X10384366Y-6634759D01*
X10445884Y-6634759D01*
X10371625Y-6814500D02*
X10458625Y-6901500D01*
X10458625Y-6814500D02*
X10371625Y-6901500D01*
X10445884Y-6888759D02*
X10445884Y-6827241D01*
X10384366Y-6827241D01*
X10384366Y-6888759D01*
X10445884Y-6888759D01*
X10371625Y-9862500D02*
X10458625Y-9949500D01*
X10458625Y-9862500D02*
X10371625Y-9949500D01*
X10445884Y-9936759D02*
X10445884Y-9875241D01*
X10384366Y-9875241D01*
X10384366Y-9936759D01*
X10445884Y-9936759D01*
X11926625Y-6560500D02*
X12013625Y-6647500D01*
X12013625Y-6560500D02*
X11926625Y-6647500D01*
X12000884Y-6634759D02*
X12000884Y-6573241D01*
X11939366Y-6573241D01*
X11939366Y-6634759D01*
X12000884Y-6634759D01*
X11926625Y-6814500D02*
X12013625Y-6901500D01*
X12013625Y-6814500D02*
X11926625Y-6901500D01*
X12000884Y-6888759D02*
X12000884Y-6827241D01*
X11939366Y-6827241D01*
X11939366Y-6888759D01*
X12000884Y-6888759D01*
X11926625Y-7068500D02*
X12013625Y-7155500D01*
X12013625Y-7068500D02*
X11926625Y-7155500D01*
X12000884Y-7142759D02*
X12000884Y-7081241D01*
X11939366Y-7081241D01*
X11939366Y-7142759D01*
X12000884Y-7142759D01*
X11926625Y-7322500D02*
X12013625Y-7409500D01*
X12013625Y-7322500D02*
X11926625Y-7409500D01*
X12000884Y-7396759D02*
X12000884Y-7335241D01*
X11939366Y-7335241D01*
X11939366Y-7396759D01*
X12000884Y-7396759D01*
X11926625Y-7576500D02*
X12013625Y-7663500D01*
X12013625Y-7576500D02*
X11926625Y-7663500D01*
X12000884Y-7650759D02*
X12000884Y-7589241D01*
X11939366Y-7589241D01*
X11939366Y-7650759D01*
X12000884Y-7650759D01*
X11926625Y-7830500D02*
X12013625Y-7917500D01*
X12013625Y-7830500D02*
X11926625Y-7917500D01*
X12000884Y-7904759D02*
X12000884Y-7843241D01*
X11939366Y-7843241D01*
X11939366Y-7904759D01*
X12000884Y-7904759D01*
X11926625Y-8084500D02*
X12013625Y-8171500D01*
X12013625Y-8084500D02*
X11926625Y-8171500D01*
X12000884Y-8158759D02*
X12000884Y-8097241D01*
X11939366Y-8097241D01*
X11939366Y-8158759D01*
X12000884Y-8158759D01*
X11926625Y-8338500D02*
X12013625Y-8425500D01*
X12013625Y-8338500D02*
X11926625Y-8425500D01*
X12000884Y-8412759D02*
X12000884Y-8351241D01*
X11939366Y-8351241D01*
X11939366Y-8412759D01*
X12000884Y-8412759D01*
X11926625Y-8592500D02*
X12013625Y-8679500D01*
X12013625Y-8592500D02*
X11926625Y-8679500D01*
X12000884Y-8666759D02*
X12000884Y-8605241D01*
X11939366Y-8605241D01*
X11939366Y-8666759D01*
X12000884Y-8666759D01*
X11926625Y-8846500D02*
X12013625Y-8933500D01*
X12013625Y-8846500D02*
X11926625Y-8933500D01*
X12000884Y-8920759D02*
X12000884Y-8859241D01*
X11939366Y-8859241D01*
X11939366Y-8920759D01*
X12000884Y-8920759D01*
X11926625Y-9100500D02*
X12013625Y-9187500D01*
X12013625Y-9100500D02*
X11926625Y-9187500D01*
X12000884Y-9174759D02*
X12000884Y-9113241D01*
X11939366Y-9113241D01*
X11939366Y-9174759D01*
X12000884Y-9174759D01*
X11926625Y-9354500D02*
X12013625Y-9441500D01*
X12013625Y-9354500D02*
X11926625Y-9441500D01*
X12000884Y-9428759D02*
X12000884Y-9367241D01*
X11939366Y-9367241D01*
X11939366Y-9428759D01*
X12000884Y-9428759D01*
X11926625Y-9608500D02*
X12013625Y-9695500D01*
X12013625Y-9608500D02*
X11926625Y-9695500D01*
X12000884Y-9682759D02*
X12000884Y-9621241D01*
X11939366Y-9621241D01*
X11939366Y-9682759D01*
X12000884Y-9682759D01*
X11926625Y-9862500D02*
X12013625Y-9949500D01*
X12013625Y-9862500D02*
X11926625Y-9949500D01*
X12000884Y-9936759D02*
X12000884Y-9875241D01*
X11939366Y-9875241D01*
X11939366Y-9936759D01*
X12000884Y-9936759D01*
D20*
X5289000Y-12655000D02*
X5379000Y-12745000D01*
X5379000Y-12655000D02*
X5289000Y-12745000D01*
X5334000Y-12745000D02*
X5379000Y-12700000D01*
X5334000Y-12655000D01*
X5289000Y-12700000D01*
X5334000Y-12745000D01*
X5289000Y-13671000D02*
X5379000Y-13761000D01*
X5379000Y-13671000D02*
X5289000Y-13761000D01*
X5334000Y-13761000D02*
X5379000Y-13716000D01*
X5334000Y-13671000D01*
X5289000Y-13716000D01*
X5334000Y-13761000D01*
X5543000Y-12655000D02*
X5633000Y-12745000D01*
X5633000Y-12655000D02*
X5543000Y-12745000D01*
X5588000Y-12745000D02*
X5633000Y-12700000D01*
X5588000Y-12655000D01*
X5543000Y-12700000D01*
X5588000Y-12745000D01*
X5543000Y-13671000D02*
X5633000Y-13761000D01*
X5633000Y-13671000D02*
X5543000Y-13761000D01*
X5588000Y-13761000D02*
X5633000Y-13716000D01*
X5588000Y-13671000D01*
X5543000Y-13716000D01*
X5588000Y-13761000D01*
X5797000Y-12655000D02*
X5887000Y-12745000D01*
X5887000Y-12655000D02*
X5797000Y-12745000D01*
X5842000Y-12745000D02*
X5887000Y-12700000D01*
X5842000Y-12655000D01*
X5797000Y-12700000D01*
X5842000Y-12745000D01*
X5797000Y-13671000D02*
X5887000Y-13761000D01*
X5887000Y-13671000D02*
X5797000Y-13761000D01*
X5842000Y-13761000D02*
X5887000Y-13716000D01*
X5842000Y-13671000D01*
X5797000Y-13716000D01*
X5842000Y-13761000D01*
X6051000Y-12655000D02*
X6141000Y-12745000D01*
X6141000Y-12655000D02*
X6051000Y-12745000D01*
X6096000Y-12745000D02*
X6141000Y-12700000D01*
X6096000Y-12655000D01*
X6051000Y-12700000D01*
X6096000Y-12745000D01*
X6051000Y-13671000D02*
X6141000Y-13761000D01*
X6141000Y-13671000D02*
X6051000Y-13761000D01*
X6096000Y-13761000D02*
X6141000Y-13716000D01*
X6096000Y-13671000D01*
X6051000Y-13716000D01*
X6096000Y-13761000D01*
X6305000Y-12655000D02*
X6395000Y-12745000D01*
X6395000Y-12655000D02*
X6305000Y-12745000D01*
X6350000Y-12745000D02*
X6395000Y-12700000D01*
X6350000Y-12655000D01*
X6305000Y-12700000D01*
X6350000Y-12745000D01*
X6305000Y-13671000D02*
X6395000Y-13761000D01*
X6395000Y-13671000D02*
X6305000Y-13761000D01*
X6350000Y-13761000D02*
X6395000Y-13716000D01*
X6350000Y-13671000D01*
X6305000Y-13716000D01*
X6350000Y-13761000D01*
X6559000Y-12655000D02*
X6649000Y-12745000D01*
X6649000Y-12655000D02*
X6559000Y-12745000D01*
X6604000Y-12745000D02*
X6649000Y-12700000D01*
X6604000Y-12655000D01*
X6559000Y-12700000D01*
X6604000Y-12745000D01*
X6559000Y-13671000D02*
X6649000Y-13761000D01*
X6649000Y-13671000D02*
X6559000Y-13761000D01*
X6604000Y-13761000D02*
X6649000Y-13716000D01*
X6604000Y-13671000D01*
X6559000Y-13716000D01*
X6604000Y-13761000D01*
X6813000Y-12655000D02*
X6903000Y-12745000D01*
X6903000Y-12655000D02*
X6813000Y-12745000D01*
X6858000Y-12745000D02*
X6903000Y-12700000D01*
X6858000Y-12655000D01*
X6813000Y-12700000D01*
X6858000Y-12745000D01*
X7067000Y-12655000D02*
X7157000Y-12745000D01*
X7157000Y-12655000D02*
X7067000Y-12745000D01*
X7112000Y-12745000D02*
X7157000Y-12700000D01*
X7112000Y-12655000D01*
X7067000Y-12700000D01*
X7112000Y-12745000D01*
X7321000Y-12655000D02*
X7411000Y-12745000D01*
X7411000Y-12655000D02*
X7321000Y-12745000D01*
X7366000Y-12745000D02*
X7411000Y-12700000D01*
X7366000Y-12655000D01*
X7321000Y-12700000D01*
X7366000Y-12745000D01*
X7575000Y-12655000D02*
X7665000Y-12745000D01*
X7665000Y-12655000D02*
X7575000Y-12745000D01*
X7620000Y-12745000D02*
X7665000Y-12700000D01*
X7620000Y-12655000D01*
X7575000Y-12700000D01*
X7620000Y-12745000D01*
X7829000Y-12655000D02*
X7919000Y-12745000D01*
X7919000Y-12655000D02*
X7829000Y-12745000D01*
X7874000Y-12745000D02*
X7919000Y-12700000D01*
X7874000Y-12655000D01*
X7829000Y-12700000D01*
X7874000Y-12745000D01*
X7829000Y-13671000D02*
X7919000Y-13761000D01*
X7919000Y-13671000D02*
X7829000Y-13761000D01*
X7874000Y-13761000D02*
X7919000Y-13716000D01*
X7874000Y-13671000D01*
X7829000Y-13716000D01*
X7874000Y-13761000D01*
X8083000Y-12655000D02*
X8173000Y-12745000D01*
X8173000Y-12655000D02*
X8083000Y-12745000D01*
X8128000Y-12745000D02*
X8173000Y-12700000D01*
X8128000Y-12655000D01*
X8083000Y-12700000D01*
X8128000Y-12745000D01*
X8083000Y-13671000D02*
X8173000Y-13761000D01*
X8173000Y-13671000D02*
X8083000Y-13761000D01*
X8128000Y-13761000D02*
X8173000Y-13716000D01*
X8128000Y-13671000D01*
X8083000Y-13716000D01*
X8128000Y-13761000D01*
X8337000Y-12655000D02*
X8427000Y-12745000D01*
X8427000Y-12655000D02*
X8337000Y-12745000D01*
X8382000Y-12745000D02*
X8427000Y-12700000D01*
X8382000Y-12655000D01*
X8337000Y-12700000D01*
X8382000Y-12745000D01*
X8337000Y-13671000D02*
X8427000Y-13761000D01*
X8427000Y-13671000D02*
X8337000Y-13761000D01*
X8382000Y-13761000D02*
X8427000Y-13716000D01*
X8382000Y-13671000D01*
X8337000Y-13716000D01*
X8382000Y-13761000D01*
X8591000Y-12655000D02*
X8681000Y-12745000D01*
X8681000Y-12655000D02*
X8591000Y-12745000D01*
X8636000Y-12745000D02*
X8681000Y-12700000D01*
X8636000Y-12655000D01*
X8591000Y-12700000D01*
X8636000Y-12745000D01*
X8591000Y-13671000D02*
X8681000Y-13761000D01*
X8681000Y-13671000D02*
X8591000Y-13761000D01*
X8636000Y-13761000D02*
X8681000Y-13716000D01*
X8636000Y-13671000D01*
X8591000Y-13716000D01*
X8636000Y-13761000D01*
X8845000Y-12655000D02*
X8935000Y-12745000D01*
X8935000Y-12655000D02*
X8845000Y-12745000D01*
X8890000Y-12745000D02*
X8935000Y-12700000D01*
X8890000Y-12655000D01*
X8845000Y-12700000D01*
X8890000Y-12745000D01*
X8845000Y-13671000D02*
X8935000Y-13761000D01*
X8935000Y-13671000D02*
X8845000Y-13761000D01*
X8890000Y-13761000D02*
X8935000Y-13716000D01*
X8890000Y-13671000D01*
X8845000Y-13716000D01*
X8890000Y-13761000D01*
X9099000Y-12655000D02*
X9189000Y-12745000D01*
X9189000Y-12655000D02*
X9099000Y-12745000D01*
X9144000Y-12745000D02*
X9189000Y-12700000D01*
X9144000Y-12655000D01*
X9099000Y-12700000D01*
X9144000Y-12745000D01*
X9099000Y-13671000D02*
X9189000Y-13761000D01*
X9189000Y-13671000D02*
X9099000Y-13761000D01*
X9144000Y-13761000D02*
X9189000Y-13716000D01*
X9144000Y-13671000D01*
X9099000Y-13716000D01*
X9144000Y-13761000D01*
X9353000Y-12655000D02*
X9443000Y-12745000D01*
X9443000Y-12655000D02*
X9353000Y-12745000D01*
X9398000Y-12745000D02*
X9443000Y-12700000D01*
X9398000Y-12655000D01*
X9353000Y-12700000D01*
X9398000Y-12745000D01*
X9353000Y-13671000D02*
X9443000Y-13761000D01*
X9443000Y-13671000D02*
X9353000Y-13761000D01*
X9398000Y-13761000D02*
X9443000Y-13716000D01*
X9398000Y-13671000D01*
X9353000Y-13716000D01*
X9398000Y-13761000D01*
X9607000Y-12655000D02*
X9697000Y-12745000D01*
X9697000Y-12655000D02*
X9607000Y-12745000D01*
X9652000Y-12745000D02*
X9697000Y-12700000D01*
X9652000Y-12655000D01*
X9607000Y-12700000D01*
X9652000Y-12745000D01*
X9607000Y-13671000D02*
X9697000Y-13761000D01*
X9697000Y-13671000D02*
X9607000Y-13761000D01*
X9652000Y-13761000D02*
X9697000Y-13716000D01*
X9652000Y-13671000D01*
X9607000Y-13716000D01*
X9652000Y-13761000D01*
X9861000Y-12655000D02*
X9951000Y-12745000D01*
X9951000Y-12655000D02*
X9861000Y-12745000D01*
X9906000Y-12745000D02*
X9951000Y-12700000D01*
X9906000Y-12655000D01*
X9861000Y-12700000D01*
X9906000Y-12745000D01*
X9861000Y-13671000D02*
X9951000Y-13761000D01*
X9951000Y-13671000D02*
X9861000Y-13761000D01*
X9906000Y-13761000D02*
X9951000Y-13716000D01*
X9906000Y-13671000D01*
X9861000Y-13716000D01*
X9906000Y-13761000D01*
X10115000Y-12655000D02*
X10205000Y-12745000D01*
X10205000Y-12655000D02*
X10115000Y-12745000D01*
X10160000Y-12745000D02*
X10205000Y-12700000D01*
X10160000Y-12655000D01*
X10115000Y-12700000D01*
X10160000Y-12745000D01*
X10115000Y-13671000D02*
X10205000Y-13761000D01*
X10205000Y-13671000D02*
X10115000Y-13761000D01*
X10160000Y-13761000D02*
X10205000Y-13716000D01*
X10160000Y-13671000D01*
X10115000Y-13716000D01*
X10160000Y-13761000D01*
X10369000Y-12655000D02*
X10459000Y-12745000D01*
X10459000Y-12655000D02*
X10369000Y-12745000D01*
X10414000Y-12745000D02*
X10459000Y-12700000D01*
X10414000Y-12655000D01*
X10369000Y-12700000D01*
X10414000Y-12745000D01*
X10369000Y-13671000D02*
X10459000Y-13761000D01*
X10459000Y-13671000D02*
X10369000Y-13761000D01*
X10414000Y-13761000D02*
X10459000Y-13716000D01*
X10414000Y-13671000D01*
X10369000Y-13716000D01*
X10414000Y-13761000D01*
X10623000Y-12655000D02*
X10713000Y-12745000D01*
X10713000Y-12655000D02*
X10623000Y-12745000D01*
X10668000Y-12745000D02*
X10713000Y-12700000D01*
X10668000Y-12655000D01*
X10623000Y-12700000D01*
X10668000Y-12745000D01*
X10623000Y-13671000D02*
X10713000Y-13761000D01*
X10713000Y-13671000D02*
X10623000Y-13761000D01*
X10668000Y-13761000D02*
X10713000Y-13716000D01*
X10668000Y-13671000D01*
X10623000Y-13716000D01*
X10668000Y-13761000D01*
X10877000Y-12655000D02*
X10967000Y-12745000D01*
X10967000Y-12655000D02*
X10877000Y-12745000D01*
X10922000Y-12745000D02*
X10967000Y-12700000D01*
X10922000Y-12655000D01*
X10877000Y-12700000D01*
X10922000Y-12745000D01*
X10877000Y-13671000D02*
X10967000Y-13761000D01*
X10967000Y-13671000D02*
X10877000Y-13761000D01*
X10922000Y-13761000D02*
X10967000Y-13716000D01*
X10922000Y-13671000D01*
X10877000Y-13716000D01*
X10922000Y-13761000D01*
X11131000Y-12655000D02*
X11221000Y-12745000D01*
X11221000Y-12655000D02*
X11131000Y-12745000D01*
X11176000Y-12745000D02*
X11221000Y-12700000D01*
X11176000Y-12655000D01*
X11131000Y-12700000D01*
X11176000Y-12745000D01*
X11131000Y-13671000D02*
X11221000Y-13761000D01*
X11221000Y-13671000D02*
X11131000Y-13761000D01*
X11176000Y-13761000D02*
X11221000Y-13716000D01*
X11176000Y-13671000D01*
X11131000Y-13716000D01*
X11176000Y-13761000D01*
X11385000Y-12655000D02*
X11475000Y-12745000D01*
X11475000Y-12655000D02*
X11385000Y-12745000D01*
X11430000Y-12745000D02*
X11475000Y-12700000D01*
X11430000Y-12655000D01*
X11385000Y-12700000D01*
X11430000Y-12745000D01*
X11385000Y-13671000D02*
X11475000Y-13761000D01*
X11475000Y-13671000D02*
X11385000Y-13761000D01*
X11430000Y-13761000D02*
X11475000Y-13716000D01*
X11430000Y-13671000D01*
X11385000Y-13716000D01*
X11430000Y-13761000D01*
X11639000Y-12655000D02*
X11729000Y-12745000D01*
X11729000Y-12655000D02*
X11639000Y-12745000D01*
X11684000Y-12745000D02*
X11729000Y-12700000D01*
X11684000Y-12655000D01*
X11639000Y-12700000D01*
X11684000Y-12745000D01*
X11639000Y-13671000D02*
X11729000Y-13761000D01*
X11729000Y-13671000D02*
X11639000Y-13761000D01*
X11684000Y-13761000D02*
X11729000Y-13716000D01*
X11684000Y-13671000D01*
X11639000Y-13716000D01*
X11684000Y-13761000D01*
X13036000Y-13671000D02*
X13126000Y-13761000D01*
X13126000Y-13671000D02*
X13036000Y-13761000D01*
X13081000Y-13761000D02*
X13126000Y-13716000D01*
X13081000Y-13671000D01*
X13036000Y-13716000D01*
X13081000Y-13761000D01*
X13290000Y-13671000D02*
X13380000Y-13761000D01*
X13380000Y-13671000D02*
X13290000Y-13761000D01*
X13335000Y-13761000D02*
X13380000Y-13716000D01*
X13335000Y-13671000D01*
X13290000Y-13716000D01*
X13335000Y-13761000D01*
D10*
X3869000Y-6424000D02*
X3869000Y-6524000D01*
X3819000Y-6474000D02*
X3919000Y-6474000D01*
X3919000Y-6474000D02*
G75*
G03*
X3919000Y-6474000I-50000J0D01*
G01*
X3869000Y-6678000D02*
X3869000Y-6778000D01*
X3819000Y-6728000D02*
X3919000Y-6728000D01*
X3919000Y-6728000D02*
G75*
G03*
X3919000Y-6728000I-50000J0D01*
G01*
X3869000Y-6932000D02*
X3869000Y-7032000D01*
X3819000Y-6982000D02*
X3919000Y-6982000D01*
X3919000Y-6982000D02*
G75*
G03*
X3919000Y-6982000I-50000J0D01*
G01*
X3869000Y-7186000D02*
X3869000Y-7286000D01*
X3819000Y-7236000D02*
X3919000Y-7236000D01*
X3919000Y-7236000D02*
G75*
G03*
X3919000Y-7236000I-50000J0D01*
G01*
X3869000Y-7440000D02*
X3869000Y-7540000D01*
X3819000Y-7490000D02*
X3919000Y-7490000D01*
X3919000Y-7490000D02*
G75*
G03*
X3919000Y-7490000I-50000J0D01*
G01*
X3869000Y-7694000D02*
X3869000Y-7794000D01*
X3819000Y-7744000D02*
X3919000Y-7744000D01*
X3919000Y-7744000D02*
G75*
G03*
X3919000Y-7744000I-50000J0D01*
G01*
X3869000Y-7948000D02*
X3869000Y-8048000D01*
X3819000Y-7998000D02*
X3919000Y-7998000D01*
X3919000Y-7998000D02*
G75*
G03*
X3919000Y-7998000I-50000J0D01*
G01*
X3869000Y-8202000D02*
X3869000Y-8302000D01*
X3819000Y-8252000D02*
X3919000Y-8252000D01*
X3919000Y-8252000D02*
G75*
G03*
X3919000Y-8252000I-50000J0D01*
G01*
X3869000Y-8456000D02*
X3869000Y-8556000D01*
X3819000Y-8506000D02*
X3919000Y-8506000D01*
X3919000Y-8506000D02*
G75*
G03*
X3919000Y-8506000I-50000J0D01*
G01*
X3869000Y-8710000D02*
X3869000Y-8810000D01*
X3819000Y-8760000D02*
X3919000Y-8760000D01*
X3919000Y-8760000D02*
G75*
G03*
X3919000Y-8760000I-50000J0D01*
G01*
X3869000Y-8964000D02*
X3869000Y-9064000D01*
X3819000Y-9014000D02*
X3919000Y-9014000D01*
X3919000Y-9014000D02*
G75*
G03*
X3919000Y-9014000I-50000J0D01*
G01*
X3869000Y-9218000D02*
X3869000Y-9318000D01*
X3819000Y-9268000D02*
X3919000Y-9268000D01*
X3919000Y-9268000D02*
G75*
G03*
X3919000Y-9268000I-50000J0D01*
G01*
X3869000Y-9472000D02*
X3869000Y-9572000D01*
X3819000Y-9522000D02*
X3919000Y-9522000D01*
X3919000Y-9522000D02*
G75*
G03*
X3919000Y-9522000I-50000J0D01*
G01*
X3869000Y-9726000D02*
X3869000Y-9826000D01*
X3819000Y-9776000D02*
X3919000Y-9776000D01*
X3919000Y-9776000D02*
G75*
G03*
X3919000Y-9776000I-50000J0D01*
G01*
X3869000Y-9980000D02*
X3869000Y-10080000D01*
X3819000Y-10030000D02*
X3919000Y-10030000D01*
X3919000Y-10030000D02*
G75*
G03*
X3919000Y-10030000I-50000J0D01*
G01*
X3869000Y-10234000D02*
X3869000Y-10334000D01*
X3819000Y-10284000D02*
X3919000Y-10284000D01*
X3919000Y-10284000D02*
G75*
G03*
X3919000Y-10284000I-50000J0D01*
G01*
X3869000Y-10488000D02*
X3869000Y-10588000D01*
X3819000Y-10538000D02*
X3919000Y-10538000D01*
X3919000Y-10538000D02*
G75*
G03*
X3919000Y-10538000I-50000J0D01*
G01*
X3869000Y-10742000D02*
X3869000Y-10842000D01*
X3819000Y-10792000D02*
X3919000Y-10792000D01*
X3919000Y-10792000D02*
G75*
G03*
X3919000Y-10792000I-50000J0D01*
G01*
X3869000Y-10996000D02*
X3869000Y-11096000D01*
X3819000Y-11046000D02*
X3919000Y-11046000D01*
X3919000Y-11046000D02*
G75*
G03*
X3919000Y-11046000I-50000J0D01*
G01*
X3869000Y-11250000D02*
X3869000Y-11350000D01*
X3819000Y-11300000D02*
X3919000Y-11300000D01*
X3919000Y-11300000D02*
G75*
G03*
X3919000Y-11300000I-50000J0D01*
G01*
X3869000Y-11504000D02*
X3869000Y-11604000D01*
X3819000Y-11554000D02*
X3919000Y-11554000D01*
X3919000Y-11554000D02*
G75*
G03*
X3919000Y-11554000I-50000J0D01*
G01*
X3869000Y-11758000D02*
X3869000Y-11858000D01*
X3819000Y-11808000D02*
X3919000Y-11808000D01*
X3919000Y-11808000D02*
G75*
G03*
X3919000Y-11808000I-50000J0D01*
G01*
X3869000Y-12012000D02*
X3869000Y-12112000D01*
X3819000Y-12062000D02*
X3919000Y-12062000D01*
X3919000Y-12062000D02*
G75*
G03*
X3919000Y-12062000I-50000J0D01*
G01*
X3869000Y-12266000D02*
X3869000Y-12366000D01*
X3819000Y-12316000D02*
X3919000Y-12316000D01*
X3919000Y-12316000D02*
G75*
G03*
X3919000Y-12316000I-50000J0D01*
G01*
X3869000Y-12520000D02*
X3869000Y-12620000D01*
X3819000Y-12570000D02*
X3919000Y-12570000D01*
X3919000Y-12570000D02*
G75*
G03*
X3919000Y-12570000I-50000J0D01*
G01*
X3869000Y-12774000D02*
X3869000Y-12874000D01*
X3819000Y-12824000D02*
X3919000Y-12824000D01*
X3919000Y-12824000D02*
G75*
G03*
X3919000Y-12824000I-50000J0D01*
G01*
X3869000Y-13028000D02*
X3869000Y-13128000D01*
X3819000Y-13078000D02*
X3919000Y-13078000D01*
X3919000Y-13078000D02*
G75*
G03*
X3919000Y-13078000I-50000J0D01*
G01*
X3935500Y-5216000D02*
X3935500Y-5316000D01*
X3885500Y-5266000D02*
X3985500Y-5266000D01*
X3985500Y-5266000D02*
G75*
G03*
X3985500Y-5266000I-50000J0D01*
G01*
X4189500Y-5216000D02*
X4189500Y-5316000D01*
X4139500Y-5266000D02*
X4239500Y-5266000D01*
X4239500Y-5266000D02*
G75*
G03*
X4239500Y-5266000I-50000J0D01*
G01*
X4443500Y-5216000D02*
X4443500Y-5316000D01*
X4393500Y-5266000D02*
X4493500Y-5266000D01*
X4493500Y-5266000D02*
G75*
G03*
X4493500Y-5266000I-50000J0D01*
G01*
X4697500Y-5216000D02*
X4697500Y-5316000D01*
X4647500Y-5266000D02*
X4747500Y-5266000D01*
X4747500Y-5266000D02*
G75*
G03*
X4747500Y-5266000I-50000J0D01*
G01*
X4951500Y-5216000D02*
X4951500Y-5316000D01*
X4901500Y-5266000D02*
X5001500Y-5266000D01*
X5001500Y-5266000D02*
G75*
G03*
X5001500Y-5266000I-50000J0D01*
G01*
X5205500Y-5216000D02*
X5205500Y-5316000D01*
X5155500Y-5266000D02*
X5255500Y-5266000D01*
X5255500Y-5266000D02*
G75*
G03*
X5255500Y-5266000I-50000J0D01*
G01*
X5459500Y-5216000D02*
X5459500Y-5316000D01*
X5409500Y-5266000D02*
X5509500Y-5266000D01*
X5509500Y-5266000D02*
G75*
G03*
X5509500Y-5266000I-50000J0D01*
G01*
X5463500Y-14623000D02*
X5463500Y-14723000D01*
X5413500Y-14673000D02*
X5513500Y-14673000D01*
X5513500Y-14673000D02*
G75*
G03*
X5513500Y-14673000I-50000J0D01*
G01*
X5713500Y-5216000D02*
X5713500Y-5316000D01*
X5663500Y-5266000D02*
X5763500Y-5266000D01*
X5763500Y-5266000D02*
G75*
G03*
X5763500Y-5266000I-50000J0D01*
G01*
X5717500Y-14623000D02*
X5717500Y-14723000D01*
X5667500Y-14673000D02*
X5767500Y-14673000D01*
X5767500Y-14673000D02*
G75*
G03*
X5767500Y-14673000I-50000J0D01*
G01*
X5967500Y-5216000D02*
X5967500Y-5316000D01*
X5917500Y-5266000D02*
X6017500Y-5266000D01*
X6017500Y-5266000D02*
G75*
G03*
X6017500Y-5266000I-50000J0D01*
G01*
X5971500Y-14623000D02*
X5971500Y-14723000D01*
X5921500Y-14673000D02*
X6021500Y-14673000D01*
X6021500Y-14673000D02*
G75*
G03*
X6021500Y-14673000I-50000J0D01*
G01*
X6221500Y-5216000D02*
X6221500Y-5316000D01*
X6171500Y-5266000D02*
X6271500Y-5266000D01*
X6271500Y-5266000D02*
G75*
G03*
X6271500Y-5266000I-50000J0D01*
G01*
X6225500Y-14623000D02*
X6225500Y-14723000D01*
X6175500Y-14673000D02*
X6275500Y-14673000D01*
X6275500Y-14673000D02*
G75*
G03*
X6275500Y-14673000I-50000J0D01*
G01*
X6475500Y-5216000D02*
X6475500Y-5316000D01*
X6425500Y-5266000D02*
X6525500Y-5266000D01*
X6525500Y-5266000D02*
G75*
G03*
X6525500Y-5266000I-50000J0D01*
G01*
X6479500Y-14623000D02*
X6479500Y-14723000D01*
X6429500Y-14673000D02*
X6529500Y-14673000D01*
X6529500Y-14673000D02*
G75*
G03*
X6529500Y-14673000I-50000J0D01*
G01*
X6729500Y-5216000D02*
X6729500Y-5316000D01*
X6679500Y-5266000D02*
X6779500Y-5266000D01*
X6779500Y-5266000D02*
G75*
G03*
X6779500Y-5266000I-50000J0D01*
G01*
X6733500Y-14623000D02*
X6733500Y-14723000D01*
X6683500Y-14673000D02*
X6783500Y-14673000D01*
X6783500Y-14673000D02*
G75*
G03*
X6783500Y-14673000I-50000J0D01*
G01*
X6983500Y-5216000D02*
X6983500Y-5316000D01*
X6933500Y-5266000D02*
X7033500Y-5266000D01*
X7033500Y-5266000D02*
G75*
G03*
X7033500Y-5266000I-50000J0D01*
G01*
X6987500Y-14623000D02*
X6987500Y-14723000D01*
X6937500Y-14673000D02*
X7037500Y-14673000D01*
X7037500Y-14673000D02*
G75*
G03*
X7037500Y-14673000I-50000J0D01*
G01*
X7241500Y-14623000D02*
X7241500Y-14723000D01*
X7191500Y-14673000D02*
X7291500Y-14673000D01*
X7291500Y-14673000D02*
G75*
G03*
X7291500Y-14673000I-50000J0D01*
G01*
X7495500Y-14623000D02*
X7495500Y-14723000D01*
X7445500Y-14673000D02*
X7545500Y-14673000D01*
X7545500Y-14673000D02*
G75*
G03*
X7545500Y-14673000I-50000J0D01*
G01*
X7749500Y-14623000D02*
X7749500Y-14723000D01*
X7699500Y-14673000D02*
X7799500Y-14673000D01*
X7799500Y-14673000D02*
G75*
G03*
X7799500Y-14673000I-50000J0D01*
G01*
X8003500Y-14623000D02*
X8003500Y-14723000D01*
X7953500Y-14673000D02*
X8053500Y-14673000D01*
X8053500Y-14673000D02*
G75*
G03*
X8053500Y-14673000I-50000J0D01*
G01*
X8257500Y-14623000D02*
X8257500Y-14723000D01*
X8207500Y-14673000D02*
X8307500Y-14673000D01*
X8307500Y-14673000D02*
G75*
G03*
X8307500Y-14673000I-50000J0D01*
G01*
X8511500Y-14623000D02*
X8511500Y-14723000D01*
X8461500Y-14673000D02*
X8561500Y-14673000D01*
X8561500Y-14673000D02*
G75*
G03*
X8561500Y-14673000I-50000J0D01*
G01*
X8765500Y-14623000D02*
X8765500Y-14723000D01*
X8715500Y-14673000D02*
X8815500Y-14673000D01*
X8815500Y-14673000D02*
G75*
G03*
X8815500Y-14673000I-50000J0D01*
G01*
X9019500Y-14623000D02*
X9019500Y-14723000D01*
X8969500Y-14673000D02*
X9069500Y-14673000D01*
X9069500Y-14673000D02*
G75*
G03*
X9069500Y-14673000I-50000J0D01*
G01*
X9273500Y-14623000D02*
X9273500Y-14723000D01*
X9223500Y-14673000D02*
X9323500Y-14673000D01*
X9323500Y-14673000D02*
G75*
G03*
X9323500Y-14673000I-50000J0D01*
G01*
X9527500Y-14623000D02*
X9527500Y-14723000D01*
X9477500Y-14673000D02*
X9577500Y-14673000D01*
X9577500Y-14673000D02*
G75*
G03*
X9577500Y-14673000I-50000J0D01*
G01*
X9781500Y-14623000D02*
X9781500Y-14723000D01*
X9731500Y-14673000D02*
X9831500Y-14673000D01*
X9831500Y-14673000D02*
G75*
G03*
X9831500Y-14673000I-50000J0D01*
G01*
X10035500Y-14623000D02*
X10035500Y-14723000D01*
X9985500Y-14673000D02*
X10085500Y-14673000D01*
X10085500Y-14673000D02*
G75*
G03*
X10085500Y-14673000I-50000J0D01*
G01*
X10289500Y-14623000D02*
X10289500Y-14723000D01*
X10239500Y-14673000D02*
X10339500Y-14673000D01*
X10339500Y-14673000D02*
G75*
G03*
X10339500Y-14673000I-50000J0D01*
G01*
X10412500Y-5216000D02*
X10412500Y-5316000D01*
X10362500Y-5266000D02*
X10462500Y-5266000D01*
X10462500Y-5266000D02*
G75*
G03*
X10462500Y-5266000I-50000J0D01*
G01*
X10543500Y-14623000D02*
X10543500Y-14723000D01*
X10493500Y-14673000D02*
X10593500Y-14673000D01*
X10593500Y-14673000D02*
G75*
G03*
X10593500Y-14673000I-50000J0D01*
G01*
X10666500Y-5216000D02*
X10666500Y-5316000D01*
X10616500Y-5266000D02*
X10716500Y-5266000D01*
X10716500Y-5266000D02*
G75*
G03*
X10716500Y-5266000I-50000J0D01*
G01*
X10797500Y-14623000D02*
X10797500Y-14723000D01*
X10747500Y-14673000D02*
X10847500Y-14673000D01*
X10847500Y-14673000D02*
G75*
G03*
X10847500Y-14673000I-50000J0D01*
G01*
X10920500Y-5216000D02*
X10920500Y-5316000D01*
X10870500Y-5266000D02*
X10970500Y-5266000D01*
X10970500Y-5266000D02*
G75*
G03*
X10970500Y-5266000I-50000J0D01*
G01*
X11051500Y-14623000D02*
X11051500Y-14723000D01*
X11001500Y-14673000D02*
X11101500Y-14673000D01*
X11101500Y-14673000D02*
G75*
G03*
X11101500Y-14673000I-50000J0D01*
G01*
X11174500Y-5216000D02*
X11174500Y-5316000D01*
X11124500Y-5266000D02*
X11224500Y-5266000D01*
X11224500Y-5266000D02*
G75*
G03*
X11224500Y-5266000I-50000J0D01*
G01*
X11305500Y-14623000D02*
X11305500Y-14723000D01*
X11255500Y-14673000D02*
X11355500Y-14673000D01*
X11355500Y-14673000D02*
G75*
G03*
X11355500Y-14673000I-50000J0D01*
G01*
X11428500Y-5216000D02*
X11428500Y-5316000D01*
X11378500Y-5266000D02*
X11478500Y-5266000D01*
X11478500Y-5266000D02*
G75*
G03*
X11478500Y-5266000I-50000J0D01*
G01*
X11559500Y-14623000D02*
X11559500Y-14723000D01*
X11509500Y-14673000D02*
X11609500Y-14673000D01*
X11609500Y-14673000D02*
G75*
G03*
X11609500Y-14673000I-50000J0D01*
G01*
X11682500Y-5216000D02*
X11682500Y-5316000D01*
X11632500Y-5266000D02*
X11732500Y-5266000D01*
X11732500Y-5266000D02*
G75*
G03*
X11732500Y-5266000I-50000J0D01*
G01*
X11813500Y-14623000D02*
X11813500Y-14723000D01*
X11763500Y-14673000D02*
X11863500Y-14673000D01*
X11863500Y-14673000D02*
G75*
G03*
X11863500Y-14673000I-50000J0D01*
G01*
X11936500Y-5216000D02*
X11936500Y-5316000D01*
X11886500Y-5266000D02*
X11986500Y-5266000D01*
X11986500Y-5266000D02*
G75*
G03*
X11986500Y-5266000I-50000J0D01*
G01*
X12190500Y-5216000D02*
X12190500Y-5316000D01*
X12140500Y-5266000D02*
X12240500Y-5266000D01*
X12240500Y-5266000D02*
G75*
G03*
X12240500Y-5266000I-50000J0D01*
G01*
X12444500Y-5216000D02*
X12444500Y-5316000D01*
X12394500Y-5266000D02*
X12494500Y-5266000D01*
X12494500Y-5266000D02*
G75*
G03*
X12494500Y-5266000I-50000J0D01*
G01*
X12698500Y-5216000D02*
X12698500Y-5316000D01*
X12648500Y-5266000D02*
X12748500Y-5266000D01*
X12748500Y-5266000D02*
G75*
G03*
X12748500Y-5266000I-50000J0D01*
G01*
X12952500Y-5216000D02*
X12952500Y-5316000D01*
X12902500Y-5266000D02*
X13002500Y-5266000D01*
X13002500Y-5266000D02*
G75*
G03*
X13002500Y-5266000I-50000J0D01*
G01*
X13206500Y-5216000D02*
X13206500Y-5316000D01*
X13156500Y-5266000D02*
X13256500Y-5266000D01*
X13256500Y-5266000D02*
G75*
G03*
X13256500Y-5266000I-50000J0D01*
G01*
X13276000Y-6811000D02*
X13276000Y-6911000D01*
X13226000Y-6861000D02*
X13326000Y-6861000D01*
X13326000Y-6861000D02*
G75*
G03*
X13326000Y-6861000I-50000J0D01*
G01*
X13276000Y-7065000D02*
X13276000Y-7165000D01*
X13226000Y-7115000D02*
X13326000Y-7115000D01*
X13326000Y-7115000D02*
G75*
G03*
X13326000Y-7115000I-50000J0D01*
G01*
X13276000Y-7319000D02*
X13276000Y-7419000D01*
X13226000Y-7369000D02*
X13326000Y-7369000D01*
X13326000Y-7369000D02*
G75*
G03*
X13326000Y-7369000I-50000J0D01*
G01*
X13276000Y-7573000D02*
X13276000Y-7673000D01*
X13226000Y-7623000D02*
X13326000Y-7623000D01*
X13326000Y-7623000D02*
G75*
G03*
X13326000Y-7623000I-50000J0D01*
G01*
X13276000Y-7827000D02*
X13276000Y-7927000D01*
X13226000Y-7877000D02*
X13326000Y-7877000D01*
X13326000Y-7877000D02*
G75*
G03*
X13326000Y-7877000I-50000J0D01*
G01*
X13276000Y-8081000D02*
X13276000Y-8181000D01*
X13226000Y-8131000D02*
X13326000Y-8131000D01*
X13326000Y-8131000D02*
G75*
G03*
X13326000Y-8131000I-50000J0D01*
G01*
X13276000Y-8335000D02*
X13276000Y-8435000D01*
X13226000Y-8385000D02*
X13326000Y-8385000D01*
X13326000Y-8385000D02*
G75*
G03*
X13326000Y-8385000I-50000J0D01*
G01*
X13276000Y-8589000D02*
X13276000Y-8689000D01*
X13226000Y-8639000D02*
X13326000Y-8639000D01*
X13326000Y-8639000D02*
G75*
G03*
X13326000Y-8639000I-50000J0D01*
G01*
X13276000Y-8843000D02*
X13276000Y-8943000D01*
X13226000Y-8893000D02*
X13326000Y-8893000D01*
X13326000Y-8893000D02*
G75*
G03*
X13326000Y-8893000I-50000J0D01*
G01*
X13276000Y-9097000D02*
X13276000Y-9197000D01*
X13226000Y-9147000D02*
X13326000Y-9147000D01*
X13326000Y-9147000D02*
G75*
G03*
X13326000Y-9147000I-50000J0D01*
G01*
X13276000Y-9351000D02*
X13276000Y-9451000D01*
X13226000Y-9401000D02*
X13326000Y-9401000D01*
X13326000Y-9401000D02*
G75*
G03*
X13326000Y-9401000I-50000J0D01*
G01*
X13276000Y-9605000D02*
X13276000Y-9705000D01*
X13226000Y-9655000D02*
X13326000Y-9655000D01*
X13326000Y-9655000D02*
G75*
G03*
X13326000Y-9655000I-50000J0D01*
G01*
X13460500Y-5216000D02*
X13460500Y-5316000D01*
X13410500Y-5266000D02*
X13510500Y-5266000D01*
X13510500Y-5266000D02*
G75*
G03*
X13510500Y-5266000I-50000J0D01*
G01*
D11*
X3808619Y-15301476D02*
X3808619Y-15101476D01*
X3856238Y-15101476D01*
X3884809Y-15111000D01*
X3903857Y-15130048D01*
X3913381Y-15149095D01*
X3922905Y-15187190D01*
X3922905Y-15215762D01*
X3913381Y-15253857D01*
X3903857Y-15272905D01*
X3884809Y-15291952D01*
X3856238Y-15301476D01*
X3808619Y-15301476D01*
X4008619Y-15301476D02*
X4008619Y-15168143D01*
X4008619Y-15206238D02*
X4018143Y-15187190D01*
X4027667Y-15177667D01*
X4046714Y-15168143D01*
X4065762Y-15168143D01*
X4132428Y-15301476D02*
X4132428Y-15168143D01*
X4132428Y-15101476D02*
X4122905Y-15111000D01*
X4132428Y-15120524D01*
X4141952Y-15111000D01*
X4132428Y-15101476D01*
X4132428Y-15120524D01*
X4256238Y-15301476D02*
X4237190Y-15291952D01*
X4227667Y-15272905D01*
X4227667Y-15101476D01*
X4361000Y-15301476D02*
X4341952Y-15291952D01*
X4332429Y-15272905D01*
X4332429Y-15101476D01*
X4589571Y-15301476D02*
X4589571Y-15101476D01*
X4656238Y-15244333D01*
X4722905Y-15101476D01*
X4722905Y-15301476D01*
X4903857Y-15301476D02*
X4903857Y-15196714D01*
X4894333Y-15177667D01*
X4875286Y-15168143D01*
X4837190Y-15168143D01*
X4818143Y-15177667D01*
X4903857Y-15291952D02*
X4884810Y-15301476D01*
X4837190Y-15301476D01*
X4818143Y-15291952D01*
X4808619Y-15272905D01*
X4808619Y-15253857D01*
X4818143Y-15234809D01*
X4837190Y-15225286D01*
X4884810Y-15225286D01*
X4903857Y-15215762D01*
X4999095Y-15168143D02*
X4999095Y-15368143D01*
X4999095Y-15177667D02*
X5018143Y-15168143D01*
X5056238Y-15168143D01*
X5075286Y-15177667D01*
X5084810Y-15187190D01*
X5094333Y-15206238D01*
X5094333Y-15263381D01*
X5084810Y-15282428D01*
X5075286Y-15291952D01*
X5056238Y-15301476D01*
X5018143Y-15301476D01*
X4999095Y-15291952D01*
X5180048Y-15282428D02*
X5189571Y-15291952D01*
X5180048Y-15301476D01*
X5170524Y-15291952D01*
X5180048Y-15282428D01*
X5180048Y-15301476D01*
X5180048Y-15177667D02*
X5189571Y-15187190D01*
X5180048Y-15196714D01*
X5170524Y-15187190D01*
X5180048Y-15177667D01*
X5180048Y-15196714D01*
D12*
X3511000Y-15611000D02*
X3551000Y-15651000D01*
X3551000Y-15611000D02*
X3511000Y-15651000D01*
D11*
X3846714Y-15521476D02*
X3865762Y-15521476D01*
X3884809Y-15531000D01*
X3894333Y-15540524D01*
X3903857Y-15559571D01*
X3913381Y-15597667D01*
X3913381Y-15645286D01*
X3903857Y-15683381D01*
X3894333Y-15702428D01*
X3884809Y-15711952D01*
X3865762Y-15721476D01*
X3846714Y-15721476D01*
X3827667Y-15711952D01*
X3818143Y-15702428D01*
X3808619Y-15683381D01*
X3799095Y-15645286D01*
X3799095Y-15597667D01*
X3808619Y-15559571D01*
X3818143Y-15540524D01*
X3827667Y-15531000D01*
X3846714Y-15521476D01*
X3999095Y-15702428D02*
X4008619Y-15711952D01*
X3999095Y-15721476D01*
X3989571Y-15711952D01*
X3999095Y-15702428D01*
X3999095Y-15721476D01*
X4180048Y-15588143D02*
X4180048Y-15721476D01*
X4132428Y-15511952D02*
X4084809Y-15654809D01*
X4208619Y-15654809D01*
X4322905Y-15521476D02*
X4341952Y-15521476D01*
X4361000Y-15531000D01*
X4370524Y-15540524D01*
X4380048Y-15559571D01*
X4389571Y-15597667D01*
X4389571Y-15645286D01*
X4380048Y-15683381D01*
X4370524Y-15702428D01*
X4361000Y-15711952D01*
X4341952Y-15721476D01*
X4322905Y-15721476D01*
X4303857Y-15711952D01*
X4294333Y-15702428D01*
X4284810Y-15683381D01*
X4275286Y-15645286D01*
X4275286Y-15597667D01*
X4284810Y-15559571D01*
X4294333Y-15540524D01*
X4303857Y-15531000D01*
X4322905Y-15521476D01*
X4513381Y-15521476D02*
X4532429Y-15521476D01*
X4551476Y-15531000D01*
X4561000Y-15540524D01*
X4570524Y-15559571D01*
X4580048Y-15597667D01*
X4580048Y-15645286D01*
X4570524Y-15683381D01*
X4561000Y-15702428D01*
X4551476Y-15711952D01*
X4532429Y-15721476D01*
X4513381Y-15721476D01*
X4494333Y-15711952D01*
X4484810Y-15702428D01*
X4475286Y-15683381D01*
X4465762Y-15645286D01*
X4465762Y-15597667D01*
X4475286Y-15559571D01*
X4484810Y-15540524D01*
X4494333Y-15531000D01*
X4513381Y-15521476D01*
X4665762Y-15721476D02*
X4665762Y-15588143D01*
X4665762Y-15607190D02*
X4675286Y-15597667D01*
X4694333Y-15588143D01*
X4722905Y-15588143D01*
X4741952Y-15597667D01*
X4751476Y-15616714D01*
X4751476Y-15721476D01*
X4751476Y-15616714D02*
X4761000Y-15597667D01*
X4780048Y-15588143D01*
X4808619Y-15588143D01*
X4827667Y-15597667D01*
X4837190Y-15616714D01*
X4837190Y-15721476D01*
X4932429Y-15721476D02*
X4932429Y-15588143D01*
X4932429Y-15607190D02*
X4941952Y-15597667D01*
X4961000Y-15588143D01*
X4989571Y-15588143D01*
X5008619Y-15597667D01*
X5018143Y-15616714D01*
X5018143Y-15721476D01*
X5018143Y-15616714D02*
X5027667Y-15597667D01*
X5046714Y-15588143D01*
X5075286Y-15588143D01*
X5094333Y-15597667D01*
X5103857Y-15616714D01*
X5103857Y-15721476D01*
X5494333Y-15511952D02*
X5322905Y-15769095D01*
X5751476Y-15521476D02*
X5770524Y-15521476D01*
X5789571Y-15531000D01*
X5799095Y-15540524D01*
X5808619Y-15559571D01*
X5818143Y-15597667D01*
X5818143Y-15645286D01*
X5808619Y-15683381D01*
X5799095Y-15702428D01*
X5789571Y-15711952D01*
X5770524Y-15721476D01*
X5751476Y-15721476D01*
X5732428Y-15711952D01*
X5722905Y-15702428D01*
X5713381Y-15683381D01*
X5703857Y-15645286D01*
X5703857Y-15597667D01*
X5713381Y-15559571D01*
X5722905Y-15540524D01*
X5732428Y-15531000D01*
X5751476Y-15521476D01*
X5903857Y-15702428D02*
X5913381Y-15711952D01*
X5903857Y-15721476D01*
X5894333Y-15711952D01*
X5903857Y-15702428D01*
X5903857Y-15721476D01*
X6037190Y-15521476D02*
X6056238Y-15521476D01*
X6075286Y-15531000D01*
X6084809Y-15540524D01*
X6094333Y-15559571D01*
X6103857Y-15597667D01*
X6103857Y-15645286D01*
X6094333Y-15683381D01*
X6084809Y-15702428D01*
X6075286Y-15711952D01*
X6056238Y-15721476D01*
X6037190Y-15721476D01*
X6018143Y-15711952D01*
X6008619Y-15702428D01*
X5999095Y-15683381D01*
X5989571Y-15645286D01*
X5989571Y-15597667D01*
X5999095Y-15559571D01*
X6008619Y-15540524D01*
X6018143Y-15531000D01*
X6037190Y-15521476D01*
X6294333Y-15721476D02*
X6180048Y-15721476D01*
X6237190Y-15721476D02*
X6237190Y-15521476D01*
X6218143Y-15550048D01*
X6199095Y-15569095D01*
X6180048Y-15578619D01*
X6475286Y-15521476D02*
X6380048Y-15521476D01*
X6370524Y-15616714D01*
X6380048Y-15607190D01*
X6399095Y-15597667D01*
X6446714Y-15597667D01*
X6465762Y-15607190D01*
X6475286Y-15616714D01*
X6484809Y-15635762D01*
X6484809Y-15683381D01*
X6475286Y-15702428D01*
X6465762Y-15711952D01*
X6446714Y-15721476D01*
X6399095Y-15721476D01*
X6380048Y-15711952D01*
X6370524Y-15702428D01*
X6551476Y-15521476D02*
X6684809Y-15521476D01*
X6599095Y-15721476D01*
X6751476Y-15521476D02*
X6751476Y-15559571D01*
X6827667Y-15521476D02*
X6827667Y-15559571D01*
X7122905Y-15797667D02*
X7113381Y-15788143D01*
X7094333Y-15759571D01*
X7084809Y-15740524D01*
X7075286Y-15711952D01*
X7065762Y-15664333D01*
X7065762Y-15626238D01*
X7075286Y-15578619D01*
X7084809Y-15550048D01*
X7094333Y-15531000D01*
X7113381Y-15502428D01*
X7122905Y-15492905D01*
X7189571Y-15540524D02*
X7199095Y-15531000D01*
X7218143Y-15521476D01*
X7265762Y-15521476D01*
X7284809Y-15531000D01*
X7294333Y-15540524D01*
X7303857Y-15559571D01*
X7303857Y-15578619D01*
X7294333Y-15607190D01*
X7180048Y-15721476D01*
X7303857Y-15721476D01*
X7484809Y-15521476D02*
X7389571Y-15521476D01*
X7380048Y-15616714D01*
X7389571Y-15607190D01*
X7408619Y-15597667D01*
X7456238Y-15597667D01*
X7475286Y-15607190D01*
X7484809Y-15616714D01*
X7494333Y-15635762D01*
X7494333Y-15683381D01*
X7484809Y-15702428D01*
X7475286Y-15711952D01*
X7456238Y-15721476D01*
X7408619Y-15721476D01*
X7389571Y-15711952D01*
X7380048Y-15702428D01*
X7675286Y-15521476D02*
X7580048Y-15521476D01*
X7570524Y-15616714D01*
X7580048Y-15607190D01*
X7599095Y-15597667D01*
X7646714Y-15597667D01*
X7665762Y-15607190D01*
X7675286Y-15616714D01*
X7684809Y-15635762D01*
X7684809Y-15683381D01*
X7675286Y-15702428D01*
X7665762Y-15711952D01*
X7646714Y-15721476D01*
X7599095Y-15721476D01*
X7580048Y-15711952D01*
X7570524Y-15702428D01*
X7922905Y-15721476D02*
X7922905Y-15521476D01*
X8008619Y-15721476D02*
X8008619Y-15616714D01*
X7999095Y-15597667D01*
X7980048Y-15588143D01*
X7951476Y-15588143D01*
X7932428Y-15597667D01*
X7922905Y-15607190D01*
X8132428Y-15721476D02*
X8113381Y-15711952D01*
X8103857Y-15702428D01*
X8094333Y-15683381D01*
X8094333Y-15626238D01*
X8103857Y-15607190D01*
X8113381Y-15597667D01*
X8132428Y-15588143D01*
X8161000Y-15588143D01*
X8180048Y-15597667D01*
X8189571Y-15607190D01*
X8199095Y-15626238D01*
X8199095Y-15683381D01*
X8189571Y-15702428D01*
X8180048Y-15711952D01*
X8161000Y-15721476D01*
X8132428Y-15721476D01*
X8313381Y-15721476D02*
X8294333Y-15711952D01*
X8284809Y-15692905D01*
X8284809Y-15521476D01*
X8465762Y-15711952D02*
X8446714Y-15721476D01*
X8408619Y-15721476D01*
X8389571Y-15711952D01*
X8380048Y-15692905D01*
X8380048Y-15616714D01*
X8389571Y-15597667D01*
X8408619Y-15588143D01*
X8446714Y-15588143D01*
X8465762Y-15597667D01*
X8475286Y-15616714D01*
X8475286Y-15635762D01*
X8380048Y-15654809D01*
X8551476Y-15711952D02*
X8570524Y-15721476D01*
X8608619Y-15721476D01*
X8627667Y-15711952D01*
X8637190Y-15692905D01*
X8637190Y-15683381D01*
X8627667Y-15664333D01*
X8608619Y-15654809D01*
X8580048Y-15654809D01*
X8561000Y-15645286D01*
X8551476Y-15626238D01*
X8551476Y-15616714D01*
X8561000Y-15597667D01*
X8580048Y-15588143D01*
X8608619Y-15588143D01*
X8627667Y-15597667D01*
X8703857Y-15797667D02*
X8713381Y-15788143D01*
X8732429Y-15759571D01*
X8741952Y-15740524D01*
X8751476Y-15711952D01*
X8761000Y-15664333D01*
X8761000Y-15626238D01*
X8751476Y-15578619D01*
X8741952Y-15550048D01*
X8732429Y-15531000D01*
X8713381Y-15502428D01*
X8703857Y-15492905D01*
D13*
X3551000Y-15895000D02*
G75*
G03*
X3551000Y-15895000I-32500J0D01*
G01*
D11*
X3846714Y-15785476D02*
X3865762Y-15785476D01*
X3884809Y-15795000D01*
X3894333Y-15804524D01*
X3903857Y-15823571D01*
X3913381Y-15861667D01*
X3913381Y-15909286D01*
X3903857Y-15947381D01*
X3894333Y-15966428D01*
X3884809Y-15975952D01*
X3865762Y-15985476D01*
X3846714Y-15985476D01*
X3827667Y-15975952D01*
X3818143Y-15966428D01*
X3808619Y-15947381D01*
X3799095Y-15909286D01*
X3799095Y-15861667D01*
X3808619Y-15823571D01*
X3818143Y-15804524D01*
X3827667Y-15795000D01*
X3846714Y-15785476D01*
X3999095Y-15966428D02*
X4008619Y-15975952D01*
X3999095Y-15985476D01*
X3989571Y-15975952D01*
X3999095Y-15966428D01*
X3999095Y-15985476D01*
X4180048Y-15785476D02*
X4141952Y-15785476D01*
X4122905Y-15795000D01*
X4113381Y-15804524D01*
X4094333Y-15833095D01*
X4084809Y-15871190D01*
X4084809Y-15947381D01*
X4094333Y-15966428D01*
X4103857Y-15975952D01*
X4122905Y-15985476D01*
X4161000Y-15985476D01*
X4180048Y-15975952D01*
X4189571Y-15966428D01*
X4199095Y-15947381D01*
X4199095Y-15899762D01*
X4189571Y-15880714D01*
X4180048Y-15871190D01*
X4161000Y-15861667D01*
X4122905Y-15861667D01*
X4103857Y-15871190D01*
X4094333Y-15880714D01*
X4084809Y-15899762D01*
X4380048Y-15785476D02*
X4284810Y-15785476D01*
X4275286Y-15880714D01*
X4284810Y-15871190D01*
X4303857Y-15861667D01*
X4351476Y-15861667D01*
X4370524Y-15871190D01*
X4380048Y-15880714D01*
X4389571Y-15899762D01*
X4389571Y-15947381D01*
X4380048Y-15966428D01*
X4370524Y-15975952D01*
X4351476Y-15985476D01*
X4303857Y-15985476D01*
X4284810Y-15975952D01*
X4275286Y-15966428D01*
X4513381Y-15785476D02*
X4532429Y-15785476D01*
X4551476Y-15795000D01*
X4561000Y-15804524D01*
X4570524Y-15823571D01*
X4580048Y-15861667D01*
X4580048Y-15909286D01*
X4570524Y-15947381D01*
X4561000Y-15966428D01*
X4551476Y-15975952D01*
X4532429Y-15985476D01*
X4513381Y-15985476D01*
X4494333Y-15975952D01*
X4484810Y-15966428D01*
X4475286Y-15947381D01*
X4465762Y-15909286D01*
X4465762Y-15861667D01*
X4475286Y-15823571D01*
X4484810Y-15804524D01*
X4494333Y-15795000D01*
X4513381Y-15785476D01*
X4665762Y-15985476D02*
X4665762Y-15852143D01*
X4665762Y-15871190D02*
X4675286Y-15861667D01*
X4694333Y-15852143D01*
X4722905Y-15852143D01*
X4741952Y-15861667D01*
X4751476Y-15880714D01*
X4751476Y-15985476D01*
X4751476Y-15880714D02*
X4761000Y-15861667D01*
X4780048Y-15852143D01*
X4808619Y-15852143D01*
X4827667Y-15861667D01*
X4837190Y-15880714D01*
X4837190Y-15985476D01*
X4932429Y-15985476D02*
X4932429Y-15852143D01*
X4932429Y-15871190D02*
X4941952Y-15861667D01*
X4961000Y-15852143D01*
X4989571Y-15852143D01*
X5008619Y-15861667D01*
X5018143Y-15880714D01*
X5018143Y-15985476D01*
X5018143Y-15880714D02*
X5027667Y-15861667D01*
X5046714Y-15852143D01*
X5075286Y-15852143D01*
X5094333Y-15861667D01*
X5103857Y-15880714D01*
X5103857Y-15985476D01*
X5494333Y-15775952D02*
X5322905Y-16033095D01*
X5751476Y-15785476D02*
X5770524Y-15785476D01*
X5789571Y-15795000D01*
X5799095Y-15804524D01*
X5808619Y-15823571D01*
X5818143Y-15861667D01*
X5818143Y-15909286D01*
X5808619Y-15947381D01*
X5799095Y-15966428D01*
X5789571Y-15975952D01*
X5770524Y-15985476D01*
X5751476Y-15985476D01*
X5732428Y-15975952D01*
X5722905Y-15966428D01*
X5713381Y-15947381D01*
X5703857Y-15909286D01*
X5703857Y-15861667D01*
X5713381Y-15823571D01*
X5722905Y-15804524D01*
X5732428Y-15795000D01*
X5751476Y-15785476D01*
X5903857Y-15966428D02*
X5913381Y-15975952D01*
X5903857Y-15985476D01*
X5894333Y-15975952D01*
X5903857Y-15966428D01*
X5903857Y-15985476D01*
X6037190Y-15785476D02*
X6056238Y-15785476D01*
X6075286Y-15795000D01*
X6084809Y-15804524D01*
X6094333Y-15823571D01*
X6103857Y-15861667D01*
X6103857Y-15909286D01*
X6094333Y-15947381D01*
X6084809Y-15966428D01*
X6075286Y-15975952D01*
X6056238Y-15985476D01*
X6037190Y-15985476D01*
X6018143Y-15975952D01*
X6008619Y-15966428D01*
X5999095Y-15947381D01*
X5989571Y-15909286D01*
X5989571Y-15861667D01*
X5999095Y-15823571D01*
X6008619Y-15804524D01*
X6018143Y-15795000D01*
X6037190Y-15785476D01*
X6180048Y-15804524D02*
X6189571Y-15795000D01*
X6208619Y-15785476D01*
X6256238Y-15785476D01*
X6275286Y-15795000D01*
X6284809Y-15804524D01*
X6294333Y-15823571D01*
X6294333Y-15842619D01*
X6284809Y-15871190D01*
X6170524Y-15985476D01*
X6294333Y-15985476D01*
X6475286Y-15785476D02*
X6380048Y-15785476D01*
X6370524Y-15880714D01*
X6380048Y-15871190D01*
X6399095Y-15861667D01*
X6446714Y-15861667D01*
X6465762Y-15871190D01*
X6475286Y-15880714D01*
X6484809Y-15899762D01*
X6484809Y-15947381D01*
X6475286Y-15966428D01*
X6465762Y-15975952D01*
X6446714Y-15985476D01*
X6399095Y-15985476D01*
X6380048Y-15975952D01*
X6370524Y-15966428D01*
X6656238Y-15785476D02*
X6618143Y-15785476D01*
X6599095Y-15795000D01*
X6589571Y-15804524D01*
X6570524Y-15833095D01*
X6561000Y-15871190D01*
X6561000Y-15947381D01*
X6570524Y-15966428D01*
X6580048Y-15975952D01*
X6599095Y-15985476D01*
X6637190Y-15985476D01*
X6656238Y-15975952D01*
X6665762Y-15966428D01*
X6675286Y-15947381D01*
X6675286Y-15899762D01*
X6665762Y-15880714D01*
X6656238Y-15871190D01*
X6637190Y-15861667D01*
X6599095Y-15861667D01*
X6580048Y-15871190D01*
X6570524Y-15880714D01*
X6561000Y-15899762D01*
X6751476Y-15785476D02*
X6751476Y-15823571D01*
X6827667Y-15785476D02*
X6827667Y-15823571D01*
X7122905Y-16061667D02*
X7113381Y-16052143D01*
X7094333Y-16023571D01*
X7084809Y-16004524D01*
X7075286Y-15975952D01*
X7065762Y-15928333D01*
X7065762Y-15890238D01*
X7075286Y-15842619D01*
X7084809Y-15814048D01*
X7094333Y-15795000D01*
X7113381Y-15766428D01*
X7122905Y-15756905D01*
X7237190Y-15785476D02*
X7256238Y-15785476D01*
X7275286Y-15795000D01*
X7284809Y-15804524D01*
X7294333Y-15823571D01*
X7303857Y-15861667D01*
X7303857Y-15909286D01*
X7294333Y-15947381D01*
X7284809Y-15966428D01*
X7275286Y-15975952D01*
X7256238Y-15985476D01*
X7237190Y-15985476D01*
X7218143Y-15975952D01*
X7208619Y-15966428D01*
X7199095Y-15947381D01*
X7189571Y-15909286D01*
X7189571Y-15861667D01*
X7199095Y-15823571D01*
X7208619Y-15804524D01*
X7218143Y-15795000D01*
X7237190Y-15785476D01*
X7541952Y-15985476D02*
X7541952Y-15785476D01*
X7627667Y-15985476D02*
X7627667Y-15880714D01*
X7618143Y-15861667D01*
X7599095Y-15852143D01*
X7570524Y-15852143D01*
X7551476Y-15861667D01*
X7541952Y-15871190D01*
X7751476Y-15985476D02*
X7732428Y-15975952D01*
X7722905Y-15966428D01*
X7713381Y-15947381D01*
X7713381Y-15890238D01*
X7722905Y-15871190D01*
X7732428Y-15861667D01*
X7751476Y-15852143D01*
X7780048Y-15852143D01*
X7799095Y-15861667D01*
X7808619Y-15871190D01*
X7818143Y-15890238D01*
X7818143Y-15947381D01*
X7808619Y-15966428D01*
X7799095Y-15975952D01*
X7780048Y-15985476D01*
X7751476Y-15985476D01*
X7932428Y-15985476D02*
X7913381Y-15975952D01*
X7903857Y-15956905D01*
X7903857Y-15785476D01*
X8084809Y-15975952D02*
X8065762Y-15985476D01*
X8027667Y-15985476D01*
X8008619Y-15975952D01*
X7999095Y-15956905D01*
X7999095Y-15880714D01*
X8008619Y-15861667D01*
X8027667Y-15852143D01*
X8065762Y-15852143D01*
X8084809Y-15861667D01*
X8094333Y-15880714D01*
X8094333Y-15899762D01*
X7999095Y-15918809D01*
X8170524Y-15975952D02*
X8189571Y-15985476D01*
X8227667Y-15985476D01*
X8246714Y-15975952D01*
X8256238Y-15956905D01*
X8256238Y-15947381D01*
X8246714Y-15928333D01*
X8227667Y-15918809D01*
X8199095Y-15918809D01*
X8180048Y-15909286D01*
X8170524Y-15890238D01*
X8170524Y-15880714D01*
X8180048Y-15861667D01*
X8199095Y-15852143D01*
X8227667Y-15852143D01*
X8246714Y-15861667D01*
X8494333Y-15909286D02*
X8646714Y-15909286D01*
X8570524Y-15985476D02*
X8570524Y-15833095D01*
X8980048Y-15852143D02*
X8980048Y-15985476D01*
X8932429Y-15775952D02*
X8884810Y-15918809D01*
X9008619Y-15918809D01*
X9227667Y-15975952D02*
X9246714Y-15985476D01*
X9284810Y-15985476D01*
X9303857Y-15975952D01*
X9313381Y-15956905D01*
X9313381Y-15947381D01*
X9303857Y-15928333D01*
X9284810Y-15918809D01*
X9256238Y-15918809D01*
X9237190Y-15909286D01*
X9227667Y-15890238D01*
X9227667Y-15880714D01*
X9237190Y-15861667D01*
X9256238Y-15852143D01*
X9284810Y-15852143D01*
X9303857Y-15861667D01*
X9427667Y-15985476D02*
X9408619Y-15975952D01*
X9399095Y-15956905D01*
X9399095Y-15785476D01*
X9532429Y-15985476D02*
X9513381Y-15975952D01*
X9503857Y-15966428D01*
X9494333Y-15947381D01*
X9494333Y-15890238D01*
X9503857Y-15871190D01*
X9513381Y-15861667D01*
X9532429Y-15852143D01*
X9561000Y-15852143D01*
X9580048Y-15861667D01*
X9589571Y-15871190D01*
X9599095Y-15890238D01*
X9599095Y-15947381D01*
X9589571Y-15966428D01*
X9580048Y-15975952D01*
X9561000Y-15985476D01*
X9532429Y-15985476D01*
X9656238Y-15852143D02*
X9732429Y-15852143D01*
X9684810Y-15785476D02*
X9684810Y-15956905D01*
X9694333Y-15975952D01*
X9713381Y-15985476D01*
X9732429Y-15985476D01*
X9789571Y-15975952D02*
X9808619Y-15985476D01*
X9846714Y-15985476D01*
X9865762Y-15975952D01*
X9875286Y-15956905D01*
X9875286Y-15947381D01*
X9865762Y-15928333D01*
X9846714Y-15918809D01*
X9818143Y-15918809D01*
X9799095Y-15909286D01*
X9789571Y-15890238D01*
X9789571Y-15880714D01*
X9799095Y-15861667D01*
X9818143Y-15852143D01*
X9846714Y-15852143D01*
X9865762Y-15861667D01*
X9941952Y-16061667D02*
X9951476Y-16052143D01*
X9970524Y-16023571D01*
X9980048Y-16004524D01*
X9989571Y-15975952D01*
X9999095Y-15928333D01*
X9999095Y-15890238D01*
X9989571Y-15842619D01*
X9980048Y-15814048D01*
X9970524Y-15795000D01*
X9951476Y-15766428D01*
X9941952Y-15756905D01*
D14*
X3516000Y-16124000D02*
X3516000Y-16194000D01*
X3481000Y-16159000D02*
X3551000Y-16159000D01*
D11*
X3846714Y-16049476D02*
X3865762Y-16049476D01*
X3884809Y-16059000D01*
X3894333Y-16068524D01*
X3903857Y-16087571D01*
X3913381Y-16125667D01*
X3913381Y-16173286D01*
X3903857Y-16211381D01*
X3894333Y-16230428D01*
X3884809Y-16239952D01*
X3865762Y-16249476D01*
X3846714Y-16249476D01*
X3827667Y-16239952D01*
X3818143Y-16230428D01*
X3808619Y-16211381D01*
X3799095Y-16173286D01*
X3799095Y-16125667D01*
X3808619Y-16087571D01*
X3818143Y-16068524D01*
X3827667Y-16059000D01*
X3846714Y-16049476D01*
X3999095Y-16230428D02*
X4008619Y-16239952D01*
X3999095Y-16249476D01*
X3989571Y-16239952D01*
X3999095Y-16230428D01*
X3999095Y-16249476D01*
X4075286Y-16049476D02*
X4208619Y-16049476D01*
X4122905Y-16249476D01*
X4322905Y-16049476D02*
X4341952Y-16049476D01*
X4361000Y-16059000D01*
X4370524Y-16068524D01*
X4380048Y-16087571D01*
X4389571Y-16125667D01*
X4389571Y-16173286D01*
X4380048Y-16211381D01*
X4370524Y-16230428D01*
X4361000Y-16239952D01*
X4341952Y-16249476D01*
X4322905Y-16249476D01*
X4303857Y-16239952D01*
X4294333Y-16230428D01*
X4284810Y-16211381D01*
X4275286Y-16173286D01*
X4275286Y-16125667D01*
X4284810Y-16087571D01*
X4294333Y-16068524D01*
X4303857Y-16059000D01*
X4322905Y-16049476D01*
X4513381Y-16049476D02*
X4532429Y-16049476D01*
X4551476Y-16059000D01*
X4561000Y-16068524D01*
X4570524Y-16087571D01*
X4580048Y-16125667D01*
X4580048Y-16173286D01*
X4570524Y-16211381D01*
X4561000Y-16230428D01*
X4551476Y-16239952D01*
X4532429Y-16249476D01*
X4513381Y-16249476D01*
X4494333Y-16239952D01*
X4484810Y-16230428D01*
X4475286Y-16211381D01*
X4465762Y-16173286D01*
X4465762Y-16125667D01*
X4475286Y-16087571D01*
X4484810Y-16068524D01*
X4494333Y-16059000D01*
X4513381Y-16049476D01*
X4665762Y-16249476D02*
X4665762Y-16116143D01*
X4665762Y-16135190D02*
X4675286Y-16125667D01*
X4694333Y-16116143D01*
X4722905Y-16116143D01*
X4741952Y-16125667D01*
X4751476Y-16144714D01*
X4751476Y-16249476D01*
X4751476Y-16144714D02*
X4761000Y-16125667D01*
X4780048Y-16116143D01*
X4808619Y-16116143D01*
X4827667Y-16125667D01*
X4837190Y-16144714D01*
X4837190Y-16249476D01*
X4932429Y-16249476D02*
X4932429Y-16116143D01*
X4932429Y-16135190D02*
X4941952Y-16125667D01*
X4961000Y-16116143D01*
X4989571Y-16116143D01*
X5008619Y-16125667D01*
X5018143Y-16144714D01*
X5018143Y-16249476D01*
X5018143Y-16144714D02*
X5027667Y-16125667D01*
X5046714Y-16116143D01*
X5075286Y-16116143D01*
X5094333Y-16125667D01*
X5103857Y-16144714D01*
X5103857Y-16249476D01*
X5494333Y-16039952D02*
X5322905Y-16297095D01*
X5751476Y-16049476D02*
X5770524Y-16049476D01*
X5789571Y-16059000D01*
X5799095Y-16068524D01*
X5808619Y-16087571D01*
X5818143Y-16125667D01*
X5818143Y-16173286D01*
X5808619Y-16211381D01*
X5799095Y-16230428D01*
X5789571Y-16239952D01*
X5770524Y-16249476D01*
X5751476Y-16249476D01*
X5732428Y-16239952D01*
X5722905Y-16230428D01*
X5713381Y-16211381D01*
X5703857Y-16173286D01*
X5703857Y-16125667D01*
X5713381Y-16087571D01*
X5722905Y-16068524D01*
X5732428Y-16059000D01*
X5751476Y-16049476D01*
X5903857Y-16230428D02*
X5913381Y-16239952D01*
X5903857Y-16249476D01*
X5894333Y-16239952D01*
X5903857Y-16230428D01*
X5903857Y-16249476D01*
X6037190Y-16049476D02*
X6056238Y-16049476D01*
X6075286Y-16059000D01*
X6084809Y-16068524D01*
X6094333Y-16087571D01*
X6103857Y-16125667D01*
X6103857Y-16173286D01*
X6094333Y-16211381D01*
X6084809Y-16230428D01*
X6075286Y-16239952D01*
X6056238Y-16249476D01*
X6037190Y-16249476D01*
X6018143Y-16239952D01*
X6008619Y-16230428D01*
X5999095Y-16211381D01*
X5989571Y-16173286D01*
X5989571Y-16125667D01*
X5999095Y-16087571D01*
X6008619Y-16068524D01*
X6018143Y-16059000D01*
X6037190Y-16049476D01*
X6180048Y-16068524D02*
X6189571Y-16059000D01*
X6208619Y-16049476D01*
X6256238Y-16049476D01*
X6275286Y-16059000D01*
X6284809Y-16068524D01*
X6294333Y-16087571D01*
X6294333Y-16106619D01*
X6284809Y-16135190D01*
X6170524Y-16249476D01*
X6294333Y-16249476D01*
X6361000Y-16049476D02*
X6494333Y-16049476D01*
X6408619Y-16249476D01*
X6656238Y-16049476D02*
X6618143Y-16049476D01*
X6599095Y-16059000D01*
X6589571Y-16068524D01*
X6570524Y-16097095D01*
X6561000Y-16135190D01*
X6561000Y-16211381D01*
X6570524Y-16230428D01*
X6580048Y-16239952D01*
X6599095Y-16249476D01*
X6637190Y-16249476D01*
X6656238Y-16239952D01*
X6665762Y-16230428D01*
X6675286Y-16211381D01*
X6675286Y-16163762D01*
X6665762Y-16144714D01*
X6656238Y-16135190D01*
X6637190Y-16125667D01*
X6599095Y-16125667D01*
X6580048Y-16135190D01*
X6570524Y-16144714D01*
X6561000Y-16163762D01*
X6751476Y-16049476D02*
X6751476Y-16087571D01*
X6827667Y-16049476D02*
X6827667Y-16087571D01*
X7122905Y-16325667D02*
X7113381Y-16316143D01*
X7094333Y-16287571D01*
X7084809Y-16268524D01*
X7075286Y-16239952D01*
X7065762Y-16192333D01*
X7065762Y-16154238D01*
X7075286Y-16106619D01*
X7084809Y-16078048D01*
X7094333Y-16059000D01*
X7113381Y-16030428D01*
X7122905Y-16020905D01*
X7294333Y-16049476D02*
X7199095Y-16049476D01*
X7189571Y-16144714D01*
X7199095Y-16135190D01*
X7218143Y-16125667D01*
X7265762Y-16125667D01*
X7284809Y-16135190D01*
X7294333Y-16144714D01*
X7303857Y-16163762D01*
X7303857Y-16211381D01*
X7294333Y-16230428D01*
X7284809Y-16239952D01*
X7265762Y-16249476D01*
X7218143Y-16249476D01*
X7199095Y-16239952D01*
X7189571Y-16230428D01*
X7380048Y-16068524D02*
X7389571Y-16059000D01*
X7408619Y-16049476D01*
X7456238Y-16049476D01*
X7475286Y-16059000D01*
X7484809Y-16068524D01*
X7494333Y-16087571D01*
X7494333Y-16106619D01*
X7484809Y-16135190D01*
X7370524Y-16249476D01*
X7494333Y-16249476D01*
X7732428Y-16249476D02*
X7732428Y-16049476D01*
X7818143Y-16249476D02*
X7818143Y-16144714D01*
X7808619Y-16125667D01*
X7789571Y-16116143D01*
X7761000Y-16116143D01*
X7741952Y-16125667D01*
X7732428Y-16135190D01*
X7941952Y-16249476D02*
X7922905Y-16239952D01*
X7913381Y-16230428D01*
X7903857Y-16211381D01*
X7903857Y-16154238D01*
X7913381Y-16135190D01*
X7922905Y-16125667D01*
X7941952Y-16116143D01*
X7970524Y-16116143D01*
X7989571Y-16125667D01*
X7999095Y-16135190D01*
X8008619Y-16154238D01*
X8008619Y-16211381D01*
X7999095Y-16230428D01*
X7989571Y-16239952D01*
X7970524Y-16249476D01*
X7941952Y-16249476D01*
X8122905Y-16249476D02*
X8103857Y-16239952D01*
X8094333Y-16220905D01*
X8094333Y-16049476D01*
X8275286Y-16239952D02*
X8256238Y-16249476D01*
X8218143Y-16249476D01*
X8199095Y-16239952D01*
X8189571Y-16220905D01*
X8189571Y-16144714D01*
X8199095Y-16125667D01*
X8218143Y-16116143D01*
X8256238Y-16116143D01*
X8275286Y-16125667D01*
X8284809Y-16144714D01*
X8284809Y-16163762D01*
X8189571Y-16182809D01*
X8361000Y-16239952D02*
X8380048Y-16249476D01*
X8418143Y-16249476D01*
X8437190Y-16239952D01*
X8446714Y-16220905D01*
X8446714Y-16211381D01*
X8437190Y-16192333D01*
X8418143Y-16182809D01*
X8389571Y-16182809D01*
X8370524Y-16173286D01*
X8361000Y-16154238D01*
X8361000Y-16144714D01*
X8370524Y-16125667D01*
X8389571Y-16116143D01*
X8418143Y-16116143D01*
X8437190Y-16125667D01*
X8513381Y-16325667D02*
X8522905Y-16316143D01*
X8541952Y-16287571D01*
X8551476Y-16268524D01*
X8561000Y-16239952D01*
X8570524Y-16192333D01*
X8570524Y-16154238D01*
X8561000Y-16106619D01*
X8551476Y-16078048D01*
X8541952Y-16059000D01*
X8522905Y-16030428D01*
X8513381Y-16020905D01*
D15*
X3539841Y-16449941D02*
X3539841Y-16396059D01*
X3485959Y-16396059D01*
X3485959Y-16449941D01*
X3539841Y-16449941D01*
D11*
X3846714Y-16313476D02*
X3865762Y-16313476D01*
X3884809Y-16323000D01*
X3894333Y-16332524D01*
X3903857Y-16351571D01*
X3913381Y-16389667D01*
X3913381Y-16437286D01*
X3903857Y-16475381D01*
X3894333Y-16494428D01*
X3884809Y-16503952D01*
X3865762Y-16513476D01*
X3846714Y-16513476D01*
X3827667Y-16503952D01*
X3818143Y-16494428D01*
X3808619Y-16475381D01*
X3799095Y-16437286D01*
X3799095Y-16389667D01*
X3808619Y-16351571D01*
X3818143Y-16332524D01*
X3827667Y-16323000D01*
X3846714Y-16313476D01*
X3999095Y-16494428D02*
X4008619Y-16503952D01*
X3999095Y-16513476D01*
X3989571Y-16503952D01*
X3999095Y-16494428D01*
X3999095Y-16513476D01*
X4075286Y-16313476D02*
X4208619Y-16313476D01*
X4122905Y-16513476D01*
X4370524Y-16313476D02*
X4332429Y-16313476D01*
X4313381Y-16323000D01*
X4303857Y-16332524D01*
X4284810Y-16361095D01*
X4275286Y-16399190D01*
X4275286Y-16475381D01*
X4284810Y-16494428D01*
X4294333Y-16503952D01*
X4313381Y-16513476D01*
X4351476Y-16513476D01*
X4370524Y-16503952D01*
X4380048Y-16494428D01*
X4389571Y-16475381D01*
X4389571Y-16427762D01*
X4380048Y-16408714D01*
X4370524Y-16399190D01*
X4351476Y-16389667D01*
X4313381Y-16389667D01*
X4294333Y-16399190D01*
X4284810Y-16408714D01*
X4275286Y-16427762D01*
X4465762Y-16332524D02*
X4475286Y-16323000D01*
X4494333Y-16313476D01*
X4541952Y-16313476D01*
X4561000Y-16323000D01*
X4570524Y-16332524D01*
X4580048Y-16351571D01*
X4580048Y-16370619D01*
X4570524Y-16399190D01*
X4456238Y-16513476D01*
X4580048Y-16513476D01*
X4665762Y-16513476D02*
X4665762Y-16380143D01*
X4665762Y-16399190D02*
X4675286Y-16389667D01*
X4694333Y-16380143D01*
X4722905Y-16380143D01*
X4741952Y-16389667D01*
X4751476Y-16408714D01*
X4751476Y-16513476D01*
X4751476Y-16408714D02*
X4761000Y-16389667D01*
X4780048Y-16380143D01*
X4808619Y-16380143D01*
X4827667Y-16389667D01*
X4837190Y-16408714D01*
X4837190Y-16513476D01*
X4932429Y-16513476D02*
X4932429Y-16380143D01*
X4932429Y-16399190D02*
X4941952Y-16389667D01*
X4961000Y-16380143D01*
X4989571Y-16380143D01*
X5008619Y-16389667D01*
X5018143Y-16408714D01*
X5018143Y-16513476D01*
X5018143Y-16408714D02*
X5027667Y-16389667D01*
X5046714Y-16380143D01*
X5075286Y-16380143D01*
X5094333Y-16389667D01*
X5103857Y-16408714D01*
X5103857Y-16513476D01*
X5494333Y-16303952D02*
X5322905Y-16561095D01*
X5751476Y-16313476D02*
X5770524Y-16313476D01*
X5789571Y-16323000D01*
X5799095Y-16332524D01*
X5808619Y-16351571D01*
X5818143Y-16389667D01*
X5818143Y-16437286D01*
X5808619Y-16475381D01*
X5799095Y-16494428D01*
X5789571Y-16503952D01*
X5770524Y-16513476D01*
X5751476Y-16513476D01*
X5732428Y-16503952D01*
X5722905Y-16494428D01*
X5713381Y-16475381D01*
X5703857Y-16437286D01*
X5703857Y-16389667D01*
X5713381Y-16351571D01*
X5722905Y-16332524D01*
X5732428Y-16323000D01*
X5751476Y-16313476D01*
X5903857Y-16494428D02*
X5913381Y-16503952D01*
X5903857Y-16513476D01*
X5894333Y-16503952D01*
X5903857Y-16494428D01*
X5903857Y-16513476D01*
X6037190Y-16313476D02*
X6056238Y-16313476D01*
X6075286Y-16323000D01*
X6084809Y-16332524D01*
X6094333Y-16351571D01*
X6103857Y-16389667D01*
X6103857Y-16437286D01*
X6094333Y-16475381D01*
X6084809Y-16494428D01*
X6075286Y-16503952D01*
X6056238Y-16513476D01*
X6037190Y-16513476D01*
X6018143Y-16503952D01*
X6008619Y-16494428D01*
X5999095Y-16475381D01*
X5989571Y-16437286D01*
X5989571Y-16389667D01*
X5999095Y-16351571D01*
X6008619Y-16332524D01*
X6018143Y-16323000D01*
X6037190Y-16313476D01*
X6170524Y-16313476D02*
X6294333Y-16313476D01*
X6227667Y-16389667D01*
X6256238Y-16389667D01*
X6275286Y-16399190D01*
X6284809Y-16408714D01*
X6294333Y-16427762D01*
X6294333Y-16475381D01*
X6284809Y-16494428D01*
X6275286Y-16503952D01*
X6256238Y-16513476D01*
X6199095Y-16513476D01*
X6180048Y-16503952D01*
X6170524Y-16494428D01*
X6418143Y-16313476D02*
X6437190Y-16313476D01*
X6456238Y-16323000D01*
X6465762Y-16332524D01*
X6475286Y-16351571D01*
X6484809Y-16389667D01*
X6484809Y-16437286D01*
X6475286Y-16475381D01*
X6465762Y-16494428D01*
X6456238Y-16503952D01*
X6437190Y-16513476D01*
X6418143Y-16513476D01*
X6399095Y-16503952D01*
X6389571Y-16494428D01*
X6380048Y-16475381D01*
X6370524Y-16437286D01*
X6370524Y-16389667D01*
X6380048Y-16351571D01*
X6389571Y-16332524D01*
X6399095Y-16323000D01*
X6418143Y-16313476D01*
X6608619Y-16313476D02*
X6627667Y-16313476D01*
X6646714Y-16323000D01*
X6656238Y-16332524D01*
X6665762Y-16351571D01*
X6675286Y-16389667D01*
X6675286Y-16437286D01*
X6665762Y-16475381D01*
X6656238Y-16494428D01*
X6646714Y-16503952D01*
X6627667Y-16513476D01*
X6608619Y-16513476D01*
X6589571Y-16503952D01*
X6580048Y-16494428D01*
X6570524Y-16475381D01*
X6561000Y-16437286D01*
X6561000Y-16389667D01*
X6570524Y-16351571D01*
X6580048Y-16332524D01*
X6589571Y-16323000D01*
X6608619Y-16313476D01*
X6751476Y-16313476D02*
X6751476Y-16351571D01*
X6827667Y-16313476D02*
X6827667Y-16351571D01*
X7122905Y-16589667D02*
X7113381Y-16580143D01*
X7094333Y-16551571D01*
X7084809Y-16532524D01*
X7075286Y-16503952D01*
X7065762Y-16456333D01*
X7065762Y-16418238D01*
X7075286Y-16370619D01*
X7084809Y-16342048D01*
X7094333Y-16323000D01*
X7113381Y-16294428D01*
X7122905Y-16284905D01*
X7303857Y-16513476D02*
X7189571Y-16513476D01*
X7246714Y-16513476D02*
X7246714Y-16313476D01*
X7227667Y-16342048D01*
X7208619Y-16361095D01*
X7189571Y-16370619D01*
X7380048Y-16332524D02*
X7389571Y-16323000D01*
X7408619Y-16313476D01*
X7456238Y-16313476D01*
X7475286Y-16323000D01*
X7484809Y-16332524D01*
X7494333Y-16351571D01*
X7494333Y-16370619D01*
X7484809Y-16399190D01*
X7370524Y-16513476D01*
X7494333Y-16513476D01*
X7732428Y-16513476D02*
X7732428Y-16313476D01*
X7818143Y-16513476D02*
X7818143Y-16408714D01*
X7808619Y-16389667D01*
X7789571Y-16380143D01*
X7761000Y-16380143D01*
X7741952Y-16389667D01*
X7732428Y-16399190D01*
X7941952Y-16513476D02*
X7922905Y-16503952D01*
X7913381Y-16494428D01*
X7903857Y-16475381D01*
X7903857Y-16418238D01*
X7913381Y-16399190D01*
X7922905Y-16389667D01*
X7941952Y-16380143D01*
X7970524Y-16380143D01*
X7989571Y-16389667D01*
X7999095Y-16399190D01*
X8008619Y-16418238D01*
X8008619Y-16475381D01*
X7999095Y-16494428D01*
X7989571Y-16503952D01*
X7970524Y-16513476D01*
X7941952Y-16513476D01*
X8122905Y-16513476D02*
X8103857Y-16503952D01*
X8094333Y-16484905D01*
X8094333Y-16313476D01*
X8275286Y-16503952D02*
X8256238Y-16513476D01*
X8218143Y-16513476D01*
X8199095Y-16503952D01*
X8189571Y-16484905D01*
X8189571Y-16408714D01*
X8199095Y-16389667D01*
X8218143Y-16380143D01*
X8256238Y-16380143D01*
X8275286Y-16389667D01*
X8284809Y-16408714D01*
X8284809Y-16427762D01*
X8189571Y-16446809D01*
X8361000Y-16503952D02*
X8380048Y-16513476D01*
X8418143Y-16513476D01*
X8437190Y-16503952D01*
X8446714Y-16484905D01*
X8446714Y-16475381D01*
X8437190Y-16456333D01*
X8418143Y-16446809D01*
X8389571Y-16446809D01*
X8370524Y-16437286D01*
X8361000Y-16418238D01*
X8361000Y-16408714D01*
X8370524Y-16389667D01*
X8389571Y-16380143D01*
X8418143Y-16380143D01*
X8437190Y-16389667D01*
X8513381Y-16589667D02*
X8522905Y-16580143D01*
X8541952Y-16551571D01*
X8551476Y-16532524D01*
X8561000Y-16503952D01*
X8570524Y-16456333D01*
X8570524Y-16418238D01*
X8561000Y-16370619D01*
X8551476Y-16342048D01*
X8541952Y-16323000D01*
X8522905Y-16294428D01*
X8513381Y-16284905D01*
D16*
X3512000Y-16726000D02*
X3551000Y-16687000D01*
X3512000Y-16648000D01*
X3473000Y-16687000D01*
X3512000Y-16726000D01*
D11*
X3846714Y-16577476D02*
X3865762Y-16577476D01*
X3884809Y-16587000D01*
X3894333Y-16596524D01*
X3903857Y-16615571D01*
X3913381Y-16653667D01*
X3913381Y-16701286D01*
X3903857Y-16739381D01*
X3894333Y-16758428D01*
X3884809Y-16767952D01*
X3865762Y-16777476D01*
X3846714Y-16777476D01*
X3827667Y-16767952D01*
X3818143Y-16758428D01*
X3808619Y-16739381D01*
X3799095Y-16701286D01*
X3799095Y-16653667D01*
X3808619Y-16615571D01*
X3818143Y-16596524D01*
X3827667Y-16587000D01*
X3846714Y-16577476D01*
X3999095Y-16758428D02*
X4008619Y-16767952D01*
X3999095Y-16777476D01*
X3989571Y-16767952D01*
X3999095Y-16758428D01*
X3999095Y-16777476D01*
X4075286Y-16577476D02*
X4208619Y-16577476D01*
X4122905Y-16777476D01*
X4313381Y-16663190D02*
X4294333Y-16653667D01*
X4284810Y-16644143D01*
X4275286Y-16625095D01*
X4275286Y-16615571D01*
X4284810Y-16596524D01*
X4294333Y-16587000D01*
X4313381Y-16577476D01*
X4351476Y-16577476D01*
X4370524Y-16587000D01*
X4380048Y-16596524D01*
X4389571Y-16615571D01*
X4389571Y-16625095D01*
X4380048Y-16644143D01*
X4370524Y-16653667D01*
X4351476Y-16663190D01*
X4313381Y-16663190D01*
X4294333Y-16672714D01*
X4284810Y-16682238D01*
X4275286Y-16701286D01*
X4275286Y-16739381D01*
X4284810Y-16758428D01*
X4294333Y-16767952D01*
X4313381Y-16777476D01*
X4351476Y-16777476D01*
X4370524Y-16767952D01*
X4380048Y-16758428D01*
X4389571Y-16739381D01*
X4389571Y-16701286D01*
X4380048Y-16682238D01*
X4370524Y-16672714D01*
X4351476Y-16663190D01*
X4513381Y-16577476D02*
X4532429Y-16577476D01*
X4551476Y-16587000D01*
X4561000Y-16596524D01*
X4570524Y-16615571D01*
X4580048Y-16653667D01*
X4580048Y-16701286D01*
X4570524Y-16739381D01*
X4561000Y-16758428D01*
X4551476Y-16767952D01*
X4532429Y-16777476D01*
X4513381Y-16777476D01*
X4494333Y-16767952D01*
X4484810Y-16758428D01*
X4475286Y-16739381D01*
X4465762Y-16701286D01*
X4465762Y-16653667D01*
X4475286Y-16615571D01*
X4484810Y-16596524D01*
X4494333Y-16587000D01*
X4513381Y-16577476D01*
X4665762Y-16777476D02*
X4665762Y-16644143D01*
X4665762Y-16663190D02*
X4675286Y-16653667D01*
X4694333Y-16644143D01*
X4722905Y-16644143D01*
X4741952Y-16653667D01*
X4751476Y-16672714D01*
X4751476Y-16777476D01*
X4751476Y-16672714D02*
X4761000Y-16653667D01*
X4780048Y-16644143D01*
X4808619Y-16644143D01*
X4827667Y-16653667D01*
X4837190Y-16672714D01*
X4837190Y-16777476D01*
X4932429Y-16777476D02*
X4932429Y-16644143D01*
X4932429Y-16663190D02*
X4941952Y-16653667D01*
X4961000Y-16644143D01*
X4989571Y-16644143D01*
X5008619Y-16653667D01*
X5018143Y-16672714D01*
X5018143Y-16777476D01*
X5018143Y-16672714D02*
X5027667Y-16653667D01*
X5046714Y-16644143D01*
X5075286Y-16644143D01*
X5094333Y-16653667D01*
X5103857Y-16672714D01*
X5103857Y-16777476D01*
X5494333Y-16567952D02*
X5322905Y-16825095D01*
X5751476Y-16577476D02*
X5770524Y-16577476D01*
X5789571Y-16587000D01*
X5799095Y-16596524D01*
X5808619Y-16615571D01*
X5818143Y-16653667D01*
X5818143Y-16701286D01*
X5808619Y-16739381D01*
X5799095Y-16758428D01*
X5789571Y-16767952D01*
X5770524Y-16777476D01*
X5751476Y-16777476D01*
X5732428Y-16767952D01*
X5722905Y-16758428D01*
X5713381Y-16739381D01*
X5703857Y-16701286D01*
X5703857Y-16653667D01*
X5713381Y-16615571D01*
X5722905Y-16596524D01*
X5732428Y-16587000D01*
X5751476Y-16577476D01*
X5903857Y-16758428D02*
X5913381Y-16767952D01*
X5903857Y-16777476D01*
X5894333Y-16767952D01*
X5903857Y-16758428D01*
X5903857Y-16777476D01*
X6037190Y-16577476D02*
X6056238Y-16577476D01*
X6075286Y-16587000D01*
X6084809Y-16596524D01*
X6094333Y-16615571D01*
X6103857Y-16653667D01*
X6103857Y-16701286D01*
X6094333Y-16739381D01*
X6084809Y-16758428D01*
X6075286Y-16767952D01*
X6056238Y-16777476D01*
X6037190Y-16777476D01*
X6018143Y-16767952D01*
X6008619Y-16758428D01*
X5999095Y-16739381D01*
X5989571Y-16701286D01*
X5989571Y-16653667D01*
X5999095Y-16615571D01*
X6008619Y-16596524D01*
X6018143Y-16587000D01*
X6037190Y-16577476D01*
X6170524Y-16577476D02*
X6294333Y-16577476D01*
X6227667Y-16653667D01*
X6256238Y-16653667D01*
X6275286Y-16663190D01*
X6284809Y-16672714D01*
X6294333Y-16691762D01*
X6294333Y-16739381D01*
X6284809Y-16758428D01*
X6275286Y-16767952D01*
X6256238Y-16777476D01*
X6199095Y-16777476D01*
X6180048Y-16767952D01*
X6170524Y-16758428D01*
X6418143Y-16577476D02*
X6437190Y-16577476D01*
X6456238Y-16587000D01*
X6465762Y-16596524D01*
X6475286Y-16615571D01*
X6484809Y-16653667D01*
X6484809Y-16701286D01*
X6475286Y-16739381D01*
X6465762Y-16758428D01*
X6456238Y-16767952D01*
X6437190Y-16777476D01*
X6418143Y-16777476D01*
X6399095Y-16767952D01*
X6389571Y-16758428D01*
X6380048Y-16739381D01*
X6370524Y-16701286D01*
X6370524Y-16653667D01*
X6380048Y-16615571D01*
X6389571Y-16596524D01*
X6399095Y-16587000D01*
X6418143Y-16577476D01*
X6551476Y-16577476D02*
X6684809Y-16577476D01*
X6599095Y-16777476D01*
X6751476Y-16577476D02*
X6751476Y-16615571D01*
X6827667Y-16577476D02*
X6827667Y-16615571D01*
X7122905Y-16853667D02*
X7113381Y-16844143D01*
X7094333Y-16815571D01*
X7084809Y-16796524D01*
X7075286Y-16767952D01*
X7065762Y-16720333D01*
X7065762Y-16682238D01*
X7075286Y-16634619D01*
X7084809Y-16606048D01*
X7094333Y-16587000D01*
X7113381Y-16558428D01*
X7122905Y-16548905D01*
X7284809Y-16577476D02*
X7246714Y-16577476D01*
X7227667Y-16587000D01*
X7218143Y-16596524D01*
X7199095Y-16625095D01*
X7189571Y-16663190D01*
X7189571Y-16739381D01*
X7199095Y-16758428D01*
X7208619Y-16767952D01*
X7227667Y-16777476D01*
X7265762Y-16777476D01*
X7284809Y-16767952D01*
X7294333Y-16758428D01*
X7303857Y-16739381D01*
X7303857Y-16691762D01*
X7294333Y-16672714D01*
X7284809Y-16663190D01*
X7265762Y-16653667D01*
X7227667Y-16653667D01*
X7208619Y-16663190D01*
X7199095Y-16672714D01*
X7189571Y-16691762D01*
X7475286Y-16644143D02*
X7475286Y-16777476D01*
X7427667Y-16567952D02*
X7380048Y-16710809D01*
X7503857Y-16710809D01*
X7732428Y-16777476D02*
X7732428Y-16577476D01*
X7818143Y-16777476D02*
X7818143Y-16672714D01*
X7808619Y-16653667D01*
X7789571Y-16644143D01*
X7761000Y-16644143D01*
X7741952Y-16653667D01*
X7732428Y-16663190D01*
X7941952Y-16777476D02*
X7922905Y-16767952D01*
X7913381Y-16758428D01*
X7903857Y-16739381D01*
X7903857Y-16682238D01*
X7913381Y-16663190D01*
X7922905Y-16653667D01*
X7941952Y-16644143D01*
X7970524Y-16644143D01*
X7989571Y-16653667D01*
X7999095Y-16663190D01*
X8008619Y-16682238D01*
X8008619Y-16739381D01*
X7999095Y-16758428D01*
X7989571Y-16767952D01*
X7970524Y-16777476D01*
X7941952Y-16777476D01*
X8122905Y-16777476D02*
X8103857Y-16767952D01*
X8094333Y-16748905D01*
X8094333Y-16577476D01*
X8275286Y-16767952D02*
X8256238Y-16777476D01*
X8218143Y-16777476D01*
X8199095Y-16767952D01*
X8189571Y-16748905D01*
X8189571Y-16672714D01*
X8199095Y-16653667D01*
X8218143Y-16644143D01*
X8256238Y-16644143D01*
X8275286Y-16653667D01*
X8284809Y-16672714D01*
X8284809Y-16691762D01*
X8189571Y-16710809D01*
X8361000Y-16767952D02*
X8380048Y-16777476D01*
X8418143Y-16777476D01*
X8437190Y-16767952D01*
X8446714Y-16748905D01*
X8446714Y-16739381D01*
X8437190Y-16720333D01*
X8418143Y-16710809D01*
X8389571Y-16710809D01*
X8370524Y-16701286D01*
X8361000Y-16682238D01*
X8361000Y-16672714D01*
X8370524Y-16653667D01*
X8389571Y-16644143D01*
X8418143Y-16644143D01*
X8437190Y-16653667D01*
X8513381Y-16853667D02*
X8522905Y-16844143D01*
X8541952Y-16815571D01*
X8551476Y-16796524D01*
X8561000Y-16767952D01*
X8570524Y-16720333D01*
X8570524Y-16682238D01*
X8561000Y-16634619D01*
X8551476Y-16606048D01*
X8541952Y-16587000D01*
X8522905Y-16558428D01*
X8513381Y-16548905D01*
D17*
X3472260Y-16911630D02*
X3551000Y-16990370D01*
X3551000Y-16911630D02*
X3472260Y-16990370D01*
X3551000Y-16951000D02*
G75*
G03*
X3551000Y-16951000I-39370J0D01*
G01*
D11*
X3846714Y-16841476D02*
X3865762Y-16841476D01*
X3884809Y-16851000D01*
X3894333Y-16860524D01*
X3903857Y-16879571D01*
X3913381Y-16917667D01*
X3913381Y-16965286D01*
X3903857Y-17003381D01*
X3894333Y-17022429D01*
X3884809Y-17031952D01*
X3865762Y-17041476D01*
X3846714Y-17041476D01*
X3827667Y-17031952D01*
X3818143Y-17022429D01*
X3808619Y-17003381D01*
X3799095Y-16965286D01*
X3799095Y-16917667D01*
X3808619Y-16879571D01*
X3818143Y-16860524D01*
X3827667Y-16851000D01*
X3846714Y-16841476D01*
X3999095Y-17022429D02*
X4008619Y-17031952D01*
X3999095Y-17041476D01*
X3989571Y-17031952D01*
X3999095Y-17022429D01*
X3999095Y-17041476D01*
X4075286Y-16841476D02*
X4208619Y-16841476D01*
X4122905Y-17041476D01*
X4313381Y-16927190D02*
X4294333Y-16917667D01*
X4284810Y-16908143D01*
X4275286Y-16889095D01*
X4275286Y-16879571D01*
X4284810Y-16860524D01*
X4294333Y-16851000D01*
X4313381Y-16841476D01*
X4351476Y-16841476D01*
X4370524Y-16851000D01*
X4380048Y-16860524D01*
X4389571Y-16879571D01*
X4389571Y-16889095D01*
X4380048Y-16908143D01*
X4370524Y-16917667D01*
X4351476Y-16927190D01*
X4313381Y-16927190D01*
X4294333Y-16936714D01*
X4284810Y-16946238D01*
X4275286Y-16965286D01*
X4275286Y-17003381D01*
X4284810Y-17022429D01*
X4294333Y-17031952D01*
X4313381Y-17041476D01*
X4351476Y-17041476D01*
X4370524Y-17031952D01*
X4380048Y-17022429D01*
X4389571Y-17003381D01*
X4389571Y-16965286D01*
X4380048Y-16946238D01*
X4370524Y-16936714D01*
X4351476Y-16927190D01*
X4456238Y-16841476D02*
X4589571Y-16841476D01*
X4503857Y-17041476D01*
X4665762Y-17041476D02*
X4665762Y-16908143D01*
X4665762Y-16927190D02*
X4675286Y-16917667D01*
X4694333Y-16908143D01*
X4722905Y-16908143D01*
X4741952Y-16917667D01*
X4751476Y-16936714D01*
X4751476Y-17041476D01*
X4751476Y-16936714D02*
X4761000Y-16917667D01*
X4780048Y-16908143D01*
X4808619Y-16908143D01*
X4827667Y-16917667D01*
X4837190Y-16936714D01*
X4837190Y-17041476D01*
X4932429Y-17041476D02*
X4932429Y-16908143D01*
X4932429Y-16927190D02*
X4941952Y-16917667D01*
X4961000Y-16908143D01*
X4989571Y-16908143D01*
X5008619Y-16917667D01*
X5018143Y-16936714D01*
X5018143Y-17041476D01*
X5018143Y-16936714D02*
X5027667Y-16917667D01*
X5046714Y-16908143D01*
X5075286Y-16908143D01*
X5094333Y-16917667D01*
X5103857Y-16936714D01*
X5103857Y-17041476D01*
X5494333Y-16831952D02*
X5322905Y-17089095D01*
X5751476Y-16841476D02*
X5770524Y-16841476D01*
X5789571Y-16851000D01*
X5799095Y-16860524D01*
X5808619Y-16879571D01*
X5818143Y-16917667D01*
X5818143Y-16965286D01*
X5808619Y-17003381D01*
X5799095Y-17022429D01*
X5789571Y-17031952D01*
X5770524Y-17041476D01*
X5751476Y-17041476D01*
X5732428Y-17031952D01*
X5722905Y-17022429D01*
X5713381Y-17003381D01*
X5703857Y-16965286D01*
X5703857Y-16917667D01*
X5713381Y-16879571D01*
X5722905Y-16860524D01*
X5732428Y-16851000D01*
X5751476Y-16841476D01*
X5903857Y-17022429D02*
X5913381Y-17031952D01*
X5903857Y-17041476D01*
X5894333Y-17031952D01*
X5903857Y-17022429D01*
X5903857Y-17041476D01*
X6037190Y-16841476D02*
X6056238Y-16841476D01*
X6075286Y-16851000D01*
X6084809Y-16860524D01*
X6094333Y-16879571D01*
X6103857Y-16917667D01*
X6103857Y-16965286D01*
X6094333Y-17003381D01*
X6084809Y-17022429D01*
X6075286Y-17031952D01*
X6056238Y-17041476D01*
X6037190Y-17041476D01*
X6018143Y-17031952D01*
X6008619Y-17022429D01*
X5999095Y-17003381D01*
X5989571Y-16965286D01*
X5989571Y-16917667D01*
X5999095Y-16879571D01*
X6008619Y-16860524D01*
X6018143Y-16851000D01*
X6037190Y-16841476D01*
X6170524Y-16841476D02*
X6294333Y-16841476D01*
X6227667Y-16917667D01*
X6256238Y-16917667D01*
X6275286Y-16927190D01*
X6284809Y-16936714D01*
X6294333Y-16955762D01*
X6294333Y-17003381D01*
X6284809Y-17022429D01*
X6275286Y-17031952D01*
X6256238Y-17041476D01*
X6199095Y-17041476D01*
X6180048Y-17031952D01*
X6170524Y-17022429D01*
X6484809Y-17041476D02*
X6370524Y-17041476D01*
X6427667Y-17041476D02*
X6427667Y-16841476D01*
X6408619Y-16870048D01*
X6389571Y-16889095D01*
X6370524Y-16898619D01*
X6608619Y-16841476D02*
X6627667Y-16841476D01*
X6646714Y-16851000D01*
X6656238Y-16860524D01*
X6665762Y-16879571D01*
X6675286Y-16917667D01*
X6675286Y-16965286D01*
X6665762Y-17003381D01*
X6656238Y-17022429D01*
X6646714Y-17031952D01*
X6627667Y-17041476D01*
X6608619Y-17041476D01*
X6589571Y-17031952D01*
X6580048Y-17022429D01*
X6570524Y-17003381D01*
X6561000Y-16965286D01*
X6561000Y-16917667D01*
X6570524Y-16879571D01*
X6580048Y-16860524D01*
X6589571Y-16851000D01*
X6608619Y-16841476D01*
X6751476Y-16841476D02*
X6751476Y-16879571D01*
X6827667Y-16841476D02*
X6827667Y-16879571D01*
X7122905Y-17117667D02*
X7113381Y-17108143D01*
X7094333Y-17079571D01*
X7084809Y-17060524D01*
X7075286Y-17031952D01*
X7065762Y-16984333D01*
X7065762Y-16946238D01*
X7075286Y-16898619D01*
X7084809Y-16870048D01*
X7094333Y-16851000D01*
X7113381Y-16822429D01*
X7122905Y-16812905D01*
X7284809Y-16908143D02*
X7284809Y-17041476D01*
X7237190Y-16831952D02*
X7189571Y-16974810D01*
X7313381Y-16974810D01*
X7418143Y-16927190D02*
X7399095Y-16917667D01*
X7389571Y-16908143D01*
X7380048Y-16889095D01*
X7380048Y-16879571D01*
X7389571Y-16860524D01*
X7399095Y-16851000D01*
X7418143Y-16841476D01*
X7456238Y-16841476D01*
X7475286Y-16851000D01*
X7484809Y-16860524D01*
X7494333Y-16879571D01*
X7494333Y-16889095D01*
X7484809Y-16908143D01*
X7475286Y-16917667D01*
X7456238Y-16927190D01*
X7418143Y-16927190D01*
X7399095Y-16936714D01*
X7389571Y-16946238D01*
X7380048Y-16965286D01*
X7380048Y-17003381D01*
X7389571Y-17022429D01*
X7399095Y-17031952D01*
X7418143Y-17041476D01*
X7456238Y-17041476D01*
X7475286Y-17031952D01*
X7484809Y-17022429D01*
X7494333Y-17003381D01*
X7494333Y-16965286D01*
X7484809Y-16946238D01*
X7475286Y-16936714D01*
X7456238Y-16927190D01*
X7732428Y-17041476D02*
X7732428Y-16841476D01*
X7818143Y-17041476D02*
X7818143Y-16936714D01*
X7808619Y-16917667D01*
X7789571Y-16908143D01*
X7761000Y-16908143D01*
X7741952Y-16917667D01*
X7732428Y-16927190D01*
X7941952Y-17041476D02*
X7922905Y-17031952D01*
X7913381Y-17022429D01*
X7903857Y-17003381D01*
X7903857Y-16946238D01*
X7913381Y-16927190D01*
X7922905Y-16917667D01*
X7941952Y-16908143D01*
X7970524Y-16908143D01*
X7989571Y-16917667D01*
X7999095Y-16927190D01*
X8008619Y-16946238D01*
X8008619Y-17003381D01*
X7999095Y-17022429D01*
X7989571Y-17031952D01*
X7970524Y-17041476D01*
X7941952Y-17041476D01*
X8122905Y-17041476D02*
X8103857Y-17031952D01*
X8094333Y-17012905D01*
X8094333Y-16841476D01*
X8275286Y-17031952D02*
X8256238Y-17041476D01*
X8218143Y-17041476D01*
X8199095Y-17031952D01*
X8189571Y-17012905D01*
X8189571Y-16936714D01*
X8199095Y-16917667D01*
X8218143Y-16908143D01*
X8256238Y-16908143D01*
X8275286Y-16917667D01*
X8284809Y-16936714D01*
X8284809Y-16955762D01*
X8189571Y-16974810D01*
X8361000Y-17031952D02*
X8380048Y-17041476D01*
X8418143Y-17041476D01*
X8437190Y-17031952D01*
X8446714Y-17012905D01*
X8446714Y-17003381D01*
X8437190Y-16984333D01*
X8418143Y-16974810D01*
X8389571Y-16974810D01*
X8370524Y-16965286D01*
X8361000Y-16946238D01*
X8361000Y-16936714D01*
X8370524Y-16917667D01*
X8389571Y-16908143D01*
X8418143Y-16908143D01*
X8437190Y-16917667D01*
X8513381Y-17117667D02*
X8522905Y-17108143D01*
X8541952Y-17079571D01*
X8551476Y-17060524D01*
X8561000Y-17031952D01*
X8570524Y-16984333D01*
X8570524Y-16946238D01*
X8561000Y-16898619D01*
X8551476Y-16870048D01*
X8541952Y-16851000D01*
X8522905Y-16822429D01*
X8513381Y-16812905D01*
D18*
X3471000Y-17175000D02*
X3551000Y-17255000D01*
X3551000Y-17175000D02*
X3471000Y-17255000D01*
X3511000Y-17175000D02*
X3511000Y-17255000D01*
X3471000Y-17215000D02*
X3551000Y-17215000D01*
D11*
X3846714Y-17105476D02*
X3865762Y-17105476D01*
X3884809Y-17115000D01*
X3894333Y-17124524D01*
X3903857Y-17143571D01*
X3913381Y-17181667D01*
X3913381Y-17229286D01*
X3903857Y-17267381D01*
X3894333Y-17286429D01*
X3884809Y-17295952D01*
X3865762Y-17305476D01*
X3846714Y-17305476D01*
X3827667Y-17295952D01*
X3818143Y-17286429D01*
X3808619Y-17267381D01*
X3799095Y-17229286D01*
X3799095Y-17181667D01*
X3808619Y-17143571D01*
X3818143Y-17124524D01*
X3827667Y-17115000D01*
X3846714Y-17105476D01*
X3999095Y-17286429D02*
X4008619Y-17295952D01*
X3999095Y-17305476D01*
X3989571Y-17295952D01*
X3999095Y-17286429D01*
X3999095Y-17305476D01*
X4122905Y-17191190D02*
X4103857Y-17181667D01*
X4094333Y-17172143D01*
X4084809Y-17153095D01*
X4084809Y-17143571D01*
X4094333Y-17124524D01*
X4103857Y-17115000D01*
X4122905Y-17105476D01*
X4161000Y-17105476D01*
X4180048Y-17115000D01*
X4189571Y-17124524D01*
X4199095Y-17143571D01*
X4199095Y-17153095D01*
X4189571Y-17172143D01*
X4180048Y-17181667D01*
X4161000Y-17191190D01*
X4122905Y-17191190D01*
X4103857Y-17200714D01*
X4094333Y-17210238D01*
X4084809Y-17229286D01*
X4084809Y-17267381D01*
X4094333Y-17286429D01*
X4103857Y-17295952D01*
X4122905Y-17305476D01*
X4161000Y-17305476D01*
X4180048Y-17295952D01*
X4189571Y-17286429D01*
X4199095Y-17267381D01*
X4199095Y-17229286D01*
X4189571Y-17210238D01*
X4180048Y-17200714D01*
X4161000Y-17191190D01*
X4322905Y-17105476D02*
X4341952Y-17105476D01*
X4361000Y-17115000D01*
X4370524Y-17124524D01*
X4380048Y-17143571D01*
X4389571Y-17181667D01*
X4389571Y-17229286D01*
X4380048Y-17267381D01*
X4370524Y-17286429D01*
X4361000Y-17295952D01*
X4341952Y-17305476D01*
X4322905Y-17305476D01*
X4303857Y-17295952D01*
X4294333Y-17286429D01*
X4284810Y-17267381D01*
X4275286Y-17229286D01*
X4275286Y-17181667D01*
X4284810Y-17143571D01*
X4294333Y-17124524D01*
X4303857Y-17115000D01*
X4322905Y-17105476D01*
X4513381Y-17105476D02*
X4532429Y-17105476D01*
X4551476Y-17115000D01*
X4561000Y-17124524D01*
X4570524Y-17143571D01*
X4580048Y-17181667D01*
X4580048Y-17229286D01*
X4570524Y-17267381D01*
X4561000Y-17286429D01*
X4551476Y-17295952D01*
X4532429Y-17305476D01*
X4513381Y-17305476D01*
X4494333Y-17295952D01*
X4484810Y-17286429D01*
X4475286Y-17267381D01*
X4465762Y-17229286D01*
X4465762Y-17181667D01*
X4475286Y-17143571D01*
X4484810Y-17124524D01*
X4494333Y-17115000D01*
X4513381Y-17105476D01*
X4665762Y-17305476D02*
X4665762Y-17172143D01*
X4665762Y-17191190D02*
X4675286Y-17181667D01*
X4694333Y-17172143D01*
X4722905Y-17172143D01*
X4741952Y-17181667D01*
X4751476Y-17200714D01*
X4751476Y-17305476D01*
X4751476Y-17200714D02*
X4761000Y-17181667D01*
X4780048Y-17172143D01*
X4808619Y-17172143D01*
X4827667Y-17181667D01*
X4837190Y-17200714D01*
X4837190Y-17305476D01*
X4932429Y-17305476D02*
X4932429Y-17172143D01*
X4932429Y-17191190D02*
X4941952Y-17181667D01*
X4961000Y-17172143D01*
X4989571Y-17172143D01*
X5008619Y-17181667D01*
X5018143Y-17200714D01*
X5018143Y-17305476D01*
X5018143Y-17200714D02*
X5027667Y-17181667D01*
X5046714Y-17172143D01*
X5075286Y-17172143D01*
X5094333Y-17181667D01*
X5103857Y-17200714D01*
X5103857Y-17305476D01*
X5494333Y-17095952D02*
X5322905Y-17353095D01*
X5751476Y-17105476D02*
X5770524Y-17105476D01*
X5789571Y-17115000D01*
X5799095Y-17124524D01*
X5808619Y-17143571D01*
X5818143Y-17181667D01*
X5818143Y-17229286D01*
X5808619Y-17267381D01*
X5799095Y-17286429D01*
X5789571Y-17295952D01*
X5770524Y-17305476D01*
X5751476Y-17305476D01*
X5732428Y-17295952D01*
X5722905Y-17286429D01*
X5713381Y-17267381D01*
X5703857Y-17229286D01*
X5703857Y-17181667D01*
X5713381Y-17143571D01*
X5722905Y-17124524D01*
X5732428Y-17115000D01*
X5751476Y-17105476D01*
X5903857Y-17286429D02*
X5913381Y-17295952D01*
X5903857Y-17305476D01*
X5894333Y-17295952D01*
X5903857Y-17286429D01*
X5903857Y-17305476D01*
X6037190Y-17105476D02*
X6056238Y-17105476D01*
X6075286Y-17115000D01*
X6084809Y-17124524D01*
X6094333Y-17143571D01*
X6103857Y-17181667D01*
X6103857Y-17229286D01*
X6094333Y-17267381D01*
X6084809Y-17286429D01*
X6075286Y-17295952D01*
X6056238Y-17305476D01*
X6037190Y-17305476D01*
X6018143Y-17295952D01*
X6008619Y-17286429D01*
X5999095Y-17267381D01*
X5989571Y-17229286D01*
X5989571Y-17181667D01*
X5999095Y-17143571D01*
X6008619Y-17124524D01*
X6018143Y-17115000D01*
X6037190Y-17105476D01*
X6170524Y-17105476D02*
X6294333Y-17105476D01*
X6227667Y-17181667D01*
X6256238Y-17181667D01*
X6275286Y-17191190D01*
X6284809Y-17200714D01*
X6294333Y-17219762D01*
X6294333Y-17267381D01*
X6284809Y-17286429D01*
X6275286Y-17295952D01*
X6256238Y-17305476D01*
X6199095Y-17305476D01*
X6180048Y-17295952D01*
X6170524Y-17286429D01*
X6484809Y-17305476D02*
X6370524Y-17305476D01*
X6427667Y-17305476D02*
X6427667Y-17105476D01*
X6408619Y-17134048D01*
X6389571Y-17153095D01*
X6370524Y-17162619D01*
X6665762Y-17105476D02*
X6570524Y-17105476D01*
X6561000Y-17200714D01*
X6570524Y-17191190D01*
X6589571Y-17181667D01*
X6637190Y-17181667D01*
X6656238Y-17191190D01*
X6665762Y-17200714D01*
X6675286Y-17219762D01*
X6675286Y-17267381D01*
X6665762Y-17286429D01*
X6656238Y-17295952D01*
X6637190Y-17305476D01*
X6589571Y-17305476D01*
X6570524Y-17295952D01*
X6561000Y-17286429D01*
X6751476Y-17105476D02*
X6751476Y-17143571D01*
X6827667Y-17105476D02*
X6827667Y-17143571D01*
X7122905Y-17381667D02*
X7113381Y-17372143D01*
X7094333Y-17343571D01*
X7084809Y-17324524D01*
X7075286Y-17295952D01*
X7065762Y-17248333D01*
X7065762Y-17210238D01*
X7075286Y-17162619D01*
X7084809Y-17134048D01*
X7094333Y-17115000D01*
X7113381Y-17086429D01*
X7122905Y-17076905D01*
X7189571Y-17124524D02*
X7199095Y-17115000D01*
X7218143Y-17105476D01*
X7265762Y-17105476D01*
X7284809Y-17115000D01*
X7294333Y-17124524D01*
X7303857Y-17143571D01*
X7303857Y-17162619D01*
X7294333Y-17191190D01*
X7180048Y-17305476D01*
X7303857Y-17305476D01*
X7370524Y-17105476D02*
X7494333Y-17105476D01*
X7427667Y-17181667D01*
X7456238Y-17181667D01*
X7475286Y-17191190D01*
X7484809Y-17200714D01*
X7494333Y-17219762D01*
X7494333Y-17267381D01*
X7484809Y-17286429D01*
X7475286Y-17295952D01*
X7456238Y-17305476D01*
X7399095Y-17305476D01*
X7380048Y-17295952D01*
X7370524Y-17286429D01*
X7732428Y-17305476D02*
X7732428Y-17105476D01*
X7818143Y-17305476D02*
X7818143Y-17200714D01*
X7808619Y-17181667D01*
X7789571Y-17172143D01*
X7761000Y-17172143D01*
X7741952Y-17181667D01*
X7732428Y-17191190D01*
X7941952Y-17305476D02*
X7922905Y-17295952D01*
X7913381Y-17286429D01*
X7903857Y-17267381D01*
X7903857Y-17210238D01*
X7913381Y-17191190D01*
X7922905Y-17181667D01*
X7941952Y-17172143D01*
X7970524Y-17172143D01*
X7989571Y-17181667D01*
X7999095Y-17191190D01*
X8008619Y-17210238D01*
X8008619Y-17267381D01*
X7999095Y-17286429D01*
X7989571Y-17295952D01*
X7970524Y-17305476D01*
X7941952Y-17305476D01*
X8122905Y-17305476D02*
X8103857Y-17295952D01*
X8094333Y-17276905D01*
X8094333Y-17105476D01*
X8275286Y-17295952D02*
X8256238Y-17305476D01*
X8218143Y-17305476D01*
X8199095Y-17295952D01*
X8189571Y-17276905D01*
X8189571Y-17200714D01*
X8199095Y-17181667D01*
X8218143Y-17172143D01*
X8256238Y-17172143D01*
X8275286Y-17181667D01*
X8284809Y-17200714D01*
X8284809Y-17219762D01*
X8189571Y-17238810D01*
X8361000Y-17295952D02*
X8380048Y-17305476D01*
X8418143Y-17305476D01*
X8437190Y-17295952D01*
X8446714Y-17276905D01*
X8446714Y-17267381D01*
X8437190Y-17248333D01*
X8418143Y-17238810D01*
X8389571Y-17238810D01*
X8370524Y-17229286D01*
X8361000Y-17210238D01*
X8361000Y-17200714D01*
X8370524Y-17181667D01*
X8389571Y-17172143D01*
X8418143Y-17172143D01*
X8437190Y-17181667D01*
X8513381Y-17381667D02*
X8522905Y-17372143D01*
X8541952Y-17343571D01*
X8551476Y-17324524D01*
X8561000Y-17295952D01*
X8570524Y-17248333D01*
X8570524Y-17210238D01*
X8561000Y-17162619D01*
X8551476Y-17134048D01*
X8541952Y-17115000D01*
X8522905Y-17086429D01*
X8513381Y-17076905D01*
D19*
X3464000Y-17435500D02*
X3551000Y-17522500D01*
X3551000Y-17435500D02*
X3464000Y-17522500D01*
X3538259Y-17509759D02*
X3538259Y-17448241D01*
X3476741Y-17448241D01*
X3476741Y-17509759D01*
X3538259Y-17509759D01*
D11*
X3846714Y-17369476D02*
X3865762Y-17369476D01*
X3884809Y-17379000D01*
X3894333Y-17388524D01*
X3903857Y-17407571D01*
X3913381Y-17445667D01*
X3913381Y-17493286D01*
X3903857Y-17531381D01*
X3894333Y-17550429D01*
X3884809Y-17559952D01*
X3865762Y-17569476D01*
X3846714Y-17569476D01*
X3827667Y-17559952D01*
X3818143Y-17550429D01*
X3808619Y-17531381D01*
X3799095Y-17493286D01*
X3799095Y-17445667D01*
X3808619Y-17407571D01*
X3818143Y-17388524D01*
X3827667Y-17379000D01*
X3846714Y-17369476D01*
X3999095Y-17550429D02*
X4008619Y-17559952D01*
X3999095Y-17569476D01*
X3989571Y-17559952D01*
X3999095Y-17550429D01*
X3999095Y-17569476D01*
X4122905Y-17455190D02*
X4103857Y-17445667D01*
X4094333Y-17436143D01*
X4084809Y-17417095D01*
X4084809Y-17407571D01*
X4094333Y-17388524D01*
X4103857Y-17379000D01*
X4122905Y-17369476D01*
X4161000Y-17369476D01*
X4180048Y-17379000D01*
X4189571Y-17388524D01*
X4199095Y-17407571D01*
X4199095Y-17417095D01*
X4189571Y-17436143D01*
X4180048Y-17445667D01*
X4161000Y-17455190D01*
X4122905Y-17455190D01*
X4103857Y-17464714D01*
X4094333Y-17474238D01*
X4084809Y-17493286D01*
X4084809Y-17531381D01*
X4094333Y-17550429D01*
X4103857Y-17559952D01*
X4122905Y-17569476D01*
X4161000Y-17569476D01*
X4180048Y-17559952D01*
X4189571Y-17550429D01*
X4199095Y-17531381D01*
X4199095Y-17493286D01*
X4189571Y-17474238D01*
X4180048Y-17464714D01*
X4161000Y-17455190D01*
X4265762Y-17369476D02*
X4399095Y-17369476D01*
X4313381Y-17569476D01*
X4513381Y-17369476D02*
X4532429Y-17369476D01*
X4551476Y-17379000D01*
X4561000Y-17388524D01*
X4570524Y-17407571D01*
X4580048Y-17445667D01*
X4580048Y-17493286D01*
X4570524Y-17531381D01*
X4561000Y-17550429D01*
X4551476Y-17559952D01*
X4532429Y-17569476D01*
X4513381Y-17569476D01*
X4494333Y-17559952D01*
X4484810Y-17550429D01*
X4475286Y-17531381D01*
X4465762Y-17493286D01*
X4465762Y-17445667D01*
X4475286Y-17407571D01*
X4484810Y-17388524D01*
X4494333Y-17379000D01*
X4513381Y-17369476D01*
X4665762Y-17569476D02*
X4665762Y-17436143D01*
X4665762Y-17455190D02*
X4675286Y-17445667D01*
X4694333Y-17436143D01*
X4722905Y-17436143D01*
X4741952Y-17445667D01*
X4751476Y-17464714D01*
X4751476Y-17569476D01*
X4751476Y-17464714D02*
X4761000Y-17445667D01*
X4780048Y-17436143D01*
X4808619Y-17436143D01*
X4827667Y-17445667D01*
X4837190Y-17464714D01*
X4837190Y-17569476D01*
X4932429Y-17569476D02*
X4932429Y-17436143D01*
X4932429Y-17455190D02*
X4941952Y-17445667D01*
X4961000Y-17436143D01*
X4989571Y-17436143D01*
X5008619Y-17445667D01*
X5018143Y-17464714D01*
X5018143Y-17569476D01*
X5018143Y-17464714D02*
X5027667Y-17445667D01*
X5046714Y-17436143D01*
X5075286Y-17436143D01*
X5094333Y-17445667D01*
X5103857Y-17464714D01*
X5103857Y-17569476D01*
X5494333Y-17359952D02*
X5322905Y-17617095D01*
X5751476Y-17369476D02*
X5770524Y-17369476D01*
X5789571Y-17379000D01*
X5799095Y-17388524D01*
X5808619Y-17407571D01*
X5818143Y-17445667D01*
X5818143Y-17493286D01*
X5808619Y-17531381D01*
X5799095Y-17550429D01*
X5789571Y-17559952D01*
X5770524Y-17569476D01*
X5751476Y-17569476D01*
X5732428Y-17559952D01*
X5722905Y-17550429D01*
X5713381Y-17531381D01*
X5703857Y-17493286D01*
X5703857Y-17445667D01*
X5713381Y-17407571D01*
X5722905Y-17388524D01*
X5732428Y-17379000D01*
X5751476Y-17369476D01*
X5903857Y-17550429D02*
X5913381Y-17559952D01*
X5903857Y-17569476D01*
X5894333Y-17559952D01*
X5903857Y-17550429D01*
X5903857Y-17569476D01*
X6037190Y-17369476D02*
X6056238Y-17369476D01*
X6075286Y-17379000D01*
X6084809Y-17388524D01*
X6094333Y-17407571D01*
X6103857Y-17445667D01*
X6103857Y-17493286D01*
X6094333Y-17531381D01*
X6084809Y-17550429D01*
X6075286Y-17559952D01*
X6056238Y-17569476D01*
X6037190Y-17569476D01*
X6018143Y-17559952D01*
X6008619Y-17550429D01*
X5999095Y-17531381D01*
X5989571Y-17493286D01*
X5989571Y-17445667D01*
X5999095Y-17407571D01*
X6008619Y-17388524D01*
X6018143Y-17379000D01*
X6037190Y-17369476D01*
X6170524Y-17369476D02*
X6294333Y-17369476D01*
X6227667Y-17445667D01*
X6256238Y-17445667D01*
X6275286Y-17455190D01*
X6284809Y-17464714D01*
X6294333Y-17483762D01*
X6294333Y-17531381D01*
X6284809Y-17550429D01*
X6275286Y-17559952D01*
X6256238Y-17569476D01*
X6199095Y-17569476D01*
X6180048Y-17559952D01*
X6170524Y-17550429D01*
X6465762Y-17436143D02*
X6465762Y-17569476D01*
X6418143Y-17359952D02*
X6370524Y-17502810D01*
X6494333Y-17502810D01*
X6551476Y-17369476D02*
X6675286Y-17369476D01*
X6608619Y-17445667D01*
X6637190Y-17445667D01*
X6656238Y-17455190D01*
X6665762Y-17464714D01*
X6675286Y-17483762D01*
X6675286Y-17531381D01*
X6665762Y-17550429D01*
X6656238Y-17559952D01*
X6637190Y-17569476D01*
X6580048Y-17569476D01*
X6561000Y-17559952D01*
X6551476Y-17550429D01*
X6751476Y-17369476D02*
X6751476Y-17407571D01*
X6827667Y-17369476D02*
X6827667Y-17407571D01*
X7122905Y-17645667D02*
X7113381Y-17636143D01*
X7094333Y-17607571D01*
X7084809Y-17588524D01*
X7075286Y-17559952D01*
X7065762Y-17512333D01*
X7065762Y-17474238D01*
X7075286Y-17426619D01*
X7084809Y-17398048D01*
X7094333Y-17379000D01*
X7113381Y-17350429D01*
X7122905Y-17340905D01*
X7189571Y-17388524D02*
X7199095Y-17379000D01*
X7218143Y-17369476D01*
X7265762Y-17369476D01*
X7284809Y-17379000D01*
X7294333Y-17388524D01*
X7303857Y-17407571D01*
X7303857Y-17426619D01*
X7294333Y-17455190D01*
X7180048Y-17569476D01*
X7303857Y-17569476D01*
X7418143Y-17455190D02*
X7399095Y-17445667D01*
X7389571Y-17436143D01*
X7380048Y-17417095D01*
X7380048Y-17407571D01*
X7389571Y-17388524D01*
X7399095Y-17379000D01*
X7418143Y-17369476D01*
X7456238Y-17369476D01*
X7475286Y-17379000D01*
X7484809Y-17388524D01*
X7494333Y-17407571D01*
X7494333Y-17417095D01*
X7484809Y-17436143D01*
X7475286Y-17445667D01*
X7456238Y-17455190D01*
X7418143Y-17455190D01*
X7399095Y-17464714D01*
X7389571Y-17474238D01*
X7380048Y-17493286D01*
X7380048Y-17531381D01*
X7389571Y-17550429D01*
X7399095Y-17559952D01*
X7418143Y-17569476D01*
X7456238Y-17569476D01*
X7475286Y-17559952D01*
X7484809Y-17550429D01*
X7494333Y-17531381D01*
X7494333Y-17493286D01*
X7484809Y-17474238D01*
X7475286Y-17464714D01*
X7456238Y-17455190D01*
X7732428Y-17569476D02*
X7732428Y-17369476D01*
X7818143Y-17569476D02*
X7818143Y-17464714D01*
X7808619Y-17445667D01*
X7789571Y-17436143D01*
X7761000Y-17436143D01*
X7741952Y-17445667D01*
X7732428Y-17455190D01*
X7941952Y-17569476D02*
X7922905Y-17559952D01*
X7913381Y-17550429D01*
X7903857Y-17531381D01*
X7903857Y-17474238D01*
X7913381Y-17455190D01*
X7922905Y-17445667D01*
X7941952Y-17436143D01*
X7970524Y-17436143D01*
X7989571Y-17445667D01*
X7999095Y-17455190D01*
X8008619Y-17474238D01*
X8008619Y-17531381D01*
X7999095Y-17550429D01*
X7989571Y-17559952D01*
X7970524Y-17569476D01*
X7941952Y-17569476D01*
X8122905Y-17569476D02*
X8103857Y-17559952D01*
X8094333Y-17540905D01*
X8094333Y-17369476D01*
X8275286Y-17559952D02*
X8256238Y-17569476D01*
X8218143Y-17569476D01*
X8199095Y-17559952D01*
X8189571Y-17540905D01*
X8189571Y-17464714D01*
X8199095Y-17445667D01*
X8218143Y-17436143D01*
X8256238Y-17436143D01*
X8275286Y-17445667D01*
X8284809Y-17464714D01*
X8284809Y-17483762D01*
X8189571Y-17502810D01*
X8361000Y-17559952D02*
X8380048Y-17569476D01*
X8418143Y-17569476D01*
X8437190Y-17559952D01*
X8446714Y-17540905D01*
X8446714Y-17531381D01*
X8437190Y-17512333D01*
X8418143Y-17502810D01*
X8389571Y-17502810D01*
X8370524Y-17493286D01*
X8361000Y-17474238D01*
X8361000Y-17464714D01*
X8370524Y-17445667D01*
X8389571Y-17436143D01*
X8418143Y-17436143D01*
X8437190Y-17445667D01*
X8513381Y-17645667D02*
X8522905Y-17636143D01*
X8541952Y-17607571D01*
X8551476Y-17588524D01*
X8561000Y-17559952D01*
X8570524Y-17512333D01*
X8570524Y-17474238D01*
X8561000Y-17426619D01*
X8551476Y-17398048D01*
X8541952Y-17379000D01*
X8522905Y-17350429D01*
X8513381Y-17340905D01*
D20*
X3461000Y-17698000D02*
X3551000Y-17788000D01*
X3551000Y-17698000D02*
X3461000Y-17788000D01*
X3506000Y-17788000D02*
X3551000Y-17743000D01*
X3506000Y-17698000D01*
X3461000Y-17743000D01*
X3506000Y-17788000D01*
D11*
X3846714Y-17633476D02*
X3865762Y-17633476D01*
X3884809Y-17643000D01*
X3894333Y-17652524D01*
X3903857Y-17671571D01*
X3913381Y-17709667D01*
X3913381Y-17757286D01*
X3903857Y-17795381D01*
X3894333Y-17814429D01*
X3884809Y-17823952D01*
X3865762Y-17833476D01*
X3846714Y-17833476D01*
X3827667Y-17823952D01*
X3818143Y-17814429D01*
X3808619Y-17795381D01*
X3799095Y-17757286D01*
X3799095Y-17709667D01*
X3808619Y-17671571D01*
X3818143Y-17652524D01*
X3827667Y-17643000D01*
X3846714Y-17633476D01*
X3999095Y-17814429D02*
X4008619Y-17823952D01*
X3999095Y-17833476D01*
X3989571Y-17823952D01*
X3999095Y-17814429D01*
X3999095Y-17833476D01*
X4103857Y-17833476D02*
X4141952Y-17833476D01*
X4161000Y-17823952D01*
X4170524Y-17814429D01*
X4189571Y-17785857D01*
X4199095Y-17747762D01*
X4199095Y-17671571D01*
X4189571Y-17652524D01*
X4180048Y-17643000D01*
X4161000Y-17633476D01*
X4122905Y-17633476D01*
X4103857Y-17643000D01*
X4094333Y-17652524D01*
X4084809Y-17671571D01*
X4084809Y-17719190D01*
X4094333Y-17738238D01*
X4103857Y-17747762D01*
X4122905Y-17757286D01*
X4161000Y-17757286D01*
X4180048Y-17747762D01*
X4189571Y-17738238D01*
X4199095Y-17719190D01*
X4322905Y-17633476D02*
X4341952Y-17633476D01*
X4361000Y-17643000D01*
X4370524Y-17652524D01*
X4380048Y-17671571D01*
X4389571Y-17709667D01*
X4389571Y-17757286D01*
X4380048Y-17795381D01*
X4370524Y-17814429D01*
X4361000Y-17823952D01*
X4341952Y-17833476D01*
X4322905Y-17833476D01*
X4303857Y-17823952D01*
X4294333Y-17814429D01*
X4284810Y-17795381D01*
X4275286Y-17757286D01*
X4275286Y-17709667D01*
X4284810Y-17671571D01*
X4294333Y-17652524D01*
X4303857Y-17643000D01*
X4322905Y-17633476D01*
X4513381Y-17633476D02*
X4532429Y-17633476D01*
X4551476Y-17643000D01*
X4561000Y-17652524D01*
X4570524Y-17671571D01*
X4580048Y-17709667D01*
X4580048Y-17757286D01*
X4570524Y-17795381D01*
X4561000Y-17814429D01*
X4551476Y-17823952D01*
X4532429Y-17833476D01*
X4513381Y-17833476D01*
X4494333Y-17823952D01*
X4484810Y-17814429D01*
X4475286Y-17795381D01*
X4465762Y-17757286D01*
X4465762Y-17709667D01*
X4475286Y-17671571D01*
X4484810Y-17652524D01*
X4494333Y-17643000D01*
X4513381Y-17633476D01*
X4665762Y-17833476D02*
X4665762Y-17700143D01*
X4665762Y-17719190D02*
X4675286Y-17709667D01*
X4694333Y-17700143D01*
X4722905Y-17700143D01*
X4741952Y-17709667D01*
X4751476Y-17728714D01*
X4751476Y-17833476D01*
X4751476Y-17728714D02*
X4761000Y-17709667D01*
X4780048Y-17700143D01*
X4808619Y-17700143D01*
X4827667Y-17709667D01*
X4837190Y-17728714D01*
X4837190Y-17833476D01*
X4932429Y-17833476D02*
X4932429Y-17700143D01*
X4932429Y-17719190D02*
X4941952Y-17709667D01*
X4961000Y-17700143D01*
X4989571Y-17700143D01*
X5008619Y-17709667D01*
X5018143Y-17728714D01*
X5018143Y-17833476D01*
X5018143Y-17728714D02*
X5027667Y-17709667D01*
X5046714Y-17700143D01*
X5075286Y-17700143D01*
X5094333Y-17709667D01*
X5103857Y-17728714D01*
X5103857Y-17833476D01*
X5494333Y-17623952D02*
X5322905Y-17881095D01*
X5751476Y-17633476D02*
X5770524Y-17633476D01*
X5789571Y-17643000D01*
X5799095Y-17652524D01*
X5808619Y-17671571D01*
X5818143Y-17709667D01*
X5818143Y-17757286D01*
X5808619Y-17795381D01*
X5799095Y-17814429D01*
X5789571Y-17823952D01*
X5770524Y-17833476D01*
X5751476Y-17833476D01*
X5732428Y-17823952D01*
X5722905Y-17814429D01*
X5713381Y-17795381D01*
X5703857Y-17757286D01*
X5703857Y-17709667D01*
X5713381Y-17671571D01*
X5722905Y-17652524D01*
X5732428Y-17643000D01*
X5751476Y-17633476D01*
X5903857Y-17814429D02*
X5913381Y-17823952D01*
X5903857Y-17833476D01*
X5894333Y-17823952D01*
X5903857Y-17814429D01*
X5903857Y-17833476D01*
X6037190Y-17633476D02*
X6056238Y-17633476D01*
X6075286Y-17643000D01*
X6084809Y-17652524D01*
X6094333Y-17671571D01*
X6103857Y-17709667D01*
X6103857Y-17757286D01*
X6094333Y-17795381D01*
X6084809Y-17814429D01*
X6075286Y-17823952D01*
X6056238Y-17833476D01*
X6037190Y-17833476D01*
X6018143Y-17823952D01*
X6008619Y-17814429D01*
X5999095Y-17795381D01*
X5989571Y-17757286D01*
X5989571Y-17709667D01*
X5999095Y-17671571D01*
X6008619Y-17652524D01*
X6018143Y-17643000D01*
X6037190Y-17633476D01*
X6170524Y-17633476D02*
X6294333Y-17633476D01*
X6227667Y-17709667D01*
X6256238Y-17709667D01*
X6275286Y-17719190D01*
X6284809Y-17728714D01*
X6294333Y-17747762D01*
X6294333Y-17795381D01*
X6284809Y-17814429D01*
X6275286Y-17823952D01*
X6256238Y-17833476D01*
X6199095Y-17833476D01*
X6180048Y-17823952D01*
X6170524Y-17814429D01*
X6475286Y-17633476D02*
X6380048Y-17633476D01*
X6370524Y-17728714D01*
X6380048Y-17719190D01*
X6399095Y-17709667D01*
X6446714Y-17709667D01*
X6465762Y-17719190D01*
X6475286Y-17728714D01*
X6484809Y-17747762D01*
X6484809Y-17795381D01*
X6475286Y-17814429D01*
X6465762Y-17823952D01*
X6446714Y-17833476D01*
X6399095Y-17833476D01*
X6380048Y-17823952D01*
X6370524Y-17814429D01*
X6656238Y-17700143D02*
X6656238Y-17833476D01*
X6608619Y-17623952D02*
X6561000Y-17766810D01*
X6684809Y-17766810D01*
X6751476Y-17633476D02*
X6751476Y-17671571D01*
X6827667Y-17633476D02*
X6827667Y-17671571D01*
X7122905Y-17909667D02*
X7113381Y-17900143D01*
X7094333Y-17871571D01*
X7084809Y-17852524D01*
X7075286Y-17823952D01*
X7065762Y-17776333D01*
X7065762Y-17738238D01*
X7075286Y-17690619D01*
X7084809Y-17662048D01*
X7094333Y-17643000D01*
X7113381Y-17614429D01*
X7122905Y-17604905D01*
X7294333Y-17633476D02*
X7199095Y-17633476D01*
X7189571Y-17728714D01*
X7199095Y-17719190D01*
X7218143Y-17709667D01*
X7265762Y-17709667D01*
X7284809Y-17719190D01*
X7294333Y-17728714D01*
X7303857Y-17747762D01*
X7303857Y-17795381D01*
X7294333Y-17814429D01*
X7284809Y-17823952D01*
X7265762Y-17833476D01*
X7218143Y-17833476D01*
X7199095Y-17823952D01*
X7189571Y-17814429D01*
X7427667Y-17633476D02*
X7446714Y-17633476D01*
X7465762Y-17643000D01*
X7475286Y-17652524D01*
X7484809Y-17671571D01*
X7494333Y-17709667D01*
X7494333Y-17757286D01*
X7484809Y-17795381D01*
X7475286Y-17814429D01*
X7465762Y-17823952D01*
X7446714Y-17833476D01*
X7427667Y-17833476D01*
X7408619Y-17823952D01*
X7399095Y-17814429D01*
X7389571Y-17795381D01*
X7380048Y-17757286D01*
X7380048Y-17709667D01*
X7389571Y-17671571D01*
X7399095Y-17652524D01*
X7408619Y-17643000D01*
X7427667Y-17633476D01*
X7732428Y-17833476D02*
X7732428Y-17633476D01*
X7818143Y-17833476D02*
X7818143Y-17728714D01*
X7808619Y-17709667D01*
X7789571Y-17700143D01*
X7761000Y-17700143D01*
X7741952Y-17709667D01*
X7732428Y-17719190D01*
X7941952Y-17833476D02*
X7922905Y-17823952D01*
X7913381Y-17814429D01*
X7903857Y-17795381D01*
X7903857Y-17738238D01*
X7913381Y-17719190D01*
X7922905Y-17709667D01*
X7941952Y-17700143D01*
X7970524Y-17700143D01*
X7989571Y-17709667D01*
X7999095Y-17719190D01*
X8008619Y-17738238D01*
X8008619Y-17795381D01*
X7999095Y-17814429D01*
X7989571Y-17823952D01*
X7970524Y-17833476D01*
X7941952Y-17833476D01*
X8122905Y-17833476D02*
X8103857Y-17823952D01*
X8094333Y-17804905D01*
X8094333Y-17633476D01*
X8275286Y-17823952D02*
X8256238Y-17833476D01*
X8218143Y-17833476D01*
X8199095Y-17823952D01*
X8189571Y-17804905D01*
X8189571Y-17728714D01*
X8199095Y-17709667D01*
X8218143Y-17700143D01*
X8256238Y-17700143D01*
X8275286Y-17709667D01*
X8284809Y-17728714D01*
X8284809Y-17747762D01*
X8189571Y-17766810D01*
X8361000Y-17823952D02*
X8380048Y-17833476D01*
X8418143Y-17833476D01*
X8437190Y-17823952D01*
X8446714Y-17804905D01*
X8446714Y-17795381D01*
X8437190Y-17776333D01*
X8418143Y-17766810D01*
X8389571Y-17766810D01*
X8370524Y-17757286D01*
X8361000Y-17738238D01*
X8361000Y-17728714D01*
X8370524Y-17709667D01*
X8389571Y-17700143D01*
X8418143Y-17700143D01*
X8437190Y-17709667D01*
X8513381Y-17909667D02*
X8522905Y-17900143D01*
X8541952Y-17871571D01*
X8551476Y-17852524D01*
X8561000Y-17823952D01*
X8570524Y-17776333D01*
X8570524Y-17738238D01*
X8561000Y-17690619D01*
X8551476Y-17662048D01*
X8541952Y-17643000D01*
X8522905Y-17614429D01*
X8513381Y-17604905D01*
D10*
X3501000Y-17957000D02*
X3501000Y-18057000D01*
X3451000Y-18007000D02*
X3551000Y-18007000D01*
X3551000Y-18007000D02*
G75*
G03*
X3551000Y-18007000I-50000J0D01*
G01*
D11*
X3913381Y-18097476D02*
X3799095Y-18097476D01*
X3856238Y-18097476D02*
X3856238Y-17897476D01*
X3837190Y-17926048D01*
X3818143Y-17945095D01*
X3799095Y-17954619D01*
X3999095Y-18078429D02*
X4008619Y-18087952D01*
X3999095Y-18097476D01*
X3989571Y-18087952D01*
X3999095Y-18078429D01*
X3999095Y-18097476D01*
X4132428Y-17897476D02*
X4151476Y-17897476D01*
X4170524Y-17907000D01*
X4180048Y-17916524D01*
X4189571Y-17935571D01*
X4199095Y-17973667D01*
X4199095Y-18021286D01*
X4189571Y-18059381D01*
X4180048Y-18078429D01*
X4170524Y-18087952D01*
X4151476Y-18097476D01*
X4132428Y-18097476D01*
X4113381Y-18087952D01*
X4103857Y-18078429D01*
X4094333Y-18059381D01*
X4084809Y-18021286D01*
X4084809Y-17973667D01*
X4094333Y-17935571D01*
X4103857Y-17916524D01*
X4113381Y-17907000D01*
X4132428Y-17897476D01*
X4322905Y-17897476D02*
X4341952Y-17897476D01*
X4361000Y-17907000D01*
X4370524Y-17916524D01*
X4380048Y-17935571D01*
X4389571Y-17973667D01*
X4389571Y-18021286D01*
X4380048Y-18059381D01*
X4370524Y-18078429D01*
X4361000Y-18087952D01*
X4341952Y-18097476D01*
X4322905Y-18097476D01*
X4303857Y-18087952D01*
X4294333Y-18078429D01*
X4284810Y-18059381D01*
X4275286Y-18021286D01*
X4275286Y-17973667D01*
X4284810Y-17935571D01*
X4294333Y-17916524D01*
X4303857Y-17907000D01*
X4322905Y-17897476D01*
X4513381Y-17897476D02*
X4532429Y-17897476D01*
X4551476Y-17907000D01*
X4561000Y-17916524D01*
X4570524Y-17935571D01*
X4580048Y-17973667D01*
X4580048Y-18021286D01*
X4570524Y-18059381D01*
X4561000Y-18078429D01*
X4551476Y-18087952D01*
X4532429Y-18097476D01*
X4513381Y-18097476D01*
X4494333Y-18087952D01*
X4484810Y-18078429D01*
X4475286Y-18059381D01*
X4465762Y-18021286D01*
X4465762Y-17973667D01*
X4475286Y-17935571D01*
X4484810Y-17916524D01*
X4494333Y-17907000D01*
X4513381Y-17897476D01*
X4665762Y-18097476D02*
X4665762Y-17964143D01*
X4665762Y-17983190D02*
X4675286Y-17973667D01*
X4694333Y-17964143D01*
X4722905Y-17964143D01*
X4741952Y-17973667D01*
X4751476Y-17992714D01*
X4751476Y-18097476D01*
X4751476Y-17992714D02*
X4761000Y-17973667D01*
X4780048Y-17964143D01*
X4808619Y-17964143D01*
X4827667Y-17973667D01*
X4837190Y-17992714D01*
X4837190Y-18097476D01*
X4932429Y-18097476D02*
X4932429Y-17964143D01*
X4932429Y-17983190D02*
X4941952Y-17973667D01*
X4961000Y-17964143D01*
X4989571Y-17964143D01*
X5008619Y-17973667D01*
X5018143Y-17992714D01*
X5018143Y-18097476D01*
X5018143Y-17992714D02*
X5027667Y-17973667D01*
X5046714Y-17964143D01*
X5075286Y-17964143D01*
X5094333Y-17973667D01*
X5103857Y-17992714D01*
X5103857Y-18097476D01*
X5494333Y-17887952D02*
X5322905Y-18145095D01*
X5751476Y-17897476D02*
X5770524Y-17897476D01*
X5789571Y-17907000D01*
X5799095Y-17916524D01*
X5808619Y-17935571D01*
X5818143Y-17973667D01*
X5818143Y-18021286D01*
X5808619Y-18059381D01*
X5799095Y-18078429D01*
X5789571Y-18087952D01*
X5770524Y-18097476D01*
X5751476Y-18097476D01*
X5732428Y-18087952D01*
X5722905Y-18078429D01*
X5713381Y-18059381D01*
X5703857Y-18021286D01*
X5703857Y-17973667D01*
X5713381Y-17935571D01*
X5722905Y-17916524D01*
X5732428Y-17907000D01*
X5751476Y-17897476D01*
X5903857Y-18078429D02*
X5913381Y-18087952D01*
X5903857Y-18097476D01*
X5894333Y-18087952D01*
X5903857Y-18078429D01*
X5903857Y-18097476D01*
X6037190Y-17897476D02*
X6056238Y-17897476D01*
X6075286Y-17907000D01*
X6084809Y-17916524D01*
X6094333Y-17935571D01*
X6103857Y-17973667D01*
X6103857Y-18021286D01*
X6094333Y-18059381D01*
X6084809Y-18078429D01*
X6075286Y-18087952D01*
X6056238Y-18097476D01*
X6037190Y-18097476D01*
X6018143Y-18087952D01*
X6008619Y-18078429D01*
X5999095Y-18059381D01*
X5989571Y-18021286D01*
X5989571Y-17973667D01*
X5999095Y-17935571D01*
X6008619Y-17916524D01*
X6018143Y-17907000D01*
X6037190Y-17897476D01*
X6170524Y-17897476D02*
X6294333Y-17897476D01*
X6227667Y-17973667D01*
X6256238Y-17973667D01*
X6275286Y-17983190D01*
X6284809Y-17992714D01*
X6294333Y-18011762D01*
X6294333Y-18059381D01*
X6284809Y-18078429D01*
X6275286Y-18087952D01*
X6256238Y-18097476D01*
X6199095Y-18097476D01*
X6180048Y-18087952D01*
X6170524Y-18078429D01*
X6389571Y-18097476D02*
X6427667Y-18097476D01*
X6446714Y-18087952D01*
X6456238Y-18078429D01*
X6475286Y-18049857D01*
X6484809Y-18011762D01*
X6484809Y-17935571D01*
X6475286Y-17916524D01*
X6465762Y-17907000D01*
X6446714Y-17897476D01*
X6408619Y-17897476D01*
X6389571Y-17907000D01*
X6380048Y-17916524D01*
X6370524Y-17935571D01*
X6370524Y-17983190D01*
X6380048Y-18002238D01*
X6389571Y-18011762D01*
X6408619Y-18021286D01*
X6446714Y-18021286D01*
X6465762Y-18011762D01*
X6475286Y-18002238D01*
X6484809Y-17983190D01*
X6656238Y-17964143D02*
X6656238Y-18097476D01*
X6608619Y-17887952D02*
X6561000Y-18030810D01*
X6684809Y-18030810D01*
X6751476Y-17897476D02*
X6751476Y-17935571D01*
X6827667Y-17897476D02*
X6827667Y-17935571D01*
X7122905Y-18173667D02*
X7113381Y-18164143D01*
X7094333Y-18135571D01*
X7084809Y-18116524D01*
X7075286Y-18087952D01*
X7065762Y-18040333D01*
X7065762Y-18002238D01*
X7075286Y-17954619D01*
X7084809Y-17926048D01*
X7094333Y-17907000D01*
X7113381Y-17878429D01*
X7122905Y-17868905D01*
X7208619Y-18097476D02*
X7246714Y-18097476D01*
X7265762Y-18087952D01*
X7275286Y-18078429D01*
X7294333Y-18049857D01*
X7303857Y-18011762D01*
X7303857Y-17935571D01*
X7294333Y-17916524D01*
X7284809Y-17907000D01*
X7265762Y-17897476D01*
X7227667Y-17897476D01*
X7208619Y-17907000D01*
X7199095Y-17916524D01*
X7189571Y-17935571D01*
X7189571Y-17983190D01*
X7199095Y-18002238D01*
X7208619Y-18011762D01*
X7227667Y-18021286D01*
X7265762Y-18021286D01*
X7284809Y-18011762D01*
X7294333Y-18002238D01*
X7303857Y-17983190D01*
X7494333Y-18097476D02*
X7380048Y-18097476D01*
X7437190Y-18097476D02*
X7437190Y-17897476D01*
X7418143Y-17926048D01*
X7399095Y-17945095D01*
X7380048Y-17954619D01*
X7732428Y-18097476D02*
X7732428Y-17897476D01*
X7818143Y-18097476D02*
X7818143Y-17992714D01*
X7808619Y-17973667D01*
X7789571Y-17964143D01*
X7761000Y-17964143D01*
X7741952Y-17973667D01*
X7732428Y-17983190D01*
X7941952Y-18097476D02*
X7922905Y-18087952D01*
X7913381Y-18078429D01*
X7903857Y-18059381D01*
X7903857Y-18002238D01*
X7913381Y-17983190D01*
X7922905Y-17973667D01*
X7941952Y-17964143D01*
X7970524Y-17964143D01*
X7989571Y-17973667D01*
X7999095Y-17983190D01*
X8008619Y-18002238D01*
X8008619Y-18059381D01*
X7999095Y-18078429D01*
X7989571Y-18087952D01*
X7970524Y-18097476D01*
X7941952Y-18097476D01*
X8122905Y-18097476D02*
X8103857Y-18087952D01*
X8094333Y-18068905D01*
X8094333Y-17897476D01*
X8275286Y-18087952D02*
X8256238Y-18097476D01*
X8218143Y-18097476D01*
X8199095Y-18087952D01*
X8189571Y-18068905D01*
X8189571Y-17992714D01*
X8199095Y-17973667D01*
X8218143Y-17964143D01*
X8256238Y-17964143D01*
X8275286Y-17973667D01*
X8284809Y-17992714D01*
X8284809Y-18011762D01*
X8189571Y-18030810D01*
X8361000Y-18087952D02*
X8380048Y-18097476D01*
X8418143Y-18097476D01*
X8437190Y-18087952D01*
X8446714Y-18068905D01*
X8446714Y-18059381D01*
X8437190Y-18040333D01*
X8418143Y-18030810D01*
X8389571Y-18030810D01*
X8370524Y-18021286D01*
X8361000Y-18002238D01*
X8361000Y-17992714D01*
X8370524Y-17973667D01*
X8389571Y-17964143D01*
X8418143Y-17964143D01*
X8437190Y-17973667D01*
X8513381Y-18173667D02*
X8522905Y-18164143D01*
X8541952Y-18135571D01*
X8551476Y-18116524D01*
X8561000Y-18087952D01*
X8570524Y-18040333D01*
X8570524Y-18002238D01*
X8561000Y-17954619D01*
X8551476Y-17926048D01*
X8541952Y-17907000D01*
X8522905Y-17878429D01*
X8513381Y-17868905D01*
M02*
