%TF.GenerationSoftware,KiCad,Pcbnew,(6.0.9)*%
%TF.CreationDate,2025-06-18T12:33:42-04:00*%
%TF.ProjectId,Motherboard,4d6f7468-6572-4626-9f61-72642e6b6963,1*%
%TF.SameCoordinates,Original*%
%TF.FileFunction,Copper,L1,Top*%
%TF.FilePolarity,Positive*%
%FSLAX46Y46*%
G04 Gerber Fmt 4.6, Leading zero omitted, Abs format (unit mm)*
G04 Created by KiCad (PCBNEW (6.0.9)) date 2025-06-18 12:33:42*
%MOMM*%
%LPD*%
G01*
G04 APERTURE LIST*
%TA.AperFunction,ComponentPad*%
%ADD10C,1.400000*%
%TD*%
%TA.AperFunction,ComponentPad*%
%ADD11O,1.400000X1.400000*%
%TD*%
%TA.AperFunction,ComponentPad*%
%ADD12R,1.800000X1.800000*%
%TD*%
%TA.AperFunction,ComponentPad*%
%ADD13C,1.800000*%
%TD*%
%TA.AperFunction,ComponentPad*%
%ADD14R,1.308000X1.308000*%
%TD*%
%TA.AperFunction,ComponentPad*%
%ADD15C,1.308000*%
%TD*%
%TA.AperFunction,ComponentPad*%
%ADD16R,1.295400X1.295400*%
%TD*%
%TA.AperFunction,ComponentPad*%
%ADD17C,1.295400*%
%TD*%
%TA.AperFunction,ComponentPad*%
%ADD18R,1.700000X1.700000*%
%TD*%
%TA.AperFunction,ComponentPad*%
%ADD19O,1.700000X1.700000*%
%TD*%
%TA.AperFunction,ComponentPad*%
%ADD20R,1.378000X1.378000*%
%TD*%
%TA.AperFunction,ComponentPad*%
%ADD21C,1.378000*%
%TD*%
%TA.AperFunction,ComponentPad*%
%ADD22R,1.130000X1.130000*%
%TD*%
%TA.AperFunction,ComponentPad*%
%ADD23C,1.130000*%
%TD*%
%TA.AperFunction,ComponentPad*%
%ADD24R,1.600000X1.600000*%
%TD*%
%TA.AperFunction,ComponentPad*%
%ADD25C,1.600000*%
%TD*%
%TA.AperFunction,SMDPad,CuDef*%
%ADD26R,1.200000X0.700000*%
%TD*%
%TA.AperFunction,SMDPad,CuDef*%
%ADD27R,1.200000X0.760000*%
%TD*%
%TA.AperFunction,SMDPad,CuDef*%
%ADD28R,1.200000X0.800000*%
%TD*%
%TA.AperFunction,ComponentPad*%
%ADD29O,1.750000X1.150000*%
%TD*%
%TA.AperFunction,ViaPad*%
%ADD30C,0.800000*%
%TD*%
%TA.AperFunction,Conductor*%
%ADD31C,0.250000*%
%TD*%
G04 APERTURE END LIST*
D10*
%TO.P,R6,1*%
%TO.N,Gnd*%
X96520000Y-123190000D03*
D11*
%TO.P,R6,2*%
%TO.N,Net-(D5-Pad1)*%
X91440000Y-123190000D03*
%TD*%
D10*
%TO.P,R12,1*%
%TO.N,Gnd*%
X45720000Y-123190000D03*
D11*
%TO.P,R12,2*%
%TO.N,Net-(D11-Pad1)*%
X50800000Y-123190000D03*
%TD*%
D10*
%TO.P,R4,1*%
%TO.N,Gnd*%
X111760000Y-123190000D03*
D11*
%TO.P,R4,2*%
%TO.N,Net-(D3-Pad1)*%
X106680000Y-123190000D03*
%TD*%
D12*
%TO.P,D18,1,K*%
%TO.N,Net-(D18-Pad1)*%
X78740000Y-137160000D03*
D13*
%TO.P,D18,2,A*%
%TO.N,D7*%
X81280000Y-137160000D03*
%TD*%
D12*
%TO.P,D12,1,K*%
%TO.N,Net-(D12-Pad1)*%
X63500000Y-127000000D03*
D13*
%TO.P,D12,2,A*%
%TO.N,A10*%
X66040000Y-127000000D03*
%TD*%
D10*
%TO.P,R5,1*%
%TO.N,Gnd*%
X104140000Y-123190000D03*
D11*
%TO.P,R5,2*%
%TO.N,Net-(D4-Pad1)*%
X99060000Y-123190000D03*
%TD*%
D10*
%TO.P,R19,1*%
%TO.N,Gnd*%
X71120000Y-135890000D03*
D11*
%TO.P,R19,2*%
%TO.N,Net-(D18-Pad1)*%
X76200000Y-135890000D03*
%TD*%
D14*
%TO.P,SW1,1,A*%
%TO.N,Arduino{slash}Debug control*%
X129540000Y-114260000D03*
D15*
%TO.P,SW1,2,B*%
%TO.N,Pwr*%
X129540000Y-111760000D03*
%TO.P,SW1,3,C*%
%TO.N,unconnected-(SW1-Pad3)*%
X129540000Y-109260000D03*
%TD*%
D16*
%TO.P,U1,1,2Y1*%
%TO.N,D1-Debug*%
X76200000Y-118110000D03*
D17*
%TO.P,U1,2,2Y0*%
%TO.N,D1-Arduino*%
X78740000Y-118110000D03*
%TO.P,U1,3,3Y1*%
%TO.N,D2-Debug*%
X81280000Y-118110000D03*
%TO.P,U1,4,3-COM*%
%TO.N,D2*%
X83820000Y-118110000D03*
%TO.P,U1,5,3Y0*%
%TO.N,D2-Arduino*%
X86360000Y-118110000D03*
%TO.P,U1,6,INH*%
%TO.N,Gnd*%
X88900000Y-118110000D03*
%TO.P,U1,7,GND*%
X91440000Y-118110000D03*
%TO.P,U1,8,GND*%
X93980000Y-118110000D03*
%TO.P,U1,9,C*%
%TO.N,Arduino{slash}Debug control*%
X93980000Y-110490000D03*
%TO.P,U1,10,B*%
X91440000Y-110490000D03*
%TO.P,U1,11,A*%
X88900000Y-110490000D03*
%TO.P,U1,12,1Y0*%
%TO.N,D0-Arduino*%
X86360000Y-110490000D03*
%TO.P,U1,13,1Y1*%
%TO.N,D0-Debug*%
X83820000Y-110490000D03*
%TO.P,U1,14,1-COM*%
%TO.N,D0*%
X81280000Y-110490000D03*
%TO.P,U1,15,2-COM*%
%TO.N,D1*%
X78740000Y-110490000D03*
%TO.P,U1,16,VCC*%
%TO.N,Pwr*%
X76200000Y-110490000D03*
%TD*%
D16*
%TO.P,U6,1,2Y1*%
%TO.N,D7-Debug*%
X76200000Y-95250000D03*
D17*
%TO.P,U6,2,2Y0*%
%TO.N,D7-Arduino*%
X78740000Y-95250000D03*
%TO.P,U6,3,3Y1*%
%TO.N,unconnected-(U6-Pad3)*%
X81280000Y-95250000D03*
%TO.P,U6,4,3-COM*%
%TO.N,unconnected-(U6-Pad4)*%
X83820000Y-95250000D03*
%TO.P,U6,5,3Y0*%
%TO.N,unconnected-(U6-Pad5)*%
X86360000Y-95250000D03*
%TO.P,U6,6,INH*%
%TO.N,Gnd*%
X88900000Y-95250000D03*
%TO.P,U6,7,GND*%
X91440000Y-95250000D03*
%TO.P,U6,8,GND*%
X93980000Y-95250000D03*
%TO.P,U6,9,C*%
%TO.N,Arduino{slash}Debug control*%
X93980000Y-87630000D03*
%TO.P,U6,10,B*%
X91440000Y-87630000D03*
%TO.P,U6,11,A*%
X88900000Y-87630000D03*
%TO.P,U6,12,1Y0*%
%TO.N,D6-Arduino*%
X86360000Y-87630000D03*
%TO.P,U6,13,1Y1*%
%TO.N,D6-Debug*%
X83820000Y-87630000D03*
%TO.P,U6,14,1-COM*%
%TO.N,D6*%
X81280000Y-87630000D03*
%TO.P,U6,15,2-COM*%
%TO.N,D7*%
X78740000Y-87630000D03*
%TO.P,U6,16,VCC*%
%TO.N,Pwr*%
X76200000Y-87630000D03*
%TD*%
D10*
%TO.P,R9,1*%
%TO.N,Gnd*%
X73660000Y-123190000D03*
D11*
%TO.P,R9,2*%
%TO.N,Net-(D8-Pad1)*%
X68580000Y-123190000D03*
%TD*%
D12*
%TO.P,D15,1,K*%
%TO.N,Net-(D15-Pad1)*%
X58420000Y-137160000D03*
D13*
%TO.P,D15,2,A*%
%TO.N,OE'*%
X60960000Y-137160000D03*
%TD*%
D10*
%TO.P,R14,1*%
%TO.N,Gnd*%
X68580000Y-140970000D03*
D11*
%TO.P,R14,2*%
%TO.N,Net-(D13-Pad1)*%
X68580000Y-135890000D03*
%TD*%
D10*
%TO.P,R23,1*%
%TO.N,Gnd*%
X86360000Y-140970000D03*
D11*
%TO.P,R23,2*%
%TO.N,Net-(D22-Pad1)*%
X91440000Y-140970000D03*
%TD*%
D10*
%TO.P,R26,1*%
%TO.N,Gnd*%
X109220000Y-140970000D03*
D11*
%TO.P,R26,2*%
%TO.N,Net-(D25-Pad1)*%
X114300000Y-140970000D03*
%TD*%
D16*
%TO.P,U4,1,2Y1*%
%TO.N,D4-Debug*%
X76200000Y-106680000D03*
D17*
%TO.P,U4,2,2Y0*%
%TO.N,D4-Arduino*%
X78740000Y-106680000D03*
%TO.P,U4,3,3Y1*%
%TO.N,D5-Debug*%
X81280000Y-106680000D03*
%TO.P,U4,4,3-COM*%
%TO.N,D5*%
X83820000Y-106680000D03*
%TO.P,U4,5,3Y0*%
%TO.N,D5-Arduino*%
X86360000Y-106680000D03*
%TO.P,U4,6,INH*%
%TO.N,Gnd*%
X88900000Y-106680000D03*
%TO.P,U4,7,GND*%
X91440000Y-106680000D03*
%TO.P,U4,8,GND*%
X93980000Y-106680000D03*
%TO.P,U4,9,C*%
%TO.N,Arduino{slash}Debug control*%
X93980000Y-99060000D03*
%TO.P,U4,10,B*%
X91440000Y-99060000D03*
%TO.P,U4,11,A*%
X88900000Y-99060000D03*
%TO.P,U4,12,1Y0*%
%TO.N,D3-Arduino*%
X86360000Y-99060000D03*
%TO.P,U4,13,1Y1*%
%TO.N,D3-Debug*%
X83820000Y-99060000D03*
%TO.P,U4,14,1-COM*%
%TO.N,D3*%
X81280000Y-99060000D03*
%TO.P,U4,15,2-COM*%
%TO.N,D4*%
X78740000Y-99060000D03*
%TO.P,U4,16,VCC*%
%TO.N,Pwr*%
X76200000Y-99060000D03*
%TD*%
D10*
%TO.P,R22,1*%
%TO.N,Gnd*%
X78740000Y-140970000D03*
D11*
%TO.P,R22,2*%
%TO.N,Net-(D21-Pad1)*%
X83820000Y-140970000D03*
%TD*%
D10*
%TO.P,R16,1*%
%TO.N,Gnd*%
X66040000Y-140970000D03*
D11*
%TO.P,R16,2*%
%TO.N,Net-(D15-Pad1)*%
X60960000Y-140970000D03*
%TD*%
D18*
%TO.P,J4,1,Pin_1*%
%TO.N,A12-Debug*%
X54635000Y-146730000D03*
D19*
%TO.P,J4,2,Pin_2*%
%TO.N,A11-Debug*%
X57175000Y-146730000D03*
%TO.P,J4,3,Pin_3*%
%TO.N,A10-Debug*%
X59715000Y-146730000D03*
%TO.P,J4,4,Pin_4*%
%TO.N,A9-Debug*%
X62255000Y-146730000D03*
%TO.P,J4,5,Pin_5*%
%TO.N,A8-Debug*%
X64795000Y-146730000D03*
%TO.P,J4,6,Pin_6*%
%TO.N,A7-Debug*%
X67335000Y-146730000D03*
%TO.P,J4,7,Pin_7*%
%TO.N,A6-Debug*%
X69875000Y-146730000D03*
%TO.P,J4,8,Pin_8*%
%TO.N,A5-Debug*%
X72415000Y-146730000D03*
%TO.P,J4,9,Pin_9*%
%TO.N,A4-Debug*%
X74955000Y-146730000D03*
%TO.P,J4,10,Pin_10*%
%TO.N,A3-Debug*%
X77495000Y-146730000D03*
%TO.P,J4,11,Pin_11*%
%TO.N,A2-Debug*%
X80035000Y-146730000D03*
%TO.P,J4,12,Pin_12*%
%TO.N,A1-Debug*%
X82575000Y-146730000D03*
%TO.P,J4,13,Pin_13*%
%TO.N,A0-Debug*%
X85115000Y-146730000D03*
%TO.P,J4,14,Pin_14*%
%TO.N,D7-Debug*%
X87655000Y-146730000D03*
%TO.P,J4,15,Pin_15*%
%TO.N,D6-Debug*%
X90195000Y-146730000D03*
%TO.P,J4,16,Pin_16*%
%TO.N,D5-Debug*%
X92735000Y-146730000D03*
%TO.P,J4,17,Pin_17*%
%TO.N,D4-Debug*%
X95275000Y-146730000D03*
%TO.P,J4,18,Pin_18*%
%TO.N,D3-Debug*%
X97815000Y-146730000D03*
%TO.P,J4,19,Pin_19*%
%TO.N,D2-Debug*%
X100355000Y-146730000D03*
%TO.P,J4,20,Pin_20*%
%TO.N,D1-Debug*%
X102895000Y-146730000D03*
%TO.P,J4,21,Pin_21*%
%TO.N,D0-Debug*%
X105435000Y-146730000D03*
%TO.P,J4,22,Pin_22*%
%TO.N,WE'-Debug*%
X107975000Y-146730000D03*
%TO.P,J4,23,Pin_23*%
%TO.N,CE'-Debug*%
X110515000Y-146730000D03*
%TO.P,J4,24,Pin_24*%
%TO.N,OE'-Debug*%
X113055000Y-146730000D03*
%TO.P,J4,25,Pin_25*%
%TO.N,Pwr*%
X115595000Y-146730000D03*
%TO.P,J4,26,Pin_26*%
%TO.N,Gnd*%
X118135000Y-146730000D03*
%TD*%
D12*
%TO.P,D1,1,K*%
%TO.N,Net-(D1-Pad1)*%
X133350000Y-137160000D03*
D13*
%TO.P,D1,2,A*%
%TO.N,Pwr*%
X130810000Y-137160000D03*
%TD*%
D12*
%TO.P,D10,1,K*%
%TO.N,Net-(D10-Pad1)*%
X73660000Y-127000000D03*
D13*
%TO.P,D10,2,A*%
%TO.N,A8*%
X76200000Y-127000000D03*
%TD*%
D12*
%TO.P,D8,1,K*%
%TO.N,Net-(D8-Pad1)*%
X83820000Y-127000000D03*
D13*
%TO.P,D8,2,A*%
%TO.N,A6*%
X86360000Y-127000000D03*
%TD*%
D12*
%TO.P,D24,1,K*%
%TO.N,Net-(D24-Pad1)*%
X109220000Y-137160000D03*
D13*
%TO.P,D24,2,A*%
%TO.N,D1*%
X111760000Y-137160000D03*
%TD*%
D18*
%TO.P,J1,1,Pin_1*%
%TO.N,Addr_RX*%
X38690000Y-64740000D03*
D19*
%TO.P,J1,2,Pin_2*%
%TO.N,Data_RX*%
X38690000Y-67280000D03*
%TO.P,J1,3,Pin_3*%
%TO.N,Clk*%
X38690000Y-69820000D03*
%TO.P,J1,4,Pin_4*%
%TO.N,Load*%
X38690000Y-72360000D03*
%TO.P,J1,5,Pin_5*%
%TO.N,A0-Arduino*%
X38690000Y-74900000D03*
%TO.P,J1,6,Pin_6*%
%TO.N,A1-Arduino*%
X38690000Y-77440000D03*
%TO.P,J1,7,Pin_7*%
%TO.N,A2-Arduino*%
X38690000Y-79980000D03*
%TO.P,J1,8,Pin_8*%
%TO.N,A3-Arduino*%
X38690000Y-82520000D03*
%TO.P,J1,9,Pin_9*%
%TO.N,A4-Arduino*%
X38690000Y-85060000D03*
%TO.P,J1,10,Pin_10*%
%TO.N,A5-Arduino*%
X38690000Y-87600000D03*
%TO.P,J1,11,Pin_11*%
%TO.N,A6-Arduino*%
X38690000Y-90140000D03*
%TO.P,J1,12,Pin_12*%
%TO.N,A7-Arduino*%
X38690000Y-92680000D03*
%TO.P,J1,13,Pin_13*%
%TO.N,A8-Arduino*%
X38690000Y-95220000D03*
%TO.P,J1,14,Pin_14*%
%TO.N,A9-Arduino*%
X38690000Y-97760000D03*
%TO.P,J1,15,Pin_15*%
%TO.N,A10-Arduino*%
X38690000Y-100300000D03*
%TO.P,J1,16,Pin_16*%
%TO.N,A11-Arduino*%
X38690000Y-102840000D03*
%TO.P,J1,17,Pin_17*%
%TO.N,A12-Arduino*%
X38690000Y-105380000D03*
%TO.P,J1,18,Pin_18*%
%TO.N,D0-Arduino*%
X38690000Y-107920000D03*
%TO.P,J1,19,Pin_19*%
%TO.N,D1-Arduino*%
X38690000Y-110460000D03*
%TO.P,J1,20,Pin_20*%
%TO.N,D2-Arduino*%
X38690000Y-113000000D03*
%TO.P,J1,21,Pin_21*%
%TO.N,D3-Arduino*%
X38690000Y-115540000D03*
%TO.P,J1,22,Pin_22*%
%TO.N,D4-Arduino*%
X38690000Y-118080000D03*
%TO.P,J1,23,Pin_23*%
%TO.N,D5-Arduino*%
X38690000Y-120620000D03*
%TO.P,J1,24,Pin_24*%
%TO.N,D6-Arduino*%
X38690000Y-123160000D03*
%TO.P,J1,25,Pin_25*%
%TO.N,D7-Arduino*%
X38690000Y-125700000D03*
%TO.P,J1,26,Pin_26*%
%TO.N,Pwr*%
X38690000Y-128240000D03*
%TO.P,J1,27,Pin_27*%
%TO.N,Gnd*%
X38690000Y-130780000D03*
%TD*%
D20*
%TO.P,U3,1*%
%TO.N,N/C*%
X104151250Y-66040000D03*
D21*
%TO.P,U3,2,A12*%
%TO.N,A12*%
X104151250Y-68580000D03*
%TO.P,U3,3,A7*%
%TO.N,A7*%
X104143750Y-71120000D03*
%TO.P,U3,4,A6*%
%TO.N,A6*%
X104143750Y-73660000D03*
%TO.P,U3,5,A5*%
%TO.N,A5*%
X104143750Y-76200000D03*
%TO.P,U3,6,A4*%
%TO.N,A4*%
X104143750Y-78740000D03*
%TO.P,U3,7,A3*%
%TO.N,A3*%
X104143750Y-81280000D03*
%TO.P,U3,8,A2*%
%TO.N,A2*%
X104143750Y-83820000D03*
%TO.P,U3,9,A1*%
%TO.N,A1*%
X104143750Y-86360000D03*
%TO.P,U3,10,A0*%
%TO.N,A0*%
X104143750Y-88900000D03*
%TO.P,U3,11,I/O0*%
%TO.N,D0*%
X104143750Y-91440000D03*
%TO.P,U3,12,I/O1*%
%TO.N,D1*%
X104143750Y-93980000D03*
%TO.P,U3,13,I/O2*%
%TO.N,D2*%
X104143750Y-96520000D03*
%TO.P,U3,14,GND*%
%TO.N,Gnd*%
X104151250Y-99060000D03*
%TO.P,U3,15,I/O3*%
%TO.N,D3*%
X119701250Y-99060000D03*
%TO.P,U3,16,I/O4*%
%TO.N,D4*%
X119701250Y-96520000D03*
%TO.P,U3,17,I/O5*%
%TO.N,D5*%
X119701250Y-93980000D03*
%TO.P,U3,18,I/O6*%
%TO.N,D6*%
X119701250Y-91440000D03*
%TO.P,U3,19,I/O7*%
%TO.N,D7*%
X119701250Y-88900000D03*
%TO.P,U3,20,~{CE}*%
%TO.N,CE'*%
X119701250Y-86360000D03*
%TO.P,U3,21,A10*%
%TO.N,A10*%
X119701250Y-83820000D03*
%TO.P,U3,22,~{OE}*%
%TO.N,OE'*%
X119701250Y-81280000D03*
%TO.P,U3,23,A11*%
%TO.N,A11*%
X119701250Y-78740000D03*
%TO.P,U3,24,A9*%
%TO.N,A9*%
X119701250Y-76200000D03*
%TO.P,U3,25,A8*%
%TO.N,A8*%
X119701250Y-73660000D03*
%TO.P,U3,26*%
%TO.N,N/C*%
X119701250Y-71120000D03*
%TO.P,U3,27,~{WE}*%
%TO.N,WE'*%
X119701250Y-68580000D03*
%TO.P,U3,28,VCC*%
%TO.N,Pwr*%
X119701250Y-66040000D03*
%TO.P,U3,29*%
%TO.N,N/C*%
X104151250Y-101600000D03*
%TO.P,U3,30*%
X104151250Y-104140000D03*
%TO.P,U3,31*%
X104151250Y-106680000D03*
%TO.P,U3,32*%
X104151250Y-109220000D03*
%TO.P,U3,33*%
X104151250Y-111760000D03*
%TO.P,U3,34*%
X104151250Y-114300000D03*
%TO.P,U3,35*%
X119701250Y-114300000D03*
%TO.P,U3,36*%
X119701250Y-111760000D03*
%TO.P,U3,37*%
X119701250Y-109220000D03*
%TO.P,U3,38*%
X119701250Y-106680000D03*
%TO.P,U3,39*%
X119701250Y-104140000D03*
%TO.P,U3,40*%
X119701250Y-101600000D03*
%TD*%
D12*
%TO.P,D25,1,K*%
%TO.N,Net-(D25-Pad1)*%
X114300000Y-137160000D03*
D13*
%TO.P,D25,2,A*%
%TO.N,D0*%
X116840000Y-137160000D03*
%TD*%
D10*
%TO.P,R1,1*%
%TO.N,Gnd*%
X129540000Y-140970000D03*
D11*
%TO.P,R1,2*%
%TO.N,Net-(D1-Pad1)*%
X134620000Y-140970000D03*
%TD*%
D10*
%TO.P,R21,1*%
%TO.N,Gnd*%
X71120000Y-140970000D03*
D11*
%TO.P,R21,2*%
%TO.N,Net-(D20-Pad1)*%
X76200000Y-140970000D03*
%TD*%
D18*
%TO.P,J3,1,Pin_1*%
%TO.N,A-segment-LSB*%
X134605000Y-52660000D03*
D19*
%TO.P,J3,2,Pin_2*%
%TO.N,B-segment-LSB*%
X132065000Y-52660000D03*
%TO.P,J3,3,Pin_3*%
%TO.N,C-segment-LSB*%
X129525000Y-52660000D03*
%TO.P,J3,4,Pin_4*%
%TO.N,D-segment-LSB*%
X126985000Y-52660000D03*
%TO.P,J3,5,Pin_5*%
%TO.N,E-segment-LSB*%
X124445000Y-52660000D03*
%TO.P,J3,6,Pin_6*%
%TO.N,F-segment-LSB*%
X121905000Y-52660000D03*
%TO.P,J3,7,Pin_7*%
%TO.N,G-segment-LSB*%
X119365000Y-52660000D03*
%TO.P,J3,8,Pin_8*%
%TO.N,D3*%
X116825000Y-52660000D03*
%TO.P,J3,9,Pin_9*%
%TO.N,D2*%
X114285000Y-52660000D03*
%TO.P,J3,10,Pin_10*%
%TO.N,D1*%
X111745000Y-52660000D03*
%TO.P,J3,11,Pin_11*%
%TO.N,D0*%
X109205000Y-52660000D03*
%TO.P,J3,12,Pin_12*%
%TO.N,Pwr*%
X106665000Y-52660000D03*
%TO.P,J3,13,Pin_13*%
%TO.N,Gnd*%
X104125000Y-52660000D03*
%TD*%
D12*
%TO.P,D3,1,K*%
%TO.N,Net-(D3-Pad1)*%
X109220000Y-127000000D03*
D13*
%TO.P,D3,2,A*%
%TO.N,A1*%
X111760000Y-127000000D03*
%TD*%
D12*
%TO.P,D16,1,K*%
%TO.N,Net-(D16-Pad1)*%
X53340000Y-127000000D03*
D13*
%TO.P,D16,2,A*%
%TO.N,A12*%
X55880000Y-127000000D03*
%TD*%
D12*
%TO.P,D2,1,K*%
%TO.N,Net-(D2-Pad1)*%
X114300000Y-127000000D03*
D13*
%TO.P,D2,2,A*%
%TO.N,A0*%
X116840000Y-127000000D03*
%TD*%
D10*
%TO.P,R15,1*%
%TO.N,Gnd*%
X45720000Y-128270000D03*
D11*
%TO.P,R15,2*%
%TO.N,Net-(D14-Pad1)*%
X50800000Y-128270000D03*
%TD*%
D10*
%TO.P,R17,1*%
%TO.N,Gnd*%
X45720000Y-130810000D03*
D11*
%TO.P,R17,2*%
%TO.N,Net-(D16-Pad1)*%
X50800000Y-130810000D03*
%TD*%
D22*
%TO.P,U8,1,~{A}/B*%
%TO.N,Arduino{slash}Debug control*%
X50800000Y-118270000D03*
D23*
%TO.P,U8,2,1A*%
%TO.N,A12-Arduino*%
X53340000Y-118270000D03*
%TO.P,U8,3,1B*%
%TO.N,A12-Debug*%
X55880000Y-118270000D03*
%TO.P,U8,4,1Y*%
%TO.N,A12*%
X58420000Y-118270000D03*
%TO.P,U8,5,2A*%
%TO.N,OE'-Arduino*%
X60960000Y-118270000D03*
%TO.P,U8,6,2B*%
%TO.N,OE'-Debug*%
X63500000Y-118270000D03*
%TO.P,U8,7,2Y*%
%TO.N,OE'*%
X66040000Y-118270000D03*
%TO.P,U8,8,GND*%
%TO.N,Gnd*%
X68580000Y-118270000D03*
%TO.P,U8,9,3Y*%
%TO.N,WE'*%
X68580000Y-110330000D03*
%TO.P,U8,10,3B*%
%TO.N,WE'-Debug*%
X66040000Y-110330000D03*
%TO.P,U8,11,3A*%
%TO.N,WE'-Arduino*%
X63500000Y-110330000D03*
%TO.P,U8,12,4Y*%
%TO.N,CE'*%
X60960000Y-110330000D03*
%TO.P,U8,13,4B*%
%TO.N,CE'-Debug*%
X58420000Y-110330000D03*
%TO.P,U8,14,4A*%
%TO.N,CE'-Arduino*%
X55880000Y-110330000D03*
%TO.P,U8,15,~{OE}*%
%TO.N,Gnd*%
X53340000Y-110330000D03*
%TO.P,U8,16,VCC*%
%TO.N,Pwr*%
X50800000Y-110330000D03*
%TD*%
D12*
%TO.P,D14,1,K*%
%TO.N,Net-(D14-Pad1)*%
X58420000Y-127000000D03*
D13*
%TO.P,D14,2,A*%
%TO.N,A11*%
X60960000Y-127000000D03*
%TD*%
D10*
%TO.P,R25,1*%
%TO.N,Gnd*%
X101600000Y-140970000D03*
D11*
%TO.P,R25,2*%
%TO.N,Net-(D24-Pad1)*%
X106680000Y-140970000D03*
%TD*%
D12*
%TO.P,D21,1,K*%
%TO.N,Net-(D21-Pad1)*%
X93980000Y-137160000D03*
D13*
%TO.P,D21,2,A*%
%TO.N,D4*%
X96520000Y-137160000D03*
%TD*%
D10*
%TO.P,R24,1*%
%TO.N,Gnd*%
X93980000Y-140970000D03*
D11*
%TO.P,R24,2*%
%TO.N,Net-(D23-Pad1)*%
X99060000Y-140970000D03*
%TD*%
D12*
%TO.P,D20,1,K*%
%TO.N,Net-(D20-Pad1)*%
X88900000Y-137160000D03*
D13*
%TO.P,D20,2,A*%
%TO.N,D5*%
X91440000Y-137160000D03*
%TD*%
D22*
%TO.P,U2,1,~{A}/B*%
%TO.N,Arduino{slash}Debug control*%
X50640000Y-64770000D03*
D23*
%TO.P,U2,2,1A*%
%TO.N,A0-Arduino*%
X50640000Y-67310000D03*
%TO.P,U2,3,1B*%
%TO.N,A0-Debug*%
X50640000Y-69850000D03*
%TO.P,U2,4,1Y*%
%TO.N,A0*%
X50640000Y-72390000D03*
%TO.P,U2,5,2A*%
%TO.N,A1-Arduino*%
X50640000Y-74930000D03*
%TO.P,U2,6,2B*%
%TO.N,A1-Debug*%
X50640000Y-77470000D03*
%TO.P,U2,7,2Y*%
%TO.N,A1*%
X50640000Y-80010000D03*
%TO.P,U2,8,GND*%
%TO.N,Gnd*%
X50640000Y-82550000D03*
%TO.P,U2,9,3Y*%
%TO.N,A2*%
X58580000Y-82550000D03*
%TO.P,U2,10,3B*%
%TO.N,A2-Debug*%
X58580000Y-80010000D03*
%TO.P,U2,11,3A*%
%TO.N,A2-Arduino*%
X58580000Y-77470000D03*
%TO.P,U2,12,4Y*%
%TO.N,A3*%
X58580000Y-74930000D03*
%TO.P,U2,13,4B*%
%TO.N,A3-Debug*%
X58580000Y-72390000D03*
%TO.P,U2,14,4A*%
%TO.N,A3-Arduino*%
X58580000Y-69850000D03*
%TO.P,U2,15,~{OE}*%
%TO.N,Gnd*%
X58580000Y-67310000D03*
%TO.P,U2,16,VCC*%
%TO.N,Pwr*%
X58580000Y-64770000D03*
%TD*%
D12*
%TO.P,D22,1,K*%
%TO.N,Net-(D22-Pad1)*%
X99060000Y-137160000D03*
D13*
%TO.P,D22,2,A*%
%TO.N,D3*%
X101600000Y-137160000D03*
%TD*%
D12*
%TO.P,D11,1,K*%
%TO.N,Net-(D11-Pad1)*%
X68580000Y-127000000D03*
D13*
%TO.P,D11,2,A*%
%TO.N,A9*%
X71120000Y-127000000D03*
%TD*%
D12*
%TO.P,D6,1,K*%
%TO.N,Net-(D6-Pad1)*%
X93980000Y-127000000D03*
D13*
%TO.P,D6,2,A*%
%TO.N,A4*%
X96520000Y-127000000D03*
%TD*%
D24*
%TO.P,U7,1,E*%
%TO.N,E-segment-MSB*%
X69850000Y-81157500D03*
D25*
%TO.P,U7,2,D*%
%TO.N,D-segment-MSB*%
X72390000Y-81157500D03*
%TO.P,U7,3,CC*%
%TO.N,Gnd*%
X74930000Y-81157500D03*
%TO.P,U7,4,C*%
%TO.N,C-segment-MSB*%
X77470000Y-81157500D03*
%TO.P,U7,5,DP*%
%TO.N,unconnected-(U7-Pad5)*%
X80010000Y-81157500D03*
%TO.P,U7,6,B*%
%TO.N,B-segment-MSB*%
X80010000Y-65917500D03*
%TO.P,U7,7,A*%
%TO.N,A-segment-MSB*%
X77470000Y-65917500D03*
%TO.P,U7,8,CC*%
%TO.N,Gnd*%
X74930000Y-65917500D03*
%TO.P,U7,9,F*%
%TO.N,F-segment-MSB*%
X72390000Y-65917500D03*
%TO.P,U7,10,G*%
%TO.N,G-segment-MSB*%
X69850000Y-65917500D03*
%TD*%
D10*
%TO.P,R8,1*%
%TO.N,Gnd*%
X81280000Y-123190000D03*
D11*
%TO.P,R8,2*%
%TO.N,Net-(D7-Pad1)*%
X76200000Y-123190000D03*
%TD*%
D10*
%TO.P,R7,1*%
%TO.N,Gnd*%
X88900000Y-123190000D03*
D11*
%TO.P,R7,2*%
%TO.N,Net-(D6-Pad1)*%
X83820000Y-123190000D03*
%TD*%
D24*
%TO.P,U10,1,E*%
%TO.N,E-segment-LSB*%
X85090000Y-81157500D03*
D25*
%TO.P,U10,2,D*%
%TO.N,D-segment-LSB*%
X87630000Y-81157500D03*
%TO.P,U10,3,CC*%
%TO.N,Gnd*%
X90170000Y-81157500D03*
%TO.P,U10,4,C*%
%TO.N,C-segment-LSB*%
X92710000Y-81157500D03*
%TO.P,U10,5,DP*%
%TO.N,unconnected-(U10-Pad5)*%
X95250000Y-81157500D03*
%TO.P,U10,6,B*%
%TO.N,B-segment-LSB*%
X95250000Y-65917500D03*
%TO.P,U10,7,A*%
%TO.N,A-segment-LSB*%
X92710000Y-65917500D03*
%TO.P,U10,8,CC*%
%TO.N,Gnd*%
X90170000Y-65917500D03*
%TO.P,U10,9,F*%
%TO.N,F-segment-LSB*%
X87630000Y-65917500D03*
%TO.P,U10,10,G*%
%TO.N,G-segment-LSB*%
X85090000Y-65917500D03*
%TD*%
D12*
%TO.P,D7,1,K*%
%TO.N,Net-(D7-Pad1)*%
X88900000Y-127000000D03*
D13*
%TO.P,D7,2,A*%
%TO.N,A5*%
X91440000Y-127000000D03*
%TD*%
D12*
%TO.P,D4,1,K*%
%TO.N,Net-(D4-Pad1)*%
X104140000Y-127000000D03*
D13*
%TO.P,D4,2,A*%
%TO.N,A2*%
X106680000Y-127000000D03*
%TD*%
D10*
%TO.P,R11,1*%
%TO.N,Gnd*%
X53340000Y-123190000D03*
D11*
%TO.P,R11,2*%
%TO.N,Net-(D10-Pad1)*%
X58420000Y-123190000D03*
%TD*%
D22*
%TO.P,U5,1,~{A}/B*%
%TO.N,Arduino{slash}Debug control*%
X50800000Y-95410000D03*
D23*
%TO.P,U5,2,1A*%
%TO.N,A4-Arduino*%
X53340000Y-95410000D03*
%TO.P,U5,3,1B*%
%TO.N,A4-Debug*%
X55880000Y-95410000D03*
%TO.P,U5,4,1Y*%
%TO.N,A4*%
X58420000Y-95410000D03*
%TO.P,U5,5,2A*%
%TO.N,A5-Arduino*%
X60960000Y-95410000D03*
%TO.P,U5,6,2B*%
%TO.N,A5-Debug*%
X63500000Y-95410000D03*
%TO.P,U5,7,2Y*%
%TO.N,A5*%
X66040000Y-95410000D03*
%TO.P,U5,8,GND*%
%TO.N,Gnd*%
X68580000Y-95410000D03*
%TO.P,U5,9,3Y*%
%TO.N,A6*%
X68580000Y-87470000D03*
%TO.P,U5,10,3B*%
%TO.N,A6-Debug*%
X66040000Y-87470000D03*
%TO.P,U5,11,3A*%
%TO.N,A6-Arduino*%
X63500000Y-87470000D03*
%TO.P,U5,12,4Y*%
%TO.N,A7*%
X60960000Y-87470000D03*
%TO.P,U5,13,4B*%
%TO.N,A7-Debug*%
X58420000Y-87470000D03*
%TO.P,U5,14,4A*%
%TO.N,A7-Arduino*%
X55880000Y-87470000D03*
%TO.P,U5,15,~{OE}*%
%TO.N,Gnd*%
X53340000Y-87470000D03*
%TO.P,U5,16,VCC*%
%TO.N,Pwr*%
X50800000Y-87470000D03*
%TD*%
D12*
%TO.P,D23,1,K*%
%TO.N,Net-(D23-Pad1)*%
X104140000Y-137160000D03*
D13*
%TO.P,D23,2,A*%
%TO.N,D2*%
X106680000Y-137160000D03*
%TD*%
D10*
%TO.P,R18,1*%
%TO.N,Gnd*%
X58420000Y-140970000D03*
D11*
%TO.P,R18,2*%
%TO.N,Net-(D17-Pad1)*%
X53340000Y-140970000D03*
%TD*%
D18*
%TO.P,J5,1,Pin_1*%
%TO.N,Pwr*%
X132760000Y-96550000D03*
D19*
%TO.P,J5,2,Pin_2*%
%TO.N,Gnd*%
X132760000Y-94010000D03*
%TO.P,J5,3,Pin_3*%
%TO.N,Data_RX_USB*%
X132760000Y-91470000D03*
%TO.P,J5,4,Pin_4*%
%TO.N,Data_TX_USB*%
X132760000Y-88930000D03*
%TO.P,J5,5,Pin_5*%
%TO.N,Load*%
X132760000Y-86390000D03*
%TO.P,J5,6,Pin_6*%
%TO.N,Clk*%
X132760000Y-83850000D03*
%TO.P,J5,7,Pin_7*%
%TO.N,Data_RX*%
X132760000Y-81310000D03*
%TO.P,J5,8,Pin_8*%
%TO.N,D0*%
X132760000Y-78770000D03*
%TO.P,J5,9,Pin_9*%
%TO.N,Addr_RX*%
X132760000Y-76230000D03*
%TO.P,J5,10,Pin_10*%
%TO.N,OE'-Arduino*%
X132760000Y-73690000D03*
%TO.P,J5,11,Pin_11*%
%TO.N,WE'-Arduino*%
X132760000Y-71150000D03*
%TO.P,J5,12,Pin_12*%
%TO.N,CE'-Arduino*%
X132760000Y-68610000D03*
%TD*%
D26*
%TO.P,J6,A5,CC1*%
%TO.N,Data_TX_USB*%
X131590000Y-127500000D03*
D27*
%TO.P,J6,A9,VBUS_A*%
%TO.N,Pwr*%
X131590000Y-125480000D03*
D28*
%TO.P,J6,A12,GND_A*%
%TO.N,Gnd*%
X131590000Y-124250000D03*
D26*
%TO.P,J6,B5,CC2*%
%TO.N,Data_RX_USB*%
X131590000Y-126500000D03*
D27*
%TO.P,J6,B9,VBUS_B*%
%TO.N,Pwr*%
X131590000Y-128520000D03*
D28*
%TO.P,J6,B12,GND_B*%
%TO.N,Gnd*%
X131590000Y-129750000D03*
D29*
%TO.P,J6,SH1,SHIELD*%
X131670000Y-131320000D03*
%TO.P,J6,SH2,SHIELD__1*%
X131670000Y-122680000D03*
%TO.P,J6,SH3,SHIELD__2*%
X135470000Y-131320000D03*
%TO.P,J6,SH4,SHIELD__3*%
X135470000Y-122680000D03*
%TD*%
D10*
%TO.P,R20,1*%
%TO.N,Gnd*%
X71120000Y-138430000D03*
D11*
%TO.P,R20,2*%
%TO.N,Net-(D19-Pad1)*%
X76200000Y-138430000D03*
%TD*%
D12*
%TO.P,D17,1,K*%
%TO.N,Net-(D17-Pad1)*%
X53340000Y-137160000D03*
D13*
%TO.P,D17,2,A*%
%TO.N,CE'*%
X55880000Y-137160000D03*
%TD*%
D10*
%TO.P,R10,1*%
%TO.N,Gnd*%
X60960000Y-123190000D03*
D11*
%TO.P,R10,2*%
%TO.N,Net-(D9-Pad1)*%
X66040000Y-123190000D03*
%TD*%
D18*
%TO.P,J2,1,Pin_1*%
%TO.N,A-segment-MSB*%
X69835000Y-52660000D03*
D19*
%TO.P,J2,2,Pin_2*%
%TO.N,B-segment-MSB*%
X67295000Y-52660000D03*
%TO.P,J2,3,Pin_3*%
%TO.N,C-segment-MSB*%
X64755000Y-52660000D03*
%TO.P,J2,4,Pin_4*%
%TO.N,D-segment-MSB*%
X62215000Y-52660000D03*
%TO.P,J2,5,Pin_5*%
%TO.N,E-segment-MSB*%
X59675000Y-52660000D03*
%TO.P,J2,6,Pin_6*%
%TO.N,F-segment-MSB*%
X57135000Y-52660000D03*
%TO.P,J2,7,Pin_7*%
%TO.N,G-segment-MSB*%
X54595000Y-52660000D03*
%TO.P,J2,8,Pin_8*%
%TO.N,D7*%
X52055000Y-52660000D03*
%TO.P,J2,9,Pin_9*%
%TO.N,D6*%
X49515000Y-52660000D03*
%TO.P,J2,10,Pin_10*%
%TO.N,D5*%
X46975000Y-52660000D03*
%TO.P,J2,11,Pin_11*%
%TO.N,D4*%
X44435000Y-52660000D03*
%TO.P,J2,12,Pin_12*%
%TO.N,Pwr*%
X41895000Y-52660000D03*
%TO.P,J2,13,Pin_13*%
%TO.N,Gnd*%
X39355000Y-52660000D03*
%TD*%
D10*
%TO.P,R3,1*%
%TO.N,Gnd*%
X119380000Y-123190000D03*
D11*
%TO.P,R3,2*%
%TO.N,Net-(D2-Pad1)*%
X114300000Y-123190000D03*
%TD*%
D12*
%TO.P,D19,1,K*%
%TO.N,Net-(D19-Pad1)*%
X83820000Y-137160000D03*
D13*
%TO.P,D19,2,A*%
%TO.N,D6*%
X86360000Y-137160000D03*
%TD*%
D10*
%TO.P,R2,1*%
%TO.N,Arduino{slash}Debug control*%
X133350000Y-114300000D03*
D11*
%TO.P,R2,2*%
%TO.N,Gnd*%
X133350000Y-109220000D03*
%TD*%
D10*
%TO.P,R13,1*%
%TO.N,Gnd*%
X45720000Y-125730000D03*
D11*
%TO.P,R13,2*%
%TO.N,Net-(D12-Pad1)*%
X50800000Y-125730000D03*
%TD*%
D12*
%TO.P,D13,1,K*%
%TO.N,Net-(D13-Pad1)*%
X63500000Y-137160000D03*
D13*
%TO.P,D13,2,A*%
%TO.N,WE'*%
X66040000Y-137160000D03*
%TD*%
D12*
%TO.P,D9,1,K*%
%TO.N,Net-(D9-Pad1)*%
X78740000Y-127000000D03*
D13*
%TO.P,D9,2,A*%
%TO.N,A7*%
X81280000Y-127000000D03*
%TD*%
D22*
%TO.P,U9,1,~{A}/B*%
%TO.N,Arduino{slash}Debug control*%
X50800000Y-106840000D03*
D23*
%TO.P,U9,2,1A*%
%TO.N,A8-Arduino*%
X53340000Y-106840000D03*
%TO.P,U9,3,1B*%
%TO.N,A8-Debug*%
X55880000Y-106840000D03*
%TO.P,U9,4,1Y*%
%TO.N,A8*%
X58420000Y-106840000D03*
%TO.P,U9,5,2A*%
%TO.N,A9-Arduino*%
X60960000Y-106840000D03*
%TO.P,U9,6,2B*%
%TO.N,A9-Debug*%
X63500000Y-106840000D03*
%TO.P,U9,7,2Y*%
%TO.N,A9*%
X66040000Y-106840000D03*
%TO.P,U9,8,GND*%
%TO.N,Gnd*%
X68580000Y-106840000D03*
%TO.P,U9,9,3Y*%
%TO.N,A10*%
X68580000Y-98900000D03*
%TO.P,U9,10,3B*%
%TO.N,A10-Debug*%
X66040000Y-98900000D03*
%TO.P,U9,11,3A*%
%TO.N,A10-Arduino*%
X63500000Y-98900000D03*
%TO.P,U9,12,4Y*%
%TO.N,A11*%
X60960000Y-98900000D03*
%TO.P,U9,13,4B*%
%TO.N,A11-Debug*%
X58420000Y-98900000D03*
%TO.P,U9,14,4A*%
%TO.N,A11-Arduino*%
X55880000Y-98900000D03*
%TO.P,U9,15,~{OE}*%
%TO.N,Gnd*%
X53340000Y-98900000D03*
%TO.P,U9,16,VCC*%
%TO.N,Pwr*%
X50800000Y-98900000D03*
%TD*%
D12*
%TO.P,D5,1,K*%
%TO.N,Net-(D5-Pad1)*%
X99060000Y-127000000D03*
D13*
%TO.P,D5,2,A*%
%TO.N,A3*%
X101600000Y-127000000D03*
%TD*%
D30*
%TO.N,Addr_RX*%
X130810000Y-64770000D03*
X60960000Y-68580000D03*
X60960000Y-63500000D03*
X41910000Y-68580000D03*
%TO.N,Data_RX*%
X129540000Y-81280000D03*
X107950000Y-69850000D03*
X60960000Y-73660000D03*
X60960000Y-69850000D03*
X129540000Y-71120000D03*
X41910000Y-73660000D03*
X109220000Y-71120000D03*
%TO.N,Clk*%
X128270000Y-83820000D03*
X111760000Y-67310000D03*
X128270000Y-67310000D03*
X41910000Y-76200000D03*
X111760000Y-74930000D03*
%TO.N,Load*%
X134620000Y-60960000D03*
X46990000Y-59690000D03*
X45720000Y-72390000D03*
%TO.N,A0*%
X116840000Y-72390000D03*
X116840000Y-88900000D03*
%TO.N,A1*%
X111760000Y-86360000D03*
X111760000Y-77470000D03*
%TO.N,A2*%
X109220000Y-83820000D03*
%TO.N,A3*%
X101600000Y-74930000D03*
%TO.N,A4*%
X96520000Y-96520000D03*
X96520000Y-78740000D03*
%TO.N,A5*%
X107950000Y-92710000D03*
X107950000Y-76200000D03*
X111760000Y-116840000D03*
X110490000Y-92710000D03*
%TO.N,A6*%
X85090000Y-90170000D03*
X86360000Y-73660000D03*
%TO.N,A7*%
X125730000Y-69850000D03*
X80010000Y-91440000D03*
X124460000Y-129360500D03*
X62230000Y-92710000D03*
X81280000Y-71120000D03*
%TO.N,A8*%
X115570000Y-80010000D03*
X99060000Y-81280000D03*
X99060000Y-101600000D03*
X58420000Y-101600000D03*
X121920000Y-133350000D03*
X115570000Y-73660000D03*
X76200000Y-133350000D03*
%TO.N,A9*%
X71120000Y-107950000D03*
X114300000Y-88900000D03*
X114300000Y-76200000D03*
X72390000Y-90170000D03*
%TO.N,A10*%
X115570000Y-83820000D03*
X66040000Y-104140000D03*
X115570000Y-101600000D03*
X68580000Y-104140000D03*
%TO.N,A11*%
X59690000Y-85540000D03*
X41910000Y-129540000D03*
X40640000Y-86360000D03*
X93980000Y-85090000D03*
X93980000Y-78740000D03*
%TO.N,A12*%
X100330000Y-68580000D03*
X100330000Y-115570000D03*
%TO.N,D0*%
X81280000Y-91440000D03*
X121920000Y-90170000D03*
X109220000Y-55880000D03*
X116840000Y-130810000D03*
X121920000Y-55880000D03*
X121920000Y-130810000D03*
X121920000Y-78740000D03*
%TO.N,D1*%
X111760000Y-54610000D03*
X124460000Y-54610000D03*
X124460000Y-139700000D03*
X124460000Y-92710000D03*
X100509500Y-110490000D03*
X100330000Y-95250000D03*
%TO.N,D2*%
X106680000Y-63500000D03*
X114300000Y-63500000D03*
X106680000Y-118110000D03*
X106680000Y-96520000D03*
X118110000Y-118110000D03*
X119380000Y-134620000D03*
%TO.N,D3*%
X118110000Y-97790000D03*
X120650000Y-142240000D03*
X102870000Y-143510000D03*
%TO.N,D4*%
X124460000Y-97790000D03*
X97790000Y-97790000D03*
X120650000Y-144780000D03*
X44450000Y-60960000D03*
X96520000Y-143510000D03*
X97790000Y-60960000D03*
%TO.N,D5*%
X125730000Y-105410000D03*
X71120000Y-58420000D03*
X125730000Y-93980000D03*
X71120000Y-105410000D03*
X46990000Y-58420000D03*
X125730000Y-134620000D03*
%TO.N,D6*%
X125730000Y-87630000D03*
X127000000Y-91440000D03*
X86360000Y-132080000D03*
X49530000Y-57150000D03*
X127000000Y-130810000D03*
X82550000Y-57150000D03*
%TO.N,D7*%
X129540000Y-88900000D03*
X129540000Y-85090000D03*
X52070000Y-55880000D03*
X78740000Y-55880000D03*
X82550000Y-129540000D03*
X128270000Y-129540000D03*
%TO.N,Pwr*%
X123190000Y-137160000D03*
X116840000Y-143510000D03*
X123190000Y-96520000D03*
X123190000Y-62230000D03*
X43180000Y-63500000D03*
X106680000Y-62230000D03*
X43180000Y-99060000D03*
X43180000Y-88900000D03*
X133350000Y-129540000D03*
X121920000Y-143510000D03*
X133350000Y-125730000D03*
X43180000Y-128270000D03*
X43180000Y-109220000D03*
X119380000Y-62230000D03*
X123190000Y-111760000D03*
%TO.N,Gnd*%
X128270000Y-93980000D03*
X102855247Y-96520000D03*
X128270000Y-131320000D03*
X54610000Y-62230000D03*
X128270000Y-99060000D03*
X135165500Y-109220000D03*
X104140000Y-61955500D03*
X68580000Y-93064500D03*
X118110000Y-142240000D03*
X67310000Y-121920000D03*
X54610000Y-93980000D03*
X74930000Y-62230000D03*
X54610000Y-82550000D03*
X39370000Y-60960000D03*
X54610000Y-67310000D03*
X90170000Y-62230000D03*
X54610000Y-105410000D03*
%TO.N,OE'-Arduino*%
X62230000Y-121344500D03*
X113030000Y-74930000D03*
X115570000Y-120650000D03*
%TO.N,WE'-Arduino*%
X110490000Y-68580000D03*
X66040000Y-68580000D03*
X110490000Y-71120000D03*
%TO.N,CE'-Arduino*%
X135890000Y-113030000D03*
X135890000Y-68580000D03*
%TO.N,A-segment-MSB*%
X77470000Y-53340000D03*
%TO.N,B-segment-MSB*%
X67310000Y-67310000D03*
%TO.N,C-segment-MSB*%
X64770000Y-77470000D03*
X77470000Y-77470000D03*
%TO.N,D-segment-MSB*%
X62230000Y-80010000D03*
%TO.N,E-segment-MSB*%
X59690000Y-81280000D03*
%TO.N,F-segment-MSB*%
X57150000Y-66010000D03*
%TO.N,G-segment-MSB*%
X69850000Y-59690000D03*
X54610000Y-59690000D03*
%TO.N,A-segment-LSB*%
X92710000Y-59690000D03*
X134605000Y-58435000D03*
%TO.N,B-segment-LSB*%
X95795000Y-60235000D03*
X132080000Y-60414500D03*
%TO.N,C-segment-LSB*%
X91440000Y-55880000D03*
%TO.N,D-segment-LSB*%
X86360000Y-54610000D03*
%TO.N,E-segment-LSB*%
X83820000Y-54610000D03*
%TO.N,F-segment-LSB*%
X87630000Y-58420000D03*
X120650000Y-58420000D03*
%TO.N,G-segment-LSB*%
X119365000Y-57135000D03*
X85090000Y-57150000D03*
%TO.N,A0-Arduino*%
X44450000Y-67310000D03*
X44450000Y-74930000D03*
%TO.N,A1-Arduino*%
X45720000Y-74930000D03*
X45720000Y-77470000D03*
%TO.N,A3-Arduino*%
X55880000Y-69850000D03*
X55880000Y-81280000D03*
%TO.N,A4-Arduino*%
X44450000Y-85090000D03*
X44450000Y-93980000D03*
%TO.N,A5-Arduino*%
X45720000Y-87630000D03*
X45720000Y-92710000D03*
X60960000Y-92710000D03*
%TO.N,A6-Arduino*%
X63500000Y-90170000D03*
%TO.N,A7-Arduino*%
X55880000Y-91440000D03*
%TO.N,A8-Arduino*%
X45720000Y-105410000D03*
X45690000Y-95220000D03*
%TO.N,A9-Arduino*%
X60960000Y-104140000D03*
X46990000Y-97790000D03*
X46990000Y-104140000D03*
%TO.N,A11-Arduino*%
X55850000Y-102840000D03*
%TO.N,A12-Arduino*%
X44450000Y-116840000D03*
X44450000Y-105410000D03*
%TO.N,D0-Arduino*%
X86360000Y-113575500D03*
X45720000Y-113030000D03*
X45690000Y-107920000D03*
%TO.N,D1-Arduino*%
X78740000Y-114460500D03*
X46990000Y-111760000D03*
X46990000Y-115570000D03*
%TO.N,D2-Arduino*%
X86360000Y-115062800D03*
%TO.N,D3-Arduino*%
X87630000Y-115570000D03*
%TO.N,D4-Arduino*%
X80010000Y-120015000D03*
%TO.N,D5-Arduino*%
X85090000Y-120650000D03*
%TO.N,D6-Arduino*%
X86360000Y-83820000D03*
X41910000Y-86360000D03*
X43180000Y-123190000D03*
%TO.N,D7-Arduino*%
X78740000Y-97340000D03*
X43180000Y-125730000D03*
X43180000Y-96520000D03*
%TO.N,WE'*%
X40640000Y-114300000D03*
X68580000Y-114935000D03*
X40640000Y-132080000D03*
X129540000Y-68580000D03*
X129540000Y-132080000D03*
X66040000Y-133350000D03*
%TO.N,OE'*%
X46990000Y-119380000D03*
X46990000Y-134620000D03*
X115570000Y-119380000D03*
X115570000Y-82550000D03*
%TO.N,CE'*%
X117210000Y-86360000D03*
X46990000Y-138430000D03*
X60960000Y-112111500D03*
X118110000Y-102870000D03*
X63500000Y-104140000D03*
X46990000Y-110490000D03*
%TO.N,A10-Debug*%
X59715000Y-101625000D03*
X66040000Y-101600000D03*
%TO.N,A8-Debug*%
X38100000Y-143510000D03*
X36830000Y-109220000D03*
%TO.N,A7-Debug*%
X67310000Y-88900000D03*
%TO.N,A6-Debug*%
X66040000Y-90170000D03*
X69850000Y-90170000D03*
%TO.N,A5-Debug*%
X63500000Y-92710000D03*
X72390000Y-92710000D03*
%TO.N,A4-Debug*%
X74930000Y-91440000D03*
X57150000Y-91440000D03*
%TO.N,A3-Debug*%
X77470000Y-83820000D03*
X63500000Y-83820000D03*
X63500000Y-72390000D03*
%TO.N,A2-Debug*%
X60960000Y-83820000D03*
X60960000Y-80010000D03*
X82550000Y-84365500D03*
%TO.N,A1-Debug*%
X49530000Y-148590000D03*
%TO.N,A0-Debug*%
X48260000Y-148590000D03*
%TO.N,D7-Debug*%
X87630000Y-93980000D03*
%TO.N,D6-Debug*%
X88900000Y-88900000D03*
%TO.N,D5-Debug*%
X93980000Y-107950000D03*
%TO.N,D4-Debug*%
X95250000Y-107950000D03*
%TO.N,D3-Debug*%
X97790000Y-100330000D03*
%TO.N,D2-Debug*%
X100330000Y-119380000D03*
%TO.N,D1-Debug*%
X102870000Y-116840000D03*
%TO.N,D0-Debug*%
X105439753Y-111760000D03*
%TO.N,WE'-Debug*%
X107950000Y-111760000D03*
%TO.N,CE'-Debug*%
X58420000Y-102870000D03*
X110490000Y-102870000D03*
%TO.N,OE'-Debug*%
X73660000Y-117475000D03*
X73660000Y-104140000D03*
X113030000Y-105410000D03*
%TO.N,Arduino{slash}Debug control*%
X91184000Y-113286000D03*
X48260000Y-95250000D03*
X52326000Y-113286000D03*
%TD*%
D31*
%TO.N,Addr_RX*%
X41910000Y-68580000D02*
X41910000Y-66040000D01*
X131260000Y-74730000D02*
X131260000Y-73660000D01*
X132760000Y-76230000D02*
X131260000Y-74730000D01*
X41910000Y-66040000D02*
X40610000Y-64740000D01*
X60960000Y-63500000D02*
X60960000Y-68580000D01*
X40610000Y-64740000D02*
X38690000Y-64740000D01*
X131260000Y-65220000D02*
X130810000Y-64770000D01*
X131260000Y-73660000D02*
X131260000Y-65220000D01*
%TO.N,Data_RX*%
X40640000Y-68580000D02*
X39990000Y-68580000D01*
X41910000Y-73660000D02*
X41910000Y-69850000D01*
X41910000Y-69850000D02*
X40640000Y-68580000D01*
X107950000Y-69850000D02*
X109220000Y-71120000D01*
X129540000Y-81280000D02*
X129540000Y-71120000D01*
X39990000Y-68580000D02*
X38690000Y-67280000D01*
X60960000Y-69850000D02*
X60960000Y-73660000D01*
%TO.N,Clk*%
X41460000Y-71120000D02*
X41460000Y-72840000D01*
X40160000Y-69820000D02*
X41460000Y-71120000D01*
X128270000Y-67310000D02*
X128270000Y-83820000D01*
X40640000Y-74930000D02*
X41910000Y-76200000D01*
X41460000Y-72840000D02*
X40640000Y-73660000D01*
X38690000Y-69820000D02*
X40160000Y-69820000D01*
X40640000Y-73660000D02*
X40640000Y-74930000D01*
X111760000Y-74930000D02*
X111760000Y-67310000D01*
%TO.N,Load*%
X134620000Y-84530000D02*
X132760000Y-86390000D01*
X45720000Y-72390000D02*
X45720000Y-60960000D01*
X134620000Y-60960000D02*
X134620000Y-84530000D01*
X45720000Y-60960000D02*
X46990000Y-59690000D01*
%TO.N,A0*%
X116082652Y-73147348D02*
X116295000Y-73359696D01*
X116295000Y-73359696D02*
X116295000Y-84120305D01*
X116295000Y-84120305D02*
X116020000Y-84395305D01*
X116020000Y-84395305D02*
X116020000Y-88080000D01*
X116020000Y-88080000D02*
X116840000Y-88900000D01*
X116840000Y-127000000D02*
X116840000Y-88900000D01*
X116840000Y-72390000D02*
X116082652Y-73147348D01*
%TO.N,A1*%
X111760000Y-127000000D02*
X111760000Y-124639569D01*
X112210000Y-105860000D02*
X112210000Y-86810000D01*
X112825000Y-123574569D02*
X112825000Y-119177792D01*
X111760000Y-124639569D02*
X112825000Y-123574569D01*
X112210000Y-86810000D02*
X111760000Y-86360000D01*
X112580000Y-106230000D02*
X112210000Y-105860000D01*
X112580000Y-118932792D02*
X112580000Y-106230000D01*
X112825000Y-119177792D02*
X112580000Y-118932792D01*
X111760000Y-86360000D02*
X111760000Y-77470000D01*
%TO.N,A2*%
X108770000Y-113850000D02*
X107130000Y-112210000D01*
X107950000Y-124460000D02*
X107950000Y-123369569D01*
X108770000Y-122549569D02*
X108770000Y-113850000D01*
X107130000Y-112210000D02*
X107130000Y-97095305D01*
X107130000Y-97095305D02*
X109220000Y-95005305D01*
X109220000Y-95005305D02*
X109220000Y-83820000D01*
X107950000Y-123369569D02*
X108770000Y-122549569D01*
X106680000Y-125730000D02*
X107950000Y-124460000D01*
X106680000Y-127000000D02*
X106680000Y-125730000D01*
%TO.N,A3*%
X102870000Y-81280000D02*
X104143750Y-81280000D01*
X101600000Y-82550000D02*
X101600000Y-74930000D01*
X101600000Y-127000000D02*
X101600000Y-82550000D01*
X101600000Y-82550000D02*
X102870000Y-81280000D01*
%TO.N,A4*%
X96520000Y-115570000D02*
X96520000Y-95250000D01*
X97585000Y-124215000D02*
X97585000Y-116635000D01*
X96520000Y-125280000D02*
X97585000Y-124215000D01*
X96520000Y-95250000D02*
X96520000Y-96520000D01*
X96520000Y-78740000D02*
X96520000Y-95250000D01*
X96520000Y-127000000D02*
X96520000Y-125280000D01*
X97585000Y-116635000D02*
X96520000Y-115570000D01*
%TO.N,A5*%
X111760000Y-116840000D02*
X110965000Y-116045000D01*
X111310000Y-106810000D02*
X111310000Y-99510000D01*
X111310000Y-99510000D02*
X111310000Y-93530000D01*
X107950000Y-92710000D02*
X107950000Y-76200000D01*
X110965000Y-116045000D02*
X110965000Y-107155000D01*
X110965000Y-107155000D02*
X111310000Y-106810000D01*
X111310000Y-93530000D02*
X110490000Y-92710000D01*
%TO.N,A6*%
X84365000Y-120950305D02*
X84365000Y-119271602D01*
X85090000Y-90170000D02*
X85090000Y-83820000D01*
X84937300Y-118699302D02*
X84937300Y-90322700D01*
X86360000Y-82550000D02*
X86360000Y-80010000D01*
X86360000Y-80010000D02*
X86360000Y-73660000D01*
X85090000Y-83820000D02*
X86360000Y-82550000D01*
X84937300Y-90322700D02*
X85090000Y-90170000D01*
X86360000Y-127000000D02*
X86360000Y-122945305D01*
X86360000Y-122945305D02*
X84365000Y-120950305D01*
X84365000Y-119271602D02*
X84937300Y-118699302D01*
%TO.N,A7*%
X126100000Y-104014695D02*
X126100000Y-95375305D01*
X125429695Y-93255000D02*
X125429695Y-88355000D01*
X125429695Y-88355000D02*
X125005000Y-87930305D01*
X60960000Y-91440000D02*
X62230000Y-92710000D01*
X81280000Y-82550000D02*
X81280000Y-71120000D01*
X124460000Y-129360500D02*
X124910000Y-128910500D01*
X126100000Y-95375305D02*
X125005000Y-94280305D01*
X125005000Y-94280305D02*
X125005000Y-93679695D01*
X124910000Y-105204695D02*
X126100000Y-104014695D01*
X60960000Y-87470000D02*
X60960000Y-91440000D01*
X125005000Y-70575000D02*
X125730000Y-69850000D01*
X80010000Y-83820000D02*
X81280000Y-82550000D01*
X125005000Y-93679695D02*
X125429695Y-93255000D01*
X125005000Y-87930305D02*
X125005000Y-70575000D01*
X80010000Y-91440000D02*
X80010000Y-83820000D01*
X124910000Y-128910500D02*
X124910000Y-105204695D01*
%TO.N,A8*%
X57625000Y-106045000D02*
X57625000Y-102395000D01*
X76200000Y-127000000D02*
X76200000Y-133350000D01*
X99060000Y-101600000D02*
X99060000Y-81280000D01*
X121165250Y-132595250D02*
X121165250Y-75124000D01*
X121165250Y-75124000D02*
X119701250Y-73660000D01*
X115570000Y-80010000D02*
X115570000Y-73660000D01*
X58420000Y-106840000D02*
X57625000Y-106045000D01*
X57625000Y-102395000D02*
X58420000Y-101600000D01*
X121920000Y-133350000D02*
X121165250Y-132595250D01*
%TO.N,A9*%
X71965000Y-106680000D02*
X71965000Y-93310305D01*
X71120000Y-107950000D02*
X71965000Y-107105000D01*
X71965000Y-107105000D02*
X71965000Y-106680000D01*
X71570000Y-90990000D02*
X72390000Y-90170000D01*
X71120000Y-127000000D02*
X71120000Y-107950000D01*
X71965000Y-93310305D02*
X71570000Y-92915305D01*
X71570000Y-92915305D02*
X71570000Y-90990000D01*
X114300000Y-88900000D02*
X114300000Y-76200000D01*
%TO.N,A10*%
X68580000Y-104140000D02*
X68580000Y-98900000D01*
X65615431Y-124215000D02*
X66040000Y-124215000D01*
X65150000Y-107428651D02*
X66040000Y-108318651D01*
X115570000Y-101600000D02*
X115570000Y-83820000D01*
X65015000Y-110096349D02*
X65015000Y-123614569D01*
X65015000Y-123614569D02*
X65615431Y-124215000D01*
X66040000Y-109071349D02*
X65015000Y-110096349D01*
X66040000Y-124215000D02*
X66040000Y-127000000D01*
X66040000Y-104140000D02*
X65150000Y-105030000D01*
X65150000Y-105030000D02*
X65150000Y-107428651D01*
X66040000Y-108318651D02*
X66040000Y-109071349D01*
%TO.N,A11*%
X59690000Y-85540000D02*
X59690000Y-97630000D01*
X59690000Y-97630000D02*
X60960000Y-98900000D01*
X93980000Y-78740000D02*
X93980000Y-85090000D01*
X41460000Y-114300000D02*
X41460000Y-129090000D01*
X41460000Y-87180000D02*
X41460000Y-114300000D01*
X40640000Y-86360000D02*
X41460000Y-87180000D01*
X41460000Y-129090000D02*
X41910000Y-129540000D01*
%TO.N,A12*%
X99785000Y-111053909D02*
X99785000Y-101299695D01*
X55880000Y-120650000D02*
X58260000Y-118270000D01*
X100330000Y-111598909D02*
X99785000Y-111053909D01*
X99785000Y-101299695D02*
X99510000Y-101024695D01*
X99510000Y-101024695D02*
X99510000Y-94800000D01*
X100330000Y-115570000D02*
X100330000Y-111598909D01*
X100330000Y-93980000D02*
X100330000Y-68580000D01*
X55880000Y-127000000D02*
X55880000Y-120650000D01*
X99510000Y-94800000D02*
X100330000Y-93980000D01*
%TO.N,D0*%
X116840000Y-130810000D02*
X116840000Y-137160000D01*
X121920000Y-78740000D02*
X121920000Y-55880000D01*
X81280000Y-91440000D02*
X80010000Y-92710000D01*
X81280000Y-108583604D02*
X81280000Y-110490000D01*
X121920000Y-130810000D02*
X121920000Y-90170000D01*
X121920000Y-90170000D02*
X121920000Y-78740000D01*
X109220000Y-55880000D02*
X109205000Y-55865000D01*
X109205000Y-55865000D02*
X109205000Y-52660000D01*
X80010000Y-92710000D02*
X80010000Y-107313604D01*
X80010000Y-107313604D02*
X81280000Y-108583604D01*
%TO.N,D1*%
X124460000Y-95330000D02*
X125650000Y-96520000D01*
X124460000Y-92710000D02*
X124460000Y-95330000D01*
X123735000Y-128995000D02*
X123735000Y-130085000D01*
X100509500Y-110490000D02*
X101055000Y-109944500D01*
X125650000Y-96520000D02*
X125650000Y-102950000D01*
X124460000Y-128270000D02*
X123735000Y-128995000D01*
X123735000Y-130085000D02*
X124460000Y-130810000D01*
X124460000Y-130810000D02*
X124460000Y-139700000D01*
X111760000Y-54610000D02*
X111760000Y-52675000D01*
X101055000Y-109944500D02*
X101055000Y-95975000D01*
X124460000Y-104140000D02*
X124460000Y-128270000D01*
X101055000Y-95975000D02*
X100330000Y-95250000D01*
X124460000Y-92710000D02*
X124460000Y-54610000D01*
X125650000Y-102950000D02*
X124460000Y-104140000D01*
X111760000Y-52675000D02*
X111745000Y-52660000D01*
%TO.N,D2*%
X114300000Y-63500000D02*
X114285000Y-63485000D01*
X119380000Y-134620000D02*
X119380000Y-125730000D01*
X106680000Y-112272652D02*
X106680000Y-96520000D01*
X118110000Y-124460000D02*
X118110000Y-118110000D01*
X106680000Y-118110000D02*
X106680000Y-112272652D01*
X119380000Y-125730000D02*
X118110000Y-124460000D01*
X106680000Y-63500000D02*
X106680000Y-96520000D01*
X114285000Y-63485000D02*
X114285000Y-52660000D01*
%TO.N,D3*%
X118110000Y-97790000D02*
X118110000Y-53945000D01*
X102870000Y-139700000D02*
X102870000Y-143510000D01*
X120715250Y-100074000D02*
X119701250Y-99060000D01*
X120715250Y-142174750D02*
X120715250Y-100074000D01*
X101600000Y-137160000D02*
X101600000Y-138430000D01*
X101600000Y-138430000D02*
X102870000Y-139700000D01*
X120650000Y-142240000D02*
X120715250Y-142174750D01*
X118110000Y-53945000D02*
X116825000Y-52660000D01*
%TO.N,D4*%
X123915000Y-112060305D02*
X122820000Y-113155305D01*
X44450000Y-60960000D02*
X44435000Y-60945000D01*
X123640000Y-111184695D02*
X123915000Y-111459695D01*
X123640000Y-137735305D02*
X123640000Y-143060000D01*
X124460000Y-97790000D02*
X123640000Y-98610000D01*
X123640000Y-98610000D02*
X123640000Y-111184695D01*
X123640000Y-130868299D02*
X123640000Y-136584695D01*
X121920000Y-144780000D02*
X120650000Y-144780000D01*
X97790000Y-97790000D02*
X97790000Y-60960000D01*
X44435000Y-60945000D02*
X44435000Y-52660000D01*
X123915000Y-137460305D02*
X123640000Y-137735305D01*
X123915000Y-111459695D02*
X123915000Y-112060305D01*
X122820000Y-130048299D02*
X123640000Y-130868299D01*
X96520000Y-143510000D02*
X96520000Y-137160000D01*
X123640000Y-143060000D02*
X121920000Y-144780000D01*
X123640000Y-136584695D02*
X123915000Y-136859695D01*
X123915000Y-136859695D02*
X123915000Y-137460305D01*
X122820000Y-113155305D02*
X122820000Y-130048299D01*
%TO.N,D5*%
X46975000Y-58405000D02*
X46975000Y-52660000D01*
X71120000Y-105410000D02*
X71120000Y-58420000D01*
X126550000Y-104590000D02*
X126550000Y-94800000D01*
X125730000Y-134620000D02*
X125730000Y-105410000D01*
X126550000Y-94800000D02*
X125730000Y-93980000D01*
X46990000Y-58420000D02*
X46975000Y-58405000D01*
X125730000Y-105410000D02*
X126550000Y-104590000D01*
%TO.N,D6*%
X81280000Y-83820000D02*
X82550000Y-82550000D01*
X82550000Y-82550000D02*
X82550000Y-57150000D01*
X49530000Y-57150000D02*
X49515000Y-57135000D01*
X125730000Y-87630000D02*
X127000000Y-88900000D01*
X49515000Y-57135000D02*
X49515000Y-52660000D01*
X86360000Y-132080000D02*
X86360000Y-137160000D01*
X127000000Y-88900000D02*
X127000000Y-91440000D01*
X127000000Y-91440000D02*
X127000000Y-130810000D01*
X81280000Y-87630000D02*
X81280000Y-83820000D01*
%TO.N,D7*%
X129540000Y-85090000D02*
X129540000Y-88900000D01*
X82550000Y-129540000D02*
X82550000Y-135890000D01*
X52055000Y-55865000D02*
X52055000Y-52660000D01*
X52070000Y-55880000D02*
X52055000Y-55865000D01*
X78740000Y-87630000D02*
X78740000Y-55880000D01*
X129540000Y-105410000D02*
X128270000Y-106680000D01*
X128270000Y-106680000D02*
X128270000Y-129540000D01*
X82550000Y-135890000D02*
X81280000Y-137160000D01*
X129540000Y-88900000D02*
X129540000Y-105410000D01*
%TO.N,Pwr*%
X133100000Y-125480000D02*
X131590000Y-125480000D01*
X43180000Y-116595305D02*
X43180000Y-109220000D01*
X121920000Y-143510000D02*
X123190000Y-142240000D01*
X115595000Y-144755000D02*
X115595000Y-146730000D01*
X133350000Y-125730000D02*
X133100000Y-125480000D01*
X133350000Y-134620000D02*
X133350000Y-129540000D01*
X43180000Y-99060000D02*
X43937348Y-98302652D01*
X41895000Y-54595000D02*
X41895000Y-52660000D01*
X133350000Y-129540000D02*
X132330000Y-128520000D01*
X119380000Y-64127500D02*
X119380000Y-62230000D01*
X106680000Y-52675000D02*
X106665000Y-52660000D01*
X43180000Y-93980000D02*
X43180000Y-88900000D01*
X43180000Y-88900000D02*
X43180000Y-63500000D01*
X43180000Y-128270000D02*
X44450000Y-127000000D01*
X122370000Y-130234695D02*
X123190000Y-131054695D01*
X123190000Y-111760000D02*
X122370000Y-112580000D01*
X123190000Y-142240000D02*
X123190000Y-137160000D01*
X115595000Y-144755000D02*
X116840000Y-143510000D01*
X123190000Y-131054695D02*
X123190000Y-137160000D01*
X130810000Y-137160000D02*
X133350000Y-134620000D01*
X43180000Y-55880000D02*
X41895000Y-54595000D01*
X106680000Y-62230000D02*
X106680000Y-52675000D01*
X44450000Y-127000000D02*
X44450000Y-117865305D01*
X43937348Y-98302652D02*
X43937348Y-94737348D01*
X119701250Y-64448750D02*
X119701250Y-66040000D01*
X123190000Y-62230000D02*
X123190000Y-96520000D01*
X43180000Y-63500000D02*
X43180000Y-55880000D01*
X122370000Y-112580000D02*
X122370000Y-130234695D01*
X123190000Y-96520000D02*
X123190000Y-111760000D01*
X44450000Y-117865305D02*
X43180000Y-116595305D01*
X43937348Y-94737348D02*
X43180000Y-93980000D01*
X119701250Y-64448750D02*
X119380000Y-64127500D01*
X43180000Y-109220000D02*
X43180000Y-99060000D01*
X132330000Y-128520000D02*
X131590000Y-128520000D01*
%TO.N,Gnd*%
X133350000Y-106680000D02*
X133350000Y-109220000D01*
X91440000Y-95250000D02*
X91440000Y-97790000D01*
X135440000Y-109494500D02*
X135440000Y-112454695D01*
X54610000Y-97630000D02*
X53340000Y-98900000D01*
X54610000Y-82550000D02*
X54610000Y-67310000D01*
X134620000Y-95870000D02*
X134620000Y-105410000D01*
X91440000Y-109114394D02*
X90459000Y-110095394D01*
X135165000Y-112729695D02*
X135165000Y-122375000D01*
X118110000Y-142240000D02*
X118135000Y-142265000D01*
X134620000Y-105410000D02*
X133350000Y-106680000D01*
X90170000Y-81157500D02*
X90170000Y-93980000D01*
X118135000Y-142265000D02*
X118135000Y-146730000D01*
X53340000Y-98900000D02*
X54610000Y-100170000D01*
X135165500Y-109220000D02*
X135440000Y-109494500D01*
X131670000Y-124170000D02*
X131590000Y-124250000D01*
X68580000Y-118270000D02*
X68580000Y-120650000D01*
X135165000Y-122375000D02*
X135470000Y-122680000D01*
X45720000Y-128270000D02*
X45720000Y-130810000D01*
X54610000Y-88740000D02*
X54610000Y-93980000D01*
X91037094Y-98087300D02*
X90467300Y-98657094D01*
X54610000Y-109060000D02*
X53340000Y-110330000D01*
X90467300Y-99462906D02*
X91037094Y-100032700D01*
X54610000Y-100170000D02*
X54610000Y-105410000D01*
X135440000Y-112454695D02*
X135165000Y-112729695D01*
X91142700Y-100032700D02*
X91440000Y-100330000D01*
X45720000Y-125730000D02*
X45720000Y-128270000D01*
X90170000Y-65917500D02*
X90170000Y-81157500D01*
X102855247Y-96520000D02*
X102855247Y-99045247D01*
X68580000Y-106840000D02*
X69850000Y-108110000D01*
X91440000Y-97790000D02*
X91142700Y-98087300D01*
X54610000Y-105410000D02*
X54610000Y-109060000D01*
X91037094Y-100032700D02*
X91142700Y-100032700D01*
X39355000Y-60945000D02*
X39355000Y-52660000D01*
X128270000Y-139700000D02*
X121240000Y-146730000D01*
X90467300Y-98657094D02*
X90467300Y-99462906D01*
X102870000Y-99060000D02*
X104151250Y-99060000D01*
X91440000Y-106680000D02*
X91440000Y-109114394D01*
X74930000Y-62230000D02*
X74930000Y-65917500D01*
X135470000Y-122680000D02*
X135470000Y-131320000D01*
X69850000Y-117000000D02*
X68580000Y-118270000D01*
X131670000Y-129830000D02*
X131590000Y-129750000D01*
X90170000Y-62230000D02*
X90170000Y-65917500D01*
X54610000Y-67310000D02*
X54610000Y-62230000D01*
X54610000Y-86200000D02*
X53340000Y-87470000D01*
X121240000Y-146730000D02*
X118135000Y-146730000D01*
X131670000Y-131320000D02*
X131670000Y-129830000D01*
X90170000Y-93980000D02*
X91440000Y-95250000D01*
X90459000Y-110095394D02*
X90459000Y-117129000D01*
X54610000Y-82550000D02*
X54610000Y-86200000D01*
X53340000Y-87470000D02*
X54610000Y-88740000D01*
X131670000Y-122680000D02*
X131670000Y-124170000D01*
X54610000Y-93980000D02*
X54610000Y-97630000D01*
X91440000Y-100330000D02*
X91440000Y-106680000D01*
X74930000Y-65917500D02*
X74930000Y-81157500D01*
X69850000Y-108110000D02*
X69850000Y-117000000D01*
X104140000Y-61955500D02*
X104125000Y-61940500D01*
X68580000Y-120650000D02*
X67310000Y-121920000D01*
X90459000Y-117129000D02*
X91440000Y-118110000D01*
X104125000Y-61940500D02*
X104125000Y-52660000D01*
X128270000Y-131320000D02*
X128270000Y-139700000D01*
X128270000Y-139700000D02*
X129540000Y-140970000D01*
X68580000Y-93064500D02*
X68580000Y-95410000D01*
X132760000Y-94010000D02*
X134620000Y-95870000D01*
X102855247Y-99045247D02*
X102870000Y-99060000D01*
X128270000Y-99060000D02*
X128270000Y-93980000D01*
X45720000Y-123190000D02*
X45720000Y-125730000D01*
X91142700Y-98087300D02*
X91037094Y-98087300D01*
X39370000Y-60960000D02*
X39355000Y-60945000D01*
%TO.N,Net-(D1-Pad1)*%
X133350000Y-137160000D02*
X133350000Y-139700000D01*
X133350000Y-139700000D02*
X134620000Y-140970000D01*
%TO.N,Net-(D2-Pad1)*%
X114300000Y-127000000D02*
X114300000Y-123190000D01*
%TO.N,OE'-Arduino*%
X60960000Y-120074500D02*
X60960000Y-118270000D01*
X113330305Y-104685000D02*
X113030000Y-104685000D01*
X113755000Y-105710305D02*
X113755000Y-105109695D01*
X113755000Y-105109695D02*
X113330305Y-104685000D01*
X62230000Y-121344500D02*
X60960000Y-120074500D01*
X113505000Y-105960305D02*
X113755000Y-105710305D01*
X113505000Y-118585000D02*
X113505000Y-105960305D01*
X115570000Y-120650000D02*
X113505000Y-118585000D01*
X113030000Y-104685000D02*
X113030000Y-74930000D01*
%TO.N,WE'-Arduino*%
X63500000Y-110330000D02*
X63500000Y-109220000D01*
X63500000Y-109220000D02*
X64700000Y-108020000D01*
X64770000Y-78740000D02*
X66040000Y-77470000D01*
X64700000Y-104210000D02*
X64770000Y-104140000D01*
X64770000Y-104140000D02*
X64770000Y-78740000D01*
X64700000Y-108020000D02*
X64700000Y-104210000D01*
X110490000Y-68580000D02*
X110490000Y-71120000D01*
X66040000Y-77470000D02*
X66040000Y-68580000D01*
%TO.N,CE'-Arduino*%
X135890000Y-113030000D02*
X135890000Y-68580000D01*
%TO.N,A-segment-MSB*%
X77470000Y-53340000D02*
X77470000Y-65917500D01*
%TO.N,B-segment-MSB*%
X67295000Y-67295000D02*
X67310000Y-67310000D01*
X67295000Y-52660000D02*
X67295000Y-67295000D01*
%TO.N,C-segment-MSB*%
X77470000Y-77470000D02*
X77470000Y-81157500D01*
X64755000Y-52660000D02*
X64755000Y-77455000D01*
X64755000Y-77455000D02*
X64770000Y-77470000D01*
%TO.N,D-segment-MSB*%
X62215000Y-52660000D02*
X62215000Y-79995000D01*
X62215000Y-79995000D02*
X62230000Y-80010000D01*
%TO.N,E-segment-MSB*%
X59675000Y-81265000D02*
X59690000Y-81280000D01*
X59675000Y-52660000D02*
X59675000Y-81265000D01*
%TO.N,F-segment-MSB*%
X57135000Y-65995000D02*
X57135000Y-52660000D01*
X57150000Y-66010000D02*
X57135000Y-65995000D01*
%TO.N,G-segment-MSB*%
X54595000Y-52660000D02*
X54595000Y-59675000D01*
X69850000Y-59690000D02*
X69850000Y-65917500D01*
X54595000Y-59675000D02*
X54610000Y-59690000D01*
%TO.N,A-segment-LSB*%
X92710000Y-59690000D02*
X92710000Y-65917500D01*
X134605000Y-58435000D02*
X134605000Y-52660000D01*
%TO.N,B-segment-LSB*%
X95250000Y-60780000D02*
X95250000Y-65917500D01*
X132065000Y-60399500D02*
X132065000Y-52660000D01*
X95795000Y-60235000D02*
X95250000Y-60780000D01*
X132080000Y-60414500D02*
X132065000Y-60399500D01*
%TO.N,C-segment-LSB*%
X91440000Y-79887500D02*
X92710000Y-81157500D01*
X91440000Y-55880000D02*
X91440000Y-79887500D01*
%TO.N,D-segment-LSB*%
X86360000Y-54610000D02*
X86360000Y-71120000D01*
X86360000Y-71120000D02*
X87630000Y-72390000D01*
X87630000Y-72390000D02*
X87630000Y-81157500D01*
%TO.N,E-segment-LSB*%
X83820000Y-54610000D02*
X83820000Y-79887500D01*
X83820000Y-79887500D02*
X85090000Y-81157500D01*
%TO.N,F-segment-LSB*%
X87630000Y-58420000D02*
X87630000Y-65917500D01*
X121905000Y-52660000D02*
X120650000Y-53915000D01*
X120650000Y-53915000D02*
X120650000Y-58420000D01*
%TO.N,G-segment-LSB*%
X85090000Y-57150000D02*
X85090000Y-65917500D01*
X119365000Y-52660000D02*
X119365000Y-57135000D01*
%TO.N,A0-Arduino*%
X44450000Y-74930000D02*
X44450000Y-67310000D01*
%TO.N,A1-Arduino*%
X45720000Y-77470000D02*
X45720000Y-74930000D01*
%TO.N,A3-Arduino*%
X55880000Y-81280000D02*
X55880000Y-69850000D01*
%TO.N,A4-Arduino*%
X44450000Y-85090000D02*
X44450000Y-93980000D01*
%TO.N,A5-Arduino*%
X60960000Y-92710000D02*
X60960000Y-95410000D01*
X45720000Y-87630000D02*
X45720000Y-91440000D01*
X45720000Y-91440000D02*
X45720000Y-92710000D01*
%TO.N,A6-Arduino*%
X63500000Y-90170000D02*
X63500000Y-87470000D01*
%TO.N,A7-Arduino*%
X55880000Y-91440000D02*
X55880000Y-87470000D01*
%TO.N,A8-Arduino*%
X45690000Y-95220000D02*
X45720000Y-95250000D01*
X45720000Y-95250000D02*
X45720000Y-105410000D01*
%TO.N,A9-Arduino*%
X46990000Y-97790000D02*
X46990000Y-104140000D01*
X60960000Y-104140000D02*
X60960000Y-106840000D01*
%TO.N,A11-Arduino*%
X55880000Y-102810000D02*
X55880000Y-98900000D01*
X55850000Y-102840000D02*
X55880000Y-102810000D01*
%TO.N,A12-Arduino*%
X44450000Y-105410000D02*
X44450000Y-116840000D01*
%TO.N,D0-Arduino*%
X45720000Y-113030000D02*
X45720000Y-107950000D01*
X86360000Y-113575500D02*
X86360000Y-110490000D01*
X45720000Y-107950000D02*
X45690000Y-107920000D01*
%TO.N,D1-Arduino*%
X46990000Y-111760000D02*
X46990000Y-115570000D01*
X78740000Y-114460500D02*
X78740000Y-118110000D01*
%TO.N,D2-Arduino*%
X86360000Y-115062800D02*
X86360000Y-118110000D01*
%TO.N,D3-Arduino*%
X87085000Y-111140606D02*
X87332700Y-110892906D01*
X87332700Y-110892906D02*
X87332700Y-100032700D01*
X87630000Y-115570000D02*
X87630000Y-114812652D01*
X87630000Y-114812652D02*
X87085000Y-114267652D01*
X87085000Y-114267652D02*
X87085000Y-111140606D01*
X87332700Y-100032700D02*
X86360000Y-99060000D01*
%TO.N,D4-Arduino*%
X80010000Y-107950000D02*
X78740000Y-106680000D01*
X80010000Y-120015000D02*
X80010000Y-107950000D01*
%TO.N,D5-Arduino*%
X85387300Y-107652700D02*
X86360000Y-106680000D01*
X86360000Y-119485606D02*
X85387300Y-118512906D01*
X85387300Y-118512906D02*
X85387300Y-107652700D01*
X86360000Y-120650000D02*
X86360000Y-119485606D01*
X85090000Y-120650000D02*
X86360000Y-120650000D01*
%TO.N,D6-Arduino*%
X43180000Y-123190000D02*
X43550000Y-122820000D01*
X43550000Y-118238097D02*
X41910000Y-116598097D01*
X43550000Y-122820000D02*
X43550000Y-118238097D01*
X86360000Y-83820000D02*
X86360000Y-87630000D01*
X41910000Y-116598097D02*
X41910000Y-86360000D01*
%TO.N,D7-Arduino*%
X44000000Y-118051701D02*
X42455000Y-116506701D01*
X42455000Y-97245000D02*
X43180000Y-96520000D01*
X42455000Y-116506701D02*
X42455000Y-97245000D01*
X43180000Y-125730000D02*
X44000000Y-124910000D01*
X44000000Y-124910000D02*
X44000000Y-118051701D01*
X78740000Y-97340000D02*
X78740000Y-95250000D01*
%TO.N,Data_RX_USB*%
X131260000Y-92970000D02*
X131260000Y-121470000D01*
X129990000Y-122740000D02*
X129990000Y-125730000D01*
X130760000Y-126500000D02*
X131590000Y-126500000D01*
X131260000Y-121470000D02*
X129990000Y-122740000D01*
X129990000Y-125730000D02*
X130760000Y-126500000D01*
X132760000Y-91470000D02*
X131260000Y-92970000D01*
%TO.N,Data_TX_USB*%
X133350000Y-121920000D02*
X134375000Y-120895000D01*
X134620000Y-125730000D02*
X134620000Y-124566396D01*
X134620000Y-124566396D02*
X133350000Y-123296396D01*
X131590000Y-127500000D02*
X132850000Y-127500000D01*
X135440000Y-91610000D02*
X132760000Y-88930000D01*
X135440000Y-105226396D02*
X135440000Y-91610000D01*
X134375000Y-120895000D02*
X134375000Y-106291396D01*
X134375000Y-106291396D02*
X135440000Y-105226396D01*
X133350000Y-123296396D02*
X133350000Y-121920000D01*
X132850000Y-127500000D02*
X134620000Y-125730000D01*
%TO.N,WE'*%
X40640000Y-132080000D02*
X40640000Y-114300000D01*
X130810000Y-69850000D02*
X129540000Y-68580000D01*
X130810000Y-104140000D02*
X130810000Y-69850000D01*
X129540000Y-116840000D02*
X130810000Y-115570000D01*
X68580000Y-110330000D02*
X68580000Y-114935000D01*
X66040000Y-137160000D02*
X66040000Y-133350000D01*
X130810000Y-115570000D02*
X130810000Y-104140000D01*
X129540000Y-132080000D02*
X129540000Y-116840000D01*
%TO.N,OE'*%
X114845000Y-84120305D02*
X114845000Y-83519695D01*
X115269695Y-102325000D02*
X114845000Y-101900305D01*
X115570000Y-83095000D02*
X115570000Y-82550000D01*
X114845000Y-101900305D02*
X114845000Y-101299695D01*
X115120000Y-84395305D02*
X114845000Y-84120305D01*
X114845000Y-83519695D02*
X115269695Y-83095000D01*
X114845000Y-101299695D02*
X115120000Y-101024695D01*
X115120000Y-101024695D02*
X115120000Y-84395305D01*
X46990000Y-119380000D02*
X46990000Y-134620000D01*
X115570000Y-102325000D02*
X115269695Y-102325000D01*
X115570000Y-119380000D02*
X115570000Y-102325000D01*
X115269695Y-83095000D02*
X115570000Y-83095000D01*
%TO.N,Net-(D16-Pad1)*%
X53340000Y-128270000D02*
X50800000Y-130810000D01*
X53340000Y-127000000D02*
X53340000Y-128270000D01*
%TO.N,Net-(D17-Pad1)*%
X53340000Y-137160000D02*
X53340000Y-140970000D01*
%TO.N,CE'*%
X117660000Y-86810000D02*
X117210000Y-86360000D01*
X60960000Y-112111500D02*
X60960000Y-110330000D01*
X118110000Y-102870000D02*
X117290000Y-102050000D01*
X60960000Y-108633604D02*
X61936802Y-107656802D01*
X46265000Y-115269695D02*
X46265000Y-116115000D01*
X61936802Y-107656802D02*
X62230000Y-107363604D01*
X46265000Y-111215000D02*
X46265000Y-112060305D01*
X46990000Y-110490000D02*
X46265000Y-111215000D01*
X46265000Y-116115000D02*
X47810000Y-117660000D01*
X117290000Y-95250000D02*
X117660000Y-94880000D01*
X62230000Y-107363604D02*
X62230000Y-105410000D01*
X46540000Y-114994695D02*
X46265000Y-115269695D01*
X46265000Y-112060305D02*
X46540000Y-112335305D01*
X62230000Y-105410000D02*
X63500000Y-104140000D01*
X46540000Y-112335305D02*
X46540000Y-114994695D01*
X60960000Y-110330000D02*
X60960000Y-108633604D01*
X47810000Y-117660000D02*
X47810000Y-137610000D01*
X47810000Y-137610000D02*
X46990000Y-138430000D01*
X117290000Y-102050000D02*
X117290000Y-95250000D01*
X117660000Y-94880000D02*
X117660000Y-86810000D01*
%TO.N,Net-(D25-Pad1)*%
X114300000Y-137160000D02*
X114300000Y-140970000D01*
%TO.N,A12-Debug*%
X54635000Y-146730000D02*
X54635000Y-119405000D01*
X54635000Y-119405000D02*
X55770000Y-118270000D01*
X55770000Y-118270000D02*
X55880000Y-118270000D01*
%TO.N,A11-Debug*%
X59620000Y-113868651D02*
X58420000Y-112668651D01*
X57195000Y-121250047D02*
X59620000Y-118825047D01*
X57195000Y-146710000D02*
X57195000Y-121250047D01*
X58420000Y-99060000D02*
X58420000Y-98900000D01*
X57175000Y-100305000D02*
X58420000Y-99060000D01*
X58420000Y-112668651D02*
X58420000Y-111735000D01*
X57175000Y-110490000D02*
X57175000Y-100305000D01*
X59620000Y-118825047D02*
X59620000Y-113868651D01*
X58420000Y-111735000D02*
X57175000Y-110490000D01*
X57175000Y-146730000D02*
X57195000Y-146710000D01*
%TO.N,A10-Debug*%
X59715000Y-146730000D02*
X59690000Y-146705000D01*
X59690000Y-120650000D02*
X60070000Y-120270000D01*
X60070000Y-101980000D02*
X59715000Y-101625000D01*
X60070000Y-120270000D02*
X60070000Y-101980000D01*
X66040000Y-101600000D02*
X66040000Y-98900000D01*
X59690000Y-146705000D02*
X59690000Y-120650000D01*
%TO.N,A9-Debug*%
X62610000Y-118638651D02*
X62610000Y-107730000D01*
X62255000Y-146730000D02*
X62255000Y-125705000D01*
X63500000Y-119528651D02*
X62610000Y-118638651D01*
X63500000Y-124460000D02*
X63500000Y-119528651D01*
X62255000Y-125705000D02*
X63500000Y-124460000D01*
X62610000Y-107730000D02*
X63500000Y-106840000D01*
%TO.N,A8-Debug*%
X38100000Y-143510000D02*
X36830000Y-142240000D01*
X36830000Y-142240000D02*
X36830000Y-109220000D01*
%TO.N,A7-Debug*%
X67335000Y-146730000D02*
X67335000Y-122970305D01*
X67335000Y-122970305D02*
X66585000Y-122220305D01*
X67310000Y-120650000D02*
X67310000Y-88900000D01*
X66585000Y-122220305D02*
X66585000Y-121375000D01*
X66585000Y-121375000D02*
X67310000Y-120650000D01*
%TO.N,A6-Debug*%
X70300000Y-90620000D02*
X69850000Y-90170000D01*
X66040000Y-90170000D02*
X66040000Y-87470000D01*
X69875000Y-146730000D02*
X69875000Y-117611396D01*
X70300000Y-117186396D02*
X70300000Y-115570000D01*
X69875000Y-117611396D02*
X70300000Y-117186396D01*
X70300000Y-115570000D02*
X70300000Y-90620000D01*
%TO.N,A5-Debug*%
X72415000Y-146730000D02*
X72415000Y-92735000D01*
X63500000Y-92710000D02*
X63500000Y-95410000D01*
X72415000Y-92735000D02*
X72390000Y-92710000D01*
%TO.N,A4-Debug*%
X57150000Y-91440000D02*
X55880000Y-92710000D01*
X74955000Y-146730000D02*
X74955000Y-91465000D01*
X55880000Y-92710000D02*
X55880000Y-95410000D01*
X74955000Y-91465000D02*
X74930000Y-91440000D01*
%TO.N,A3-Debug*%
X77495000Y-146730000D02*
X77495000Y-83845000D01*
X77495000Y-83845000D02*
X77470000Y-83820000D01*
X63500000Y-83820000D02*
X63500000Y-72390000D01*
%TO.N,A2-Debug*%
X60960000Y-83820000D02*
X60960000Y-80010000D01*
X81280000Y-121920000D02*
X81100431Y-121920000D01*
X82550000Y-120650000D02*
X81280000Y-121920000D01*
X80035000Y-122985431D02*
X80035000Y-146730000D01*
X82550000Y-84365500D02*
X82550000Y-120650000D01*
X81100431Y-121920000D02*
X80035000Y-122985431D01*
%TO.N,A1-Debug*%
X50640000Y-77470000D02*
X49530000Y-78580000D01*
X49080000Y-96333604D02*
X49080000Y-97790000D01*
X49080000Y-120200000D02*
X49080000Y-148140000D01*
X49530000Y-95883604D02*
X49080000Y-96333604D01*
X49530000Y-78580000D02*
X49530000Y-95883604D01*
X49080000Y-148140000D02*
X49530000Y-148590000D01*
X49080000Y-97790000D02*
X49080000Y-120200000D01*
%TO.N,A0-Debug*%
X48260000Y-96520000D02*
X48260000Y-148590000D01*
X50640000Y-69850000D02*
X48710000Y-71780000D01*
X48710000Y-71780000D02*
X48710000Y-73210000D01*
X48710000Y-73210000D02*
X48985000Y-73485000D01*
X48260000Y-96275305D02*
X48260000Y-96520000D01*
X48985000Y-95550305D02*
X48260000Y-96275305D01*
X48985000Y-73485000D02*
X48985000Y-95550305D01*
%TO.N,D7-Debug*%
X87655000Y-116865000D02*
X87680000Y-116840000D01*
X88355000Y-116176872D02*
X88355000Y-114901256D01*
X87680000Y-116840000D02*
X87691872Y-116840000D01*
X87655000Y-146730000D02*
X87655000Y-116865000D01*
X88355000Y-114901256D02*
X87782700Y-114328956D01*
X87782700Y-94132700D02*
X87630000Y-93980000D01*
X87782700Y-114328956D02*
X87782700Y-94132700D01*
X87691872Y-116840000D02*
X88355000Y-116176872D01*
%TO.N,D6-Debug*%
X90009000Y-105885396D02*
X89720000Y-105596396D01*
X89720000Y-89720000D02*
X88900000Y-88900000D01*
X89720000Y-91440000D02*
X89720000Y-89720000D01*
X89720000Y-104140000D02*
X89720000Y-100330000D01*
X90195000Y-117501396D02*
X90009000Y-117315396D01*
X89720000Y-105596396D02*
X89720000Y-104140000D01*
X90017300Y-94463696D02*
X89720000Y-94166396D01*
X90009000Y-117315396D02*
X90009000Y-105885396D01*
X89720000Y-94166396D02*
X89720000Y-91440000D01*
X90017300Y-100032700D02*
X90017300Y-99060000D01*
X90195000Y-146730000D02*
X90195000Y-117501396D01*
X90017300Y-99060000D02*
X90017300Y-94463696D01*
X89720000Y-100330000D02*
X90017300Y-100032700D01*
%TO.N,D5-Debug*%
X93980000Y-109114394D02*
X92735000Y-110359394D01*
X93980000Y-107950000D02*
X93980000Y-109114394D01*
X92735000Y-110359394D02*
X92735000Y-146730000D01*
%TO.N,D4-Debug*%
X95275000Y-136672588D02*
X95250000Y-136647588D01*
X95275000Y-146730000D02*
X95275000Y-136672588D01*
X95250000Y-136647588D02*
X95250000Y-107950000D01*
%TO.N,D3-Debug*%
X97790000Y-146705000D02*
X97790000Y-145485000D01*
X97790000Y-145485000D02*
X97835000Y-145440000D01*
X97835000Y-124601396D02*
X98035000Y-124401396D01*
X97790000Y-110245305D02*
X97790000Y-100330000D01*
X98035000Y-122765431D02*
X99060000Y-121740431D01*
X99060000Y-111515305D02*
X97790000Y-110245305D01*
X98035000Y-124401396D02*
X98035000Y-122765431D01*
X97815000Y-146730000D02*
X97790000Y-146705000D01*
X99060000Y-121740431D02*
X99060000Y-111515305D01*
X97835000Y-145440000D02*
X97835000Y-124601396D01*
%TO.N,D2-Debug*%
X100355000Y-146730000D02*
X100330000Y-119380000D01*
%TO.N,D1-Debug*%
X102870000Y-116840000D02*
X102870000Y-138340000D01*
X104140000Y-145485000D02*
X102895000Y-146730000D01*
X102870000Y-138340000D02*
X104140000Y-139610000D01*
X104140000Y-139610000D02*
X104140000Y-145485000D01*
%TO.N,D0-Debug*%
X105435000Y-111764753D02*
X105435000Y-146730000D01*
X105439753Y-111760000D02*
X105435000Y-111764753D01*
%TO.N,WE'-Debug*%
X107975000Y-125705000D02*
X107975000Y-146730000D01*
X109220000Y-124460000D02*
X107975000Y-125705000D01*
X107950000Y-111760000D02*
X109220000Y-113030000D01*
X109220000Y-113030000D02*
X109220000Y-124460000D01*
%TO.N,CE'-Debug*%
X110515000Y-102895000D02*
X110515000Y-146730000D01*
X59534326Y-106835674D02*
X59534326Y-104326396D01*
X58420000Y-110330000D02*
X59534326Y-109215674D01*
X59534326Y-104326396D02*
X58420000Y-103212070D01*
X59534326Y-109215674D02*
X59534326Y-106835674D01*
X58420000Y-103212070D02*
X58420000Y-102870000D01*
X110490000Y-102870000D02*
X110515000Y-102895000D01*
%TO.N,OE'-Debug*%
X114300000Y-121740431D02*
X113275000Y-122765431D01*
X113850000Y-124189569D02*
X113850000Y-125000000D01*
X113030000Y-105410000D02*
X113030000Y-118746396D01*
X113275000Y-122765431D02*
X113275000Y-123614569D01*
X73660000Y-117475000D02*
X73660000Y-104140000D01*
X113850000Y-125000000D02*
X113055000Y-125795000D01*
X114300000Y-120016396D02*
X114300000Y-121740431D01*
X113055000Y-125795000D02*
X113055000Y-146730000D01*
X113030000Y-118746396D02*
X114300000Y-120016396D01*
X113275000Y-123614569D02*
X113850000Y-124189569D01*
%TO.N,Arduino{slash}Debug control*%
X91184000Y-113286000D02*
X91440000Y-113030000D01*
X92710000Y-88900000D02*
X91440000Y-87630000D01*
X91440000Y-99060000D02*
X92710000Y-97790000D01*
X92710000Y-100330000D02*
X91440000Y-99060000D01*
X48260000Y-95250000D02*
X48260000Y-66040000D01*
X52326000Y-113286000D02*
X52326000Y-108366000D01*
X91440000Y-113030000D02*
X91440000Y-110490000D01*
X48260000Y-66040000D02*
X49530000Y-64770000D01*
X52326000Y-108366000D02*
X50800000Y-106840000D01*
X49530000Y-96520000D02*
X50640000Y-95410000D01*
X49530000Y-105410000D02*
X49530000Y-96520000D01*
X50800000Y-114812000D02*
X50800000Y-118270000D01*
X49530000Y-64770000D02*
X50640000Y-64770000D01*
X50800000Y-106680000D02*
X49530000Y-105410000D01*
X92710000Y-109220000D02*
X92710000Y-100330000D01*
X91440000Y-110490000D02*
X92710000Y-109220000D01*
X52326000Y-113286000D02*
X50800000Y-114812000D01*
X50640000Y-95410000D02*
X50800000Y-95410000D01*
X92710000Y-97790000D02*
X92710000Y-88900000D01*
X50800000Y-106840000D02*
X50800000Y-106680000D01*
%TD*%
M02*
