%TF.GenerationSoftware,KiCad,Pcbnew,(6.0.9)*%
%TF.CreationDate,2025-06-18T12:33:42-04:00*%
%TF.ProjectId,Motherboard,4d6f7468-6572-4626-9f61-72642e6b6963,1*%
%TF.SameCoordinates,Original*%
%TF.FileFunction,Legend,Top*%
%TF.FilePolarity,Positive*%
%FSLAX46Y46*%
G04 Gerber Fmt 4.6, Leading zero omitted, Abs format (unit mm)*
G04 Created by KiCad (PCBNEW (6.0.9)) date 2025-06-18 12:33:42*
%MOMM*%
%LPD*%
G01*
G04 APERTURE LIST*
G04 Aperture macros list*
%AMRoundRect*
0 Rectangle with rounded corners*
0 $1 Rounding radius*
0 $2 $3 $4 $5 $6 $7 $8 $9 X,Y pos of 4 corners*
0 Add a 4 corners polygon primitive as box body*
4,1,4,$2,$3,$4,$5,$6,$7,$8,$9,$2,$3,0*
0 Add four circle primitives for the rounded corners*
1,1,$1+$1,$2,$3*
1,1,$1+$1,$4,$5*
1,1,$1+$1,$6,$7*
1,1,$1+$1,$8,$9*
0 Add four rect primitives between the rounded corners*
20,1,$1+$1,$2,$3,$4,$5,0*
20,1,$1+$1,$4,$5,$6,$7,0*
20,1,$1+$1,$6,$7,$8,$9,0*
20,1,$1+$1,$8,$9,$2,$3,0*%
G04 Aperture macros list end*
%ADD10C,0.150000*%
%ADD11C,0.120000*%
%ADD12C,0.127000*%
%ADD13C,0.200000*%
%ADD14C,0.152400*%
%ADD15C,1.400000*%
%ADD16O,1.400000X1.400000*%
%ADD17R,1.800000X1.800000*%
%ADD18C,1.800000*%
%ADD19RoundRect,0.102000X0.654000X-0.654000X0.654000X0.654000X-0.654000X0.654000X-0.654000X-0.654000X0*%
%ADD20C,1.512000*%
%ADD21R,1.295400X1.295400*%
%ADD22C,1.295400*%
%ADD23R,1.700000X1.700000*%
%ADD24O,1.700000X1.700000*%
%ADD25RoundRect,0.102000X-0.689000X-0.689000X0.689000X-0.689000X0.689000X0.689000X-0.689000X0.689000X0*%
%ADD26C,1.582000*%
%ADD27RoundRect,0.102000X0.565000X-0.565000X0.565000X0.565000X-0.565000X0.565000X-0.565000X-0.565000X0*%
%ADD28C,1.334000*%
%ADD29RoundRect,0.102000X-0.565000X-0.565000X0.565000X-0.565000X0.565000X0.565000X-0.565000X0.565000X0*%
%ADD30R,1.600000X1.600000*%
%ADD31C,1.600000*%
%ADD32RoundRect,0.102000X0.600000X-0.350000X0.600000X0.350000X-0.600000X0.350000X-0.600000X-0.350000X0*%
%ADD33RoundRect,0.102000X0.600000X-0.380000X0.600000X0.380000X-0.600000X0.380000X-0.600000X-0.380000X0*%
%ADD34RoundRect,0.102000X0.600000X-0.400000X0.600000X0.400000X-0.600000X0.400000X-0.600000X-0.400000X0*%
%ADD35O,1.954000X1.354000*%
G04 APERTURE END LIST*
D10*
X89503333Y-62682380D02*
X89027142Y-62682380D01*
X89027142Y-61682380D01*
X89789047Y-62634761D02*
X89931904Y-62682380D01*
X90170000Y-62682380D01*
X90265238Y-62634761D01*
X90312857Y-62587142D01*
X90360476Y-62491904D01*
X90360476Y-62396666D01*
X90312857Y-62301428D01*
X90265238Y-62253809D01*
X90170000Y-62206190D01*
X89979523Y-62158571D01*
X89884285Y-62110952D01*
X89836666Y-62063333D01*
X89789047Y-61968095D01*
X89789047Y-61872857D01*
X89836666Y-61777619D01*
X89884285Y-61730000D01*
X89979523Y-61682380D01*
X90217619Y-61682380D01*
X90360476Y-61730000D01*
X91122380Y-62158571D02*
X91265238Y-62206190D01*
X91312857Y-62253809D01*
X91360476Y-62349047D01*
X91360476Y-62491904D01*
X91312857Y-62587142D01*
X91265238Y-62634761D01*
X91170000Y-62682380D01*
X90789047Y-62682380D01*
X90789047Y-61682380D01*
X91122380Y-61682380D01*
X91217619Y-61730000D01*
X91265238Y-61777619D01*
X91312857Y-61872857D01*
X91312857Y-61968095D01*
X91265238Y-62063333D01*
X91217619Y-62110952D01*
X91122380Y-62158571D01*
X90789047Y-62158571D01*
X74215714Y-130976666D02*
X74691904Y-130976666D01*
X74120476Y-131262380D02*
X74453809Y-130262380D01*
X74787142Y-131262380D01*
X75263333Y-130690952D02*
X75168095Y-130643333D01*
X75120476Y-130595714D01*
X75072857Y-130500476D01*
X75072857Y-130452857D01*
X75120476Y-130357619D01*
X75168095Y-130310000D01*
X75263333Y-130262380D01*
X75453809Y-130262380D01*
X75549047Y-130310000D01*
X75596666Y-130357619D01*
X75644285Y-130452857D01*
X75644285Y-130500476D01*
X75596666Y-130595714D01*
X75549047Y-130643333D01*
X75453809Y-130690952D01*
X75263333Y-130690952D01*
X75168095Y-130738571D01*
X75120476Y-130786190D01*
X75072857Y-130881428D01*
X75072857Y-131071904D01*
X75120476Y-131167142D01*
X75168095Y-131214761D01*
X75263333Y-131262380D01*
X75453809Y-131262380D01*
X75549047Y-131214761D01*
X75596666Y-131167142D01*
X75644285Y-131071904D01*
X75644285Y-130881428D01*
X75596666Y-130786190D01*
X75549047Y-130738571D01*
X75453809Y-130690952D01*
X125111428Y-119832380D02*
X125111428Y-118832380D01*
X125349523Y-118832380D01*
X125492380Y-118880000D01*
X125587619Y-118975238D01*
X125635238Y-119070476D01*
X125682857Y-119260952D01*
X125682857Y-119403809D01*
X125635238Y-119594285D01*
X125587619Y-119689523D01*
X125492380Y-119784761D01*
X125349523Y-119832380D01*
X125111428Y-119832380D01*
X126492380Y-119784761D02*
X126397142Y-119832380D01*
X126206666Y-119832380D01*
X126111428Y-119784761D01*
X126063809Y-119689523D01*
X126063809Y-119308571D01*
X126111428Y-119213333D01*
X126206666Y-119165714D01*
X126397142Y-119165714D01*
X126492380Y-119213333D01*
X126540000Y-119308571D01*
X126540000Y-119403809D01*
X126063809Y-119499047D01*
X126968571Y-119832380D02*
X126968571Y-118832380D01*
X126968571Y-119213333D02*
X127063809Y-119165714D01*
X127254285Y-119165714D01*
X127349523Y-119213333D01*
X127397142Y-119260952D01*
X127444761Y-119356190D01*
X127444761Y-119641904D01*
X127397142Y-119737142D01*
X127349523Y-119784761D01*
X127254285Y-119832380D01*
X127063809Y-119832380D01*
X126968571Y-119784761D01*
X128301904Y-119165714D02*
X128301904Y-119832380D01*
X127873333Y-119165714D02*
X127873333Y-119689523D01*
X127920952Y-119784761D01*
X128016190Y-119832380D01*
X128159047Y-119832380D01*
X128254285Y-119784761D01*
X128301904Y-119737142D01*
X129206666Y-119165714D02*
X129206666Y-119975238D01*
X129159047Y-120070476D01*
X129111428Y-120118095D01*
X129016190Y-120165714D01*
X128873333Y-120165714D01*
X128778095Y-120118095D01*
X129206666Y-119784761D02*
X129111428Y-119832380D01*
X128920952Y-119832380D01*
X128825714Y-119784761D01*
X128778095Y-119737142D01*
X128730476Y-119641904D01*
X128730476Y-119356190D01*
X128778095Y-119260952D01*
X128825714Y-119213333D01*
X128920952Y-119165714D01*
X129111428Y-119165714D01*
X129206666Y-119213333D01*
X130444761Y-119832380D02*
X130444761Y-119165714D01*
X130444761Y-119260952D02*
X130492380Y-119213333D01*
X130587619Y-119165714D01*
X130730476Y-119165714D01*
X130825714Y-119213333D01*
X130873333Y-119308571D01*
X130873333Y-119832380D01*
X130873333Y-119308571D02*
X130920952Y-119213333D01*
X131016190Y-119165714D01*
X131159047Y-119165714D01*
X131254285Y-119213333D01*
X131301904Y-119308571D01*
X131301904Y-119832380D01*
X131920952Y-119832380D02*
X131825714Y-119784761D01*
X131778095Y-119737142D01*
X131730476Y-119641904D01*
X131730476Y-119356190D01*
X131778095Y-119260952D01*
X131825714Y-119213333D01*
X131920952Y-119165714D01*
X132063809Y-119165714D01*
X132159047Y-119213333D01*
X132206666Y-119260952D01*
X132254285Y-119356190D01*
X132254285Y-119641904D01*
X132206666Y-119737142D01*
X132159047Y-119784761D01*
X132063809Y-119832380D01*
X131920952Y-119832380D01*
X133111428Y-119832380D02*
X133111428Y-118832380D01*
X133111428Y-119784761D02*
X133016190Y-119832380D01*
X132825714Y-119832380D01*
X132730476Y-119784761D01*
X132682857Y-119737142D01*
X132635238Y-119641904D01*
X132635238Y-119356190D01*
X132682857Y-119260952D01*
X132730476Y-119213333D01*
X132825714Y-119165714D01*
X133016190Y-119165714D01*
X133111428Y-119213333D01*
X133968571Y-119784761D02*
X133873333Y-119832380D01*
X133682857Y-119832380D01*
X133587619Y-119784761D01*
X133540000Y-119689523D01*
X133540000Y-119308571D01*
X133587619Y-119213333D01*
X133682857Y-119165714D01*
X133873333Y-119165714D01*
X133968571Y-119213333D01*
X134016190Y-119308571D01*
X134016190Y-119403809D01*
X133540000Y-119499047D01*
X94535714Y-130976666D02*
X95011904Y-130976666D01*
X94440476Y-131262380D02*
X94773809Y-130262380D01*
X95107142Y-131262380D01*
X95869047Y-130595714D02*
X95869047Y-131262380D01*
X95630952Y-130214761D02*
X95392857Y-130929047D01*
X96011904Y-130929047D01*
X99591904Y-133802380D02*
X99591904Y-132802380D01*
X99830000Y-132802380D01*
X99972857Y-132850000D01*
X100068095Y-132945238D01*
X100115714Y-133040476D01*
X100163333Y-133230952D01*
X100163333Y-133373809D01*
X100115714Y-133564285D01*
X100068095Y-133659523D01*
X99972857Y-133754761D01*
X99830000Y-133802380D01*
X99591904Y-133802380D01*
X100496666Y-132802380D02*
X101115714Y-132802380D01*
X100782380Y-133183333D01*
X100925238Y-133183333D01*
X101020476Y-133230952D01*
X101068095Y-133278571D01*
X101115714Y-133373809D01*
X101115714Y-133611904D01*
X101068095Y-133707142D01*
X101020476Y-133754761D01*
X100925238Y-133802380D01*
X100639523Y-133802380D01*
X100544285Y-133754761D01*
X100496666Y-133707142D01*
X84375714Y-130976666D02*
X84851904Y-130976666D01*
X84280476Y-131262380D02*
X84613809Y-130262380D01*
X84947142Y-131262380D01*
X85709047Y-130262380D02*
X85518571Y-130262380D01*
X85423333Y-130310000D01*
X85375714Y-130357619D01*
X85280476Y-130500476D01*
X85232857Y-130690952D01*
X85232857Y-131071904D01*
X85280476Y-131167142D01*
X85328095Y-131214761D01*
X85423333Y-131262380D01*
X85613809Y-131262380D01*
X85709047Y-131214761D01*
X85756666Y-131167142D01*
X85804285Y-131071904D01*
X85804285Y-130833809D01*
X85756666Y-130738571D01*
X85709047Y-130690952D01*
X85613809Y-130643333D01*
X85423333Y-130643333D01*
X85328095Y-130690952D01*
X85280476Y-130738571D01*
X85232857Y-130833809D01*
X52371904Y-73826666D02*
X52848095Y-73826666D01*
X52276666Y-74112380D02*
X52610000Y-73112380D01*
X52943333Y-74112380D01*
X53467142Y-73112380D02*
X53562380Y-73112380D01*
X53657619Y-73160000D01*
X53705238Y-73207619D01*
X53752857Y-73302857D01*
X53800476Y-73493333D01*
X53800476Y-73731428D01*
X53752857Y-73921904D01*
X53705238Y-74017142D01*
X53657619Y-74064761D01*
X53562380Y-74112380D01*
X53467142Y-74112380D01*
X53371904Y-74064761D01*
X53324285Y-74017142D01*
X53276666Y-73921904D01*
X53229047Y-73731428D01*
X53229047Y-73493333D01*
X53276666Y-73302857D01*
X53324285Y-73207619D01*
X53371904Y-73160000D01*
X53467142Y-73112380D01*
X54229047Y-73731428D02*
X54990952Y-73731428D01*
X55419523Y-73826666D02*
X55895714Y-73826666D01*
X55324285Y-74112380D02*
X55657619Y-73112380D01*
X55990952Y-74112380D01*
X56229047Y-73112380D02*
X56848095Y-73112380D01*
X56514761Y-73493333D01*
X56657619Y-73493333D01*
X56752857Y-73540952D01*
X56800476Y-73588571D01*
X56848095Y-73683809D01*
X56848095Y-73921904D01*
X56800476Y-74017142D01*
X56752857Y-74064761D01*
X56657619Y-74112380D01*
X56371904Y-74112380D01*
X56276666Y-74064761D01*
X56229047Y-74017142D01*
X53419523Y-130976666D02*
X53895714Y-130976666D01*
X53324285Y-131262380D02*
X53657619Y-130262380D01*
X53990952Y-131262380D01*
X54848095Y-131262380D02*
X54276666Y-131262380D01*
X54562380Y-131262380D02*
X54562380Y-130262380D01*
X54467142Y-130405238D01*
X54371904Y-130500476D01*
X54276666Y-130548095D01*
X55229047Y-130357619D02*
X55276666Y-130310000D01*
X55371904Y-130262380D01*
X55610000Y-130262380D01*
X55705238Y-130310000D01*
X55752857Y-130357619D01*
X55800476Y-130452857D01*
X55800476Y-130548095D01*
X55752857Y-130690952D01*
X55181428Y-131262380D01*
X55800476Y-131262380D01*
X82756666Y-103322380D02*
X82756666Y-102322380D01*
X82994761Y-102322380D01*
X83137619Y-102370000D01*
X83232857Y-102465238D01*
X83280476Y-102560476D01*
X83328095Y-102750952D01*
X83328095Y-102893809D01*
X83280476Y-103084285D01*
X83232857Y-103179523D01*
X83137619Y-103274761D01*
X82994761Y-103322380D01*
X82756666Y-103322380D01*
X83661428Y-102322380D02*
X84280476Y-102322380D01*
X83947142Y-102703333D01*
X84090000Y-102703333D01*
X84185238Y-102750952D01*
X84232857Y-102798571D01*
X84280476Y-102893809D01*
X84280476Y-103131904D01*
X84232857Y-103227142D01*
X84185238Y-103274761D01*
X84090000Y-103322380D01*
X83804285Y-103322380D01*
X83709047Y-103274761D01*
X83661428Y-103227142D01*
X84709047Y-102941428D02*
X85470952Y-102941428D01*
X85947142Y-103322380D02*
X85947142Y-102322380D01*
X86185238Y-102322380D01*
X86328095Y-102370000D01*
X86423333Y-102465238D01*
X86470952Y-102560476D01*
X86518571Y-102750952D01*
X86518571Y-102893809D01*
X86470952Y-103084285D01*
X86423333Y-103179523D01*
X86328095Y-103274761D01*
X86185238Y-103322380D01*
X85947142Y-103322380D01*
X87423333Y-102322380D02*
X86947142Y-102322380D01*
X86899523Y-102798571D01*
X86947142Y-102750952D01*
X87042380Y-102703333D01*
X87280476Y-102703333D01*
X87375714Y-102750952D01*
X87423333Y-102798571D01*
X87470952Y-102893809D01*
X87470952Y-103131904D01*
X87423333Y-103227142D01*
X87375714Y-103274761D01*
X87280476Y-103322380D01*
X87042380Y-103322380D01*
X86947142Y-103274761D01*
X86899523Y-103227142D01*
X76701428Y-50728571D02*
X76844285Y-50776190D01*
X76891904Y-50823809D01*
X76939523Y-50919047D01*
X76939523Y-51061904D01*
X76891904Y-51157142D01*
X76844285Y-51204761D01*
X76749047Y-51252380D01*
X76368095Y-51252380D01*
X76368095Y-50252380D01*
X76701428Y-50252380D01*
X76796666Y-50300000D01*
X76844285Y-50347619D01*
X76891904Y-50442857D01*
X76891904Y-50538095D01*
X76844285Y-50633333D01*
X76796666Y-50680952D01*
X76701428Y-50728571D01*
X76368095Y-50728571D01*
X77368095Y-51252380D02*
X77368095Y-50585714D01*
X77368095Y-50252380D02*
X77320476Y-50300000D01*
X77368095Y-50347619D01*
X77415714Y-50300000D01*
X77368095Y-50252380D01*
X77368095Y-50347619D01*
X77844285Y-50585714D02*
X77844285Y-51252380D01*
X77844285Y-50680952D02*
X77891904Y-50633333D01*
X77987142Y-50585714D01*
X78130000Y-50585714D01*
X78225238Y-50633333D01*
X78272857Y-50728571D01*
X78272857Y-51252380D01*
X78749047Y-50871428D02*
X79510952Y-50871428D01*
X79987142Y-50585714D02*
X80749047Y-50871428D01*
X79987142Y-51157142D01*
X81130000Y-50252380D02*
X81796666Y-50252380D01*
X81368095Y-51252380D01*
X82891904Y-51204761D02*
X82987142Y-51252380D01*
X83177619Y-51252380D01*
X83272857Y-51204761D01*
X83320476Y-51109523D01*
X83320476Y-51061904D01*
X83272857Y-50966666D01*
X83177619Y-50919047D01*
X83034761Y-50919047D01*
X82939523Y-50871428D01*
X82891904Y-50776190D01*
X82891904Y-50728571D01*
X82939523Y-50633333D01*
X83034761Y-50585714D01*
X83177619Y-50585714D01*
X83272857Y-50633333D01*
X84130000Y-51204761D02*
X84034761Y-51252380D01*
X83844285Y-51252380D01*
X83749047Y-51204761D01*
X83701428Y-51109523D01*
X83701428Y-50728571D01*
X83749047Y-50633333D01*
X83844285Y-50585714D01*
X84034761Y-50585714D01*
X84130000Y-50633333D01*
X84177619Y-50728571D01*
X84177619Y-50823809D01*
X83701428Y-50919047D01*
X85034761Y-50585714D02*
X85034761Y-51395238D01*
X84987142Y-51490476D01*
X84939523Y-51538095D01*
X84844285Y-51585714D01*
X84701428Y-51585714D01*
X84606190Y-51538095D01*
X85034761Y-51204761D02*
X84939523Y-51252380D01*
X84749047Y-51252380D01*
X84653809Y-51204761D01*
X84606190Y-51157142D01*
X84558571Y-51061904D01*
X84558571Y-50776190D01*
X84606190Y-50680952D01*
X84653809Y-50633333D01*
X84749047Y-50585714D01*
X84939523Y-50585714D01*
X85034761Y-50633333D01*
X85510952Y-51252380D02*
X85510952Y-50585714D01*
X85510952Y-50680952D02*
X85558571Y-50633333D01*
X85653809Y-50585714D01*
X85796666Y-50585714D01*
X85891904Y-50633333D01*
X85939523Y-50728571D01*
X85939523Y-51252380D01*
X85939523Y-50728571D02*
X85987142Y-50633333D01*
X86082380Y-50585714D01*
X86225238Y-50585714D01*
X86320476Y-50633333D01*
X86368095Y-50728571D01*
X86368095Y-51252380D01*
X87225238Y-51204761D02*
X87130000Y-51252380D01*
X86939523Y-51252380D01*
X86844285Y-51204761D01*
X86796666Y-51109523D01*
X86796666Y-50728571D01*
X86844285Y-50633333D01*
X86939523Y-50585714D01*
X87130000Y-50585714D01*
X87225238Y-50633333D01*
X87272857Y-50728571D01*
X87272857Y-50823809D01*
X86796666Y-50919047D01*
X87701428Y-50585714D02*
X87701428Y-51252380D01*
X87701428Y-50680952D02*
X87749047Y-50633333D01*
X87844285Y-50585714D01*
X87987142Y-50585714D01*
X88082380Y-50633333D01*
X88130000Y-50728571D01*
X88130000Y-51252380D01*
X88463333Y-50585714D02*
X88844285Y-50585714D01*
X88606190Y-50252380D02*
X88606190Y-51109523D01*
X88653809Y-51204761D01*
X88749047Y-51252380D01*
X88844285Y-51252380D01*
X90368095Y-51252380D02*
X90368095Y-50252380D01*
X90368095Y-51204761D02*
X90272857Y-51252380D01*
X90082380Y-51252380D01*
X89987142Y-51204761D01*
X89939523Y-51157142D01*
X89891904Y-51061904D01*
X89891904Y-50776190D01*
X89939523Y-50680952D01*
X89987142Y-50633333D01*
X90082380Y-50585714D01*
X90272857Y-50585714D01*
X90368095Y-50633333D01*
X91225238Y-51204761D02*
X91130000Y-51252380D01*
X90939523Y-51252380D01*
X90844285Y-51204761D01*
X90796666Y-51109523D01*
X90796666Y-50728571D01*
X90844285Y-50633333D01*
X90939523Y-50585714D01*
X91130000Y-50585714D01*
X91225238Y-50633333D01*
X91272857Y-50728571D01*
X91272857Y-50823809D01*
X90796666Y-50919047D01*
X92130000Y-51204761D02*
X92034761Y-51252380D01*
X91844285Y-51252380D01*
X91749047Y-51204761D01*
X91701428Y-51157142D01*
X91653809Y-51061904D01*
X91653809Y-50776190D01*
X91701428Y-50680952D01*
X91749047Y-50633333D01*
X91844285Y-50585714D01*
X92034761Y-50585714D01*
X92130000Y-50633333D01*
X92701428Y-51252380D02*
X92606190Y-51204761D01*
X92558571Y-51157142D01*
X92510952Y-51061904D01*
X92510952Y-50776190D01*
X92558571Y-50680952D01*
X92606190Y-50633333D01*
X92701428Y-50585714D01*
X92844285Y-50585714D01*
X92939523Y-50633333D01*
X92987142Y-50680952D01*
X93034761Y-50776190D01*
X93034761Y-51061904D01*
X92987142Y-51157142D01*
X92939523Y-51204761D01*
X92844285Y-51252380D01*
X92701428Y-51252380D01*
X93891904Y-51252380D02*
X93891904Y-50252380D01*
X93891904Y-51204761D02*
X93796666Y-51252380D01*
X93606190Y-51252380D01*
X93510952Y-51204761D01*
X93463333Y-51157142D01*
X93415714Y-51061904D01*
X93415714Y-50776190D01*
X93463333Y-50680952D01*
X93510952Y-50633333D01*
X93606190Y-50585714D01*
X93796666Y-50585714D01*
X93891904Y-50633333D01*
X94749047Y-51204761D02*
X94653809Y-51252380D01*
X94463333Y-51252380D01*
X94368095Y-51204761D01*
X94320476Y-51109523D01*
X94320476Y-50728571D01*
X94368095Y-50633333D01*
X94463333Y-50585714D01*
X94653809Y-50585714D01*
X94749047Y-50633333D01*
X94796666Y-50728571D01*
X94796666Y-50823809D01*
X94320476Y-50919047D01*
X95225238Y-51252380D02*
X95225238Y-50585714D01*
X95225238Y-50776190D02*
X95272857Y-50680952D01*
X95320476Y-50633333D01*
X95415714Y-50585714D01*
X95510952Y-50585714D01*
X97082380Y-51252380D02*
X96606190Y-51252380D01*
X96606190Y-50252380D01*
X97368095Y-51204761D02*
X97510952Y-51252380D01*
X97749047Y-51252380D01*
X97844285Y-51204761D01*
X97891904Y-51157142D01*
X97939523Y-51061904D01*
X97939523Y-50966666D01*
X97891904Y-50871428D01*
X97844285Y-50823809D01*
X97749047Y-50776190D01*
X97558571Y-50728571D01*
X97463333Y-50680952D01*
X97415714Y-50633333D01*
X97368095Y-50538095D01*
X97368095Y-50442857D01*
X97415714Y-50347619D01*
X97463333Y-50300000D01*
X97558571Y-50252380D01*
X97796666Y-50252380D01*
X97939523Y-50300000D01*
X98701428Y-50728571D02*
X98844285Y-50776190D01*
X98891904Y-50823809D01*
X98939523Y-50919047D01*
X98939523Y-51061904D01*
X98891904Y-51157142D01*
X98844285Y-51204761D01*
X98749047Y-51252380D01*
X98368095Y-51252380D01*
X98368095Y-50252380D01*
X98701428Y-50252380D01*
X98796666Y-50300000D01*
X98844285Y-50347619D01*
X98891904Y-50442857D01*
X98891904Y-50538095D01*
X98844285Y-50633333D01*
X98796666Y-50680952D01*
X98701428Y-50728571D01*
X98368095Y-50728571D01*
X82756666Y-114752380D02*
X82756666Y-113752380D01*
X82994761Y-113752380D01*
X83137619Y-113800000D01*
X83232857Y-113895238D01*
X83280476Y-113990476D01*
X83328095Y-114180952D01*
X83328095Y-114323809D01*
X83280476Y-114514285D01*
X83232857Y-114609523D01*
X83137619Y-114704761D01*
X82994761Y-114752380D01*
X82756666Y-114752380D01*
X83947142Y-113752380D02*
X84042380Y-113752380D01*
X84137619Y-113800000D01*
X84185238Y-113847619D01*
X84232857Y-113942857D01*
X84280476Y-114133333D01*
X84280476Y-114371428D01*
X84232857Y-114561904D01*
X84185238Y-114657142D01*
X84137619Y-114704761D01*
X84042380Y-114752380D01*
X83947142Y-114752380D01*
X83851904Y-114704761D01*
X83804285Y-114657142D01*
X83756666Y-114561904D01*
X83709047Y-114371428D01*
X83709047Y-114133333D01*
X83756666Y-113942857D01*
X83804285Y-113847619D01*
X83851904Y-113800000D01*
X83947142Y-113752380D01*
X84709047Y-114371428D02*
X85470952Y-114371428D01*
X85947142Y-114752380D02*
X85947142Y-113752380D01*
X86185238Y-113752380D01*
X86328095Y-113800000D01*
X86423333Y-113895238D01*
X86470952Y-113990476D01*
X86518571Y-114180952D01*
X86518571Y-114323809D01*
X86470952Y-114514285D01*
X86423333Y-114609523D01*
X86328095Y-114704761D01*
X86185238Y-114752380D01*
X85947142Y-114752380D01*
X86899523Y-113847619D02*
X86947142Y-113800000D01*
X87042380Y-113752380D01*
X87280476Y-113752380D01*
X87375714Y-113800000D01*
X87423333Y-113847619D01*
X87470952Y-113942857D01*
X87470952Y-114038095D01*
X87423333Y-114180952D01*
X86851904Y-114752380D01*
X87470952Y-114752380D01*
X125159047Y-104592380D02*
X125159047Y-103592380D01*
X125492380Y-104306666D01*
X125825714Y-103592380D01*
X125825714Y-104592380D01*
X126873333Y-104497142D02*
X126825714Y-104544761D01*
X126682857Y-104592380D01*
X126587619Y-104592380D01*
X126444761Y-104544761D01*
X126349523Y-104449523D01*
X126301904Y-104354285D01*
X126254285Y-104163809D01*
X126254285Y-104020952D01*
X126301904Y-103830476D01*
X126349523Y-103735238D01*
X126444761Y-103640000D01*
X126587619Y-103592380D01*
X126682857Y-103592380D01*
X126825714Y-103640000D01*
X126873333Y-103687619D01*
X127301904Y-103592380D02*
X127301904Y-104401904D01*
X127349523Y-104497142D01*
X127397142Y-104544761D01*
X127492380Y-104592380D01*
X127682857Y-104592380D01*
X127778095Y-104544761D01*
X127825714Y-104497142D01*
X127873333Y-104401904D01*
X127873333Y-103592380D01*
X129540000Y-104544761D02*
X129444761Y-104592380D01*
X129254285Y-104592380D01*
X129159047Y-104544761D01*
X129111428Y-104497142D01*
X129063809Y-104401904D01*
X129063809Y-104116190D01*
X129111428Y-104020952D01*
X129159047Y-103973333D01*
X129254285Y-103925714D01*
X129444761Y-103925714D01*
X129540000Y-103973333D01*
X130111428Y-104592380D02*
X130016190Y-104544761D01*
X129968571Y-104497142D01*
X129920952Y-104401904D01*
X129920952Y-104116190D01*
X129968571Y-104020952D01*
X130016190Y-103973333D01*
X130111428Y-103925714D01*
X130254285Y-103925714D01*
X130349523Y-103973333D01*
X130397142Y-104020952D01*
X130444761Y-104116190D01*
X130444761Y-104401904D01*
X130397142Y-104497142D01*
X130349523Y-104544761D01*
X130254285Y-104592380D01*
X130111428Y-104592380D01*
X130873333Y-103925714D02*
X130873333Y-104592380D01*
X130873333Y-104020952D02*
X130920952Y-103973333D01*
X131016190Y-103925714D01*
X131159047Y-103925714D01*
X131254285Y-103973333D01*
X131301904Y-104068571D01*
X131301904Y-104592380D01*
X131635238Y-103925714D02*
X132016190Y-103925714D01*
X131778095Y-103592380D02*
X131778095Y-104449523D01*
X131825714Y-104544761D01*
X131920952Y-104592380D01*
X132016190Y-104592380D01*
X132349523Y-104592380D02*
X132349523Y-103925714D01*
X132349523Y-104116190D02*
X132397142Y-104020952D01*
X132444761Y-103973333D01*
X132540000Y-103925714D01*
X132635238Y-103925714D01*
X133111428Y-104592380D02*
X133016190Y-104544761D01*
X132968571Y-104497142D01*
X132920952Y-104401904D01*
X132920952Y-104116190D01*
X132968571Y-104020952D01*
X133016190Y-103973333D01*
X133111428Y-103925714D01*
X133254285Y-103925714D01*
X133349523Y-103973333D01*
X133397142Y-104020952D01*
X133444761Y-104116190D01*
X133444761Y-104401904D01*
X133397142Y-104497142D01*
X133349523Y-104544761D01*
X133254285Y-104592380D01*
X133111428Y-104592380D01*
X134016190Y-104592380D02*
X133920952Y-104544761D01*
X133873333Y-104449523D01*
X133873333Y-103592380D01*
X53848095Y-132457619D02*
X54610000Y-132457619D01*
X54610000Y-132457619D02*
X55371904Y-132457619D01*
X54467142Y-133877142D02*
X54419523Y-133924761D01*
X54276666Y-133972380D01*
X54181428Y-133972380D01*
X54038571Y-133924761D01*
X53943333Y-133829523D01*
X53895714Y-133734285D01*
X53848095Y-133543809D01*
X53848095Y-133400952D01*
X53895714Y-133210476D01*
X53943333Y-133115238D01*
X54038571Y-133020000D01*
X54181428Y-132972380D01*
X54276666Y-132972380D01*
X54419523Y-133020000D01*
X54467142Y-133067619D01*
X54895714Y-133448571D02*
X55229047Y-133448571D01*
X55371904Y-133972380D02*
X54895714Y-133972380D01*
X54895714Y-132972380D01*
X55371904Y-132972380D01*
X64188680Y-132594985D02*
X64950585Y-132594985D01*
X64950585Y-132594985D02*
X65712489Y-132594985D01*
X64069632Y-133109746D02*
X64307727Y-134109746D01*
X64498204Y-133395461D01*
X64688680Y-134109746D01*
X64926775Y-133109746D01*
X65307727Y-133585937D02*
X65641061Y-133585937D01*
X65783918Y-134109746D02*
X65307727Y-134109746D01*
X65307727Y-133109746D01*
X65783918Y-133109746D01*
X36759523Y-145173571D02*
X37092857Y-145173571D01*
X37235714Y-145697380D02*
X36759523Y-145697380D01*
X36759523Y-144697380D01*
X37235714Y-144697380D01*
X37664285Y-145173571D02*
X37997619Y-145173571D01*
X38140476Y-145697380D02*
X37664285Y-145697380D01*
X37664285Y-144697380D01*
X38140476Y-144697380D01*
X38569047Y-145697380D02*
X38569047Y-144697380D01*
X38949999Y-144697380D01*
X39045238Y-144745000D01*
X39092857Y-144792619D01*
X39140476Y-144887857D01*
X39140476Y-145030714D01*
X39092857Y-145125952D01*
X39045238Y-145173571D01*
X38949999Y-145221190D01*
X38569047Y-145221190D01*
X40140476Y-145697380D02*
X39807142Y-145221190D01*
X39569047Y-145697380D02*
X39569047Y-144697380D01*
X39949999Y-144697380D01*
X40045238Y-144745000D01*
X40092857Y-144792619D01*
X40140476Y-144887857D01*
X40140476Y-145030714D01*
X40092857Y-145125952D01*
X40045238Y-145173571D01*
X39949999Y-145221190D01*
X39569047Y-145221190D01*
X40759523Y-144697380D02*
X40949999Y-144697380D01*
X41045238Y-144745000D01*
X41140476Y-144840238D01*
X41188095Y-145030714D01*
X41188095Y-145364047D01*
X41140476Y-145554523D01*
X41045238Y-145649761D01*
X40949999Y-145697380D01*
X40759523Y-145697380D01*
X40664285Y-145649761D01*
X40569047Y-145554523D01*
X40521428Y-145364047D01*
X40521428Y-145030714D01*
X40569047Y-144840238D01*
X40664285Y-144745000D01*
X40759523Y-144697380D01*
X41616666Y-145697380D02*
X41616666Y-144697380D01*
X41949999Y-145411666D01*
X42283333Y-144697380D01*
X42283333Y-145697380D01*
X43521428Y-145697380D02*
X43521428Y-144697380D01*
X43902380Y-144697380D01*
X43997619Y-144745000D01*
X44045238Y-144792619D01*
X44092857Y-144887857D01*
X44092857Y-145030714D01*
X44045238Y-145125952D01*
X43997619Y-145173571D01*
X43902380Y-145221190D01*
X43521428Y-145221190D01*
X44521428Y-145697380D02*
X44521428Y-145030714D01*
X44521428Y-145221190D02*
X44569047Y-145125952D01*
X44616666Y-145078333D01*
X44711904Y-145030714D01*
X44807142Y-145030714D01*
X45283333Y-145697380D02*
X45188095Y-145649761D01*
X45140476Y-145602142D01*
X45092857Y-145506904D01*
X45092857Y-145221190D01*
X45140476Y-145125952D01*
X45188095Y-145078333D01*
X45283333Y-145030714D01*
X45426190Y-145030714D01*
X45521428Y-145078333D01*
X45569047Y-145125952D01*
X45616666Y-145221190D01*
X45616666Y-145506904D01*
X45569047Y-145602142D01*
X45521428Y-145649761D01*
X45426190Y-145697380D01*
X45283333Y-145697380D01*
X46473809Y-145030714D02*
X46473809Y-145840238D01*
X46426190Y-145935476D01*
X46378571Y-145983095D01*
X46283333Y-146030714D01*
X46140476Y-146030714D01*
X46045238Y-145983095D01*
X46473809Y-145649761D02*
X46378571Y-145697380D01*
X46188095Y-145697380D01*
X46092857Y-145649761D01*
X46045238Y-145602142D01*
X45997619Y-145506904D01*
X45997619Y-145221190D01*
X46045238Y-145125952D01*
X46092857Y-145078333D01*
X46188095Y-145030714D01*
X46378571Y-145030714D01*
X46473809Y-145078333D01*
X46950000Y-145697380D02*
X46950000Y-145030714D01*
X46950000Y-145221190D02*
X46997619Y-145125952D01*
X47045238Y-145078333D01*
X47140476Y-145030714D01*
X47235714Y-145030714D01*
X47997619Y-145697380D02*
X47997619Y-145173571D01*
X47950000Y-145078333D01*
X47854761Y-145030714D01*
X47664285Y-145030714D01*
X47569047Y-145078333D01*
X47997619Y-145649761D02*
X47902380Y-145697380D01*
X47664285Y-145697380D01*
X47569047Y-145649761D01*
X47521428Y-145554523D01*
X47521428Y-145459285D01*
X47569047Y-145364047D01*
X47664285Y-145316428D01*
X47902380Y-145316428D01*
X47997619Y-145268809D01*
X48473809Y-145697380D02*
X48473809Y-145030714D01*
X48473809Y-145125952D02*
X48521428Y-145078333D01*
X48616666Y-145030714D01*
X48759523Y-145030714D01*
X48854761Y-145078333D01*
X48902380Y-145173571D01*
X48902380Y-145697380D01*
X48902380Y-145173571D02*
X48950000Y-145078333D01*
X49045238Y-145030714D01*
X49188095Y-145030714D01*
X49283333Y-145078333D01*
X49330952Y-145173571D01*
X49330952Y-145697380D01*
X49807142Y-145697380D02*
X49807142Y-145030714D01*
X49807142Y-145125952D02*
X49854761Y-145078333D01*
X49950000Y-145030714D01*
X50092857Y-145030714D01*
X50188095Y-145078333D01*
X50235714Y-145173571D01*
X50235714Y-145697380D01*
X50235714Y-145173571D02*
X50283333Y-145078333D01*
X50378571Y-145030714D01*
X50521428Y-145030714D01*
X50616666Y-145078333D01*
X50664285Y-145173571D01*
X50664285Y-145697380D01*
X51521428Y-145649761D02*
X51426190Y-145697380D01*
X51235714Y-145697380D01*
X51140476Y-145649761D01*
X51092857Y-145554523D01*
X51092857Y-145173571D01*
X51140476Y-145078333D01*
X51235714Y-145030714D01*
X51426190Y-145030714D01*
X51521428Y-145078333D01*
X51569047Y-145173571D01*
X51569047Y-145268809D01*
X51092857Y-145364047D01*
X51997619Y-145697380D02*
X51997619Y-145030714D01*
X51997619Y-145221190D02*
X52045238Y-145125952D01*
X52092857Y-145078333D01*
X52188095Y-145030714D01*
X52283333Y-145030714D01*
X43640476Y-146307380D02*
X43973809Y-147307380D01*
X44307142Y-146307380D01*
X45164285Y-147307380D02*
X44592857Y-147307380D01*
X44878571Y-147307380D02*
X44878571Y-146307380D01*
X44783333Y-146450238D01*
X44688095Y-146545476D01*
X44592857Y-146593095D01*
X89455714Y-130976666D02*
X89931904Y-130976666D01*
X89360476Y-131262380D02*
X89693809Y-130262380D01*
X90027142Y-131262380D01*
X90836666Y-130262380D02*
X90360476Y-130262380D01*
X90312857Y-130738571D01*
X90360476Y-130690952D01*
X90455714Y-130643333D01*
X90693809Y-130643333D01*
X90789047Y-130690952D01*
X90836666Y-130738571D01*
X90884285Y-130833809D01*
X90884285Y-131071904D01*
X90836666Y-131167142D01*
X90789047Y-131214761D01*
X90693809Y-131262380D01*
X90455714Y-131262380D01*
X90360476Y-131214761D01*
X90312857Y-131167142D01*
X109775714Y-130976666D02*
X110251904Y-130976666D01*
X109680476Y-131262380D02*
X110013809Y-130262380D01*
X110347142Y-131262380D01*
X111204285Y-131262380D02*
X110632857Y-131262380D01*
X110918571Y-131262380D02*
X110918571Y-130262380D01*
X110823333Y-130405238D01*
X110728095Y-130500476D01*
X110632857Y-130548095D01*
X109751904Y-133802380D02*
X109751904Y-132802380D01*
X109990000Y-132802380D01*
X110132857Y-132850000D01*
X110228095Y-132945238D01*
X110275714Y-133040476D01*
X110323333Y-133230952D01*
X110323333Y-133373809D01*
X110275714Y-133564285D01*
X110228095Y-133659523D01*
X110132857Y-133754761D01*
X109990000Y-133802380D01*
X109751904Y-133802380D01*
X111275714Y-133802380D02*
X110704285Y-133802380D01*
X110990000Y-133802380D02*
X110990000Y-132802380D01*
X110894761Y-132945238D01*
X110799523Y-133040476D01*
X110704285Y-133088095D01*
X129452857Y-65222380D02*
X129452857Y-64222380D01*
X129786190Y-64936666D01*
X130119523Y-64222380D01*
X130119523Y-65222380D01*
X131167142Y-65127142D02*
X131119523Y-65174761D01*
X130976666Y-65222380D01*
X130881428Y-65222380D01*
X130738571Y-65174761D01*
X130643333Y-65079523D01*
X130595714Y-64984285D01*
X130548095Y-64793809D01*
X130548095Y-64650952D01*
X130595714Y-64460476D01*
X130643333Y-64365238D01*
X130738571Y-64270000D01*
X130881428Y-64222380D01*
X130976666Y-64222380D01*
X131119523Y-64270000D01*
X131167142Y-64317619D01*
X131595714Y-64222380D02*
X131595714Y-65031904D01*
X131643333Y-65127142D01*
X131690952Y-65174761D01*
X131786190Y-65222380D01*
X131976666Y-65222380D01*
X132071904Y-65174761D01*
X132119523Y-65127142D01*
X132167142Y-65031904D01*
X132167142Y-64222380D01*
X69135714Y-130976666D02*
X69611904Y-130976666D01*
X69040476Y-131262380D02*
X69373809Y-130262380D01*
X69707142Y-131262380D01*
X70088095Y-131262380D02*
X70278571Y-131262380D01*
X70373809Y-131214761D01*
X70421428Y-131167142D01*
X70516666Y-131024285D01*
X70564285Y-130833809D01*
X70564285Y-130452857D01*
X70516666Y-130357619D01*
X70469047Y-130310000D01*
X70373809Y-130262380D01*
X70183333Y-130262380D01*
X70088095Y-130310000D01*
X70040476Y-130357619D01*
X69992857Y-130452857D01*
X69992857Y-130690952D01*
X70040476Y-130786190D01*
X70088095Y-130833809D01*
X70183333Y-130881428D01*
X70373809Y-130881428D01*
X70469047Y-130833809D01*
X70516666Y-130786190D01*
X70564285Y-130690952D01*
X130984761Y-143962380D02*
X130984761Y-142962380D01*
X131365714Y-142962380D01*
X131460952Y-143010000D01*
X131508571Y-143057619D01*
X131556190Y-143152857D01*
X131556190Y-143295714D01*
X131508571Y-143390952D01*
X131460952Y-143438571D01*
X131365714Y-143486190D01*
X130984761Y-143486190D01*
X131889523Y-143295714D02*
X132080000Y-143962380D01*
X132270476Y-143486190D01*
X132460952Y-143962380D01*
X132651428Y-143295714D01*
X133032380Y-143962380D02*
X133032380Y-143295714D01*
X133032380Y-143486190D02*
X133080000Y-143390952D01*
X133127619Y-143343333D01*
X133222857Y-143295714D01*
X133318095Y-143295714D01*
X83034761Y-145232380D02*
X83034761Y-144232380D01*
X83272857Y-144232380D01*
X83415714Y-144280000D01*
X83510952Y-144375238D01*
X83558571Y-144470476D01*
X83606190Y-144660952D01*
X83606190Y-144803809D01*
X83558571Y-144994285D01*
X83510952Y-145089523D01*
X83415714Y-145184761D01*
X83272857Y-145232380D01*
X83034761Y-145232380D01*
X84415714Y-145184761D02*
X84320476Y-145232380D01*
X84130000Y-145232380D01*
X84034761Y-145184761D01*
X83987142Y-145089523D01*
X83987142Y-144708571D01*
X84034761Y-144613333D01*
X84130000Y-144565714D01*
X84320476Y-144565714D01*
X84415714Y-144613333D01*
X84463333Y-144708571D01*
X84463333Y-144803809D01*
X83987142Y-144899047D01*
X84891904Y-145232380D02*
X84891904Y-144232380D01*
X84891904Y-144613333D02*
X84987142Y-144565714D01*
X85177619Y-144565714D01*
X85272857Y-144613333D01*
X85320476Y-144660952D01*
X85368095Y-144756190D01*
X85368095Y-145041904D01*
X85320476Y-145137142D01*
X85272857Y-145184761D01*
X85177619Y-145232380D01*
X84987142Y-145232380D01*
X84891904Y-145184761D01*
X86225238Y-144565714D02*
X86225238Y-145232380D01*
X85796666Y-144565714D02*
X85796666Y-145089523D01*
X85844285Y-145184761D01*
X85939523Y-145232380D01*
X86082380Y-145232380D01*
X86177619Y-145184761D01*
X86225238Y-145137142D01*
X87130000Y-144565714D02*
X87130000Y-145375238D01*
X87082380Y-145470476D01*
X87034761Y-145518095D01*
X86939523Y-145565714D01*
X86796666Y-145565714D01*
X86701428Y-145518095D01*
X87130000Y-145184761D02*
X87034761Y-145232380D01*
X86844285Y-145232380D01*
X86749047Y-145184761D01*
X86701428Y-145137142D01*
X86653809Y-145041904D01*
X86653809Y-144756190D01*
X86701428Y-144660952D01*
X86749047Y-144613333D01*
X86844285Y-144565714D01*
X87034761Y-144565714D01*
X87130000Y-144613333D01*
X88701428Y-144708571D02*
X88844285Y-144756190D01*
X88891904Y-144803809D01*
X88939523Y-144899047D01*
X88939523Y-145041904D01*
X88891904Y-145137142D01*
X88844285Y-145184761D01*
X88749047Y-145232380D01*
X88368095Y-145232380D01*
X88368095Y-144232380D01*
X88701428Y-144232380D01*
X88796666Y-144280000D01*
X88844285Y-144327619D01*
X88891904Y-144422857D01*
X88891904Y-144518095D01*
X88844285Y-144613333D01*
X88796666Y-144660952D01*
X88701428Y-144708571D01*
X88368095Y-144708571D01*
X89510952Y-145232380D02*
X89415714Y-145184761D01*
X89368095Y-145137142D01*
X89320476Y-145041904D01*
X89320476Y-144756190D01*
X89368095Y-144660952D01*
X89415714Y-144613333D01*
X89510952Y-144565714D01*
X89653809Y-144565714D01*
X89749047Y-144613333D01*
X89796666Y-144660952D01*
X89844285Y-144756190D01*
X89844285Y-145041904D01*
X89796666Y-145137142D01*
X89749047Y-145184761D01*
X89653809Y-145232380D01*
X89510952Y-145232380D01*
X90701428Y-145232380D02*
X90701428Y-144708571D01*
X90653809Y-144613333D01*
X90558571Y-144565714D01*
X90368095Y-144565714D01*
X90272857Y-144613333D01*
X90701428Y-145184761D02*
X90606190Y-145232380D01*
X90368095Y-145232380D01*
X90272857Y-145184761D01*
X90225238Y-145089523D01*
X90225238Y-144994285D01*
X90272857Y-144899047D01*
X90368095Y-144851428D01*
X90606190Y-144851428D01*
X90701428Y-144803809D01*
X91177619Y-145232380D02*
X91177619Y-144565714D01*
X91177619Y-144756190D02*
X91225238Y-144660952D01*
X91272857Y-144613333D01*
X91368095Y-144565714D01*
X91463333Y-144565714D01*
X92225238Y-145232380D02*
X92225238Y-144232380D01*
X92225238Y-145184761D02*
X92130000Y-145232380D01*
X91939523Y-145232380D01*
X91844285Y-145184761D01*
X91796666Y-145137142D01*
X91749047Y-145041904D01*
X91749047Y-144756190D01*
X91796666Y-144660952D01*
X91844285Y-144613333D01*
X91939523Y-144565714D01*
X92130000Y-144565714D01*
X92225238Y-144613333D01*
X52285238Y-114466666D02*
X52761428Y-114466666D01*
X52190000Y-114752380D02*
X52523333Y-113752380D01*
X52856666Y-114752380D01*
X53713809Y-114752380D02*
X53142380Y-114752380D01*
X53428095Y-114752380D02*
X53428095Y-113752380D01*
X53332857Y-113895238D01*
X53237619Y-113990476D01*
X53142380Y-114038095D01*
X54094761Y-113847619D02*
X54142380Y-113800000D01*
X54237619Y-113752380D01*
X54475714Y-113752380D01*
X54570952Y-113800000D01*
X54618571Y-113847619D01*
X54666190Y-113942857D01*
X54666190Y-114038095D01*
X54618571Y-114180952D01*
X54047142Y-114752380D01*
X54666190Y-114752380D01*
X55856666Y-114371428D02*
X56618571Y-114371428D01*
X56237619Y-114752380D02*
X56237619Y-113990476D01*
X58428095Y-114657142D02*
X58380476Y-114704761D01*
X58237619Y-114752380D01*
X58142380Y-114752380D01*
X57999523Y-114704761D01*
X57904285Y-114609523D01*
X57856666Y-114514285D01*
X57809047Y-114323809D01*
X57809047Y-114180952D01*
X57856666Y-113990476D01*
X57904285Y-113895238D01*
X57999523Y-113800000D01*
X58142380Y-113752380D01*
X58237619Y-113752380D01*
X58380476Y-113800000D01*
X58428095Y-113847619D01*
X58713809Y-113752380D02*
X59285238Y-113752380D01*
X58999523Y-114752380D02*
X58999523Y-113752380D01*
X60190000Y-114752380D02*
X59856666Y-114276190D01*
X59618571Y-114752380D02*
X59618571Y-113752380D01*
X59999523Y-113752380D01*
X60094761Y-113800000D01*
X60142380Y-113847619D01*
X60190000Y-113942857D01*
X60190000Y-114085714D01*
X60142380Y-114180952D01*
X60094761Y-114228571D01*
X59999523Y-114276190D01*
X59618571Y-114276190D01*
X61094761Y-114752380D02*
X60618571Y-114752380D01*
X60618571Y-113752380D01*
X62142380Y-114704761D02*
X62237619Y-114752380D01*
X62428095Y-114752380D01*
X62523333Y-114704761D01*
X62570952Y-114609523D01*
X62570952Y-114561904D01*
X62523333Y-114466666D01*
X62428095Y-114419047D01*
X62285238Y-114419047D01*
X62190000Y-114371428D01*
X62142380Y-114276190D01*
X62142380Y-114228571D01*
X62190000Y-114133333D01*
X62285238Y-114085714D01*
X62428095Y-114085714D01*
X62523333Y-114133333D01*
X62999523Y-114752380D02*
X62999523Y-114085714D01*
X62999523Y-113752380D02*
X62951904Y-113800000D01*
X62999523Y-113847619D01*
X63047142Y-113800000D01*
X62999523Y-113752380D01*
X62999523Y-113847619D01*
X63904285Y-114085714D02*
X63904285Y-114895238D01*
X63856666Y-114990476D01*
X63809047Y-115038095D01*
X63713809Y-115085714D01*
X63570952Y-115085714D01*
X63475714Y-115038095D01*
X63904285Y-114704761D02*
X63809047Y-114752380D01*
X63618571Y-114752380D01*
X63523333Y-114704761D01*
X63475714Y-114657142D01*
X63428095Y-114561904D01*
X63428095Y-114276190D01*
X63475714Y-114180952D01*
X63523333Y-114133333D01*
X63618571Y-114085714D01*
X63809047Y-114085714D01*
X63904285Y-114133333D01*
X64380476Y-114085714D02*
X64380476Y-114752380D01*
X64380476Y-114180952D02*
X64428095Y-114133333D01*
X64523333Y-114085714D01*
X64666190Y-114085714D01*
X64761428Y-114133333D01*
X64809047Y-114228571D01*
X64809047Y-114752380D01*
X65713809Y-114752380D02*
X65713809Y-114228571D01*
X65666190Y-114133333D01*
X65570952Y-114085714D01*
X65380476Y-114085714D01*
X65285238Y-114133333D01*
X65713809Y-114704761D02*
X65618571Y-114752380D01*
X65380476Y-114752380D01*
X65285238Y-114704761D01*
X65237619Y-114609523D01*
X65237619Y-114514285D01*
X65285238Y-114419047D01*
X65380476Y-114371428D01*
X65618571Y-114371428D01*
X65713809Y-114323809D01*
X66332857Y-114752380D02*
X66237619Y-114704761D01*
X66190000Y-114609523D01*
X66190000Y-113752380D01*
X66666190Y-114704761D02*
X66761428Y-114752380D01*
X66951904Y-114752380D01*
X67047142Y-114704761D01*
X67094761Y-114609523D01*
X67094761Y-114561904D01*
X67047142Y-114466666D01*
X66951904Y-114419047D01*
X66809047Y-114419047D01*
X66713809Y-114371428D01*
X66666190Y-114276190D01*
X66666190Y-114228571D01*
X66713809Y-114133333D01*
X66809047Y-114085714D01*
X66951904Y-114085714D01*
X67047142Y-114133333D01*
X43514761Y-55808571D02*
X43657619Y-55856190D01*
X43705238Y-55903809D01*
X43752857Y-55999047D01*
X43752857Y-56141904D01*
X43705238Y-56237142D01*
X43657619Y-56284761D01*
X43562380Y-56332380D01*
X43181428Y-56332380D01*
X43181428Y-55332380D01*
X43514761Y-55332380D01*
X43609999Y-55380000D01*
X43657619Y-55427619D01*
X43705238Y-55522857D01*
X43705238Y-55618095D01*
X43657619Y-55713333D01*
X43609999Y-55760952D01*
X43514761Y-55808571D01*
X43181428Y-55808571D01*
X44181428Y-56332380D02*
X44181428Y-55665714D01*
X44181428Y-55332380D02*
X44133809Y-55380000D01*
X44181428Y-55427619D01*
X44229047Y-55380000D01*
X44181428Y-55332380D01*
X44181428Y-55427619D01*
X44657619Y-55665714D02*
X44657619Y-56332380D01*
X44657619Y-55760952D02*
X44705238Y-55713333D01*
X44800476Y-55665714D01*
X44943333Y-55665714D01*
X45038571Y-55713333D01*
X45086190Y-55808571D01*
X45086190Y-56332380D01*
X45562380Y-55951428D02*
X46324285Y-55951428D01*
X46800476Y-55665714D02*
X47562380Y-55951428D01*
X46800476Y-56237142D01*
X47943333Y-55332380D02*
X48609999Y-55332380D01*
X48181428Y-56332380D01*
X49705238Y-56284761D02*
X49800476Y-56332380D01*
X49990952Y-56332380D01*
X50086190Y-56284761D01*
X50133809Y-56189523D01*
X50133809Y-56141904D01*
X50086190Y-56046666D01*
X49990952Y-55999047D01*
X49848095Y-55999047D01*
X49752857Y-55951428D01*
X49705238Y-55856190D01*
X49705238Y-55808571D01*
X49752857Y-55713333D01*
X49848095Y-55665714D01*
X49990952Y-55665714D01*
X50086190Y-55713333D01*
X50943333Y-56284761D02*
X50848095Y-56332380D01*
X50657619Y-56332380D01*
X50562380Y-56284761D01*
X50514761Y-56189523D01*
X50514761Y-55808571D01*
X50562380Y-55713333D01*
X50657619Y-55665714D01*
X50848095Y-55665714D01*
X50943333Y-55713333D01*
X50990952Y-55808571D01*
X50990952Y-55903809D01*
X50514761Y-55999047D01*
X51848095Y-55665714D02*
X51848095Y-56475238D01*
X51800476Y-56570476D01*
X51752857Y-56618095D01*
X51657619Y-56665714D01*
X51514761Y-56665714D01*
X51419523Y-56618095D01*
X51848095Y-56284761D02*
X51752857Y-56332380D01*
X51562380Y-56332380D01*
X51467142Y-56284761D01*
X51419523Y-56237142D01*
X51371904Y-56141904D01*
X51371904Y-55856190D01*
X51419523Y-55760952D01*
X51467142Y-55713333D01*
X51562380Y-55665714D01*
X51752857Y-55665714D01*
X51848095Y-55713333D01*
X52324285Y-56332380D02*
X52324285Y-55665714D01*
X52324285Y-55760952D02*
X52371904Y-55713333D01*
X52467142Y-55665714D01*
X52609999Y-55665714D01*
X52705238Y-55713333D01*
X52752857Y-55808571D01*
X52752857Y-56332380D01*
X52752857Y-55808571D02*
X52800476Y-55713333D01*
X52895714Y-55665714D01*
X53038571Y-55665714D01*
X53133809Y-55713333D01*
X53181428Y-55808571D01*
X53181428Y-56332380D01*
X54038571Y-56284761D02*
X53943333Y-56332380D01*
X53752857Y-56332380D01*
X53657619Y-56284761D01*
X53609999Y-56189523D01*
X53609999Y-55808571D01*
X53657619Y-55713333D01*
X53752857Y-55665714D01*
X53943333Y-55665714D01*
X54038571Y-55713333D01*
X54086190Y-55808571D01*
X54086190Y-55903809D01*
X53609999Y-55999047D01*
X54514761Y-55665714D02*
X54514761Y-56332380D01*
X54514761Y-55760952D02*
X54562380Y-55713333D01*
X54657619Y-55665714D01*
X54800476Y-55665714D01*
X54895714Y-55713333D01*
X54943333Y-55808571D01*
X54943333Y-56332380D01*
X55276666Y-55665714D02*
X55657619Y-55665714D01*
X55419523Y-55332380D02*
X55419523Y-56189523D01*
X55467142Y-56284761D01*
X55562380Y-56332380D01*
X55657619Y-56332380D01*
X57181428Y-56332380D02*
X57181428Y-55332380D01*
X57181428Y-56284761D02*
X57086190Y-56332380D01*
X56895714Y-56332380D01*
X56800476Y-56284761D01*
X56752857Y-56237142D01*
X56705238Y-56141904D01*
X56705238Y-55856190D01*
X56752857Y-55760952D01*
X56800476Y-55713333D01*
X56895714Y-55665714D01*
X57086190Y-55665714D01*
X57181428Y-55713333D01*
X58038571Y-56284761D02*
X57943333Y-56332380D01*
X57752857Y-56332380D01*
X57657619Y-56284761D01*
X57609999Y-56189523D01*
X57609999Y-55808571D01*
X57657619Y-55713333D01*
X57752857Y-55665714D01*
X57943333Y-55665714D01*
X58038571Y-55713333D01*
X58086190Y-55808571D01*
X58086190Y-55903809D01*
X57609999Y-55999047D01*
X58943333Y-56284761D02*
X58848095Y-56332380D01*
X58657619Y-56332380D01*
X58562380Y-56284761D01*
X58514761Y-56237142D01*
X58467142Y-56141904D01*
X58467142Y-55856190D01*
X58514761Y-55760952D01*
X58562380Y-55713333D01*
X58657619Y-55665714D01*
X58848095Y-55665714D01*
X58943333Y-55713333D01*
X59514761Y-56332380D02*
X59419523Y-56284761D01*
X59371904Y-56237142D01*
X59324285Y-56141904D01*
X59324285Y-55856190D01*
X59371904Y-55760952D01*
X59419523Y-55713333D01*
X59514761Y-55665714D01*
X59657619Y-55665714D01*
X59752857Y-55713333D01*
X59800476Y-55760952D01*
X59848095Y-55856190D01*
X59848095Y-56141904D01*
X59800476Y-56237142D01*
X59752857Y-56284761D01*
X59657619Y-56332380D01*
X59514761Y-56332380D01*
X60705238Y-56332380D02*
X60705238Y-55332380D01*
X60705238Y-56284761D02*
X60609999Y-56332380D01*
X60419523Y-56332380D01*
X60324285Y-56284761D01*
X60276666Y-56237142D01*
X60229047Y-56141904D01*
X60229047Y-55856190D01*
X60276666Y-55760952D01*
X60324285Y-55713333D01*
X60419523Y-55665714D01*
X60609999Y-55665714D01*
X60705238Y-55713333D01*
X61562380Y-56284761D02*
X61467142Y-56332380D01*
X61276666Y-56332380D01*
X61181428Y-56284761D01*
X61133809Y-56189523D01*
X61133809Y-55808571D01*
X61181428Y-55713333D01*
X61276666Y-55665714D01*
X61467142Y-55665714D01*
X61562380Y-55713333D01*
X61609999Y-55808571D01*
X61609999Y-55903809D01*
X61133809Y-55999047D01*
X62038571Y-56332380D02*
X62038571Y-55665714D01*
X62038571Y-55856190D02*
X62086190Y-55760952D01*
X62133809Y-55713333D01*
X62229047Y-55665714D01*
X62324285Y-55665714D01*
X63419523Y-56332380D02*
X63419523Y-55332380D01*
X63752857Y-56046666D01*
X64086190Y-55332380D01*
X64086190Y-56332380D01*
X64514761Y-56284761D02*
X64657619Y-56332380D01*
X64895714Y-56332380D01*
X64990952Y-56284761D01*
X65038571Y-56237142D01*
X65086190Y-56141904D01*
X65086190Y-56046666D01*
X65038571Y-55951428D01*
X64990952Y-55903809D01*
X64895714Y-55856190D01*
X64705238Y-55808571D01*
X64609999Y-55760952D01*
X64562380Y-55713333D01*
X64514761Y-55618095D01*
X64514761Y-55522857D01*
X64562380Y-55427619D01*
X64609999Y-55380000D01*
X64705238Y-55332380D01*
X64943333Y-55332380D01*
X65086190Y-55380000D01*
X65848095Y-55808571D02*
X65990952Y-55856190D01*
X66038571Y-55903809D01*
X66086190Y-55999047D01*
X66086190Y-56141904D01*
X66038571Y-56237142D01*
X65990952Y-56284761D01*
X65895714Y-56332380D01*
X65514761Y-56332380D01*
X65514761Y-55332380D01*
X65848095Y-55332380D01*
X65943333Y-55380000D01*
X65990952Y-55427619D01*
X66038571Y-55522857D01*
X66038571Y-55618095D01*
X65990952Y-55713333D01*
X65943333Y-55760952D01*
X65848095Y-55808571D01*
X65514761Y-55808571D01*
X39092380Y-60559761D02*
X39235238Y-60607380D01*
X39473333Y-60607380D01*
X39568571Y-60559761D01*
X39616190Y-60512142D01*
X39663809Y-60416904D01*
X39663809Y-60321666D01*
X39616190Y-60226428D01*
X39568571Y-60178809D01*
X39473333Y-60131190D01*
X39282857Y-60083571D01*
X39187619Y-60035952D01*
X39140000Y-59988333D01*
X39092380Y-59893095D01*
X39092380Y-59797857D01*
X39140000Y-59702619D01*
X39187619Y-59655000D01*
X39282857Y-59607380D01*
X39520952Y-59607380D01*
X39663809Y-59655000D01*
X40092380Y-60607380D02*
X40092380Y-59607380D01*
X40520952Y-60607380D02*
X40520952Y-60083571D01*
X40473333Y-59988333D01*
X40378095Y-59940714D01*
X40235238Y-59940714D01*
X40140000Y-59988333D01*
X40092380Y-60035952D01*
X40997142Y-60607380D02*
X40997142Y-59940714D01*
X40997142Y-59607380D02*
X40949523Y-59655000D01*
X40997142Y-59702619D01*
X41044761Y-59655000D01*
X40997142Y-59607380D01*
X40997142Y-59702619D01*
X41330476Y-59940714D02*
X41711428Y-59940714D01*
X41473333Y-60607380D02*
X41473333Y-59750238D01*
X41520952Y-59655000D01*
X41616190Y-59607380D01*
X41711428Y-59607380D01*
X41901904Y-59940714D02*
X42282857Y-59940714D01*
X42044761Y-59607380D02*
X42044761Y-60464523D01*
X42092380Y-60559761D01*
X42187619Y-60607380D01*
X42282857Y-60607380D01*
X38401904Y-62217380D02*
X38068571Y-61741190D01*
X37830476Y-62217380D02*
X37830476Y-61217380D01*
X38211428Y-61217380D01*
X38306666Y-61265000D01*
X38354285Y-61312619D01*
X38401904Y-61407857D01*
X38401904Y-61550714D01*
X38354285Y-61645952D01*
X38306666Y-61693571D01*
X38211428Y-61741190D01*
X37830476Y-61741190D01*
X39211428Y-62169761D02*
X39116190Y-62217380D01*
X38925714Y-62217380D01*
X38830476Y-62169761D01*
X38782857Y-62074523D01*
X38782857Y-61693571D01*
X38830476Y-61598333D01*
X38925714Y-61550714D01*
X39116190Y-61550714D01*
X39211428Y-61598333D01*
X39259047Y-61693571D01*
X39259047Y-61788809D01*
X38782857Y-61884047D01*
X40116190Y-61550714D02*
X40116190Y-62360238D01*
X40068571Y-62455476D01*
X40020952Y-62503095D01*
X39925714Y-62550714D01*
X39782857Y-62550714D01*
X39687619Y-62503095D01*
X40116190Y-62169761D02*
X40020952Y-62217380D01*
X39830476Y-62217380D01*
X39735238Y-62169761D01*
X39687619Y-62122142D01*
X39640000Y-62026904D01*
X39640000Y-61741190D01*
X39687619Y-61645952D01*
X39735238Y-61598333D01*
X39830476Y-61550714D01*
X40020952Y-61550714D01*
X40116190Y-61598333D01*
X40592380Y-62217380D02*
X40592380Y-61550714D01*
X40592380Y-61217380D02*
X40544761Y-61265000D01*
X40592380Y-61312619D01*
X40640000Y-61265000D01*
X40592380Y-61217380D01*
X40592380Y-61312619D01*
X41020952Y-62169761D02*
X41116190Y-62217380D01*
X41306666Y-62217380D01*
X41401904Y-62169761D01*
X41449523Y-62074523D01*
X41449523Y-62026904D01*
X41401904Y-61931666D01*
X41306666Y-61884047D01*
X41163809Y-61884047D01*
X41068571Y-61836428D01*
X41020952Y-61741190D01*
X41020952Y-61693571D01*
X41068571Y-61598333D01*
X41163809Y-61550714D01*
X41306666Y-61550714D01*
X41401904Y-61598333D01*
X41735238Y-61550714D02*
X42116190Y-61550714D01*
X41878095Y-61217380D02*
X41878095Y-62074523D01*
X41925714Y-62169761D01*
X42020952Y-62217380D01*
X42116190Y-62217380D01*
X42830476Y-62169761D02*
X42735238Y-62217380D01*
X42544761Y-62217380D01*
X42449523Y-62169761D01*
X42401904Y-62074523D01*
X42401904Y-61693571D01*
X42449523Y-61598333D01*
X42544761Y-61550714D01*
X42735238Y-61550714D01*
X42830476Y-61598333D01*
X42878095Y-61693571D01*
X42878095Y-61788809D01*
X42401904Y-61884047D01*
X43306666Y-62217380D02*
X43306666Y-61550714D01*
X43306666Y-61741190D02*
X43354285Y-61645952D01*
X43401904Y-61598333D01*
X43497142Y-61550714D01*
X43592380Y-61550714D01*
X58499523Y-130976666D02*
X58975714Y-130976666D01*
X58404285Y-131262380D02*
X58737619Y-130262380D01*
X59070952Y-131262380D01*
X59928095Y-131262380D02*
X59356666Y-131262380D01*
X59642380Y-131262380D02*
X59642380Y-130262380D01*
X59547142Y-130405238D01*
X59451904Y-130500476D01*
X59356666Y-130548095D01*
X60880476Y-131262380D02*
X60309047Y-131262380D01*
X60594761Y-131262380D02*
X60594761Y-130262380D01*
X60499523Y-130405238D01*
X60404285Y-130500476D01*
X60309047Y-130548095D01*
X99615714Y-130976666D02*
X100091904Y-130976666D01*
X99520476Y-131262380D02*
X99853809Y-130262380D01*
X100187142Y-131262380D01*
X100425238Y-130262380D02*
X101044285Y-130262380D01*
X100710952Y-130643333D01*
X100853809Y-130643333D01*
X100949047Y-130690952D01*
X100996666Y-130738571D01*
X101044285Y-130833809D01*
X101044285Y-131071904D01*
X100996666Y-131167142D01*
X100949047Y-131214761D01*
X100853809Y-131262380D01*
X100568095Y-131262380D01*
X100472857Y-131214761D01*
X100425238Y-131167142D01*
X84351904Y-133802380D02*
X84351904Y-132802380D01*
X84590000Y-132802380D01*
X84732857Y-132850000D01*
X84828095Y-132945238D01*
X84875714Y-133040476D01*
X84923333Y-133230952D01*
X84923333Y-133373809D01*
X84875714Y-133564285D01*
X84828095Y-133659523D01*
X84732857Y-133754761D01*
X84590000Y-133802380D01*
X84351904Y-133802380D01*
X85780476Y-132802380D02*
X85590000Y-132802380D01*
X85494761Y-132850000D01*
X85447142Y-132897619D01*
X85351904Y-133040476D01*
X85304285Y-133230952D01*
X85304285Y-133611904D01*
X85351904Y-133707142D01*
X85399523Y-133754761D01*
X85494761Y-133802380D01*
X85685238Y-133802380D01*
X85780476Y-133754761D01*
X85828095Y-133707142D01*
X85875714Y-133611904D01*
X85875714Y-133373809D01*
X85828095Y-133278571D01*
X85780476Y-133230952D01*
X85685238Y-133183333D01*
X85494761Y-133183333D01*
X85399523Y-133230952D01*
X85351904Y-133278571D01*
X85304285Y-133373809D01*
X58928095Y-132457619D02*
X59690000Y-132457619D01*
X59690000Y-132457619D02*
X60451904Y-132457619D01*
X59142380Y-132972380D02*
X59332857Y-132972380D01*
X59428095Y-133020000D01*
X59523333Y-133115238D01*
X59570952Y-133305714D01*
X59570952Y-133639047D01*
X59523333Y-133829523D01*
X59428095Y-133924761D01*
X59332857Y-133972380D01*
X59142380Y-133972380D01*
X59047142Y-133924761D01*
X58951904Y-133829523D01*
X58904285Y-133639047D01*
X58904285Y-133305714D01*
X58951904Y-133115238D01*
X59047142Y-133020000D01*
X59142380Y-132972380D01*
X59999523Y-133448571D02*
X60332857Y-133448571D01*
X60475714Y-133972380D02*
X59999523Y-133972380D01*
X59999523Y-132972380D01*
X60475714Y-132972380D01*
X114855714Y-130976666D02*
X115331904Y-130976666D01*
X114760476Y-131262380D02*
X115093809Y-130262380D01*
X115427142Y-131262380D01*
X115950952Y-130262380D02*
X116046190Y-130262380D01*
X116141428Y-130310000D01*
X116189047Y-130357619D01*
X116236666Y-130452857D01*
X116284285Y-130643333D01*
X116284285Y-130881428D01*
X116236666Y-131071904D01*
X116189047Y-131167142D01*
X116141428Y-131214761D01*
X116046190Y-131262380D01*
X115950952Y-131262380D01*
X115855714Y-131214761D01*
X115808095Y-131167142D01*
X115760476Y-131071904D01*
X115712857Y-130881428D01*
X115712857Y-130643333D01*
X115760476Y-130452857D01*
X115808095Y-130357619D01*
X115855714Y-130310000D01*
X115950952Y-130262380D01*
X127571904Y-58205714D02*
X126810000Y-58491428D01*
X127571904Y-58777142D01*
X128048095Y-58491428D02*
X128810000Y-58491428D01*
X129286190Y-58348571D02*
X129619523Y-58348571D01*
X129762380Y-58872380D02*
X129286190Y-58872380D01*
X129286190Y-57872380D01*
X129762380Y-57872380D01*
X130190952Y-58348571D02*
X130524285Y-58348571D01*
X130667142Y-58872380D02*
X130190952Y-58872380D01*
X130190952Y-57872380D01*
X130667142Y-57872380D01*
X131095714Y-58872380D02*
X131095714Y-57872380D01*
X131476666Y-57872380D01*
X131571904Y-57920000D01*
X131619523Y-57967619D01*
X131667142Y-58062857D01*
X131667142Y-58205714D01*
X131619523Y-58300952D01*
X131571904Y-58348571D01*
X131476666Y-58396190D01*
X131095714Y-58396190D01*
X132667142Y-58872380D02*
X132333809Y-58396190D01*
X132095714Y-58872380D02*
X132095714Y-57872380D01*
X132476666Y-57872380D01*
X132571904Y-57920000D01*
X132619523Y-57967619D01*
X132667142Y-58062857D01*
X132667142Y-58205714D01*
X132619523Y-58300952D01*
X132571904Y-58348571D01*
X132476666Y-58396190D01*
X132095714Y-58396190D01*
X133286190Y-57872380D02*
X133476666Y-57872380D01*
X133571904Y-57920000D01*
X133667142Y-58015238D01*
X133714761Y-58205714D01*
X133714761Y-58539047D01*
X133667142Y-58729523D01*
X133571904Y-58824761D01*
X133476666Y-58872380D01*
X133286190Y-58872380D01*
X133190952Y-58824761D01*
X133095714Y-58729523D01*
X133048095Y-58539047D01*
X133048095Y-58205714D01*
X133095714Y-58015238D01*
X133190952Y-57920000D01*
X133286190Y-57872380D01*
X134143333Y-58872380D02*
X134143333Y-57872380D01*
X134476666Y-58586666D01*
X134810000Y-57872380D01*
X134810000Y-58872380D01*
X104671904Y-133802380D02*
X104671904Y-132802380D01*
X104910000Y-132802380D01*
X105052857Y-132850000D01*
X105148095Y-132945238D01*
X105195714Y-133040476D01*
X105243333Y-133230952D01*
X105243333Y-133373809D01*
X105195714Y-133564285D01*
X105148095Y-133659523D01*
X105052857Y-133754761D01*
X104910000Y-133802380D01*
X104671904Y-133802380D01*
X105624285Y-132897619D02*
X105671904Y-132850000D01*
X105767142Y-132802380D01*
X106005238Y-132802380D01*
X106100476Y-132850000D01*
X106148095Y-132897619D01*
X106195714Y-132992857D01*
X106195714Y-133088095D01*
X106148095Y-133230952D01*
X105576666Y-133802380D01*
X106195714Y-133802380D01*
X114831904Y-133802380D02*
X114831904Y-132802380D01*
X115070000Y-132802380D01*
X115212857Y-132850000D01*
X115308095Y-132945238D01*
X115355714Y-133040476D01*
X115403333Y-133230952D01*
X115403333Y-133373809D01*
X115355714Y-133564285D01*
X115308095Y-133659523D01*
X115212857Y-133754761D01*
X115070000Y-133802380D01*
X114831904Y-133802380D01*
X116022380Y-132802380D02*
X116117619Y-132802380D01*
X116212857Y-132850000D01*
X116260476Y-132897619D01*
X116308095Y-132992857D01*
X116355714Y-133183333D01*
X116355714Y-133421428D01*
X116308095Y-133611904D01*
X116260476Y-133707142D01*
X116212857Y-133754761D01*
X116117619Y-133802380D01*
X116022380Y-133802380D01*
X115927142Y-133754761D01*
X115879523Y-133707142D01*
X115831904Y-133611904D01*
X115784285Y-133421428D01*
X115784285Y-133183333D01*
X115831904Y-132992857D01*
X115879523Y-132897619D01*
X115927142Y-132850000D01*
X116022380Y-132802380D01*
X94511904Y-133802380D02*
X94511904Y-132802380D01*
X94750000Y-132802380D01*
X94892857Y-132850000D01*
X94988095Y-132945238D01*
X95035714Y-133040476D01*
X95083333Y-133230952D01*
X95083333Y-133373809D01*
X95035714Y-133564285D01*
X94988095Y-133659523D01*
X94892857Y-133754761D01*
X94750000Y-133802380D01*
X94511904Y-133802380D01*
X95940476Y-133135714D02*
X95940476Y-133802380D01*
X95702380Y-132754761D02*
X95464285Y-133469047D01*
X96083333Y-133469047D01*
X57451904Y-91606666D02*
X57928095Y-91606666D01*
X57356666Y-91892380D02*
X57690000Y-90892380D01*
X58023333Y-91892380D01*
X58785238Y-91225714D02*
X58785238Y-91892380D01*
X58547142Y-90844761D02*
X58309047Y-91559047D01*
X58928095Y-91559047D01*
X59309047Y-91511428D02*
X60070952Y-91511428D01*
X60499523Y-91606666D02*
X60975714Y-91606666D01*
X60404285Y-91892380D02*
X60737619Y-90892380D01*
X61070952Y-91892380D01*
X61309047Y-90892380D02*
X61975714Y-90892380D01*
X61547142Y-91892380D01*
X79295714Y-130976666D02*
X79771904Y-130976666D01*
X79200476Y-131262380D02*
X79533809Y-130262380D01*
X79867142Y-131262380D01*
X80105238Y-130262380D02*
X80771904Y-130262380D01*
X80343333Y-131262380D01*
X82756666Y-91892380D02*
X82756666Y-90892380D01*
X82994761Y-90892380D01*
X83137619Y-90940000D01*
X83232857Y-91035238D01*
X83280476Y-91130476D01*
X83328095Y-91320952D01*
X83328095Y-91463809D01*
X83280476Y-91654285D01*
X83232857Y-91749523D01*
X83137619Y-91844761D01*
X82994761Y-91892380D01*
X82756666Y-91892380D01*
X84185238Y-90892380D02*
X83994761Y-90892380D01*
X83899523Y-90940000D01*
X83851904Y-90987619D01*
X83756666Y-91130476D01*
X83709047Y-91320952D01*
X83709047Y-91701904D01*
X83756666Y-91797142D01*
X83804285Y-91844761D01*
X83899523Y-91892380D01*
X84090000Y-91892380D01*
X84185238Y-91844761D01*
X84232857Y-91797142D01*
X84280476Y-91701904D01*
X84280476Y-91463809D01*
X84232857Y-91368571D01*
X84185238Y-91320952D01*
X84090000Y-91273333D01*
X83899523Y-91273333D01*
X83804285Y-91320952D01*
X83756666Y-91368571D01*
X83709047Y-91463809D01*
X84709047Y-91511428D02*
X85470952Y-91511428D01*
X85947142Y-91892380D02*
X85947142Y-90892380D01*
X86185238Y-90892380D01*
X86328095Y-90940000D01*
X86423333Y-91035238D01*
X86470952Y-91130476D01*
X86518571Y-91320952D01*
X86518571Y-91463809D01*
X86470952Y-91654285D01*
X86423333Y-91749523D01*
X86328095Y-91844761D01*
X86185238Y-91892380D01*
X85947142Y-91892380D01*
X86851904Y-90892380D02*
X87518571Y-90892380D01*
X87090000Y-91892380D01*
X63579523Y-130976666D02*
X64055714Y-130976666D01*
X63484285Y-131262380D02*
X63817619Y-130262380D01*
X64150952Y-131262380D01*
X65008095Y-131262380D02*
X64436666Y-131262380D01*
X64722380Y-131262380D02*
X64722380Y-130262380D01*
X64627142Y-130405238D01*
X64531904Y-130500476D01*
X64436666Y-130548095D01*
X65627142Y-130262380D02*
X65722380Y-130262380D01*
X65817619Y-130310000D01*
X65865238Y-130357619D01*
X65912857Y-130452857D01*
X65960476Y-130643333D01*
X65960476Y-130881428D01*
X65912857Y-131071904D01*
X65865238Y-131167142D01*
X65817619Y-131214761D01*
X65722380Y-131262380D01*
X65627142Y-131262380D01*
X65531904Y-131214761D01*
X65484285Y-131167142D01*
X65436666Y-131071904D01*
X65389047Y-130881428D01*
X65389047Y-130643333D01*
X65436666Y-130452857D01*
X65484285Y-130357619D01*
X65531904Y-130310000D01*
X65627142Y-130262380D01*
X56975714Y-103036666D02*
X57451904Y-103036666D01*
X56880476Y-103322380D02*
X57213809Y-102322380D01*
X57547142Y-103322380D01*
X58023333Y-102750952D02*
X57928095Y-102703333D01*
X57880476Y-102655714D01*
X57832857Y-102560476D01*
X57832857Y-102512857D01*
X57880476Y-102417619D01*
X57928095Y-102370000D01*
X58023333Y-102322380D01*
X58213809Y-102322380D01*
X58309047Y-102370000D01*
X58356666Y-102417619D01*
X58404285Y-102512857D01*
X58404285Y-102560476D01*
X58356666Y-102655714D01*
X58309047Y-102703333D01*
X58213809Y-102750952D01*
X58023333Y-102750952D01*
X57928095Y-102798571D01*
X57880476Y-102846190D01*
X57832857Y-102941428D01*
X57832857Y-103131904D01*
X57880476Y-103227142D01*
X57928095Y-103274761D01*
X58023333Y-103322380D01*
X58213809Y-103322380D01*
X58309047Y-103274761D01*
X58356666Y-103227142D01*
X58404285Y-103131904D01*
X58404285Y-102941428D01*
X58356666Y-102846190D01*
X58309047Y-102798571D01*
X58213809Y-102750952D01*
X58832857Y-102941428D02*
X59594761Y-102941428D01*
X60023333Y-103036666D02*
X60499523Y-103036666D01*
X59928095Y-103322380D02*
X60261428Y-102322380D01*
X60594761Y-103322380D01*
X61451904Y-103322380D02*
X60880476Y-103322380D01*
X61166190Y-103322380D02*
X61166190Y-102322380D01*
X61070952Y-102465238D01*
X60975714Y-102560476D01*
X60880476Y-102608095D01*
X62404285Y-103322380D02*
X61832857Y-103322380D01*
X62118571Y-103322380D02*
X62118571Y-102322380D01*
X62023333Y-102465238D01*
X61928095Y-102560476D01*
X61832857Y-102608095D01*
X120467619Y-137612380D02*
X120467619Y-136612380D01*
X120705714Y-136612380D01*
X120848571Y-136660000D01*
X120943809Y-136755238D01*
X120991428Y-136850476D01*
X121039047Y-137040952D01*
X121039047Y-137183809D01*
X120991428Y-137374285D01*
X120943809Y-137469523D01*
X120848571Y-137564761D01*
X120705714Y-137612380D01*
X120467619Y-137612380D01*
X121896190Y-137612380D02*
X121896190Y-137088571D01*
X121848571Y-136993333D01*
X121753333Y-136945714D01*
X121562857Y-136945714D01*
X121467619Y-136993333D01*
X121896190Y-137564761D02*
X121800952Y-137612380D01*
X121562857Y-137612380D01*
X121467619Y-137564761D01*
X121420000Y-137469523D01*
X121420000Y-137374285D01*
X121467619Y-137279047D01*
X121562857Y-137231428D01*
X121800952Y-137231428D01*
X121896190Y-137183809D01*
X122229523Y-136945714D02*
X122610476Y-136945714D01*
X122372380Y-136612380D02*
X122372380Y-137469523D01*
X122420000Y-137564761D01*
X122515238Y-137612380D01*
X122610476Y-137612380D01*
X123372380Y-137612380D02*
X123372380Y-137088571D01*
X123324761Y-136993333D01*
X123229523Y-136945714D01*
X123039047Y-136945714D01*
X122943809Y-136993333D01*
X123372380Y-137564761D02*
X123277142Y-137612380D01*
X123039047Y-137612380D01*
X122943809Y-137564761D01*
X122896190Y-137469523D01*
X122896190Y-137374285D01*
X122943809Y-137279047D01*
X123039047Y-137231428D01*
X123277142Y-137231428D01*
X123372380Y-137183809D01*
X73620476Y-62682380D02*
X73620476Y-61682380D01*
X73953809Y-62396666D01*
X74287142Y-61682380D01*
X74287142Y-62682380D01*
X74715714Y-62634761D02*
X74858571Y-62682380D01*
X75096666Y-62682380D01*
X75191904Y-62634761D01*
X75239523Y-62587142D01*
X75287142Y-62491904D01*
X75287142Y-62396666D01*
X75239523Y-62301428D01*
X75191904Y-62253809D01*
X75096666Y-62206190D01*
X74906190Y-62158571D01*
X74810952Y-62110952D01*
X74763333Y-62063333D01*
X74715714Y-61968095D01*
X74715714Y-61872857D01*
X74763333Y-61777619D01*
X74810952Y-61730000D01*
X74906190Y-61682380D01*
X75144285Y-61682380D01*
X75287142Y-61730000D01*
X76049047Y-62158571D02*
X76191904Y-62206190D01*
X76239523Y-62253809D01*
X76287142Y-62349047D01*
X76287142Y-62491904D01*
X76239523Y-62587142D01*
X76191904Y-62634761D01*
X76096666Y-62682380D01*
X75715714Y-62682380D01*
X75715714Y-61682380D01*
X76049047Y-61682380D01*
X76144285Y-61730000D01*
X76191904Y-61777619D01*
X76239523Y-61872857D01*
X76239523Y-61968095D01*
X76191904Y-62063333D01*
X76144285Y-62110952D01*
X76049047Y-62158571D01*
X75715714Y-62158571D01*
X130969047Y-132802380D02*
X130969047Y-133611904D01*
X131016666Y-133707142D01*
X131064285Y-133754761D01*
X131159523Y-133802380D01*
X131350000Y-133802380D01*
X131445238Y-133754761D01*
X131492857Y-133707142D01*
X131540476Y-133611904D01*
X131540476Y-132802380D01*
X131969047Y-133754761D02*
X132111904Y-133802380D01*
X132350000Y-133802380D01*
X132445238Y-133754761D01*
X132492857Y-133707142D01*
X132540476Y-133611904D01*
X132540476Y-133516666D01*
X132492857Y-133421428D01*
X132445238Y-133373809D01*
X132350000Y-133326190D01*
X132159523Y-133278571D01*
X132064285Y-133230952D01*
X132016666Y-133183333D01*
X131969047Y-133088095D01*
X131969047Y-132992857D01*
X132016666Y-132897619D01*
X132064285Y-132850000D01*
X132159523Y-132802380D01*
X132397619Y-132802380D01*
X132540476Y-132850000D01*
X133302380Y-133278571D02*
X133445238Y-133326190D01*
X133492857Y-133373809D01*
X133540476Y-133469047D01*
X133540476Y-133611904D01*
X133492857Y-133707142D01*
X133445238Y-133754761D01*
X133350000Y-133802380D01*
X132969047Y-133802380D01*
X132969047Y-132802380D01*
X133302380Y-132802380D01*
X133397619Y-132850000D01*
X133445238Y-132897619D01*
X133492857Y-132992857D01*
X133492857Y-133088095D01*
X133445238Y-133183333D01*
X133397619Y-133230952D01*
X133302380Y-133278571D01*
X132969047Y-133278571D01*
X133969047Y-133421428D02*
X134730952Y-133421428D01*
X135778571Y-133707142D02*
X135730952Y-133754761D01*
X135588095Y-133802380D01*
X135492857Y-133802380D01*
X135350000Y-133754761D01*
X135254761Y-133659523D01*
X135207142Y-133564285D01*
X135159523Y-133373809D01*
X135159523Y-133230952D01*
X135207142Y-133040476D01*
X135254761Y-132945238D01*
X135350000Y-132850000D01*
X135492857Y-132802380D01*
X135588095Y-132802380D01*
X135730952Y-132850000D01*
X135778571Y-132897619D01*
X104695714Y-130976666D02*
X105171904Y-130976666D01*
X104600476Y-131262380D02*
X104933809Y-130262380D01*
X105267142Y-131262380D01*
X105552857Y-130357619D02*
X105600476Y-130310000D01*
X105695714Y-130262380D01*
X105933809Y-130262380D01*
X106029047Y-130310000D01*
X106076666Y-130357619D01*
X106124285Y-130452857D01*
X106124285Y-130548095D01*
X106076666Y-130690952D01*
X105505238Y-131262380D01*
X106124285Y-131262380D01*
X79271904Y-133802380D02*
X79271904Y-132802380D01*
X79510000Y-132802380D01*
X79652857Y-132850000D01*
X79748095Y-132945238D01*
X79795714Y-133040476D01*
X79843333Y-133230952D01*
X79843333Y-133373809D01*
X79795714Y-133564285D01*
X79748095Y-133659523D01*
X79652857Y-133754761D01*
X79510000Y-133802380D01*
X79271904Y-133802380D01*
X80176666Y-132802380D02*
X80843333Y-132802380D01*
X80414761Y-133802380D01*
X46355238Y-136712142D02*
X46307619Y-136759761D01*
X46164761Y-136807380D01*
X46069523Y-136807380D01*
X45926666Y-136759761D01*
X45831428Y-136664523D01*
X45783809Y-136569285D01*
X45736190Y-136378809D01*
X45736190Y-136235952D01*
X45783809Y-136045476D01*
X45831428Y-135950238D01*
X45926666Y-135855000D01*
X46069523Y-135807380D01*
X46164761Y-135807380D01*
X46307619Y-135855000D01*
X46355238Y-135902619D01*
X46926666Y-136807380D02*
X46831428Y-136759761D01*
X46783809Y-136712142D01*
X46736190Y-136616904D01*
X46736190Y-136331190D01*
X46783809Y-136235952D01*
X46831428Y-136188333D01*
X46926666Y-136140714D01*
X47069523Y-136140714D01*
X47164761Y-136188333D01*
X47212380Y-136235952D01*
X47260000Y-136331190D01*
X47260000Y-136616904D01*
X47212380Y-136712142D01*
X47164761Y-136759761D01*
X47069523Y-136807380D01*
X46926666Y-136807380D01*
X47688571Y-136140714D02*
X47688571Y-136807380D01*
X47688571Y-136235952D02*
X47736190Y-136188333D01*
X47831428Y-136140714D01*
X47974285Y-136140714D01*
X48069523Y-136188333D01*
X48117142Y-136283571D01*
X48117142Y-136807380D01*
X48450476Y-136140714D02*
X48831428Y-136140714D01*
X48593333Y-135807380D02*
X48593333Y-136664523D01*
X48640952Y-136759761D01*
X48736190Y-136807380D01*
X48831428Y-136807380D01*
X49164761Y-136807380D02*
X49164761Y-136140714D01*
X49164761Y-136331190D02*
X49212380Y-136235952D01*
X49260000Y-136188333D01*
X49355238Y-136140714D01*
X49450476Y-136140714D01*
X49926666Y-136807380D02*
X49831428Y-136759761D01*
X49783809Y-136712142D01*
X49736190Y-136616904D01*
X49736190Y-136331190D01*
X49783809Y-136235952D01*
X49831428Y-136188333D01*
X49926666Y-136140714D01*
X50069523Y-136140714D01*
X50164761Y-136188333D01*
X50212380Y-136235952D01*
X50260000Y-136331190D01*
X50260000Y-136616904D01*
X50212380Y-136712142D01*
X50164761Y-136759761D01*
X50069523Y-136807380D01*
X49926666Y-136807380D01*
X50831428Y-136807380D02*
X50736190Y-136759761D01*
X50688571Y-136664523D01*
X50688571Y-135807380D01*
X45712380Y-138369761D02*
X45855238Y-138417380D01*
X46093333Y-138417380D01*
X46188571Y-138369761D01*
X46236190Y-138322142D01*
X46283809Y-138226904D01*
X46283809Y-138131666D01*
X46236190Y-138036428D01*
X46188571Y-137988809D01*
X46093333Y-137941190D01*
X45902857Y-137893571D01*
X45807619Y-137845952D01*
X45760000Y-137798333D01*
X45712380Y-137703095D01*
X45712380Y-137607857D01*
X45760000Y-137512619D01*
X45807619Y-137465000D01*
X45902857Y-137417380D01*
X46140952Y-137417380D01*
X46283809Y-137465000D01*
X46712380Y-138417380D02*
X46712380Y-137750714D01*
X46712380Y-137417380D02*
X46664761Y-137465000D01*
X46712380Y-137512619D01*
X46760000Y-137465000D01*
X46712380Y-137417380D01*
X46712380Y-137512619D01*
X47617142Y-137750714D02*
X47617142Y-138560238D01*
X47569523Y-138655476D01*
X47521904Y-138703095D01*
X47426666Y-138750714D01*
X47283809Y-138750714D01*
X47188571Y-138703095D01*
X47617142Y-138369761D02*
X47521904Y-138417380D01*
X47331428Y-138417380D01*
X47236190Y-138369761D01*
X47188571Y-138322142D01*
X47140952Y-138226904D01*
X47140952Y-137941190D01*
X47188571Y-137845952D01*
X47236190Y-137798333D01*
X47331428Y-137750714D01*
X47521904Y-137750714D01*
X47617142Y-137798333D01*
X48093333Y-137750714D02*
X48093333Y-138417380D01*
X48093333Y-137845952D02*
X48140952Y-137798333D01*
X48236190Y-137750714D01*
X48379047Y-137750714D01*
X48474285Y-137798333D01*
X48521904Y-137893571D01*
X48521904Y-138417380D01*
X49426666Y-138417380D02*
X49426666Y-137893571D01*
X49379047Y-137798333D01*
X49283809Y-137750714D01*
X49093333Y-137750714D01*
X48998095Y-137798333D01*
X49426666Y-138369761D02*
X49331428Y-138417380D01*
X49093333Y-138417380D01*
X48998095Y-138369761D01*
X48950476Y-138274523D01*
X48950476Y-138179285D01*
X48998095Y-138084047D01*
X49093333Y-138036428D01*
X49331428Y-138036428D01*
X49426666Y-137988809D01*
X50045714Y-138417380D02*
X49950476Y-138369761D01*
X49902857Y-138274523D01*
X49902857Y-137417380D01*
X50379047Y-138369761D02*
X50474285Y-138417380D01*
X50664761Y-138417380D01*
X50760000Y-138369761D01*
X50807619Y-138274523D01*
X50807619Y-138226904D01*
X50760000Y-138131666D01*
X50664761Y-138084047D01*
X50521904Y-138084047D01*
X50426666Y-138036428D01*
X50379047Y-137941190D01*
X50379047Y-137893571D01*
X50426666Y-137798333D01*
X50521904Y-137750714D01*
X50664761Y-137750714D01*
X50760000Y-137798333D01*
X68294761Y-97559761D02*
X68437619Y-97607380D01*
X68675714Y-97607380D01*
X68770952Y-97559761D01*
X68818571Y-97512142D01*
X68866190Y-97416904D01*
X68866190Y-97321666D01*
X68818571Y-97226428D01*
X68770952Y-97178809D01*
X68675714Y-97131190D01*
X68485238Y-97083571D01*
X68390000Y-97035952D01*
X68342380Y-96988333D01*
X68294761Y-96893095D01*
X68294761Y-96797857D01*
X68342380Y-96702619D01*
X68390000Y-96655000D01*
X68485238Y-96607380D01*
X68723333Y-96607380D01*
X68866190Y-96655000D01*
X69294761Y-97607380D02*
X69294761Y-96940714D01*
X69294761Y-96607380D02*
X69247142Y-96655000D01*
X69294761Y-96702619D01*
X69342380Y-96655000D01*
X69294761Y-96607380D01*
X69294761Y-96702619D01*
X70199523Y-96940714D02*
X70199523Y-97750238D01*
X70151904Y-97845476D01*
X70104285Y-97893095D01*
X70009047Y-97940714D01*
X69866190Y-97940714D01*
X69770952Y-97893095D01*
X70199523Y-97559761D02*
X70104285Y-97607380D01*
X69913809Y-97607380D01*
X69818571Y-97559761D01*
X69770952Y-97512142D01*
X69723333Y-97416904D01*
X69723333Y-97131190D01*
X69770952Y-97035952D01*
X69818571Y-96988333D01*
X69913809Y-96940714D01*
X70104285Y-96940714D01*
X70199523Y-96988333D01*
X70675714Y-96940714D02*
X70675714Y-97607380D01*
X70675714Y-97035952D02*
X70723333Y-96988333D01*
X70818571Y-96940714D01*
X70961428Y-96940714D01*
X71056666Y-96988333D01*
X71104285Y-97083571D01*
X71104285Y-97607380D01*
X72009047Y-97607380D02*
X72009047Y-97083571D01*
X71961428Y-96988333D01*
X71866190Y-96940714D01*
X71675714Y-96940714D01*
X71580476Y-96988333D01*
X72009047Y-97559761D02*
X71913809Y-97607380D01*
X71675714Y-97607380D01*
X71580476Y-97559761D01*
X71532857Y-97464523D01*
X71532857Y-97369285D01*
X71580476Y-97274047D01*
X71675714Y-97226428D01*
X71913809Y-97226428D01*
X72009047Y-97178809D01*
X72628095Y-97607380D02*
X72532857Y-97559761D01*
X72485238Y-97464523D01*
X72485238Y-96607380D01*
X73770952Y-97607380D02*
X73770952Y-96607380D01*
X74104285Y-97321666D01*
X74437619Y-96607380D01*
X74437619Y-97607380D01*
X74913809Y-96607380D02*
X74913809Y-97416904D01*
X74961428Y-97512142D01*
X75009047Y-97559761D01*
X75104285Y-97607380D01*
X75294761Y-97607380D01*
X75390000Y-97559761D01*
X75437619Y-97512142D01*
X75485238Y-97416904D01*
X75485238Y-96607380D01*
X75866190Y-96607380D02*
X76532857Y-97607380D01*
X76532857Y-96607380D02*
X75866190Y-97607380D01*
X89431904Y-133802380D02*
X89431904Y-132802380D01*
X89670000Y-132802380D01*
X89812857Y-132850000D01*
X89908095Y-132945238D01*
X89955714Y-133040476D01*
X90003333Y-133230952D01*
X90003333Y-133373809D01*
X89955714Y-133564285D01*
X89908095Y-133659523D01*
X89812857Y-133754761D01*
X89670000Y-133802380D01*
X89431904Y-133802380D01*
X90908095Y-132802380D02*
X90431904Y-132802380D01*
X90384285Y-133278571D01*
X90431904Y-133230952D01*
X90527142Y-133183333D01*
X90765238Y-133183333D01*
X90860476Y-133230952D01*
X90908095Y-133278571D01*
X90955714Y-133373809D01*
X90955714Y-133611904D01*
X90908095Y-133707142D01*
X90860476Y-133754761D01*
X90765238Y-133802380D01*
X90527142Y-133802380D01*
X90431904Y-133754761D01*
X90384285Y-133707142D01*
X119229523Y-127166666D02*
X119705714Y-127166666D01*
X119134285Y-127452380D02*
X119467619Y-126452380D01*
X119800952Y-127452380D01*
X120562857Y-127452380D02*
X120562857Y-126452380D01*
X120562857Y-127404761D02*
X120467619Y-127452380D01*
X120277142Y-127452380D01*
X120181904Y-127404761D01*
X120134285Y-127357142D01*
X120086666Y-127261904D01*
X120086666Y-126976190D01*
X120134285Y-126880952D01*
X120181904Y-126833333D01*
X120277142Y-126785714D01*
X120467619Y-126785714D01*
X120562857Y-126833333D01*
X121467619Y-127452380D02*
X121467619Y-126452380D01*
X121467619Y-127404761D02*
X121372380Y-127452380D01*
X121181904Y-127452380D01*
X121086666Y-127404761D01*
X121039047Y-127357142D01*
X120991428Y-127261904D01*
X120991428Y-126976190D01*
X121039047Y-126880952D01*
X121086666Y-126833333D01*
X121181904Y-126785714D01*
X121372380Y-126785714D01*
X121467619Y-126833333D01*
X121943809Y-127452380D02*
X121943809Y-126785714D01*
X121943809Y-126976190D02*
X121991428Y-126880952D01*
X122039047Y-126833333D01*
X122134285Y-126785714D01*
X122229523Y-126785714D01*
X122943809Y-127404761D02*
X122848571Y-127452380D01*
X122658095Y-127452380D01*
X122562857Y-127404761D01*
X122515238Y-127309523D01*
X122515238Y-126928571D01*
X122562857Y-126833333D01*
X122658095Y-126785714D01*
X122848571Y-126785714D01*
X122943809Y-126833333D01*
X122991428Y-126928571D01*
X122991428Y-127023809D01*
X122515238Y-127119047D01*
X123372380Y-127404761D02*
X123467619Y-127452380D01*
X123658095Y-127452380D01*
X123753333Y-127404761D01*
X123800952Y-127309523D01*
X123800952Y-127261904D01*
X123753333Y-127166666D01*
X123658095Y-127119047D01*
X123515238Y-127119047D01*
X123419999Y-127071428D01*
X123372380Y-126976190D01*
X123372380Y-126928571D01*
X123419999Y-126833333D01*
X123515238Y-126785714D01*
X123658095Y-126785714D01*
X123753333Y-126833333D01*
X124181904Y-127404761D02*
X124277142Y-127452380D01*
X124467619Y-127452380D01*
X124562857Y-127404761D01*
X124610476Y-127309523D01*
X124610476Y-127261904D01*
X124562857Y-127166666D01*
X124467619Y-127119047D01*
X124324761Y-127119047D01*
X124229523Y-127071428D01*
X124181904Y-126976190D01*
X124181904Y-126928571D01*
X124229523Y-126833333D01*
X124324761Y-126785714D01*
X124467619Y-126785714D01*
X124562857Y-126833333D01*
%TO.C,U1*%
X74242680Y-118110000D02*
X74480776Y-118110000D01*
X74385538Y-118348095D02*
X74480776Y-118110000D01*
X74385538Y-117871904D01*
X74671252Y-118252857D02*
X74480776Y-118110000D01*
X74671252Y-117967142D01*
X74242680Y-118110000D02*
X74480776Y-118110000D01*
X74385538Y-118348095D02*
X74480776Y-118110000D01*
X74385538Y-117871904D01*
X74671252Y-118252857D02*
X74480776Y-118110000D01*
X74671252Y-117967142D01*
%TO.C,U6*%
X74242680Y-95250000D02*
X74480776Y-95250000D01*
X74385538Y-95488095D02*
X74480776Y-95250000D01*
X74385538Y-95011904D01*
X74671252Y-95392857D02*
X74480776Y-95250000D01*
X74671252Y-95107142D01*
X74242680Y-95250000D02*
X74480776Y-95250000D01*
X74385538Y-95488095D02*
X74480776Y-95250000D01*
X74385538Y-95011904D01*
X74671252Y-95392857D02*
X74480776Y-95250000D01*
X74671252Y-95107142D01*
%TO.C,U4*%
X74242680Y-106680000D02*
X74480776Y-106680000D01*
X74385538Y-106918095D02*
X74480776Y-106680000D01*
X74385538Y-106441904D01*
X74671252Y-106822857D02*
X74480776Y-106680000D01*
X74671252Y-106537142D01*
X74242680Y-106680000D02*
X74480776Y-106680000D01*
X74385538Y-106918095D02*
X74480776Y-106680000D01*
X74385538Y-106441904D01*
X74671252Y-106822857D02*
X74480776Y-106680000D01*
X74671252Y-106537142D01*
D11*
%TO.C,R6*%
X95900000Y-122270000D02*
X92060000Y-122270000D01*
X95900000Y-124110000D02*
X92060000Y-124110000D01*
%TO.C,R12*%
X46340000Y-124110000D02*
X50180000Y-124110000D01*
X46340000Y-122270000D02*
X50180000Y-122270000D01*
%TO.C,R4*%
X111140000Y-124110000D02*
X107300000Y-124110000D01*
X111140000Y-122270000D02*
X107300000Y-122270000D01*
%TO.C,D18*%
X78450000Y-135924000D02*
X78450000Y-136080000D01*
X78450000Y-138240000D02*
X78450000Y-138396000D01*
X78969039Y-138240000D02*
G75*
G03*
X81051130Y-138239837I1040961J1080000D01*
G01*
X81682335Y-136081392D02*
G75*
G03*
X78450000Y-135924484I-1672335J-1078608D01*
G01*
X81051130Y-136080163D02*
G75*
G03*
X78969039Y-136080000I-1041130J-1079837D01*
G01*
X78450000Y-138395516D02*
G75*
G03*
X81682335Y-138238608I1560000J1235516D01*
G01*
%TO.C,D12*%
X63210000Y-128080000D02*
X63210000Y-128236000D01*
X63210000Y-125764000D02*
X63210000Y-125920000D01*
X63729039Y-128080000D02*
G75*
G03*
X65811130Y-128079837I1040961J1080000D01*
G01*
X63210000Y-128235516D02*
G75*
G03*
X66442335Y-128078608I1560000J1235516D01*
G01*
X65811130Y-125920163D02*
G75*
G03*
X63729039Y-125920000I-1041130J-1079837D01*
G01*
X66442335Y-125921392D02*
G75*
G03*
X63210000Y-125764484I-1672335J-1078608D01*
G01*
%TO.C,R5*%
X103520000Y-122270000D02*
X99680000Y-122270000D01*
X103520000Y-124110000D02*
X99680000Y-124110000D01*
%TO.C,R19*%
X71740000Y-134970000D02*
X75580000Y-134970000D01*
X71740000Y-136810000D02*
X75580000Y-136810000D01*
D12*
%TO.C,SW1*%
X131590000Y-105960000D02*
X131590000Y-117560000D01*
X127490000Y-117560000D02*
X127490000Y-105960000D01*
X127490000Y-105960000D02*
X131590000Y-105960000D01*
X131590000Y-117560000D02*
X127490000Y-117560000D01*
D13*
X129640000Y-118060000D02*
G75*
G03*
X129640000Y-118060000I-100000J0D01*
G01*
D14*
%TO.C,U1*%
X77836617Y-110871000D02*
X77103383Y-110871000D01*
X84723383Y-117729000D02*
X85456617Y-117729000D01*
X95059500Y-117729000D02*
X95059500Y-110871000D01*
X82916617Y-110871000D02*
X82183383Y-110871000D01*
X75120500Y-110871000D02*
X75120500Y-117729000D01*
X87263383Y-117729000D02*
X87996617Y-117729000D01*
X93076617Y-110871000D02*
X92343383Y-110871000D01*
X87996617Y-110871000D02*
X87263383Y-110871000D01*
X85456617Y-110871000D02*
X84723383Y-110871000D01*
X92343383Y-117729000D02*
X93076617Y-117729000D01*
X89803383Y-117729000D02*
X90536617Y-117729000D01*
X77180440Y-117729000D02*
X77836617Y-117729000D01*
X79643383Y-117729000D02*
X80376617Y-117729000D01*
X82183383Y-117729000D02*
X82916617Y-117729000D01*
X80376617Y-110871000D02*
X79643383Y-110871000D01*
X90536617Y-110871000D02*
X89803383Y-110871000D01*
%TO.C,U6*%
X93076617Y-88011000D02*
X92343383Y-88011000D01*
X79643383Y-94869000D02*
X80376617Y-94869000D01*
X90536617Y-88011000D02*
X89803383Y-88011000D01*
X87263383Y-94869000D02*
X87996617Y-94869000D01*
X85456617Y-88011000D02*
X84723383Y-88011000D01*
X82183383Y-94869000D02*
X82916617Y-94869000D01*
X84723383Y-94869000D02*
X85456617Y-94869000D01*
X87996617Y-88011000D02*
X87263383Y-88011000D01*
X92343383Y-94869000D02*
X93076617Y-94869000D01*
X77836617Y-88011000D02*
X77103383Y-88011000D01*
X75120500Y-88011000D02*
X75120500Y-94869000D01*
X82916617Y-88011000D02*
X82183383Y-88011000D01*
X77180440Y-94869000D02*
X77836617Y-94869000D01*
X95059500Y-94869000D02*
X95059500Y-88011000D01*
X89803383Y-94869000D02*
X90536617Y-94869000D01*
X80376617Y-88011000D02*
X79643383Y-88011000D01*
D11*
%TO.C,R9*%
X73040000Y-124110000D02*
X69200000Y-124110000D01*
X73040000Y-122270000D02*
X69200000Y-122270000D01*
%TO.C,D15*%
X58130000Y-138240000D02*
X58130000Y-138396000D01*
X58130000Y-135924000D02*
X58130000Y-136080000D01*
X58130000Y-138395516D02*
G75*
G03*
X61362335Y-138238608I1560000J1235516D01*
G01*
X60731130Y-136080163D02*
G75*
G03*
X58649039Y-136080000I-1041130J-1079837D01*
G01*
X58649039Y-138240000D02*
G75*
G03*
X60731130Y-138239837I1040961J1080000D01*
G01*
X61362335Y-136081392D02*
G75*
G03*
X58130000Y-135924484I-1672335J-1078608D01*
G01*
%TO.C,R14*%
X67660000Y-140350000D02*
X67660000Y-136510000D01*
X69500000Y-140350000D02*
X69500000Y-136510000D01*
%TO.C,R23*%
X86980000Y-140050000D02*
X90820000Y-140050000D01*
X86980000Y-141890000D02*
X90820000Y-141890000D01*
%TO.C,R26*%
X109840000Y-140050000D02*
X113680000Y-140050000D01*
X109840000Y-141890000D02*
X113680000Y-141890000D01*
D14*
%TO.C,U4*%
X89803383Y-106299000D02*
X90536617Y-106299000D01*
X87263383Y-106299000D02*
X87996617Y-106299000D01*
X95059500Y-106299000D02*
X95059500Y-99441000D01*
X92343383Y-106299000D02*
X93076617Y-106299000D01*
X90536617Y-99441000D02*
X89803383Y-99441000D01*
X84723383Y-106299000D02*
X85456617Y-106299000D01*
X93076617Y-99441000D02*
X92343383Y-99441000D01*
X77180440Y-106299000D02*
X77836617Y-106299000D01*
X85456617Y-99441000D02*
X84723383Y-99441000D01*
X82916617Y-99441000D02*
X82183383Y-99441000D01*
X75120500Y-99441000D02*
X75120500Y-106299000D01*
X79643383Y-106299000D02*
X80376617Y-106299000D01*
X82183383Y-106299000D02*
X82916617Y-106299000D01*
X77836617Y-99441000D02*
X77103383Y-99441000D01*
X87996617Y-99441000D02*
X87263383Y-99441000D01*
X80376617Y-99441000D02*
X79643383Y-99441000D01*
D11*
%TO.C,R22*%
X79360000Y-141890000D02*
X83200000Y-141890000D01*
X79360000Y-140050000D02*
X83200000Y-140050000D01*
%TO.C,R16*%
X65420000Y-140050000D02*
X61580000Y-140050000D01*
X65420000Y-141890000D02*
X61580000Y-141890000D01*
%TO.C,J4*%
X54995000Y-148190000D02*
X54995000Y-147840000D01*
X73685000Y-156820000D02*
X73685000Y-148190000D01*
X54842140Y-156820000D02*
X54842140Y-148190000D01*
X66065000Y-156820000D02*
X66065000Y-148190000D01*
X59355000Y-148190000D02*
X59355000Y-147780000D01*
X62615000Y-148190000D02*
X62615000Y-147780000D01*
X106705000Y-156820000D02*
X106705000Y-148190000D01*
X94915000Y-148190000D02*
X94915000Y-147780000D01*
X80395000Y-148190000D02*
X80395000Y-147780000D01*
X53305000Y-156820000D02*
X53305000Y-148190000D01*
X71145000Y-156820000D02*
X71145000Y-148190000D01*
X93095000Y-148190000D02*
X93095000Y-147780000D01*
X84755000Y-148190000D02*
X84755000Y-147780000D01*
X83845000Y-156820000D02*
X83845000Y-148190000D01*
X103255000Y-148190000D02*
X103255000Y-147780000D01*
X98175000Y-148190000D02*
X98175000Y-147780000D01*
X105795000Y-148190000D02*
X105795000Y-147780000D01*
X113415000Y-148190000D02*
X113415000Y-147780000D01*
X68605000Y-156820000D02*
X68605000Y-148190000D01*
X87295000Y-148190000D02*
X87295000Y-147780000D01*
X109245000Y-156820000D02*
X109245000Y-148190000D01*
X60075000Y-148190000D02*
X60075000Y-147780000D01*
X108335000Y-148190000D02*
X108335000Y-147780000D01*
X85475000Y-148190000D02*
X85475000Y-147780000D01*
X104165000Y-156820000D02*
X104165000Y-148190000D01*
X94005000Y-156820000D02*
X94005000Y-148190000D01*
X55786900Y-156820000D02*
X55786900Y-148190000D01*
X53425000Y-156820000D02*
X53425000Y-148190000D01*
X57535000Y-148190000D02*
X57535000Y-147780000D01*
X53305000Y-145620000D02*
X54635000Y-145620000D01*
X58445000Y-156820000D02*
X58445000Y-148190000D01*
X119465000Y-156820000D02*
X119465000Y-148190000D01*
X55550710Y-156820000D02*
X55550710Y-148190000D01*
X88015000Y-148190000D02*
X88015000Y-147780000D01*
X86385000Y-156820000D02*
X86385000Y-148190000D01*
X111785000Y-156820000D02*
X111785000Y-148190000D01*
X55668805Y-156820000D02*
X55668805Y-148190000D01*
X81305000Y-156820000D02*
X81305000Y-148190000D01*
X78765000Y-156820000D02*
X78765000Y-148190000D01*
X72055000Y-148190000D02*
X72055000Y-147780000D01*
X107615000Y-148190000D02*
X107615000Y-147780000D01*
X54487855Y-156820000D02*
X54487855Y-148190000D01*
X99085000Y-156820000D02*
X99085000Y-148190000D01*
X66975000Y-148190000D02*
X66975000Y-147780000D01*
X79675000Y-148190000D02*
X79675000Y-147780000D01*
X53305000Y-156820000D02*
X119465000Y-156820000D01*
X65155000Y-148190000D02*
X65155000Y-147780000D01*
X96545000Y-156820000D02*
X96545000Y-148190000D01*
X54960235Y-156820000D02*
X54960235Y-148190000D01*
X95635000Y-148190000D02*
X95635000Y-147780000D01*
X64435000Y-148190000D02*
X64435000Y-147780000D01*
X110875000Y-148190000D02*
X110875000Y-147780000D01*
X77135000Y-148190000D02*
X77135000Y-147780000D01*
X118495000Y-148190000D02*
X118495000Y-147780000D01*
X60985000Y-156820000D02*
X60985000Y-148190000D01*
X54133570Y-156820000D02*
X54133570Y-148190000D01*
X75315000Y-148190000D02*
X75315000Y-147780000D01*
X97455000Y-148190000D02*
X97455000Y-147780000D01*
X100715000Y-148190000D02*
X100715000Y-147780000D01*
X101625000Y-156820000D02*
X101625000Y-148190000D01*
X92375000Y-148190000D02*
X92375000Y-147780000D01*
X114325000Y-156820000D02*
X114325000Y-148190000D01*
X53661190Y-156820000D02*
X53661190Y-148190000D01*
X117775000Y-148190000D02*
X117775000Y-147780000D01*
X105075000Y-148190000D02*
X105075000Y-147780000D01*
X53305000Y-146730000D02*
X53305000Y-145620000D01*
X54015475Y-156820000D02*
X54015475Y-148190000D01*
X89835000Y-148190000D02*
X89835000Y-147780000D01*
X61895000Y-148190000D02*
X61895000Y-147780000D01*
X53897380Y-156820000D02*
X53897380Y-148190000D01*
X112695000Y-148190000D02*
X112695000Y-147780000D01*
X53305000Y-148190000D02*
X119465000Y-148190000D01*
X55078330Y-156820000D02*
X55078330Y-148190000D01*
X55432615Y-156820000D02*
X55432615Y-148190000D01*
X82935000Y-148190000D02*
X82935000Y-147780000D01*
X102535000Y-148190000D02*
X102535000Y-147780000D01*
X99995000Y-148190000D02*
X99995000Y-147780000D01*
X70235000Y-148190000D02*
X70235000Y-147780000D01*
X54275000Y-148190000D02*
X54275000Y-147840000D01*
X54251665Y-156820000D02*
X54251665Y-148190000D01*
X67695000Y-148190000D02*
X67695000Y-147780000D01*
X116865000Y-156820000D02*
X116865000Y-148190000D01*
X63525000Y-156820000D02*
X63525000Y-148190000D01*
X88925000Y-156820000D02*
X88925000Y-148190000D01*
X110155000Y-148190000D02*
X110155000Y-147780000D01*
X91465000Y-156820000D02*
X91465000Y-148190000D01*
X90555000Y-148190000D02*
X90555000Y-147780000D01*
X115955000Y-148190000D02*
X115955000Y-147780000D01*
X82215000Y-148190000D02*
X82215000Y-147780000D01*
X69515000Y-148190000D02*
X69515000Y-147780000D01*
X72775000Y-148190000D02*
X72775000Y-147780000D01*
X74595000Y-148190000D02*
X74595000Y-147780000D01*
X77855000Y-148190000D02*
X77855000Y-147780000D01*
X53543095Y-156820000D02*
X53543095Y-148190000D01*
X115235000Y-148190000D02*
X115235000Y-147780000D01*
X54605950Y-156820000D02*
X54605950Y-148190000D01*
X54724045Y-156820000D02*
X54724045Y-148190000D01*
X55905000Y-156820000D02*
X55905000Y-148190000D01*
X55314520Y-156820000D02*
X55314520Y-148190000D01*
X53779285Y-156820000D02*
X53779285Y-148190000D01*
X76225000Y-156820000D02*
X76225000Y-148190000D01*
X54369760Y-156820000D02*
X54369760Y-148190000D01*
X56815000Y-148190000D02*
X56815000Y-147780000D01*
X55196425Y-156820000D02*
X55196425Y-148190000D01*
%TO.C,D1*%
X133640000Y-136080000D02*
X133640000Y-135924000D01*
X133640000Y-138396000D02*
X133640000Y-138240000D01*
X131038870Y-138239837D02*
G75*
G03*
X133120961Y-138240000I1041130J1079837D01*
G01*
X130407665Y-138238608D02*
G75*
G03*
X133640000Y-138395516I1672335J1078608D01*
G01*
X133640000Y-135924484D02*
G75*
G03*
X130407665Y-136081392I-1560000J-1235516D01*
G01*
X133120961Y-136080000D02*
G75*
G03*
X131038870Y-136080163I-1040961J-1080000D01*
G01*
%TO.C,D10*%
X73370000Y-128080000D02*
X73370000Y-128236000D01*
X73370000Y-125764000D02*
X73370000Y-125920000D01*
X75971130Y-125920163D02*
G75*
G03*
X73889039Y-125920000I-1041130J-1079837D01*
G01*
X76602335Y-125921392D02*
G75*
G03*
X73370000Y-125764484I-1672335J-1078608D01*
G01*
X73370000Y-128235516D02*
G75*
G03*
X76602335Y-128078608I1560000J1235516D01*
G01*
X73889039Y-128080000D02*
G75*
G03*
X75971130Y-128079837I1040961J1080000D01*
G01*
%TO.C,D8*%
X83530000Y-125764000D02*
X83530000Y-125920000D01*
X83530000Y-128080000D02*
X83530000Y-128236000D01*
X86762335Y-125921392D02*
G75*
G03*
X83530000Y-125764484I-1672335J-1078608D01*
G01*
X83530000Y-128235516D02*
G75*
G03*
X86762335Y-128078608I1560000J1235516D01*
G01*
X86131130Y-125920163D02*
G75*
G03*
X84049039Y-125920000I-1041130J-1079837D01*
G01*
X84049039Y-128080000D02*
G75*
G03*
X86131130Y-128079837I1040961J1080000D01*
G01*
%TO.C,D24*%
X108930000Y-138240000D02*
X108930000Y-138396000D01*
X108930000Y-135924000D02*
X108930000Y-136080000D01*
X108930000Y-138395516D02*
G75*
G03*
X112162335Y-138238608I1560000J1235516D01*
G01*
X112162335Y-136081392D02*
G75*
G03*
X108930000Y-135924484I-1672335J-1078608D01*
G01*
X111531130Y-136080163D02*
G75*
G03*
X109449039Y-136080000I-1041130J-1079837D01*
G01*
X109449039Y-138240000D02*
G75*
G03*
X111531130Y-138239837I1040961J1080000D01*
G01*
%TO.C,J1*%
X37230000Y-84700000D02*
X37640000Y-84700000D01*
X28600000Y-64002380D02*
X37230000Y-64002380D01*
X37230000Y-80340000D02*
X37640000Y-80340000D01*
X28600000Y-64120475D02*
X37230000Y-64120475D01*
X37230000Y-99940000D02*
X37640000Y-99940000D01*
X28600000Y-78710000D02*
X37230000Y-78710000D01*
X37230000Y-90500000D02*
X37640000Y-90500000D01*
X28600000Y-63648095D02*
X37230000Y-63648095D01*
X28600000Y-64238570D02*
X37230000Y-64238570D01*
X28600000Y-126970000D02*
X37230000Y-126970000D01*
X37230000Y-70180000D02*
X37640000Y-70180000D01*
X28600000Y-114270000D02*
X37230000Y-114270000D01*
X28600000Y-64947140D02*
X37230000Y-64947140D01*
X37230000Y-120980000D02*
X37640000Y-120980000D01*
X28600000Y-99030000D02*
X37230000Y-99030000D01*
X37230000Y-75260000D02*
X37640000Y-75260000D01*
X28600000Y-129510000D02*
X37230000Y-129510000D01*
X37230000Y-72000000D02*
X37640000Y-72000000D01*
X37230000Y-120260000D02*
X37640000Y-120260000D01*
X39800000Y-63410000D02*
X39800000Y-64740000D01*
X28600000Y-88870000D02*
X37230000Y-88870000D01*
X28600000Y-109190000D02*
X37230000Y-109190000D01*
X28600000Y-68550000D02*
X37230000Y-68550000D01*
X37230000Y-77800000D02*
X37640000Y-77800000D01*
X28600000Y-65065235D02*
X37230000Y-65065235D01*
X37230000Y-130420000D02*
X37640000Y-130420000D01*
X28600000Y-65891900D02*
X37230000Y-65891900D01*
X37230000Y-64380000D02*
X37580000Y-64380000D01*
X28600000Y-119350000D02*
X37230000Y-119350000D01*
X37230000Y-105740000D02*
X37640000Y-105740000D01*
X37230000Y-67640000D02*
X37640000Y-67640000D01*
X28600000Y-124430000D02*
X37230000Y-124430000D01*
X37230000Y-127880000D02*
X37640000Y-127880000D01*
X28600000Y-64829045D02*
X37230000Y-64829045D01*
X28600000Y-104110000D02*
X37230000Y-104110000D01*
X37230000Y-102480000D02*
X37640000Y-102480000D01*
X37230000Y-125340000D02*
X37640000Y-125340000D01*
X37230000Y-112640000D02*
X37640000Y-112640000D01*
X37230000Y-107560000D02*
X37640000Y-107560000D01*
X37230000Y-65100000D02*
X37580000Y-65100000D01*
X28600000Y-83790000D02*
X37230000Y-83790000D01*
X28600000Y-63884285D02*
X37230000Y-63884285D01*
X28600000Y-81250000D02*
X37230000Y-81250000D01*
X28600000Y-86330000D02*
X37230000Y-86330000D01*
X37230000Y-126060000D02*
X37640000Y-126060000D01*
X37230000Y-72720000D02*
X37640000Y-72720000D01*
X37230000Y-92320000D02*
X37640000Y-92320000D01*
X37230000Y-110820000D02*
X37640000Y-110820000D01*
X37230000Y-123520000D02*
X37640000Y-123520000D01*
X37230000Y-128600000D02*
X37640000Y-128600000D01*
X37230000Y-131140000D02*
X37640000Y-131140000D01*
X37230000Y-63410000D02*
X37230000Y-132110000D01*
X37230000Y-79620000D02*
X37640000Y-79620000D01*
X28600000Y-96490000D02*
X37230000Y-96490000D01*
X37230000Y-110100000D02*
X37640000Y-110100000D01*
X37230000Y-66920000D02*
X37640000Y-66920000D01*
X28600000Y-121890000D02*
X37230000Y-121890000D01*
X37230000Y-82160000D02*
X37640000Y-82160000D01*
X28600000Y-91410000D02*
X37230000Y-91410000D01*
X37230000Y-94860000D02*
X37640000Y-94860000D01*
X28600000Y-65537615D02*
X37230000Y-65537615D01*
X37230000Y-98120000D02*
X37640000Y-98120000D01*
X37230000Y-100660000D02*
X37640000Y-100660000D01*
X37230000Y-77080000D02*
X37640000Y-77080000D01*
X28600000Y-64710950D02*
X37230000Y-64710950D01*
X28600000Y-64356665D02*
X37230000Y-64356665D01*
X37230000Y-93040000D02*
X37640000Y-93040000D01*
X37230000Y-87960000D02*
X37640000Y-87960000D01*
X28600000Y-63766190D02*
X37230000Y-63766190D01*
X28600000Y-111730000D02*
X37230000Y-111730000D01*
X28600000Y-101570000D02*
X37230000Y-101570000D01*
X28600000Y-65773805D02*
X37230000Y-65773805D01*
X28600000Y-76170000D02*
X37230000Y-76170000D01*
X28600000Y-66010000D02*
X37230000Y-66010000D01*
X37230000Y-108280000D02*
X37640000Y-108280000D01*
X28600000Y-65301425D02*
X37230000Y-65301425D01*
X37230000Y-87240000D02*
X37640000Y-87240000D01*
X28600000Y-64592855D02*
X37230000Y-64592855D01*
X37230000Y-122800000D02*
X37640000Y-122800000D01*
X37230000Y-89780000D02*
X37640000Y-89780000D01*
X37230000Y-85420000D02*
X37640000Y-85420000D01*
X28600000Y-93950000D02*
X37230000Y-93950000D01*
X37230000Y-103200000D02*
X37640000Y-103200000D01*
X37230000Y-118440000D02*
X37640000Y-118440000D01*
X37230000Y-113360000D02*
X37640000Y-113360000D01*
X28600000Y-116810000D02*
X37230000Y-116810000D01*
X37230000Y-97400000D02*
X37640000Y-97400000D01*
X37230000Y-117720000D02*
X37640000Y-117720000D01*
X37230000Y-115180000D02*
X37640000Y-115180000D01*
X37230000Y-69460000D02*
X37640000Y-69460000D01*
X28600000Y-63410000D02*
X28600000Y-132110000D01*
X28600000Y-106650000D02*
X37230000Y-106650000D01*
X28600000Y-64474760D02*
X37230000Y-64474760D01*
X37230000Y-82880000D02*
X37640000Y-82880000D01*
X37230000Y-95580000D02*
X37640000Y-95580000D01*
X28600000Y-65655710D02*
X37230000Y-65655710D01*
X28600000Y-63530000D02*
X37230000Y-63530000D01*
X37230000Y-115900000D02*
X37640000Y-115900000D01*
X38690000Y-63410000D02*
X39800000Y-63410000D01*
X28600000Y-63410000D02*
X37230000Y-63410000D01*
X28600000Y-73630000D02*
X37230000Y-73630000D01*
X28600000Y-65419520D02*
X37230000Y-65419520D01*
X37230000Y-74540000D02*
X37640000Y-74540000D01*
X28600000Y-132110000D02*
X37230000Y-132110000D01*
X28600000Y-71090000D02*
X37230000Y-71090000D01*
X28600000Y-65183330D02*
X37230000Y-65183330D01*
X37230000Y-105020000D02*
X37640000Y-105020000D01*
D12*
%TO.C,U3*%
X105064500Y-115316000D02*
X118780500Y-115316000D01*
X105064500Y-64040000D02*
X118780500Y-64040000D01*
D13*
X103133750Y-66040000D02*
G75*
G03*
X103133750Y-66040000I-100000J0D01*
G01*
D11*
%TO.C,D25*%
X114010000Y-138240000D02*
X114010000Y-138396000D01*
X114010000Y-135924000D02*
X114010000Y-136080000D01*
X116611130Y-136080163D02*
G75*
G03*
X114529039Y-136080000I-1041130J-1079837D01*
G01*
X114010000Y-138395516D02*
G75*
G03*
X117242335Y-138238608I1560000J1235516D01*
G01*
X114529039Y-138240000D02*
G75*
G03*
X116611130Y-138239837I1040961J1080000D01*
G01*
X117242335Y-136081392D02*
G75*
G03*
X114010000Y-135924484I-1672335J-1078608D01*
G01*
%TO.C,R1*%
X130160000Y-141890000D02*
X134000000Y-141890000D01*
X130160000Y-140050000D02*
X134000000Y-140050000D01*
%TO.C,R21*%
X71740000Y-140050000D02*
X75580000Y-140050000D01*
X71740000Y-141890000D02*
X75580000Y-141890000D01*
%TO.C,J3*%
X135224525Y-42570000D02*
X135224525Y-51200000D01*
X134752145Y-42570000D02*
X134752145Y-51200000D01*
X131705000Y-51200000D02*
X131705000Y-51610000D01*
X129165000Y-51200000D02*
X129165000Y-51610000D01*
X134043575Y-42570000D02*
X134043575Y-51200000D01*
X134397860Y-42570000D02*
X134397860Y-51200000D01*
X113015000Y-42570000D02*
X113015000Y-51200000D01*
X135935000Y-52660000D02*
X135935000Y-53770000D01*
X114645000Y-51200000D02*
X114645000Y-51610000D01*
X135935000Y-53770000D02*
X134605000Y-53770000D01*
X134245000Y-51200000D02*
X134245000Y-51550000D01*
X134870240Y-42570000D02*
X134870240Y-51200000D01*
X128255000Y-42570000D02*
X128255000Y-51200000D01*
X102795000Y-42570000D02*
X102795000Y-51200000D01*
X135935000Y-42570000D02*
X102795000Y-42570000D01*
X124085000Y-51200000D02*
X124085000Y-51610000D01*
X103765000Y-51200000D02*
X103765000Y-51610000D01*
X110475000Y-42570000D02*
X110475000Y-51200000D01*
X134279765Y-42570000D02*
X134279765Y-51200000D01*
X118095000Y-42570000D02*
X118095000Y-51200000D01*
X113925000Y-51200000D02*
X113925000Y-51610000D01*
X132425000Y-51200000D02*
X132425000Y-51610000D01*
X120635000Y-42570000D02*
X120635000Y-51200000D01*
X106305000Y-51200000D02*
X106305000Y-51610000D01*
X135578810Y-42570000D02*
X135578810Y-51200000D01*
X135696905Y-42570000D02*
X135696905Y-51200000D01*
X109565000Y-51200000D02*
X109565000Y-51610000D01*
X119005000Y-51200000D02*
X119005000Y-51610000D01*
X134515955Y-42570000D02*
X134515955Y-51200000D01*
X134988335Y-42570000D02*
X134988335Y-51200000D01*
X133571195Y-42570000D02*
X133571195Y-51200000D01*
X133689290Y-42570000D02*
X133689290Y-51200000D01*
X129885000Y-51200000D02*
X129885000Y-51610000D01*
X130795000Y-42570000D02*
X130795000Y-51200000D01*
X121545000Y-51200000D02*
X121545000Y-51610000D01*
X126625000Y-51200000D02*
X126625000Y-51610000D01*
X133807385Y-42570000D02*
X133807385Y-51200000D01*
X135935000Y-51200000D02*
X102795000Y-51200000D01*
X107025000Y-51200000D02*
X107025000Y-51610000D01*
X107935000Y-42570000D02*
X107935000Y-51200000D01*
X134634050Y-42570000D02*
X134634050Y-51200000D01*
X135815000Y-42570000D02*
X135815000Y-51200000D01*
X125715000Y-42570000D02*
X125715000Y-51200000D01*
X133925480Y-42570000D02*
X133925480Y-51200000D01*
X116465000Y-51200000D02*
X116465000Y-51610000D01*
X127345000Y-51200000D02*
X127345000Y-51610000D01*
X135935000Y-42570000D02*
X135935000Y-51200000D01*
X124805000Y-51200000D02*
X124805000Y-51610000D01*
X104485000Y-51200000D02*
X104485000Y-51610000D01*
X123175000Y-42570000D02*
X123175000Y-51200000D01*
X111385000Y-51200000D02*
X111385000Y-51610000D01*
X108845000Y-51200000D02*
X108845000Y-51610000D01*
X115555000Y-42570000D02*
X115555000Y-51200000D01*
X135460715Y-42570000D02*
X135460715Y-51200000D01*
X112105000Y-51200000D02*
X112105000Y-51610000D01*
X134161670Y-42570000D02*
X134161670Y-51200000D01*
X119725000Y-51200000D02*
X119725000Y-51610000D01*
X122265000Y-51200000D02*
X122265000Y-51610000D01*
X105395000Y-42570000D02*
X105395000Y-51200000D01*
X133453100Y-42570000D02*
X133453100Y-51200000D01*
X134965000Y-51200000D02*
X134965000Y-51550000D01*
X135342620Y-42570000D02*
X135342620Y-51200000D01*
X133335000Y-42570000D02*
X133335000Y-51200000D01*
X117185000Y-51200000D02*
X117185000Y-51610000D01*
X135106430Y-42570000D02*
X135106430Y-51200000D01*
%TO.C,D3*%
X108930000Y-125764000D02*
X108930000Y-125920000D01*
X108930000Y-128080000D02*
X108930000Y-128236000D01*
X108930000Y-128235516D02*
G75*
G03*
X112162335Y-128078608I1560000J1235516D01*
G01*
X111531130Y-125920163D02*
G75*
G03*
X109449039Y-125920000I-1041130J-1079837D01*
G01*
X109449039Y-128080000D02*
G75*
G03*
X111531130Y-128079837I1040961J1080000D01*
G01*
X112162335Y-125921392D02*
G75*
G03*
X108930000Y-125764484I-1672335J-1078608D01*
G01*
%TO.C,D16*%
X53050000Y-128080000D02*
X53050000Y-128236000D01*
X53050000Y-125764000D02*
X53050000Y-125920000D01*
X53569039Y-128080000D02*
G75*
G03*
X55651130Y-128079837I1040961J1080000D01*
G01*
X55651130Y-125920163D02*
G75*
G03*
X53569039Y-125920000I-1041130J-1079837D01*
G01*
X56282335Y-125921392D02*
G75*
G03*
X53050000Y-125764484I-1672335J-1078608D01*
G01*
X53050000Y-128235516D02*
G75*
G03*
X56282335Y-128078608I1560000J1235516D01*
G01*
%TO.C,D2*%
X114010000Y-125764000D02*
X114010000Y-125920000D01*
X114010000Y-128080000D02*
X114010000Y-128236000D01*
X114010000Y-128235516D02*
G75*
G03*
X117242335Y-128078608I1560000J1235516D01*
G01*
X117242335Y-125921392D02*
G75*
G03*
X114010000Y-125764484I-1672335J-1078608D01*
G01*
X116611130Y-125920163D02*
G75*
G03*
X114529039Y-125920000I-1041130J-1079837D01*
G01*
X114529039Y-128080000D02*
G75*
G03*
X116611130Y-128079837I1040961J1080000D01*
G01*
%TO.C,R15*%
X46340000Y-127350000D02*
X50180000Y-127350000D01*
X46340000Y-129190000D02*
X50180000Y-129190000D01*
%TO.C,R17*%
X46340000Y-131730000D02*
X50180000Y-131730000D01*
X46340000Y-129890000D02*
X50180000Y-129890000D01*
D12*
%TO.C,U8*%
X49915000Y-117475000D02*
X49915000Y-111125000D01*
X69465000Y-117475000D02*
X69465000Y-111125000D01*
D13*
X50900000Y-119335000D02*
G75*
G03*
X50900000Y-119335000I-100000J0D01*
G01*
D11*
%TO.C,D14*%
X58130000Y-128080000D02*
X58130000Y-128236000D01*
X58130000Y-125764000D02*
X58130000Y-125920000D01*
X61362335Y-125921392D02*
G75*
G03*
X58130000Y-125764484I-1672335J-1078608D01*
G01*
X58649039Y-128080000D02*
G75*
G03*
X60731130Y-128079837I1040961J1080000D01*
G01*
X58130000Y-128235516D02*
G75*
G03*
X61362335Y-128078608I1560000J1235516D01*
G01*
X60731130Y-125920163D02*
G75*
G03*
X58649039Y-125920000I-1041130J-1079837D01*
G01*
%TO.C,R25*%
X102220000Y-140050000D02*
X106060000Y-140050000D01*
X102220000Y-141890000D02*
X106060000Y-141890000D01*
%TO.C,D21*%
X93690000Y-135924000D02*
X93690000Y-136080000D01*
X93690000Y-138240000D02*
X93690000Y-138396000D01*
X94209039Y-138240000D02*
G75*
G03*
X96291130Y-138239837I1040961J1080000D01*
G01*
X96922335Y-136081392D02*
G75*
G03*
X93690000Y-135924484I-1672335J-1078608D01*
G01*
X96291130Y-136080163D02*
G75*
G03*
X94209039Y-136080000I-1041130J-1079837D01*
G01*
X93690000Y-138395516D02*
G75*
G03*
X96922335Y-138238608I1560000J1235516D01*
G01*
%TO.C,R24*%
X94600000Y-140050000D02*
X98440000Y-140050000D01*
X94600000Y-141890000D02*
X98440000Y-141890000D01*
%TO.C,D20*%
X88610000Y-135924000D02*
X88610000Y-136080000D01*
X88610000Y-138240000D02*
X88610000Y-138396000D01*
X91211130Y-136080163D02*
G75*
G03*
X89129039Y-136080000I-1041130J-1079837D01*
G01*
X88610000Y-138395516D02*
G75*
G03*
X91842335Y-138238608I1560000J1235516D01*
G01*
X91842335Y-136081392D02*
G75*
G03*
X88610000Y-135924484I-1672335J-1078608D01*
G01*
X89129039Y-138240000D02*
G75*
G03*
X91211130Y-138239837I1040961J1080000D01*
G01*
D12*
%TO.C,U2*%
X51435000Y-63885000D02*
X57785000Y-63885000D01*
X51435000Y-83435000D02*
X57785000Y-83435000D01*
D13*
X49675000Y-64770000D02*
G75*
G03*
X49675000Y-64770000I-100000J0D01*
G01*
D11*
%TO.C,D22*%
X98770000Y-135924000D02*
X98770000Y-136080000D01*
X98770000Y-138240000D02*
X98770000Y-138396000D01*
X102002335Y-136081392D02*
G75*
G03*
X98770000Y-135924484I-1672335J-1078608D01*
G01*
X98770000Y-138395516D02*
G75*
G03*
X102002335Y-138238608I1560000J1235516D01*
G01*
X101371130Y-136080163D02*
G75*
G03*
X99289039Y-136080000I-1041130J-1079837D01*
G01*
X99289039Y-138240000D02*
G75*
G03*
X101371130Y-138239837I1040961J1080000D01*
G01*
%TO.C,D11*%
X68290000Y-128080000D02*
X68290000Y-128236000D01*
X68290000Y-125764000D02*
X68290000Y-125920000D01*
X68809039Y-128080000D02*
G75*
G03*
X70891130Y-128079837I1040961J1080000D01*
G01*
X70891130Y-125920163D02*
G75*
G03*
X68809039Y-125920000I-1041130J-1079837D01*
G01*
X68290000Y-128235516D02*
G75*
G03*
X71522335Y-128078608I1560000J1235516D01*
G01*
X71522335Y-125921392D02*
G75*
G03*
X68290000Y-125764484I-1672335J-1078608D01*
G01*
%TO.C,D6*%
X93690000Y-125764000D02*
X93690000Y-125920000D01*
X93690000Y-128080000D02*
X93690000Y-128236000D01*
X93690000Y-128235516D02*
G75*
G03*
X96922335Y-128078608I1560000J1235516D01*
G01*
X96922335Y-125921392D02*
G75*
G03*
X93690000Y-125764484I-1672335J-1078608D01*
G01*
X94209039Y-128080000D02*
G75*
G03*
X96291130Y-128079837I1040961J1080000D01*
G01*
X96291130Y-125920163D02*
G75*
G03*
X94209039Y-125920000I-1041130J-1079837D01*
G01*
%TO.C,U7*%
X73187200Y-67948900D02*
X76870200Y-67948900D01*
X68570000Y-63927500D02*
X81290000Y-63927500D01*
X77048000Y-73511500D02*
X77048000Y-78413700D01*
X73009400Y-73511500D02*
X73009400Y-78413700D01*
X77048000Y-67974300D02*
X77048000Y-73333700D01*
X81290000Y-63927500D02*
X81290000Y-83147500D01*
X73009400Y-67974300D02*
X73009400Y-73333700D01*
X68570000Y-83147500D02*
X81290000Y-83147500D01*
X73187200Y-73409900D02*
X76870200Y-73409900D01*
X68570000Y-63927500D02*
X68570000Y-83147500D01*
X73187200Y-78413700D02*
X76870200Y-78413700D01*
X69050000Y-83497500D02*
X70660000Y-83497500D01*
X78392467Y-78599967D02*
G75*
G03*
X78392467Y-78599967I-472467J0D01*
G01*
%TO.C,R8*%
X80660000Y-124110000D02*
X76820000Y-124110000D01*
X80660000Y-122270000D02*
X76820000Y-122270000D01*
%TO.C,R7*%
X88280000Y-124110000D02*
X84440000Y-124110000D01*
X88280000Y-122270000D02*
X84440000Y-122270000D01*
%TO.C,U10*%
X83810000Y-63927500D02*
X83810000Y-83147500D01*
X83810000Y-63927500D02*
X96530000Y-63927500D01*
X88427200Y-67948900D02*
X92110200Y-67948900D01*
X96530000Y-63927500D02*
X96530000Y-83147500D01*
X88249400Y-73511500D02*
X88249400Y-78413700D01*
X92288000Y-67974300D02*
X92288000Y-73333700D01*
X88249400Y-67974300D02*
X88249400Y-73333700D01*
X88427200Y-73409900D02*
X92110200Y-73409900D01*
X88427200Y-78413700D02*
X92110200Y-78413700D01*
X83810000Y-83147500D02*
X96530000Y-83147500D01*
X92288000Y-73511500D02*
X92288000Y-78413700D01*
X84290000Y-83497500D02*
X85900000Y-83497500D01*
X93632467Y-78599967D02*
G75*
G03*
X93632467Y-78599967I-472467J0D01*
G01*
%TO.C,D7*%
X88610000Y-125764000D02*
X88610000Y-125920000D01*
X88610000Y-128080000D02*
X88610000Y-128236000D01*
X91211130Y-125920163D02*
G75*
G03*
X89129039Y-125920000I-1041130J-1079837D01*
G01*
X91842335Y-125921392D02*
G75*
G03*
X88610000Y-125764484I-1672335J-1078608D01*
G01*
X88610000Y-128235516D02*
G75*
G03*
X91842335Y-128078608I1560000J1235516D01*
G01*
X89129039Y-128080000D02*
G75*
G03*
X91211130Y-128079837I1040961J1080000D01*
G01*
%TO.C,D4*%
X103850000Y-128080000D02*
X103850000Y-128236000D01*
X103850000Y-125764000D02*
X103850000Y-125920000D01*
X106451130Y-125920163D02*
G75*
G03*
X104369039Y-125920000I-1041130J-1079837D01*
G01*
X107082335Y-125921392D02*
G75*
G03*
X103850000Y-125764484I-1672335J-1078608D01*
G01*
X103850000Y-128235516D02*
G75*
G03*
X107082335Y-128078608I1560000J1235516D01*
G01*
X104369039Y-128080000D02*
G75*
G03*
X106451130Y-128079837I1040961J1080000D01*
G01*
%TO.C,R11*%
X53960000Y-122270000D02*
X57800000Y-122270000D01*
X53960000Y-124110000D02*
X57800000Y-124110000D01*
D12*
%TO.C,U5*%
X69465000Y-94615000D02*
X69465000Y-88265000D01*
X49915000Y-94615000D02*
X49915000Y-88265000D01*
D13*
X50900000Y-96475000D02*
G75*
G03*
X50900000Y-96475000I-100000J0D01*
G01*
D11*
%TO.C,D23*%
X103850000Y-135924000D02*
X103850000Y-136080000D01*
X103850000Y-138240000D02*
X103850000Y-138396000D01*
X106451130Y-136080163D02*
G75*
G03*
X104369039Y-136080000I-1041130J-1079837D01*
G01*
X104369039Y-138240000D02*
G75*
G03*
X106451130Y-138239837I1040961J1080000D01*
G01*
X107082335Y-136081392D02*
G75*
G03*
X103850000Y-135924484I-1672335J-1078608D01*
G01*
X103850000Y-138395516D02*
G75*
G03*
X107082335Y-138238608I1560000J1235516D01*
G01*
%TO.C,R18*%
X57800000Y-140050000D02*
X53960000Y-140050000D01*
X57800000Y-141890000D02*
X53960000Y-141890000D01*
%TO.C,J5*%
X142850000Y-82580000D02*
X134220000Y-82580000D01*
X134220000Y-96910000D02*
X133870000Y-96910000D01*
X142850000Y-95398100D02*
X134220000Y-95398100D01*
X134220000Y-71510000D02*
X133810000Y-71510000D01*
X134220000Y-97880000D02*
X134220000Y-67280000D01*
X134220000Y-79130000D02*
X133810000Y-79130000D01*
X134220000Y-84210000D02*
X133810000Y-84210000D01*
X134220000Y-93650000D02*
X133810000Y-93650000D01*
X134220000Y-78410000D02*
X133810000Y-78410000D01*
X142850000Y-95516195D02*
X134220000Y-95516195D01*
X134220000Y-94370000D02*
X133810000Y-94370000D01*
X142850000Y-96342860D02*
X134220000Y-96342860D01*
X142850000Y-96697145D02*
X134220000Y-96697145D01*
X134220000Y-80950000D02*
X133810000Y-80950000D01*
X142850000Y-96815240D02*
X134220000Y-96815240D01*
X142850000Y-72420000D02*
X134220000Y-72420000D01*
X134220000Y-83490000D02*
X133810000Y-83490000D01*
X142850000Y-97523810D02*
X134220000Y-97523810D01*
X134220000Y-70790000D02*
X133810000Y-70790000D01*
X142850000Y-90200000D02*
X134220000Y-90200000D01*
X142850000Y-97641905D02*
X134220000Y-97641905D01*
X134220000Y-76590000D02*
X133810000Y-76590000D01*
X142850000Y-95752385D02*
X134220000Y-95752385D01*
X134220000Y-68970000D02*
X133810000Y-68970000D01*
X142850000Y-96579050D02*
X134220000Y-96579050D01*
X142850000Y-92740000D02*
X134220000Y-92740000D01*
X134220000Y-68250000D02*
X133810000Y-68250000D01*
X132760000Y-97880000D02*
X131650000Y-97880000D01*
X142850000Y-96933335D02*
X134220000Y-96933335D01*
X131650000Y-97880000D02*
X131650000Y-96550000D01*
X134220000Y-88570000D02*
X133810000Y-88570000D01*
X142850000Y-77500000D02*
X134220000Y-77500000D01*
X134220000Y-73330000D02*
X133810000Y-73330000D01*
X142850000Y-87660000D02*
X134220000Y-87660000D01*
X142850000Y-97760000D02*
X134220000Y-97760000D01*
X134220000Y-81670000D02*
X133810000Y-81670000D01*
X142850000Y-97880000D02*
X134220000Y-97880000D01*
X142850000Y-80040000D02*
X134220000Y-80040000D01*
X134220000Y-74050000D02*
X133810000Y-74050000D01*
X142850000Y-69880000D02*
X134220000Y-69880000D01*
X134220000Y-86030000D02*
X133810000Y-86030000D01*
X142850000Y-67280000D02*
X134220000Y-67280000D01*
X134220000Y-91110000D02*
X133810000Y-91110000D01*
X142850000Y-96460955D02*
X134220000Y-96460955D01*
X134220000Y-91830000D02*
X133810000Y-91830000D01*
X134220000Y-75870000D02*
X133810000Y-75870000D01*
X134220000Y-89290000D02*
X133810000Y-89290000D01*
X142850000Y-95634290D02*
X134220000Y-95634290D01*
X134220000Y-86750000D02*
X133810000Y-86750000D01*
X142850000Y-85120000D02*
X134220000Y-85120000D01*
X142850000Y-95280000D02*
X134220000Y-95280000D01*
X142850000Y-95870480D02*
X134220000Y-95870480D01*
X142850000Y-95988575D02*
X134220000Y-95988575D01*
X142850000Y-97880000D02*
X142850000Y-67280000D01*
X142850000Y-97051430D02*
X134220000Y-97051430D01*
X142850000Y-96106670D02*
X134220000Y-96106670D01*
X142850000Y-97169525D02*
X134220000Y-97169525D01*
X134220000Y-96190000D02*
X133870000Y-96190000D01*
X142850000Y-97405715D02*
X134220000Y-97405715D01*
X142850000Y-74960000D02*
X134220000Y-74960000D01*
X142850000Y-96224765D02*
X134220000Y-96224765D01*
X142850000Y-97287620D02*
X134220000Y-97287620D01*
D12*
%TO.C,J6*%
X132865000Y-122530000D02*
X134275000Y-122530000D01*
X132865000Y-131470000D02*
X134275000Y-131470000D01*
X138070000Y-122530000D02*
X136665000Y-122530000D01*
X138070000Y-131470000D02*
X136665000Y-131470000D01*
D11*
%TO.C,R20*%
X71740000Y-139350000D02*
X75580000Y-139350000D01*
X71740000Y-137510000D02*
X75580000Y-137510000D01*
%TO.C,D17*%
X53050000Y-138240000D02*
X53050000Y-138396000D01*
X53050000Y-135924000D02*
X53050000Y-136080000D01*
X55651130Y-136080163D02*
G75*
G03*
X53569039Y-136080000I-1041130J-1079837D01*
G01*
X53569039Y-138240000D02*
G75*
G03*
X55651130Y-138239837I1040961J1080000D01*
G01*
X53050000Y-138395516D02*
G75*
G03*
X56282335Y-138238608I1560000J1235516D01*
G01*
X56282335Y-136081392D02*
G75*
G03*
X53050000Y-135924484I-1672335J-1078608D01*
G01*
%TO.C,R10*%
X61580000Y-122270000D02*
X65420000Y-122270000D01*
X61580000Y-124110000D02*
X65420000Y-124110000D01*
%TO.C,J2*%
X64395000Y-51200000D02*
X64395000Y-51610000D01*
X70218335Y-42570000D02*
X70218335Y-51200000D01*
X67655000Y-51200000D02*
X67655000Y-51610000D01*
X69475000Y-51200000D02*
X69475000Y-51550000D01*
X48245000Y-42570000D02*
X48245000Y-51200000D01*
X71165000Y-51200000D02*
X38025000Y-51200000D01*
X71165000Y-42570000D02*
X38025000Y-42570000D01*
X60945000Y-42570000D02*
X60945000Y-51200000D01*
X60035000Y-51200000D02*
X60035000Y-51610000D01*
X68683100Y-42570000D02*
X68683100Y-51200000D01*
X38025000Y-42570000D02*
X38025000Y-51200000D01*
X38995000Y-51200000D02*
X38995000Y-51610000D01*
X62575000Y-51200000D02*
X62575000Y-51610000D01*
X69391670Y-42570000D02*
X69391670Y-51200000D01*
X66025000Y-42570000D02*
X66025000Y-51200000D01*
X50785000Y-42570000D02*
X50785000Y-51200000D01*
X71165000Y-52660000D02*
X71165000Y-53770000D01*
X69155480Y-42570000D02*
X69155480Y-51200000D01*
X70454525Y-42570000D02*
X70454525Y-51200000D01*
X43165000Y-42570000D02*
X43165000Y-51200000D01*
X45705000Y-42570000D02*
X45705000Y-51200000D01*
X54235000Y-51200000D02*
X54235000Y-51610000D01*
X57495000Y-51200000D02*
X57495000Y-51610000D01*
X68919290Y-42570000D02*
X68919290Y-51200000D01*
X69509765Y-42570000D02*
X69509765Y-51200000D01*
X70336430Y-42570000D02*
X70336430Y-51200000D01*
X55865000Y-42570000D02*
X55865000Y-51200000D01*
X69864050Y-42570000D02*
X69864050Y-51200000D01*
X65115000Y-51200000D02*
X65115000Y-51610000D01*
X68801195Y-42570000D02*
X68801195Y-51200000D01*
X71165000Y-42570000D02*
X71165000Y-51200000D01*
X70195000Y-51200000D02*
X70195000Y-51550000D01*
X51695000Y-51200000D02*
X51695000Y-51610000D01*
X44075000Y-51200000D02*
X44075000Y-51610000D01*
X70100240Y-42570000D02*
X70100240Y-51200000D01*
X58405000Y-42570000D02*
X58405000Y-51200000D01*
X44795000Y-51200000D02*
X44795000Y-51610000D01*
X71165000Y-53770000D02*
X69835000Y-53770000D01*
X54955000Y-51200000D02*
X54955000Y-51610000D01*
X47335000Y-51200000D02*
X47335000Y-51610000D01*
X40625000Y-42570000D02*
X40625000Y-51200000D01*
X69273575Y-42570000D02*
X69273575Y-51200000D01*
X69982145Y-42570000D02*
X69982145Y-51200000D01*
X53325000Y-42570000D02*
X53325000Y-51200000D01*
X41535000Y-51200000D02*
X41535000Y-51610000D01*
X49155000Y-51200000D02*
X49155000Y-51610000D01*
X70808810Y-42570000D02*
X70808810Y-51200000D01*
X69627860Y-42570000D02*
X69627860Y-51200000D01*
X70572620Y-42570000D02*
X70572620Y-51200000D01*
X39715000Y-51200000D02*
X39715000Y-51610000D01*
X56775000Y-51200000D02*
X56775000Y-51610000D01*
X61855000Y-51200000D02*
X61855000Y-51610000D01*
X69037385Y-42570000D02*
X69037385Y-51200000D01*
X52415000Y-51200000D02*
X52415000Y-51610000D01*
X46615000Y-51200000D02*
X46615000Y-51610000D01*
X71045000Y-42570000D02*
X71045000Y-51200000D01*
X68565000Y-42570000D02*
X68565000Y-51200000D01*
X70926905Y-42570000D02*
X70926905Y-51200000D01*
X49875000Y-51200000D02*
X49875000Y-51610000D01*
X69745955Y-42570000D02*
X69745955Y-51200000D01*
X66935000Y-51200000D02*
X66935000Y-51610000D01*
X59315000Y-51200000D02*
X59315000Y-51610000D01*
X70690715Y-42570000D02*
X70690715Y-51200000D01*
X42255000Y-51200000D02*
X42255000Y-51610000D01*
X63485000Y-42570000D02*
X63485000Y-51200000D01*
%TO.C,R3*%
X118760000Y-122270000D02*
X114920000Y-122270000D01*
X118760000Y-124110000D02*
X114920000Y-124110000D01*
%TO.C,D19*%
X83530000Y-135924000D02*
X83530000Y-136080000D01*
X83530000Y-138240000D02*
X83530000Y-138396000D01*
X86762335Y-136081392D02*
G75*
G03*
X83530000Y-135924484I-1672335J-1078608D01*
G01*
X86131130Y-136080163D02*
G75*
G03*
X84049039Y-136080000I-1041130J-1079837D01*
G01*
X83530000Y-138395516D02*
G75*
G03*
X86762335Y-138238608I1560000J1235516D01*
G01*
X84049039Y-138240000D02*
G75*
G03*
X86131130Y-138239837I1040961J1080000D01*
G01*
%TO.C,R2*%
X132430000Y-113680000D02*
X132430000Y-109840000D01*
X134270000Y-113680000D02*
X134270000Y-109840000D01*
%TO.C,R13*%
X46340000Y-124810000D02*
X50180000Y-124810000D01*
X46340000Y-126650000D02*
X50180000Y-126650000D01*
%TO.C,D13*%
X63210000Y-135924000D02*
X63210000Y-136080000D01*
X63210000Y-138240000D02*
X63210000Y-138396000D01*
X66442335Y-136081392D02*
G75*
G03*
X63210000Y-135924484I-1672335J-1078608D01*
G01*
X65811130Y-136080163D02*
G75*
G03*
X63729039Y-136080000I-1041130J-1079837D01*
G01*
X63729039Y-138240000D02*
G75*
G03*
X65811130Y-138239837I1040961J1080000D01*
G01*
X63210000Y-138395516D02*
G75*
G03*
X66442335Y-138238608I1560000J1235516D01*
G01*
%TO.C,D9*%
X78450000Y-125764000D02*
X78450000Y-125920000D01*
X78450000Y-128080000D02*
X78450000Y-128236000D01*
X81682335Y-125921392D02*
G75*
G03*
X78450000Y-125764484I-1672335J-1078608D01*
G01*
X78969039Y-128080000D02*
G75*
G03*
X81051130Y-128079837I1040961J1080000D01*
G01*
X81051130Y-125920163D02*
G75*
G03*
X78969039Y-125920000I-1041130J-1079837D01*
G01*
X78450000Y-128235516D02*
G75*
G03*
X81682335Y-128078608I1560000J1235516D01*
G01*
D12*
%TO.C,U9*%
X49915000Y-106045000D02*
X49915000Y-99695000D01*
X69465000Y-106045000D02*
X69465000Y-99695000D01*
D13*
X50900000Y-107905000D02*
G75*
G03*
X50900000Y-107905000I-100000J0D01*
G01*
D11*
%TO.C,D5*%
X98770000Y-125764000D02*
X98770000Y-125920000D01*
X98770000Y-128080000D02*
X98770000Y-128236000D01*
X98770000Y-128235516D02*
G75*
G03*
X102002335Y-128078608I1560000J1235516D01*
G01*
X102002335Y-125921392D02*
G75*
G03*
X98770000Y-125764484I-1672335J-1078608D01*
G01*
X101371130Y-125920163D02*
G75*
G03*
X99289039Y-125920000I-1041130J-1079837D01*
G01*
X99289039Y-128080000D02*
G75*
G03*
X101371130Y-128079837I1040961J1080000D01*
G01*
%TD*%
%LPC*%
D15*
%TO.C,R6*%
X96520000Y-123190000D03*
D16*
X91440000Y-123190000D03*
%TD*%
D15*
%TO.C,R12*%
X45720000Y-123190000D03*
D16*
X50800000Y-123190000D03*
%TD*%
D15*
%TO.C,R4*%
X111760000Y-123190000D03*
D16*
X106680000Y-123190000D03*
%TD*%
D17*
%TO.C,D18*%
X78740000Y-137160000D03*
D18*
X81280000Y-137160000D03*
%TD*%
D17*
%TO.C,D12*%
X63500000Y-127000000D03*
D18*
X66040000Y-127000000D03*
%TD*%
D15*
%TO.C,R5*%
X104140000Y-123190000D03*
D16*
X99060000Y-123190000D03*
%TD*%
D15*
%TO.C,R19*%
X71120000Y-135890000D03*
D16*
X76200000Y-135890000D03*
%TD*%
D19*
%TO.C,SW1*%
X129540000Y-114260000D03*
D20*
X129540000Y-111760000D03*
X129540000Y-109260000D03*
%TD*%
D21*
%TO.C,U1*%
X76200000Y-118110000D03*
D22*
X78740000Y-118110000D03*
X81280000Y-118110000D03*
X83820000Y-118110000D03*
X86360000Y-118110000D03*
X88900000Y-118110000D03*
X91440000Y-118110000D03*
X93980000Y-118110000D03*
X93980000Y-110490000D03*
X91440000Y-110490000D03*
X88900000Y-110490000D03*
X86360000Y-110490000D03*
X83820000Y-110490000D03*
X81280000Y-110490000D03*
X78740000Y-110490000D03*
X76200000Y-110490000D03*
%TD*%
D21*
%TO.C,U6*%
X76200000Y-95250000D03*
D22*
X78740000Y-95250000D03*
X81280000Y-95250000D03*
X83820000Y-95250000D03*
X86360000Y-95250000D03*
X88900000Y-95250000D03*
X91440000Y-95250000D03*
X93980000Y-95250000D03*
X93980000Y-87630000D03*
X91440000Y-87630000D03*
X88900000Y-87630000D03*
X86360000Y-87630000D03*
X83820000Y-87630000D03*
X81280000Y-87630000D03*
X78740000Y-87630000D03*
X76200000Y-87630000D03*
%TD*%
D15*
%TO.C,R9*%
X73660000Y-123190000D03*
D16*
X68580000Y-123190000D03*
%TD*%
D17*
%TO.C,D15*%
X58420000Y-137160000D03*
D18*
X60960000Y-137160000D03*
%TD*%
D15*
%TO.C,R14*%
X68580000Y-140970000D03*
D16*
X68580000Y-135890000D03*
%TD*%
D15*
%TO.C,R23*%
X86360000Y-140970000D03*
D16*
X91440000Y-140970000D03*
%TD*%
D15*
%TO.C,R26*%
X109220000Y-140970000D03*
D16*
X114300000Y-140970000D03*
%TD*%
D21*
%TO.C,U4*%
X76200000Y-106680000D03*
D22*
X78740000Y-106680000D03*
X81280000Y-106680000D03*
X83820000Y-106680000D03*
X86360000Y-106680000D03*
X88900000Y-106680000D03*
X91440000Y-106680000D03*
X93980000Y-106680000D03*
X93980000Y-99060000D03*
X91440000Y-99060000D03*
X88900000Y-99060000D03*
X86360000Y-99060000D03*
X83820000Y-99060000D03*
X81280000Y-99060000D03*
X78740000Y-99060000D03*
X76200000Y-99060000D03*
%TD*%
D15*
%TO.C,R22*%
X78740000Y-140970000D03*
D16*
X83820000Y-140970000D03*
%TD*%
D15*
%TO.C,R16*%
X66040000Y-140970000D03*
D16*
X60960000Y-140970000D03*
%TD*%
D23*
%TO.C,J4*%
X54635000Y-146730000D03*
D24*
X57175000Y-146730000D03*
X59715000Y-146730000D03*
X62255000Y-146730000D03*
X64795000Y-146730000D03*
X67335000Y-146730000D03*
X69875000Y-146730000D03*
X72415000Y-146730000D03*
X74955000Y-146730000D03*
X77495000Y-146730000D03*
X80035000Y-146730000D03*
X82575000Y-146730000D03*
X85115000Y-146730000D03*
X87655000Y-146730000D03*
X90195000Y-146730000D03*
X92735000Y-146730000D03*
X95275000Y-146730000D03*
X97815000Y-146730000D03*
X100355000Y-146730000D03*
X102895000Y-146730000D03*
X105435000Y-146730000D03*
X107975000Y-146730000D03*
X110515000Y-146730000D03*
X113055000Y-146730000D03*
X115595000Y-146730000D03*
X118135000Y-146730000D03*
%TD*%
D17*
%TO.C,D1*%
X133350000Y-137160000D03*
D18*
X130810000Y-137160000D03*
%TD*%
D17*
%TO.C,D10*%
X73660000Y-127000000D03*
D18*
X76200000Y-127000000D03*
%TD*%
D17*
%TO.C,D8*%
X83820000Y-127000000D03*
D18*
X86360000Y-127000000D03*
%TD*%
D17*
%TO.C,D24*%
X109220000Y-137160000D03*
D18*
X111760000Y-137160000D03*
%TD*%
D23*
%TO.C,J1*%
X38690000Y-64740000D03*
D24*
X38690000Y-67280000D03*
X38690000Y-69820000D03*
X38690000Y-72360000D03*
X38690000Y-74900000D03*
X38690000Y-77440000D03*
X38690000Y-79980000D03*
X38690000Y-82520000D03*
X38690000Y-85060000D03*
X38690000Y-87600000D03*
X38690000Y-90140000D03*
X38690000Y-92680000D03*
X38690000Y-95220000D03*
X38690000Y-97760000D03*
X38690000Y-100300000D03*
X38690000Y-102840000D03*
X38690000Y-105380000D03*
X38690000Y-107920000D03*
X38690000Y-110460000D03*
X38690000Y-113000000D03*
X38690000Y-115540000D03*
X38690000Y-118080000D03*
X38690000Y-120620000D03*
X38690000Y-123160000D03*
X38690000Y-125700000D03*
X38690000Y-128240000D03*
X38690000Y-130780000D03*
%TD*%
D25*
%TO.C,U3*%
X104151250Y-66040000D03*
D26*
X104151250Y-68580000D03*
X104143750Y-71120000D03*
X104143750Y-73660000D03*
X104143750Y-76200000D03*
X104143750Y-78740000D03*
X104143750Y-81280000D03*
X104143750Y-83820000D03*
X104143750Y-86360000D03*
X104143750Y-88900000D03*
X104143750Y-91440000D03*
X104143750Y-93980000D03*
X104143750Y-96520000D03*
X104151250Y-99060000D03*
X119701250Y-99060000D03*
X119701250Y-96520000D03*
X119701250Y-93980000D03*
X119701250Y-91440000D03*
X119701250Y-88900000D03*
X119701250Y-86360000D03*
X119701250Y-83820000D03*
X119701250Y-81280000D03*
X119701250Y-78740000D03*
X119701250Y-76200000D03*
X119701250Y-73660000D03*
X119701250Y-71120000D03*
X119701250Y-68580000D03*
X119701250Y-66040000D03*
X104151250Y-101600000D03*
X104151250Y-104140000D03*
X104151250Y-106680000D03*
X104151250Y-109220000D03*
X104151250Y-111760000D03*
X104151250Y-114300000D03*
X119701250Y-114300000D03*
X119701250Y-111760000D03*
X119701250Y-109220000D03*
X119701250Y-106680000D03*
X119701250Y-104140000D03*
X119701250Y-101600000D03*
%TD*%
D17*
%TO.C,D25*%
X114300000Y-137160000D03*
D18*
X116840000Y-137160000D03*
%TD*%
D15*
%TO.C,R1*%
X129540000Y-140970000D03*
D16*
X134620000Y-140970000D03*
%TD*%
D15*
%TO.C,R21*%
X71120000Y-140970000D03*
D16*
X76200000Y-140970000D03*
%TD*%
D23*
%TO.C,J3*%
X134605000Y-52660000D03*
D24*
X132065000Y-52660000D03*
X129525000Y-52660000D03*
X126985000Y-52660000D03*
X124445000Y-52660000D03*
X121905000Y-52660000D03*
X119365000Y-52660000D03*
X116825000Y-52660000D03*
X114285000Y-52660000D03*
X111745000Y-52660000D03*
X109205000Y-52660000D03*
X106665000Y-52660000D03*
X104125000Y-52660000D03*
%TD*%
D17*
%TO.C,D3*%
X109220000Y-127000000D03*
D18*
X111760000Y-127000000D03*
%TD*%
D17*
%TO.C,D16*%
X53340000Y-127000000D03*
D18*
X55880000Y-127000000D03*
%TD*%
D17*
%TO.C,D2*%
X114300000Y-127000000D03*
D18*
X116840000Y-127000000D03*
%TD*%
D15*
%TO.C,R15*%
X45720000Y-128270000D03*
D16*
X50800000Y-128270000D03*
%TD*%
D15*
%TO.C,R17*%
X45720000Y-130810000D03*
D16*
X50800000Y-130810000D03*
%TD*%
D27*
%TO.C,U8*%
X50800000Y-118270000D03*
D28*
X53340000Y-118270000D03*
X55880000Y-118270000D03*
X58420000Y-118270000D03*
X60960000Y-118270000D03*
X63500000Y-118270000D03*
X66040000Y-118270000D03*
X68580000Y-118270000D03*
X68580000Y-110330000D03*
X66040000Y-110330000D03*
X63500000Y-110330000D03*
X60960000Y-110330000D03*
X58420000Y-110330000D03*
X55880000Y-110330000D03*
X53340000Y-110330000D03*
X50800000Y-110330000D03*
%TD*%
D17*
%TO.C,D14*%
X58420000Y-127000000D03*
D18*
X60960000Y-127000000D03*
%TD*%
D15*
%TO.C,R25*%
X101600000Y-140970000D03*
D16*
X106680000Y-140970000D03*
%TD*%
D17*
%TO.C,D21*%
X93980000Y-137160000D03*
D18*
X96520000Y-137160000D03*
%TD*%
D15*
%TO.C,R24*%
X93980000Y-140970000D03*
D16*
X99060000Y-140970000D03*
%TD*%
D17*
%TO.C,D20*%
X88900000Y-137160000D03*
D18*
X91440000Y-137160000D03*
%TD*%
D29*
%TO.C,U2*%
X50640000Y-64770000D03*
D28*
X50640000Y-67310000D03*
X50640000Y-69850000D03*
X50640000Y-72390000D03*
X50640000Y-74930000D03*
X50640000Y-77470000D03*
X50640000Y-80010000D03*
X50640000Y-82550000D03*
X58580000Y-82550000D03*
X58580000Y-80010000D03*
X58580000Y-77470000D03*
X58580000Y-74930000D03*
X58580000Y-72390000D03*
X58580000Y-69850000D03*
X58580000Y-67310000D03*
X58580000Y-64770000D03*
%TD*%
D17*
%TO.C,D22*%
X99060000Y-137160000D03*
D18*
X101600000Y-137160000D03*
%TD*%
D17*
%TO.C,D11*%
X68580000Y-127000000D03*
D18*
X71120000Y-127000000D03*
%TD*%
D17*
%TO.C,D6*%
X93980000Y-127000000D03*
D18*
X96520000Y-127000000D03*
%TD*%
D30*
%TO.C,U7*%
X69850000Y-81157500D03*
D31*
X72390000Y-81157500D03*
X74930000Y-81157500D03*
X77470000Y-81157500D03*
X80010000Y-81157500D03*
X80010000Y-65917500D03*
X77470000Y-65917500D03*
X74930000Y-65917500D03*
X72390000Y-65917500D03*
X69850000Y-65917500D03*
%TD*%
D15*
%TO.C,R8*%
X81280000Y-123190000D03*
D16*
X76200000Y-123190000D03*
%TD*%
D15*
%TO.C,R7*%
X88900000Y-123190000D03*
D16*
X83820000Y-123190000D03*
%TD*%
D30*
%TO.C,U10*%
X85090000Y-81157500D03*
D31*
X87630000Y-81157500D03*
X90170000Y-81157500D03*
X92710000Y-81157500D03*
X95250000Y-81157500D03*
X95250000Y-65917500D03*
X92710000Y-65917500D03*
X90170000Y-65917500D03*
X87630000Y-65917500D03*
X85090000Y-65917500D03*
%TD*%
D17*
%TO.C,D7*%
X88900000Y-127000000D03*
D18*
X91440000Y-127000000D03*
%TD*%
D17*
%TO.C,D4*%
X104140000Y-127000000D03*
D18*
X106680000Y-127000000D03*
%TD*%
D15*
%TO.C,R11*%
X53340000Y-123190000D03*
D16*
X58420000Y-123190000D03*
%TD*%
D27*
%TO.C,U5*%
X50800000Y-95410000D03*
D28*
X53340000Y-95410000D03*
X55880000Y-95410000D03*
X58420000Y-95410000D03*
X60960000Y-95410000D03*
X63500000Y-95410000D03*
X66040000Y-95410000D03*
X68580000Y-95410000D03*
X68580000Y-87470000D03*
X66040000Y-87470000D03*
X63500000Y-87470000D03*
X60960000Y-87470000D03*
X58420000Y-87470000D03*
X55880000Y-87470000D03*
X53340000Y-87470000D03*
X50800000Y-87470000D03*
%TD*%
D17*
%TO.C,D23*%
X104140000Y-137160000D03*
D18*
X106680000Y-137160000D03*
%TD*%
D15*
%TO.C,R18*%
X58420000Y-140970000D03*
D16*
X53340000Y-140970000D03*
%TD*%
D23*
%TO.C,J5*%
X132760000Y-96550000D03*
D24*
X132760000Y-94010000D03*
X132760000Y-91470000D03*
X132760000Y-88930000D03*
X132760000Y-86390000D03*
X132760000Y-83850000D03*
X132760000Y-81310000D03*
X132760000Y-78770000D03*
X132760000Y-76230000D03*
X132760000Y-73690000D03*
X132760000Y-71150000D03*
X132760000Y-68610000D03*
%TD*%
D32*
%TO.C,J6*%
X131590000Y-127500000D03*
D33*
X131590000Y-125480000D03*
D34*
X131590000Y-124250000D03*
D32*
X131590000Y-126500000D03*
D33*
X131590000Y-128520000D03*
D34*
X131590000Y-129750000D03*
D35*
X131670000Y-131320000D03*
X131670000Y-122680000D03*
X135470000Y-131320000D03*
X135470000Y-122680000D03*
%TD*%
D15*
%TO.C,R20*%
X71120000Y-138430000D03*
D16*
X76200000Y-138430000D03*
%TD*%
D17*
%TO.C,D17*%
X53340000Y-137160000D03*
D18*
X55880000Y-137160000D03*
%TD*%
D15*
%TO.C,R10*%
X60960000Y-123190000D03*
D16*
X66040000Y-123190000D03*
%TD*%
D23*
%TO.C,J2*%
X69835000Y-52660000D03*
D24*
X67295000Y-52660000D03*
X64755000Y-52660000D03*
X62215000Y-52660000D03*
X59675000Y-52660000D03*
X57135000Y-52660000D03*
X54595000Y-52660000D03*
X52055000Y-52660000D03*
X49515000Y-52660000D03*
X46975000Y-52660000D03*
X44435000Y-52660000D03*
X41895000Y-52660000D03*
X39355000Y-52660000D03*
%TD*%
D15*
%TO.C,R3*%
X119380000Y-123190000D03*
D16*
X114300000Y-123190000D03*
%TD*%
D17*
%TO.C,D19*%
X83820000Y-137160000D03*
D18*
X86360000Y-137160000D03*
%TD*%
D15*
%TO.C,R2*%
X133350000Y-114300000D03*
D16*
X133350000Y-109220000D03*
%TD*%
D15*
%TO.C,R13*%
X45720000Y-125730000D03*
D16*
X50800000Y-125730000D03*
%TD*%
D17*
%TO.C,D13*%
X63500000Y-137160000D03*
D18*
X66040000Y-137160000D03*
%TD*%
D17*
%TO.C,D9*%
X78740000Y-127000000D03*
D18*
X81280000Y-127000000D03*
%TD*%
D27*
%TO.C,U9*%
X50800000Y-106840000D03*
D28*
X53340000Y-106840000D03*
X55880000Y-106840000D03*
X58420000Y-106840000D03*
X60960000Y-106840000D03*
X63500000Y-106840000D03*
X66040000Y-106840000D03*
X68580000Y-106840000D03*
X68580000Y-98900000D03*
X66040000Y-98900000D03*
X63500000Y-98900000D03*
X60960000Y-98900000D03*
X58420000Y-98900000D03*
X55880000Y-98900000D03*
X53340000Y-98900000D03*
X50800000Y-98900000D03*
%TD*%
D17*
%TO.C,D5*%
X99060000Y-127000000D03*
D18*
X101600000Y-127000000D03*
%TD*%
M02*
