%TF.GenerationSoftware,KiCad,Pcbnew,(6.0.9)*%
%TF.CreationDate,2025-06-05T13:51:01-04:00*%
%TF.ProjectId,ShiftRegisterPrototypeV2,53686966-7452-4656-9769-737465725072,V2*%
%TF.SameCoordinates,Original*%
%TF.FileFunction,Copper,L1,Top*%
%TF.FilePolarity,Positive*%
%FSLAX46Y46*%
G04 Gerber Fmt 4.6, Leading zero omitted, Abs format (unit mm)*
G04 Created by KiCad (PCBNEW (6.0.9)) date 2025-06-05 13:51:01*
%MOMM*%
%LPD*%
G01*
G04 APERTURE LIST*
%TA.AperFunction,ComponentPad*%
%ADD10R,1.170000X1.170000*%
%TD*%
%TA.AperFunction,ComponentPad*%
%ADD11C,1.170000*%
%TD*%
%TA.AperFunction,ComponentPad*%
%ADD12R,1.050000X1.500000*%
%TD*%
%TA.AperFunction,ComponentPad*%
%ADD13O,1.050000X1.500000*%
%TD*%
%TA.AperFunction,ComponentPad*%
%ADD14R,1.800000X1.800000*%
%TD*%
%TA.AperFunction,ComponentPad*%
%ADD15C,1.800000*%
%TD*%
%TA.AperFunction,ComponentPad*%
%ADD16C,1.400000*%
%TD*%
%TA.AperFunction,ComponentPad*%
%ADD17O,1.400000X1.400000*%
%TD*%
%TA.AperFunction,ComponentPad*%
%ADD18R,1.130000X1.130000*%
%TD*%
%TA.AperFunction,ComponentPad*%
%ADD19C,1.130000*%
%TD*%
%TA.AperFunction,ComponentPad*%
%ADD20R,1.700000X1.700000*%
%TD*%
%TA.AperFunction,ComponentPad*%
%ADD21O,1.700000X1.700000*%
%TD*%
%TA.AperFunction,ViaPad*%
%ADD22C,0.800000*%
%TD*%
%TA.AperFunction,Conductor*%
%ADD23C,0.250000*%
%TD*%
G04 APERTURE END LIST*
D10*
%TO.P,U3,1,Q1*%
%TO.N,Net-(D6-Pad2)*%
X157955000Y-56700000D03*
D11*
%TO.P,U3,2,~{Q1}*%
%TO.N,unconnected-(U3-Pad2)*%
X157955000Y-59240000D03*
%TO.P,U3,3,CLOCK1*%
%TO.N,clk*%
X157955000Y-61780000D03*
%TO.P,U3,4,RESET1*%
%TO.N,gnd*%
X157955000Y-64320000D03*
%TO.P,U3,5,D1*%
%TO.N,Net-(D4-Pad2)*%
X157955000Y-66860000D03*
%TO.P,U3,6,SET1*%
%TO.N,gnd*%
X157955000Y-69400000D03*
%TO.P,U3,7,VSS*%
X157955000Y-71940000D03*
%TO.P,U3,8,SET2*%
X165895000Y-71940000D03*
%TO.P,U3,9,D2*%
%TO.N,A11*%
X165895000Y-69400000D03*
%TO.P,U3,10,RESET2*%
%TO.N,gnd*%
X165895000Y-66860000D03*
%TO.P,U3,11,CLOCK2*%
%TO.N,clk*%
X165895000Y-64320000D03*
%TO.P,U3,12,~{Q2}*%
%TO.N,unconnected-(U3-Pad12)*%
X165895000Y-61780000D03*
%TO.P,U3,13,Q2*%
%TO.N,A10*%
X165895000Y-59240000D03*
%TO.P,U3,14,VDD*%
%TO.N,pwr*%
X165895000Y-56700000D03*
%TD*%
D10*
%TO.P,U12,1,Q1*%
%TO.N,/data2_ff*%
X141445000Y-111310000D03*
D11*
%TO.P,U12,2,~{Q1}*%
%TO.N,unconnected-(U12-Pad2)*%
X141445000Y-113850000D03*
%TO.P,U12,3,CLOCK1*%
%TO.N,clk*%
X141445000Y-116390000D03*
%TO.P,U12,4,RESET1*%
%TO.N,gnd*%
X141445000Y-118930000D03*
%TO.P,U12,5,D1*%
%TO.N,d2*%
X141445000Y-121470000D03*
%TO.P,U12,6,SET1*%
%TO.N,gnd*%
X141445000Y-124010000D03*
%TO.P,U12,7,VSS*%
X141445000Y-126550000D03*
%TO.P,U12,8,SET2*%
X149385000Y-126550000D03*
%TO.P,U12,9,D2*%
%TO.N,A3*%
X149385000Y-124010000D03*
%TO.P,U12,10,RESET2*%
%TO.N,gnd*%
X149385000Y-121470000D03*
%TO.P,U12,11,CLOCK2*%
%TO.N,clk*%
X149385000Y-118930000D03*
%TO.P,U12,12,~{Q2}*%
%TO.N,unconnected-(U12-Pad12)*%
X149385000Y-116390000D03*
%TO.P,U12,13,Q2*%
%TO.N,A2*%
X149385000Y-113850000D03*
%TO.P,U12,14,VDD*%
%TO.N,pwr*%
X149385000Y-111310000D03*
%TD*%
D12*
%TO.P,Q7,1,C*%
%TO.N,D1*%
X112395000Y-73210000D03*
D13*
%TO.P,Q7,2,B*%
%TO.N,load*%
X113665000Y-73210000D03*
%TO.P,Q7,3,E*%
%TO.N,/data1_ff*%
X114935000Y-73210000D03*
%TD*%
D10*
%TO.P,U4,1,Q1*%
%TO.N,Net-(D8-Pad2)*%
X174465000Y-56700000D03*
D11*
%TO.P,U4,2,~{Q1}*%
%TO.N,unconnected-(U4-Pad2)*%
X174465000Y-59240000D03*
%TO.P,U4,3,CLOCK1*%
%TO.N,clk*%
X174465000Y-61780000D03*
%TO.P,U4,4,RESET1*%
%TO.N,gnd*%
X174465000Y-64320000D03*
%TO.P,U4,5,D1*%
%TO.N,Net-(D6-Pad2)*%
X174465000Y-66860000D03*
%TO.P,U4,6,SET1*%
%TO.N,gnd*%
X174465000Y-69400000D03*
%TO.P,U4,7,VSS*%
X174465000Y-71940000D03*
%TO.P,U4,8,SET2*%
X182405000Y-71940000D03*
%TO.P,U4,9,D2*%
%TO.N,A10*%
X182405000Y-69400000D03*
%TO.P,U4,10,RESET2*%
%TO.N,gnd*%
X182405000Y-66860000D03*
%TO.P,U4,11,CLOCK2*%
%TO.N,clk*%
X182405000Y-64320000D03*
%TO.P,U4,12,~{Q2}*%
%TO.N,unconnected-(U4-Pad12)*%
X182405000Y-61780000D03*
%TO.P,U4,13,Q2*%
%TO.N,A9*%
X182405000Y-59240000D03*
%TO.P,U4,14,VDD*%
%TO.N,pwr*%
X182405000Y-56700000D03*
%TD*%
D12*
%TO.P,Q4,1,C*%
%TO.N,D4*%
X112395000Y-90990000D03*
D13*
%TO.P,Q4,2,B*%
%TO.N,load*%
X113665000Y-90990000D03*
%TO.P,Q4,3,E*%
%TO.N,/data4_ff*%
X114935000Y-90990000D03*
%TD*%
D14*
%TO.P,D12,1,K*%
%TO.N,Net-(D12-Pad1)*%
X149108465Y-48890000D03*
D15*
%TO.P,D12,2,A*%
%TO.N,/data7_ff*%
X151648465Y-48890000D03*
%TD*%
D14*
%TO.P,D16,1,K*%
%TO.N,Net-(D16-Pad1)*%
X161808465Y-48890000D03*
D15*
%TO.P,D16,2,A*%
%TO.N,/data5_ff*%
X164348465Y-48890000D03*
%TD*%
D10*
%TO.P,U7,1,Q1*%
%TO.N,/data6_ff*%
X174465000Y-83370000D03*
D11*
%TO.P,U7,2,~{Q1}*%
%TO.N,unconnected-(U7-Pad2)*%
X174465000Y-85910000D03*
%TO.P,U7,3,CLOCK1*%
%TO.N,clk*%
X174465000Y-88450000D03*
%TO.P,U7,4,RESET1*%
%TO.N,gnd*%
X174465000Y-90990000D03*
%TO.P,U7,5,D1*%
%TO.N,d6*%
X174465000Y-93530000D03*
%TO.P,U7,6,SET1*%
%TO.N,gnd*%
X174465000Y-96070000D03*
%TO.P,U7,7,VSS*%
X174465000Y-98610000D03*
%TO.P,U7,8,SET2*%
X182405000Y-98610000D03*
%TO.P,U7,9,D2*%
%TO.N,A7*%
X182405000Y-96070000D03*
%TO.P,U7,10,RESET2*%
%TO.N,gnd*%
X182405000Y-93530000D03*
%TO.P,U7,11,CLOCK2*%
%TO.N,clk*%
X182405000Y-90990000D03*
%TO.P,U7,12,~{Q2}*%
%TO.N,unconnected-(U7-Pad12)*%
X182405000Y-88450000D03*
%TO.P,U7,13,Q2*%
%TO.N,A6*%
X182405000Y-85910000D03*
%TO.P,U7,14,VDD*%
%TO.N,pwr*%
X182405000Y-83370000D03*
%TD*%
D10*
%TO.P,U10,1,Q1*%
%TO.N,/data4_ff*%
X123665000Y-83370000D03*
D11*
%TO.P,U10,2,~{Q1}*%
%TO.N,unconnected-(U10-Pad2)*%
X123665000Y-85910000D03*
%TO.P,U10,3,CLOCK1*%
%TO.N,clk*%
X123665000Y-88450000D03*
%TO.P,U10,4,RESET1*%
%TO.N,gnd*%
X123665000Y-90990000D03*
%TO.P,U10,5,D1*%
%TO.N,d4*%
X123665000Y-93530000D03*
%TO.P,U10,6,SET1*%
%TO.N,gnd*%
X123665000Y-96070000D03*
%TO.P,U10,7,VSS*%
X123665000Y-98610000D03*
%TO.P,U10,8,SET2*%
X131605000Y-98610000D03*
%TO.P,U10,9,D2*%
%TO.N,A5*%
X131605000Y-96070000D03*
%TO.P,U10,10,RESET2*%
%TO.N,gnd*%
X131605000Y-93530000D03*
%TO.P,U10,11,CLOCK2*%
%TO.N,clk*%
X131605000Y-90990000D03*
%TO.P,U10,12,~{Q2}*%
%TO.N,unconnected-(U10-Pad12)*%
X131605000Y-88450000D03*
%TO.P,U10,13,Q2*%
%TO.N,A4*%
X131605000Y-85910000D03*
%TO.P,U10,14,VDD*%
%TO.N,pwr*%
X131605000Y-83370000D03*
%TD*%
D16*
%TO.P,R11,1*%
%TO.N,gnd*%
X142875000Y-140520000D03*
D17*
%TO.P,R11,2*%
%TO.N,Net-(D11-Pad1)*%
X147955000Y-140520000D03*
%TD*%
D14*
%TO.P,D22,1,K*%
%TO.N,Net-(D22-Pad1)*%
X180858465Y-48890000D03*
D15*
%TO.P,D22,2,A*%
%TO.N,/data2_ff*%
X183398465Y-48890000D03*
%TD*%
D16*
%TO.P,R10,1*%
%TO.N,gnd*%
X137795000Y-42730000D03*
D17*
%TO.P,R10,2*%
%TO.N,Net-(D10-Pad1)*%
X142875000Y-42730000D03*
%TD*%
D14*
%TO.P,D9,1,K*%
%TO.N,Net-(D9-Pad1)*%
X136525000Y-135440000D03*
D15*
%TO.P,D9,2,A*%
%TO.N,A9*%
X139065000Y-135440000D03*
%TD*%
D16*
%TO.P,R6,1*%
%TO.N,gnd*%
X122555000Y-42730000D03*
D17*
%TO.P,R6,2*%
%TO.N,Net-(D6-Pad1)*%
X127635000Y-42730000D03*
%TD*%
D14*
%TO.P,D21,1,K*%
%TO.N,Net-(D21-Pad1)*%
X174625000Y-135440000D03*
D15*
%TO.P,D21,2,A*%
%TO.N,A3*%
X177165000Y-135440000D03*
%TD*%
D16*
%TO.P,R5,1*%
%TO.N,gnd*%
X120015000Y-140520000D03*
D17*
%TO.P,R5,2*%
%TO.N,Net-(D5-Pad1)*%
X125095000Y-140520000D03*
%TD*%
D12*
%TO.P,Q1,1,C*%
%TO.N,D7*%
X112395000Y-117660000D03*
D13*
%TO.P,Q1,2,B*%
%TO.N,load*%
X113665000Y-117660000D03*
%TO.P,Q1,3,E*%
%TO.N,/data7_ff*%
X114935000Y-117660000D03*
%TD*%
D16*
%TO.P,R1,1*%
%TO.N,gnd*%
X112395000Y-137980000D03*
D17*
%TO.P,R1,2*%
%TO.N,Net-(D1-Pad1)*%
X112395000Y-132900000D03*
%TD*%
D14*
%TO.P,D5,1,K*%
%TO.N,Net-(D5-Pad1)*%
X123825000Y-135440000D03*
D15*
%TO.P,D5,2,A*%
%TO.N,A11*%
X126365000Y-135440000D03*
%TD*%
D14*
%TO.P,D3,1,K*%
%TO.N,Net-(D3-Pad1)*%
X117475000Y-135440000D03*
D15*
%TO.P,D3,2,A*%
%TO.N,A12*%
X120015000Y-135440000D03*
%TD*%
D10*
%TO.P,U1,1,Q1*%
%TO.N,Net-(D2-Pad2)*%
X123665000Y-56700000D03*
D11*
%TO.P,U1,2,~{Q1}*%
%TO.N,unconnected-(U1-Pad2)*%
X123665000Y-59240000D03*
%TO.P,U1,3,CLOCK1*%
%TO.N,clk*%
X123665000Y-61780000D03*
%TO.P,U1,4,RESET1*%
%TO.N,gnd*%
X123665000Y-64320000D03*
%TO.P,U1,5,D1*%
%TO.N,data_rx*%
X123665000Y-66860000D03*
%TO.P,U1,6,SET1*%
%TO.N,gnd*%
X123665000Y-69400000D03*
%TO.P,U1,7,VSS*%
X123665000Y-71940000D03*
%TO.P,U1,8,SET2*%
X131605000Y-71940000D03*
%TO.P,U1,9,D2*%
%TO.N,addr*%
X131605000Y-69400000D03*
%TO.P,U1,10,RESET2*%
%TO.N,gnd*%
X131605000Y-66860000D03*
%TO.P,U1,11,CLOCK2*%
%TO.N,clk*%
X131605000Y-64320000D03*
%TO.P,U1,12,~{Q2}*%
%TO.N,unconnected-(U1-Pad12)*%
X131605000Y-61780000D03*
%TO.P,U1,13,Q2*%
%TO.N,A12*%
X131605000Y-59240000D03*
%TO.P,U1,14,VDD*%
%TO.N,pwr*%
X131605000Y-56700000D03*
%TD*%
D16*
%TO.P,R27,1*%
%TO.N,gnd*%
X201295000Y-137980000D03*
D17*
%TO.P,R27,2*%
%TO.N,Net-(D27-Pad1)*%
X201295000Y-132900000D03*
%TD*%
D16*
%TO.P,R2,1*%
%TO.N,gnd*%
X112395000Y-44000000D03*
D17*
%TO.P,R2,2*%
%TO.N,Net-(D2-Pad1)*%
X112395000Y-49080000D03*
%TD*%
D14*
%TO.P,D4,1,K*%
%TO.N,Net-(D4-Pad1)*%
X123708465Y-48890000D03*
D15*
%TO.P,D4,2,A*%
%TO.N,Net-(D4-Pad2)*%
X126248465Y-48890000D03*
%TD*%
D18*
%TO.P,U8,1,~{A}/B*%
%TO.N,load*%
X157955000Y-82100000D03*
D19*
%TO.P,U8,2,1A*%
%TO.N,/data8_ff*%
X157955000Y-84640000D03*
%TO.P,U8,3,1B*%
%TO.N,D7*%
X157955000Y-87180000D03*
%TO.P,U8,4,1Y*%
%TO.N,d7*%
X157955000Y-89720000D03*
%TO.P,U8,5,2A*%
%TO.N,/data7_ff*%
X157955000Y-92260000D03*
%TO.P,U8,6,2B*%
%TO.N,D6*%
X157955000Y-94800000D03*
%TO.P,U8,7,2Y*%
%TO.N,d6*%
X157955000Y-97340000D03*
%TO.P,U8,8,GND*%
%TO.N,gnd*%
X157955000Y-99880000D03*
%TO.P,U8,9,3Y*%
%TO.N,d5*%
X165895000Y-99880000D03*
%TO.P,U8,10,3B*%
%TO.N,D5*%
X165895000Y-97340000D03*
%TO.P,U8,11,3A*%
%TO.N,/data6_ff*%
X165895000Y-94800000D03*
%TO.P,U8,12,4Y*%
%TO.N,d4*%
X165895000Y-92260000D03*
%TO.P,U8,13,4B*%
%TO.N,D4*%
X165895000Y-89720000D03*
%TO.P,U8,14,4A*%
%TO.N,/data5_ff*%
X165895000Y-87180000D03*
%TO.P,U8,15,~{OE}*%
%TO.N,gnd*%
X165895000Y-84640000D03*
%TO.P,U8,16,VCC*%
%TO.N,pwr*%
X165895000Y-82100000D03*
%TD*%
D14*
%TO.P,D10,1,K*%
%TO.N,Net-(D10-Pad1)*%
X142758465Y-48890000D03*
D15*
%TO.P,D10,2,A*%
%TO.N,/data8_ff*%
X145298465Y-48890000D03*
%TD*%
D10*
%TO.P,U15,1,Q1*%
%TO.N,/data0_ff*%
X190975000Y-111310000D03*
D11*
%TO.P,U15,2,~{Q1}*%
%TO.N,unconnected-(U15-Pad2)*%
X190975000Y-113850000D03*
%TO.P,U15,3,CLOCK1*%
%TO.N,clk*%
X190975000Y-116390000D03*
%TO.P,U15,4,RESET1*%
%TO.N,gnd*%
X190975000Y-118930000D03*
%TO.P,U15,5,D1*%
%TO.N,d0*%
X190975000Y-121470000D03*
%TO.P,U15,6,SET1*%
%TO.N,gnd*%
X190975000Y-124010000D03*
%TO.P,U15,7,VSS*%
X190975000Y-126550000D03*
%TO.P,U15,8,SET2*%
X198915000Y-126550000D03*
%TO.P,U15,9,D2*%
%TO.N,A1*%
X198915000Y-124010000D03*
%TO.P,U15,10,RESET2*%
%TO.N,gnd*%
X198915000Y-121470000D03*
%TO.P,U15,11,CLOCK2*%
%TO.N,clk*%
X198915000Y-118930000D03*
%TO.P,U15,12,~{Q2}*%
%TO.N,unconnected-(U15-Pad12)*%
X198915000Y-116390000D03*
%TO.P,U15,13,Q2*%
%TO.N,A0*%
X198915000Y-113850000D03*
%TO.P,U15,14,VDD*%
%TO.N,pwr*%
X198915000Y-111310000D03*
%TD*%
D14*
%TO.P,D7,1,K*%
%TO.N,Net-(D7-Pad1)*%
X130175000Y-135440000D03*
D15*
%TO.P,D7,2,A*%
%TO.N,A10*%
X132715000Y-135440000D03*
%TD*%
D14*
%TO.P,D26,1,K*%
%TO.N,Net-(D26-Pad1)*%
X193558465Y-48890000D03*
D15*
%TO.P,D26,2,A*%
%TO.N,/data0_ff*%
X196098465Y-48890000D03*
%TD*%
D14*
%TO.P,D13,1,K*%
%TO.N,Net-(D13-Pad1)*%
X149225000Y-135440000D03*
D15*
%TO.P,D13,2,A*%
%TO.N,A7*%
X151765000Y-135440000D03*
%TD*%
D16*
%TO.P,R24,1*%
%TO.N,gnd*%
X191135000Y-42730000D03*
D17*
%TO.P,R24,2*%
%TO.N,Net-(D24-Pad1)*%
X196215000Y-42730000D03*
%TD*%
D16*
%TO.P,R20,1*%
%TO.N,gnd*%
X175895000Y-42730000D03*
D17*
%TO.P,R20,2*%
%TO.N,Net-(D20-Pad1)*%
X180975000Y-42730000D03*
%TD*%
D14*
%TO.P,D8,1,K*%
%TO.N,Net-(D8-Pad1)*%
X136408465Y-48890000D03*
D15*
%TO.P,D8,2,A*%
%TO.N,Net-(D8-Pad2)*%
X138948465Y-48890000D03*
%TD*%
D14*
%TO.P,D23,1,K*%
%TO.N,Net-(D23-Pad1)*%
X180975000Y-135440000D03*
D15*
%TO.P,D23,2,A*%
%TO.N,A2*%
X183515000Y-135440000D03*
%TD*%
D14*
%TO.P,D27,1,K*%
%TO.N,Net-(D27-Pad1)*%
X193675000Y-135440000D03*
D15*
%TO.P,D27,2,A*%
%TO.N,A0*%
X196215000Y-135440000D03*
%TD*%
D12*
%TO.P,Q8,1,C*%
%TO.N,D0*%
X112395000Y-55430000D03*
D13*
%TO.P,Q8,2,B*%
%TO.N,load*%
X113665000Y-55430000D03*
%TO.P,Q8,3,E*%
%TO.N,/data0_ff*%
X114935000Y-55430000D03*
%TD*%
D16*
%TO.P,R26,1*%
%TO.N,gnd*%
X200025000Y-44000000D03*
D17*
%TO.P,R26,2*%
%TO.N,Net-(D26-Pad1)*%
X200025000Y-49080000D03*
%TD*%
D10*
%TO.P,U11,1,Q1*%
%TO.N,/data3_ff*%
X123665000Y-111310000D03*
D11*
%TO.P,U11,2,~{Q1}*%
%TO.N,unconnected-(U11-Pad2)*%
X123665000Y-113850000D03*
%TO.P,U11,3,CLOCK1*%
%TO.N,clk*%
X123665000Y-116390000D03*
%TO.P,U11,4,RESET1*%
%TO.N,gnd*%
X123665000Y-118930000D03*
%TO.P,U11,5,D1*%
%TO.N,d3*%
X123665000Y-121470000D03*
%TO.P,U11,6,SET1*%
%TO.N,gnd*%
X123665000Y-124010000D03*
%TO.P,U11,7,VSS*%
X123665000Y-126550000D03*
%TO.P,U11,8,SET2*%
X131605000Y-126550000D03*
%TO.P,U11,9,D2*%
%TO.N,A4*%
X131605000Y-124010000D03*
%TO.P,U11,10,RESET2*%
%TO.N,gnd*%
X131605000Y-121470000D03*
%TO.P,U11,11,CLOCK2*%
%TO.N,clk*%
X131605000Y-118930000D03*
%TO.P,U11,12,~{Q2}*%
%TO.N,unconnected-(U11-Pad12)*%
X131605000Y-116390000D03*
%TO.P,U11,13,Q2*%
%TO.N,A3*%
X131605000Y-113850000D03*
%TO.P,U11,14,VDD*%
%TO.N,pwr*%
X131605000Y-111310000D03*
%TD*%
D12*
%TO.P,Q3,1,C*%
%TO.N,D5*%
X112395000Y-64320000D03*
D13*
%TO.P,Q3,2,B*%
%TO.N,load*%
X113665000Y-64320000D03*
%TO.P,Q3,3,E*%
%TO.N,/data5_ff*%
X114935000Y-64320000D03*
%TD*%
D14*
%TO.P,D18,1,K*%
%TO.N,Net-(D18-Pad1)*%
X168158465Y-48890000D03*
D15*
%TO.P,D18,2,A*%
%TO.N,/data4_ff*%
X170698465Y-48890000D03*
%TD*%
D16*
%TO.P,R3,1*%
%TO.N,gnd*%
X112395000Y-140520000D03*
D17*
%TO.P,R3,2*%
%TO.N,Net-(D3-Pad1)*%
X117475000Y-140520000D03*
%TD*%
D16*
%TO.P,R18,1*%
%TO.N,gnd*%
X168275000Y-42730000D03*
D17*
%TO.P,R18,2*%
%TO.N,Net-(D18-Pad1)*%
X173355000Y-42730000D03*
%TD*%
D16*
%TO.P,R16,1*%
%TO.N,gnd*%
X160655000Y-42730000D03*
D17*
%TO.P,R16,2*%
%TO.N,Net-(D16-Pad1)*%
X165735000Y-42730000D03*
%TD*%
D16*
%TO.P,R23,1*%
%TO.N,gnd*%
X188595000Y-140520000D03*
D17*
%TO.P,R23,2*%
%TO.N,Net-(D23-Pad1)*%
X193675000Y-140520000D03*
%TD*%
D10*
%TO.P,U14,1,Q1*%
%TO.N,/data1_ff*%
X174465000Y-111310000D03*
D11*
%TO.P,U14,2,~{Q1}*%
%TO.N,unconnected-(U14-Pad2)*%
X174465000Y-113850000D03*
%TO.P,U14,3,CLOCK1*%
%TO.N,clk*%
X174465000Y-116390000D03*
%TO.P,U14,4,RESET1*%
%TO.N,gnd*%
X174465000Y-118930000D03*
%TO.P,U14,5,D1*%
%TO.N,d1*%
X174465000Y-121470000D03*
%TO.P,U14,6,SET1*%
%TO.N,gnd*%
X174465000Y-124010000D03*
%TO.P,U14,7,VSS*%
X174465000Y-126550000D03*
%TO.P,U14,8,SET2*%
X182405000Y-126550000D03*
%TO.P,U14,9,D2*%
%TO.N,A2*%
X182405000Y-124010000D03*
%TO.P,U14,10,RESET2*%
%TO.N,gnd*%
X182405000Y-121470000D03*
%TO.P,U14,11,CLOCK2*%
%TO.N,clk*%
X182405000Y-118930000D03*
%TO.P,U14,12,~{Q2}*%
%TO.N,unconnected-(U14-Pad12)*%
X182405000Y-116390000D03*
%TO.P,U14,13,Q2*%
%TO.N,A1*%
X182405000Y-113850000D03*
%TO.P,U14,14,VDD*%
%TO.N,pwr*%
X182405000Y-111310000D03*
%TD*%
D16*
%TO.P,R9,1*%
%TO.N,gnd*%
X135255000Y-140520000D03*
D17*
%TO.P,R9,2*%
%TO.N,Net-(D9-Pad1)*%
X140335000Y-140520000D03*
%TD*%
D10*
%TO.P,U9,1,Q1*%
%TO.N,/data5_ff*%
X141445000Y-83370000D03*
D11*
%TO.P,U9,2,~{Q1}*%
%TO.N,unconnected-(U9-Pad2)*%
X141445000Y-85910000D03*
%TO.P,U9,3,CLOCK1*%
%TO.N,clk*%
X141445000Y-88450000D03*
%TO.P,U9,4,RESET1*%
%TO.N,gnd*%
X141445000Y-90990000D03*
%TO.P,U9,5,D1*%
%TO.N,d5*%
X141445000Y-93530000D03*
%TO.P,U9,6,SET1*%
%TO.N,gnd*%
X141445000Y-96070000D03*
%TO.P,U9,7,VSS*%
X141445000Y-98610000D03*
%TO.P,U9,8,SET2*%
X149385000Y-98610000D03*
%TO.P,U9,9,D2*%
%TO.N,A6*%
X149385000Y-96070000D03*
%TO.P,U9,10,RESET2*%
%TO.N,gnd*%
X149385000Y-93530000D03*
%TO.P,U9,11,CLOCK2*%
%TO.N,clk*%
X149385000Y-90990000D03*
%TO.P,U9,12,~{Q2}*%
%TO.N,unconnected-(U9-Pad12)*%
X149385000Y-88450000D03*
%TO.P,U9,13,Q2*%
%TO.N,A5*%
X149385000Y-85910000D03*
%TO.P,U9,14,VDD*%
%TO.N,pwr*%
X149385000Y-83370000D03*
%TD*%
D14*
%TO.P,D2,1,K*%
%TO.N,Net-(D2-Pad1)*%
X117358465Y-48890000D03*
D15*
%TO.P,D2,2,A*%
%TO.N,Net-(D2-Pad2)*%
X119898465Y-48890000D03*
%TD*%
D16*
%TO.P,R4,1*%
%TO.N,gnd*%
X114935000Y-42730000D03*
D17*
%TO.P,R4,2*%
%TO.N,Net-(D4-Pad1)*%
X120015000Y-42730000D03*
%TD*%
D12*
%TO.P,Q2,1,C*%
%TO.N,D6*%
X112395000Y-108770000D03*
D13*
%TO.P,Q2,2,B*%
%TO.N,load*%
X113665000Y-108770000D03*
%TO.P,Q2,3,E*%
%TO.N,/data6_ff*%
X114935000Y-108770000D03*
%TD*%
D16*
%TO.P,R22,1*%
%TO.N,gnd*%
X183515000Y-42730000D03*
D17*
%TO.P,R22,2*%
%TO.N,Net-(D22-Pad1)*%
X188595000Y-42730000D03*
%TD*%
D18*
%TO.P,U13,1,~{A}/B*%
%TO.N,load*%
X157955000Y-110040000D03*
D19*
%TO.P,U13,2,1A*%
%TO.N,/data4_ff*%
X157955000Y-112580000D03*
%TO.P,U13,3,1B*%
%TO.N,D3*%
X157955000Y-115120000D03*
%TO.P,U13,4,1Y*%
%TO.N,d3*%
X157955000Y-117660000D03*
%TO.P,U13,5,2A*%
%TO.N,/data3_ff*%
X157955000Y-120200000D03*
%TO.P,U13,6,2B*%
%TO.N,D2*%
X157955000Y-122740000D03*
%TO.P,U13,7,2Y*%
%TO.N,d2*%
X157955000Y-125280000D03*
%TO.P,U13,8,GND*%
%TO.N,gnd*%
X157955000Y-127820000D03*
%TO.P,U13,9,3Y*%
%TO.N,d1*%
X165895000Y-127820000D03*
%TO.P,U13,10,3B*%
%TO.N,D1*%
X165895000Y-125280000D03*
%TO.P,U13,11,3A*%
%TO.N,/data2_ff*%
X165895000Y-122740000D03*
%TO.P,U13,12,4Y*%
%TO.N,d0*%
X165895000Y-120200000D03*
%TO.P,U13,13,4B*%
%TO.N,D0*%
X165895000Y-117660000D03*
%TO.P,U13,14,4A*%
%TO.N,/data1_ff*%
X165895000Y-115120000D03*
%TO.P,U13,15,~{OE}*%
%TO.N,gnd*%
X165895000Y-112580000D03*
%TO.P,U13,16,VCC*%
%TO.N,pwr*%
X165895000Y-110040000D03*
%TD*%
D14*
%TO.P,D6,1,K*%
%TO.N,Net-(D6-Pad1)*%
X130058465Y-48890000D03*
D15*
%TO.P,D6,2,A*%
%TO.N,Net-(D6-Pad2)*%
X132598465Y-48890000D03*
%TD*%
D16*
%TO.P,R28,1*%
%TO.N,load*%
X108585000Y-64320000D03*
D17*
%TO.P,R28,2*%
%TO.N,gnd*%
X108585000Y-59240000D03*
%TD*%
D14*
%TO.P,D24,1,K*%
%TO.N,Net-(D24-Pad1)*%
X187208465Y-48890000D03*
D15*
%TO.P,D24,2,A*%
%TO.N,/data1_ff*%
X189748465Y-48890000D03*
%TD*%
D16*
%TO.P,R7,1*%
%TO.N,gnd*%
X127635000Y-140520000D03*
D17*
%TO.P,R7,2*%
%TO.N,Net-(D7-Pad1)*%
X132715000Y-140520000D03*
%TD*%
D20*
%TO.P,J1,1,Pin_1*%
%TO.N,addr*%
X204540000Y-57970000D03*
D21*
%TO.P,J1,2,Pin_2*%
%TO.N,data_rx*%
X204540000Y-60510000D03*
%TO.P,J1,3,Pin_3*%
%TO.N,clk*%
X204540000Y-63050000D03*
%TO.P,J1,4,Pin_4*%
%TO.N,load*%
X204540000Y-65590000D03*
%TO.P,J1,5,Pin_5*%
%TO.N,A0*%
X204540000Y-68130000D03*
%TO.P,J1,6,Pin_6*%
%TO.N,A1*%
X204540000Y-70670000D03*
%TO.P,J1,7,Pin_7*%
%TO.N,A2*%
X204540000Y-73210000D03*
%TO.P,J1,8,Pin_8*%
%TO.N,A3*%
X204540000Y-75750000D03*
%TO.P,J1,9,Pin_9*%
%TO.N,A4*%
X204540000Y-78290000D03*
%TO.P,J1,10,Pin_10*%
%TO.N,A5*%
X204540000Y-80830000D03*
%TO.P,J1,11,Pin_11*%
%TO.N,A6*%
X204540000Y-83370000D03*
%TO.P,J1,12,Pin_12*%
%TO.N,A7*%
X204540000Y-85910000D03*
%TO.P,J1,13,Pin_13*%
%TO.N,A8*%
X204540000Y-88450000D03*
%TO.P,J1,14,Pin_14*%
%TO.N,A9*%
X204540000Y-90990000D03*
%TO.P,J1,15,Pin_15*%
%TO.N,A10*%
X204540000Y-93530000D03*
%TO.P,J1,16,Pin_16*%
%TO.N,A11*%
X204540000Y-96070000D03*
%TO.P,J1,17,Pin_17*%
%TO.N,A12*%
X204540000Y-98610000D03*
%TO.P,J1,18,Pin_18*%
%TO.N,D0*%
X204540000Y-101150000D03*
%TO.P,J1,19,Pin_19*%
%TO.N,D1*%
X204540000Y-103690000D03*
%TO.P,J1,20,Pin_20*%
%TO.N,D2*%
X204540000Y-106230000D03*
%TO.P,J1,21,Pin_21*%
%TO.N,D3*%
X204540000Y-108770000D03*
%TO.P,J1,22,Pin_22*%
%TO.N,D4*%
X204540000Y-111310000D03*
%TO.P,J1,23,Pin_23*%
%TO.N,D5*%
X204540000Y-113850000D03*
%TO.P,J1,24,Pin_24*%
%TO.N,D6*%
X204540000Y-116390000D03*
%TO.P,J1,25,Pin_25*%
%TO.N,D7*%
X204540000Y-118930000D03*
%TO.P,J1,26,Pin_26*%
%TO.N,pwr*%
X204540000Y-121470000D03*
%TO.P,J1,27,Pin_27*%
%TO.N,gnd*%
X204540000Y-124010000D03*
%TD*%
D12*
%TO.P,Q5,1,C*%
%TO.N,D3*%
X112395000Y-99880000D03*
D13*
%TO.P,Q5,2,B*%
%TO.N,load*%
X113665000Y-99880000D03*
%TO.P,Q5,3,E*%
%TO.N,/data3_ff*%
X114935000Y-99880000D03*
%TD*%
D14*
%TO.P,D14,1,K*%
%TO.N,Net-(D14-Pad1)*%
X155458465Y-48890000D03*
D15*
%TO.P,D14,2,A*%
%TO.N,/data6_ff*%
X157998465Y-48890000D03*
%TD*%
D16*
%TO.P,R13,1*%
%TO.N,gnd*%
X150495000Y-140520000D03*
D17*
%TO.P,R13,2*%
%TO.N,Net-(D13-Pad1)*%
X155575000Y-140520000D03*
%TD*%
D16*
%TO.P,R12,1*%
%TO.N,gnd*%
X145415000Y-42730000D03*
D17*
%TO.P,R12,2*%
%TO.N,Net-(D12-Pad1)*%
X150495000Y-42730000D03*
%TD*%
D14*
%TO.P,D1,1,K*%
%TO.N,Net-(D1-Pad1)*%
X112395000Y-129090000D03*
D15*
%TO.P,D1,2,A*%
%TO.N,pwr*%
X112395000Y-126550000D03*
%TD*%
D10*
%TO.P,U2,1,Q1*%
%TO.N,Net-(D4-Pad2)*%
X141445000Y-56700000D03*
D11*
%TO.P,U2,2,~{Q1}*%
%TO.N,unconnected-(U2-Pad2)*%
X141445000Y-59240000D03*
%TO.P,U2,3,CLOCK1*%
%TO.N,clk*%
X141445000Y-61780000D03*
%TO.P,U2,4,RESET1*%
%TO.N,gnd*%
X141445000Y-64320000D03*
%TO.P,U2,5,D1*%
%TO.N,Net-(D2-Pad2)*%
X141445000Y-66860000D03*
%TO.P,U2,6,SET1*%
%TO.N,gnd*%
X141445000Y-69400000D03*
%TO.P,U2,7,VSS*%
X141445000Y-71940000D03*
%TO.P,U2,8,SET2*%
X149385000Y-71940000D03*
%TO.P,U2,9,D2*%
%TO.N,A12*%
X149385000Y-69400000D03*
%TO.P,U2,10,RESET2*%
%TO.N,gnd*%
X149385000Y-66860000D03*
%TO.P,U2,11,CLOCK2*%
%TO.N,clk*%
X149385000Y-64320000D03*
%TO.P,U2,12,~{Q2}*%
%TO.N,unconnected-(U2-Pad12)*%
X149385000Y-61780000D03*
%TO.P,U2,13,Q2*%
%TO.N,A11*%
X149385000Y-59240000D03*
%TO.P,U2,14,VDD*%
%TO.N,pwr*%
X149385000Y-56700000D03*
%TD*%
D16*
%TO.P,R14,1*%
%TO.N,gnd*%
X153035000Y-42730000D03*
D17*
%TO.P,R14,2*%
%TO.N,Net-(D14-Pad1)*%
X158115000Y-42730000D03*
%TD*%
D10*
%TO.P,U5,1,Q1*%
%TO.N,/data8_ff*%
X190975000Y-56700000D03*
D11*
%TO.P,U5,2,~{Q1}*%
%TO.N,unconnected-(U5-Pad2)*%
X190975000Y-59240000D03*
%TO.P,U5,3,CLOCK1*%
%TO.N,clk*%
X190975000Y-61780000D03*
%TO.P,U5,4,RESET1*%
%TO.N,gnd*%
X190975000Y-64320000D03*
%TO.P,U5,5,D1*%
%TO.N,Net-(D8-Pad2)*%
X190975000Y-66860000D03*
%TO.P,U5,6,SET1*%
%TO.N,gnd*%
X190975000Y-69400000D03*
%TO.P,U5,7,VSS*%
X190975000Y-71940000D03*
%TO.P,U5,8,SET2*%
X198915000Y-71940000D03*
%TO.P,U5,9,D2*%
%TO.N,A9*%
X198915000Y-69400000D03*
%TO.P,U5,10,RESET2*%
%TO.N,gnd*%
X198915000Y-66860000D03*
%TO.P,U5,11,CLOCK2*%
%TO.N,clk*%
X198915000Y-64320000D03*
%TO.P,U5,12,~{Q2}*%
%TO.N,unconnected-(U5-Pad12)*%
X198915000Y-61780000D03*
%TO.P,U5,13,Q2*%
%TO.N,A8*%
X198915000Y-59240000D03*
%TO.P,U5,14,VDD*%
%TO.N,pwr*%
X198915000Y-56700000D03*
%TD*%
D16*
%TO.P,R17,1*%
%TO.N,gnd*%
X165735000Y-140520000D03*
D17*
%TO.P,R17,2*%
%TO.N,Net-(D17-Pad1)*%
X170815000Y-140520000D03*
%TD*%
D14*
%TO.P,D25,1,K*%
%TO.N,Net-(D25-Pad1)*%
X187325000Y-135440000D03*
D15*
%TO.P,D25,2,A*%
%TO.N,A1*%
X189865000Y-135440000D03*
%TD*%
D14*
%TO.P,D17,1,K*%
%TO.N,Net-(D17-Pad1)*%
X161925000Y-135440000D03*
D15*
%TO.P,D17,2,A*%
%TO.N,A5*%
X164465000Y-135440000D03*
%TD*%
D16*
%TO.P,R8,1*%
%TO.N,gnd*%
X130175000Y-42730000D03*
D17*
%TO.P,R8,2*%
%TO.N,Net-(D8-Pad1)*%
X135255000Y-42730000D03*
%TD*%
D10*
%TO.P,U6,1,Q1*%
%TO.N,/data7_ff*%
X190975000Y-83370000D03*
D11*
%TO.P,U6,2,~{Q1}*%
%TO.N,unconnected-(U6-Pad2)*%
X190975000Y-85910000D03*
%TO.P,U6,3,CLOCK1*%
%TO.N,clk*%
X190975000Y-88450000D03*
%TO.P,U6,4,RESET1*%
%TO.N,gnd*%
X190975000Y-90990000D03*
%TO.P,U6,5,D1*%
%TO.N,d7*%
X190975000Y-93530000D03*
%TO.P,U6,6,SET1*%
%TO.N,gnd*%
X190975000Y-96070000D03*
%TO.P,U6,7,VSS*%
X190975000Y-98610000D03*
%TO.P,U6,8,SET2*%
X198915000Y-98610000D03*
%TO.P,U6,9,D2*%
%TO.N,A8*%
X198915000Y-96070000D03*
%TO.P,U6,10,RESET2*%
%TO.N,gnd*%
X198915000Y-93530000D03*
%TO.P,U6,11,CLOCK2*%
%TO.N,clk*%
X198915000Y-90990000D03*
%TO.P,U6,12,~{Q2}*%
%TO.N,unconnected-(U6-Pad12)*%
X198915000Y-88450000D03*
%TO.P,U6,13,Q2*%
%TO.N,A7*%
X198915000Y-85910000D03*
%TO.P,U6,14,VDD*%
%TO.N,pwr*%
X198915000Y-83370000D03*
%TD*%
D16*
%TO.P,R19,1*%
%TO.N,gnd*%
X173355000Y-140520000D03*
D17*
%TO.P,R19,2*%
%TO.N,Net-(D19-Pad1)*%
X178435000Y-140520000D03*
%TD*%
D16*
%TO.P,R15,1*%
%TO.N,gnd*%
X158115000Y-140520000D03*
D17*
%TO.P,R15,2*%
%TO.N,Net-(D15-Pad1)*%
X163195000Y-140520000D03*
%TD*%
D14*
%TO.P,D20,1,K*%
%TO.N,Net-(D20-Pad1)*%
X174508465Y-48890000D03*
D15*
%TO.P,D20,2,A*%
%TO.N,/data3_ff*%
X177048465Y-48890000D03*
%TD*%
D14*
%TO.P,D19,1,K*%
%TO.N,Net-(D19-Pad1)*%
X168275000Y-135440000D03*
D15*
%TO.P,D19,2,A*%
%TO.N,A4*%
X170815000Y-135440000D03*
%TD*%
D16*
%TO.P,R25,1*%
%TO.N,gnd*%
X196215000Y-140520000D03*
D17*
%TO.P,R25,2*%
%TO.N,Net-(D25-Pad1)*%
X201295000Y-140520000D03*
%TD*%
D12*
%TO.P,Q6,1,C*%
%TO.N,D2*%
X112395000Y-82100000D03*
D13*
%TO.P,Q6,2,B*%
%TO.N,load*%
X113665000Y-82100000D03*
%TO.P,Q6,3,E*%
%TO.N,/data2_ff*%
X114935000Y-82100000D03*
%TD*%
D14*
%TO.P,D11,1,K*%
%TO.N,Net-(D11-Pad1)*%
X142875000Y-135440000D03*
D15*
%TO.P,D11,2,A*%
%TO.N,A8*%
X145415000Y-135440000D03*
%TD*%
D14*
%TO.P,D15,1,K*%
%TO.N,Net-(D15-Pad1)*%
X155575000Y-135440000D03*
D15*
%TO.P,D15,2,A*%
%TO.N,A6*%
X158115000Y-135440000D03*
%TD*%
D16*
%TO.P,R21,1*%
%TO.N,gnd*%
X180975000Y-140520000D03*
D17*
%TO.P,R21,2*%
%TO.N,Net-(D21-Pad1)*%
X186055000Y-140520000D03*
%TD*%
D22*
%TO.N,/data4_ff*%
X136525000Y-111310000D03*
%TO.N,A0*%
X202565000Y-112580000D03*
%TO.N,A9*%
X202565000Y-90990000D03*
%TO.N,A2*%
X184785000Y-80830000D03*
%TO.N,A3*%
X184785000Y-73210000D03*
%TO.N,A10*%
X140335000Y-75750000D03*
X186055000Y-74480000D03*
X184785000Y-69400000D03*
X187325000Y-78290000D03*
X196215000Y-78290000D03*
X196215000Y-90990000D03*
%TO.N,A11*%
X128905000Y-129090000D03*
X150495000Y-129090000D03*
X196215000Y-92260000D03*
X196215000Y-75750000D03*
X168275000Y-77020000D03*
%TO.N,A12*%
X151765000Y-74480000D03*
X184785000Y-74480000D03*
X188595000Y-99880000D03*
X121285000Y-69400000D03*
%TO.N,A9*%
X202565000Y-75750000D03*
X200025000Y-75750000D03*
%TO.N,clk*%
X201295000Y-92260000D03*
%TO.N,A9*%
X200570500Y-107500000D03*
X139065000Y-106230000D03*
%TO.N,A4*%
X127635000Y-75750000D03*
%TO.N,A5*%
X139065000Y-84640000D03*
X139065000Y-80830000D03*
%TO.N,A8*%
X194945000Y-88450000D03*
X196215000Y-107500000D03*
X146685000Y-106230000D03*
%TO.N,D2*%
X155575000Y-122740000D03*
%TO.N,A7*%
X156845000Y-102420000D03*
X178435000Y-99880000D03*
X178435000Y-97340000D03*
%TO.N,A1*%
X193675000Y-124010000D03*
X192405000Y-115120000D03*
%TO.N,A2*%
X184785000Y-113850000D03*
%TO.N,A3*%
X175895000Y-130360000D03*
X151765000Y-127820000D03*
X136525000Y-113850000D03*
X137795000Y-121470000D03*
%TO.N,A5*%
X163195000Y-131630000D03*
%TO.N,A4*%
X138430000Y-132354500D03*
X137795000Y-125280000D03*
X127635000Y-122740000D03*
X127635000Y-85910000D03*
%TO.N,A5*%
X136525000Y-131630000D03*
X135255000Y-85910000D03*
X135255000Y-96070000D03*
%TO.N,A6*%
X161925000Y-96070000D03*
X178435000Y-96070000D03*
X169545000Y-97340000D03*
X169545000Y-93530000D03*
%TO.N,/data0_ff*%
X196098465Y-53006535D03*
%TO.N,/data7_ff*%
X158115000Y-45270000D03*
%TO.N,/data1_ff*%
X177165000Y-73210000D03*
X182245000Y-51620000D03*
%TO.N,d0*%
X178435000Y-121470000D03*
X177165000Y-117660000D03*
%TO.N,/data2_ff*%
X172085000Y-51620000D03*
%TO.N,d1*%
X168275000Y-124010000D03*
%TO.N,pwr*%
X133985000Y-127820000D03*
%TO.N,d3*%
X126365000Y-130360000D03*
X160655000Y-129090000D03*
%TO.N,/data2_ff*%
X118745000Y-111310000D03*
%TO.N,/data4_ff*%
X117475000Y-83370000D03*
%TO.N,/data2_ff*%
X144145000Y-121470000D03*
%TO.N,/data3_ff*%
X170815000Y-118930000D03*
X149225000Y-107500000D03*
X151765000Y-120200000D03*
%TO.N,d2*%
X144145000Y-124010000D03*
%TO.N,/data4_ff*%
X169545000Y-74480000D03*
X137795000Y-75750000D03*
X135255000Y-84640000D03*
%TO.N,/data6_ff*%
X153035000Y-102420000D03*
X118745000Y-102420000D03*
%TO.N,/data5_ff*%
X117475000Y-78290000D03*
X144145000Y-79560000D03*
X161925000Y-79560000D03*
X163195000Y-87180000D03*
%TO.N,/data6_ff*%
X153035000Y-84640000D03*
X168275000Y-84640000D03*
%TO.N,D0*%
X116205000Y-59240000D03*
X118745000Y-75750000D03*
X150495000Y-77020000D03*
X151765000Y-117660000D03*
X187325000Y-115120000D03*
X189865000Y-101150000D03*
%TO.N,/data7_ff*%
X120015000Y-116390000D03*
%TO.N,D1*%
X186055000Y-124010000D03*
%TO.N,load*%
X154755000Y-110040000D03*
X113665000Y-69400000D03*
%TO.N,D1*%
X184785000Y-78290000D03*
X187325000Y-102420000D03*
%TO.N,D4*%
X169545000Y-89720000D03*
X170815000Y-102420000D03*
X191135000Y-103690000D03*
X192405000Y-111310000D03*
%TO.N,D3*%
X160655000Y-110040000D03*
%TO.N,D2*%
X120015000Y-85910000D03*
X121285000Y-104960000D03*
X153035000Y-104960000D03*
%TO.N,D3*%
X107315000Y-101150000D03*
X109855000Y-113850000D03*
%TO.N,D6*%
X194945000Y-117660000D03*
X193675000Y-106230000D03*
X159385000Y-104960000D03*
%TO.N,D5*%
X107315000Y-96070000D03*
X194945000Y-113850000D03*
X194945000Y-104960000D03*
X169545000Y-103690000D03*
%TO.N,d5*%
X144145000Y-99880000D03*
%TO.N,D6*%
X108585000Y-96070000D03*
%TO.N,/data7_ff*%
X120015000Y-104960000D03*
X160655000Y-102420000D03*
%TO.N,D7*%
X155575000Y-121470000D03*
%TO.N,load*%
X159385000Y-70670000D03*
%TO.N,A7*%
X184785000Y-88450000D03*
%TO.N,/data7_ff*%
X160655000Y-87180000D03*
%TO.N,A8*%
X194945000Y-94800000D03*
%TO.N,/data8_ff*%
X160655000Y-77020000D03*
X192405000Y-75750000D03*
X187325000Y-54160000D03*
%TO.N,Net-(D8-Pad2)*%
X173355000Y-54160000D03*
%TO.N,Net-(D6-Pad2)*%
X154305000Y-54160000D03*
%TO.N,Net-(D4-Pad2)*%
X137795000Y-54160000D03*
%TO.N,A9*%
X184785000Y-66860000D03*
%TO.N,Net-(D8-Pad2)*%
X178435000Y-65590000D03*
%TO.N,A10*%
X168275000Y-66860000D03*
%TO.N,Net-(D6-Pad2)*%
X160655000Y-64320000D03*
%TO.N,A11*%
X151765000Y-66860000D03*
%TO.N,Net-(D4-Pad2)*%
X142875000Y-64320000D03*
%TO.N,A12*%
X128905000Y-66860000D03*
%TO.N,addr*%
X133985000Y-59240000D03*
%TO.N,data_rx*%
X126365000Y-66860000D03*
X128905000Y-60510000D03*
%TO.N,Net-(D2-Pad2)*%
X126365000Y-64320000D03*
%TO.N,gnd*%
X164465000Y-98610000D03*
X164465000Y-126550000D03*
%TO.N,pwr*%
X196215000Y-122740000D03*
%TD*%
D23*
%TO.N,Net-(D4-Pad1)*%
X123708465Y-46423465D02*
X120015000Y-42730000D01*
X123708465Y-48890000D02*
X123708465Y-46423465D01*
%TO.N,Net-(D6-Pad1)*%
X130058465Y-45153465D02*
X127635000Y-42730000D01*
X130058465Y-48890000D02*
X130058465Y-45153465D01*
%TO.N,Net-(D8-Pad1)*%
X136408465Y-43883465D02*
X135255000Y-42730000D01*
X136408465Y-48890000D02*
X136408465Y-43883465D01*
%TO.N,Net-(D10-Pad1)*%
X142758465Y-42846535D02*
X142875000Y-42730000D01*
X142758465Y-48890000D02*
X142758465Y-42846535D01*
%TO.N,Net-(D12-Pad1)*%
X149108465Y-44116535D02*
X150495000Y-42730000D01*
X149108465Y-48890000D02*
X149108465Y-44116535D01*
%TO.N,Net-(D14-Pad1)*%
X155458465Y-45386535D02*
X158115000Y-42730000D01*
X155458465Y-48890000D02*
X155458465Y-45386535D01*
%TO.N,Net-(D16-Pad1)*%
X161808465Y-46656535D02*
X165735000Y-42730000D01*
X161808465Y-48890000D02*
X161808465Y-46656535D01*
%TO.N,Net-(D18-Pad1)*%
X168158465Y-47926535D02*
X173355000Y-42730000D01*
X168158465Y-48890000D02*
X168158465Y-47926535D01*
%TO.N,Net-(D20-Pad1)*%
X174815000Y-48890000D02*
X180975000Y-42730000D01*
X174508465Y-48890000D02*
X174815000Y-48890000D01*
%TO.N,Net-(D22-Pad1)*%
X187018465Y-42730000D02*
X188595000Y-42730000D01*
X180858465Y-48890000D02*
X187018465Y-42730000D01*
%TO.N,Net-(D24-Pad1)*%
X193368465Y-42730000D02*
X196215000Y-42730000D01*
X187208465Y-48890000D02*
X193368465Y-42730000D01*
%TO.N,gnd*%
X108585000Y-59240000D02*
X108585000Y-47810000D01*
X108585000Y-47810000D02*
X112395000Y-44000000D01*
%TO.N,Net-(D25-Pad1)*%
X191771396Y-137980000D02*
X198755000Y-137980000D01*
X191321396Y-137530000D02*
X191771396Y-137980000D01*
X189415000Y-137530000D02*
X191321396Y-137530000D01*
X187325000Y-135440000D02*
X189415000Y-137530000D01*
X198755000Y-137980000D02*
X201295000Y-140520000D01*
%TO.N,Net-(D23-Pad1)*%
X184785000Y-137530000D02*
X185235000Y-137980000D01*
X183065000Y-137530000D02*
X184785000Y-137530000D01*
X185235000Y-137980000D02*
X191135000Y-137980000D01*
X180975000Y-135440000D02*
X183065000Y-137530000D01*
X191135000Y-137980000D02*
X193675000Y-140520000D01*
%TO.N,Net-(D21-Pad1)*%
X183515000Y-137980000D02*
X186055000Y-140520000D01*
X177165000Y-137980000D02*
X183515000Y-137980000D01*
X174625000Y-135440000D02*
X177165000Y-137980000D01*
%TO.N,Net-(D19-Pad1)*%
X177410000Y-139495000D02*
X178435000Y-140520000D01*
X172330000Y-139495000D02*
X177410000Y-139495000D01*
X168275000Y-135440000D02*
X172330000Y-139495000D01*
%TO.N,Net-(D17-Pad1)*%
X167184569Y-140520000D02*
X170815000Y-140520000D01*
X162104569Y-135440000D02*
X167184569Y-140520000D01*
X161925000Y-135440000D02*
X162104569Y-135440000D01*
%TO.N,Net-(D15-Pad1)*%
X160655000Y-140520000D02*
X163195000Y-140520000D01*
X155575000Y-135440000D02*
X160655000Y-140520000D01*
%TO.N,Net-(D13-Pad1)*%
X154305000Y-140520000D02*
X155575000Y-140520000D01*
X149225000Y-135440000D02*
X154305000Y-140520000D01*
%TO.N,Net-(D11-Pad1)*%
X142875000Y-135440000D02*
X147955000Y-140520000D01*
%TO.N,Net-(D9-Pad1)*%
X136525000Y-136710000D02*
X140335000Y-140520000D01*
X136525000Y-135440000D02*
X136525000Y-136710000D01*
%TO.N,Net-(D7-Pad1)*%
X130175000Y-137980000D02*
X132715000Y-140520000D01*
X130175000Y-135440000D02*
X130175000Y-137980000D01*
%TO.N,Net-(D5-Pad1)*%
X123825000Y-139250000D02*
X125095000Y-140520000D01*
X123825000Y-135440000D02*
X123825000Y-139250000D01*
%TO.N,Net-(D3-Pad1)*%
X117475000Y-135440000D02*
X117475000Y-140520000D01*
%TO.N,Net-(D1-Pad1)*%
X112395000Y-129090000D02*
X112395000Y-132900000D01*
%TO.N,gnd*%
X204540000Y-134735000D02*
X204540000Y-124010000D01*
X201295000Y-137980000D02*
X204540000Y-134735000D01*
%TO.N,/data4_ff*%
X136525000Y-85910000D02*
X135255000Y-84640000D01*
X136525000Y-111310000D02*
X136525000Y-85910000D01*
%TO.N,A0*%
X203290000Y-69380000D02*
X204540000Y-68130000D01*
X203290000Y-111855000D02*
X203290000Y-69380000D01*
X202565000Y-112580000D02*
X203290000Y-111855000D01*
%TO.N,A2*%
X185510000Y-81555000D02*
X184785000Y-80830000D01*
X185510000Y-113125000D02*
X185510000Y-81555000D01*
X184785000Y-113850000D02*
X185510000Y-113125000D01*
%TO.N,A3*%
X175895000Y-115120000D02*
X175895000Y-130360000D01*
X182781935Y-86820000D02*
X182605000Y-86820000D01*
X183515000Y-86086935D02*
X182781935Y-86820000D01*
X183515000Y-74480000D02*
X183515000Y-86086935D01*
X182605000Y-86820000D02*
X179255000Y-90170000D01*
X179255000Y-90170000D02*
X179255000Y-111760000D01*
X184785000Y-73210000D02*
X183515000Y-74480000D01*
X179255000Y-111760000D02*
X175895000Y-115120000D01*
%TO.N,A10*%
X135255000Y-132900000D02*
X132715000Y-135440000D01*
X136525000Y-132900000D02*
X135255000Y-132900000D01*
X137319619Y-132105381D02*
X136525000Y-132900000D01*
X137319619Y-129884619D02*
X137319619Y-132105381D01*
X135705000Y-128270000D02*
X137319619Y-129884619D01*
X135705000Y-113400000D02*
X135705000Y-128270000D01*
X136525000Y-112580000D02*
X135705000Y-113400000D01*
X136525000Y-112335305D02*
X136525000Y-112580000D01*
X137795000Y-111065305D02*
X136525000Y-112335305D01*
X137795000Y-78290000D02*
X137795000Y-111065305D01*
X140335000Y-75750000D02*
X137795000Y-78290000D01*
X186055000Y-74480000D02*
X186055000Y-77020000D01*
X196215000Y-90990000D02*
X196215000Y-78290000D01*
X184785000Y-69400000D02*
X186055000Y-70670000D01*
X186055000Y-70670000D02*
X186055000Y-74480000D01*
X186055000Y-77020000D02*
X187325000Y-78290000D01*
%TO.N,A11*%
X197485000Y-90990000D02*
X197485000Y-77020000D01*
X196215000Y-92260000D02*
X197485000Y-90990000D01*
X197485000Y-77020000D02*
X196215000Y-75750000D01*
X128905000Y-132900000D02*
X126365000Y-135440000D01*
X128905000Y-129090000D02*
X128905000Y-132900000D01*
X151765000Y-129090000D02*
X150495000Y-129090000D01*
X152585000Y-116760000D02*
X152585000Y-128270000D01*
X152215000Y-116390000D02*
X152585000Y-116760000D01*
X152215000Y-78103604D02*
X152215000Y-116390000D01*
X152585000Y-128270000D02*
X151765000Y-129090000D01*
X152490000Y-67585000D02*
X152490000Y-77828604D01*
X152490000Y-77828604D02*
X152215000Y-78103604D01*
X151765000Y-66860000D02*
X152490000Y-67585000D01*
X167005000Y-69400000D02*
X165895000Y-69400000D01*
X168275000Y-70670000D02*
X167005000Y-69400000D01*
X168275000Y-77020000D02*
X168275000Y-70670000D01*
%TO.N,A12*%
X151765000Y-71780000D02*
X149385000Y-69400000D01*
X151765000Y-74480000D02*
X151765000Y-71780000D01*
X187325000Y-98610000D02*
X188595000Y-99880000D01*
X187325000Y-79560000D02*
X187325000Y-98610000D01*
X184785000Y-74480000D02*
X184785000Y-77020000D01*
X184785000Y-77020000D02*
X187325000Y-79560000D01*
%TO.N,/data4_ff*%
X169545000Y-74480000D02*
X169545000Y-50043465D01*
X169545000Y-50043465D02*
X170698465Y-48890000D01*
%TO.N,A12*%
X121285000Y-79560000D02*
X121285000Y-69400000D01*
X120835000Y-80010000D02*
X121285000Y-79560000D01*
X120835000Y-95620000D02*
X120835000Y-80010000D01*
X121285000Y-96070000D02*
X120835000Y-95620000D01*
X122010000Y-96795000D02*
X121285000Y-96070000D01*
X122010000Y-106775000D02*
X122010000Y-96795000D01*
X121285000Y-107500000D02*
X122010000Y-106775000D01*
X120740000Y-108045000D02*
X121285000Y-107500000D01*
X120740000Y-134715000D02*
X120740000Y-108045000D01*
X120015000Y-135440000D02*
X120740000Y-134715000D01*
%TO.N,D2*%
X120015000Y-102420000D02*
X120015000Y-85910000D01*
X121285000Y-103690000D02*
X120015000Y-102420000D01*
X121285000Y-104960000D02*
X121285000Y-103690000D01*
%TO.N,A9*%
X202565000Y-75750000D02*
X202565000Y-90990000D01*
X201539695Y-90990000D02*
X202565000Y-90990000D01*
X200845000Y-74930000D02*
X200025000Y-75750000D01*
X200845000Y-74030000D02*
X200845000Y-74930000D01*
X198915000Y-69400000D02*
X200845000Y-71330000D01*
X200845000Y-71330000D02*
X200845000Y-74030000D01*
X200570500Y-107500000D02*
X200570500Y-91959195D01*
X200570500Y-91959195D02*
X201539695Y-90990000D01*
%TO.N,load*%
X154305000Y-85750000D02*
X157955000Y-82100000D01*
X154305000Y-109590000D02*
X154305000Y-85750000D01*
X154755000Y-110040000D02*
X154305000Y-109590000D01*
%TO.N,A9*%
X138615000Y-106680000D02*
X139065000Y-106230000D01*
X138615000Y-123560000D02*
X138615000Y-106680000D01*
X139965000Y-124910000D02*
X138615000Y-123560000D01*
X139965000Y-134540000D02*
X139965000Y-124910000D01*
X139065000Y-135440000D02*
X139965000Y-134540000D01*
%TO.N,A4*%
X127635000Y-85910000D02*
X127635000Y-75750000D01*
%TO.N,A5*%
X139065000Y-80830000D02*
X139065000Y-84640000D01*
%TO.N,A8*%
X145415000Y-135440000D02*
X145415000Y-107500000D01*
X145415000Y-107500000D02*
X146685000Y-106230000D01*
X194945000Y-88450000D02*
X194945000Y-94800000D01*
X194945000Y-97340000D02*
X194945000Y-94800000D01*
X196215000Y-98610000D02*
X194945000Y-97340000D01*
X196215000Y-107500000D02*
X196215000Y-98610000D01*
%TO.N,A7*%
X151765000Y-130360000D02*
X151765000Y-135440000D01*
X156025000Y-119380000D02*
X156845000Y-120200000D01*
X156845000Y-120200000D02*
X156845000Y-125280000D01*
X156025000Y-103240000D02*
X156025000Y-119380000D01*
X156845000Y-125280000D02*
X151765000Y-130360000D01*
X156845000Y-102420000D02*
X156025000Y-103240000D01*
X178435000Y-97340000D02*
X178435000Y-99880000D01*
%TO.N,A0*%
X196940000Y-115825000D02*
X198915000Y-113850000D01*
X196940000Y-134715000D02*
X196940000Y-115825000D01*
X196215000Y-135440000D02*
X196940000Y-134715000D01*
%TO.N,A1*%
X193675000Y-124010000D02*
X193675000Y-131630000D01*
X193675000Y-131630000D02*
X189865000Y-135440000D01*
X193675000Y-117660000D02*
X193675000Y-124010000D01*
X192405000Y-116390000D02*
X193675000Y-117660000D01*
X192405000Y-115120000D02*
X192405000Y-116390000D01*
%TO.N,A2*%
X184785000Y-122740000D02*
X184785000Y-113850000D01*
X182405000Y-124010000D02*
X183515000Y-124010000D01*
X183515000Y-124010000D02*
X184785000Y-122740000D01*
X183515000Y-125120000D02*
X182405000Y-124010000D01*
X183515000Y-135440000D02*
X183515000Y-125120000D01*
%TO.N,A3*%
X177165000Y-131630000D02*
X177165000Y-135440000D01*
X175895000Y-130360000D02*
X177165000Y-131630000D01*
X151765000Y-126390000D02*
X151765000Y-127820000D01*
X149385000Y-124010000D02*
X151765000Y-126390000D01*
X137795000Y-115120000D02*
X137795000Y-121470000D01*
X136525000Y-113850000D02*
X137795000Y-115120000D01*
%TO.N,A5*%
X164465000Y-132900000D02*
X164465000Y-135440000D01*
X163195000Y-131630000D02*
X164465000Y-132900000D01*
%TO.N,A4*%
X137795000Y-131719500D02*
X137795000Y-125280000D01*
X138430000Y-132354500D02*
X137795000Y-131719500D01*
X127635000Y-85910000D02*
X127635000Y-122740000D01*
%TO.N,A5*%
X135255000Y-130360000D02*
X136525000Y-131630000D01*
X135255000Y-96070000D02*
X135255000Y-130360000D01*
X135255000Y-88450000D02*
X135255000Y-85910000D01*
X135255000Y-96070000D02*
X135255000Y-88450000D01*
%TO.N,A6*%
X161925000Y-96070000D02*
X161925000Y-131630000D01*
X161925000Y-131630000D02*
X158115000Y-135440000D01*
X178435000Y-96070000D02*
X178435000Y-89880000D01*
X178435000Y-89880000D02*
X182405000Y-85910000D01*
X169545000Y-93530000D02*
X169545000Y-97340000D01*
%TO.N,/data0_ff*%
X196098465Y-53006535D02*
X196098465Y-48890000D01*
X193675000Y-75750000D02*
X194125000Y-75300000D01*
X193675000Y-99880000D02*
X193675000Y-75750000D01*
X194125000Y-75300000D02*
X194125000Y-54980000D01*
X194125000Y-54980000D02*
X196098465Y-53006535D01*
X189865000Y-103690000D02*
X193675000Y-99880000D01*
X189865000Y-104960000D02*
X189865000Y-103690000D01*
X190975000Y-111310000D02*
X190975000Y-106070000D01*
X190975000Y-106070000D02*
X189865000Y-104960000D01*
%TO.N,/data5_ff*%
X162745000Y-50493465D02*
X164348465Y-48890000D01*
X163195000Y-78290000D02*
X163195000Y-77020000D01*
X163195000Y-77020000D02*
X162745000Y-76570000D01*
X162745000Y-76570000D02*
X162745000Y-50493465D01*
X161925000Y-79560000D02*
X163195000Y-78290000D01*
%TO.N,/data7_ff*%
X159385000Y-46540000D02*
X158115000Y-45270000D01*
X159385000Y-52890000D02*
X159385000Y-46540000D01*
X161925000Y-64545000D02*
X161925000Y-55430000D01*
X161925000Y-73210000D02*
X160655000Y-71940000D01*
X161925000Y-77020000D02*
X161925000Y-73210000D01*
X160655000Y-71940000D02*
X160655000Y-65815000D01*
X161925000Y-55430000D02*
X159385000Y-52890000D01*
X160655000Y-78290000D02*
X161925000Y-77020000D01*
X160655000Y-87180000D02*
X160655000Y-78290000D01*
X160655000Y-65815000D02*
X161925000Y-64545000D01*
%TO.N,load*%
X158865000Y-76270000D02*
X158865000Y-81190000D01*
X159385000Y-70670000D02*
X159385000Y-75750000D01*
X159385000Y-75750000D02*
X158865000Y-76270000D01*
X158865000Y-81190000D02*
X157955000Y-82100000D01*
%TO.N,/data5_ff*%
X161925000Y-85910000D02*
X163195000Y-87180000D01*
X161925000Y-79560000D02*
X161925000Y-85910000D01*
%TO.N,/data1_ff*%
X179633465Y-65661535D02*
X179633465Y-54231535D01*
X178435000Y-66860000D02*
X179633465Y-65661535D01*
X177165000Y-98610000D02*
X177165000Y-68130000D01*
X177165000Y-68130000D02*
X178435000Y-66860000D01*
X177165000Y-108770000D02*
X177165000Y-98610000D01*
X174625000Y-111310000D02*
X177165000Y-108770000D01*
X179633465Y-54231535D02*
X182245000Y-51620000D01*
X174465000Y-111310000D02*
X174625000Y-111310000D01*
%TO.N,d0*%
X178435000Y-121470000D02*
X178435000Y-118930000D01*
X178435000Y-118930000D02*
X177165000Y-117660000D01*
%TO.N,/data2_ff*%
X170270000Y-53435000D02*
X172085000Y-51620000D01*
X170270000Y-80105000D02*
X170270000Y-53435000D01*
X169545000Y-84395305D02*
X169545000Y-80830000D01*
X168725000Y-85215305D02*
X169545000Y-84395305D01*
X169545000Y-80830000D02*
X170270000Y-80105000D01*
X168725000Y-90990000D02*
X168725000Y-85215305D01*
X168725000Y-101600000D02*
X168725000Y-90990000D01*
X169545000Y-102420000D02*
X168725000Y-101600000D01*
X170815000Y-103690000D02*
X169545000Y-102420000D01*
X170815000Y-104960000D02*
X170815000Y-103690000D01*
X168275000Y-118758651D02*
X170815000Y-116218651D01*
X170815000Y-116218651D02*
X170815000Y-104960000D01*
X168275000Y-121470000D02*
X168275000Y-118758651D01*
X167005000Y-122740000D02*
X168275000Y-121470000D01*
X165895000Y-122740000D02*
X167005000Y-122740000D01*
%TO.N,d1*%
X168275000Y-125440000D02*
X168275000Y-124010000D01*
X165895000Y-127820000D02*
X168275000Y-125440000D01*
%TO.N,pwr*%
X133985000Y-127820000D02*
X133985000Y-110040000D01*
%TO.N,d3*%
X125095000Y-122900000D02*
X123665000Y-121470000D01*
X125095000Y-129090000D02*
X125095000Y-122900000D01*
X126365000Y-130360000D02*
X125095000Y-129090000D01*
X160655000Y-118930000D02*
X160655000Y-129090000D01*
X159385000Y-117660000D02*
X160655000Y-118930000D01*
X157955000Y-117660000D02*
X159385000Y-117660000D01*
%TO.N,/data2_ff*%
X118745000Y-105204695D02*
X118745000Y-111310000D01*
X119565000Y-104384695D02*
X118745000Y-105204695D01*
X119565000Y-88000000D02*
X119565000Y-104384695D01*
X118745000Y-87180000D02*
X119565000Y-88000000D01*
X118745000Y-83614695D02*
X118745000Y-87180000D01*
X117230305Y-82100000D02*
X118745000Y-83614695D01*
X114935000Y-82100000D02*
X117230305Y-82100000D01*
X144145000Y-114010000D02*
X141445000Y-111310000D01*
X144145000Y-121470000D02*
X144145000Y-114010000D01*
%TO.N,/data3_ff*%
X171540000Y-118205000D02*
X170815000Y-118930000D01*
X171540000Y-92535000D02*
X171540000Y-118205000D01*
X171265000Y-92260000D02*
X171540000Y-92535000D01*
X171265000Y-76940000D02*
X171265000Y-92260000D01*
X171635000Y-76570000D02*
X171265000Y-76940000D01*
X171635000Y-57150000D02*
X171635000Y-76570000D01*
X172085000Y-56700000D02*
X171635000Y-57150000D01*
X172085000Y-53853465D02*
X172085000Y-56700000D01*
X177048465Y-48890000D02*
X172085000Y-53853465D01*
%TO.N,Net-(D8-Pad2)*%
X173355000Y-55590000D02*
X174465000Y-56700000D01*
X173355000Y-54160000D02*
X173355000Y-55590000D01*
%TO.N,/data3_ff*%
X150495000Y-108770000D02*
X149225000Y-107500000D01*
X150495000Y-118930000D02*
X150495000Y-108770000D01*
X151765000Y-120200000D02*
X150495000Y-118930000D01*
%TO.N,d2*%
X144145000Y-124010000D02*
X143985000Y-124010000D01*
X143985000Y-124010000D02*
X141445000Y-121470000D01*
%TO.N,/data4_ff*%
X135255000Y-80830000D02*
X135255000Y-84640000D01*
X136525000Y-79560000D02*
X135255000Y-80830000D01*
X136525000Y-77020000D02*
X136525000Y-79560000D01*
X137795000Y-75750000D02*
X136525000Y-77020000D01*
X114935000Y-85910000D02*
X114935000Y-90990000D01*
X117475000Y-83370000D02*
X114935000Y-85910000D01*
%TO.N,/data6_ff*%
X153035000Y-102420000D02*
X153035000Y-84640000D01*
X114935000Y-106230000D02*
X118745000Y-102420000D01*
X114935000Y-108770000D02*
X114935000Y-106230000D01*
%TO.N,/data5_ff*%
X117475000Y-66860000D02*
X114935000Y-64320000D01*
X117475000Y-78290000D02*
X117475000Y-66860000D01*
X141445000Y-82260000D02*
X141445000Y-83370000D01*
X144145000Y-79560000D02*
X141445000Y-82260000D01*
%TO.N,/data6_ff*%
X153035000Y-53853465D02*
X157998465Y-48890000D01*
X153035000Y-84640000D02*
X153035000Y-53853465D01*
X168275000Y-84640000D02*
X168275000Y-92420000D01*
X168275000Y-92420000D02*
X165895000Y-94800000D01*
%TO.N,D0*%
X189865000Y-101150000D02*
X188595000Y-102420000D01*
X188595000Y-113850000D02*
X187325000Y-115120000D01*
X188595000Y-102420000D02*
X188595000Y-113850000D01*
X118745000Y-61780000D02*
X116205000Y-59240000D01*
X118745000Y-75750000D02*
X118745000Y-61780000D01*
X151765000Y-78290000D02*
X150495000Y-77020000D01*
X151765000Y-117660000D02*
X151765000Y-78290000D01*
%TO.N,/data7_ff*%
X120015000Y-104960000D02*
X120015000Y-116390000D01*
%TO.N,D1*%
X186055000Y-103690000D02*
X187325000Y-102420000D01*
X186055000Y-124010000D02*
X186055000Y-103690000D01*
%TO.N,D2*%
X153035000Y-120200000D02*
X153035000Y-104960000D01*
X155575000Y-122740000D02*
X153035000Y-120200000D01*
%TO.N,load*%
X113665000Y-108770000D02*
X113665000Y-117660000D01*
X113665000Y-99880000D02*
X113665000Y-108770000D01*
X113665000Y-90990000D02*
X113665000Y-99880000D01*
X113665000Y-82100000D02*
X113665000Y-90990000D01*
X113665000Y-73210000D02*
X113665000Y-82100000D01*
X113665000Y-64320000D02*
X113665000Y-73210000D01*
X113665000Y-55430000D02*
X113665000Y-64320000D01*
%TO.N,D1*%
X186055000Y-79560000D02*
X184785000Y-78290000D01*
X186055000Y-101150000D02*
X186055000Y-79560000D01*
X187325000Y-102420000D02*
X186055000Y-101150000D01*
%TO.N,D5*%
X194945000Y-104960000D02*
X194945000Y-113850000D01*
%TO.N,D6*%
X193675000Y-106230000D02*
X193675000Y-116390000D01*
X193675000Y-116390000D02*
X194945000Y-117660000D01*
%TO.N,D4*%
X170815000Y-90990000D02*
X169545000Y-89720000D01*
X170815000Y-102420000D02*
X170815000Y-90990000D01*
X192405000Y-104960000D02*
X191135000Y-103690000D01*
X192405000Y-111310000D02*
X192405000Y-104960000D01*
%TO.N,D3*%
X160655000Y-112420000D02*
X157955000Y-115120000D01*
X160655000Y-110040000D02*
X160655000Y-112420000D01*
X107315000Y-111310000D02*
X107315000Y-101150000D01*
X108585000Y-112580000D02*
X107315000Y-111310000D01*
X109855000Y-113850000D02*
X108585000Y-112580000D01*
%TO.N,D6*%
X159385000Y-96230000D02*
X159385000Y-104960000D01*
X157955000Y-94800000D02*
X159385000Y-96230000D01*
%TO.N,D5*%
X107315000Y-96070000D02*
X107315000Y-69400000D01*
X107315000Y-69400000D02*
X112395000Y-64320000D01*
X168275000Y-102420000D02*
X168275000Y-99720000D01*
X168275000Y-99720000D02*
X165895000Y-97340000D01*
X169545000Y-103690000D02*
X168275000Y-102420000D01*
%TO.N,d5*%
X144145000Y-99880000D02*
X144145000Y-96070000D01*
X144145000Y-96070000D02*
X141605000Y-93530000D01*
%TO.N,D6*%
X108585000Y-104960000D02*
X112395000Y-108770000D01*
X108585000Y-96070000D02*
X108585000Y-104960000D01*
%TO.N,/data7_ff*%
X160655000Y-94960000D02*
X160655000Y-102420000D01*
X157955000Y-92260000D02*
X160655000Y-94960000D01*
%TO.N,D7*%
X155575000Y-89560000D02*
X157955000Y-87180000D01*
X155575000Y-121470000D02*
X155575000Y-89560000D01*
%TO.N,A7*%
X184785000Y-93690000D02*
X182405000Y-96070000D01*
X184785000Y-88450000D02*
X184785000Y-93690000D01*
%TO.N,/data7_ff*%
X160655000Y-89560000D02*
X157955000Y-92260000D01*
X160655000Y-87180000D02*
X160655000Y-89560000D01*
%TO.N,A8*%
X194945000Y-63210000D02*
X194945000Y-88450000D01*
X198915000Y-59240000D02*
X194945000Y-63210000D01*
%TO.N,/data8_ff*%
X192405000Y-75750000D02*
X193675000Y-74480000D01*
X193675000Y-74480000D02*
X193675000Y-59400000D01*
X193675000Y-59400000D02*
X190975000Y-56700000D01*
X160655000Y-77020000D02*
X159409278Y-78265722D01*
X159409278Y-78265722D02*
X159409278Y-83185722D01*
X159409278Y-83185722D02*
X157955000Y-84640000D01*
X189865000Y-56700000D02*
X187325000Y-54160000D01*
X190975000Y-56700000D02*
X189865000Y-56700000D01*
%TO.N,Net-(D6-Pad2)*%
X156845000Y-56700000D02*
X154305000Y-54160000D01*
X157955000Y-56700000D02*
X156845000Y-56700000D01*
%TO.N,Net-(D4-Pad2)*%
X140335000Y-56700000D02*
X137795000Y-54160000D01*
X141445000Y-56700000D02*
X140335000Y-56700000D01*
%TO.N,A9*%
X184785000Y-61620000D02*
X182405000Y-59240000D01*
X184785000Y-66860000D02*
X184785000Y-61620000D01*
%TO.N,Net-(D8-Pad2)*%
X177165000Y-59400000D02*
X174465000Y-56700000D01*
X177165000Y-64320000D02*
X177165000Y-59400000D01*
X178435000Y-65590000D02*
X177165000Y-64320000D01*
%TO.N,A10*%
X168275000Y-61620000D02*
X165895000Y-59240000D01*
X168275000Y-66860000D02*
X168275000Y-61620000D01*
%TO.N,Net-(D6-Pad2)*%
X160655000Y-59400000D02*
X157955000Y-56700000D01*
X160655000Y-64320000D02*
X160655000Y-59400000D01*
%TO.N,A11*%
X151765000Y-61620000D02*
X149385000Y-59240000D01*
X151765000Y-66860000D02*
X151765000Y-61620000D01*
%TO.N,Net-(D4-Pad2)*%
X142875000Y-58130000D02*
X141445000Y-56700000D01*
X142875000Y-64320000D02*
X142875000Y-58130000D01*
%TO.N,A12*%
X128905000Y-61940000D02*
X131605000Y-59240000D01*
X128905000Y-66860000D02*
X128905000Y-61940000D01*
%TO.N,addr*%
X133985000Y-67020000D02*
X131605000Y-69400000D01*
X133985000Y-59240000D02*
X133985000Y-67020000D01*
%TO.N,pwr*%
X135255000Y-79720000D02*
X131605000Y-83370000D01*
X135255000Y-59240000D02*
X135255000Y-79720000D01*
X132715000Y-56700000D02*
X135255000Y-59240000D01*
X131605000Y-56700000D02*
X132715000Y-56700000D01*
%TO.N,data_rx*%
X127635000Y-61780000D02*
X128905000Y-60510000D01*
X127635000Y-65590000D02*
X127635000Y-61780000D01*
X126365000Y-66860000D02*
X127635000Y-65590000D01*
%TO.N,clk*%
X125095000Y-114960000D02*
X123665000Y-116390000D01*
X125095000Y-89880000D02*
X125095000Y-114960000D01*
X123665000Y-88450000D02*
X125095000Y-89880000D01*
X125095000Y-63210000D02*
X125095000Y-87020000D01*
X123665000Y-61780000D02*
X125095000Y-63210000D01*
X125095000Y-87020000D02*
X123665000Y-88450000D01*
X201295000Y-116550000D02*
X198915000Y-118930000D01*
X201295000Y-92260000D02*
X201295000Y-116550000D01*
X201295000Y-88610000D02*
X198915000Y-90990000D01*
X201295000Y-66700000D02*
X201295000Y-88610000D01*
X198915000Y-64320000D02*
X201295000Y-66700000D01*
%TO.N,Net-(D2-Pad2)*%
X126365000Y-64320000D02*
X126365000Y-59400000D01*
X126365000Y-59400000D02*
X123665000Y-56700000D01*
X119898465Y-55313465D02*
X119898465Y-48890000D01*
X123665000Y-56700000D02*
X121285000Y-56700000D01*
X121285000Y-56700000D02*
X119898465Y-55313465D01*
%TO.N,gnd*%
X164465000Y-86070000D02*
X165895000Y-84640000D01*
X164465000Y-98610000D02*
X164465000Y-86070000D01*
X164465000Y-114010000D02*
X165895000Y-112580000D01*
X164465000Y-126550000D02*
X164465000Y-114010000D01*
%TO.N,pwr*%
X197485000Y-111310000D02*
X196215000Y-112580000D01*
X133985000Y-85750000D02*
X133985000Y-110040000D01*
X198915000Y-111310000D02*
X197485000Y-111310000D01*
X132715000Y-111310000D02*
X131605000Y-111310000D01*
X133985000Y-110040000D02*
X132715000Y-111310000D01*
X131605000Y-83370000D02*
X133985000Y-85750000D01*
X196215000Y-112580000D02*
X196215000Y-122740000D01*
%TO.N,gnd*%
X190975000Y-98610000D02*
X190975000Y-96070000D01*
X146685000Y-94800000D02*
X147955000Y-93530000D01*
X147955000Y-66860000D02*
X149385000Y-66860000D01*
X156845000Y-69400000D02*
X155575000Y-68130000D01*
X198915000Y-126550000D02*
X197485000Y-125120000D01*
X197485000Y-71940000D02*
X196215000Y-70670000D01*
X197485000Y-93530000D02*
X198915000Y-93530000D01*
X179705000Y-122740000D02*
X180975000Y-121470000D01*
X173355000Y-69400000D02*
X172085000Y-68130000D01*
X188595000Y-92260000D02*
X189865000Y-90990000D01*
X173355000Y-118930000D02*
X174465000Y-118930000D01*
X122555000Y-124010000D02*
X121285000Y-122740000D01*
X128905000Y-94800000D02*
X128905000Y-74480000D01*
X179705000Y-97340000D02*
X179705000Y-94800000D01*
X189865000Y-69400000D02*
X188595000Y-68130000D01*
X147955000Y-98610000D02*
X146685000Y-97340000D01*
X172085000Y-122740000D02*
X172085000Y-120200000D01*
X121285000Y-122740000D02*
X121285000Y-120200000D01*
X123665000Y-71940000D02*
X123665000Y-69400000D01*
X139065000Y-68130000D02*
X139065000Y-65590000D01*
X188595000Y-68130000D02*
X188595000Y-65590000D01*
X130175000Y-121470000D02*
X128905000Y-122740000D01*
X123665000Y-98610000D02*
X123665000Y-96070000D01*
X190975000Y-69400000D02*
X189865000Y-69400000D01*
X164465000Y-66860000D02*
X165895000Y-66860000D01*
X141445000Y-69400000D02*
X140335000Y-69400000D01*
X122555000Y-69400000D02*
X121285000Y-68130000D01*
X157955000Y-69400000D02*
X156845000Y-69400000D01*
X123665000Y-96070000D02*
X122555000Y-96070000D01*
X130175000Y-126550000D02*
X128905000Y-125280000D01*
X174465000Y-96070000D02*
X173355000Y-96070000D01*
X197485000Y-98610000D02*
X196215000Y-97340000D01*
X163195000Y-68130000D02*
X164465000Y-66860000D01*
X139065000Y-94800000D02*
X139065000Y-92260000D01*
X146685000Y-122740000D02*
X147955000Y-121470000D01*
X123665000Y-124010000D02*
X122555000Y-124010000D01*
X121285000Y-92260000D02*
X122555000Y-90990000D01*
X198915000Y-98610000D02*
X197485000Y-98610000D01*
X196215000Y-94800000D02*
X197485000Y-93530000D01*
X146685000Y-125280000D02*
X146685000Y-122740000D01*
X179705000Y-94800000D02*
X180975000Y-93530000D01*
X139065000Y-65590000D02*
X140335000Y-64320000D01*
X131605000Y-126550000D02*
X130175000Y-126550000D01*
X173355000Y-90990000D02*
X174465000Y-90990000D01*
X121285000Y-94800000D02*
X121285000Y-92260000D01*
X189865000Y-90990000D02*
X190975000Y-90990000D01*
X179705000Y-70670000D02*
X179705000Y-68130000D01*
X146685000Y-68130000D02*
X147955000Y-66860000D01*
X141445000Y-126550000D02*
X141445000Y-124010000D01*
X139065000Y-120200000D02*
X140335000Y-118930000D01*
X157955000Y-71940000D02*
X157955000Y-69400000D01*
X180975000Y-66860000D02*
X182405000Y-66860000D01*
X197485000Y-66860000D02*
X198915000Y-66860000D01*
X188595000Y-65590000D02*
X189865000Y-64320000D01*
X146685000Y-70670000D02*
X146685000Y-68130000D01*
X128905000Y-101310000D02*
X128905000Y-94800000D01*
X172085000Y-65590000D02*
X173355000Y-64320000D01*
X173355000Y-96070000D02*
X172085000Y-94800000D01*
X122555000Y-96070000D02*
X121285000Y-94800000D01*
X139065000Y-92260000D02*
X140335000Y-90990000D01*
X179705000Y-68130000D02*
X180975000Y-66860000D01*
X122555000Y-90990000D02*
X123665000Y-90990000D01*
X149385000Y-126550000D02*
X147955000Y-126550000D01*
X140335000Y-64320000D02*
X141445000Y-64320000D01*
X128905000Y-69560000D02*
X131605000Y-66860000D01*
X141445000Y-96070000D02*
X140335000Y-96070000D01*
X131605000Y-71940000D02*
X129065000Y-74480000D01*
X140335000Y-118930000D02*
X141445000Y-118930000D01*
X179705000Y-125280000D02*
X179705000Y-122740000D01*
X141445000Y-124010000D02*
X140335000Y-124010000D01*
X196215000Y-97340000D02*
X196215000Y-94800000D01*
X182405000Y-71940000D02*
X180975000Y-71940000D01*
X121285000Y-120200000D02*
X122555000Y-118930000D01*
X131605000Y-121470000D02*
X130175000Y-121470000D01*
X173355000Y-124010000D02*
X172085000Y-122740000D01*
X140335000Y-96070000D02*
X139065000Y-94800000D01*
X147955000Y-121470000D02*
X149385000Y-121470000D01*
X189865000Y-64320000D02*
X190975000Y-64320000D01*
X180975000Y-121470000D02*
X182405000Y-121470000D01*
X140335000Y-124010000D02*
X139065000Y-122740000D01*
X122555000Y-118930000D02*
X123665000Y-118930000D01*
X173355000Y-64320000D02*
X174465000Y-64320000D01*
X188595000Y-120200000D02*
X189865000Y-118930000D01*
X129065000Y-74480000D02*
X128905000Y-74480000D01*
X140335000Y-90990000D02*
X141445000Y-90990000D01*
X190975000Y-71940000D02*
X190975000Y-69400000D01*
X155575000Y-68130000D02*
X155575000Y-65590000D01*
X165895000Y-71940000D02*
X164465000Y-71940000D01*
X141445000Y-98610000D02*
X141445000Y-96070000D01*
X128905000Y-101310000D02*
X131605000Y-98610000D01*
X174465000Y-126550000D02*
X174465000Y-124010000D01*
X174465000Y-98610000D02*
X174465000Y-96070000D01*
X190975000Y-126550000D02*
X190975000Y-124010000D01*
X147955000Y-126550000D02*
X146685000Y-125280000D01*
X189865000Y-124010000D02*
X188595000Y-122740000D01*
X121285000Y-65590000D02*
X122555000Y-64320000D01*
X128905000Y-94800000D02*
X130175000Y-93530000D01*
X189865000Y-96070000D02*
X188595000Y-94800000D01*
X147955000Y-93530000D02*
X149385000Y-93530000D01*
X188595000Y-122740000D02*
X188595000Y-120200000D01*
X172085000Y-120200000D02*
X173355000Y-118930000D01*
X121285000Y-68130000D02*
X121285000Y-65590000D01*
X182405000Y-126550000D02*
X180975000Y-126550000D01*
X163195000Y-70670000D02*
X163195000Y-68130000D01*
X196215000Y-70670000D02*
X196215000Y-68130000D01*
X155575000Y-65590000D02*
X156845000Y-64320000D01*
X146685000Y-97340000D02*
X146685000Y-94800000D01*
X130175000Y-93530000D02*
X131605000Y-93530000D01*
X123665000Y-69400000D02*
X122555000Y-69400000D01*
X149385000Y-71940000D02*
X147955000Y-71940000D01*
X156845000Y-64320000D02*
X157955000Y-64320000D01*
X128905000Y-125280000D02*
X128905000Y-122740000D01*
X147955000Y-71940000D02*
X146685000Y-70670000D01*
X182405000Y-98610000D02*
X180975000Y-98610000D01*
X141445000Y-71940000D02*
X141445000Y-69400000D01*
X190975000Y-124010000D02*
X189865000Y-124010000D01*
X190975000Y-96070000D02*
X189865000Y-96070000D01*
X189865000Y-118930000D02*
X190975000Y-118930000D01*
X196215000Y-68130000D02*
X197485000Y-66860000D01*
X123665000Y-126550000D02*
X123665000Y-124010000D01*
X188595000Y-94800000D02*
X188595000Y-92260000D01*
X164465000Y-71940000D02*
X163195000Y-70670000D01*
X174465000Y-124010000D02*
X173355000Y-124010000D01*
X180975000Y-98610000D02*
X179705000Y-97340000D01*
X180975000Y-93530000D02*
X182405000Y-93530000D01*
X174465000Y-69400000D02*
X173355000Y-69400000D01*
X149385000Y-98610000D02*
X147955000Y-98610000D01*
X180975000Y-71940000D02*
X179705000Y-70670000D01*
X197485000Y-125120000D02*
X197485000Y-122900000D01*
X140335000Y-69400000D02*
X139065000Y-68130000D01*
X128905000Y-122740000D02*
X128905000Y-101310000D01*
X180975000Y-126550000D02*
X179705000Y-125280000D01*
X172085000Y-68130000D02*
X172085000Y-65590000D01*
X122555000Y-64320000D02*
X123665000Y-64320000D01*
X174465000Y-71940000D02*
X174465000Y-69400000D01*
X128905000Y-74480000D02*
X128905000Y-69560000D01*
X198915000Y-71940000D02*
X197485000Y-71940000D01*
X172085000Y-94800000D02*
X172085000Y-92260000D01*
X197485000Y-122900000D02*
X198915000Y-121470000D01*
X172085000Y-92260000D02*
X173355000Y-90990000D01*
X139065000Y-122740000D02*
X139065000Y-120200000D01*
%TD*%
M02*
