M48
; DRILL file {KiCad (6.0.9)} date Thu Jun  5 13:52:27 2025
; FORMAT={-:-/ absolute / metric / decimal}
; #@! TF.CreationDate,2025-06-05T13:52:27-04:00
; #@! TF.GenerationSoftware,Kicad,Pcbnew,(6.0.9)
; #@! TF.FileFunction,Plated,1,2,PTH
FMAT,2
METRIC
; #@! TA.AperFunction,Plated,PTH,ViaDrill
T1C0.400
; #@! TA.AperFunction,Plated,PTH,ComponentDrill
T2C0.700
; #@! TA.AperFunction,Plated,PTH,ComponentDrill
T3C0.750
; #@! TA.AperFunction,Plated,PTH,ComponentDrill
T4C0.770
; #@! TA.AperFunction,Plated,PTH,ComponentDrill
T5C0.780
; #@! TA.AperFunction,Plated,PTH,ComponentDrill
T6C0.900
; #@! TA.AperFunction,Plated,PTH,ComponentDrill
T7C1.000
%
G90
G05
T1
X107.315Y-96.07
X107.315Y-101.15
X108.585Y-96.07
X109.855Y-113.85
X113.665Y-69.4
X116.205Y-59.24
X117.475Y-78.29
X117.475Y-83.37
X118.745Y-75.75
X118.745Y-102.42
X118.745Y-111.31
X120.015Y-85.91
X120.015Y-104.96
X120.015Y-116.39
X121.285Y-69.4
X121.285Y-104.96
X126.365Y-64.32
X126.365Y-66.86
X126.365Y-130.36
X127.635Y-75.75
X127.635Y-85.91
X127.635Y-122.74
X128.905Y-60.51
X128.905Y-66.86
X128.905Y-129.09
X133.985Y-59.24
X133.985Y-127.82
X135.255Y-84.64
X135.255Y-85.91
X135.255Y-96.07
X136.525Y-111.31
X136.525Y-113.85
X136.525Y-131.63
X137.795Y-54.16
X137.795Y-75.75
X137.795Y-121.47
X137.795Y-125.28
X138.43Y-132.355
X139.065Y-80.83
X139.065Y-84.64
X139.065Y-106.23
X140.335Y-75.75
X142.875Y-64.32
X144.145Y-79.56
X144.145Y-99.88
X144.145Y-121.47
X144.145Y-124.01
X146.685Y-106.23
X149.225Y-107.5
X150.495Y-77.02
X150.495Y-129.09
X151.765Y-66.86
X151.765Y-74.48
X151.765Y-117.66
X151.765Y-120.2
X151.765Y-127.82
X153.035Y-84.64
X153.035Y-102.42
X153.035Y-104.96
X154.305Y-54.16
X154.755Y-110.04
X155.575Y-121.47
X155.575Y-122.74
X156.845Y-102.42
X158.115Y-45.27
X159.385Y-70.67
X159.385Y-104.96
X160.655Y-64.32
X160.655Y-77.02
X160.655Y-87.18
X160.655Y-102.42
X160.655Y-110.04
X160.655Y-129.09
X161.925Y-79.56
X161.925Y-96.07
X163.195Y-87.18
X163.195Y-131.63
X164.465Y-98.61
X164.465Y-126.55
X168.275Y-66.86
X168.275Y-77.02
X168.275Y-84.64
X168.275Y-124.01
X169.545Y-74.48
X169.545Y-89.72
X169.545Y-93.53
X169.545Y-97.34
X169.545Y-103.69
X170.815Y-102.42
X170.815Y-118.93
X172.085Y-51.62
X173.355Y-54.16
X175.895Y-130.36
X177.165Y-73.21
X177.165Y-117.66
X178.435Y-65.59
X178.435Y-96.07
X178.435Y-97.34
X178.435Y-99.88
X178.435Y-121.47
X182.245Y-51.62
X184.785Y-66.86
X184.785Y-69.4
X184.785Y-73.21
X184.785Y-74.48
X184.785Y-78.29
X184.785Y-80.83
X184.785Y-88.45
X184.785Y-113.85
X186.055Y-74.48
X186.055Y-124.01
X187.325Y-54.16
X187.325Y-78.29
X187.325Y-102.42
X187.325Y-115.12
X188.595Y-99.88
X189.865Y-101.15
X191.135Y-103.69
X192.405Y-75.75
X192.405Y-111.31
X192.405Y-115.12
X193.675Y-106.23
X193.675Y-124.01
X194.945Y-88.45
X194.945Y-94.8
X194.945Y-104.96
X194.945Y-113.85
X194.945Y-117.66
X196.098Y-53.007
X196.215Y-75.75
X196.215Y-78.29
X196.215Y-90.99
X196.215Y-92.26
X196.215Y-107.5
X196.215Y-122.74
X200.025Y-75.75
X200.57Y-107.5
X201.295Y-92.26
X202.565Y-75.75
X202.565Y-90.99
X202.565Y-112.58
T2
X108.585Y-59.24
X108.585Y-64.32
X112.395Y-44.0
X112.395Y-49.08
X112.395Y-132.9
X112.395Y-137.98
X112.395Y-140.52
X114.935Y-42.73
X117.475Y-140.52
X120.015Y-42.73
X120.015Y-140.52
X122.555Y-42.73
X125.095Y-140.52
X127.635Y-42.73
X127.635Y-140.52
X130.175Y-42.73
X132.715Y-140.52
X135.255Y-42.73
X135.255Y-140.52
X137.795Y-42.73
X140.335Y-140.52
X142.875Y-42.73
X142.875Y-140.52
X145.415Y-42.73
X147.955Y-140.52
X150.495Y-42.73
X150.495Y-140.52
X153.035Y-42.73
X155.575Y-140.52
X158.115Y-42.73
X158.115Y-140.52
X160.655Y-42.73
X163.195Y-140.52
X165.735Y-42.73
X165.735Y-140.52
X168.275Y-42.73
X170.815Y-140.52
X173.355Y-42.73
X173.355Y-140.52
X175.895Y-42.73
X178.435Y-140.52
X180.975Y-42.73
X180.975Y-140.52
X183.515Y-42.73
X186.055Y-140.52
X188.595Y-42.73
X188.595Y-140.52
X191.135Y-42.73
X193.675Y-140.52
X196.215Y-42.73
X196.215Y-140.52
X200.025Y-44.0
X200.025Y-49.08
X201.295Y-132.9
X201.295Y-137.98
X201.295Y-140.52
T3
X112.395Y-55.43
X112.395Y-64.32
X112.395Y-73.21
X112.395Y-82.1
X112.395Y-90.99
X112.395Y-99.88
X112.395Y-108.77
X112.395Y-117.66
X113.665Y-55.43
X113.665Y-64.32
X113.665Y-73.21
X113.665Y-82.1
X113.665Y-90.99
X113.665Y-99.88
X113.665Y-108.77
X113.665Y-117.66
X114.935Y-55.43
X114.935Y-64.32
X114.935Y-73.21
X114.935Y-82.1
X114.935Y-90.99
X114.935Y-99.88
X114.935Y-108.77
X114.935Y-117.66
T4
X123.665Y-56.7
X123.665Y-59.24
X123.665Y-61.78
X123.665Y-64.32
X123.665Y-66.86
X123.665Y-69.4
X123.665Y-71.94
X123.665Y-83.37
X123.665Y-85.91
X123.665Y-88.45
X123.665Y-90.99
X123.665Y-93.53
X123.665Y-96.07
X123.665Y-98.61
X123.665Y-111.31
X123.665Y-113.85
X123.665Y-116.39
X123.665Y-118.93
X123.665Y-121.47
X123.665Y-124.01
X123.665Y-126.55
X131.605Y-56.7
X131.605Y-59.24
X131.605Y-61.78
X131.605Y-64.32
X131.605Y-66.86
X131.605Y-69.4
X131.605Y-71.94
X131.605Y-83.37
X131.605Y-85.91
X131.605Y-88.45
X131.605Y-90.99
X131.605Y-93.53
X131.605Y-96.07
X131.605Y-98.61
X131.605Y-111.31
X131.605Y-113.85
X131.605Y-116.39
X131.605Y-118.93
X131.605Y-121.47
X131.605Y-124.01
X131.605Y-126.55
X141.445Y-56.7
X141.445Y-59.24
X141.445Y-61.78
X141.445Y-64.32
X141.445Y-66.86
X141.445Y-69.4
X141.445Y-71.94
X141.445Y-83.37
X141.445Y-85.91
X141.445Y-88.45
X141.445Y-90.99
X141.445Y-93.53
X141.445Y-96.07
X141.445Y-98.61
X141.445Y-111.31
X141.445Y-113.85
X141.445Y-116.39
X141.445Y-118.93
X141.445Y-121.47
X141.445Y-124.01
X141.445Y-126.55
X149.385Y-56.7
X149.385Y-59.24
X149.385Y-61.78
X149.385Y-64.32
X149.385Y-66.86
X149.385Y-69.4
X149.385Y-71.94
X149.385Y-83.37
X149.385Y-85.91
X149.385Y-88.45
X149.385Y-90.99
X149.385Y-93.53
X149.385Y-96.07
X149.385Y-98.61
X149.385Y-111.31
X149.385Y-113.85
X149.385Y-116.39
X149.385Y-118.93
X149.385Y-121.47
X149.385Y-124.01
X149.385Y-126.55
X157.955Y-56.7
X157.955Y-59.24
X157.955Y-61.78
X157.955Y-64.32
X157.955Y-66.86
X157.955Y-69.4
X157.955Y-71.94
X165.895Y-56.7
X165.895Y-59.24
X165.895Y-61.78
X165.895Y-64.32
X165.895Y-66.86
X165.895Y-69.4
X165.895Y-71.94
X174.465Y-56.7
X174.465Y-59.24
X174.465Y-61.78
X174.465Y-64.32
X174.465Y-66.86
X174.465Y-69.4
X174.465Y-71.94
X174.465Y-83.37
X174.465Y-85.91
X174.465Y-88.45
X174.465Y-90.99
X174.465Y-93.53
X174.465Y-96.07
X174.465Y-98.61
X174.465Y-111.31
X174.465Y-113.85
X174.465Y-116.39
X174.465Y-118.93
X174.465Y-121.47
X174.465Y-124.01
X174.465Y-126.55
X182.405Y-56.7
X182.405Y-59.24
X182.405Y-61.78
X182.405Y-64.32
X182.405Y-66.86
X182.405Y-69.4
X182.405Y-71.94
X182.405Y-83.37
X182.405Y-85.91
X182.405Y-88.45
X182.405Y-90.99
X182.405Y-93.53
X182.405Y-96.07
X182.405Y-98.61
X182.405Y-111.31
X182.405Y-113.85
X182.405Y-116.39
X182.405Y-118.93
X182.405Y-121.47
X182.405Y-124.01
X182.405Y-126.55
X190.975Y-56.7
X190.975Y-59.24
X190.975Y-61.78
X190.975Y-64.32
X190.975Y-66.86
X190.975Y-69.4
X190.975Y-71.94
X190.975Y-83.37
X190.975Y-85.91
X190.975Y-88.45
X190.975Y-90.99
X190.975Y-93.53
X190.975Y-96.07
X190.975Y-98.61
X190.975Y-111.31
X190.975Y-113.85
X190.975Y-116.39
X190.975Y-118.93
X190.975Y-121.47
X190.975Y-124.01
X190.975Y-126.55
X198.915Y-56.7
X198.915Y-59.24
X198.915Y-61.78
X198.915Y-64.32
X198.915Y-66.86
X198.915Y-69.4
X198.915Y-71.94
X198.915Y-83.37
X198.915Y-85.91
X198.915Y-88.45
X198.915Y-90.99
X198.915Y-93.53
X198.915Y-96.07
X198.915Y-98.61
X198.915Y-111.31
X198.915Y-113.85
X198.915Y-116.39
X198.915Y-118.93
X198.915Y-121.47
X198.915Y-124.01
X198.915Y-126.55
T5
X157.955Y-82.1
X157.955Y-84.64
X157.955Y-87.18
X157.955Y-89.72
X157.955Y-92.26
X157.955Y-94.8
X157.955Y-97.34
X157.955Y-99.88
X157.955Y-110.04
X157.955Y-112.58
X157.955Y-115.12
X157.955Y-117.66
X157.955Y-120.2
X157.955Y-122.74
X157.955Y-125.28
X157.955Y-127.82
X165.895Y-82.1
X165.895Y-84.64
X165.895Y-87.18
X165.895Y-89.72
X165.895Y-92.26
X165.895Y-94.8
X165.895Y-97.34
X165.895Y-99.88
X165.895Y-110.04
X165.895Y-112.58
X165.895Y-115.12
X165.895Y-117.66
X165.895Y-120.2
X165.895Y-122.74
X165.895Y-125.28
X165.895Y-127.82
T6
X112.395Y-126.55
X112.395Y-129.09
X117.358Y-48.89
X117.475Y-135.44
X119.898Y-48.89
X120.015Y-135.44
X123.708Y-48.89
X123.825Y-135.44
X126.248Y-48.89
X126.365Y-135.44
X130.058Y-48.89
X130.175Y-135.44
X132.598Y-48.89
X132.715Y-135.44
X136.408Y-48.89
X136.525Y-135.44
X138.948Y-48.89
X139.065Y-135.44
X142.758Y-48.89
X142.875Y-135.44
X145.298Y-48.89
X145.415Y-135.44
X149.108Y-48.89
X149.225Y-135.44
X151.648Y-48.89
X151.765Y-135.44
X155.458Y-48.89
X155.575Y-135.44
X157.998Y-48.89
X158.115Y-135.44
X161.808Y-48.89
X161.925Y-135.44
X164.348Y-48.89
X164.465Y-135.44
X168.158Y-48.89
X168.275Y-135.44
X170.698Y-48.89
X170.815Y-135.44
X174.508Y-48.89
X174.625Y-135.44
X177.048Y-48.89
X177.165Y-135.44
X180.858Y-48.89
X180.975Y-135.44
X183.398Y-48.89
X183.515Y-135.44
X187.208Y-48.89
X187.325Y-135.44
X189.748Y-48.89
X189.865Y-135.44
X193.558Y-48.89
X193.675Y-135.44
X196.098Y-48.89
X196.215Y-135.44
T7
X204.54Y-57.97
X204.54Y-60.51
X204.54Y-63.05
X204.54Y-65.59
X204.54Y-68.13
X204.54Y-70.67
X204.54Y-73.21
X204.54Y-75.75
X204.54Y-78.29
X204.54Y-80.83
X204.54Y-83.37
X204.54Y-85.91
X204.54Y-88.45
X204.54Y-90.99
X204.54Y-93.53
X204.54Y-96.07
X204.54Y-98.61
X204.54Y-101.15
X204.54Y-103.69
X204.54Y-106.23
X204.54Y-108.77
X204.54Y-111.31
X204.54Y-113.85
X204.54Y-116.39
X204.54Y-118.93
X204.54Y-121.47
X204.54Y-124.01
T0
M30
