%TF.GenerationSoftware,KiCad,Pcbnew,(6.0.9)*%
%TF.CreationDate,2025-06-05T13:51:01-04:00*%
%TF.ProjectId,ShiftRegisterPrototypeV2,53686966-7452-4656-9769-737465725072,V2*%
%TF.SameCoordinates,Original*%
%TF.FileFunction,Soldermask,Bot*%
%TF.FilePolarity,Negative*%
%FSLAX46Y46*%
G04 Gerber Fmt 4.6, Leading zero omitted, Abs format (unit mm)*
G04 Created by KiCad (PCBNEW (6.0.9)) date 2025-06-05 13:51:01*
%MOMM*%
%LPD*%
G01*
G04 APERTURE LIST*
G04 Aperture macros list*
%AMRoundRect*
0 Rectangle with rounded corners*
0 $1 Rounding radius*
0 $2 $3 $4 $5 $6 $7 $8 $9 X,Y pos of 4 corners*
0 Add a 4 corners polygon primitive as box body*
4,1,4,$2,$3,$4,$5,$6,$7,$8,$9,$2,$3,0*
0 Add four circle primitives for the rounded corners*
1,1,$1+$1,$2,$3*
1,1,$1+$1,$4,$5*
1,1,$1+$1,$6,$7*
1,1,$1+$1,$8,$9*
0 Add four rect primitives between the rounded corners*
20,1,$1+$1,$2,$3,$4,$5,0*
20,1,$1+$1,$4,$5,$6,$7,0*
20,1,$1+$1,$6,$7,$8,$9,0*
20,1,$1+$1,$8,$9,$2,$3,0*%
G04 Aperture macros list end*
%ADD10RoundRect,0.102000X-0.585000X-0.585000X0.585000X-0.585000X0.585000X0.585000X-0.585000X0.585000X0*%
%ADD11C,1.374000*%
%ADD12R,1.050000X1.500000*%
%ADD13O,1.050000X1.500000*%
%ADD14R,1.800000X1.800000*%
%ADD15C,1.800000*%
%ADD16C,1.400000*%
%ADD17O,1.400000X1.400000*%
%ADD18RoundRect,0.102000X-0.565000X-0.565000X0.565000X-0.565000X0.565000X0.565000X-0.565000X0.565000X0*%
%ADD19C,1.334000*%
%ADD20R,1.700000X1.700000*%
%ADD21O,1.700000X1.700000*%
G04 APERTURE END LIST*
D10*
%TO.C,U3*%
X157955000Y-56700000D03*
D11*
X157955000Y-59240000D03*
X157955000Y-61780000D03*
X157955000Y-64320000D03*
X157955000Y-66860000D03*
X157955000Y-69400000D03*
X157955000Y-71940000D03*
X165895000Y-71940000D03*
X165895000Y-69400000D03*
X165895000Y-66860000D03*
X165895000Y-64320000D03*
X165895000Y-61780000D03*
X165895000Y-59240000D03*
X165895000Y-56700000D03*
%TD*%
D10*
%TO.C,U12*%
X141445000Y-111310000D03*
D11*
X141445000Y-113850000D03*
X141445000Y-116390000D03*
X141445000Y-118930000D03*
X141445000Y-121470000D03*
X141445000Y-124010000D03*
X141445000Y-126550000D03*
X149385000Y-126550000D03*
X149385000Y-124010000D03*
X149385000Y-121470000D03*
X149385000Y-118930000D03*
X149385000Y-116390000D03*
X149385000Y-113850000D03*
X149385000Y-111310000D03*
%TD*%
D12*
%TO.C,Q7*%
X112395000Y-73210000D03*
D13*
X113665000Y-73210000D03*
X114935000Y-73210000D03*
%TD*%
D10*
%TO.C,U4*%
X174465000Y-56700000D03*
D11*
X174465000Y-59240000D03*
X174465000Y-61780000D03*
X174465000Y-64320000D03*
X174465000Y-66860000D03*
X174465000Y-69400000D03*
X174465000Y-71940000D03*
X182405000Y-71940000D03*
X182405000Y-69400000D03*
X182405000Y-66860000D03*
X182405000Y-64320000D03*
X182405000Y-61780000D03*
X182405000Y-59240000D03*
X182405000Y-56700000D03*
%TD*%
D12*
%TO.C,Q4*%
X112395000Y-90990000D03*
D13*
X113665000Y-90990000D03*
X114935000Y-90990000D03*
%TD*%
D14*
%TO.C,D12*%
X149108465Y-48890000D03*
D15*
X151648465Y-48890000D03*
%TD*%
D14*
%TO.C,D16*%
X161808465Y-48890000D03*
D15*
X164348465Y-48890000D03*
%TD*%
D10*
%TO.C,U7*%
X174465000Y-83370000D03*
D11*
X174465000Y-85910000D03*
X174465000Y-88450000D03*
X174465000Y-90990000D03*
X174465000Y-93530000D03*
X174465000Y-96070000D03*
X174465000Y-98610000D03*
X182405000Y-98610000D03*
X182405000Y-96070000D03*
X182405000Y-93530000D03*
X182405000Y-90990000D03*
X182405000Y-88450000D03*
X182405000Y-85910000D03*
X182405000Y-83370000D03*
%TD*%
D10*
%TO.C,U10*%
X123665000Y-83370000D03*
D11*
X123665000Y-85910000D03*
X123665000Y-88450000D03*
X123665000Y-90990000D03*
X123665000Y-93530000D03*
X123665000Y-96070000D03*
X123665000Y-98610000D03*
X131605000Y-98610000D03*
X131605000Y-96070000D03*
X131605000Y-93530000D03*
X131605000Y-90990000D03*
X131605000Y-88450000D03*
X131605000Y-85910000D03*
X131605000Y-83370000D03*
%TD*%
D16*
%TO.C,R11*%
X142875000Y-140520000D03*
D17*
X147955000Y-140520000D03*
%TD*%
D14*
%TO.C,D22*%
X180858465Y-48890000D03*
D15*
X183398465Y-48890000D03*
%TD*%
D16*
%TO.C,R10*%
X137795000Y-42730000D03*
D17*
X142875000Y-42730000D03*
%TD*%
D14*
%TO.C,D9*%
X136525000Y-135440000D03*
D15*
X139065000Y-135440000D03*
%TD*%
D16*
%TO.C,R6*%
X122555000Y-42730000D03*
D17*
X127635000Y-42730000D03*
%TD*%
D14*
%TO.C,D21*%
X174625000Y-135440000D03*
D15*
X177165000Y-135440000D03*
%TD*%
D16*
%TO.C,R5*%
X120015000Y-140520000D03*
D17*
X125095000Y-140520000D03*
%TD*%
D12*
%TO.C,Q1*%
X112395000Y-117660000D03*
D13*
X113665000Y-117660000D03*
X114935000Y-117660000D03*
%TD*%
D16*
%TO.C,R1*%
X112395000Y-137980000D03*
D17*
X112395000Y-132900000D03*
%TD*%
D14*
%TO.C,D5*%
X123825000Y-135440000D03*
D15*
X126365000Y-135440000D03*
%TD*%
D14*
%TO.C,D3*%
X117475000Y-135440000D03*
D15*
X120015000Y-135440000D03*
%TD*%
D10*
%TO.C,U1*%
X123665000Y-56700000D03*
D11*
X123665000Y-59240000D03*
X123665000Y-61780000D03*
X123665000Y-64320000D03*
X123665000Y-66860000D03*
X123665000Y-69400000D03*
X123665000Y-71940000D03*
X131605000Y-71940000D03*
X131605000Y-69400000D03*
X131605000Y-66860000D03*
X131605000Y-64320000D03*
X131605000Y-61780000D03*
X131605000Y-59240000D03*
X131605000Y-56700000D03*
%TD*%
D16*
%TO.C,R27*%
X201295000Y-137980000D03*
D17*
X201295000Y-132900000D03*
%TD*%
D16*
%TO.C,R2*%
X112395000Y-44000000D03*
D17*
X112395000Y-49080000D03*
%TD*%
D14*
%TO.C,D4*%
X123708465Y-48890000D03*
D15*
X126248465Y-48890000D03*
%TD*%
D18*
%TO.C,U8*%
X157955000Y-82100000D03*
D19*
X157955000Y-84640000D03*
X157955000Y-87180000D03*
X157955000Y-89720000D03*
X157955000Y-92260000D03*
X157955000Y-94800000D03*
X157955000Y-97340000D03*
X157955000Y-99880000D03*
X165895000Y-99880000D03*
X165895000Y-97340000D03*
X165895000Y-94800000D03*
X165895000Y-92260000D03*
X165895000Y-89720000D03*
X165895000Y-87180000D03*
X165895000Y-84640000D03*
X165895000Y-82100000D03*
%TD*%
D14*
%TO.C,D10*%
X142758465Y-48890000D03*
D15*
X145298465Y-48890000D03*
%TD*%
D10*
%TO.C,U15*%
X190975000Y-111310000D03*
D11*
X190975000Y-113850000D03*
X190975000Y-116390000D03*
X190975000Y-118930000D03*
X190975000Y-121470000D03*
X190975000Y-124010000D03*
X190975000Y-126550000D03*
X198915000Y-126550000D03*
X198915000Y-124010000D03*
X198915000Y-121470000D03*
X198915000Y-118930000D03*
X198915000Y-116390000D03*
X198915000Y-113850000D03*
X198915000Y-111310000D03*
%TD*%
D14*
%TO.C,D7*%
X130175000Y-135440000D03*
D15*
X132715000Y-135440000D03*
%TD*%
D14*
%TO.C,D26*%
X193558465Y-48890000D03*
D15*
X196098465Y-48890000D03*
%TD*%
D14*
%TO.C,D13*%
X149225000Y-135440000D03*
D15*
X151765000Y-135440000D03*
%TD*%
D16*
%TO.C,R24*%
X191135000Y-42730000D03*
D17*
X196215000Y-42730000D03*
%TD*%
D16*
%TO.C,R20*%
X175895000Y-42730000D03*
D17*
X180975000Y-42730000D03*
%TD*%
D14*
%TO.C,D8*%
X136408465Y-48890000D03*
D15*
X138948465Y-48890000D03*
%TD*%
D14*
%TO.C,D23*%
X180975000Y-135440000D03*
D15*
X183515000Y-135440000D03*
%TD*%
D14*
%TO.C,D27*%
X193675000Y-135440000D03*
D15*
X196215000Y-135440000D03*
%TD*%
D12*
%TO.C,Q8*%
X112395000Y-55430000D03*
D13*
X113665000Y-55430000D03*
X114935000Y-55430000D03*
%TD*%
D16*
%TO.C,R26*%
X200025000Y-44000000D03*
D17*
X200025000Y-49080000D03*
%TD*%
D10*
%TO.C,U11*%
X123665000Y-111310000D03*
D11*
X123665000Y-113850000D03*
X123665000Y-116390000D03*
X123665000Y-118930000D03*
X123665000Y-121470000D03*
X123665000Y-124010000D03*
X123665000Y-126550000D03*
X131605000Y-126550000D03*
X131605000Y-124010000D03*
X131605000Y-121470000D03*
X131605000Y-118930000D03*
X131605000Y-116390000D03*
X131605000Y-113850000D03*
X131605000Y-111310000D03*
%TD*%
D12*
%TO.C,Q3*%
X112395000Y-64320000D03*
D13*
X113665000Y-64320000D03*
X114935000Y-64320000D03*
%TD*%
D14*
%TO.C,D18*%
X168158465Y-48890000D03*
D15*
X170698465Y-48890000D03*
%TD*%
D16*
%TO.C,R3*%
X112395000Y-140520000D03*
D17*
X117475000Y-140520000D03*
%TD*%
D16*
%TO.C,R18*%
X168275000Y-42730000D03*
D17*
X173355000Y-42730000D03*
%TD*%
D16*
%TO.C,R16*%
X160655000Y-42730000D03*
D17*
X165735000Y-42730000D03*
%TD*%
D16*
%TO.C,R23*%
X188595000Y-140520000D03*
D17*
X193675000Y-140520000D03*
%TD*%
D10*
%TO.C,U14*%
X174465000Y-111310000D03*
D11*
X174465000Y-113850000D03*
X174465000Y-116390000D03*
X174465000Y-118930000D03*
X174465000Y-121470000D03*
X174465000Y-124010000D03*
X174465000Y-126550000D03*
X182405000Y-126550000D03*
X182405000Y-124010000D03*
X182405000Y-121470000D03*
X182405000Y-118930000D03*
X182405000Y-116390000D03*
X182405000Y-113850000D03*
X182405000Y-111310000D03*
%TD*%
D16*
%TO.C,R9*%
X135255000Y-140520000D03*
D17*
X140335000Y-140520000D03*
%TD*%
D10*
%TO.C,U9*%
X141445000Y-83370000D03*
D11*
X141445000Y-85910000D03*
X141445000Y-88450000D03*
X141445000Y-90990000D03*
X141445000Y-93530000D03*
X141445000Y-96070000D03*
X141445000Y-98610000D03*
X149385000Y-98610000D03*
X149385000Y-96070000D03*
X149385000Y-93530000D03*
X149385000Y-90990000D03*
X149385000Y-88450000D03*
X149385000Y-85910000D03*
X149385000Y-83370000D03*
%TD*%
D14*
%TO.C,D2*%
X117358465Y-48890000D03*
D15*
X119898465Y-48890000D03*
%TD*%
D16*
%TO.C,R4*%
X114935000Y-42730000D03*
D17*
X120015000Y-42730000D03*
%TD*%
D12*
%TO.C,Q2*%
X112395000Y-108770000D03*
D13*
X113665000Y-108770000D03*
X114935000Y-108770000D03*
%TD*%
D16*
%TO.C,R22*%
X183515000Y-42730000D03*
D17*
X188595000Y-42730000D03*
%TD*%
D18*
%TO.C,U13*%
X157955000Y-110040000D03*
D19*
X157955000Y-112580000D03*
X157955000Y-115120000D03*
X157955000Y-117660000D03*
X157955000Y-120200000D03*
X157955000Y-122740000D03*
X157955000Y-125280000D03*
X157955000Y-127820000D03*
X165895000Y-127820000D03*
X165895000Y-125280000D03*
X165895000Y-122740000D03*
X165895000Y-120200000D03*
X165895000Y-117660000D03*
X165895000Y-115120000D03*
X165895000Y-112580000D03*
X165895000Y-110040000D03*
%TD*%
D14*
%TO.C,D6*%
X130058465Y-48890000D03*
D15*
X132598465Y-48890000D03*
%TD*%
D16*
%TO.C,R28*%
X108585000Y-64320000D03*
D17*
X108585000Y-59240000D03*
%TD*%
D14*
%TO.C,D24*%
X187208465Y-48890000D03*
D15*
X189748465Y-48890000D03*
%TD*%
D16*
%TO.C,R7*%
X127635000Y-140520000D03*
D17*
X132715000Y-140520000D03*
%TD*%
D20*
%TO.C,J1*%
X204540000Y-57970000D03*
D21*
X204540000Y-60510000D03*
X204540000Y-63050000D03*
X204540000Y-65590000D03*
X204540000Y-68130000D03*
X204540000Y-70670000D03*
X204540000Y-73210000D03*
X204540000Y-75750000D03*
X204540000Y-78290000D03*
X204540000Y-80830000D03*
X204540000Y-83370000D03*
X204540000Y-85910000D03*
X204540000Y-88450000D03*
X204540000Y-90990000D03*
X204540000Y-93530000D03*
X204540000Y-96070000D03*
X204540000Y-98610000D03*
X204540000Y-101150000D03*
X204540000Y-103690000D03*
X204540000Y-106230000D03*
X204540000Y-108770000D03*
X204540000Y-111310000D03*
X204540000Y-113850000D03*
X204540000Y-116390000D03*
X204540000Y-118930000D03*
X204540000Y-121470000D03*
X204540000Y-124010000D03*
%TD*%
D12*
%TO.C,Q5*%
X112395000Y-99880000D03*
D13*
X113665000Y-99880000D03*
X114935000Y-99880000D03*
%TD*%
D14*
%TO.C,D14*%
X155458465Y-48890000D03*
D15*
X157998465Y-48890000D03*
%TD*%
D16*
%TO.C,R13*%
X150495000Y-140520000D03*
D17*
X155575000Y-140520000D03*
%TD*%
D16*
%TO.C,R12*%
X145415000Y-42730000D03*
D17*
X150495000Y-42730000D03*
%TD*%
D14*
%TO.C,D1*%
X112395000Y-129090000D03*
D15*
X112395000Y-126550000D03*
%TD*%
D10*
%TO.C,U2*%
X141445000Y-56700000D03*
D11*
X141445000Y-59240000D03*
X141445000Y-61780000D03*
X141445000Y-64320000D03*
X141445000Y-66860000D03*
X141445000Y-69400000D03*
X141445000Y-71940000D03*
X149385000Y-71940000D03*
X149385000Y-69400000D03*
X149385000Y-66860000D03*
X149385000Y-64320000D03*
X149385000Y-61780000D03*
X149385000Y-59240000D03*
X149385000Y-56700000D03*
%TD*%
D16*
%TO.C,R14*%
X153035000Y-42730000D03*
D17*
X158115000Y-42730000D03*
%TD*%
D10*
%TO.C,U5*%
X190975000Y-56700000D03*
D11*
X190975000Y-59240000D03*
X190975000Y-61780000D03*
X190975000Y-64320000D03*
X190975000Y-66860000D03*
X190975000Y-69400000D03*
X190975000Y-71940000D03*
X198915000Y-71940000D03*
X198915000Y-69400000D03*
X198915000Y-66860000D03*
X198915000Y-64320000D03*
X198915000Y-61780000D03*
X198915000Y-59240000D03*
X198915000Y-56700000D03*
%TD*%
D16*
%TO.C,R17*%
X165735000Y-140520000D03*
D17*
X170815000Y-140520000D03*
%TD*%
D14*
%TO.C,D25*%
X187325000Y-135440000D03*
D15*
X189865000Y-135440000D03*
%TD*%
D14*
%TO.C,D17*%
X161925000Y-135440000D03*
D15*
X164465000Y-135440000D03*
%TD*%
D16*
%TO.C,R8*%
X130175000Y-42730000D03*
D17*
X135255000Y-42730000D03*
%TD*%
D10*
%TO.C,U6*%
X190975000Y-83370000D03*
D11*
X190975000Y-85910000D03*
X190975000Y-88450000D03*
X190975000Y-90990000D03*
X190975000Y-93530000D03*
X190975000Y-96070000D03*
X190975000Y-98610000D03*
X198915000Y-98610000D03*
X198915000Y-96070000D03*
X198915000Y-93530000D03*
X198915000Y-90990000D03*
X198915000Y-88450000D03*
X198915000Y-85910000D03*
X198915000Y-83370000D03*
%TD*%
D16*
%TO.C,R19*%
X173355000Y-140520000D03*
D17*
X178435000Y-140520000D03*
%TD*%
D16*
%TO.C,R15*%
X158115000Y-140520000D03*
D17*
X163195000Y-140520000D03*
%TD*%
D14*
%TO.C,D20*%
X174508465Y-48890000D03*
D15*
X177048465Y-48890000D03*
%TD*%
D14*
%TO.C,D19*%
X168275000Y-135440000D03*
D15*
X170815000Y-135440000D03*
%TD*%
D16*
%TO.C,R25*%
X196215000Y-140520000D03*
D17*
X201295000Y-140520000D03*
%TD*%
D12*
%TO.C,Q6*%
X112395000Y-82100000D03*
D13*
X113665000Y-82100000D03*
X114935000Y-82100000D03*
%TD*%
D14*
%TO.C,D11*%
X142875000Y-135440000D03*
D15*
X145415000Y-135440000D03*
%TD*%
D14*
%TO.C,D15*%
X155575000Y-135440000D03*
D15*
X158115000Y-135440000D03*
%TD*%
D16*
%TO.C,R21*%
X180975000Y-140520000D03*
D17*
X186055000Y-140520000D03*
%TD*%
M02*
