%TF.GenerationSoftware,KiCad,Pcbnew,(6.0.9)*%
%TF.CreationDate,2025-06-05T13:51:01-04:00*%
%TF.ProjectId,ShiftRegisterPrototypeV2,53686966-7452-4656-9769-737465725072,V2*%
%TF.SameCoordinates,Original*%
%TF.FileFunction,Legend,Top*%
%TF.FilePolarity,Positive*%
%FSLAX46Y46*%
G04 Gerber Fmt 4.6, Leading zero omitted, Abs format (unit mm)*
G04 Created by KiCad (PCBNEW (6.0.9)) date 2025-06-05 13:51:01*
%MOMM*%
%LPD*%
G01*
G04 APERTURE LIST*
G04 Aperture macros list*
%AMRoundRect*
0 Rectangle with rounded corners*
0 $1 Rounding radius*
0 $2 $3 $4 $5 $6 $7 $8 $9 X,Y pos of 4 corners*
0 Add a 4 corners polygon primitive as box body*
4,1,4,$2,$3,$4,$5,$6,$7,$8,$9,$2,$3,0*
0 Add four circle primitives for the rounded corners*
1,1,$1+$1,$2,$3*
1,1,$1+$1,$4,$5*
1,1,$1+$1,$6,$7*
1,1,$1+$1,$8,$9*
0 Add four rect primitives between the rounded corners*
20,1,$1+$1,$2,$3,$4,$5,0*
20,1,$1+$1,$4,$5,$6,$7,0*
20,1,$1+$1,$6,$7,$8,$9,0*
20,1,$1+$1,$8,$9,$2,$3,0*%
G04 Aperture macros list end*
%ADD10C,0.150000*%
%ADD11C,0.300000*%
%ADD12C,0.127000*%
%ADD13C,0.200000*%
%ADD14C,0.120000*%
%ADD15RoundRect,0.102000X-0.585000X-0.585000X0.585000X-0.585000X0.585000X0.585000X-0.585000X0.585000X0*%
%ADD16C,1.374000*%
%ADD17R,1.050000X1.500000*%
%ADD18O,1.050000X1.500000*%
%ADD19R,1.800000X1.800000*%
%ADD20C,1.800000*%
%ADD21C,1.400000*%
%ADD22O,1.400000X1.400000*%
%ADD23RoundRect,0.102000X-0.565000X-0.565000X0.565000X-0.565000X0.565000X0.565000X-0.565000X0.565000X0*%
%ADD24C,1.334000*%
%ADD25R,1.700000X1.700000*%
%ADD26O,1.700000X1.700000*%
G04 APERTURE END LIST*
D10*
X116809523Y-53744761D02*
X116952380Y-53792380D01*
X117190476Y-53792380D01*
X117285714Y-53744761D01*
X117333333Y-53697142D01*
X117380952Y-53601904D01*
X117380952Y-53506666D01*
X117333333Y-53411428D01*
X117285714Y-53363809D01*
X117190476Y-53316190D01*
X117000000Y-53268571D01*
X116904761Y-53220952D01*
X116857142Y-53173333D01*
X116809523Y-53078095D01*
X116809523Y-52982857D01*
X116857142Y-52887619D01*
X116904761Y-52840000D01*
X117000000Y-52792380D01*
X117238095Y-52792380D01*
X117380952Y-52840000D01*
X117809523Y-53792380D02*
X117809523Y-52792380D01*
X118238095Y-53792380D02*
X118238095Y-53268571D01*
X118190476Y-53173333D01*
X118095238Y-53125714D01*
X117952380Y-53125714D01*
X117857142Y-53173333D01*
X117809523Y-53220952D01*
X118714285Y-53792380D02*
X118714285Y-53125714D01*
X118714285Y-52792380D02*
X118666666Y-52840000D01*
X118714285Y-52887619D01*
X118761904Y-52840000D01*
X118714285Y-52792380D01*
X118714285Y-52887619D01*
X119047619Y-53125714D02*
X119428571Y-53125714D01*
X119190476Y-53792380D02*
X119190476Y-52935238D01*
X119238095Y-52840000D01*
X119333333Y-52792380D01*
X119428571Y-52792380D01*
X119619047Y-53125714D02*
X120000000Y-53125714D01*
X119761904Y-52792380D02*
X119761904Y-53649523D01*
X119809523Y-53744761D01*
X119904761Y-53792380D01*
X120000000Y-53792380D01*
X121666666Y-53792380D02*
X121333333Y-53316190D01*
X121095238Y-53792380D02*
X121095238Y-52792380D01*
X121476190Y-52792380D01*
X121571428Y-52840000D01*
X121619047Y-52887619D01*
X121666666Y-52982857D01*
X121666666Y-53125714D01*
X121619047Y-53220952D01*
X121571428Y-53268571D01*
X121476190Y-53316190D01*
X121095238Y-53316190D01*
X122476190Y-53744761D02*
X122380952Y-53792380D01*
X122190476Y-53792380D01*
X122095238Y-53744761D01*
X122047619Y-53649523D01*
X122047619Y-53268571D01*
X122095238Y-53173333D01*
X122190476Y-53125714D01*
X122380952Y-53125714D01*
X122476190Y-53173333D01*
X122523809Y-53268571D01*
X122523809Y-53363809D01*
X122047619Y-53459047D01*
X123380952Y-53125714D02*
X123380952Y-53935238D01*
X123333333Y-54030476D01*
X123285714Y-54078095D01*
X123190476Y-54125714D01*
X123047619Y-54125714D01*
X122952380Y-54078095D01*
X123380952Y-53744761D02*
X123285714Y-53792380D01*
X123095238Y-53792380D01*
X123000000Y-53744761D01*
X122952380Y-53697142D01*
X122904761Y-53601904D01*
X122904761Y-53316190D01*
X122952380Y-53220952D01*
X123000000Y-53173333D01*
X123095238Y-53125714D01*
X123285714Y-53125714D01*
X123380952Y-53173333D01*
X123857142Y-53792380D02*
X123857142Y-53125714D01*
X123857142Y-52792380D02*
X123809523Y-52840000D01*
X123857142Y-52887619D01*
X123904761Y-52840000D01*
X123857142Y-52792380D01*
X123857142Y-52887619D01*
X124285714Y-53744761D02*
X124380952Y-53792380D01*
X124571428Y-53792380D01*
X124666666Y-53744761D01*
X124714285Y-53649523D01*
X124714285Y-53601904D01*
X124666666Y-53506666D01*
X124571428Y-53459047D01*
X124428571Y-53459047D01*
X124333333Y-53411428D01*
X124285714Y-53316190D01*
X124285714Y-53268571D01*
X124333333Y-53173333D01*
X124428571Y-53125714D01*
X124571428Y-53125714D01*
X124666666Y-53173333D01*
X125000000Y-53125714D02*
X125380952Y-53125714D01*
X125142857Y-52792380D02*
X125142857Y-53649523D01*
X125190476Y-53744761D01*
X125285714Y-53792380D01*
X125380952Y-53792380D01*
X126095238Y-53744761D02*
X126000000Y-53792380D01*
X125809523Y-53792380D01*
X125714285Y-53744761D01*
X125666666Y-53649523D01*
X125666666Y-53268571D01*
X125714285Y-53173333D01*
X125809523Y-53125714D01*
X126000000Y-53125714D01*
X126095238Y-53173333D01*
X126142857Y-53268571D01*
X126142857Y-53363809D01*
X125666666Y-53459047D01*
X126571428Y-53792380D02*
X126571428Y-53125714D01*
X126571428Y-53316190D02*
X126619047Y-53220952D01*
X126666666Y-53173333D01*
X126761904Y-53125714D01*
X126857142Y-53125714D01*
X127952380Y-53792380D02*
X127952380Y-52792380D01*
X128333333Y-52792380D01*
X128428571Y-52840000D01*
X128476190Y-52887619D01*
X128523809Y-52982857D01*
X128523809Y-53125714D01*
X128476190Y-53220952D01*
X128428571Y-53268571D01*
X128333333Y-53316190D01*
X127952380Y-53316190D01*
X128952380Y-53792380D02*
X128952380Y-53125714D01*
X128952380Y-53316190D02*
X128999999Y-53220952D01*
X129047619Y-53173333D01*
X129142857Y-53125714D01*
X129238095Y-53125714D01*
X129714285Y-53792380D02*
X129619047Y-53744761D01*
X129571428Y-53697142D01*
X129523809Y-53601904D01*
X129523809Y-53316190D01*
X129571428Y-53220952D01*
X129619047Y-53173333D01*
X129714285Y-53125714D01*
X129857142Y-53125714D01*
X129952380Y-53173333D01*
X129999999Y-53220952D01*
X130047619Y-53316190D01*
X130047619Y-53601904D01*
X129999999Y-53697142D01*
X129952380Y-53744761D01*
X129857142Y-53792380D01*
X129714285Y-53792380D01*
X130333333Y-53125714D02*
X130714285Y-53125714D01*
X130476190Y-52792380D02*
X130476190Y-53649523D01*
X130523809Y-53744761D01*
X130619047Y-53792380D01*
X130714285Y-53792380D01*
X131190476Y-53792380D02*
X131095238Y-53744761D01*
X131047619Y-53697142D01*
X130999999Y-53601904D01*
X130999999Y-53316190D01*
X131047619Y-53220952D01*
X131095238Y-53173333D01*
X131190476Y-53125714D01*
X131333333Y-53125714D01*
X131428571Y-53173333D01*
X131476190Y-53220952D01*
X131523809Y-53316190D01*
X131523809Y-53601904D01*
X131476190Y-53697142D01*
X131428571Y-53744761D01*
X131333333Y-53792380D01*
X131190476Y-53792380D01*
X131809523Y-53125714D02*
X132190476Y-53125714D01*
X131952380Y-52792380D02*
X131952380Y-53649523D01*
X131999999Y-53744761D01*
X132095238Y-53792380D01*
X132190476Y-53792380D01*
X132428571Y-53125714D02*
X132666666Y-53792380D01*
X132904761Y-53125714D02*
X132666666Y-53792380D01*
X132571428Y-54030476D01*
X132523809Y-54078095D01*
X132428571Y-54125714D01*
X133285714Y-53125714D02*
X133285714Y-54125714D01*
X133285714Y-53173333D02*
X133380952Y-53125714D01*
X133571428Y-53125714D01*
X133666666Y-53173333D01*
X133714285Y-53220952D01*
X133761904Y-53316190D01*
X133761904Y-53601904D01*
X133714285Y-53697142D01*
X133666666Y-53744761D01*
X133571428Y-53792380D01*
X133380952Y-53792380D01*
X133285714Y-53744761D01*
X134571428Y-53744761D02*
X134476190Y-53792380D01*
X134285714Y-53792380D01*
X134190476Y-53744761D01*
X134142857Y-53649523D01*
X134142857Y-53268571D01*
X134190476Y-53173333D01*
X134285714Y-53125714D01*
X134476190Y-53125714D01*
X134571428Y-53173333D01*
X134619047Y-53268571D01*
X134619047Y-53363809D01*
X134142857Y-53459047D01*
X135666666Y-52792380D02*
X136000000Y-53792380D01*
X136333333Y-52792380D01*
X136619047Y-52887619D02*
X136666666Y-52840000D01*
X136761904Y-52792380D01*
X137000000Y-52792380D01*
X137095238Y-52840000D01*
X137142857Y-52887619D01*
X137190476Y-52982857D01*
X137190476Y-53078095D01*
X137142857Y-53220952D01*
X136571428Y-53792380D01*
X137190476Y-53792380D01*
X181530714Y-138336666D02*
X182006904Y-138336666D01*
X181435476Y-138622380D02*
X181768809Y-137622380D01*
X182102142Y-138622380D01*
X182387857Y-137717619D02*
X182435476Y-137670000D01*
X182530714Y-137622380D01*
X182768809Y-137622380D01*
X182864047Y-137670000D01*
X182911666Y-137717619D01*
X182959285Y-137812857D01*
X182959285Y-137908095D01*
X182911666Y-138050952D01*
X182340238Y-138622380D01*
X182959285Y-138622380D01*
D11*
X177256428Y-103027142D02*
X177470714Y-103098571D01*
X177827857Y-103098571D01*
X177970714Y-103027142D01*
X178042142Y-102955714D01*
X178113571Y-102812857D01*
X178113571Y-102670000D01*
X178042142Y-102527142D01*
X177970714Y-102455714D01*
X177827857Y-102384285D01*
X177542142Y-102312857D01*
X177399285Y-102241428D01*
X177327857Y-102170000D01*
X177256428Y-102027142D01*
X177256428Y-101884285D01*
X177327857Y-101741428D01*
X177399285Y-101670000D01*
X177542142Y-101598571D01*
X177899285Y-101598571D01*
X178113571Y-101670000D01*
X179613571Y-103098571D02*
X179113571Y-102384285D01*
X178756428Y-103098571D02*
X178756428Y-101598571D01*
X179327857Y-101598571D01*
X179470714Y-101670000D01*
X179542142Y-101741428D01*
X179613571Y-101884285D01*
X179613571Y-102098571D01*
X179542142Y-102241428D01*
X179470714Y-102312857D01*
X179327857Y-102384285D01*
X178756428Y-102384285D01*
D10*
X143430714Y-138336666D02*
X143906904Y-138336666D01*
X143335476Y-138622380D02*
X143668809Y-137622380D01*
X144002142Y-138622380D01*
X144478333Y-138050952D02*
X144383095Y-138003333D01*
X144335476Y-137955714D01*
X144287857Y-137860476D01*
X144287857Y-137812857D01*
X144335476Y-137717619D01*
X144383095Y-137670000D01*
X144478333Y-137622380D01*
X144668809Y-137622380D01*
X144764047Y-137670000D01*
X144811666Y-137717619D01*
X144859285Y-137812857D01*
X144859285Y-137860476D01*
X144811666Y-137955714D01*
X144764047Y-138003333D01*
X144668809Y-138050952D01*
X144478333Y-138050952D01*
X144383095Y-138098571D01*
X144335476Y-138146190D01*
X144287857Y-138241428D01*
X144287857Y-138431904D01*
X144335476Y-138527142D01*
X144383095Y-138574761D01*
X144478333Y-138622380D01*
X144668809Y-138622380D01*
X144764047Y-138574761D01*
X144811666Y-138527142D01*
X144859285Y-138431904D01*
X144859285Y-138241428D01*
X144811666Y-138146190D01*
X144764047Y-138098571D01*
X144668809Y-138050952D01*
X175180714Y-138336666D02*
X175656904Y-138336666D01*
X175085476Y-138622380D02*
X175418809Y-137622380D01*
X175752142Y-138622380D01*
X175990238Y-137622380D02*
X176609285Y-137622380D01*
X176275952Y-138003333D01*
X176418809Y-138003333D01*
X176514047Y-138050952D01*
X176561666Y-138098571D01*
X176609285Y-138193809D01*
X176609285Y-138431904D01*
X176561666Y-138527142D01*
X176514047Y-138574761D01*
X176418809Y-138622380D01*
X176133095Y-138622380D01*
X176037857Y-138574761D01*
X175990238Y-138527142D01*
X175136856Y-45722380D02*
X175136856Y-44722380D01*
X175374952Y-44722380D01*
X175517809Y-44770000D01*
X175613047Y-44865238D01*
X175660666Y-44960476D01*
X175708285Y-45150952D01*
X175708285Y-45293809D01*
X175660666Y-45484285D01*
X175613047Y-45579523D01*
X175517809Y-45674761D01*
X175374952Y-45722380D01*
X175136856Y-45722380D01*
X176041618Y-44722380D02*
X176660666Y-44722380D01*
X176327332Y-45103333D01*
X176470190Y-45103333D01*
X176565428Y-45150952D01*
X176613047Y-45198571D01*
X176660666Y-45293809D01*
X176660666Y-45531904D01*
X176613047Y-45627142D01*
X176565428Y-45674761D01*
X176470190Y-45722380D01*
X176184475Y-45722380D01*
X176089237Y-45674761D01*
X176041618Y-45627142D01*
D11*
X177256428Y-130967142D02*
X177470714Y-131038571D01*
X177827857Y-131038571D01*
X177970714Y-130967142D01*
X178042142Y-130895714D01*
X178113571Y-130752857D01*
X178113571Y-130610000D01*
X178042142Y-130467142D01*
X177970714Y-130395714D01*
X177827857Y-130324285D01*
X177542142Y-130252857D01*
X177399285Y-130181428D01*
X177327857Y-130110000D01*
X177256428Y-129967142D01*
X177256428Y-129824285D01*
X177327857Y-129681428D01*
X177399285Y-129610000D01*
X177542142Y-129538571D01*
X177899285Y-129538571D01*
X178113571Y-129610000D01*
X179613571Y-131038571D02*
X179113571Y-130324285D01*
X178756428Y-131038571D02*
X178756428Y-129538571D01*
X179327857Y-129538571D01*
X179470714Y-129610000D01*
X179542142Y-129681428D01*
X179613571Y-129824285D01*
X179613571Y-130038571D01*
X179542142Y-130181428D01*
X179470714Y-130252857D01*
X179327857Y-130324285D01*
X178756428Y-130324285D01*
X177256428Y-76357142D02*
X177470714Y-76428571D01*
X177827857Y-76428571D01*
X177970714Y-76357142D01*
X178042142Y-76285714D01*
X178113571Y-76142857D01*
X178113571Y-76000000D01*
X178042142Y-75857142D01*
X177970714Y-75785714D01*
X177827857Y-75714285D01*
X177542142Y-75642857D01*
X177399285Y-75571428D01*
X177327857Y-75500000D01*
X177256428Y-75357142D01*
X177256428Y-75214285D01*
X177327857Y-75071428D01*
X177399285Y-75000000D01*
X177542142Y-74928571D01*
X177899285Y-74928571D01*
X178113571Y-75000000D01*
X179613571Y-76428571D02*
X179113571Y-75714285D01*
X178756428Y-76428571D02*
X178756428Y-74928571D01*
X179327857Y-74928571D01*
X179470714Y-75000000D01*
X179542142Y-75071428D01*
X179613571Y-75214285D01*
X179613571Y-75428571D01*
X179542142Y-75571428D01*
X179470714Y-75642857D01*
X179327857Y-75714285D01*
X178756428Y-75714285D01*
X126456428Y-103027142D02*
X126670714Y-103098571D01*
X127027857Y-103098571D01*
X127170714Y-103027142D01*
X127242142Y-102955714D01*
X127313571Y-102812857D01*
X127313571Y-102670000D01*
X127242142Y-102527142D01*
X127170714Y-102455714D01*
X127027857Y-102384285D01*
X126742142Y-102312857D01*
X126599285Y-102241428D01*
X126527857Y-102170000D01*
X126456428Y-102027142D01*
X126456428Y-101884285D01*
X126527857Y-101741428D01*
X126599285Y-101670000D01*
X126742142Y-101598571D01*
X127099285Y-101598571D01*
X127313571Y-101670000D01*
X128813571Y-103098571D02*
X128313571Y-102384285D01*
X127956428Y-103098571D02*
X127956428Y-101598571D01*
X128527857Y-101598571D01*
X128670714Y-101670000D01*
X128742142Y-101741428D01*
X128813571Y-101884285D01*
X128813571Y-102098571D01*
X128742142Y-102241428D01*
X128670714Y-102312857D01*
X128527857Y-102384285D01*
X127956428Y-102384285D01*
D10*
X187880714Y-138336666D02*
X188356904Y-138336666D01*
X187785476Y-138622380D02*
X188118809Y-137622380D01*
X188452142Y-138622380D01*
X189309285Y-138622380D02*
X188737857Y-138622380D01*
X189023571Y-138622380D02*
X189023571Y-137622380D01*
X188928333Y-137765238D01*
X188833095Y-137860476D01*
X188737857Y-137908095D01*
X111061666Y-124462380D02*
X111061666Y-123462380D01*
X111442619Y-123462380D01*
X111537857Y-123510000D01*
X111585476Y-123557619D01*
X111633095Y-123652857D01*
X111633095Y-123795714D01*
X111585476Y-123890952D01*
X111537857Y-123938571D01*
X111442619Y-123986190D01*
X111061666Y-123986190D01*
X111966428Y-123462380D02*
X112204523Y-124462380D01*
X112395000Y-123748095D01*
X112585476Y-124462380D01*
X112823571Y-123462380D01*
X113775952Y-124462380D02*
X113442619Y-123986190D01*
X113204523Y-124462380D02*
X113204523Y-123462380D01*
X113585476Y-123462380D01*
X113680714Y-123510000D01*
X113728333Y-123557619D01*
X113775952Y-123652857D01*
X113775952Y-123795714D01*
X113728333Y-123890952D01*
X113680714Y-123938571D01*
X113585476Y-123986190D01*
X113204523Y-123986190D01*
X130254523Y-138336666D02*
X130730714Y-138336666D01*
X130159285Y-138622380D02*
X130492619Y-137622380D01*
X130825952Y-138622380D01*
X131683095Y-138622380D02*
X131111666Y-138622380D01*
X131397380Y-138622380D02*
X131397380Y-137622380D01*
X131302142Y-137765238D01*
X131206904Y-137860476D01*
X131111666Y-137908095D01*
X132302142Y-137622380D02*
X132397380Y-137622380D01*
X132492619Y-137670000D01*
X132540238Y-137717619D01*
X132587857Y-137812857D01*
X132635476Y-138003333D01*
X132635476Y-138241428D01*
X132587857Y-138431904D01*
X132540238Y-138527142D01*
X132492619Y-138574761D01*
X132397380Y-138622380D01*
X132302142Y-138622380D01*
X132206904Y-138574761D01*
X132159285Y-138527142D01*
X132111666Y-138431904D01*
X132064047Y-138241428D01*
X132064047Y-138003333D01*
X132111666Y-137812857D01*
X132159285Y-137717619D01*
X132206904Y-137670000D01*
X132302142Y-137622380D01*
X181486856Y-45722380D02*
X181486856Y-44722380D01*
X181724952Y-44722380D01*
X181867809Y-44770000D01*
X181963047Y-44865238D01*
X182010666Y-44960476D01*
X182058285Y-45150952D01*
X182058285Y-45293809D01*
X182010666Y-45484285D01*
X181963047Y-45579523D01*
X181867809Y-45674761D01*
X181724952Y-45722380D01*
X181486856Y-45722380D01*
X182439237Y-44817619D02*
X182486856Y-44770000D01*
X182582094Y-44722380D01*
X182820190Y-44722380D01*
X182915428Y-44770000D01*
X182963047Y-44817619D01*
X183010666Y-44912857D01*
X183010666Y-45008095D01*
X182963047Y-45150952D01*
X182391618Y-45722380D01*
X183010666Y-45722380D01*
D11*
X160139285Y-80238571D02*
X160139285Y-78738571D01*
X160639285Y-79810000D01*
X161139285Y-78738571D01*
X161139285Y-80238571D01*
X162496428Y-79238571D02*
X162496428Y-80238571D01*
X161853571Y-79238571D02*
X161853571Y-80024285D01*
X161925000Y-80167142D01*
X162067857Y-80238571D01*
X162282142Y-80238571D01*
X162425000Y-80167142D01*
X162496428Y-80095714D01*
X163067857Y-80238571D02*
X163853571Y-79238571D01*
X163067857Y-79238571D02*
X163853571Y-80238571D01*
D10*
X162480714Y-138336666D02*
X162956904Y-138336666D01*
X162385476Y-138622380D02*
X162718809Y-137622380D01*
X163052142Y-138622380D01*
X163861666Y-137622380D02*
X163385476Y-137622380D01*
X163337857Y-138098571D01*
X163385476Y-138050952D01*
X163480714Y-138003333D01*
X163718809Y-138003333D01*
X163814047Y-138050952D01*
X163861666Y-138098571D01*
X163909285Y-138193809D01*
X163909285Y-138431904D01*
X163861666Y-138527142D01*
X163814047Y-138574761D01*
X163718809Y-138622380D01*
X163480714Y-138622380D01*
X163385476Y-138574761D01*
X163337857Y-138527142D01*
D11*
X126456428Y-76357142D02*
X126670714Y-76428571D01*
X127027857Y-76428571D01*
X127170714Y-76357142D01*
X127242142Y-76285714D01*
X127313571Y-76142857D01*
X127313571Y-76000000D01*
X127242142Y-75857142D01*
X127170714Y-75785714D01*
X127027857Y-75714285D01*
X126742142Y-75642857D01*
X126599285Y-75571428D01*
X126527857Y-75500000D01*
X126456428Y-75357142D01*
X126456428Y-75214285D01*
X126527857Y-75071428D01*
X126599285Y-75000000D01*
X126742142Y-74928571D01*
X127099285Y-74928571D01*
X127313571Y-75000000D01*
X128813571Y-76428571D02*
X128313571Y-75714285D01*
X127956428Y-76428571D02*
X127956428Y-74928571D01*
X128527857Y-74928571D01*
X128670714Y-75000000D01*
X128742142Y-75071428D01*
X128813571Y-75214285D01*
X128813571Y-75428571D01*
X128742142Y-75571428D01*
X128670714Y-75642857D01*
X128527857Y-75714285D01*
X127956428Y-75714285D01*
D10*
X168786856Y-45722380D02*
X168786856Y-44722380D01*
X169024952Y-44722380D01*
X169167809Y-44770000D01*
X169263047Y-44865238D01*
X169310666Y-44960476D01*
X169358285Y-45150952D01*
X169358285Y-45293809D01*
X169310666Y-45484285D01*
X169263047Y-45579523D01*
X169167809Y-45674761D01*
X169024952Y-45722380D01*
X168786856Y-45722380D01*
X170215428Y-45055714D02*
X170215428Y-45722380D01*
X169977332Y-44674761D02*
X169739237Y-45389047D01*
X170358285Y-45389047D01*
X123904523Y-138336666D02*
X124380714Y-138336666D01*
X123809285Y-138622380D02*
X124142619Y-137622380D01*
X124475952Y-138622380D01*
X125333095Y-138622380D02*
X124761666Y-138622380D01*
X125047380Y-138622380D02*
X125047380Y-137622380D01*
X124952142Y-137765238D01*
X124856904Y-137860476D01*
X124761666Y-137908095D01*
X126285476Y-138622380D02*
X125714047Y-138622380D01*
X125999761Y-138622380D02*
X125999761Y-137622380D01*
X125904523Y-137765238D01*
X125809285Y-137860476D01*
X125714047Y-137908095D01*
X143386856Y-45722380D02*
X143386856Y-44722380D01*
X143624952Y-44722380D01*
X143767809Y-44770000D01*
X143863047Y-44865238D01*
X143910666Y-44960476D01*
X143958285Y-45150952D01*
X143958285Y-45293809D01*
X143910666Y-45484285D01*
X143863047Y-45579523D01*
X143767809Y-45674761D01*
X143624952Y-45722380D01*
X143386856Y-45722380D01*
X144529713Y-45150952D02*
X144434475Y-45103333D01*
X144386856Y-45055714D01*
X144339237Y-44960476D01*
X144339237Y-44912857D01*
X144386856Y-44817619D01*
X144434475Y-44770000D01*
X144529713Y-44722380D01*
X144720190Y-44722380D01*
X144815428Y-44770000D01*
X144863047Y-44817619D01*
X144910666Y-44912857D01*
X144910666Y-44960476D01*
X144863047Y-45055714D01*
X144815428Y-45103333D01*
X144720190Y-45150952D01*
X144529713Y-45150952D01*
X144434475Y-45198571D01*
X144386856Y-45246190D01*
X144339237Y-45341428D01*
X144339237Y-45531904D01*
X144386856Y-45627142D01*
X144434475Y-45674761D01*
X144529713Y-45722380D01*
X144720190Y-45722380D01*
X144815428Y-45674761D01*
X144863047Y-45627142D01*
X144910666Y-45531904D01*
X144910666Y-45341428D01*
X144863047Y-45246190D01*
X144815428Y-45198571D01*
X144720190Y-45150952D01*
D11*
X160746428Y-76357142D02*
X160960714Y-76428571D01*
X161317857Y-76428571D01*
X161460714Y-76357142D01*
X161532142Y-76285714D01*
X161603571Y-76142857D01*
X161603571Y-76000000D01*
X161532142Y-75857142D01*
X161460714Y-75785714D01*
X161317857Y-75714285D01*
X161032142Y-75642857D01*
X160889285Y-75571428D01*
X160817857Y-75500000D01*
X160746428Y-75357142D01*
X160746428Y-75214285D01*
X160817857Y-75071428D01*
X160889285Y-75000000D01*
X161032142Y-74928571D01*
X161389285Y-74928571D01*
X161603571Y-75000000D01*
X163103571Y-76428571D02*
X162603571Y-75714285D01*
X162246428Y-76428571D02*
X162246428Y-74928571D01*
X162817857Y-74928571D01*
X162960714Y-75000000D01*
X163032142Y-75071428D01*
X163103571Y-75214285D01*
X163103571Y-75428571D01*
X163032142Y-75571428D01*
X162960714Y-75642857D01*
X162817857Y-75714285D01*
X162246428Y-75714285D01*
D10*
X137036856Y-45722380D02*
X137036856Y-44722380D01*
X137274952Y-44722380D01*
X137417809Y-44770000D01*
X137513047Y-44865238D01*
X137560666Y-44960476D01*
X137608285Y-45150952D01*
X137608285Y-45293809D01*
X137560666Y-45484285D01*
X137513047Y-45579523D01*
X137417809Y-45674761D01*
X137274952Y-45722380D01*
X137036856Y-45722380D01*
X138084475Y-45722380D02*
X138274952Y-45722380D01*
X138370190Y-45674761D01*
X138417809Y-45627142D01*
X138513047Y-45484285D01*
X138560666Y-45293809D01*
X138560666Y-44912857D01*
X138513047Y-44817619D01*
X138465428Y-44770000D01*
X138370190Y-44722380D01*
X138179713Y-44722380D01*
X138084475Y-44770000D01*
X138036856Y-44817619D01*
X137989237Y-44912857D01*
X137989237Y-45150952D01*
X138036856Y-45246190D01*
X138084475Y-45293809D01*
X138179713Y-45341428D01*
X138370190Y-45341428D01*
X138465428Y-45293809D01*
X138513047Y-45246190D01*
X138560666Y-45150952D01*
X151146904Y-132034761D02*
X151289761Y-132082380D01*
X151527857Y-132082380D01*
X151623095Y-132034761D01*
X151670714Y-131987142D01*
X151718333Y-131891904D01*
X151718333Y-131796666D01*
X151670714Y-131701428D01*
X151623095Y-131653809D01*
X151527857Y-131606190D01*
X151337380Y-131558571D01*
X151242142Y-131510952D01*
X151194523Y-131463333D01*
X151146904Y-131368095D01*
X151146904Y-131272857D01*
X151194523Y-131177619D01*
X151242142Y-131130000D01*
X151337380Y-131082380D01*
X151575476Y-131082380D01*
X151718333Y-131130000D01*
X152146904Y-132082380D02*
X152146904Y-131082380D01*
X152575476Y-132082380D02*
X152575476Y-131558571D01*
X152527857Y-131463333D01*
X152432619Y-131415714D01*
X152289761Y-131415714D01*
X152194523Y-131463333D01*
X152146904Y-131510952D01*
X153051666Y-132082380D02*
X153051666Y-131415714D01*
X153051666Y-131082380D02*
X153004047Y-131130000D01*
X153051666Y-131177619D01*
X153099285Y-131130000D01*
X153051666Y-131082380D01*
X153051666Y-131177619D01*
X153385000Y-131415714D02*
X153765952Y-131415714D01*
X153527857Y-132082380D02*
X153527857Y-131225238D01*
X153575476Y-131130000D01*
X153670714Y-131082380D01*
X153765952Y-131082380D01*
X153956428Y-131415714D02*
X154337380Y-131415714D01*
X154099285Y-131082380D02*
X154099285Y-131939523D01*
X154146904Y-132034761D01*
X154242142Y-132082380D01*
X154337380Y-132082380D01*
X156004047Y-132082380D02*
X155670714Y-131606190D01*
X155432619Y-132082380D02*
X155432619Y-131082380D01*
X155813571Y-131082380D01*
X155908809Y-131130000D01*
X155956428Y-131177619D01*
X156004047Y-131272857D01*
X156004047Y-131415714D01*
X155956428Y-131510952D01*
X155908809Y-131558571D01*
X155813571Y-131606190D01*
X155432619Y-131606190D01*
X156813571Y-132034761D02*
X156718333Y-132082380D01*
X156527857Y-132082380D01*
X156432619Y-132034761D01*
X156385000Y-131939523D01*
X156385000Y-131558571D01*
X156432619Y-131463333D01*
X156527857Y-131415714D01*
X156718333Y-131415714D01*
X156813571Y-131463333D01*
X156861190Y-131558571D01*
X156861190Y-131653809D01*
X156385000Y-131749047D01*
X157718333Y-131415714D02*
X157718333Y-132225238D01*
X157670714Y-132320476D01*
X157623095Y-132368095D01*
X157527857Y-132415714D01*
X157385000Y-132415714D01*
X157289761Y-132368095D01*
X157718333Y-132034761D02*
X157623095Y-132082380D01*
X157432619Y-132082380D01*
X157337380Y-132034761D01*
X157289761Y-131987142D01*
X157242142Y-131891904D01*
X157242142Y-131606190D01*
X157289761Y-131510952D01*
X157337380Y-131463333D01*
X157432619Y-131415714D01*
X157623095Y-131415714D01*
X157718333Y-131463333D01*
X158194523Y-132082380D02*
X158194523Y-131415714D01*
X158194523Y-131082380D02*
X158146904Y-131130000D01*
X158194523Y-131177619D01*
X158242142Y-131130000D01*
X158194523Y-131082380D01*
X158194523Y-131177619D01*
X158623095Y-132034761D02*
X158718333Y-132082380D01*
X158908809Y-132082380D01*
X159004047Y-132034761D01*
X159051666Y-131939523D01*
X159051666Y-131891904D01*
X159004047Y-131796666D01*
X158908809Y-131749047D01*
X158765952Y-131749047D01*
X158670714Y-131701428D01*
X158623095Y-131606190D01*
X158623095Y-131558571D01*
X158670714Y-131463333D01*
X158765952Y-131415714D01*
X158908809Y-131415714D01*
X159004047Y-131463333D01*
X159337380Y-131415714D02*
X159718333Y-131415714D01*
X159480238Y-131082380D02*
X159480238Y-131939523D01*
X159527857Y-132034761D01*
X159623095Y-132082380D01*
X159718333Y-132082380D01*
X160432619Y-132034761D02*
X160337380Y-132082380D01*
X160146904Y-132082380D01*
X160051666Y-132034761D01*
X160004047Y-131939523D01*
X160004047Y-131558571D01*
X160051666Y-131463333D01*
X160146904Y-131415714D01*
X160337380Y-131415714D01*
X160432619Y-131463333D01*
X160480238Y-131558571D01*
X160480238Y-131653809D01*
X160004047Y-131749047D01*
X160908809Y-132082380D02*
X160908809Y-131415714D01*
X160908809Y-131606190D02*
X160956428Y-131510952D01*
X161004047Y-131463333D01*
X161099285Y-131415714D01*
X161194523Y-131415714D01*
X162242142Y-131796666D02*
X162718333Y-131796666D01*
X162146904Y-132082380D02*
X162480238Y-131082380D01*
X162813571Y-132082380D01*
X163575476Y-132082380D02*
X163575476Y-131082380D01*
X163575476Y-132034761D02*
X163480238Y-132082380D01*
X163289761Y-132082380D01*
X163194523Y-132034761D01*
X163146904Y-131987142D01*
X163099285Y-131891904D01*
X163099285Y-131606190D01*
X163146904Y-131510952D01*
X163194523Y-131463333D01*
X163289761Y-131415714D01*
X163480238Y-131415714D01*
X163575476Y-131463333D01*
X164480238Y-132082380D02*
X164480238Y-131082380D01*
X164480238Y-132034761D02*
X164385000Y-132082380D01*
X164194523Y-132082380D01*
X164099285Y-132034761D01*
X164051666Y-131987142D01*
X164004047Y-131891904D01*
X164004047Y-131606190D01*
X164051666Y-131510952D01*
X164099285Y-131463333D01*
X164194523Y-131415714D01*
X164385000Y-131415714D01*
X164480238Y-131463333D01*
X164956428Y-132082380D02*
X164956428Y-131415714D01*
X164956428Y-131606190D02*
X165004047Y-131510952D01*
X165051666Y-131463333D01*
X165146904Y-131415714D01*
X165242142Y-131415714D01*
X165956428Y-132034761D02*
X165861190Y-132082380D01*
X165670714Y-132082380D01*
X165575476Y-132034761D01*
X165527857Y-131939523D01*
X165527857Y-131558571D01*
X165575476Y-131463333D01*
X165670714Y-131415714D01*
X165861190Y-131415714D01*
X165956428Y-131463333D01*
X166004047Y-131558571D01*
X166004047Y-131653809D01*
X165527857Y-131749047D01*
X166385000Y-132034761D02*
X166480238Y-132082380D01*
X166670714Y-132082380D01*
X166765952Y-132034761D01*
X166813571Y-131939523D01*
X166813571Y-131891904D01*
X166765952Y-131796666D01*
X166670714Y-131749047D01*
X166527857Y-131749047D01*
X166432619Y-131701428D01*
X166385000Y-131606190D01*
X166385000Y-131558571D01*
X166432619Y-131463333D01*
X166527857Y-131415714D01*
X166670714Y-131415714D01*
X166765952Y-131463333D01*
X167194523Y-132034761D02*
X167289761Y-132082380D01*
X167480238Y-132082380D01*
X167575476Y-132034761D01*
X167623095Y-131939523D01*
X167623095Y-131891904D01*
X167575476Y-131796666D01*
X167480238Y-131749047D01*
X167337380Y-131749047D01*
X167242142Y-131701428D01*
X167194523Y-131606190D01*
X167194523Y-131558571D01*
X167242142Y-131463333D01*
X167337380Y-131415714D01*
X167480238Y-131415714D01*
X167575476Y-131463333D01*
D11*
X193766428Y-103027142D02*
X193980714Y-103098571D01*
X194337857Y-103098571D01*
X194480714Y-103027142D01*
X194552142Y-102955714D01*
X194623571Y-102812857D01*
X194623571Y-102670000D01*
X194552142Y-102527142D01*
X194480714Y-102455714D01*
X194337857Y-102384285D01*
X194052142Y-102312857D01*
X193909285Y-102241428D01*
X193837857Y-102170000D01*
X193766428Y-102027142D01*
X193766428Y-101884285D01*
X193837857Y-101741428D01*
X193909285Y-101670000D01*
X194052142Y-101598571D01*
X194409285Y-101598571D01*
X194623571Y-101670000D01*
X196123571Y-103098571D02*
X195623571Y-102384285D01*
X195266428Y-103098571D02*
X195266428Y-101598571D01*
X195837857Y-101598571D01*
X195980714Y-101670000D01*
X196052142Y-101741428D01*
X196123571Y-101884285D01*
X196123571Y-102098571D01*
X196052142Y-102241428D01*
X195980714Y-102312857D01*
X195837857Y-102384285D01*
X195266428Y-102384285D01*
D10*
X151577380Y-53294761D02*
X151720238Y-53342380D01*
X151958333Y-53342380D01*
X152053571Y-53294761D01*
X152101190Y-53247142D01*
X152148809Y-53151904D01*
X152148809Y-53056666D01*
X152101190Y-52961428D01*
X152053571Y-52913809D01*
X151958333Y-52866190D01*
X151767857Y-52818571D01*
X151672619Y-52770952D01*
X151625000Y-52723333D01*
X151577380Y-52628095D01*
X151577380Y-52532857D01*
X151625000Y-52437619D01*
X151672619Y-52390000D01*
X151767857Y-52342380D01*
X152005952Y-52342380D01*
X152148809Y-52390000D01*
X152577380Y-53342380D02*
X152577380Y-52342380D01*
X153005952Y-53342380D02*
X153005952Y-52818571D01*
X152958333Y-52723333D01*
X152863095Y-52675714D01*
X152720238Y-52675714D01*
X152625000Y-52723333D01*
X152577380Y-52770952D01*
X153482142Y-53342380D02*
X153482142Y-52675714D01*
X153482142Y-52342380D02*
X153434523Y-52390000D01*
X153482142Y-52437619D01*
X153529761Y-52390000D01*
X153482142Y-52342380D01*
X153482142Y-52437619D01*
X153815476Y-52675714D02*
X154196428Y-52675714D01*
X153958333Y-53342380D02*
X153958333Y-52485238D01*
X154005952Y-52390000D01*
X154101190Y-52342380D01*
X154196428Y-52342380D01*
X154386904Y-52675714D02*
X154767857Y-52675714D01*
X154529761Y-52342380D02*
X154529761Y-53199523D01*
X154577380Y-53294761D01*
X154672619Y-53342380D01*
X154767857Y-53342380D01*
X156434523Y-53342380D02*
X156101190Y-52866190D01*
X155863095Y-53342380D02*
X155863095Y-52342380D01*
X156244047Y-52342380D01*
X156339285Y-52390000D01*
X156386904Y-52437619D01*
X156434523Y-52532857D01*
X156434523Y-52675714D01*
X156386904Y-52770952D01*
X156339285Y-52818571D01*
X156244047Y-52866190D01*
X155863095Y-52866190D01*
X157244047Y-53294761D02*
X157148809Y-53342380D01*
X156958333Y-53342380D01*
X156863095Y-53294761D01*
X156815476Y-53199523D01*
X156815476Y-52818571D01*
X156863095Y-52723333D01*
X156958333Y-52675714D01*
X157148809Y-52675714D01*
X157244047Y-52723333D01*
X157291666Y-52818571D01*
X157291666Y-52913809D01*
X156815476Y-53009047D01*
X158148809Y-52675714D02*
X158148809Y-53485238D01*
X158101190Y-53580476D01*
X158053571Y-53628095D01*
X157958333Y-53675714D01*
X157815476Y-53675714D01*
X157720238Y-53628095D01*
X158148809Y-53294761D02*
X158053571Y-53342380D01*
X157863095Y-53342380D01*
X157767857Y-53294761D01*
X157720238Y-53247142D01*
X157672619Y-53151904D01*
X157672619Y-52866190D01*
X157720238Y-52770952D01*
X157767857Y-52723333D01*
X157863095Y-52675714D01*
X158053571Y-52675714D01*
X158148809Y-52723333D01*
X158625000Y-53342380D02*
X158625000Y-52675714D01*
X158625000Y-52342380D02*
X158577380Y-52390000D01*
X158625000Y-52437619D01*
X158672619Y-52390000D01*
X158625000Y-52342380D01*
X158625000Y-52437619D01*
X159053571Y-53294761D02*
X159148809Y-53342380D01*
X159339285Y-53342380D01*
X159434523Y-53294761D01*
X159482142Y-53199523D01*
X159482142Y-53151904D01*
X159434523Y-53056666D01*
X159339285Y-53009047D01*
X159196428Y-53009047D01*
X159101190Y-52961428D01*
X159053571Y-52866190D01*
X159053571Y-52818571D01*
X159101190Y-52723333D01*
X159196428Y-52675714D01*
X159339285Y-52675714D01*
X159434523Y-52723333D01*
X159767857Y-52675714D02*
X160148809Y-52675714D01*
X159910714Y-52342380D02*
X159910714Y-53199523D01*
X159958333Y-53294761D01*
X160053571Y-53342380D01*
X160148809Y-53342380D01*
X160863095Y-53294761D02*
X160767857Y-53342380D01*
X160577380Y-53342380D01*
X160482142Y-53294761D01*
X160434523Y-53199523D01*
X160434523Y-52818571D01*
X160482142Y-52723333D01*
X160577380Y-52675714D01*
X160767857Y-52675714D01*
X160863095Y-52723333D01*
X160910714Y-52818571D01*
X160910714Y-52913809D01*
X160434523Y-53009047D01*
X161339285Y-53342380D02*
X161339285Y-52675714D01*
X161339285Y-52866190D02*
X161386904Y-52770952D01*
X161434523Y-52723333D01*
X161529761Y-52675714D01*
X161625000Y-52675714D01*
X162720238Y-53342380D02*
X162720238Y-52342380D01*
X162958333Y-52342380D01*
X163101190Y-52390000D01*
X163196428Y-52485238D01*
X163244047Y-52580476D01*
X163291666Y-52770952D01*
X163291666Y-52913809D01*
X163244047Y-53104285D01*
X163196428Y-53199523D01*
X163101190Y-53294761D01*
X162958333Y-53342380D01*
X162720238Y-53342380D01*
X164148809Y-53342380D02*
X164148809Y-52818571D01*
X164101190Y-52723333D01*
X164005952Y-52675714D01*
X163815476Y-52675714D01*
X163720238Y-52723333D01*
X164148809Y-53294761D02*
X164053571Y-53342380D01*
X163815476Y-53342380D01*
X163720238Y-53294761D01*
X163672619Y-53199523D01*
X163672619Y-53104285D01*
X163720238Y-53009047D01*
X163815476Y-52961428D01*
X164053571Y-52961428D01*
X164148809Y-52913809D01*
X164482142Y-52675714D02*
X164863095Y-52675714D01*
X164625000Y-52342380D02*
X164625000Y-53199523D01*
X164672619Y-53294761D01*
X164767857Y-53342380D01*
X164863095Y-53342380D01*
X165625000Y-53342380D02*
X165625000Y-52818571D01*
X165577380Y-52723333D01*
X165482142Y-52675714D01*
X165291666Y-52675714D01*
X165196428Y-52723333D01*
X165625000Y-53294761D02*
X165529761Y-53342380D01*
X165291666Y-53342380D01*
X165196428Y-53294761D01*
X165148809Y-53199523D01*
X165148809Y-53104285D01*
X165196428Y-53009047D01*
X165291666Y-52961428D01*
X165529761Y-52961428D01*
X165625000Y-52913809D01*
D11*
X160139285Y-108178571D02*
X160139285Y-106678571D01*
X160639285Y-107750000D01*
X161139285Y-106678571D01*
X161139285Y-108178571D01*
X162496428Y-107178571D02*
X162496428Y-108178571D01*
X161853571Y-107178571D02*
X161853571Y-107964285D01*
X161925000Y-108107142D01*
X162067857Y-108178571D01*
X162282142Y-108178571D01*
X162425000Y-108107142D01*
X162496428Y-108035714D01*
X163067857Y-108178571D02*
X163853571Y-107178571D01*
X163067857Y-107178571D02*
X163853571Y-108178571D01*
X193766428Y-130967142D02*
X193980714Y-131038571D01*
X194337857Y-131038571D01*
X194480714Y-130967142D01*
X194552142Y-130895714D01*
X194623571Y-130752857D01*
X194623571Y-130610000D01*
X194552142Y-130467142D01*
X194480714Y-130395714D01*
X194337857Y-130324285D01*
X194052142Y-130252857D01*
X193909285Y-130181428D01*
X193837857Y-130110000D01*
X193766428Y-129967142D01*
X193766428Y-129824285D01*
X193837857Y-129681428D01*
X193909285Y-129610000D01*
X194052142Y-129538571D01*
X194409285Y-129538571D01*
X194623571Y-129610000D01*
X196123571Y-131038571D02*
X195623571Y-130324285D01*
X195266428Y-131038571D02*
X195266428Y-129538571D01*
X195837857Y-129538571D01*
X195980714Y-129610000D01*
X196052142Y-129681428D01*
X196123571Y-129824285D01*
X196123571Y-130038571D01*
X196052142Y-130181428D01*
X195980714Y-130252857D01*
X195837857Y-130324285D01*
X195266428Y-130324285D01*
X126456428Y-130967142D02*
X126670714Y-131038571D01*
X127027857Y-131038571D01*
X127170714Y-130967142D01*
X127242142Y-130895714D01*
X127313571Y-130752857D01*
X127313571Y-130610000D01*
X127242142Y-130467142D01*
X127170714Y-130395714D01*
X127027857Y-130324285D01*
X126742142Y-130252857D01*
X126599285Y-130181428D01*
X126527857Y-130110000D01*
X126456428Y-129967142D01*
X126456428Y-129824285D01*
X126527857Y-129681428D01*
X126599285Y-129610000D01*
X126742142Y-129538571D01*
X127099285Y-129538571D01*
X127313571Y-129610000D01*
X128813571Y-131038571D02*
X128313571Y-130324285D01*
X127956428Y-131038571D02*
X127956428Y-129538571D01*
X128527857Y-129538571D01*
X128670714Y-129610000D01*
X128742142Y-129681428D01*
X128813571Y-129824285D01*
X128813571Y-130038571D01*
X128742142Y-130181428D01*
X128670714Y-130252857D01*
X128527857Y-130324285D01*
X127956428Y-130324285D01*
D10*
X149780714Y-138336666D02*
X150256904Y-138336666D01*
X149685476Y-138622380D02*
X150018809Y-137622380D01*
X150352142Y-138622380D01*
X150590238Y-137622380D02*
X151256904Y-137622380D01*
X150828333Y-138622380D01*
X194186856Y-45722380D02*
X194186856Y-44722380D01*
X194424952Y-44722380D01*
X194567809Y-44770000D01*
X194663047Y-44865238D01*
X194710666Y-44960476D01*
X194758285Y-45150952D01*
X194758285Y-45293809D01*
X194710666Y-45484285D01*
X194663047Y-45579523D01*
X194567809Y-45674761D01*
X194424952Y-45722380D01*
X194186856Y-45722380D01*
X195377332Y-44722380D02*
X195472571Y-44722380D01*
X195567809Y-44770000D01*
X195615428Y-44817619D01*
X195663047Y-44912857D01*
X195710666Y-45103333D01*
X195710666Y-45341428D01*
X195663047Y-45531904D01*
X195615428Y-45627142D01*
X195567809Y-45674761D01*
X195472571Y-45722380D01*
X195377332Y-45722380D01*
X195282094Y-45674761D01*
X195234475Y-45627142D01*
X195186856Y-45531904D01*
X195139237Y-45341428D01*
X195139237Y-45103333D01*
X195186856Y-44912857D01*
X195234475Y-44817619D01*
X195282094Y-44770000D01*
X195377332Y-44722380D01*
X156130714Y-138336666D02*
X156606904Y-138336666D01*
X156035476Y-138622380D02*
X156368809Y-137622380D01*
X156702142Y-138622380D01*
X157464047Y-137622380D02*
X157273571Y-137622380D01*
X157178333Y-137670000D01*
X157130714Y-137717619D01*
X157035476Y-137860476D01*
X156987857Y-138050952D01*
X156987857Y-138431904D01*
X157035476Y-138527142D01*
X157083095Y-138574761D01*
X157178333Y-138622380D01*
X157368809Y-138622380D01*
X157464047Y-138574761D01*
X157511666Y-138527142D01*
X157559285Y-138431904D01*
X157559285Y-138193809D01*
X157511666Y-138098571D01*
X157464047Y-138050952D01*
X157368809Y-138003333D01*
X157178333Y-138003333D01*
X157083095Y-138050952D01*
X157035476Y-138098571D01*
X156987857Y-138193809D01*
X156086856Y-45722380D02*
X156086856Y-44722380D01*
X156324952Y-44722380D01*
X156467809Y-44770000D01*
X156563047Y-44865238D01*
X156610666Y-44960476D01*
X156658285Y-45150952D01*
X156658285Y-45293809D01*
X156610666Y-45484285D01*
X156563047Y-45579523D01*
X156467809Y-45674761D01*
X156324952Y-45722380D01*
X156086856Y-45722380D01*
X157515428Y-44722380D02*
X157324952Y-44722380D01*
X157229713Y-44770000D01*
X157182094Y-44817619D01*
X157086856Y-44960476D01*
X157039237Y-45150952D01*
X157039237Y-45531904D01*
X157086856Y-45627142D01*
X157134475Y-45674761D01*
X157229713Y-45722380D01*
X157420190Y-45722380D01*
X157515428Y-45674761D01*
X157563047Y-45627142D01*
X157610666Y-45531904D01*
X157610666Y-45293809D01*
X157563047Y-45198571D01*
X157515428Y-45150952D01*
X157420190Y-45103333D01*
X157229713Y-45103333D01*
X157134475Y-45150952D01*
X157086856Y-45198571D01*
X157039237Y-45293809D01*
X162456904Y-45722380D02*
X162456904Y-44722380D01*
X162695000Y-44722380D01*
X162837857Y-44770000D01*
X162933095Y-44865238D01*
X162980714Y-44960476D01*
X163028333Y-45150952D01*
X163028333Y-45293809D01*
X162980714Y-45484285D01*
X162933095Y-45579523D01*
X162837857Y-45674761D01*
X162695000Y-45722380D01*
X162456904Y-45722380D01*
X163933095Y-44722380D02*
X163456904Y-44722380D01*
X163409285Y-45198571D01*
X163456904Y-45150952D01*
X163552142Y-45103333D01*
X163790238Y-45103333D01*
X163885476Y-45150952D01*
X163933095Y-45198571D01*
X163980714Y-45293809D01*
X163980714Y-45531904D01*
X163933095Y-45627142D01*
X163885476Y-45674761D01*
X163790238Y-45722380D01*
X163552142Y-45722380D01*
X163456904Y-45674761D01*
X163409285Y-45627142D01*
X130210666Y-45722380D02*
X130210666Y-44722380D01*
X130448761Y-44722380D01*
X130591618Y-44770000D01*
X130686856Y-44865238D01*
X130734475Y-44960476D01*
X130782094Y-45150952D01*
X130782094Y-45293809D01*
X130734475Y-45484285D01*
X130686856Y-45579523D01*
X130591618Y-45674761D01*
X130448761Y-45722380D01*
X130210666Y-45722380D01*
X131734475Y-45722380D02*
X131163047Y-45722380D01*
X131448761Y-45722380D02*
X131448761Y-44722380D01*
X131353523Y-44865238D01*
X131258285Y-44960476D01*
X131163047Y-45008095D01*
X132353523Y-44722380D02*
X132448761Y-44722380D01*
X132543999Y-44770000D01*
X132591618Y-44817619D01*
X132639237Y-44912857D01*
X132686856Y-45103333D01*
X132686856Y-45341428D01*
X132639237Y-45531904D01*
X132591618Y-45627142D01*
X132543999Y-45674761D01*
X132448761Y-45722380D01*
X132353523Y-45722380D01*
X132258285Y-45674761D01*
X132210666Y-45627142D01*
X132163047Y-45531904D01*
X132115428Y-45341428D01*
X132115428Y-45103333D01*
X132163047Y-44912857D01*
X132210666Y-44817619D01*
X132258285Y-44770000D01*
X132353523Y-44722380D01*
D11*
X144236428Y-103027142D02*
X144450714Y-103098571D01*
X144807857Y-103098571D01*
X144950714Y-103027142D01*
X145022142Y-102955714D01*
X145093571Y-102812857D01*
X145093571Y-102670000D01*
X145022142Y-102527142D01*
X144950714Y-102455714D01*
X144807857Y-102384285D01*
X144522142Y-102312857D01*
X144379285Y-102241428D01*
X144307857Y-102170000D01*
X144236428Y-102027142D01*
X144236428Y-101884285D01*
X144307857Y-101741428D01*
X144379285Y-101670000D01*
X144522142Y-101598571D01*
X144879285Y-101598571D01*
X145093571Y-101670000D01*
X146593571Y-103098571D02*
X146093571Y-102384285D01*
X145736428Y-103098571D02*
X145736428Y-101598571D01*
X146307857Y-101598571D01*
X146450714Y-101670000D01*
X146522142Y-101741428D01*
X146593571Y-101884285D01*
X146593571Y-102098571D01*
X146522142Y-102241428D01*
X146450714Y-102312857D01*
X146307857Y-102384285D01*
X145736428Y-102384285D01*
D10*
X137080714Y-138336666D02*
X137556904Y-138336666D01*
X136985476Y-138622380D02*
X137318809Y-137622380D01*
X137652142Y-138622380D01*
X138033095Y-138622380D02*
X138223571Y-138622380D01*
X138318809Y-138574761D01*
X138366428Y-138527142D01*
X138461666Y-138384285D01*
X138509285Y-138193809D01*
X138509285Y-137812857D01*
X138461666Y-137717619D01*
X138414047Y-137670000D01*
X138318809Y-137622380D01*
X138128333Y-137622380D01*
X138033095Y-137670000D01*
X137985476Y-137717619D01*
X137937857Y-137812857D01*
X137937857Y-138050952D01*
X137985476Y-138146190D01*
X138033095Y-138193809D01*
X138128333Y-138241428D01*
X138318809Y-138241428D01*
X138414047Y-138193809D01*
X138461666Y-138146190D01*
X138509285Y-138050952D01*
D11*
X144236428Y-130967142D02*
X144450714Y-131038571D01*
X144807857Y-131038571D01*
X144950714Y-130967142D01*
X145022142Y-130895714D01*
X145093571Y-130752857D01*
X145093571Y-130610000D01*
X145022142Y-130467142D01*
X144950714Y-130395714D01*
X144807857Y-130324285D01*
X144522142Y-130252857D01*
X144379285Y-130181428D01*
X144307857Y-130110000D01*
X144236428Y-129967142D01*
X144236428Y-129824285D01*
X144307857Y-129681428D01*
X144379285Y-129610000D01*
X144522142Y-129538571D01*
X144879285Y-129538571D01*
X145093571Y-129610000D01*
X146593571Y-131038571D02*
X146093571Y-130324285D01*
X145736428Y-131038571D02*
X145736428Y-129538571D01*
X146307857Y-129538571D01*
X146450714Y-129610000D01*
X146522142Y-129681428D01*
X146593571Y-129824285D01*
X146593571Y-130038571D01*
X146522142Y-130181428D01*
X146450714Y-130252857D01*
X146307857Y-130324285D01*
X145736428Y-130324285D01*
X144236428Y-76357142D02*
X144450714Y-76428571D01*
X144807857Y-76428571D01*
X144950714Y-76357142D01*
X145022142Y-76285714D01*
X145093571Y-76142857D01*
X145093571Y-76000000D01*
X145022142Y-75857142D01*
X144950714Y-75785714D01*
X144807857Y-75714285D01*
X144522142Y-75642857D01*
X144379285Y-75571428D01*
X144307857Y-75500000D01*
X144236428Y-75357142D01*
X144236428Y-75214285D01*
X144307857Y-75071428D01*
X144379285Y-75000000D01*
X144522142Y-74928571D01*
X144879285Y-74928571D01*
X145093571Y-75000000D01*
X146593571Y-76428571D02*
X146093571Y-75714285D01*
X145736428Y-76428571D02*
X145736428Y-74928571D01*
X146307857Y-74928571D01*
X146450714Y-75000000D01*
X146522142Y-75071428D01*
X146593571Y-75214285D01*
X146593571Y-75428571D01*
X146522142Y-75571428D01*
X146450714Y-75642857D01*
X146307857Y-75714285D01*
X145736428Y-75714285D01*
D10*
X187836856Y-45722380D02*
X187836856Y-44722380D01*
X188074952Y-44722380D01*
X188217809Y-44770000D01*
X188313047Y-44865238D01*
X188360666Y-44960476D01*
X188408285Y-45150952D01*
X188408285Y-45293809D01*
X188360666Y-45484285D01*
X188313047Y-45579523D01*
X188217809Y-45674761D01*
X188074952Y-45722380D01*
X187836856Y-45722380D01*
X189360666Y-45722380D02*
X188789237Y-45722380D01*
X189074952Y-45722380D02*
X189074952Y-44722380D01*
X188979713Y-44865238D01*
X188884475Y-44960476D01*
X188789237Y-45008095D01*
X117530714Y-45722380D02*
X117530714Y-44722380D01*
X117768809Y-44722380D01*
X117911666Y-44770000D01*
X118006904Y-44865238D01*
X118054523Y-44960476D01*
X118102142Y-45150952D01*
X118102142Y-45293809D01*
X118054523Y-45484285D01*
X118006904Y-45579523D01*
X117911666Y-45674761D01*
X117768809Y-45722380D01*
X117530714Y-45722380D01*
X119054523Y-45722380D02*
X118483095Y-45722380D01*
X118768809Y-45722380D02*
X118768809Y-44722380D01*
X118673571Y-44865238D01*
X118578333Y-44960476D01*
X118483095Y-45008095D01*
X119435476Y-44817619D02*
X119483095Y-44770000D01*
X119578333Y-44722380D01*
X119816428Y-44722380D01*
X119911666Y-44770000D01*
X119959285Y-44817619D01*
X120006904Y-44912857D01*
X120006904Y-45008095D01*
X119959285Y-45150952D01*
X119387857Y-45722380D01*
X120006904Y-45722380D01*
X123880714Y-45722380D02*
X123880714Y-44722380D01*
X124118809Y-44722380D01*
X124261666Y-44770000D01*
X124356904Y-44865238D01*
X124404523Y-44960476D01*
X124452142Y-45150952D01*
X124452142Y-45293809D01*
X124404523Y-45484285D01*
X124356904Y-45579523D01*
X124261666Y-45674761D01*
X124118809Y-45722380D01*
X123880714Y-45722380D01*
X125404523Y-45722380D02*
X124833095Y-45722380D01*
X125118809Y-45722380D02*
X125118809Y-44722380D01*
X125023571Y-44865238D01*
X124928333Y-44960476D01*
X124833095Y-45008095D01*
X126356904Y-45722380D02*
X125785476Y-45722380D01*
X126071190Y-45722380D02*
X126071190Y-44722380D01*
X125975952Y-44865238D01*
X125880714Y-44960476D01*
X125785476Y-45008095D01*
X149736856Y-45722380D02*
X149736856Y-44722380D01*
X149974952Y-44722380D01*
X150117809Y-44770000D01*
X150213047Y-44865238D01*
X150260666Y-44960476D01*
X150308285Y-45150952D01*
X150308285Y-45293809D01*
X150260666Y-45484285D01*
X150213047Y-45579523D01*
X150117809Y-45674761D01*
X149974952Y-45722380D01*
X149736856Y-45722380D01*
X150641618Y-44722380D02*
X151308285Y-44722380D01*
X150879713Y-45722380D01*
D11*
X193766428Y-76357142D02*
X193980714Y-76428571D01*
X194337857Y-76428571D01*
X194480714Y-76357142D01*
X194552142Y-76285714D01*
X194623571Y-76142857D01*
X194623571Y-76000000D01*
X194552142Y-75857142D01*
X194480714Y-75785714D01*
X194337857Y-75714285D01*
X194052142Y-75642857D01*
X193909285Y-75571428D01*
X193837857Y-75500000D01*
X193766428Y-75357142D01*
X193766428Y-75214285D01*
X193837857Y-75071428D01*
X193909285Y-75000000D01*
X194052142Y-74928571D01*
X194409285Y-74928571D01*
X194623571Y-75000000D01*
X196123571Y-76428571D02*
X195623571Y-75714285D01*
X195266428Y-76428571D02*
X195266428Y-74928571D01*
X195837857Y-74928571D01*
X195980714Y-75000000D01*
X196052142Y-75071428D01*
X196123571Y-75214285D01*
X196123571Y-75428571D01*
X196052142Y-75571428D01*
X195980714Y-75642857D01*
X195837857Y-75714285D01*
X195266428Y-75714285D01*
D10*
X168830714Y-138336666D02*
X169306904Y-138336666D01*
X168735476Y-138622380D02*
X169068809Y-137622380D01*
X169402142Y-138622380D01*
X170164047Y-137955714D02*
X170164047Y-138622380D01*
X169925952Y-137574761D02*
X169687857Y-138289047D01*
X170306904Y-138289047D01*
X117554523Y-138336666D02*
X118030714Y-138336666D01*
X117459285Y-138622380D02*
X117792619Y-137622380D01*
X118125952Y-138622380D01*
X118983095Y-138622380D02*
X118411666Y-138622380D01*
X118697380Y-138622380D02*
X118697380Y-137622380D01*
X118602142Y-137765238D01*
X118506904Y-137860476D01*
X118411666Y-137908095D01*
X119364047Y-137717619D02*
X119411666Y-137670000D01*
X119506904Y-137622380D01*
X119745000Y-137622380D01*
X119840238Y-137670000D01*
X119887857Y-137717619D01*
X119935476Y-137812857D01*
X119935476Y-137908095D01*
X119887857Y-138050952D01*
X119316428Y-138622380D01*
X119935476Y-138622380D01*
X194230714Y-138336666D02*
X194706904Y-138336666D01*
X194135476Y-138622380D02*
X194468809Y-137622380D01*
X194802142Y-138622380D01*
X195325952Y-137622380D02*
X195421190Y-137622380D01*
X195516428Y-137670000D01*
X195564047Y-137717619D01*
X195611666Y-137812857D01*
X195659285Y-138003333D01*
X195659285Y-138241428D01*
X195611666Y-138431904D01*
X195564047Y-138527142D01*
X195516428Y-138574761D01*
X195421190Y-138622380D01*
X195325952Y-138622380D01*
X195230714Y-138574761D01*
X195183095Y-138527142D01*
X195135476Y-138431904D01*
X195087857Y-138241428D01*
X195087857Y-138003333D01*
X195135476Y-137812857D01*
X195183095Y-137717619D01*
X195230714Y-137670000D01*
X195325952Y-137622380D01*
%TO.C,J1*%
X208591666Y-55152380D02*
X208591666Y-55866666D01*
X208544047Y-56009523D01*
X208448809Y-56104761D01*
X208305952Y-56152380D01*
X208210714Y-56152380D01*
X209591666Y-56152380D02*
X209020238Y-56152380D01*
X209305952Y-56152380D02*
X209305952Y-55152380D01*
X209210714Y-55295238D01*
X209115476Y-55390476D01*
X209020238Y-55438095D01*
D12*
%TO.C,U3*%
X165225000Y-74165000D02*
X158625000Y-74165000D01*
X158625000Y-54475000D02*
X165225000Y-54475000D01*
X158625000Y-55795000D02*
X158625000Y-54475000D01*
X165225000Y-54475000D02*
X165225000Y-55795000D01*
X165225000Y-72845000D02*
X165225000Y-74165000D01*
X158625000Y-74165000D02*
X158625000Y-72845000D01*
D13*
X156970000Y-56700000D02*
G75*
G03*
X156970000Y-56700000I-100000J0D01*
G01*
D12*
%TO.C,U12*%
X148715000Y-128775000D02*
X142115000Y-128775000D01*
X142115000Y-110405000D02*
X142115000Y-109085000D01*
X142115000Y-109085000D02*
X148715000Y-109085000D01*
X148715000Y-127455000D02*
X148715000Y-128775000D01*
X148715000Y-109085000D02*
X148715000Y-110405000D01*
X142115000Y-128775000D02*
X142115000Y-127455000D01*
D13*
X140460000Y-111310000D02*
G75*
G03*
X140460000Y-111310000I-100000J0D01*
G01*
D14*
%TO.C,Q7*%
X111865000Y-75060000D02*
X115465000Y-75060000D01*
X113665000Y-70609999D02*
G75*
G03*
X111826522Y-75048478I0J-2600001D01*
G01*
X115503478Y-75048478D02*
G75*
G03*
X113665000Y-70610000I-1838478J1838478D01*
G01*
D12*
%TO.C,U4*%
X175135000Y-74165000D02*
X175135000Y-72845000D01*
X175135000Y-54475000D02*
X181735000Y-54475000D01*
X175135000Y-55795000D02*
X175135000Y-54475000D01*
X181735000Y-54475000D02*
X181735000Y-55795000D01*
X181735000Y-74165000D02*
X175135000Y-74165000D01*
X181735000Y-72845000D02*
X181735000Y-74165000D01*
D13*
X173480000Y-56700000D02*
G75*
G03*
X173480000Y-56700000I-100000J0D01*
G01*
D14*
%TO.C,Q4*%
X111865000Y-92840000D02*
X115465000Y-92840000D01*
X115503478Y-92828478D02*
G75*
G03*
X113665000Y-88390000I-1838478J1838478D01*
G01*
X113665000Y-88389999D02*
G75*
G03*
X111826522Y-92828478I0J-2600001D01*
G01*
%TO.C,D12*%
X148818465Y-49970000D02*
X148818465Y-50126000D01*
X148818465Y-47654000D02*
X148818465Y-47810000D01*
X151419595Y-47810163D02*
G75*
G03*
X149337504Y-47810000I-1041130J-1079837D01*
G01*
X152050800Y-47811392D02*
G75*
G03*
X148818465Y-47654484I-1672335J-1078608D01*
G01*
X149337504Y-49970000D02*
G75*
G03*
X151419595Y-49969837I1040961J1080000D01*
G01*
X148818465Y-50125516D02*
G75*
G03*
X152050800Y-49968608I1560000J1235516D01*
G01*
%TO.C,D16*%
X161518465Y-47654000D02*
X161518465Y-47810000D01*
X161518465Y-49970000D02*
X161518465Y-50126000D01*
X164119595Y-47810163D02*
G75*
G03*
X162037504Y-47810000I-1041130J-1079837D01*
G01*
X161518465Y-50125516D02*
G75*
G03*
X164750800Y-49968608I1560000J1235516D01*
G01*
X164750800Y-47811392D02*
G75*
G03*
X161518465Y-47654484I-1672335J-1078608D01*
G01*
X162037504Y-49970000D02*
G75*
G03*
X164119595Y-49969837I1040961J1080000D01*
G01*
D12*
%TO.C,U7*%
X181735000Y-81145000D02*
X181735000Y-82465000D01*
X181735000Y-100835000D02*
X175135000Y-100835000D01*
X175135000Y-81145000D02*
X181735000Y-81145000D01*
X181735000Y-99515000D02*
X181735000Y-100835000D01*
X175135000Y-100835000D02*
X175135000Y-99515000D01*
X175135000Y-82465000D02*
X175135000Y-81145000D01*
D13*
X173480000Y-83370000D02*
G75*
G03*
X173480000Y-83370000I-100000J0D01*
G01*
D12*
%TO.C,U10*%
X130935000Y-100835000D02*
X124335000Y-100835000D01*
X130935000Y-99515000D02*
X130935000Y-100835000D01*
X124335000Y-82465000D02*
X124335000Y-81145000D01*
X124335000Y-81145000D02*
X130935000Y-81145000D01*
X124335000Y-100835000D02*
X124335000Y-99515000D01*
X130935000Y-81145000D02*
X130935000Y-82465000D01*
D13*
X122680000Y-83370000D02*
G75*
G03*
X122680000Y-83370000I-100000J0D01*
G01*
D14*
%TO.C,R11*%
X143495000Y-141440000D02*
X147335000Y-141440000D01*
X143495000Y-139600000D02*
X147335000Y-139600000D01*
%TO.C,D22*%
X180568465Y-47654000D02*
X180568465Y-47810000D01*
X180568465Y-49970000D02*
X180568465Y-50126000D01*
X180568465Y-50125516D02*
G75*
G03*
X183800800Y-49968608I1560000J1235516D01*
G01*
X181087504Y-49970000D02*
G75*
G03*
X183169595Y-49969837I1040961J1080000D01*
G01*
X183800800Y-47811392D02*
G75*
G03*
X180568465Y-47654484I-1672335J-1078608D01*
G01*
X183169595Y-47810163D02*
G75*
G03*
X181087504Y-47810000I-1041130J-1079837D01*
G01*
%TO.C,R10*%
X138415000Y-41810000D02*
X142255000Y-41810000D01*
X138415000Y-43650000D02*
X142255000Y-43650000D01*
%TO.C,D9*%
X136235000Y-134204000D02*
X136235000Y-134360000D01*
X136235000Y-136520000D02*
X136235000Y-136676000D01*
X136754039Y-136520000D02*
G75*
G03*
X138836130Y-136519837I1040961J1080000D01*
G01*
X136235000Y-136675516D02*
G75*
G03*
X139467335Y-136518608I1560000J1235516D01*
G01*
X138836130Y-134360163D02*
G75*
G03*
X136754039Y-134360000I-1041130J-1079837D01*
G01*
X139467335Y-134361392D02*
G75*
G03*
X136235000Y-134204484I-1672335J-1078608D01*
G01*
%TO.C,R6*%
X123175000Y-43650000D02*
X127015000Y-43650000D01*
X123175000Y-41810000D02*
X127015000Y-41810000D01*
%TO.C,D21*%
X174335000Y-134204000D02*
X174335000Y-134360000D01*
X174335000Y-136520000D02*
X174335000Y-136676000D01*
X174335000Y-136675516D02*
G75*
G03*
X177567335Y-136518608I1560000J1235516D01*
G01*
X177567335Y-134361392D02*
G75*
G03*
X174335000Y-134204484I-1672335J-1078608D01*
G01*
X174854039Y-136520000D02*
G75*
G03*
X176936130Y-136519837I1040961J1080000D01*
G01*
X176936130Y-134360163D02*
G75*
G03*
X174854039Y-134360000I-1041130J-1079837D01*
G01*
%TO.C,R5*%
X120635000Y-141440000D02*
X124475000Y-141440000D01*
X120635000Y-139600000D02*
X124475000Y-139600000D01*
%TO.C,Q1*%
X111865000Y-119510000D02*
X115465000Y-119510000D01*
X115503478Y-119498478D02*
G75*
G03*
X113665000Y-115060000I-1838478J1838478D01*
G01*
X113665000Y-115059999D02*
G75*
G03*
X111826522Y-119498478I0J-2600001D01*
G01*
%TO.C,R1*%
X111475000Y-137360000D02*
X111475000Y-133520000D01*
X113315000Y-137360000D02*
X113315000Y-133520000D01*
%TO.C,D5*%
X123535000Y-136520000D02*
X123535000Y-136676000D01*
X123535000Y-134204000D02*
X123535000Y-134360000D01*
X126136130Y-134360163D02*
G75*
G03*
X124054039Y-134360000I-1041130J-1079837D01*
G01*
X126767335Y-134361392D02*
G75*
G03*
X123535000Y-134204484I-1672335J-1078608D01*
G01*
X124054039Y-136520000D02*
G75*
G03*
X126136130Y-136519837I1040961J1080000D01*
G01*
X123535000Y-136675516D02*
G75*
G03*
X126767335Y-136518608I1560000J1235516D01*
G01*
%TO.C,D3*%
X117185000Y-134204000D02*
X117185000Y-134360000D01*
X117185000Y-136520000D02*
X117185000Y-136676000D01*
X117704039Y-136520000D02*
G75*
G03*
X119786130Y-136519837I1040961J1080000D01*
G01*
X117185000Y-136675516D02*
G75*
G03*
X120417335Y-136518608I1560000J1235516D01*
G01*
X120417335Y-134361392D02*
G75*
G03*
X117185000Y-134204484I-1672335J-1078608D01*
G01*
X119786130Y-134360163D02*
G75*
G03*
X117704039Y-134360000I-1041130J-1079837D01*
G01*
D12*
%TO.C,U1*%
X124335000Y-74165000D02*
X124335000Y-72845000D01*
X130935000Y-72845000D02*
X130935000Y-74165000D01*
X124335000Y-54475000D02*
X130935000Y-54475000D01*
X130935000Y-74165000D02*
X124335000Y-74165000D01*
X130935000Y-54475000D02*
X130935000Y-55795000D01*
X124335000Y-55795000D02*
X124335000Y-54475000D01*
D13*
X122680000Y-56700000D02*
G75*
G03*
X122680000Y-56700000I-100000J0D01*
G01*
D14*
%TO.C,R27*%
X200375000Y-137360000D02*
X200375000Y-133520000D01*
X202215000Y-137360000D02*
X202215000Y-133520000D01*
%TO.C,R2*%
X113315000Y-44620000D02*
X113315000Y-48460000D01*
X111475000Y-44620000D02*
X111475000Y-48460000D01*
%TO.C,D4*%
X123418465Y-49970000D02*
X123418465Y-50126000D01*
X123418465Y-47654000D02*
X123418465Y-47810000D01*
X123937504Y-49970000D02*
G75*
G03*
X126019595Y-49969837I1040961J1080000D01*
G01*
X126650800Y-47811392D02*
G75*
G03*
X123418465Y-47654484I-1672335J-1078608D01*
G01*
X123418465Y-50125516D02*
G75*
G03*
X126650800Y-49968608I1560000J1235516D01*
G01*
X126019595Y-47810163D02*
G75*
G03*
X123937504Y-47810000I-1041130J-1079837D01*
G01*
D12*
%TO.C,U8*%
X158750000Y-100765000D02*
X165100000Y-100765000D01*
X158750000Y-81215000D02*
X165100000Y-81215000D01*
D13*
X156990000Y-82100000D02*
G75*
G03*
X156990000Y-82100000I-100000J0D01*
G01*
D14*
%TO.C,D10*%
X142468465Y-49970000D02*
X142468465Y-50126000D01*
X142468465Y-47654000D02*
X142468465Y-47810000D01*
X145069595Y-47810163D02*
G75*
G03*
X142987504Y-47810000I-1041130J-1079837D01*
G01*
X142468465Y-50125516D02*
G75*
G03*
X145700800Y-49968608I1560000J1235516D01*
G01*
X142987504Y-49970000D02*
G75*
G03*
X145069595Y-49969837I1040961J1080000D01*
G01*
X145700800Y-47811392D02*
G75*
G03*
X142468465Y-47654484I-1672335J-1078608D01*
G01*
D12*
%TO.C,U15*%
X198245000Y-128775000D02*
X191645000Y-128775000D01*
X198245000Y-127455000D02*
X198245000Y-128775000D01*
X191645000Y-110405000D02*
X191645000Y-109085000D01*
X191645000Y-109085000D02*
X198245000Y-109085000D01*
X198245000Y-109085000D02*
X198245000Y-110405000D01*
X191645000Y-128775000D02*
X191645000Y-127455000D01*
D13*
X189990000Y-111310000D02*
G75*
G03*
X189990000Y-111310000I-100000J0D01*
G01*
D14*
%TO.C,D7*%
X129885000Y-136520000D02*
X129885000Y-136676000D01*
X129885000Y-134204000D02*
X129885000Y-134360000D01*
X129885000Y-136675516D02*
G75*
G03*
X133117335Y-136518608I1560000J1235516D01*
G01*
X133117335Y-134361392D02*
G75*
G03*
X129885000Y-134204484I-1672335J-1078608D01*
G01*
X130404039Y-136520000D02*
G75*
G03*
X132486130Y-136519837I1040961J1080000D01*
G01*
X132486130Y-134360163D02*
G75*
G03*
X130404039Y-134360000I-1041130J-1079837D01*
G01*
%TO.C,D26*%
X193268465Y-49970000D02*
X193268465Y-50126000D01*
X193268465Y-47654000D02*
X193268465Y-47810000D01*
X193787504Y-49970000D02*
G75*
G03*
X195869595Y-49969837I1040961J1080000D01*
G01*
X195869595Y-47810163D02*
G75*
G03*
X193787504Y-47810000I-1041130J-1079837D01*
G01*
X193268465Y-50125516D02*
G75*
G03*
X196500800Y-49968608I1560000J1235516D01*
G01*
X196500800Y-47811392D02*
G75*
G03*
X193268465Y-47654484I-1672335J-1078608D01*
G01*
%TO.C,D13*%
X148935000Y-136520000D02*
X148935000Y-136676000D01*
X148935000Y-134204000D02*
X148935000Y-134360000D01*
X148935000Y-136675516D02*
G75*
G03*
X152167335Y-136518608I1560000J1235516D01*
G01*
X151536130Y-134360163D02*
G75*
G03*
X149454039Y-134360000I-1041130J-1079837D01*
G01*
X152167335Y-134361392D02*
G75*
G03*
X148935000Y-134204484I-1672335J-1078608D01*
G01*
X149454039Y-136520000D02*
G75*
G03*
X151536130Y-136519837I1040961J1080000D01*
G01*
%TO.C,R24*%
X191755000Y-43650000D02*
X195595000Y-43650000D01*
X191755000Y-41810000D02*
X195595000Y-41810000D01*
%TO.C,R20*%
X176515000Y-43650000D02*
X180355000Y-43650000D01*
X176515000Y-41810000D02*
X180355000Y-41810000D01*
%TO.C,D8*%
X136118465Y-49970000D02*
X136118465Y-50126000D01*
X136118465Y-47654000D02*
X136118465Y-47810000D01*
X138719595Y-47810163D02*
G75*
G03*
X136637504Y-47810000I-1041130J-1079837D01*
G01*
X139350800Y-47811392D02*
G75*
G03*
X136118465Y-47654484I-1672335J-1078608D01*
G01*
X136118465Y-50125516D02*
G75*
G03*
X139350800Y-49968608I1560000J1235516D01*
G01*
X136637504Y-49970000D02*
G75*
G03*
X138719595Y-49969837I1040961J1080000D01*
G01*
%TO.C,D23*%
X180685000Y-134204000D02*
X180685000Y-134360000D01*
X180685000Y-136520000D02*
X180685000Y-136676000D01*
X183286130Y-134360163D02*
G75*
G03*
X181204039Y-134360000I-1041130J-1079837D01*
G01*
X183917335Y-134361392D02*
G75*
G03*
X180685000Y-134204484I-1672335J-1078608D01*
G01*
X180685000Y-136675516D02*
G75*
G03*
X183917335Y-136518608I1560000J1235516D01*
G01*
X181204039Y-136520000D02*
G75*
G03*
X183286130Y-136519837I1040961J1080000D01*
G01*
%TO.C,D27*%
X193385000Y-136520000D02*
X193385000Y-136676000D01*
X193385000Y-134204000D02*
X193385000Y-134360000D01*
X196617335Y-134361392D02*
G75*
G03*
X193385000Y-134204484I-1672335J-1078608D01*
G01*
X195986130Y-134360163D02*
G75*
G03*
X193904039Y-134360000I-1041130J-1079837D01*
G01*
X193385000Y-136675516D02*
G75*
G03*
X196617335Y-136518608I1560000J1235516D01*
G01*
X193904039Y-136520000D02*
G75*
G03*
X195986130Y-136519837I1040961J1080000D01*
G01*
%TO.C,Q8*%
X111865000Y-57280000D02*
X115465000Y-57280000D01*
X113665000Y-52829999D02*
G75*
G03*
X111826522Y-57268478I0J-2600001D01*
G01*
X115503478Y-57268478D02*
G75*
G03*
X113665000Y-52830000I-1838478J1838478D01*
G01*
%TO.C,R26*%
X199105000Y-44620000D02*
X199105000Y-48460000D01*
X200945000Y-44620000D02*
X200945000Y-48460000D01*
D12*
%TO.C,U11*%
X130935000Y-128775000D02*
X124335000Y-128775000D01*
X130935000Y-109085000D02*
X130935000Y-110405000D01*
X124335000Y-109085000D02*
X130935000Y-109085000D01*
X124335000Y-110405000D02*
X124335000Y-109085000D01*
X130935000Y-127455000D02*
X130935000Y-128775000D01*
X124335000Y-128775000D02*
X124335000Y-127455000D01*
D13*
X122680000Y-111310000D02*
G75*
G03*
X122680000Y-111310000I-100000J0D01*
G01*
D14*
%TO.C,Q3*%
X111865000Y-66170000D02*
X115465000Y-66170000D01*
X115503478Y-66158478D02*
G75*
G03*
X113665000Y-61720000I-1838478J1838478D01*
G01*
X113665000Y-61719999D02*
G75*
G03*
X111826522Y-66158478I0J-2600001D01*
G01*
%TO.C,D18*%
X167868465Y-49970000D02*
X167868465Y-50126000D01*
X167868465Y-47654000D02*
X167868465Y-47810000D01*
X171100800Y-47811392D02*
G75*
G03*
X167868465Y-47654484I-1672335J-1078608D01*
G01*
X168387504Y-49970000D02*
G75*
G03*
X170469595Y-49969837I1040961J1080000D01*
G01*
X167868465Y-50125516D02*
G75*
G03*
X171100800Y-49968608I1560000J1235516D01*
G01*
X170469595Y-47810163D02*
G75*
G03*
X168387504Y-47810000I-1041130J-1079837D01*
G01*
%TO.C,R3*%
X113015000Y-141440000D02*
X116855000Y-141440000D01*
X113015000Y-139600000D02*
X116855000Y-139600000D01*
%TO.C,R18*%
X168895000Y-43650000D02*
X172735000Y-43650000D01*
X168895000Y-41810000D02*
X172735000Y-41810000D01*
%TO.C,R16*%
X161275000Y-43650000D02*
X165115000Y-43650000D01*
X161275000Y-41810000D02*
X165115000Y-41810000D01*
%TO.C,R23*%
X189215000Y-139600000D02*
X193055000Y-139600000D01*
X189215000Y-141440000D02*
X193055000Y-141440000D01*
D12*
%TO.C,U14*%
X181735000Y-128775000D02*
X175135000Y-128775000D01*
X175135000Y-109085000D02*
X181735000Y-109085000D01*
X175135000Y-110405000D02*
X175135000Y-109085000D01*
X181735000Y-127455000D02*
X181735000Y-128775000D01*
X181735000Y-109085000D02*
X181735000Y-110405000D01*
X175135000Y-128775000D02*
X175135000Y-127455000D01*
D13*
X173480000Y-111310000D02*
G75*
G03*
X173480000Y-111310000I-100000J0D01*
G01*
D14*
%TO.C,R9*%
X135875000Y-141440000D02*
X139715000Y-141440000D01*
X135875000Y-139600000D02*
X139715000Y-139600000D01*
D12*
%TO.C,U9*%
X142115000Y-81145000D02*
X148715000Y-81145000D01*
X142115000Y-82465000D02*
X142115000Y-81145000D01*
X148715000Y-100835000D02*
X142115000Y-100835000D01*
X148715000Y-81145000D02*
X148715000Y-82465000D01*
X142115000Y-100835000D02*
X142115000Y-99515000D01*
X148715000Y-99515000D02*
X148715000Y-100835000D01*
D13*
X140460000Y-83370000D02*
G75*
G03*
X140460000Y-83370000I-100000J0D01*
G01*
D14*
%TO.C,D2*%
X117068465Y-49970000D02*
X117068465Y-50126000D01*
X117068465Y-47654000D02*
X117068465Y-47810000D01*
X117068465Y-50125516D02*
G75*
G03*
X120300800Y-49968608I1560000J1235516D01*
G01*
X117587504Y-49970000D02*
G75*
G03*
X119669595Y-49969837I1040961J1080000D01*
G01*
X120300800Y-47811392D02*
G75*
G03*
X117068465Y-47654484I-1672335J-1078608D01*
G01*
X119669595Y-47810163D02*
G75*
G03*
X117587504Y-47810000I-1041130J-1079837D01*
G01*
%TO.C,R4*%
X115555000Y-41810000D02*
X119395000Y-41810000D01*
X115555000Y-43650000D02*
X119395000Y-43650000D01*
%TO.C,Q2*%
X111865000Y-110620000D02*
X115465000Y-110620000D01*
X115503478Y-110608478D02*
G75*
G03*
X113665000Y-106170000I-1838478J1838478D01*
G01*
X113665000Y-106169999D02*
G75*
G03*
X111826522Y-110608478I0J-2600001D01*
G01*
%TO.C,R22*%
X184135000Y-43650000D02*
X187975000Y-43650000D01*
X184135000Y-41810000D02*
X187975000Y-41810000D01*
D12*
%TO.C,U13*%
X158750000Y-109155000D02*
X165100000Y-109155000D01*
X158750000Y-128705000D02*
X165100000Y-128705000D01*
D13*
X156990000Y-110040000D02*
G75*
G03*
X156990000Y-110040000I-100000J0D01*
G01*
D14*
%TO.C,D6*%
X129768465Y-49970000D02*
X129768465Y-50126000D01*
X129768465Y-47654000D02*
X129768465Y-47810000D01*
X132369595Y-47810163D02*
G75*
G03*
X130287504Y-47810000I-1041130J-1079837D01*
G01*
X130287504Y-49970000D02*
G75*
G03*
X132369595Y-49969837I1040961J1080000D01*
G01*
X133000800Y-47811392D02*
G75*
G03*
X129768465Y-47654484I-1672335J-1078608D01*
G01*
X129768465Y-50125516D02*
G75*
G03*
X133000800Y-49968608I1560000J1235516D01*
G01*
%TO.C,R28*%
X109505000Y-63700000D02*
X109505000Y-59860000D01*
X107665000Y-63700000D02*
X107665000Y-59860000D01*
%TO.C,D24*%
X186918465Y-49970000D02*
X186918465Y-50126000D01*
X186918465Y-47654000D02*
X186918465Y-47810000D01*
X187437504Y-49970000D02*
G75*
G03*
X189519595Y-49969837I1040961J1080000D01*
G01*
X189519595Y-47810163D02*
G75*
G03*
X187437504Y-47810000I-1041130J-1079837D01*
G01*
X186918465Y-50125516D02*
G75*
G03*
X190150800Y-49968608I1560000J1235516D01*
G01*
X190150800Y-47811392D02*
G75*
G03*
X186918465Y-47654484I-1672335J-1078608D01*
G01*
%TO.C,R7*%
X128255000Y-141440000D02*
X132095000Y-141440000D01*
X128255000Y-139600000D02*
X132095000Y-139600000D01*
%TO.C,J1*%
X205582929Y-71050000D02*
X205980000Y-71050000D01*
X205582929Y-65970000D02*
X205980000Y-65970000D01*
X214640000Y-113470000D02*
X214640000Y-114230000D01*
X208640000Y-77910000D02*
X214640000Y-77910000D01*
X205582929Y-81210000D02*
X205980000Y-81210000D01*
X203270000Y-57970000D02*
X203270000Y-56700000D01*
X208640000Y-75370000D02*
X214640000Y-75370000D01*
X205980000Y-110040000D02*
X208640000Y-110040000D01*
X205582929Y-121850000D02*
X205980000Y-121850000D01*
X205582929Y-116010000D02*
X205980000Y-116010000D01*
X205582929Y-60890000D02*
X205980000Y-60890000D01*
X214640000Y-98990000D02*
X208640000Y-98990000D01*
X205582929Y-75370000D02*
X205980000Y-75370000D01*
X205582929Y-104070000D02*
X205980000Y-104070000D01*
X208640000Y-57890000D02*
X214640000Y-57890000D01*
X205980000Y-104960000D02*
X208640000Y-104960000D01*
X205582929Y-76130000D02*
X205980000Y-76130000D01*
X205582929Y-88830000D02*
X205980000Y-88830000D01*
X214640000Y-82990000D02*
X214640000Y-83750000D01*
X205980000Y-99880000D02*
X208640000Y-99880000D01*
X205582929Y-118550000D02*
X205980000Y-118550000D01*
X214640000Y-121850000D02*
X208640000Y-121850000D01*
X205980000Y-122740000D02*
X208640000Y-122740000D01*
X214640000Y-105850000D02*
X214640000Y-106610000D01*
X208640000Y-113470000D02*
X214640000Y-113470000D01*
X208640000Y-85530000D02*
X214640000Y-85530000D01*
X214640000Y-78670000D02*
X208640000Y-78670000D01*
X205582929Y-116770000D02*
X205980000Y-116770000D01*
X205582929Y-100770000D02*
X205980000Y-100770000D01*
X205980000Y-59240000D02*
X208640000Y-59240000D01*
X205980000Y-79560000D02*
X208640000Y-79560000D01*
X205582929Y-121090000D02*
X205980000Y-121090000D01*
X214640000Y-63430000D02*
X208640000Y-63430000D01*
X214640000Y-60130000D02*
X214640000Y-60890000D01*
X205582929Y-73590000D02*
X205980000Y-73590000D01*
X205582929Y-60130000D02*
X205980000Y-60130000D01*
X205980000Y-97340000D02*
X208640000Y-97340000D01*
X205582929Y-93910000D02*
X205980000Y-93910000D01*
X214640000Y-76130000D02*
X208640000Y-76130000D01*
X214640000Y-73590000D02*
X208640000Y-73590000D01*
X214640000Y-91370000D02*
X208640000Y-91370000D01*
X205980000Y-117660000D02*
X208640000Y-117660000D01*
X205980000Y-71940000D02*
X208640000Y-71940000D01*
X205980000Y-89720000D02*
X208640000Y-89720000D01*
X205980000Y-102420000D02*
X208640000Y-102420000D01*
X208640000Y-72830000D02*
X214640000Y-72830000D01*
X205650000Y-57590000D02*
X205980000Y-57590000D01*
X214640000Y-108390000D02*
X214640000Y-109150000D01*
X214640000Y-101530000D02*
X208640000Y-101530000D01*
X214640000Y-65210000D02*
X214640000Y-65970000D01*
X208640000Y-121090000D02*
X214640000Y-121090000D01*
X208640000Y-118550000D02*
X214640000Y-118550000D01*
X214640000Y-124390000D02*
X208640000Y-124390000D01*
X205980000Y-74480000D02*
X208640000Y-74480000D01*
X208640000Y-123630000D02*
X214640000Y-123630000D01*
X205582929Y-78670000D02*
X205980000Y-78670000D01*
X205582929Y-111690000D02*
X205980000Y-111690000D01*
X208640000Y-88070000D02*
X214640000Y-88070000D01*
X208640000Y-95690000D02*
X214640000Y-95690000D01*
X208640000Y-57770000D02*
X214640000Y-57770000D01*
X214640000Y-88830000D02*
X208640000Y-88830000D01*
X214640000Y-71050000D02*
X208640000Y-71050000D01*
X205582929Y-83750000D02*
X205980000Y-83750000D01*
X214640000Y-98230000D02*
X214640000Y-98990000D01*
X214640000Y-109150000D02*
X208640000Y-109150000D01*
X214640000Y-68510000D02*
X208640000Y-68510000D01*
X214640000Y-81210000D02*
X208640000Y-81210000D01*
X214640000Y-77910000D02*
X214640000Y-78670000D01*
X208640000Y-58130000D02*
X214640000Y-58130000D01*
X214640000Y-86290000D02*
X208640000Y-86290000D01*
X205980000Y-112580000D02*
X208640000Y-112580000D01*
X214640000Y-110930000D02*
X214640000Y-111690000D01*
X214640000Y-119310000D02*
X208640000Y-119310000D01*
X205582929Y-108390000D02*
X205980000Y-108390000D01*
X214640000Y-67750000D02*
X214640000Y-68510000D01*
X214640000Y-62670000D02*
X214640000Y-63430000D01*
X208640000Y-67750000D02*
X214640000Y-67750000D01*
X205582929Y-113470000D02*
X205980000Y-113470000D01*
X205582929Y-109150000D02*
X205980000Y-109150000D01*
X205582929Y-65210000D02*
X205980000Y-65210000D01*
X208640000Y-58010000D02*
X214640000Y-58010000D01*
X214640000Y-116010000D02*
X214640000Y-116770000D01*
X205582929Y-103310000D02*
X205980000Y-103310000D01*
X205582929Y-98990000D02*
X205980000Y-98990000D01*
X205980000Y-69400000D02*
X208640000Y-69400000D01*
X205582929Y-62670000D02*
X205980000Y-62670000D01*
X214640000Y-83750000D02*
X208640000Y-83750000D01*
X205980000Y-56640000D02*
X205980000Y-125340000D01*
X208640000Y-116010000D02*
X214640000Y-116010000D01*
X205980000Y-87180000D02*
X208640000Y-87180000D01*
X205980000Y-84640000D02*
X208640000Y-84640000D01*
X205650000Y-58350000D02*
X205980000Y-58350000D01*
X205980000Y-94800000D02*
X208640000Y-94800000D01*
X208640000Y-58250000D02*
X214640000Y-58250000D01*
X205980000Y-66860000D02*
X208640000Y-66860000D01*
X214640000Y-72830000D02*
X214640000Y-73590000D01*
X214640000Y-106610000D02*
X208640000Y-106610000D01*
X208640000Y-93150000D02*
X214640000Y-93150000D01*
X214640000Y-60890000D02*
X208640000Y-60890000D01*
X205582929Y-80450000D02*
X205980000Y-80450000D01*
X205582929Y-85530000D02*
X205980000Y-85530000D01*
X205582929Y-67750000D02*
X205980000Y-67750000D01*
X208640000Y-105850000D02*
X214640000Y-105850000D01*
X208640000Y-98230000D02*
X214640000Y-98230000D01*
X205980000Y-64320000D02*
X208640000Y-64320000D01*
X208640000Y-100770000D02*
X214640000Y-100770000D01*
X208640000Y-80450000D02*
X214640000Y-80450000D01*
X214640000Y-65970000D02*
X208640000Y-65970000D01*
X214640000Y-90610000D02*
X214640000Y-91370000D01*
X208640000Y-108390000D02*
X214640000Y-108390000D01*
X208640000Y-110930000D02*
X214640000Y-110930000D01*
X214640000Y-70290000D02*
X214640000Y-71050000D01*
X205582929Y-98230000D02*
X205980000Y-98230000D01*
X205582929Y-91370000D02*
X205980000Y-91370000D01*
X208640000Y-90610000D02*
X214640000Y-90610000D01*
X208640000Y-70290000D02*
X214640000Y-70290000D01*
X214640000Y-93910000D02*
X208640000Y-93910000D01*
X214640000Y-57590000D02*
X214640000Y-58350000D01*
X208640000Y-57590000D02*
X214640000Y-57590000D01*
X205582929Y-124390000D02*
X205980000Y-124390000D01*
X205582929Y-77910000D02*
X205980000Y-77910000D01*
X205582929Y-93150000D02*
X205980000Y-93150000D01*
X214640000Y-85530000D02*
X214640000Y-86290000D01*
X214640000Y-111690000D02*
X208640000Y-111690000D01*
X208640000Y-82990000D02*
X214640000Y-82990000D01*
X205582929Y-63430000D02*
X205980000Y-63430000D01*
X214640000Y-116770000D02*
X208640000Y-116770000D01*
X214640000Y-95690000D02*
X214640000Y-96450000D01*
X205582929Y-82990000D02*
X205980000Y-82990000D01*
X214640000Y-104070000D02*
X208640000Y-104070000D01*
X205980000Y-125340000D02*
X208640000Y-125340000D01*
X214640000Y-100770000D02*
X214640000Y-101530000D01*
X208640000Y-103310000D02*
X214640000Y-103310000D01*
X205980000Y-120200000D02*
X208640000Y-120200000D01*
X214640000Y-80450000D02*
X214640000Y-81210000D01*
X205582929Y-101530000D02*
X205980000Y-101530000D01*
X205980000Y-77020000D02*
X208640000Y-77020000D01*
X205980000Y-61780000D02*
X208640000Y-61780000D01*
X208640000Y-125340000D02*
X208640000Y-56640000D01*
X205582929Y-105850000D02*
X205980000Y-105850000D01*
X205582929Y-95690000D02*
X205980000Y-95690000D01*
X214640000Y-118550000D02*
X214640000Y-119310000D01*
X214640000Y-123630000D02*
X214640000Y-124390000D01*
X205582929Y-119310000D02*
X205980000Y-119310000D01*
X208640000Y-62670000D02*
X214640000Y-62670000D01*
X214640000Y-93150000D02*
X214640000Y-93910000D01*
X205582929Y-70290000D02*
X205980000Y-70290000D01*
X214640000Y-75370000D02*
X214640000Y-76130000D01*
X205582929Y-72830000D02*
X205980000Y-72830000D01*
X205582929Y-114230000D02*
X205980000Y-114230000D01*
X205980000Y-82100000D02*
X208640000Y-82100000D01*
X205582929Y-96450000D02*
X205980000Y-96450000D01*
X214640000Y-88070000D02*
X214640000Y-88830000D01*
X214640000Y-96450000D02*
X208640000Y-96450000D01*
X205582929Y-110930000D02*
X205980000Y-110930000D01*
X208640000Y-65210000D02*
X214640000Y-65210000D01*
X205582929Y-68510000D02*
X205980000Y-68510000D01*
X214640000Y-58350000D02*
X208640000Y-58350000D01*
X203270000Y-56700000D02*
X204540000Y-56700000D01*
X205582929Y-106610000D02*
X205980000Y-106610000D01*
X208640000Y-60130000D02*
X214640000Y-60130000D01*
X205980000Y-107500000D02*
X208640000Y-107500000D01*
X205980000Y-92260000D02*
X208640000Y-92260000D01*
X205582929Y-88070000D02*
X205980000Y-88070000D01*
X214640000Y-121090000D02*
X214640000Y-121850000D01*
X205980000Y-115120000D02*
X208640000Y-115120000D01*
X205582929Y-123630000D02*
X205980000Y-123630000D01*
X208640000Y-56640000D02*
X205980000Y-56640000D01*
X205582929Y-86290000D02*
X205980000Y-86290000D01*
X208640000Y-57650000D02*
X214640000Y-57650000D01*
X214640000Y-103310000D02*
X214640000Y-104070000D01*
X205582929Y-90610000D02*
X205980000Y-90610000D01*
X214640000Y-114230000D02*
X208640000Y-114230000D01*
%TO.C,Q5*%
X111865000Y-101730000D02*
X115465000Y-101730000D01*
X115503478Y-101718478D02*
G75*
G03*
X113665000Y-97280000I-1838478J1838478D01*
G01*
X113665000Y-97279999D02*
G75*
G03*
X111826522Y-101718478I0J-2600001D01*
G01*
%TO.C,D14*%
X155168465Y-47654000D02*
X155168465Y-47810000D01*
X155168465Y-49970000D02*
X155168465Y-50126000D01*
X155687504Y-49970000D02*
G75*
G03*
X157769595Y-49969837I1040961J1080000D01*
G01*
X157769595Y-47810163D02*
G75*
G03*
X155687504Y-47810000I-1041130J-1079837D01*
G01*
X158400800Y-47811392D02*
G75*
G03*
X155168465Y-47654484I-1672335J-1078608D01*
G01*
X155168465Y-50125516D02*
G75*
G03*
X158400800Y-49968608I1560000J1235516D01*
G01*
%TO.C,R13*%
X151115000Y-141440000D02*
X154955000Y-141440000D01*
X151115000Y-139600000D02*
X154955000Y-139600000D01*
%TO.C,R12*%
X146035000Y-41810000D02*
X149875000Y-41810000D01*
X146035000Y-43650000D02*
X149875000Y-43650000D01*
%TO.C,D1*%
X111159000Y-129380000D02*
X111315000Y-129380000D01*
X113475000Y-129380000D02*
X113631000Y-129380000D01*
X111315163Y-126778870D02*
G75*
G03*
X111315000Y-128860961I1079837J-1041130D01*
G01*
X111316392Y-126147665D02*
G75*
G03*
X111159484Y-129380000I1078608J-1672335D01*
G01*
X113475000Y-128860961D02*
G75*
G03*
X113474837Y-126778870I-1080000J1040961D01*
G01*
X113630516Y-129380000D02*
G75*
G03*
X113473608Y-126147665I-1235516J1560000D01*
G01*
D12*
%TO.C,U2*%
X142115000Y-54475000D02*
X148715000Y-54475000D01*
X148715000Y-72845000D02*
X148715000Y-74165000D01*
X148715000Y-74165000D02*
X142115000Y-74165000D01*
X142115000Y-74165000D02*
X142115000Y-72845000D01*
X142115000Y-55795000D02*
X142115000Y-54475000D01*
X148715000Y-54475000D02*
X148715000Y-55795000D01*
D13*
X140460000Y-56700000D02*
G75*
G03*
X140460000Y-56700000I-100000J0D01*
G01*
D14*
%TO.C,R14*%
X153655000Y-43650000D02*
X157495000Y-43650000D01*
X153655000Y-41810000D02*
X157495000Y-41810000D01*
D12*
%TO.C,U5*%
X198245000Y-54475000D02*
X198245000Y-55795000D01*
X191645000Y-54475000D02*
X198245000Y-54475000D01*
X198245000Y-72845000D02*
X198245000Y-74165000D01*
X191645000Y-55795000D02*
X191645000Y-54475000D01*
X191645000Y-74165000D02*
X191645000Y-72845000D01*
X198245000Y-74165000D02*
X191645000Y-74165000D01*
D13*
X189990000Y-56700000D02*
G75*
G03*
X189990000Y-56700000I-100000J0D01*
G01*
D14*
%TO.C,R17*%
X166355000Y-139600000D02*
X170195000Y-139600000D01*
X166355000Y-141440000D02*
X170195000Y-141440000D01*
%TO.C,D25*%
X187035000Y-134204000D02*
X187035000Y-134360000D01*
X187035000Y-136520000D02*
X187035000Y-136676000D01*
X189636130Y-134360163D02*
G75*
G03*
X187554039Y-134360000I-1041130J-1079837D01*
G01*
X187554039Y-136520000D02*
G75*
G03*
X189636130Y-136519837I1040961J1080000D01*
G01*
X190267335Y-134361392D02*
G75*
G03*
X187035000Y-134204484I-1672335J-1078608D01*
G01*
X187035000Y-136675516D02*
G75*
G03*
X190267335Y-136518608I1560000J1235516D01*
G01*
%TO.C,D17*%
X161635000Y-134204000D02*
X161635000Y-134360000D01*
X161635000Y-136520000D02*
X161635000Y-136676000D01*
X164236130Y-134360163D02*
G75*
G03*
X162154039Y-134360000I-1041130J-1079837D01*
G01*
X161635000Y-136675516D02*
G75*
G03*
X164867335Y-136518608I1560000J1235516D01*
G01*
X164867335Y-134361392D02*
G75*
G03*
X161635000Y-134204484I-1672335J-1078608D01*
G01*
X162154039Y-136520000D02*
G75*
G03*
X164236130Y-136519837I1040961J1080000D01*
G01*
%TO.C,R8*%
X130795000Y-41810000D02*
X134635000Y-41810000D01*
X130795000Y-43650000D02*
X134635000Y-43650000D01*
D12*
%TO.C,U6*%
X198245000Y-81145000D02*
X198245000Y-82465000D01*
X191645000Y-82465000D02*
X191645000Y-81145000D01*
X198245000Y-99515000D02*
X198245000Y-100835000D01*
X191645000Y-100835000D02*
X191645000Y-99515000D01*
X191645000Y-81145000D02*
X198245000Y-81145000D01*
X198245000Y-100835000D02*
X191645000Y-100835000D01*
D13*
X189990000Y-83370000D02*
G75*
G03*
X189990000Y-83370000I-100000J0D01*
G01*
D14*
%TO.C,R19*%
X173975000Y-141440000D02*
X177815000Y-141440000D01*
X173975000Y-139600000D02*
X177815000Y-139600000D01*
%TO.C,R15*%
X158735000Y-139600000D02*
X162575000Y-139600000D01*
X158735000Y-141440000D02*
X162575000Y-141440000D01*
%TO.C,D20*%
X174218465Y-47654000D02*
X174218465Y-47810000D01*
X174218465Y-49970000D02*
X174218465Y-50126000D01*
X176819595Y-47810163D02*
G75*
G03*
X174737504Y-47810000I-1041130J-1079837D01*
G01*
X174737504Y-49970000D02*
G75*
G03*
X176819595Y-49969837I1040961J1080000D01*
G01*
X177450800Y-47811392D02*
G75*
G03*
X174218465Y-47654484I-1672335J-1078608D01*
G01*
X174218465Y-50125516D02*
G75*
G03*
X177450800Y-49968608I1560000J1235516D01*
G01*
%TO.C,D19*%
X167985000Y-136520000D02*
X167985000Y-136676000D01*
X167985000Y-134204000D02*
X167985000Y-134360000D01*
X170586130Y-134360163D02*
G75*
G03*
X168504039Y-134360000I-1041130J-1079837D01*
G01*
X168504039Y-136520000D02*
G75*
G03*
X170586130Y-136519837I1040961J1080000D01*
G01*
X171217335Y-134361392D02*
G75*
G03*
X167985000Y-134204484I-1672335J-1078608D01*
G01*
X167985000Y-136675516D02*
G75*
G03*
X171217335Y-136518608I1560000J1235516D01*
G01*
%TO.C,R25*%
X196835000Y-141440000D02*
X200675000Y-141440000D01*
X196835000Y-139600000D02*
X200675000Y-139600000D01*
%TO.C,Q6*%
X111865000Y-83950000D02*
X115465000Y-83950000D01*
X115503478Y-83938478D02*
G75*
G03*
X113665000Y-79500000I-1838478J1838478D01*
G01*
X113665000Y-79499999D02*
G75*
G03*
X111826522Y-83938478I0J-2600001D01*
G01*
%TO.C,D11*%
X142585000Y-136520000D02*
X142585000Y-136676000D01*
X142585000Y-134204000D02*
X142585000Y-134360000D01*
X145186130Y-134360163D02*
G75*
G03*
X143104039Y-134360000I-1041130J-1079837D01*
G01*
X143104039Y-136520000D02*
G75*
G03*
X145186130Y-136519837I1040961J1080000D01*
G01*
X142585000Y-136675516D02*
G75*
G03*
X145817335Y-136518608I1560000J1235516D01*
G01*
X145817335Y-134361392D02*
G75*
G03*
X142585000Y-134204484I-1672335J-1078608D01*
G01*
%TO.C,D15*%
X155285000Y-136520000D02*
X155285000Y-136676000D01*
X155285000Y-134204000D02*
X155285000Y-134360000D01*
X155285000Y-136675516D02*
G75*
G03*
X158517335Y-136518608I1560000J1235516D01*
G01*
X157886130Y-134360163D02*
G75*
G03*
X155804039Y-134360000I-1041130J-1079837D01*
G01*
X155804039Y-136520000D02*
G75*
G03*
X157886130Y-136519837I1040961J1080000D01*
G01*
X158517335Y-134361392D02*
G75*
G03*
X155285000Y-134204484I-1672335J-1078608D01*
G01*
%TO.C,R21*%
X181595000Y-139600000D02*
X185435000Y-139600000D01*
X181595000Y-141440000D02*
X185435000Y-141440000D01*
%TD*%
%LPC*%
D15*
%TO.C,U3*%
X157955000Y-56700000D03*
D16*
X157955000Y-59240000D03*
X157955000Y-61780000D03*
X157955000Y-64320000D03*
X157955000Y-66860000D03*
X157955000Y-69400000D03*
X157955000Y-71940000D03*
X165895000Y-71940000D03*
X165895000Y-69400000D03*
X165895000Y-66860000D03*
X165895000Y-64320000D03*
X165895000Y-61780000D03*
X165895000Y-59240000D03*
X165895000Y-56700000D03*
%TD*%
D15*
%TO.C,U12*%
X141445000Y-111310000D03*
D16*
X141445000Y-113850000D03*
X141445000Y-116390000D03*
X141445000Y-118930000D03*
X141445000Y-121470000D03*
X141445000Y-124010000D03*
X141445000Y-126550000D03*
X149385000Y-126550000D03*
X149385000Y-124010000D03*
X149385000Y-121470000D03*
X149385000Y-118930000D03*
X149385000Y-116390000D03*
X149385000Y-113850000D03*
X149385000Y-111310000D03*
%TD*%
D17*
%TO.C,Q7*%
X112395000Y-73210000D03*
D18*
X113665000Y-73210000D03*
X114935000Y-73210000D03*
%TD*%
D15*
%TO.C,U4*%
X174465000Y-56700000D03*
D16*
X174465000Y-59240000D03*
X174465000Y-61780000D03*
X174465000Y-64320000D03*
X174465000Y-66860000D03*
X174465000Y-69400000D03*
X174465000Y-71940000D03*
X182405000Y-71940000D03*
X182405000Y-69400000D03*
X182405000Y-66860000D03*
X182405000Y-64320000D03*
X182405000Y-61780000D03*
X182405000Y-59240000D03*
X182405000Y-56700000D03*
%TD*%
D17*
%TO.C,Q4*%
X112395000Y-90990000D03*
D18*
X113665000Y-90990000D03*
X114935000Y-90990000D03*
%TD*%
D19*
%TO.C,D12*%
X149108465Y-48890000D03*
D20*
X151648465Y-48890000D03*
%TD*%
D19*
%TO.C,D16*%
X161808465Y-48890000D03*
D20*
X164348465Y-48890000D03*
%TD*%
D15*
%TO.C,U7*%
X174465000Y-83370000D03*
D16*
X174465000Y-85910000D03*
X174465000Y-88450000D03*
X174465000Y-90990000D03*
X174465000Y-93530000D03*
X174465000Y-96070000D03*
X174465000Y-98610000D03*
X182405000Y-98610000D03*
X182405000Y-96070000D03*
X182405000Y-93530000D03*
X182405000Y-90990000D03*
X182405000Y-88450000D03*
X182405000Y-85910000D03*
X182405000Y-83370000D03*
%TD*%
D15*
%TO.C,U10*%
X123665000Y-83370000D03*
D16*
X123665000Y-85910000D03*
X123665000Y-88450000D03*
X123665000Y-90990000D03*
X123665000Y-93530000D03*
X123665000Y-96070000D03*
X123665000Y-98610000D03*
X131605000Y-98610000D03*
X131605000Y-96070000D03*
X131605000Y-93530000D03*
X131605000Y-90990000D03*
X131605000Y-88450000D03*
X131605000Y-85910000D03*
X131605000Y-83370000D03*
%TD*%
D21*
%TO.C,R11*%
X142875000Y-140520000D03*
D22*
X147955000Y-140520000D03*
%TD*%
D19*
%TO.C,D22*%
X180858465Y-48890000D03*
D20*
X183398465Y-48890000D03*
%TD*%
D21*
%TO.C,R10*%
X137795000Y-42730000D03*
D22*
X142875000Y-42730000D03*
%TD*%
D19*
%TO.C,D9*%
X136525000Y-135440000D03*
D20*
X139065000Y-135440000D03*
%TD*%
D21*
%TO.C,R6*%
X122555000Y-42730000D03*
D22*
X127635000Y-42730000D03*
%TD*%
D19*
%TO.C,D21*%
X174625000Y-135440000D03*
D20*
X177165000Y-135440000D03*
%TD*%
D21*
%TO.C,R5*%
X120015000Y-140520000D03*
D22*
X125095000Y-140520000D03*
%TD*%
D17*
%TO.C,Q1*%
X112395000Y-117660000D03*
D18*
X113665000Y-117660000D03*
X114935000Y-117660000D03*
%TD*%
D21*
%TO.C,R1*%
X112395000Y-137980000D03*
D22*
X112395000Y-132900000D03*
%TD*%
D19*
%TO.C,D5*%
X123825000Y-135440000D03*
D20*
X126365000Y-135440000D03*
%TD*%
D19*
%TO.C,D3*%
X117475000Y-135440000D03*
D20*
X120015000Y-135440000D03*
%TD*%
D15*
%TO.C,U1*%
X123665000Y-56700000D03*
D16*
X123665000Y-59240000D03*
X123665000Y-61780000D03*
X123665000Y-64320000D03*
X123665000Y-66860000D03*
X123665000Y-69400000D03*
X123665000Y-71940000D03*
X131605000Y-71940000D03*
X131605000Y-69400000D03*
X131605000Y-66860000D03*
X131605000Y-64320000D03*
X131605000Y-61780000D03*
X131605000Y-59240000D03*
X131605000Y-56700000D03*
%TD*%
D21*
%TO.C,R27*%
X201295000Y-137980000D03*
D22*
X201295000Y-132900000D03*
%TD*%
D21*
%TO.C,R2*%
X112395000Y-44000000D03*
D22*
X112395000Y-49080000D03*
%TD*%
D19*
%TO.C,D4*%
X123708465Y-48890000D03*
D20*
X126248465Y-48890000D03*
%TD*%
D23*
%TO.C,U8*%
X157955000Y-82100000D03*
D24*
X157955000Y-84640000D03*
X157955000Y-87180000D03*
X157955000Y-89720000D03*
X157955000Y-92260000D03*
X157955000Y-94800000D03*
X157955000Y-97340000D03*
X157955000Y-99880000D03*
X165895000Y-99880000D03*
X165895000Y-97340000D03*
X165895000Y-94800000D03*
X165895000Y-92260000D03*
X165895000Y-89720000D03*
X165895000Y-87180000D03*
X165895000Y-84640000D03*
X165895000Y-82100000D03*
%TD*%
D19*
%TO.C,D10*%
X142758465Y-48890000D03*
D20*
X145298465Y-48890000D03*
%TD*%
D15*
%TO.C,U15*%
X190975000Y-111310000D03*
D16*
X190975000Y-113850000D03*
X190975000Y-116390000D03*
X190975000Y-118930000D03*
X190975000Y-121470000D03*
X190975000Y-124010000D03*
X190975000Y-126550000D03*
X198915000Y-126550000D03*
X198915000Y-124010000D03*
X198915000Y-121470000D03*
X198915000Y-118930000D03*
X198915000Y-116390000D03*
X198915000Y-113850000D03*
X198915000Y-111310000D03*
%TD*%
D19*
%TO.C,D7*%
X130175000Y-135440000D03*
D20*
X132715000Y-135440000D03*
%TD*%
D19*
%TO.C,D26*%
X193558465Y-48890000D03*
D20*
X196098465Y-48890000D03*
%TD*%
D19*
%TO.C,D13*%
X149225000Y-135440000D03*
D20*
X151765000Y-135440000D03*
%TD*%
D21*
%TO.C,R24*%
X191135000Y-42730000D03*
D22*
X196215000Y-42730000D03*
%TD*%
D21*
%TO.C,R20*%
X175895000Y-42730000D03*
D22*
X180975000Y-42730000D03*
%TD*%
D19*
%TO.C,D8*%
X136408465Y-48890000D03*
D20*
X138948465Y-48890000D03*
%TD*%
D19*
%TO.C,D23*%
X180975000Y-135440000D03*
D20*
X183515000Y-135440000D03*
%TD*%
D19*
%TO.C,D27*%
X193675000Y-135440000D03*
D20*
X196215000Y-135440000D03*
%TD*%
D17*
%TO.C,Q8*%
X112395000Y-55430000D03*
D18*
X113665000Y-55430000D03*
X114935000Y-55430000D03*
%TD*%
D21*
%TO.C,R26*%
X200025000Y-44000000D03*
D22*
X200025000Y-49080000D03*
%TD*%
D15*
%TO.C,U11*%
X123665000Y-111310000D03*
D16*
X123665000Y-113850000D03*
X123665000Y-116390000D03*
X123665000Y-118930000D03*
X123665000Y-121470000D03*
X123665000Y-124010000D03*
X123665000Y-126550000D03*
X131605000Y-126550000D03*
X131605000Y-124010000D03*
X131605000Y-121470000D03*
X131605000Y-118930000D03*
X131605000Y-116390000D03*
X131605000Y-113850000D03*
X131605000Y-111310000D03*
%TD*%
D17*
%TO.C,Q3*%
X112395000Y-64320000D03*
D18*
X113665000Y-64320000D03*
X114935000Y-64320000D03*
%TD*%
D19*
%TO.C,D18*%
X168158465Y-48890000D03*
D20*
X170698465Y-48890000D03*
%TD*%
D21*
%TO.C,R3*%
X112395000Y-140520000D03*
D22*
X117475000Y-140520000D03*
%TD*%
D21*
%TO.C,R18*%
X168275000Y-42730000D03*
D22*
X173355000Y-42730000D03*
%TD*%
D21*
%TO.C,R16*%
X160655000Y-42730000D03*
D22*
X165735000Y-42730000D03*
%TD*%
D21*
%TO.C,R23*%
X188595000Y-140520000D03*
D22*
X193675000Y-140520000D03*
%TD*%
D15*
%TO.C,U14*%
X174465000Y-111310000D03*
D16*
X174465000Y-113850000D03*
X174465000Y-116390000D03*
X174465000Y-118930000D03*
X174465000Y-121470000D03*
X174465000Y-124010000D03*
X174465000Y-126550000D03*
X182405000Y-126550000D03*
X182405000Y-124010000D03*
X182405000Y-121470000D03*
X182405000Y-118930000D03*
X182405000Y-116390000D03*
X182405000Y-113850000D03*
X182405000Y-111310000D03*
%TD*%
D21*
%TO.C,R9*%
X135255000Y-140520000D03*
D22*
X140335000Y-140520000D03*
%TD*%
D15*
%TO.C,U9*%
X141445000Y-83370000D03*
D16*
X141445000Y-85910000D03*
X141445000Y-88450000D03*
X141445000Y-90990000D03*
X141445000Y-93530000D03*
X141445000Y-96070000D03*
X141445000Y-98610000D03*
X149385000Y-98610000D03*
X149385000Y-96070000D03*
X149385000Y-93530000D03*
X149385000Y-90990000D03*
X149385000Y-88450000D03*
X149385000Y-85910000D03*
X149385000Y-83370000D03*
%TD*%
D19*
%TO.C,D2*%
X117358465Y-48890000D03*
D20*
X119898465Y-48890000D03*
%TD*%
D21*
%TO.C,R4*%
X114935000Y-42730000D03*
D22*
X120015000Y-42730000D03*
%TD*%
D17*
%TO.C,Q2*%
X112395000Y-108770000D03*
D18*
X113665000Y-108770000D03*
X114935000Y-108770000D03*
%TD*%
D21*
%TO.C,R22*%
X183515000Y-42730000D03*
D22*
X188595000Y-42730000D03*
%TD*%
D23*
%TO.C,U13*%
X157955000Y-110040000D03*
D24*
X157955000Y-112580000D03*
X157955000Y-115120000D03*
X157955000Y-117660000D03*
X157955000Y-120200000D03*
X157955000Y-122740000D03*
X157955000Y-125280000D03*
X157955000Y-127820000D03*
X165895000Y-127820000D03*
X165895000Y-125280000D03*
X165895000Y-122740000D03*
X165895000Y-120200000D03*
X165895000Y-117660000D03*
X165895000Y-115120000D03*
X165895000Y-112580000D03*
X165895000Y-110040000D03*
%TD*%
D19*
%TO.C,D6*%
X130058465Y-48890000D03*
D20*
X132598465Y-48890000D03*
%TD*%
D21*
%TO.C,R28*%
X108585000Y-64320000D03*
D22*
X108585000Y-59240000D03*
%TD*%
D19*
%TO.C,D24*%
X187208465Y-48890000D03*
D20*
X189748465Y-48890000D03*
%TD*%
D21*
%TO.C,R7*%
X127635000Y-140520000D03*
D22*
X132715000Y-140520000D03*
%TD*%
D25*
%TO.C,J1*%
X204540000Y-57970000D03*
D26*
X204540000Y-60510000D03*
X204540000Y-63050000D03*
X204540000Y-65590000D03*
X204540000Y-68130000D03*
X204540000Y-70670000D03*
X204540000Y-73210000D03*
X204540000Y-75750000D03*
X204540000Y-78290000D03*
X204540000Y-80830000D03*
X204540000Y-83370000D03*
X204540000Y-85910000D03*
X204540000Y-88450000D03*
X204540000Y-90990000D03*
X204540000Y-93530000D03*
X204540000Y-96070000D03*
X204540000Y-98610000D03*
X204540000Y-101150000D03*
X204540000Y-103690000D03*
X204540000Y-106230000D03*
X204540000Y-108770000D03*
X204540000Y-111310000D03*
X204540000Y-113850000D03*
X204540000Y-116390000D03*
X204540000Y-118930000D03*
X204540000Y-121470000D03*
X204540000Y-124010000D03*
%TD*%
D17*
%TO.C,Q5*%
X112395000Y-99880000D03*
D18*
X113665000Y-99880000D03*
X114935000Y-99880000D03*
%TD*%
D19*
%TO.C,D14*%
X155458465Y-48890000D03*
D20*
X157998465Y-48890000D03*
%TD*%
D21*
%TO.C,R13*%
X150495000Y-140520000D03*
D22*
X155575000Y-140520000D03*
%TD*%
D21*
%TO.C,R12*%
X145415000Y-42730000D03*
D22*
X150495000Y-42730000D03*
%TD*%
D19*
%TO.C,D1*%
X112395000Y-129090000D03*
D20*
X112395000Y-126550000D03*
%TD*%
D15*
%TO.C,U2*%
X141445000Y-56700000D03*
D16*
X141445000Y-59240000D03*
X141445000Y-61780000D03*
X141445000Y-64320000D03*
X141445000Y-66860000D03*
X141445000Y-69400000D03*
X141445000Y-71940000D03*
X149385000Y-71940000D03*
X149385000Y-69400000D03*
X149385000Y-66860000D03*
X149385000Y-64320000D03*
X149385000Y-61780000D03*
X149385000Y-59240000D03*
X149385000Y-56700000D03*
%TD*%
D21*
%TO.C,R14*%
X153035000Y-42730000D03*
D22*
X158115000Y-42730000D03*
%TD*%
D15*
%TO.C,U5*%
X190975000Y-56700000D03*
D16*
X190975000Y-59240000D03*
X190975000Y-61780000D03*
X190975000Y-64320000D03*
X190975000Y-66860000D03*
X190975000Y-69400000D03*
X190975000Y-71940000D03*
X198915000Y-71940000D03*
X198915000Y-69400000D03*
X198915000Y-66860000D03*
X198915000Y-64320000D03*
X198915000Y-61780000D03*
X198915000Y-59240000D03*
X198915000Y-56700000D03*
%TD*%
D21*
%TO.C,R17*%
X165735000Y-140520000D03*
D22*
X170815000Y-140520000D03*
%TD*%
D19*
%TO.C,D25*%
X187325000Y-135440000D03*
D20*
X189865000Y-135440000D03*
%TD*%
D19*
%TO.C,D17*%
X161925000Y-135440000D03*
D20*
X164465000Y-135440000D03*
%TD*%
D21*
%TO.C,R8*%
X130175000Y-42730000D03*
D22*
X135255000Y-42730000D03*
%TD*%
D15*
%TO.C,U6*%
X190975000Y-83370000D03*
D16*
X190975000Y-85910000D03*
X190975000Y-88450000D03*
X190975000Y-90990000D03*
X190975000Y-93530000D03*
X190975000Y-96070000D03*
X190975000Y-98610000D03*
X198915000Y-98610000D03*
X198915000Y-96070000D03*
X198915000Y-93530000D03*
X198915000Y-90990000D03*
X198915000Y-88450000D03*
X198915000Y-85910000D03*
X198915000Y-83370000D03*
%TD*%
D21*
%TO.C,R19*%
X173355000Y-140520000D03*
D22*
X178435000Y-140520000D03*
%TD*%
D21*
%TO.C,R15*%
X158115000Y-140520000D03*
D22*
X163195000Y-140520000D03*
%TD*%
D19*
%TO.C,D20*%
X174508465Y-48890000D03*
D20*
X177048465Y-48890000D03*
%TD*%
D19*
%TO.C,D19*%
X168275000Y-135440000D03*
D20*
X170815000Y-135440000D03*
%TD*%
D21*
%TO.C,R25*%
X196215000Y-140520000D03*
D22*
X201295000Y-140520000D03*
%TD*%
D17*
%TO.C,Q6*%
X112395000Y-82100000D03*
D18*
X113665000Y-82100000D03*
X114935000Y-82100000D03*
%TD*%
D19*
%TO.C,D11*%
X142875000Y-135440000D03*
D20*
X145415000Y-135440000D03*
%TD*%
D19*
%TO.C,D15*%
X155575000Y-135440000D03*
D20*
X158115000Y-135440000D03*
%TD*%
D21*
%TO.C,R21*%
X180975000Y-140520000D03*
D22*
X186055000Y-140520000D03*
%TD*%
M02*
