%TF.GenerationSoftware,KiCad,Pcbnew,(6.0.9)*%
%TF.CreationDate,2025-06-05T13:51:01-04:00*%
%TF.ProjectId,ShiftRegisterPrototypeV2,53686966-7452-4656-9769-737465725072,V2*%
%TF.SameCoordinates,Original*%
%TF.FileFunction,Legend,Bot*%
%TF.FilePolarity,Positive*%
%FSLAX46Y46*%
G04 Gerber Fmt 4.6, Leading zero omitted, Abs format (unit mm)*
G04 Created by KiCad (PCBNEW (6.0.9)) date 2025-06-05 13:51:01*
%MOMM*%
%LPD*%
G01*
G04 APERTURE LIST*
G04 Aperture macros list*
%AMRoundRect*
0 Rectangle with rounded corners*
0 $1 Rounding radius*
0 $2 $3 $4 $5 $6 $7 $8 $9 X,Y pos of 4 corners*
0 Add a 4 corners polygon primitive as box body*
4,1,4,$2,$3,$4,$5,$6,$7,$8,$9,$2,$3,0*
0 Add four circle primitives for the rounded corners*
1,1,$1+$1,$2,$3*
1,1,$1+$1,$4,$5*
1,1,$1+$1,$6,$7*
1,1,$1+$1,$8,$9*
0 Add four rect primitives between the rounded corners*
20,1,$1+$1,$2,$3,$4,$5,0*
20,1,$1+$1,$4,$5,$6,$7,0*
20,1,$1+$1,$6,$7,$8,$9,0*
20,1,$1+$1,$8,$9,$2,$3,0*%
G04 Aperture macros list end*
%ADD10C,0.150000*%
%ADD11RoundRect,0.102000X-0.585000X-0.585000X0.585000X-0.585000X0.585000X0.585000X-0.585000X0.585000X0*%
%ADD12C,1.374000*%
%ADD13R,1.050000X1.500000*%
%ADD14O,1.050000X1.500000*%
%ADD15R,1.800000X1.800000*%
%ADD16C,1.800000*%
%ADD17C,1.400000*%
%ADD18O,1.400000X1.400000*%
%ADD19RoundRect,0.102000X-0.565000X-0.565000X0.565000X-0.565000X0.565000X0.565000X-0.565000X0.565000X0*%
%ADD20C,1.334000*%
%ADD21R,1.700000X1.700000*%
%ADD22O,1.700000X1.700000*%
G04 APERTURE END LIST*
D10*
X201937857Y-123510000D02*
X202033095Y-123462380D01*
X202175952Y-123462380D01*
X202318809Y-123510000D01*
X202414047Y-123605238D01*
X202461666Y-123700476D01*
X202509285Y-123890952D01*
X202509285Y-124033809D01*
X202461666Y-124224285D01*
X202414047Y-124319523D01*
X202318809Y-124414761D01*
X202175952Y-124462380D01*
X202080714Y-124462380D01*
X201937857Y-124414761D01*
X201890238Y-124367142D01*
X201890238Y-124033809D01*
X202080714Y-124033809D01*
X201461666Y-123795714D02*
X201461666Y-124462380D01*
X201461666Y-123890952D02*
X201414047Y-123843333D01*
X201318809Y-123795714D01*
X201175952Y-123795714D01*
X201080714Y-123843333D01*
X201033095Y-123938571D01*
X201033095Y-124462380D01*
X200128333Y-124462380D02*
X200128333Y-123462380D01*
X200128333Y-124414761D02*
X200223571Y-124462380D01*
X200414047Y-124462380D01*
X200509285Y-124414761D01*
X200556904Y-124367142D01*
X200604523Y-124271904D01*
X200604523Y-123986190D01*
X200556904Y-123890952D01*
X200509285Y-123843333D01*
X200414047Y-123795714D01*
X200223571Y-123795714D01*
X200128333Y-123843333D01*
X202390238Y-121922380D02*
X202390238Y-120922380D01*
X202009285Y-120922380D01*
X201914047Y-120970000D01*
X201866428Y-121017619D01*
X201818809Y-121112857D01*
X201818809Y-121255714D01*
X201866428Y-121350952D01*
X201914047Y-121398571D01*
X202009285Y-121446190D01*
X202390238Y-121446190D01*
X201485476Y-121255714D02*
X201295000Y-121922380D01*
X201104523Y-121446190D01*
X200914047Y-121922380D01*
X200723571Y-121255714D01*
X200342619Y-121922380D02*
X200342619Y-121255714D01*
X200342619Y-121446190D02*
X200295000Y-121350952D01*
X200247380Y-121303333D01*
X200152142Y-121255714D01*
X200056904Y-121255714D01*
X202033095Y-119382380D02*
X202033095Y-118382380D01*
X201795000Y-118382380D01*
X201652142Y-118430000D01*
X201556904Y-118525238D01*
X201509285Y-118620476D01*
X201461666Y-118810952D01*
X201461666Y-118953809D01*
X201509285Y-119144285D01*
X201556904Y-119239523D01*
X201652142Y-119334761D01*
X201795000Y-119382380D01*
X202033095Y-119382380D01*
X201128333Y-118382380D02*
X200461666Y-118382380D01*
X200890238Y-119382380D01*
X202033095Y-116842380D02*
X202033095Y-115842380D01*
X201795000Y-115842380D01*
X201652142Y-115890000D01*
X201556904Y-115985238D01*
X201509285Y-116080476D01*
X201461666Y-116270952D01*
X201461666Y-116413809D01*
X201509285Y-116604285D01*
X201556904Y-116699523D01*
X201652142Y-116794761D01*
X201795000Y-116842380D01*
X202033095Y-116842380D01*
X200604523Y-115842380D02*
X200795000Y-115842380D01*
X200890238Y-115890000D01*
X200937857Y-115937619D01*
X201033095Y-116080476D01*
X201080714Y-116270952D01*
X201080714Y-116651904D01*
X201033095Y-116747142D01*
X200985476Y-116794761D01*
X200890238Y-116842380D01*
X200699761Y-116842380D01*
X200604523Y-116794761D01*
X200556904Y-116747142D01*
X200509285Y-116651904D01*
X200509285Y-116413809D01*
X200556904Y-116318571D01*
X200604523Y-116270952D01*
X200699761Y-116223333D01*
X200890238Y-116223333D01*
X200985476Y-116270952D01*
X201033095Y-116318571D01*
X201080714Y-116413809D01*
X202033095Y-114302380D02*
X202033095Y-113302380D01*
X201795000Y-113302380D01*
X201652142Y-113350000D01*
X201556904Y-113445238D01*
X201509285Y-113540476D01*
X201461666Y-113730952D01*
X201461666Y-113873809D01*
X201509285Y-114064285D01*
X201556904Y-114159523D01*
X201652142Y-114254761D01*
X201795000Y-114302380D01*
X202033095Y-114302380D01*
X200556904Y-113302380D02*
X201033095Y-113302380D01*
X201080714Y-113778571D01*
X201033095Y-113730952D01*
X200937857Y-113683333D01*
X200699761Y-113683333D01*
X200604523Y-113730952D01*
X200556904Y-113778571D01*
X200509285Y-113873809D01*
X200509285Y-114111904D01*
X200556904Y-114207142D01*
X200604523Y-114254761D01*
X200699761Y-114302380D01*
X200937857Y-114302380D01*
X201033095Y-114254761D01*
X201080714Y-114207142D01*
X202033095Y-111762380D02*
X202033095Y-110762380D01*
X201795000Y-110762380D01*
X201652142Y-110810000D01*
X201556904Y-110905238D01*
X201509285Y-111000476D01*
X201461666Y-111190952D01*
X201461666Y-111333809D01*
X201509285Y-111524285D01*
X201556904Y-111619523D01*
X201652142Y-111714761D01*
X201795000Y-111762380D01*
X202033095Y-111762380D01*
X200604523Y-111095714D02*
X200604523Y-111762380D01*
X200842619Y-110714761D02*
X201080714Y-111429047D01*
X200461666Y-111429047D01*
X202033095Y-109222380D02*
X202033095Y-108222380D01*
X201795000Y-108222380D01*
X201652142Y-108270000D01*
X201556904Y-108365238D01*
X201509285Y-108460476D01*
X201461666Y-108650952D01*
X201461666Y-108793809D01*
X201509285Y-108984285D01*
X201556904Y-109079523D01*
X201652142Y-109174761D01*
X201795000Y-109222380D01*
X202033095Y-109222380D01*
X201128333Y-108222380D02*
X200509285Y-108222380D01*
X200842619Y-108603333D01*
X200699761Y-108603333D01*
X200604523Y-108650952D01*
X200556904Y-108698571D01*
X200509285Y-108793809D01*
X200509285Y-109031904D01*
X200556904Y-109127142D01*
X200604523Y-109174761D01*
X200699761Y-109222380D01*
X200985476Y-109222380D01*
X201080714Y-109174761D01*
X201128333Y-109127142D01*
X202033095Y-104142380D02*
X202033095Y-103142380D01*
X201795000Y-103142380D01*
X201652142Y-103190000D01*
X201556904Y-103285238D01*
X201509285Y-103380476D01*
X201461666Y-103570952D01*
X201461666Y-103713809D01*
X201509285Y-103904285D01*
X201556904Y-103999523D01*
X201652142Y-104094761D01*
X201795000Y-104142380D01*
X202033095Y-104142380D01*
X200509285Y-104142380D02*
X201080714Y-104142380D01*
X200795000Y-104142380D02*
X200795000Y-103142380D01*
X200890238Y-103285238D01*
X200985476Y-103380476D01*
X201080714Y-103428095D01*
X202033095Y-106682380D02*
X202033095Y-105682380D01*
X201795000Y-105682380D01*
X201652142Y-105730000D01*
X201556904Y-105825238D01*
X201509285Y-105920476D01*
X201461666Y-106110952D01*
X201461666Y-106253809D01*
X201509285Y-106444285D01*
X201556904Y-106539523D01*
X201652142Y-106634761D01*
X201795000Y-106682380D01*
X202033095Y-106682380D01*
X201080714Y-105777619D02*
X201033095Y-105730000D01*
X200937857Y-105682380D01*
X200699761Y-105682380D01*
X200604523Y-105730000D01*
X200556904Y-105777619D01*
X200509285Y-105872857D01*
X200509285Y-105968095D01*
X200556904Y-106110952D01*
X201128333Y-106682380D01*
X200509285Y-106682380D01*
X202033095Y-101602380D02*
X202033095Y-100602380D01*
X201795000Y-100602380D01*
X201652142Y-100650000D01*
X201556904Y-100745238D01*
X201509285Y-100840476D01*
X201461666Y-101030952D01*
X201461666Y-101173809D01*
X201509285Y-101364285D01*
X201556904Y-101459523D01*
X201652142Y-101554761D01*
X201795000Y-101602380D01*
X202033095Y-101602380D01*
X200842619Y-100602380D02*
X200747380Y-100602380D01*
X200652142Y-100650000D01*
X200604523Y-100697619D01*
X200556904Y-100792857D01*
X200509285Y-100983333D01*
X200509285Y-101221428D01*
X200556904Y-101411904D01*
X200604523Y-101507142D01*
X200652142Y-101554761D01*
X200747380Y-101602380D01*
X200842619Y-101602380D01*
X200937857Y-101554761D01*
X200985476Y-101507142D01*
X201033095Y-101411904D01*
X201080714Y-101221428D01*
X201080714Y-100983333D01*
X201033095Y-100792857D01*
X200985476Y-100697619D01*
X200937857Y-100650000D01*
X200842619Y-100602380D01*
X202485476Y-98776666D02*
X202009285Y-98776666D01*
X202580714Y-99062380D02*
X202247380Y-98062380D01*
X201914047Y-99062380D01*
X201056904Y-99062380D02*
X201628333Y-99062380D01*
X201342619Y-99062380D02*
X201342619Y-98062380D01*
X201437857Y-98205238D01*
X201533095Y-98300476D01*
X201628333Y-98348095D01*
X200675952Y-98157619D02*
X200628333Y-98110000D01*
X200533095Y-98062380D01*
X200295000Y-98062380D01*
X200199761Y-98110000D01*
X200152142Y-98157619D01*
X200104523Y-98252857D01*
X200104523Y-98348095D01*
X200152142Y-98490952D01*
X200723571Y-99062380D01*
X200104523Y-99062380D01*
X202485476Y-96236666D02*
X202009285Y-96236666D01*
X202580714Y-96522380D02*
X202247380Y-95522380D01*
X201914047Y-96522380D01*
X201056904Y-96522380D02*
X201628333Y-96522380D01*
X201342619Y-96522380D02*
X201342619Y-95522380D01*
X201437857Y-95665238D01*
X201533095Y-95760476D01*
X201628333Y-95808095D01*
X200104523Y-96522380D02*
X200675952Y-96522380D01*
X200390238Y-96522380D02*
X200390238Y-95522380D01*
X200485476Y-95665238D01*
X200580714Y-95760476D01*
X200675952Y-95808095D01*
X202485476Y-93696666D02*
X202009285Y-93696666D01*
X202580714Y-93982380D02*
X202247380Y-92982380D01*
X201914047Y-93982380D01*
X201056904Y-93982380D02*
X201628333Y-93982380D01*
X201342619Y-93982380D02*
X201342619Y-92982380D01*
X201437857Y-93125238D01*
X201533095Y-93220476D01*
X201628333Y-93268095D01*
X200437857Y-92982380D02*
X200342619Y-92982380D01*
X200247380Y-93030000D01*
X200199761Y-93077619D01*
X200152142Y-93172857D01*
X200104523Y-93363333D01*
X200104523Y-93601428D01*
X200152142Y-93791904D01*
X200199761Y-93887142D01*
X200247380Y-93934761D01*
X200342619Y-93982380D01*
X200437857Y-93982380D01*
X200533095Y-93934761D01*
X200580714Y-93887142D01*
X200628333Y-93791904D01*
X200675952Y-93601428D01*
X200675952Y-93363333D01*
X200628333Y-93172857D01*
X200580714Y-93077619D01*
X200533095Y-93030000D01*
X200437857Y-92982380D01*
X202009285Y-91156666D02*
X201533095Y-91156666D01*
X202104523Y-91442380D02*
X201771190Y-90442380D01*
X201437857Y-91442380D01*
X201056904Y-91442380D02*
X200866428Y-91442380D01*
X200771190Y-91394761D01*
X200723571Y-91347142D01*
X200628333Y-91204285D01*
X200580714Y-91013809D01*
X200580714Y-90632857D01*
X200628333Y-90537619D01*
X200675952Y-90490000D01*
X200771190Y-90442380D01*
X200961666Y-90442380D01*
X201056904Y-90490000D01*
X201104523Y-90537619D01*
X201152142Y-90632857D01*
X201152142Y-90870952D01*
X201104523Y-90966190D01*
X201056904Y-91013809D01*
X200961666Y-91061428D01*
X200771190Y-91061428D01*
X200675952Y-91013809D01*
X200628333Y-90966190D01*
X200580714Y-90870952D01*
X202009285Y-88616666D02*
X201533095Y-88616666D01*
X202104523Y-88902380D02*
X201771190Y-87902380D01*
X201437857Y-88902380D01*
X200961666Y-88330952D02*
X201056904Y-88283333D01*
X201104523Y-88235714D01*
X201152142Y-88140476D01*
X201152142Y-88092857D01*
X201104523Y-87997619D01*
X201056904Y-87950000D01*
X200961666Y-87902380D01*
X200771190Y-87902380D01*
X200675952Y-87950000D01*
X200628333Y-87997619D01*
X200580714Y-88092857D01*
X200580714Y-88140476D01*
X200628333Y-88235714D01*
X200675952Y-88283333D01*
X200771190Y-88330952D01*
X200961666Y-88330952D01*
X201056904Y-88378571D01*
X201104523Y-88426190D01*
X201152142Y-88521428D01*
X201152142Y-88711904D01*
X201104523Y-88807142D01*
X201056904Y-88854761D01*
X200961666Y-88902380D01*
X200771190Y-88902380D01*
X200675952Y-88854761D01*
X200628333Y-88807142D01*
X200580714Y-88711904D01*
X200580714Y-88521428D01*
X200628333Y-88426190D01*
X200675952Y-88378571D01*
X200771190Y-88330952D01*
X202009285Y-86076666D02*
X201533095Y-86076666D01*
X202104523Y-86362380D02*
X201771190Y-85362380D01*
X201437857Y-86362380D01*
X201199761Y-85362380D02*
X200533095Y-85362380D01*
X200961666Y-86362380D01*
X202009285Y-83536666D02*
X201533095Y-83536666D01*
X202104523Y-83822380D02*
X201771190Y-82822380D01*
X201437857Y-83822380D01*
X200675952Y-82822380D02*
X200866428Y-82822380D01*
X200961666Y-82870000D01*
X201009285Y-82917619D01*
X201104523Y-83060476D01*
X201152142Y-83250952D01*
X201152142Y-83631904D01*
X201104523Y-83727142D01*
X201056904Y-83774761D01*
X200961666Y-83822380D01*
X200771190Y-83822380D01*
X200675952Y-83774761D01*
X200628333Y-83727142D01*
X200580714Y-83631904D01*
X200580714Y-83393809D01*
X200628333Y-83298571D01*
X200675952Y-83250952D01*
X200771190Y-83203333D01*
X200961666Y-83203333D01*
X201056904Y-83250952D01*
X201104523Y-83298571D01*
X201152142Y-83393809D01*
X202009285Y-80996666D02*
X201533095Y-80996666D01*
X202104523Y-81282380D02*
X201771190Y-80282380D01*
X201437857Y-81282380D01*
X200628333Y-80282380D02*
X201104523Y-80282380D01*
X201152142Y-80758571D01*
X201104523Y-80710952D01*
X201009285Y-80663333D01*
X200771190Y-80663333D01*
X200675952Y-80710952D01*
X200628333Y-80758571D01*
X200580714Y-80853809D01*
X200580714Y-81091904D01*
X200628333Y-81187142D01*
X200675952Y-81234761D01*
X200771190Y-81282380D01*
X201009285Y-81282380D01*
X201104523Y-81234761D01*
X201152142Y-81187142D01*
X202009285Y-78456666D02*
X201533095Y-78456666D01*
X202104523Y-78742380D02*
X201771190Y-77742380D01*
X201437857Y-78742380D01*
X200675952Y-78075714D02*
X200675952Y-78742380D01*
X200914047Y-77694761D02*
X201152142Y-78409047D01*
X200533095Y-78409047D01*
X202009285Y-75916666D02*
X201533095Y-75916666D01*
X202104523Y-76202380D02*
X201771190Y-75202380D01*
X201437857Y-76202380D01*
X201199761Y-75202380D02*
X200580714Y-75202380D01*
X200914047Y-75583333D01*
X200771190Y-75583333D01*
X200675952Y-75630952D01*
X200628333Y-75678571D01*
X200580714Y-75773809D01*
X200580714Y-76011904D01*
X200628333Y-76107142D01*
X200675952Y-76154761D01*
X200771190Y-76202380D01*
X201056904Y-76202380D01*
X201152142Y-76154761D01*
X201199761Y-76107142D01*
X202009285Y-73376666D02*
X201533095Y-73376666D01*
X202104523Y-73662380D02*
X201771190Y-72662380D01*
X201437857Y-73662380D01*
X201152142Y-72757619D02*
X201104523Y-72710000D01*
X201009285Y-72662380D01*
X200771190Y-72662380D01*
X200675952Y-72710000D01*
X200628333Y-72757619D01*
X200580714Y-72852857D01*
X200580714Y-72948095D01*
X200628333Y-73090952D01*
X201199761Y-73662380D01*
X200580714Y-73662380D01*
X202009285Y-70836666D02*
X201533095Y-70836666D01*
X202104523Y-71122380D02*
X201771190Y-70122380D01*
X201437857Y-71122380D01*
X200580714Y-71122380D02*
X201152142Y-71122380D01*
X200866428Y-71122380D02*
X200866428Y-70122380D01*
X200961666Y-70265238D01*
X201056904Y-70360476D01*
X201152142Y-70408095D01*
X202009285Y-68296666D02*
X201533095Y-68296666D01*
X202104523Y-68582380D02*
X201771190Y-67582380D01*
X201437857Y-68582380D01*
X200914047Y-67582380D02*
X200818809Y-67582380D01*
X200723571Y-67630000D01*
X200675952Y-67677619D01*
X200628333Y-67772857D01*
X200580714Y-67963333D01*
X200580714Y-68201428D01*
X200628333Y-68391904D01*
X200675952Y-68487142D01*
X200723571Y-68534761D01*
X200818809Y-68582380D01*
X200914047Y-68582380D01*
X201009285Y-68534761D01*
X201056904Y-68487142D01*
X201104523Y-68391904D01*
X201152142Y-68201428D01*
X201152142Y-67963333D01*
X201104523Y-67772857D01*
X201056904Y-67677619D01*
X201009285Y-67630000D01*
X200914047Y-67582380D01*
X202342619Y-66042380D02*
X202818809Y-66042380D01*
X202818809Y-65042380D01*
X201866428Y-66042380D02*
X201961666Y-65994761D01*
X202009285Y-65947142D01*
X202056904Y-65851904D01*
X202056904Y-65566190D01*
X202009285Y-65470952D01*
X201961666Y-65423333D01*
X201866428Y-65375714D01*
X201723571Y-65375714D01*
X201628333Y-65423333D01*
X201580714Y-65470952D01*
X201533095Y-65566190D01*
X201533095Y-65851904D01*
X201580714Y-65947142D01*
X201628333Y-65994761D01*
X201723571Y-66042380D01*
X201866428Y-66042380D01*
X200675952Y-66042380D02*
X200675952Y-65518571D01*
X200723571Y-65423333D01*
X200818809Y-65375714D01*
X201009285Y-65375714D01*
X201104523Y-65423333D01*
X200675952Y-65994761D02*
X200771190Y-66042380D01*
X201009285Y-66042380D01*
X201104523Y-65994761D01*
X201152142Y-65899523D01*
X201152142Y-65804285D01*
X201104523Y-65709047D01*
X201009285Y-65661428D01*
X200771190Y-65661428D01*
X200675952Y-65613809D01*
X199771190Y-66042380D02*
X199771190Y-65042380D01*
X199771190Y-65994761D02*
X199866428Y-66042380D01*
X200056904Y-66042380D01*
X200152142Y-65994761D01*
X200199761Y-65947142D01*
X200247380Y-65851904D01*
X200247380Y-65566190D01*
X200199761Y-65470952D01*
X200152142Y-65423333D01*
X200056904Y-65375714D01*
X199866428Y-65375714D01*
X199771190Y-65423333D01*
X201652142Y-63407142D02*
X201699761Y-63454761D01*
X201842619Y-63502380D01*
X201937857Y-63502380D01*
X202080714Y-63454761D01*
X202175952Y-63359523D01*
X202223571Y-63264285D01*
X202271190Y-63073809D01*
X202271190Y-62930952D01*
X202223571Y-62740476D01*
X202175952Y-62645238D01*
X202080714Y-62550000D01*
X201937857Y-62502380D01*
X201842619Y-62502380D01*
X201699761Y-62550000D01*
X201652142Y-62597619D01*
X201080714Y-63502380D02*
X201175952Y-63454761D01*
X201223571Y-63359523D01*
X201223571Y-62502380D01*
X200699761Y-63502380D02*
X200699761Y-62502380D01*
X200604523Y-63121428D02*
X200318809Y-63502380D01*
X200318809Y-62835714D02*
X200699761Y-63216666D01*
X202834523Y-60962380D02*
X202834523Y-59962380D01*
X202596428Y-59962380D01*
X202453571Y-60010000D01*
X202358333Y-60105238D01*
X202310714Y-60200476D01*
X202263095Y-60390952D01*
X202263095Y-60533809D01*
X202310714Y-60724285D01*
X202358333Y-60819523D01*
X202453571Y-60914761D01*
X202596428Y-60962380D01*
X202834523Y-60962380D01*
X201405952Y-60962380D02*
X201405952Y-60438571D01*
X201453571Y-60343333D01*
X201548809Y-60295714D01*
X201739285Y-60295714D01*
X201834523Y-60343333D01*
X201405952Y-60914761D02*
X201501190Y-60962380D01*
X201739285Y-60962380D01*
X201834523Y-60914761D01*
X201882142Y-60819523D01*
X201882142Y-60724285D01*
X201834523Y-60629047D01*
X201739285Y-60581428D01*
X201501190Y-60581428D01*
X201405952Y-60533809D01*
X201072619Y-60295714D02*
X200691666Y-60295714D01*
X200929761Y-59962380D02*
X200929761Y-60819523D01*
X200882142Y-60914761D01*
X200786904Y-60962380D01*
X200691666Y-60962380D01*
X199929761Y-60962380D02*
X199929761Y-60438571D01*
X199977380Y-60343333D01*
X200072619Y-60295714D01*
X200263095Y-60295714D01*
X200358333Y-60343333D01*
X199929761Y-60914761D02*
X200025000Y-60962380D01*
X200263095Y-60962380D01*
X200358333Y-60914761D01*
X200405952Y-60819523D01*
X200405952Y-60724285D01*
X200358333Y-60629047D01*
X200263095Y-60581428D01*
X200025000Y-60581428D01*
X199929761Y-60533809D01*
X199691666Y-61057619D02*
X198929761Y-61057619D01*
X198120238Y-60962380D02*
X198453571Y-60486190D01*
X198691666Y-60962380D02*
X198691666Y-59962380D01*
X198310714Y-59962380D01*
X198215476Y-60010000D01*
X198167857Y-60057619D01*
X198120238Y-60152857D01*
X198120238Y-60295714D01*
X198167857Y-60390952D01*
X198215476Y-60438571D01*
X198310714Y-60486190D01*
X198691666Y-60486190D01*
X197786904Y-59962380D02*
X197120238Y-60962380D01*
X197120238Y-59962380D02*
X197786904Y-60962380D01*
X202437380Y-58136666D02*
X201961190Y-58136666D01*
X202532619Y-58422380D02*
X202199285Y-57422380D01*
X201865952Y-58422380D01*
X201104047Y-58422380D02*
X201104047Y-57422380D01*
X201104047Y-58374761D02*
X201199285Y-58422380D01*
X201389761Y-58422380D01*
X201485000Y-58374761D01*
X201532619Y-58327142D01*
X201580238Y-58231904D01*
X201580238Y-57946190D01*
X201532619Y-57850952D01*
X201485000Y-57803333D01*
X201389761Y-57755714D01*
X201199285Y-57755714D01*
X201104047Y-57803333D01*
X200199285Y-58422380D02*
X200199285Y-57422380D01*
X200199285Y-58374761D02*
X200294523Y-58422380D01*
X200485000Y-58422380D01*
X200580238Y-58374761D01*
X200627857Y-58327142D01*
X200675476Y-58231904D01*
X200675476Y-57946190D01*
X200627857Y-57850952D01*
X200580238Y-57803333D01*
X200485000Y-57755714D01*
X200294523Y-57755714D01*
X200199285Y-57803333D01*
X199723095Y-58422380D02*
X199723095Y-57755714D01*
X199723095Y-57946190D02*
X199675476Y-57850952D01*
X199627857Y-57803333D01*
X199532619Y-57755714D01*
X199437380Y-57755714D01*
X198723095Y-58374761D02*
X198818333Y-58422380D01*
X199008809Y-58422380D01*
X199104047Y-58374761D01*
X199151666Y-58279523D01*
X199151666Y-57898571D01*
X199104047Y-57803333D01*
X199008809Y-57755714D01*
X198818333Y-57755714D01*
X198723095Y-57803333D01*
X198675476Y-57898571D01*
X198675476Y-57993809D01*
X199151666Y-58089047D01*
X198294523Y-58374761D02*
X198199285Y-58422380D01*
X198008809Y-58422380D01*
X197913571Y-58374761D01*
X197865952Y-58279523D01*
X197865952Y-58231904D01*
X197913571Y-58136666D01*
X198008809Y-58089047D01*
X198151666Y-58089047D01*
X198246904Y-58041428D01*
X198294523Y-57946190D01*
X198294523Y-57898571D01*
X198246904Y-57803333D01*
X198151666Y-57755714D01*
X198008809Y-57755714D01*
X197913571Y-57803333D01*
X197485000Y-58374761D02*
X197389761Y-58422380D01*
X197199285Y-58422380D01*
X197104047Y-58374761D01*
X197056428Y-58279523D01*
X197056428Y-58231904D01*
X197104047Y-58136666D01*
X197199285Y-58089047D01*
X197342142Y-58089047D01*
X197437380Y-58041428D01*
X197485000Y-57946190D01*
X197485000Y-57898571D01*
X197437380Y-57803333D01*
X197342142Y-57755714D01*
X197199285Y-57755714D01*
X197104047Y-57803333D01*
X195865952Y-58422380D02*
X195865952Y-57422380D01*
X195389761Y-57755714D02*
X195389761Y-58422380D01*
X195389761Y-57850952D02*
X195342142Y-57803333D01*
X195246904Y-57755714D01*
X195104047Y-57755714D01*
X195008809Y-57803333D01*
X194961190Y-57898571D01*
X194961190Y-58422380D01*
X194485000Y-57755714D02*
X194485000Y-58755714D01*
X194485000Y-57803333D02*
X194389761Y-57755714D01*
X194199285Y-57755714D01*
X194104047Y-57803333D01*
X194056428Y-57850952D01*
X194008809Y-57946190D01*
X194008809Y-58231904D01*
X194056428Y-58327142D01*
X194104047Y-58374761D01*
X194199285Y-58422380D01*
X194389761Y-58422380D01*
X194485000Y-58374761D01*
X193151666Y-57755714D02*
X193151666Y-58422380D01*
X193580238Y-57755714D02*
X193580238Y-58279523D01*
X193532619Y-58374761D01*
X193437380Y-58422380D01*
X193294523Y-58422380D01*
X193199285Y-58374761D01*
X193151666Y-58327142D01*
X192818333Y-57755714D02*
X192437380Y-57755714D01*
X192675476Y-57422380D02*
X192675476Y-58279523D01*
X192627857Y-58374761D01*
X192532619Y-58422380D01*
X192437380Y-58422380D01*
%LPC*%
D11*
%TO.C,U3*%
X157955000Y-56700000D03*
D12*
X157955000Y-59240000D03*
X157955000Y-61780000D03*
X157955000Y-64320000D03*
X157955000Y-66860000D03*
X157955000Y-69400000D03*
X157955000Y-71940000D03*
X165895000Y-71940000D03*
X165895000Y-69400000D03*
X165895000Y-66860000D03*
X165895000Y-64320000D03*
X165895000Y-61780000D03*
X165895000Y-59240000D03*
X165895000Y-56700000D03*
%TD*%
D11*
%TO.C,U12*%
X141445000Y-111310000D03*
D12*
X141445000Y-113850000D03*
X141445000Y-116390000D03*
X141445000Y-118930000D03*
X141445000Y-121470000D03*
X141445000Y-124010000D03*
X141445000Y-126550000D03*
X149385000Y-126550000D03*
X149385000Y-124010000D03*
X149385000Y-121470000D03*
X149385000Y-118930000D03*
X149385000Y-116390000D03*
X149385000Y-113850000D03*
X149385000Y-111310000D03*
%TD*%
D13*
%TO.C,Q7*%
X112395000Y-73210000D03*
D14*
X113665000Y-73210000D03*
X114935000Y-73210000D03*
%TD*%
D11*
%TO.C,U4*%
X174465000Y-56700000D03*
D12*
X174465000Y-59240000D03*
X174465000Y-61780000D03*
X174465000Y-64320000D03*
X174465000Y-66860000D03*
X174465000Y-69400000D03*
X174465000Y-71940000D03*
X182405000Y-71940000D03*
X182405000Y-69400000D03*
X182405000Y-66860000D03*
X182405000Y-64320000D03*
X182405000Y-61780000D03*
X182405000Y-59240000D03*
X182405000Y-56700000D03*
%TD*%
D13*
%TO.C,Q4*%
X112395000Y-90990000D03*
D14*
X113665000Y-90990000D03*
X114935000Y-90990000D03*
%TD*%
D15*
%TO.C,D12*%
X149108465Y-48890000D03*
D16*
X151648465Y-48890000D03*
%TD*%
D15*
%TO.C,D16*%
X161808465Y-48890000D03*
D16*
X164348465Y-48890000D03*
%TD*%
D11*
%TO.C,U7*%
X174465000Y-83370000D03*
D12*
X174465000Y-85910000D03*
X174465000Y-88450000D03*
X174465000Y-90990000D03*
X174465000Y-93530000D03*
X174465000Y-96070000D03*
X174465000Y-98610000D03*
X182405000Y-98610000D03*
X182405000Y-96070000D03*
X182405000Y-93530000D03*
X182405000Y-90990000D03*
X182405000Y-88450000D03*
X182405000Y-85910000D03*
X182405000Y-83370000D03*
%TD*%
D11*
%TO.C,U10*%
X123665000Y-83370000D03*
D12*
X123665000Y-85910000D03*
X123665000Y-88450000D03*
X123665000Y-90990000D03*
X123665000Y-93530000D03*
X123665000Y-96070000D03*
X123665000Y-98610000D03*
X131605000Y-98610000D03*
X131605000Y-96070000D03*
X131605000Y-93530000D03*
X131605000Y-90990000D03*
X131605000Y-88450000D03*
X131605000Y-85910000D03*
X131605000Y-83370000D03*
%TD*%
D17*
%TO.C,R11*%
X142875000Y-140520000D03*
D18*
X147955000Y-140520000D03*
%TD*%
D15*
%TO.C,D22*%
X180858465Y-48890000D03*
D16*
X183398465Y-48890000D03*
%TD*%
D17*
%TO.C,R10*%
X137795000Y-42730000D03*
D18*
X142875000Y-42730000D03*
%TD*%
D15*
%TO.C,D9*%
X136525000Y-135440000D03*
D16*
X139065000Y-135440000D03*
%TD*%
D17*
%TO.C,R6*%
X122555000Y-42730000D03*
D18*
X127635000Y-42730000D03*
%TD*%
D15*
%TO.C,D21*%
X174625000Y-135440000D03*
D16*
X177165000Y-135440000D03*
%TD*%
D17*
%TO.C,R5*%
X120015000Y-140520000D03*
D18*
X125095000Y-140520000D03*
%TD*%
D13*
%TO.C,Q1*%
X112395000Y-117660000D03*
D14*
X113665000Y-117660000D03*
X114935000Y-117660000D03*
%TD*%
D17*
%TO.C,R1*%
X112395000Y-137980000D03*
D18*
X112395000Y-132900000D03*
%TD*%
D15*
%TO.C,D5*%
X123825000Y-135440000D03*
D16*
X126365000Y-135440000D03*
%TD*%
D15*
%TO.C,D3*%
X117475000Y-135440000D03*
D16*
X120015000Y-135440000D03*
%TD*%
D11*
%TO.C,U1*%
X123665000Y-56700000D03*
D12*
X123665000Y-59240000D03*
X123665000Y-61780000D03*
X123665000Y-64320000D03*
X123665000Y-66860000D03*
X123665000Y-69400000D03*
X123665000Y-71940000D03*
X131605000Y-71940000D03*
X131605000Y-69400000D03*
X131605000Y-66860000D03*
X131605000Y-64320000D03*
X131605000Y-61780000D03*
X131605000Y-59240000D03*
X131605000Y-56700000D03*
%TD*%
D17*
%TO.C,R27*%
X201295000Y-137980000D03*
D18*
X201295000Y-132900000D03*
%TD*%
D17*
%TO.C,R2*%
X112395000Y-44000000D03*
D18*
X112395000Y-49080000D03*
%TD*%
D15*
%TO.C,D4*%
X123708465Y-48890000D03*
D16*
X126248465Y-48890000D03*
%TD*%
D19*
%TO.C,U8*%
X157955000Y-82100000D03*
D20*
X157955000Y-84640000D03*
X157955000Y-87180000D03*
X157955000Y-89720000D03*
X157955000Y-92260000D03*
X157955000Y-94800000D03*
X157955000Y-97340000D03*
X157955000Y-99880000D03*
X165895000Y-99880000D03*
X165895000Y-97340000D03*
X165895000Y-94800000D03*
X165895000Y-92260000D03*
X165895000Y-89720000D03*
X165895000Y-87180000D03*
X165895000Y-84640000D03*
X165895000Y-82100000D03*
%TD*%
D15*
%TO.C,D10*%
X142758465Y-48890000D03*
D16*
X145298465Y-48890000D03*
%TD*%
D11*
%TO.C,U15*%
X190975000Y-111310000D03*
D12*
X190975000Y-113850000D03*
X190975000Y-116390000D03*
X190975000Y-118930000D03*
X190975000Y-121470000D03*
X190975000Y-124010000D03*
X190975000Y-126550000D03*
X198915000Y-126550000D03*
X198915000Y-124010000D03*
X198915000Y-121470000D03*
X198915000Y-118930000D03*
X198915000Y-116390000D03*
X198915000Y-113850000D03*
X198915000Y-111310000D03*
%TD*%
D15*
%TO.C,D7*%
X130175000Y-135440000D03*
D16*
X132715000Y-135440000D03*
%TD*%
D15*
%TO.C,D26*%
X193558465Y-48890000D03*
D16*
X196098465Y-48890000D03*
%TD*%
D15*
%TO.C,D13*%
X149225000Y-135440000D03*
D16*
X151765000Y-135440000D03*
%TD*%
D17*
%TO.C,R24*%
X191135000Y-42730000D03*
D18*
X196215000Y-42730000D03*
%TD*%
D17*
%TO.C,R20*%
X175895000Y-42730000D03*
D18*
X180975000Y-42730000D03*
%TD*%
D15*
%TO.C,D8*%
X136408465Y-48890000D03*
D16*
X138948465Y-48890000D03*
%TD*%
D15*
%TO.C,D23*%
X180975000Y-135440000D03*
D16*
X183515000Y-135440000D03*
%TD*%
D15*
%TO.C,D27*%
X193675000Y-135440000D03*
D16*
X196215000Y-135440000D03*
%TD*%
D13*
%TO.C,Q8*%
X112395000Y-55430000D03*
D14*
X113665000Y-55430000D03*
X114935000Y-55430000D03*
%TD*%
D17*
%TO.C,R26*%
X200025000Y-44000000D03*
D18*
X200025000Y-49080000D03*
%TD*%
D11*
%TO.C,U11*%
X123665000Y-111310000D03*
D12*
X123665000Y-113850000D03*
X123665000Y-116390000D03*
X123665000Y-118930000D03*
X123665000Y-121470000D03*
X123665000Y-124010000D03*
X123665000Y-126550000D03*
X131605000Y-126550000D03*
X131605000Y-124010000D03*
X131605000Y-121470000D03*
X131605000Y-118930000D03*
X131605000Y-116390000D03*
X131605000Y-113850000D03*
X131605000Y-111310000D03*
%TD*%
D13*
%TO.C,Q3*%
X112395000Y-64320000D03*
D14*
X113665000Y-64320000D03*
X114935000Y-64320000D03*
%TD*%
D15*
%TO.C,D18*%
X168158465Y-48890000D03*
D16*
X170698465Y-48890000D03*
%TD*%
D17*
%TO.C,R3*%
X112395000Y-140520000D03*
D18*
X117475000Y-140520000D03*
%TD*%
D17*
%TO.C,R18*%
X168275000Y-42730000D03*
D18*
X173355000Y-42730000D03*
%TD*%
D17*
%TO.C,R16*%
X160655000Y-42730000D03*
D18*
X165735000Y-42730000D03*
%TD*%
D17*
%TO.C,R23*%
X188595000Y-140520000D03*
D18*
X193675000Y-140520000D03*
%TD*%
D11*
%TO.C,U14*%
X174465000Y-111310000D03*
D12*
X174465000Y-113850000D03*
X174465000Y-116390000D03*
X174465000Y-118930000D03*
X174465000Y-121470000D03*
X174465000Y-124010000D03*
X174465000Y-126550000D03*
X182405000Y-126550000D03*
X182405000Y-124010000D03*
X182405000Y-121470000D03*
X182405000Y-118930000D03*
X182405000Y-116390000D03*
X182405000Y-113850000D03*
X182405000Y-111310000D03*
%TD*%
D17*
%TO.C,R9*%
X135255000Y-140520000D03*
D18*
X140335000Y-140520000D03*
%TD*%
D11*
%TO.C,U9*%
X141445000Y-83370000D03*
D12*
X141445000Y-85910000D03*
X141445000Y-88450000D03*
X141445000Y-90990000D03*
X141445000Y-93530000D03*
X141445000Y-96070000D03*
X141445000Y-98610000D03*
X149385000Y-98610000D03*
X149385000Y-96070000D03*
X149385000Y-93530000D03*
X149385000Y-90990000D03*
X149385000Y-88450000D03*
X149385000Y-85910000D03*
X149385000Y-83370000D03*
%TD*%
D15*
%TO.C,D2*%
X117358465Y-48890000D03*
D16*
X119898465Y-48890000D03*
%TD*%
D17*
%TO.C,R4*%
X114935000Y-42730000D03*
D18*
X120015000Y-42730000D03*
%TD*%
D13*
%TO.C,Q2*%
X112395000Y-108770000D03*
D14*
X113665000Y-108770000D03*
X114935000Y-108770000D03*
%TD*%
D17*
%TO.C,R22*%
X183515000Y-42730000D03*
D18*
X188595000Y-42730000D03*
%TD*%
D19*
%TO.C,U13*%
X157955000Y-110040000D03*
D20*
X157955000Y-112580000D03*
X157955000Y-115120000D03*
X157955000Y-117660000D03*
X157955000Y-120200000D03*
X157955000Y-122740000D03*
X157955000Y-125280000D03*
X157955000Y-127820000D03*
X165895000Y-127820000D03*
X165895000Y-125280000D03*
X165895000Y-122740000D03*
X165895000Y-120200000D03*
X165895000Y-117660000D03*
X165895000Y-115120000D03*
X165895000Y-112580000D03*
X165895000Y-110040000D03*
%TD*%
D15*
%TO.C,D6*%
X130058465Y-48890000D03*
D16*
X132598465Y-48890000D03*
%TD*%
D17*
%TO.C,R28*%
X108585000Y-64320000D03*
D18*
X108585000Y-59240000D03*
%TD*%
D15*
%TO.C,D24*%
X187208465Y-48890000D03*
D16*
X189748465Y-48890000D03*
%TD*%
D17*
%TO.C,R7*%
X127635000Y-140520000D03*
D18*
X132715000Y-140520000D03*
%TD*%
D21*
%TO.C,J1*%
X204540000Y-57970000D03*
D22*
X204540000Y-60510000D03*
X204540000Y-63050000D03*
X204540000Y-65590000D03*
X204540000Y-68130000D03*
X204540000Y-70670000D03*
X204540000Y-73210000D03*
X204540000Y-75750000D03*
X204540000Y-78290000D03*
X204540000Y-80830000D03*
X204540000Y-83370000D03*
X204540000Y-85910000D03*
X204540000Y-88450000D03*
X204540000Y-90990000D03*
X204540000Y-93530000D03*
X204540000Y-96070000D03*
X204540000Y-98610000D03*
X204540000Y-101150000D03*
X204540000Y-103690000D03*
X204540000Y-106230000D03*
X204540000Y-108770000D03*
X204540000Y-111310000D03*
X204540000Y-113850000D03*
X204540000Y-116390000D03*
X204540000Y-118930000D03*
X204540000Y-121470000D03*
X204540000Y-124010000D03*
%TD*%
D13*
%TO.C,Q5*%
X112395000Y-99880000D03*
D14*
X113665000Y-99880000D03*
X114935000Y-99880000D03*
%TD*%
D15*
%TO.C,D14*%
X155458465Y-48890000D03*
D16*
X157998465Y-48890000D03*
%TD*%
D17*
%TO.C,R13*%
X150495000Y-140520000D03*
D18*
X155575000Y-140520000D03*
%TD*%
D17*
%TO.C,R12*%
X145415000Y-42730000D03*
D18*
X150495000Y-42730000D03*
%TD*%
D15*
%TO.C,D1*%
X112395000Y-129090000D03*
D16*
X112395000Y-126550000D03*
%TD*%
D11*
%TO.C,U2*%
X141445000Y-56700000D03*
D12*
X141445000Y-59240000D03*
X141445000Y-61780000D03*
X141445000Y-64320000D03*
X141445000Y-66860000D03*
X141445000Y-69400000D03*
X141445000Y-71940000D03*
X149385000Y-71940000D03*
X149385000Y-69400000D03*
X149385000Y-66860000D03*
X149385000Y-64320000D03*
X149385000Y-61780000D03*
X149385000Y-59240000D03*
X149385000Y-56700000D03*
%TD*%
D17*
%TO.C,R14*%
X153035000Y-42730000D03*
D18*
X158115000Y-42730000D03*
%TD*%
D11*
%TO.C,U5*%
X190975000Y-56700000D03*
D12*
X190975000Y-59240000D03*
X190975000Y-61780000D03*
X190975000Y-64320000D03*
X190975000Y-66860000D03*
X190975000Y-69400000D03*
X190975000Y-71940000D03*
X198915000Y-71940000D03*
X198915000Y-69400000D03*
X198915000Y-66860000D03*
X198915000Y-64320000D03*
X198915000Y-61780000D03*
X198915000Y-59240000D03*
X198915000Y-56700000D03*
%TD*%
D17*
%TO.C,R17*%
X165735000Y-140520000D03*
D18*
X170815000Y-140520000D03*
%TD*%
D15*
%TO.C,D25*%
X187325000Y-135440000D03*
D16*
X189865000Y-135440000D03*
%TD*%
D15*
%TO.C,D17*%
X161925000Y-135440000D03*
D16*
X164465000Y-135440000D03*
%TD*%
D17*
%TO.C,R8*%
X130175000Y-42730000D03*
D18*
X135255000Y-42730000D03*
%TD*%
D11*
%TO.C,U6*%
X190975000Y-83370000D03*
D12*
X190975000Y-85910000D03*
X190975000Y-88450000D03*
X190975000Y-90990000D03*
X190975000Y-93530000D03*
X190975000Y-96070000D03*
X190975000Y-98610000D03*
X198915000Y-98610000D03*
X198915000Y-96070000D03*
X198915000Y-93530000D03*
X198915000Y-90990000D03*
X198915000Y-88450000D03*
X198915000Y-85910000D03*
X198915000Y-83370000D03*
%TD*%
D17*
%TO.C,R19*%
X173355000Y-140520000D03*
D18*
X178435000Y-140520000D03*
%TD*%
D17*
%TO.C,R15*%
X158115000Y-140520000D03*
D18*
X163195000Y-140520000D03*
%TD*%
D15*
%TO.C,D20*%
X174508465Y-48890000D03*
D16*
X177048465Y-48890000D03*
%TD*%
D15*
%TO.C,D19*%
X168275000Y-135440000D03*
D16*
X170815000Y-135440000D03*
%TD*%
D17*
%TO.C,R25*%
X196215000Y-140520000D03*
D18*
X201295000Y-140520000D03*
%TD*%
D13*
%TO.C,Q6*%
X112395000Y-82100000D03*
D14*
X113665000Y-82100000D03*
X114935000Y-82100000D03*
%TD*%
D15*
%TO.C,D11*%
X142875000Y-135440000D03*
D16*
X145415000Y-135440000D03*
%TD*%
D15*
%TO.C,D15*%
X155575000Y-135440000D03*
D16*
X158115000Y-135440000D03*
%TD*%
D17*
%TO.C,R21*%
X180975000Y-140520000D03*
D18*
X186055000Y-140520000D03*
%TD*%
M02*
