%TF.GenerationSoftware,KiCad,Pcbnew,(6.0.9)*%
%TF.CreationDate,2025-05-26T15:32:57-04:00*%
%TF.ProjectId,Seven Segment Display,53657665-6e20-4536-9567-6d656e742044,1*%
%TF.SameCoordinates,Original*%
%TF.FileFunction,Soldermask,Top*%
%TF.FilePolarity,Negative*%
%FSLAX46Y46*%
G04 Gerber Fmt 4.6, Leading zero omitted, Abs format (unit mm)*
G04 Created by KiCad (PCBNEW (6.0.9)) date 2025-05-26 15:32:57*
%MOMM*%
%LPD*%
G01*
G04 APERTURE LIST*
%ADD10R,1.600000X1.600000*%
%ADD11O,1.600000X1.600000*%
%ADD12C,1.400000*%
%ADD13O,1.400000X1.400000*%
%ADD14R,1.800000X1.800000*%
%ADD15C,1.800000*%
%ADD16R,1.700000X1.700000*%
%ADD17O,1.700000X1.700000*%
G04 APERTURE END LIST*
D10*
%TO.C,U19*%
X76210000Y-88895000D03*
D11*
X76210000Y-91435000D03*
X76210000Y-93975000D03*
X76210000Y-96515000D03*
X76210000Y-99055000D03*
X76210000Y-101595000D03*
X76210000Y-104135000D03*
X83830000Y-104135000D03*
X83830000Y-101595000D03*
X83830000Y-99055000D03*
X83830000Y-96515000D03*
X83830000Y-93975000D03*
X83830000Y-91435000D03*
X83830000Y-88895000D03*
%TD*%
D10*
%TO.C,U18*%
X104150000Y-110485000D03*
D11*
X104150000Y-113025000D03*
X104150000Y-115565000D03*
X104150000Y-118105000D03*
X104150000Y-120645000D03*
X104150000Y-123185000D03*
X104150000Y-125725000D03*
X111770000Y-125725000D03*
X111770000Y-123185000D03*
X111770000Y-120645000D03*
X111770000Y-118105000D03*
X111770000Y-115565000D03*
X111770000Y-113025000D03*
X111770000Y-110485000D03*
%TD*%
D10*
%TO.C,U17*%
X90180000Y-67305000D03*
D11*
X90180000Y-69845000D03*
X90180000Y-72385000D03*
X90180000Y-74925000D03*
X90180000Y-77465000D03*
X90180000Y-80005000D03*
X90180000Y-82545000D03*
X97800000Y-82545000D03*
X97800000Y-80005000D03*
X97800000Y-77465000D03*
X97800000Y-74925000D03*
X97800000Y-72385000D03*
X97800000Y-69845000D03*
X97800000Y-67305000D03*
%TD*%
D10*
%TO.C,U16*%
X104150000Y-88895000D03*
D11*
X104150000Y-91435000D03*
X104150000Y-93975000D03*
X104150000Y-96515000D03*
X104150000Y-99055000D03*
X104150000Y-101595000D03*
X104150000Y-104135000D03*
X111770000Y-104135000D03*
X111770000Y-101595000D03*
X111770000Y-99055000D03*
X111770000Y-96515000D03*
X111770000Y-93975000D03*
X111770000Y-91435000D03*
X111770000Y-88895000D03*
%TD*%
D10*
%TO.C,U15*%
X104150000Y-67305000D03*
D11*
X104150000Y-69845000D03*
X104150000Y-72385000D03*
X104150000Y-74925000D03*
X104150000Y-77465000D03*
X104150000Y-80005000D03*
X104150000Y-82545000D03*
X111770000Y-82545000D03*
X111770000Y-80005000D03*
X111770000Y-77465000D03*
X111770000Y-74925000D03*
X111770000Y-72385000D03*
X111770000Y-69845000D03*
X111770000Y-67305000D03*
%TD*%
D10*
%TO.C,U14*%
X76210000Y-67305000D03*
D11*
X76210000Y-69845000D03*
X76210000Y-72385000D03*
X76210000Y-74925000D03*
X76210000Y-77465000D03*
X76210000Y-80005000D03*
X76210000Y-82545000D03*
X83830000Y-82545000D03*
X83830000Y-80005000D03*
X83830000Y-77465000D03*
X83830000Y-74925000D03*
X83830000Y-72385000D03*
X83830000Y-69845000D03*
X83830000Y-67305000D03*
%TD*%
D10*
%TO.C,U13*%
X62240000Y-67305000D03*
D11*
X62240000Y-69845000D03*
X62240000Y-72385000D03*
X62240000Y-74925000D03*
X62240000Y-77465000D03*
X62240000Y-80005000D03*
X62240000Y-82545000D03*
X69860000Y-82545000D03*
X69860000Y-80005000D03*
X69860000Y-77465000D03*
X69860000Y-74925000D03*
X69860000Y-72385000D03*
X69860000Y-69845000D03*
X69860000Y-67305000D03*
%TD*%
D10*
%TO.C,U12*%
X62240000Y-88895000D03*
D11*
X62240000Y-91435000D03*
X62240000Y-93975000D03*
X62240000Y-96515000D03*
X62240000Y-99055000D03*
X62240000Y-101595000D03*
X62240000Y-104135000D03*
X69860000Y-104135000D03*
X69860000Y-101595000D03*
X69860000Y-99055000D03*
X69860000Y-96515000D03*
X69860000Y-93975000D03*
X69860000Y-91435000D03*
X69860000Y-88895000D03*
%TD*%
D10*
%TO.C,U11*%
X90180000Y-110485000D03*
D11*
X90180000Y-113025000D03*
X90180000Y-115565000D03*
X90180000Y-118105000D03*
X90180000Y-120645000D03*
X90180000Y-123185000D03*
X90180000Y-125725000D03*
X97800000Y-125725000D03*
X97800000Y-123185000D03*
X97800000Y-120645000D03*
X97800000Y-118105000D03*
X97800000Y-115565000D03*
X97800000Y-113025000D03*
X97800000Y-110485000D03*
%TD*%
D10*
%TO.C,U10*%
X76210000Y-110485000D03*
D11*
X76210000Y-113025000D03*
X76210000Y-115565000D03*
X76210000Y-118105000D03*
X76210000Y-120645000D03*
X76210000Y-123185000D03*
X76210000Y-125725000D03*
X83830000Y-125725000D03*
X83830000Y-123185000D03*
X83830000Y-120645000D03*
X83830000Y-118105000D03*
X83830000Y-115565000D03*
X83830000Y-113025000D03*
X83830000Y-110485000D03*
%TD*%
D10*
%TO.C,U9*%
X62240000Y-110485000D03*
D11*
X62240000Y-113025000D03*
X62240000Y-115565000D03*
X62240000Y-118105000D03*
X62240000Y-120645000D03*
X62240000Y-123185000D03*
X62240000Y-125725000D03*
X69860000Y-125725000D03*
X69860000Y-123185000D03*
X69860000Y-120645000D03*
X69860000Y-118105000D03*
X69860000Y-115565000D03*
X69860000Y-113025000D03*
X69860000Y-110485000D03*
%TD*%
D10*
%TO.C,U8*%
X90180000Y-88895000D03*
D11*
X90180000Y-91435000D03*
X90180000Y-93975000D03*
X90180000Y-96515000D03*
X90180000Y-99055000D03*
X90180000Y-101595000D03*
X90180000Y-104135000D03*
X97800000Y-104135000D03*
X97800000Y-101595000D03*
X97800000Y-99055000D03*
X97800000Y-96515000D03*
X97800000Y-93975000D03*
X97800000Y-91435000D03*
X97800000Y-88895000D03*
%TD*%
D10*
%TO.C,U7*%
X104140000Y-46985000D03*
D11*
X104140000Y-49525000D03*
X104140000Y-52065000D03*
X104140000Y-54605000D03*
X104140000Y-57145000D03*
X104140000Y-59685000D03*
X104140000Y-62225000D03*
X111760000Y-62225000D03*
X111760000Y-59685000D03*
X111760000Y-57145000D03*
X111760000Y-54605000D03*
X111760000Y-52065000D03*
X111760000Y-49525000D03*
X111760000Y-46985000D03*
%TD*%
D10*
%TO.C,U6*%
X76210000Y-46985000D03*
D11*
X76210000Y-49525000D03*
X76210000Y-52065000D03*
X76210000Y-54605000D03*
X76210000Y-57145000D03*
X76210000Y-59685000D03*
X76210000Y-62225000D03*
X83830000Y-62225000D03*
X83830000Y-59685000D03*
X83830000Y-57145000D03*
X83830000Y-54605000D03*
X83830000Y-52065000D03*
X83830000Y-49525000D03*
X83830000Y-46985000D03*
%TD*%
D10*
%TO.C,U1*%
X90180000Y-46985000D03*
D11*
X90180000Y-49525000D03*
X90180000Y-52065000D03*
X90180000Y-54605000D03*
X90180000Y-57145000D03*
X90180000Y-59685000D03*
X90180000Y-62225000D03*
X97800000Y-62225000D03*
X97800000Y-59685000D03*
X97800000Y-57145000D03*
X97800000Y-54605000D03*
X97800000Y-52065000D03*
X97800000Y-49525000D03*
X97800000Y-46985000D03*
%TD*%
D10*
%TO.C,U5*%
X62240000Y-46985000D03*
D11*
X62240000Y-49525000D03*
X62240000Y-52065000D03*
X62240000Y-54605000D03*
X62240000Y-57145000D03*
X62240000Y-59685000D03*
X62240000Y-62225000D03*
X69860000Y-62225000D03*
X69860000Y-59685000D03*
X69860000Y-57145000D03*
X69860000Y-54605000D03*
X69860000Y-52065000D03*
X69860000Y-49525000D03*
X69860000Y-46985000D03*
%TD*%
D12*
%TO.C,R1*%
X55810000Y-61620000D03*
D13*
X55810000Y-66700000D03*
%TD*%
D14*
%TO.C,D1*%
X55880000Y-69850000D03*
D15*
X55880000Y-72390000D03*
%TD*%
D16*
%TO.C,J1*%
X53340000Y-80010000D03*
D17*
X53340000Y-82550000D03*
X53340000Y-85090000D03*
X53340000Y-87630000D03*
X53340000Y-90170000D03*
X53340000Y-92710000D03*
%TD*%
%TO.C,J2*%
X119380000Y-92705000D03*
X119380000Y-90165000D03*
X119380000Y-87625000D03*
X119380000Y-85085000D03*
X119380000Y-82545000D03*
X119380000Y-80005000D03*
D16*
X119380000Y-77465000D03*
%TD*%
M02*
