%TF.GenerationSoftware,KiCad,Pcbnew,(6.0.9)*%
%TF.CreationDate,2025-05-26T15:32:57-04:00*%
%TF.ProjectId,Seven Segment Display,53657665-6e20-4536-9567-6d656e742044,1*%
%TF.SameCoordinates,Original*%
%TF.FileFunction,Legend,Top*%
%TF.FilePolarity,Positive*%
%FSLAX46Y46*%
G04 Gerber Fmt 4.6, Leading zero omitted, Abs format (unit mm)*
G04 Created by KiCad (PCBNEW (6.0.9)) date 2025-05-26 15:32:57*
%MOMM*%
%LPD*%
G01*
G04 APERTURE LIST*
%ADD10C,0.300000*%
%ADD11C,0.150000*%
%ADD12C,0.120000*%
%ADD13R,1.600000X1.600000*%
%ADD14O,1.600000X1.600000*%
%ADD15C,1.400000*%
%ADD16O,1.400000X1.400000*%
%ADD17R,1.800000X1.800000*%
%ADD18C,1.800000*%
%ADD19R,1.700000X1.700000*%
%ADD20O,1.700000X1.700000*%
G04 APERTURE END LIST*
D10*
X64147142Y-108200000D02*
X64861428Y-108200000D01*
X64004285Y-108628571D02*
X64504285Y-107128571D01*
X65004285Y-108628571D01*
X65504285Y-108628571D02*
X65504285Y-107128571D01*
X66361428Y-108628571D01*
X66361428Y-107128571D01*
X67075714Y-108628571D02*
X67075714Y-107128571D01*
X67432857Y-107128571D01*
X67647142Y-107200000D01*
X67790000Y-107342857D01*
X67861428Y-107485714D01*
X67932857Y-107771428D01*
X67932857Y-107985714D01*
X67861428Y-108271428D01*
X67790000Y-108414285D01*
X67647142Y-108557142D01*
X67432857Y-108628571D01*
X67075714Y-108628571D01*
X78117142Y-108200000D02*
X78831428Y-108200000D01*
X77974285Y-108628571D02*
X78474285Y-107128571D01*
X78974285Y-108628571D01*
X79474285Y-108628571D02*
X79474285Y-107128571D01*
X80331428Y-108628571D01*
X80331428Y-107128571D01*
X81045714Y-108628571D02*
X81045714Y-107128571D01*
X81402857Y-107128571D01*
X81617142Y-107200000D01*
X81760000Y-107342857D01*
X81831428Y-107485714D01*
X81902857Y-107771428D01*
X81902857Y-107985714D01*
X81831428Y-108271428D01*
X81760000Y-108414285D01*
X81617142Y-108557142D01*
X81402857Y-108628571D01*
X81045714Y-108628571D01*
X92087142Y-108200000D02*
X92801428Y-108200000D01*
X91944285Y-108628571D02*
X92444285Y-107128571D01*
X92944285Y-108628571D01*
X93444285Y-108628571D02*
X93444285Y-107128571D01*
X94301428Y-108628571D01*
X94301428Y-107128571D01*
X95015714Y-108628571D02*
X95015714Y-107128571D01*
X95372857Y-107128571D01*
X95587142Y-107200000D01*
X95730000Y-107342857D01*
X95801428Y-107485714D01*
X95872857Y-107771428D01*
X95872857Y-107985714D01*
X95801428Y-108271428D01*
X95730000Y-108414285D01*
X95587142Y-108557142D01*
X95372857Y-108628571D01*
X95015714Y-108628571D01*
X107067142Y-107128571D02*
X107352857Y-107128571D01*
X107495714Y-107200000D01*
X107638571Y-107342857D01*
X107710000Y-107628571D01*
X107710000Y-108128571D01*
X107638571Y-108414285D01*
X107495714Y-108557142D01*
X107352857Y-108628571D01*
X107067142Y-108628571D01*
X106924285Y-108557142D01*
X106781428Y-108414285D01*
X106710000Y-108128571D01*
X106710000Y-107628571D01*
X106781428Y-107342857D01*
X106924285Y-107200000D01*
X107067142Y-107128571D01*
X109210000Y-108628571D02*
X108710000Y-107914285D01*
X108352857Y-108628571D02*
X108352857Y-107128571D01*
X108924285Y-107128571D01*
X109067142Y-107200000D01*
X109138571Y-107271428D01*
X109210000Y-107414285D01*
X109210000Y-107628571D01*
X109138571Y-107771428D01*
X109067142Y-107842857D01*
X108924285Y-107914285D01*
X108352857Y-107914285D01*
X64147142Y-86610000D02*
X64861428Y-86610000D01*
X64004285Y-87038571D02*
X64504285Y-85538571D01*
X65004285Y-87038571D01*
X65504285Y-87038571D02*
X65504285Y-85538571D01*
X66361428Y-87038571D01*
X66361428Y-85538571D01*
X67075714Y-87038571D02*
X67075714Y-85538571D01*
X67432857Y-85538571D01*
X67647142Y-85610000D01*
X67790000Y-85752857D01*
X67861428Y-85895714D01*
X67932857Y-86181428D01*
X67932857Y-86395714D01*
X67861428Y-86681428D01*
X67790000Y-86824285D01*
X67647142Y-86967142D01*
X67432857Y-87038571D01*
X67075714Y-87038571D01*
X79117142Y-85538571D02*
X79402857Y-85538571D01*
X79545714Y-85610000D01*
X79688571Y-85752857D01*
X79760000Y-86038571D01*
X79760000Y-86538571D01*
X79688571Y-86824285D01*
X79545714Y-86967142D01*
X79402857Y-87038571D01*
X79117142Y-87038571D01*
X78974285Y-86967142D01*
X78831428Y-86824285D01*
X78760000Y-86538571D01*
X78760000Y-86038571D01*
X78831428Y-85752857D01*
X78974285Y-85610000D01*
X79117142Y-85538571D01*
X81260000Y-87038571D02*
X80760000Y-86324285D01*
X80402857Y-87038571D02*
X80402857Y-85538571D01*
X80974285Y-85538571D01*
X81117142Y-85610000D01*
X81188571Y-85681428D01*
X81260000Y-85824285D01*
X81260000Y-86038571D01*
X81188571Y-86181428D01*
X81117142Y-86252857D01*
X80974285Y-86324285D01*
X80402857Y-86324285D01*
X92087142Y-86610000D02*
X92801428Y-86610000D01*
X91944285Y-87038571D02*
X92444285Y-85538571D01*
X92944285Y-87038571D01*
X93444285Y-87038571D02*
X93444285Y-85538571D01*
X94301428Y-87038571D01*
X94301428Y-85538571D01*
X95015714Y-87038571D02*
X95015714Y-85538571D01*
X95372857Y-85538571D01*
X95587142Y-85610000D01*
X95730000Y-85752857D01*
X95801428Y-85895714D01*
X95872857Y-86181428D01*
X95872857Y-86395714D01*
X95801428Y-86681428D01*
X95730000Y-86824285D01*
X95587142Y-86967142D01*
X95372857Y-87038571D01*
X95015714Y-87038571D01*
X107057142Y-85538571D02*
X107342857Y-85538571D01*
X107485714Y-85610000D01*
X107628571Y-85752857D01*
X107700000Y-86038571D01*
X107700000Y-86538571D01*
X107628571Y-86824285D01*
X107485714Y-86967142D01*
X107342857Y-87038571D01*
X107057142Y-87038571D01*
X106914285Y-86967142D01*
X106771428Y-86824285D01*
X106700000Y-86538571D01*
X106700000Y-86038571D01*
X106771428Y-85752857D01*
X106914285Y-85610000D01*
X107057142Y-85538571D01*
X109200000Y-87038571D02*
X108700000Y-86324285D01*
X108342857Y-87038571D02*
X108342857Y-85538571D01*
X108914285Y-85538571D01*
X109057142Y-85610000D01*
X109128571Y-85681428D01*
X109200000Y-85824285D01*
X109200000Y-86038571D01*
X109128571Y-86181428D01*
X109057142Y-86252857D01*
X108914285Y-86324285D01*
X108342857Y-86324285D01*
X107057142Y-63948571D02*
X107342857Y-63948571D01*
X107485714Y-64020000D01*
X107628571Y-64162857D01*
X107700000Y-64448571D01*
X107700000Y-64948571D01*
X107628571Y-65234285D01*
X107485714Y-65377142D01*
X107342857Y-65448571D01*
X107057142Y-65448571D01*
X106914285Y-65377142D01*
X106771428Y-65234285D01*
X106700000Y-64948571D01*
X106700000Y-64448571D01*
X106771428Y-64162857D01*
X106914285Y-64020000D01*
X107057142Y-63948571D01*
X109200000Y-65448571D02*
X108700000Y-64734285D01*
X108342857Y-65448571D02*
X108342857Y-63948571D01*
X108914285Y-63948571D01*
X109057142Y-64020000D01*
X109128571Y-64091428D01*
X109200000Y-64234285D01*
X109200000Y-64448571D01*
X109128571Y-64591428D01*
X109057142Y-64662857D01*
X108914285Y-64734285D01*
X108342857Y-64734285D01*
X93087142Y-63948571D02*
X93372857Y-63948571D01*
X93515714Y-64020000D01*
X93658571Y-64162857D01*
X93730000Y-64448571D01*
X93730000Y-64948571D01*
X93658571Y-65234285D01*
X93515714Y-65377142D01*
X93372857Y-65448571D01*
X93087142Y-65448571D01*
X92944285Y-65377142D01*
X92801428Y-65234285D01*
X92730000Y-64948571D01*
X92730000Y-64448571D01*
X92801428Y-64162857D01*
X92944285Y-64020000D01*
X93087142Y-63948571D01*
X95230000Y-65448571D02*
X94730000Y-64734285D01*
X94372857Y-65448571D02*
X94372857Y-63948571D01*
X94944285Y-63948571D01*
X95087142Y-64020000D01*
X95158571Y-64091428D01*
X95230000Y-64234285D01*
X95230000Y-64448571D01*
X95158571Y-64591428D01*
X95087142Y-64662857D01*
X94944285Y-64734285D01*
X94372857Y-64734285D01*
X79117142Y-63948571D02*
X79402857Y-63948571D01*
X79545714Y-64020000D01*
X79688571Y-64162857D01*
X79760000Y-64448571D01*
X79760000Y-64948571D01*
X79688571Y-65234285D01*
X79545714Y-65377142D01*
X79402857Y-65448571D01*
X79117142Y-65448571D01*
X78974285Y-65377142D01*
X78831428Y-65234285D01*
X78760000Y-64948571D01*
X78760000Y-64448571D01*
X78831428Y-64162857D01*
X78974285Y-64020000D01*
X79117142Y-63948571D01*
X81260000Y-65448571D02*
X80760000Y-64734285D01*
X80402857Y-65448571D02*
X80402857Y-63948571D01*
X80974285Y-63948571D01*
X81117142Y-64020000D01*
X81188571Y-64091428D01*
X81260000Y-64234285D01*
X81260000Y-64448571D01*
X81188571Y-64591428D01*
X81117142Y-64662857D01*
X80974285Y-64734285D01*
X80402857Y-64734285D01*
X65147142Y-63948571D02*
X65432857Y-63948571D01*
X65575714Y-64020000D01*
X65718571Y-64162857D01*
X65790000Y-64448571D01*
X65790000Y-64948571D01*
X65718571Y-65234285D01*
X65575714Y-65377142D01*
X65432857Y-65448571D01*
X65147142Y-65448571D01*
X65004285Y-65377142D01*
X64861428Y-65234285D01*
X64790000Y-64948571D01*
X64790000Y-64448571D01*
X64861428Y-64162857D01*
X65004285Y-64020000D01*
X65147142Y-63948571D01*
X67290000Y-65448571D02*
X66790000Y-64734285D01*
X66432857Y-65448571D02*
X66432857Y-63948571D01*
X67004285Y-63948571D01*
X67147142Y-64020000D01*
X67218571Y-64091428D01*
X67290000Y-64234285D01*
X67290000Y-64448571D01*
X67218571Y-64591428D01*
X67147142Y-64662857D01*
X67004285Y-64734285D01*
X66432857Y-64734285D01*
X92194285Y-45128571D02*
X92194285Y-43628571D01*
X93051428Y-45128571D01*
X93051428Y-43628571D01*
X94051428Y-43628571D02*
X94337142Y-43628571D01*
X94480000Y-43700000D01*
X94622857Y-43842857D01*
X94694285Y-44128571D01*
X94694285Y-44628571D01*
X94622857Y-44914285D01*
X94480000Y-45057142D01*
X94337142Y-45128571D01*
X94051428Y-45128571D01*
X93908571Y-45057142D01*
X93765714Y-44914285D01*
X93694285Y-44628571D01*
X93694285Y-44128571D01*
X93765714Y-43842857D01*
X93908571Y-43700000D01*
X94051428Y-43628571D01*
X95122857Y-43628571D02*
X95980000Y-43628571D01*
X95551428Y-45128571D02*
X95551428Y-43628571D01*
X106057142Y-44700000D02*
X106771428Y-44700000D01*
X105914285Y-45128571D02*
X106414285Y-43628571D01*
X106914285Y-45128571D01*
X107414285Y-45128571D02*
X107414285Y-43628571D01*
X108271428Y-45128571D01*
X108271428Y-43628571D01*
X108985714Y-45128571D02*
X108985714Y-43628571D01*
X109342857Y-43628571D01*
X109557142Y-43700000D01*
X109700000Y-43842857D01*
X109771428Y-43985714D01*
X109842857Y-44271428D01*
X109842857Y-44485714D01*
X109771428Y-44771428D01*
X109700000Y-44914285D01*
X109557142Y-45057142D01*
X109342857Y-45128571D01*
X108985714Y-45128571D01*
X78117142Y-44700000D02*
X78831428Y-44700000D01*
X77974285Y-45128571D02*
X78474285Y-43628571D01*
X78974285Y-45128571D01*
X79474285Y-45128571D02*
X79474285Y-43628571D01*
X80331428Y-45128571D01*
X80331428Y-43628571D01*
X81045714Y-45128571D02*
X81045714Y-43628571D01*
X81402857Y-43628571D01*
X81617142Y-43700000D01*
X81760000Y-43842857D01*
X81831428Y-43985714D01*
X81902857Y-44271428D01*
X81902857Y-44485714D01*
X81831428Y-44771428D01*
X81760000Y-44914285D01*
X81617142Y-45057142D01*
X81402857Y-45128571D01*
X81045714Y-45128571D01*
X64147142Y-44700000D02*
X64861428Y-44700000D01*
X64004285Y-45128571D02*
X64504285Y-43628571D01*
X65004285Y-45128571D01*
X65504285Y-45128571D02*
X65504285Y-43628571D01*
X66361428Y-45128571D01*
X66361428Y-43628571D01*
X67075714Y-45128571D02*
X67075714Y-43628571D01*
X67432857Y-43628571D01*
X67647142Y-43700000D01*
X67790000Y-43842857D01*
X67861428Y-43985714D01*
X67932857Y-44271428D01*
X67932857Y-44485714D01*
X67861428Y-44771428D01*
X67790000Y-44914285D01*
X67647142Y-45057142D01*
X67432857Y-45128571D01*
X67075714Y-45128571D01*
D11*
X51729047Y-50388571D02*
X51871904Y-50436190D01*
X51919523Y-50483809D01*
X51967142Y-50579047D01*
X51967142Y-50721904D01*
X51919523Y-50817142D01*
X51871904Y-50864761D01*
X51776666Y-50912380D01*
X51395714Y-50912380D01*
X51395714Y-49912380D01*
X51729047Y-49912380D01*
X51824285Y-49960000D01*
X51871904Y-50007619D01*
X51919523Y-50102857D01*
X51919523Y-50198095D01*
X51871904Y-50293333D01*
X51824285Y-50340952D01*
X51729047Y-50388571D01*
X51395714Y-50388571D01*
X52395714Y-50912380D02*
X52395714Y-50245714D01*
X52395714Y-49912380D02*
X52348095Y-49960000D01*
X52395714Y-50007619D01*
X52443333Y-49960000D01*
X52395714Y-49912380D01*
X52395714Y-50007619D01*
X52871904Y-50245714D02*
X52871904Y-50912380D01*
X52871904Y-50340952D02*
X52919523Y-50293333D01*
X53014761Y-50245714D01*
X53157619Y-50245714D01*
X53252857Y-50293333D01*
X53300476Y-50388571D01*
X53300476Y-50912380D01*
X54205238Y-50912380D02*
X54205238Y-50388571D01*
X54157619Y-50293333D01*
X54062380Y-50245714D01*
X53871904Y-50245714D01*
X53776666Y-50293333D01*
X54205238Y-50864761D02*
X54110000Y-50912380D01*
X53871904Y-50912380D01*
X53776666Y-50864761D01*
X53729047Y-50769523D01*
X53729047Y-50674285D01*
X53776666Y-50579047D01*
X53871904Y-50531428D01*
X54110000Y-50531428D01*
X54205238Y-50483809D01*
X54681428Y-50912380D02*
X54681428Y-50245714D01*
X54681428Y-50436190D02*
X54729047Y-50340952D01*
X54776666Y-50293333D01*
X54871904Y-50245714D01*
X54967142Y-50245714D01*
X55205238Y-50245714D02*
X55443333Y-50912380D01*
X55681428Y-50245714D02*
X55443333Y-50912380D01*
X55348095Y-51150476D01*
X55300476Y-51198095D01*
X55205238Y-51245714D01*
X56681428Y-50245714D02*
X57062380Y-50245714D01*
X56824285Y-49912380D02*
X56824285Y-50769523D01*
X56871904Y-50864761D01*
X56967142Y-50912380D01*
X57062380Y-50912380D01*
X57538571Y-50912380D02*
X57443333Y-50864761D01*
X57395714Y-50817142D01*
X57348095Y-50721904D01*
X57348095Y-50436190D01*
X57395714Y-50340952D01*
X57443333Y-50293333D01*
X57538571Y-50245714D01*
X57681428Y-50245714D01*
X57776666Y-50293333D01*
X57824285Y-50340952D01*
X57871904Y-50436190D01*
X57871904Y-50721904D01*
X57824285Y-50817142D01*
X57776666Y-50864761D01*
X57681428Y-50912380D01*
X57538571Y-50912380D01*
X51038571Y-51522380D02*
X51705238Y-51522380D01*
X51276666Y-52522380D01*
X52086190Y-52141428D02*
X52848095Y-52141428D01*
X53276666Y-52474761D02*
X53419523Y-52522380D01*
X53657619Y-52522380D01*
X53752857Y-52474761D01*
X53800476Y-52427142D01*
X53848095Y-52331904D01*
X53848095Y-52236666D01*
X53800476Y-52141428D01*
X53752857Y-52093809D01*
X53657619Y-52046190D01*
X53467142Y-51998571D01*
X53371904Y-51950952D01*
X53324285Y-51903333D01*
X53276666Y-51808095D01*
X53276666Y-51712857D01*
X53324285Y-51617619D01*
X53371904Y-51570000D01*
X53467142Y-51522380D01*
X53705238Y-51522380D01*
X53848095Y-51570000D01*
X54276666Y-52522380D02*
X54276666Y-51522380D01*
X54514761Y-51522380D01*
X54657619Y-51570000D01*
X54752857Y-51665238D01*
X54800476Y-51760476D01*
X54848095Y-51950952D01*
X54848095Y-52093809D01*
X54800476Y-52284285D01*
X54752857Y-52379523D01*
X54657619Y-52474761D01*
X54514761Y-52522380D01*
X54276666Y-52522380D01*
X56038571Y-52522380D02*
X56038571Y-51522380D01*
X56038571Y-51998571D02*
X56610000Y-51998571D01*
X56610000Y-52522380D02*
X56610000Y-51522380D01*
X57514761Y-52522380D02*
X57514761Y-51998571D01*
X57467142Y-51903333D01*
X57371904Y-51855714D01*
X57181428Y-51855714D01*
X57086190Y-51903333D01*
X57514761Y-52474761D02*
X57419523Y-52522380D01*
X57181428Y-52522380D01*
X57086190Y-52474761D01*
X57038571Y-52379523D01*
X57038571Y-52284285D01*
X57086190Y-52189047D01*
X57181428Y-52141428D01*
X57419523Y-52141428D01*
X57514761Y-52093809D01*
X57848095Y-51855714D02*
X58229047Y-51855714D01*
X57990952Y-51522380D02*
X57990952Y-52379523D01*
X58038571Y-52474761D01*
X58133809Y-52522380D01*
X58229047Y-52522380D01*
X53800476Y-53132380D02*
X54133809Y-54132380D01*
X54467142Y-53132380D01*
X55324285Y-54132380D02*
X54752857Y-54132380D01*
X55038571Y-54132380D02*
X55038571Y-53132380D01*
X54943333Y-53275238D01*
X54848095Y-53370476D01*
X54752857Y-53418095D01*
D10*
X53880000Y-75608571D02*
X53880000Y-74108571D01*
X54451428Y-74108571D01*
X54594285Y-74180000D01*
X54665714Y-74251428D01*
X54737142Y-74394285D01*
X54737142Y-74608571D01*
X54665714Y-74751428D01*
X54594285Y-74822857D01*
X54451428Y-74894285D01*
X53880000Y-74894285D01*
X55237142Y-74108571D02*
X55594285Y-75608571D01*
X55880000Y-74537142D01*
X56165714Y-75608571D01*
X56522857Y-74108571D01*
X57951428Y-75608571D02*
X57451428Y-74894285D01*
X57094285Y-75608571D02*
X57094285Y-74108571D01*
X57665714Y-74108571D01*
X57808571Y-74180000D01*
X57880000Y-74251428D01*
X57951428Y-74394285D01*
X57951428Y-74608571D01*
X57880000Y-74751428D01*
X57808571Y-74822857D01*
X57665714Y-74894285D01*
X57094285Y-74894285D01*
D11*
%TO.C,U19*%
X74961904Y-86017380D02*
X74961904Y-86826904D01*
X75009523Y-86922142D01*
X75057142Y-86969761D01*
X75152380Y-87017380D01*
X75342857Y-87017380D01*
X75438095Y-86969761D01*
X75485714Y-86922142D01*
X75533333Y-86826904D01*
X75533333Y-86017380D01*
X76533333Y-87017380D02*
X75961904Y-87017380D01*
X76247619Y-87017380D02*
X76247619Y-86017380D01*
X76152380Y-86160238D01*
X76057142Y-86255476D01*
X75961904Y-86303095D01*
X77009523Y-87017380D02*
X77200000Y-87017380D01*
X77295238Y-86969761D01*
X77342857Y-86922142D01*
X77438095Y-86779285D01*
X77485714Y-86588809D01*
X77485714Y-86207857D01*
X77438095Y-86112619D01*
X77390476Y-86065000D01*
X77295238Y-86017380D01*
X77104761Y-86017380D01*
X77009523Y-86065000D01*
X76961904Y-86112619D01*
X76914285Y-86207857D01*
X76914285Y-86445952D01*
X76961904Y-86541190D01*
X77009523Y-86588809D01*
X77104761Y-86636428D01*
X77295238Y-86636428D01*
X77390476Y-86588809D01*
X77438095Y-86541190D01*
X77485714Y-86445952D01*
%TO.C,U18*%
X102901904Y-107607380D02*
X102901904Y-108416904D01*
X102949523Y-108512142D01*
X102997142Y-108559761D01*
X103092380Y-108607380D01*
X103282857Y-108607380D01*
X103378095Y-108559761D01*
X103425714Y-108512142D01*
X103473333Y-108416904D01*
X103473333Y-107607380D01*
X104473333Y-108607380D02*
X103901904Y-108607380D01*
X104187619Y-108607380D02*
X104187619Y-107607380D01*
X104092380Y-107750238D01*
X103997142Y-107845476D01*
X103901904Y-107893095D01*
X105044761Y-108035952D02*
X104949523Y-107988333D01*
X104901904Y-107940714D01*
X104854285Y-107845476D01*
X104854285Y-107797857D01*
X104901904Y-107702619D01*
X104949523Y-107655000D01*
X105044761Y-107607380D01*
X105235238Y-107607380D01*
X105330476Y-107655000D01*
X105378095Y-107702619D01*
X105425714Y-107797857D01*
X105425714Y-107845476D01*
X105378095Y-107940714D01*
X105330476Y-107988333D01*
X105235238Y-108035952D01*
X105044761Y-108035952D01*
X104949523Y-108083571D01*
X104901904Y-108131190D01*
X104854285Y-108226428D01*
X104854285Y-108416904D01*
X104901904Y-108512142D01*
X104949523Y-108559761D01*
X105044761Y-108607380D01*
X105235238Y-108607380D01*
X105330476Y-108559761D01*
X105378095Y-108512142D01*
X105425714Y-108416904D01*
X105425714Y-108226428D01*
X105378095Y-108131190D01*
X105330476Y-108083571D01*
X105235238Y-108035952D01*
%TO.C,U17*%
X88931904Y-64427380D02*
X88931904Y-65236904D01*
X88979523Y-65332142D01*
X89027142Y-65379761D01*
X89122380Y-65427380D01*
X89312857Y-65427380D01*
X89408095Y-65379761D01*
X89455714Y-65332142D01*
X89503333Y-65236904D01*
X89503333Y-64427380D01*
X90503333Y-65427380D02*
X89931904Y-65427380D01*
X90217619Y-65427380D02*
X90217619Y-64427380D01*
X90122380Y-64570238D01*
X90027142Y-64665476D01*
X89931904Y-64713095D01*
X90836666Y-64427380D02*
X91503333Y-64427380D01*
X91074761Y-65427380D01*
%TO.C,U16*%
X102901904Y-86017380D02*
X102901904Y-86826904D01*
X102949523Y-86922142D01*
X102997142Y-86969761D01*
X103092380Y-87017380D01*
X103282857Y-87017380D01*
X103378095Y-86969761D01*
X103425714Y-86922142D01*
X103473333Y-86826904D01*
X103473333Y-86017380D01*
X104473333Y-87017380D02*
X103901904Y-87017380D01*
X104187619Y-87017380D02*
X104187619Y-86017380D01*
X104092380Y-86160238D01*
X103997142Y-86255476D01*
X103901904Y-86303095D01*
X105330476Y-86017380D02*
X105140000Y-86017380D01*
X105044761Y-86065000D01*
X104997142Y-86112619D01*
X104901904Y-86255476D01*
X104854285Y-86445952D01*
X104854285Y-86826904D01*
X104901904Y-86922142D01*
X104949523Y-86969761D01*
X105044761Y-87017380D01*
X105235238Y-87017380D01*
X105330476Y-86969761D01*
X105378095Y-86922142D01*
X105425714Y-86826904D01*
X105425714Y-86588809D01*
X105378095Y-86493571D01*
X105330476Y-86445952D01*
X105235238Y-86398333D01*
X105044761Y-86398333D01*
X104949523Y-86445952D01*
X104901904Y-86493571D01*
X104854285Y-86588809D01*
%TO.C,U15*%
X102901904Y-64427380D02*
X102901904Y-65236904D01*
X102949523Y-65332142D01*
X102997142Y-65379761D01*
X103092380Y-65427380D01*
X103282857Y-65427380D01*
X103378095Y-65379761D01*
X103425714Y-65332142D01*
X103473333Y-65236904D01*
X103473333Y-64427380D01*
X104473333Y-65427380D02*
X103901904Y-65427380D01*
X104187619Y-65427380D02*
X104187619Y-64427380D01*
X104092380Y-64570238D01*
X103997142Y-64665476D01*
X103901904Y-64713095D01*
X105378095Y-64427380D02*
X104901904Y-64427380D01*
X104854285Y-64903571D01*
X104901904Y-64855952D01*
X104997142Y-64808333D01*
X105235238Y-64808333D01*
X105330476Y-64855952D01*
X105378095Y-64903571D01*
X105425714Y-64998809D01*
X105425714Y-65236904D01*
X105378095Y-65332142D01*
X105330476Y-65379761D01*
X105235238Y-65427380D01*
X104997142Y-65427380D01*
X104901904Y-65379761D01*
X104854285Y-65332142D01*
%TO.C,U14*%
X74961904Y-64427380D02*
X74961904Y-65236904D01*
X75009523Y-65332142D01*
X75057142Y-65379761D01*
X75152380Y-65427380D01*
X75342857Y-65427380D01*
X75438095Y-65379761D01*
X75485714Y-65332142D01*
X75533333Y-65236904D01*
X75533333Y-64427380D01*
X76533333Y-65427380D02*
X75961904Y-65427380D01*
X76247619Y-65427380D02*
X76247619Y-64427380D01*
X76152380Y-64570238D01*
X76057142Y-64665476D01*
X75961904Y-64713095D01*
X77390476Y-64760714D02*
X77390476Y-65427380D01*
X77152380Y-64379761D02*
X76914285Y-65094047D01*
X77533333Y-65094047D01*
%TO.C,U13*%
X60991904Y-64427380D02*
X60991904Y-65236904D01*
X61039523Y-65332142D01*
X61087142Y-65379761D01*
X61182380Y-65427380D01*
X61372857Y-65427380D01*
X61468095Y-65379761D01*
X61515714Y-65332142D01*
X61563333Y-65236904D01*
X61563333Y-64427380D01*
X62563333Y-65427380D02*
X61991904Y-65427380D01*
X62277619Y-65427380D02*
X62277619Y-64427380D01*
X62182380Y-64570238D01*
X62087142Y-64665476D01*
X61991904Y-64713095D01*
X62896666Y-64427380D02*
X63515714Y-64427380D01*
X63182380Y-64808333D01*
X63325238Y-64808333D01*
X63420476Y-64855952D01*
X63468095Y-64903571D01*
X63515714Y-64998809D01*
X63515714Y-65236904D01*
X63468095Y-65332142D01*
X63420476Y-65379761D01*
X63325238Y-65427380D01*
X63039523Y-65427380D01*
X62944285Y-65379761D01*
X62896666Y-65332142D01*
%TO.C,U12*%
X60991904Y-86017380D02*
X60991904Y-86826904D01*
X61039523Y-86922142D01*
X61087142Y-86969761D01*
X61182380Y-87017380D01*
X61372857Y-87017380D01*
X61468095Y-86969761D01*
X61515714Y-86922142D01*
X61563333Y-86826904D01*
X61563333Y-86017380D01*
X62563333Y-87017380D02*
X61991904Y-87017380D01*
X62277619Y-87017380D02*
X62277619Y-86017380D01*
X62182380Y-86160238D01*
X62087142Y-86255476D01*
X61991904Y-86303095D01*
X62944285Y-86112619D02*
X62991904Y-86065000D01*
X63087142Y-86017380D01*
X63325238Y-86017380D01*
X63420476Y-86065000D01*
X63468095Y-86112619D01*
X63515714Y-86207857D01*
X63515714Y-86303095D01*
X63468095Y-86445952D01*
X62896666Y-87017380D01*
X63515714Y-87017380D01*
%TO.C,U11*%
X88931904Y-107607380D02*
X88931904Y-108416904D01*
X88979523Y-108512142D01*
X89027142Y-108559761D01*
X89122380Y-108607380D01*
X89312857Y-108607380D01*
X89408095Y-108559761D01*
X89455714Y-108512142D01*
X89503333Y-108416904D01*
X89503333Y-107607380D01*
X90503333Y-108607380D02*
X89931904Y-108607380D01*
X90217619Y-108607380D02*
X90217619Y-107607380D01*
X90122380Y-107750238D01*
X90027142Y-107845476D01*
X89931904Y-107893095D01*
X91455714Y-108607380D02*
X90884285Y-108607380D01*
X91170000Y-108607380D02*
X91170000Y-107607380D01*
X91074761Y-107750238D01*
X90979523Y-107845476D01*
X90884285Y-107893095D01*
%TO.C,U10*%
X74961904Y-107607380D02*
X74961904Y-108416904D01*
X75009523Y-108512142D01*
X75057142Y-108559761D01*
X75152380Y-108607380D01*
X75342857Y-108607380D01*
X75438095Y-108559761D01*
X75485714Y-108512142D01*
X75533333Y-108416904D01*
X75533333Y-107607380D01*
X76533333Y-108607380D02*
X75961904Y-108607380D01*
X76247619Y-108607380D02*
X76247619Y-107607380D01*
X76152380Y-107750238D01*
X76057142Y-107845476D01*
X75961904Y-107893095D01*
X77152380Y-107607380D02*
X77247619Y-107607380D01*
X77342857Y-107655000D01*
X77390476Y-107702619D01*
X77438095Y-107797857D01*
X77485714Y-107988333D01*
X77485714Y-108226428D01*
X77438095Y-108416904D01*
X77390476Y-108512142D01*
X77342857Y-108559761D01*
X77247619Y-108607380D01*
X77152380Y-108607380D01*
X77057142Y-108559761D01*
X77009523Y-108512142D01*
X76961904Y-108416904D01*
X76914285Y-108226428D01*
X76914285Y-107988333D01*
X76961904Y-107797857D01*
X77009523Y-107702619D01*
X77057142Y-107655000D01*
X77152380Y-107607380D01*
%TO.C,U9*%
X61468095Y-107607380D02*
X61468095Y-108416904D01*
X61515714Y-108512142D01*
X61563333Y-108559761D01*
X61658571Y-108607380D01*
X61849047Y-108607380D01*
X61944285Y-108559761D01*
X61991904Y-108512142D01*
X62039523Y-108416904D01*
X62039523Y-107607380D01*
X62563333Y-108607380D02*
X62753809Y-108607380D01*
X62849047Y-108559761D01*
X62896666Y-108512142D01*
X62991904Y-108369285D01*
X63039523Y-108178809D01*
X63039523Y-107797857D01*
X62991904Y-107702619D01*
X62944285Y-107655000D01*
X62849047Y-107607380D01*
X62658571Y-107607380D01*
X62563333Y-107655000D01*
X62515714Y-107702619D01*
X62468095Y-107797857D01*
X62468095Y-108035952D01*
X62515714Y-108131190D01*
X62563333Y-108178809D01*
X62658571Y-108226428D01*
X62849047Y-108226428D01*
X62944285Y-108178809D01*
X62991904Y-108131190D01*
X63039523Y-108035952D01*
%TO.C,U8*%
X89408095Y-86017380D02*
X89408095Y-86826904D01*
X89455714Y-86922142D01*
X89503333Y-86969761D01*
X89598571Y-87017380D01*
X89789047Y-87017380D01*
X89884285Y-86969761D01*
X89931904Y-86922142D01*
X89979523Y-86826904D01*
X89979523Y-86017380D01*
X90598571Y-86445952D02*
X90503333Y-86398333D01*
X90455714Y-86350714D01*
X90408095Y-86255476D01*
X90408095Y-86207857D01*
X90455714Y-86112619D01*
X90503333Y-86065000D01*
X90598571Y-86017380D01*
X90789047Y-86017380D01*
X90884285Y-86065000D01*
X90931904Y-86112619D01*
X90979523Y-86207857D01*
X90979523Y-86255476D01*
X90931904Y-86350714D01*
X90884285Y-86398333D01*
X90789047Y-86445952D01*
X90598571Y-86445952D01*
X90503333Y-86493571D01*
X90455714Y-86541190D01*
X90408095Y-86636428D01*
X90408095Y-86826904D01*
X90455714Y-86922142D01*
X90503333Y-86969761D01*
X90598571Y-87017380D01*
X90789047Y-87017380D01*
X90884285Y-86969761D01*
X90931904Y-86922142D01*
X90979523Y-86826904D01*
X90979523Y-86636428D01*
X90931904Y-86541190D01*
X90884285Y-86493571D01*
X90789047Y-86445952D01*
%TO.C,U7*%
X103368095Y-44107380D02*
X103368095Y-44916904D01*
X103415714Y-45012142D01*
X103463333Y-45059761D01*
X103558571Y-45107380D01*
X103749047Y-45107380D01*
X103844285Y-45059761D01*
X103891904Y-45012142D01*
X103939523Y-44916904D01*
X103939523Y-44107380D01*
X104320476Y-44107380D02*
X104987142Y-44107380D01*
X104558571Y-45107380D01*
%TO.C,U6*%
X75438095Y-44107380D02*
X75438095Y-44916904D01*
X75485714Y-45012142D01*
X75533333Y-45059761D01*
X75628571Y-45107380D01*
X75819047Y-45107380D01*
X75914285Y-45059761D01*
X75961904Y-45012142D01*
X76009523Y-44916904D01*
X76009523Y-44107380D01*
X76914285Y-44107380D02*
X76723809Y-44107380D01*
X76628571Y-44155000D01*
X76580952Y-44202619D01*
X76485714Y-44345476D01*
X76438095Y-44535952D01*
X76438095Y-44916904D01*
X76485714Y-45012142D01*
X76533333Y-45059761D01*
X76628571Y-45107380D01*
X76819047Y-45107380D01*
X76914285Y-45059761D01*
X76961904Y-45012142D01*
X77009523Y-44916904D01*
X77009523Y-44678809D01*
X76961904Y-44583571D01*
X76914285Y-44535952D01*
X76819047Y-44488333D01*
X76628571Y-44488333D01*
X76533333Y-44535952D01*
X76485714Y-44583571D01*
X76438095Y-44678809D01*
%TO.C,U1*%
X89408095Y-44107380D02*
X89408095Y-44916904D01*
X89455714Y-45012142D01*
X89503333Y-45059761D01*
X89598571Y-45107380D01*
X89789047Y-45107380D01*
X89884285Y-45059761D01*
X89931904Y-45012142D01*
X89979523Y-44916904D01*
X89979523Y-44107380D01*
X90979523Y-45107380D02*
X90408095Y-45107380D01*
X90693809Y-45107380D02*
X90693809Y-44107380D01*
X90598571Y-44250238D01*
X90503333Y-44345476D01*
X90408095Y-44393095D01*
%TO.C,U5*%
X61468095Y-44107380D02*
X61468095Y-44916904D01*
X61515714Y-45012142D01*
X61563333Y-45059761D01*
X61658571Y-45107380D01*
X61849047Y-45107380D01*
X61944285Y-45059761D01*
X61991904Y-45012142D01*
X62039523Y-44916904D01*
X62039523Y-44107380D01*
X62991904Y-44107380D02*
X62515714Y-44107380D01*
X62468095Y-44583571D01*
X62515714Y-44535952D01*
X62610952Y-44488333D01*
X62849047Y-44488333D01*
X62944285Y-44535952D01*
X62991904Y-44583571D01*
X63039523Y-44678809D01*
X63039523Y-44916904D01*
X62991904Y-45012142D01*
X62944285Y-45059761D01*
X62849047Y-45107380D01*
X62610952Y-45107380D01*
X62515714Y-45059761D01*
X62468095Y-45012142D01*
%TO.C,R1*%
X58182380Y-64326666D02*
X57706190Y-64660000D01*
X58182380Y-64898095D02*
X57182380Y-64898095D01*
X57182380Y-64517142D01*
X57230000Y-64421904D01*
X57277619Y-64374285D01*
X57372857Y-64326666D01*
X57515714Y-64326666D01*
X57610952Y-64374285D01*
X57658571Y-64421904D01*
X57706190Y-64517142D01*
X57706190Y-64898095D01*
X58182380Y-63374285D02*
X58182380Y-63945714D01*
X58182380Y-63660000D02*
X57182380Y-63660000D01*
X57325238Y-63755238D01*
X57420476Y-63850476D01*
X57468095Y-63945714D01*
%TO.C,D1*%
X59292380Y-71858095D02*
X58292380Y-71858095D01*
X58292380Y-71620000D01*
X58340000Y-71477142D01*
X58435238Y-71381904D01*
X58530476Y-71334285D01*
X58720952Y-71286666D01*
X58863809Y-71286666D01*
X59054285Y-71334285D01*
X59149523Y-71381904D01*
X59244761Y-71477142D01*
X59292380Y-71620000D01*
X59292380Y-71858095D01*
X59292380Y-70334285D02*
X59292380Y-70905714D01*
X59292380Y-70620000D02*
X58292380Y-70620000D01*
X58435238Y-70715238D01*
X58530476Y-70810476D01*
X58578095Y-70905714D01*
D12*
%TO.C,U19*%
X77370000Y-87565000D02*
X77370000Y-105465000D01*
X82670000Y-87565000D02*
X81020000Y-87565000D01*
X77370000Y-105465000D02*
X82670000Y-105465000D01*
X82670000Y-105465000D02*
X82670000Y-87565000D01*
X79020000Y-87565000D02*
X77370000Y-87565000D01*
X79020000Y-87565000D02*
G75*
G03*
X81020000Y-87565000I1000000J0D01*
G01*
%TO.C,U18*%
X105310000Y-109155000D02*
X105310000Y-127055000D01*
X110610000Y-109155000D02*
X108960000Y-109155000D01*
X105310000Y-127055000D02*
X110610000Y-127055000D01*
X110610000Y-127055000D02*
X110610000Y-109155000D01*
X106960000Y-109155000D02*
X105310000Y-109155000D01*
X106960000Y-109155000D02*
G75*
G03*
X108960000Y-109155000I1000000J0D01*
G01*
%TO.C,U17*%
X91340000Y-65975000D02*
X91340000Y-83875000D01*
X96640000Y-65975000D02*
X94990000Y-65975000D01*
X91340000Y-83875000D02*
X96640000Y-83875000D01*
X96640000Y-83875000D02*
X96640000Y-65975000D01*
X92990000Y-65975000D02*
X91340000Y-65975000D01*
X92990000Y-65975000D02*
G75*
G03*
X94990000Y-65975000I1000000J0D01*
G01*
%TO.C,U16*%
X105310000Y-87565000D02*
X105310000Y-105465000D01*
X110610000Y-87565000D02*
X108960000Y-87565000D01*
X105310000Y-105465000D02*
X110610000Y-105465000D01*
X110610000Y-105465000D02*
X110610000Y-87565000D01*
X106960000Y-87565000D02*
X105310000Y-87565000D01*
X106960000Y-87565000D02*
G75*
G03*
X108960000Y-87565000I1000000J0D01*
G01*
%TO.C,U15*%
X105310000Y-65975000D02*
X105310000Y-83875000D01*
X110610000Y-65975000D02*
X108960000Y-65975000D01*
X105310000Y-83875000D02*
X110610000Y-83875000D01*
X110610000Y-83875000D02*
X110610000Y-65975000D01*
X106960000Y-65975000D02*
X105310000Y-65975000D01*
X106960000Y-65975000D02*
G75*
G03*
X108960000Y-65975000I1000000J0D01*
G01*
%TO.C,U14*%
X77370000Y-65975000D02*
X77370000Y-83875000D01*
X82670000Y-65975000D02*
X81020000Y-65975000D01*
X77370000Y-83875000D02*
X82670000Y-83875000D01*
X82670000Y-83875000D02*
X82670000Y-65975000D01*
X79020000Y-65975000D02*
X77370000Y-65975000D01*
X79020000Y-65975000D02*
G75*
G03*
X81020000Y-65975000I1000000J0D01*
G01*
%TO.C,U13*%
X63400000Y-65975000D02*
X63400000Y-83875000D01*
X68700000Y-65975000D02*
X67050000Y-65975000D01*
X63400000Y-83875000D02*
X68700000Y-83875000D01*
X68700000Y-83875000D02*
X68700000Y-65975000D01*
X65050000Y-65975000D02*
X63400000Y-65975000D01*
X65050000Y-65975000D02*
G75*
G03*
X67050000Y-65975000I1000000J0D01*
G01*
%TO.C,U12*%
X63400000Y-87565000D02*
X63400000Y-105465000D01*
X68700000Y-87565000D02*
X67050000Y-87565000D01*
X63400000Y-105465000D02*
X68700000Y-105465000D01*
X68700000Y-105465000D02*
X68700000Y-87565000D01*
X65050000Y-87565000D02*
X63400000Y-87565000D01*
X65050000Y-87565000D02*
G75*
G03*
X67050000Y-87565000I1000000J0D01*
G01*
%TO.C,U11*%
X91340000Y-109155000D02*
X91340000Y-127055000D01*
X96640000Y-109155000D02*
X94990000Y-109155000D01*
X91340000Y-127055000D02*
X96640000Y-127055000D01*
X96640000Y-127055000D02*
X96640000Y-109155000D01*
X92990000Y-109155000D02*
X91340000Y-109155000D01*
X92990000Y-109155000D02*
G75*
G03*
X94990000Y-109155000I1000000J0D01*
G01*
%TO.C,U10*%
X77370000Y-109155000D02*
X77370000Y-127055000D01*
X82670000Y-109155000D02*
X81020000Y-109155000D01*
X77370000Y-127055000D02*
X82670000Y-127055000D01*
X82670000Y-127055000D02*
X82670000Y-109155000D01*
X79020000Y-109155000D02*
X77370000Y-109155000D01*
X79020000Y-109155000D02*
G75*
G03*
X81020000Y-109155000I1000000J0D01*
G01*
%TO.C,U9*%
X63400000Y-109155000D02*
X63400000Y-127055000D01*
X68700000Y-109155000D02*
X67050000Y-109155000D01*
X63400000Y-127055000D02*
X68700000Y-127055000D01*
X68700000Y-127055000D02*
X68700000Y-109155000D01*
X65050000Y-109155000D02*
X63400000Y-109155000D01*
X65050000Y-109155000D02*
G75*
G03*
X67050000Y-109155000I1000000J0D01*
G01*
%TO.C,U8*%
X91340000Y-87565000D02*
X91340000Y-105465000D01*
X96640000Y-87565000D02*
X94990000Y-87565000D01*
X91340000Y-105465000D02*
X96640000Y-105465000D01*
X96640000Y-105465000D02*
X96640000Y-87565000D01*
X92990000Y-87565000D02*
X91340000Y-87565000D01*
X92990000Y-87565000D02*
G75*
G03*
X94990000Y-87565000I1000000J0D01*
G01*
%TO.C,U7*%
X105300000Y-45655000D02*
X105300000Y-63555000D01*
X110600000Y-45655000D02*
X108950000Y-45655000D01*
X105300000Y-63555000D02*
X110600000Y-63555000D01*
X110600000Y-63555000D02*
X110600000Y-45655000D01*
X106950000Y-45655000D02*
X105300000Y-45655000D01*
X106950000Y-45655000D02*
G75*
G03*
X108950000Y-45655000I1000000J0D01*
G01*
%TO.C,U6*%
X77370000Y-45655000D02*
X77370000Y-63555000D01*
X82670000Y-45655000D02*
X81020000Y-45655000D01*
X77370000Y-63555000D02*
X82670000Y-63555000D01*
X82670000Y-63555000D02*
X82670000Y-45655000D01*
X79020000Y-45655000D02*
X77370000Y-45655000D01*
X79020000Y-45655000D02*
G75*
G03*
X81020000Y-45655000I1000000J0D01*
G01*
%TO.C,U1*%
X91340000Y-45655000D02*
X91340000Y-63555000D01*
X96640000Y-45655000D02*
X94990000Y-45655000D01*
X91340000Y-63555000D02*
X96640000Y-63555000D01*
X96640000Y-63555000D02*
X96640000Y-45655000D01*
X92990000Y-45655000D02*
X91340000Y-45655000D01*
X92990000Y-45655000D02*
G75*
G03*
X94990000Y-45655000I1000000J0D01*
G01*
%TO.C,U5*%
X63400000Y-45655000D02*
X63400000Y-63555000D01*
X68700000Y-45655000D02*
X67050000Y-45655000D01*
X63400000Y-63555000D02*
X68700000Y-63555000D01*
X68700000Y-63555000D02*
X68700000Y-45655000D01*
X65050000Y-45655000D02*
X63400000Y-45655000D01*
X65050000Y-45655000D02*
G75*
G03*
X67050000Y-45655000I1000000J0D01*
G01*
%TO.C,R1*%
X54890000Y-62240000D02*
X54890000Y-66080000D01*
X56730000Y-62240000D02*
X56730000Y-66080000D01*
%TO.C,D1*%
X57116000Y-69560000D02*
X56960000Y-69560000D01*
X54800000Y-69560000D02*
X54644000Y-69560000D01*
X56959837Y-72161130D02*
G75*
G03*
X56960000Y-70079039I-1079837J1041130D01*
G01*
X54644484Y-69560000D02*
G75*
G03*
X54801392Y-72792335I1235516J-1560000D01*
G01*
X54800000Y-70079039D02*
G75*
G03*
X54800163Y-72161130I1080000J-1040961D01*
G01*
X56958608Y-72792335D02*
G75*
G03*
X57115516Y-69560000I-1078608J1672335D01*
G01*
%TD*%
%LPC*%
D13*
%TO.C,U19*%
X76210000Y-88895000D03*
D14*
X76210000Y-91435000D03*
X76210000Y-93975000D03*
X76210000Y-96515000D03*
X76210000Y-99055000D03*
X76210000Y-101595000D03*
X76210000Y-104135000D03*
X83830000Y-104135000D03*
X83830000Y-101595000D03*
X83830000Y-99055000D03*
X83830000Y-96515000D03*
X83830000Y-93975000D03*
X83830000Y-91435000D03*
X83830000Y-88895000D03*
%TD*%
D13*
%TO.C,U18*%
X104150000Y-110485000D03*
D14*
X104150000Y-113025000D03*
X104150000Y-115565000D03*
X104150000Y-118105000D03*
X104150000Y-120645000D03*
X104150000Y-123185000D03*
X104150000Y-125725000D03*
X111770000Y-125725000D03*
X111770000Y-123185000D03*
X111770000Y-120645000D03*
X111770000Y-118105000D03*
X111770000Y-115565000D03*
X111770000Y-113025000D03*
X111770000Y-110485000D03*
%TD*%
D13*
%TO.C,U17*%
X90180000Y-67305000D03*
D14*
X90180000Y-69845000D03*
X90180000Y-72385000D03*
X90180000Y-74925000D03*
X90180000Y-77465000D03*
X90180000Y-80005000D03*
X90180000Y-82545000D03*
X97800000Y-82545000D03*
X97800000Y-80005000D03*
X97800000Y-77465000D03*
X97800000Y-74925000D03*
X97800000Y-72385000D03*
X97800000Y-69845000D03*
X97800000Y-67305000D03*
%TD*%
D13*
%TO.C,U16*%
X104150000Y-88895000D03*
D14*
X104150000Y-91435000D03*
X104150000Y-93975000D03*
X104150000Y-96515000D03*
X104150000Y-99055000D03*
X104150000Y-101595000D03*
X104150000Y-104135000D03*
X111770000Y-104135000D03*
X111770000Y-101595000D03*
X111770000Y-99055000D03*
X111770000Y-96515000D03*
X111770000Y-93975000D03*
X111770000Y-91435000D03*
X111770000Y-88895000D03*
%TD*%
D13*
%TO.C,U15*%
X104150000Y-67305000D03*
D14*
X104150000Y-69845000D03*
X104150000Y-72385000D03*
X104150000Y-74925000D03*
X104150000Y-77465000D03*
X104150000Y-80005000D03*
X104150000Y-82545000D03*
X111770000Y-82545000D03*
X111770000Y-80005000D03*
X111770000Y-77465000D03*
X111770000Y-74925000D03*
X111770000Y-72385000D03*
X111770000Y-69845000D03*
X111770000Y-67305000D03*
%TD*%
D13*
%TO.C,U14*%
X76210000Y-67305000D03*
D14*
X76210000Y-69845000D03*
X76210000Y-72385000D03*
X76210000Y-74925000D03*
X76210000Y-77465000D03*
X76210000Y-80005000D03*
X76210000Y-82545000D03*
X83830000Y-82545000D03*
X83830000Y-80005000D03*
X83830000Y-77465000D03*
X83830000Y-74925000D03*
X83830000Y-72385000D03*
X83830000Y-69845000D03*
X83830000Y-67305000D03*
%TD*%
D13*
%TO.C,U13*%
X62240000Y-67305000D03*
D14*
X62240000Y-69845000D03*
X62240000Y-72385000D03*
X62240000Y-74925000D03*
X62240000Y-77465000D03*
X62240000Y-80005000D03*
X62240000Y-82545000D03*
X69860000Y-82545000D03*
X69860000Y-80005000D03*
X69860000Y-77465000D03*
X69860000Y-74925000D03*
X69860000Y-72385000D03*
X69860000Y-69845000D03*
X69860000Y-67305000D03*
%TD*%
D13*
%TO.C,U12*%
X62240000Y-88895000D03*
D14*
X62240000Y-91435000D03*
X62240000Y-93975000D03*
X62240000Y-96515000D03*
X62240000Y-99055000D03*
X62240000Y-101595000D03*
X62240000Y-104135000D03*
X69860000Y-104135000D03*
X69860000Y-101595000D03*
X69860000Y-99055000D03*
X69860000Y-96515000D03*
X69860000Y-93975000D03*
X69860000Y-91435000D03*
X69860000Y-88895000D03*
%TD*%
D13*
%TO.C,U11*%
X90180000Y-110485000D03*
D14*
X90180000Y-113025000D03*
X90180000Y-115565000D03*
X90180000Y-118105000D03*
X90180000Y-120645000D03*
X90180000Y-123185000D03*
X90180000Y-125725000D03*
X97800000Y-125725000D03*
X97800000Y-123185000D03*
X97800000Y-120645000D03*
X97800000Y-118105000D03*
X97800000Y-115565000D03*
X97800000Y-113025000D03*
X97800000Y-110485000D03*
%TD*%
D13*
%TO.C,U10*%
X76210000Y-110485000D03*
D14*
X76210000Y-113025000D03*
X76210000Y-115565000D03*
X76210000Y-118105000D03*
X76210000Y-120645000D03*
X76210000Y-123185000D03*
X76210000Y-125725000D03*
X83830000Y-125725000D03*
X83830000Y-123185000D03*
X83830000Y-120645000D03*
X83830000Y-118105000D03*
X83830000Y-115565000D03*
X83830000Y-113025000D03*
X83830000Y-110485000D03*
%TD*%
D13*
%TO.C,U9*%
X62240000Y-110485000D03*
D14*
X62240000Y-113025000D03*
X62240000Y-115565000D03*
X62240000Y-118105000D03*
X62240000Y-120645000D03*
X62240000Y-123185000D03*
X62240000Y-125725000D03*
X69860000Y-125725000D03*
X69860000Y-123185000D03*
X69860000Y-120645000D03*
X69860000Y-118105000D03*
X69860000Y-115565000D03*
X69860000Y-113025000D03*
X69860000Y-110485000D03*
%TD*%
D13*
%TO.C,U8*%
X90180000Y-88895000D03*
D14*
X90180000Y-91435000D03*
X90180000Y-93975000D03*
X90180000Y-96515000D03*
X90180000Y-99055000D03*
X90180000Y-101595000D03*
X90180000Y-104135000D03*
X97800000Y-104135000D03*
X97800000Y-101595000D03*
X97800000Y-99055000D03*
X97800000Y-96515000D03*
X97800000Y-93975000D03*
X97800000Y-91435000D03*
X97800000Y-88895000D03*
%TD*%
D13*
%TO.C,U7*%
X104140000Y-46985000D03*
D14*
X104140000Y-49525000D03*
X104140000Y-52065000D03*
X104140000Y-54605000D03*
X104140000Y-57145000D03*
X104140000Y-59685000D03*
X104140000Y-62225000D03*
X111760000Y-62225000D03*
X111760000Y-59685000D03*
X111760000Y-57145000D03*
X111760000Y-54605000D03*
X111760000Y-52065000D03*
X111760000Y-49525000D03*
X111760000Y-46985000D03*
%TD*%
D13*
%TO.C,U6*%
X76210000Y-46985000D03*
D14*
X76210000Y-49525000D03*
X76210000Y-52065000D03*
X76210000Y-54605000D03*
X76210000Y-57145000D03*
X76210000Y-59685000D03*
X76210000Y-62225000D03*
X83830000Y-62225000D03*
X83830000Y-59685000D03*
X83830000Y-57145000D03*
X83830000Y-54605000D03*
X83830000Y-52065000D03*
X83830000Y-49525000D03*
X83830000Y-46985000D03*
%TD*%
D13*
%TO.C,U1*%
X90180000Y-46985000D03*
D14*
X90180000Y-49525000D03*
X90180000Y-52065000D03*
X90180000Y-54605000D03*
X90180000Y-57145000D03*
X90180000Y-59685000D03*
X90180000Y-62225000D03*
X97800000Y-62225000D03*
X97800000Y-59685000D03*
X97800000Y-57145000D03*
X97800000Y-54605000D03*
X97800000Y-52065000D03*
X97800000Y-49525000D03*
X97800000Y-46985000D03*
%TD*%
D13*
%TO.C,U5*%
X62240000Y-46985000D03*
D14*
X62240000Y-49525000D03*
X62240000Y-52065000D03*
X62240000Y-54605000D03*
X62240000Y-57145000D03*
X62240000Y-59685000D03*
X62240000Y-62225000D03*
X69860000Y-62225000D03*
X69860000Y-59685000D03*
X69860000Y-57145000D03*
X69860000Y-54605000D03*
X69860000Y-52065000D03*
X69860000Y-49525000D03*
X69860000Y-46985000D03*
%TD*%
D15*
%TO.C,R1*%
X55810000Y-61620000D03*
D16*
X55810000Y-66700000D03*
%TD*%
D17*
%TO.C,D1*%
X55880000Y-69850000D03*
D18*
X55880000Y-72390000D03*
%TD*%
D19*
%TO.C,J1*%
X53340000Y-80010000D03*
D20*
X53340000Y-82550000D03*
X53340000Y-85090000D03*
X53340000Y-87630000D03*
X53340000Y-90170000D03*
X53340000Y-92710000D03*
%TD*%
%TO.C,J2*%
X119380000Y-92705000D03*
X119380000Y-90165000D03*
X119380000Y-87625000D03*
X119380000Y-85085000D03*
X119380000Y-82545000D03*
X119380000Y-80005000D03*
D19*
X119380000Y-77465000D03*
%TD*%
M02*
