%TF.GenerationSoftware,KiCad,Pcbnew,(6.0.9)*%
%TF.CreationDate,2025-05-26T15:33:48-04:00*%
%TF.ProjectId,Seven Segment Display,53657665-6e20-4536-9567-6d656e742044,1*%
%TF.SameCoordinates,Original*%
%TF.FileFunction,Drillmap*%
%TF.FilePolarity,Positive*%
%FSLAX45Y45*%
G04 Gerber Fmt 4.5, Leading zero omitted, Abs format (unit mm)*
G04 Created by KiCad (PCBNEW (6.0.9)) date 2025-05-26 15:33:48*
%MOMM*%
%LPD*%
G01*
G04 APERTURE LIST*
%ADD10C,0.100000*%
%ADD11C,0.200000*%
%ADD12C,0.040000*%
%ADD13C,0.070000*%
%ADD14C,0.080000*%
%ADD15C,0.090000*%
G04 APERTURE END LIST*
D10*
X5461000Y-4318000D02*
G75*
G03*
X4826000Y-4953000I0J-635000D01*
G01*
X4826000Y-12700000D02*
G75*
G03*
X5461000Y-13335000I635000J0D01*
G01*
X11684000Y-13335000D02*
G75*
G03*
X12319000Y-12700000I0J635000D01*
G01*
X12319000Y-4953000D02*
X12319000Y-12700000D01*
X12319000Y-4953000D02*
G75*
G03*
X11684000Y-4318000I-635000J0D01*
G01*
X5461000Y-4318000D02*
X11684000Y-4318000D01*
X4826000Y-12700000D02*
X4826000Y-4953000D01*
X11684000Y-13335000D02*
X5461000Y-13335000D01*
D11*
D12*
X5949000Y-8616000D02*
X5989000Y-8656000D01*
X5989000Y-8616000D02*
X5949000Y-8656000D01*
X6457000Y-10648000D02*
X6497000Y-10688000D01*
X6497000Y-10648000D02*
X6457000Y-10688000D01*
X6711000Y-10140000D02*
X6751000Y-10180000D01*
X6751000Y-10140000D02*
X6711000Y-10180000D01*
X6711000Y-12553000D02*
X6751000Y-12593000D01*
X6751000Y-12553000D02*
X6711000Y-12593000D01*
X7146550Y-10902000D02*
X7186550Y-10942000D01*
X7186550Y-10902000D02*
X7146550Y-10942000D01*
X7219000Y-6203000D02*
X7259000Y-6243000D01*
X7259000Y-6203000D02*
X7219000Y-6243000D01*
X7346000Y-8616000D02*
X7386000Y-8656000D01*
X7386000Y-8616000D02*
X7346000Y-8656000D01*
X7518699Y-7359307D02*
X7558699Y-7399307D01*
X7558699Y-7359307D02*
X7518699Y-7399307D01*
X7854000Y-8489000D02*
X7894000Y-8529000D01*
X7894000Y-8489000D02*
X7854000Y-8529000D01*
X7981000Y-6838000D02*
X8021000Y-6878000D01*
X8021000Y-6838000D02*
X7981000Y-6878000D01*
X7981000Y-7473000D02*
X8021000Y-7513000D01*
X8021000Y-7473000D02*
X7981000Y-7513000D01*
X7981000Y-13061000D02*
X8021000Y-13101000D01*
X8021000Y-13061000D02*
X7981000Y-13101000D01*
X8108000Y-4933000D02*
X8148000Y-4973000D01*
X8148000Y-4933000D02*
X8108000Y-4973000D01*
X8108000Y-12426000D02*
X8148000Y-12466000D01*
X8148000Y-12426000D02*
X8108000Y-12466000D01*
X8108000Y-12807000D02*
X8148000Y-12847000D01*
X8148000Y-12807000D02*
X8108000Y-12847000D01*
X8489000Y-8616000D02*
X8529000Y-8656000D01*
X8529000Y-8616000D02*
X8489000Y-8656000D01*
X8616000Y-11791000D02*
X8656000Y-11831000D01*
X8656000Y-11791000D02*
X8616000Y-11831000D01*
X8743000Y-9124000D02*
X8783000Y-9164000D01*
X8783000Y-9124000D02*
X8743000Y-9164000D01*
X8788000Y-11746000D02*
X8828000Y-11786000D01*
X8828000Y-11746000D02*
X8788000Y-11786000D01*
X8860450Y-10875734D02*
X8900450Y-10915734D01*
X8900450Y-10875734D02*
X8860450Y-10915734D01*
X9124000Y-10775000D02*
X9164000Y-10815000D01*
X9164000Y-10775000D02*
X9124000Y-10815000D01*
X9251000Y-7473000D02*
X9291000Y-7513000D01*
X9291000Y-7473000D02*
X9251000Y-7513000D01*
X9251000Y-8516450D02*
X9291000Y-8556450D01*
X9291000Y-8516450D02*
X9251000Y-8556450D01*
X9378000Y-5187000D02*
X9418000Y-5227000D01*
X9418000Y-5187000D02*
X9378000Y-5227000D01*
X9378000Y-7092000D02*
X9418000Y-7132000D01*
X9418000Y-7092000D02*
X9378000Y-7132000D01*
X9378000Y-7600000D02*
X9418000Y-7640000D01*
X9418000Y-7600000D02*
X9378000Y-7640000D01*
X9505000Y-11664000D02*
X9545000Y-11704000D01*
X9545000Y-11664000D02*
X9505000Y-11704000D01*
X9505000Y-13061000D02*
X9545000Y-13101000D01*
X9545000Y-13061000D02*
X9505000Y-13101000D01*
X9632000Y-8362000D02*
X9672000Y-8402000D01*
X9672000Y-8362000D02*
X9632000Y-8402000D01*
X9886000Y-8616000D02*
X9926000Y-8656000D01*
X9926000Y-8616000D02*
X9886000Y-8656000D01*
X9886000Y-10013000D02*
X9926000Y-10053000D01*
X9926000Y-10013000D02*
X9886000Y-10053000D01*
X10013000Y-5568000D02*
X10053000Y-5608000D01*
X10053000Y-5568000D02*
X10013000Y-5608000D01*
X10013000Y-12553000D02*
X10053000Y-12593000D01*
X10053000Y-12553000D02*
X10013000Y-12593000D01*
X10140000Y-11029000D02*
X10180000Y-11069000D01*
X10180000Y-11029000D02*
X10140000Y-11069000D01*
X10267000Y-8616000D02*
X10307000Y-8656000D01*
X10307000Y-8616000D02*
X10267000Y-8656000D01*
X10394000Y-6457000D02*
X10434000Y-6497000D01*
X10434000Y-6457000D02*
X10394000Y-6497000D01*
X10521000Y-8616000D02*
X10561000Y-8656000D01*
X10561000Y-8616000D02*
X10521000Y-8656000D01*
X10648000Y-7219000D02*
X10688000Y-7259000D01*
X10688000Y-7219000D02*
X10648000Y-7259000D01*
X10648000Y-9632000D02*
X10688000Y-9672000D01*
X10688000Y-9632000D02*
X10648000Y-9672000D01*
X10775000Y-5187000D02*
X10815000Y-5227000D01*
X10815000Y-5187000D02*
X10775000Y-5227000D01*
X10775000Y-8870000D02*
X10815000Y-8910000D01*
X10815000Y-8870000D02*
X10775000Y-8910000D01*
X10775000Y-9251000D02*
X10815000Y-9291000D01*
X10815000Y-9251000D02*
X10775000Y-9291000D01*
X10775000Y-10013000D02*
X10815000Y-10053000D01*
X10815000Y-10013000D02*
X10775000Y-10053000D01*
X10775000Y-12426000D02*
X10815000Y-12466000D01*
X10815000Y-12426000D02*
X10775000Y-12466000D01*
X10902000Y-9505000D02*
X10942000Y-9545000D01*
X10942000Y-9505000D02*
X10902000Y-9545000D01*
X11410000Y-7727000D02*
X11450000Y-7767000D01*
X11450000Y-7727000D02*
X11410000Y-7767000D01*
X11410000Y-11791000D02*
X11450000Y-11831000D01*
X11450000Y-11791000D02*
X11410000Y-11831000D01*
X11537000Y-8362000D02*
X11577000Y-8402000D01*
X11577000Y-8362000D02*
X11537000Y-8402000D01*
X11537000Y-10648000D02*
X11577000Y-10688000D01*
X11577000Y-10648000D02*
X11537000Y-10688000D01*
X11664000Y-6711000D02*
X11704000Y-6751000D01*
X11704000Y-6711000D02*
X11664000Y-6751000D01*
X11664000Y-7600000D02*
X11704000Y-7640000D01*
X11704000Y-7600000D02*
X11664000Y-7640000D01*
D13*
X5616000Y-6162000D02*
G75*
G03*
X5616000Y-6162000I-35000J0D01*
G01*
X5616000Y-6670000D02*
G75*
G03*
X5616000Y-6670000I-35000J0D01*
G01*
D14*
X6224000Y-4658500D02*
X6224000Y-4738500D01*
X6184000Y-4698500D02*
X6264000Y-4698500D01*
X6224000Y-4912500D02*
X6224000Y-4992500D01*
X6184000Y-4952500D02*
X6264000Y-4952500D01*
X6224000Y-5166500D02*
X6224000Y-5246500D01*
X6184000Y-5206500D02*
X6264000Y-5206500D01*
X6224000Y-5420500D02*
X6224000Y-5500500D01*
X6184000Y-5460500D02*
X6264000Y-5460500D01*
X6224000Y-5674500D02*
X6224000Y-5754500D01*
X6184000Y-5714500D02*
X6264000Y-5714500D01*
X6224000Y-5928500D02*
X6224000Y-6008500D01*
X6184000Y-5968500D02*
X6264000Y-5968500D01*
X6224000Y-6182500D02*
X6224000Y-6262500D01*
X6184000Y-6222500D02*
X6264000Y-6222500D01*
X6224000Y-6690500D02*
X6224000Y-6770500D01*
X6184000Y-6730500D02*
X6264000Y-6730500D01*
X6224000Y-6944500D02*
X6224000Y-7024500D01*
X6184000Y-6984500D02*
X6264000Y-6984500D01*
X6224000Y-7198500D02*
X6224000Y-7278500D01*
X6184000Y-7238500D02*
X6264000Y-7238500D01*
X6224000Y-7452500D02*
X6224000Y-7532500D01*
X6184000Y-7492500D02*
X6264000Y-7492500D01*
X6224000Y-7706500D02*
X6224000Y-7786500D01*
X6184000Y-7746500D02*
X6264000Y-7746500D01*
X6224000Y-7960500D02*
X6224000Y-8040500D01*
X6184000Y-8000500D02*
X6264000Y-8000500D01*
X6224000Y-8214500D02*
X6224000Y-8294500D01*
X6184000Y-8254500D02*
X6264000Y-8254500D01*
X6224000Y-8849500D02*
X6224000Y-8929500D01*
X6184000Y-8889500D02*
X6264000Y-8889500D01*
X6224000Y-9103500D02*
X6224000Y-9183500D01*
X6184000Y-9143500D02*
X6264000Y-9143500D01*
X6224000Y-9357500D02*
X6224000Y-9437500D01*
X6184000Y-9397500D02*
X6264000Y-9397500D01*
X6224000Y-9611500D02*
X6224000Y-9691500D01*
X6184000Y-9651500D02*
X6264000Y-9651500D01*
X6224000Y-9865500D02*
X6224000Y-9945500D01*
X6184000Y-9905500D02*
X6264000Y-9905500D01*
X6224000Y-10119500D02*
X6224000Y-10199500D01*
X6184000Y-10159500D02*
X6264000Y-10159500D01*
X6224000Y-10373500D02*
X6224000Y-10453500D01*
X6184000Y-10413500D02*
X6264000Y-10413500D01*
X6224000Y-11008500D02*
X6224000Y-11088500D01*
X6184000Y-11048500D02*
X6264000Y-11048500D01*
X6224000Y-11262500D02*
X6224000Y-11342500D01*
X6184000Y-11302500D02*
X6264000Y-11302500D01*
X6224000Y-11516500D02*
X6224000Y-11596500D01*
X6184000Y-11556500D02*
X6264000Y-11556500D01*
X6224000Y-11770500D02*
X6224000Y-11850500D01*
X6184000Y-11810500D02*
X6264000Y-11810500D01*
X6224000Y-12024500D02*
X6224000Y-12104500D01*
X6184000Y-12064500D02*
X6264000Y-12064500D01*
X6224000Y-12278500D02*
X6224000Y-12358500D01*
X6184000Y-12318500D02*
X6264000Y-12318500D01*
X6224000Y-12532500D02*
X6224000Y-12612500D01*
X6184000Y-12572500D02*
X6264000Y-12572500D01*
X6986000Y-4658500D02*
X6986000Y-4738500D01*
X6946000Y-4698500D02*
X7026000Y-4698500D01*
X6986000Y-4912500D02*
X6986000Y-4992500D01*
X6946000Y-4952500D02*
X7026000Y-4952500D01*
X6986000Y-5166500D02*
X6986000Y-5246500D01*
X6946000Y-5206500D02*
X7026000Y-5206500D01*
X6986000Y-5420500D02*
X6986000Y-5500500D01*
X6946000Y-5460500D02*
X7026000Y-5460500D01*
X6986000Y-5674500D02*
X6986000Y-5754500D01*
X6946000Y-5714500D02*
X7026000Y-5714500D01*
X6986000Y-5928500D02*
X6986000Y-6008500D01*
X6946000Y-5968500D02*
X7026000Y-5968500D01*
X6986000Y-6182500D02*
X6986000Y-6262500D01*
X6946000Y-6222500D02*
X7026000Y-6222500D01*
X6986000Y-6690500D02*
X6986000Y-6770500D01*
X6946000Y-6730500D02*
X7026000Y-6730500D01*
X6986000Y-6944500D02*
X6986000Y-7024500D01*
X6946000Y-6984500D02*
X7026000Y-6984500D01*
X6986000Y-7198500D02*
X6986000Y-7278500D01*
X6946000Y-7238500D02*
X7026000Y-7238500D01*
X6986000Y-7452500D02*
X6986000Y-7532500D01*
X6946000Y-7492500D02*
X7026000Y-7492500D01*
X6986000Y-7706500D02*
X6986000Y-7786500D01*
X6946000Y-7746500D02*
X7026000Y-7746500D01*
X6986000Y-7960500D02*
X6986000Y-8040500D01*
X6946000Y-8000500D02*
X7026000Y-8000500D01*
X6986000Y-8214500D02*
X6986000Y-8294500D01*
X6946000Y-8254500D02*
X7026000Y-8254500D01*
X6986000Y-8849500D02*
X6986000Y-8929500D01*
X6946000Y-8889500D02*
X7026000Y-8889500D01*
X6986000Y-9103500D02*
X6986000Y-9183500D01*
X6946000Y-9143500D02*
X7026000Y-9143500D01*
X6986000Y-9357500D02*
X6986000Y-9437500D01*
X6946000Y-9397500D02*
X7026000Y-9397500D01*
X6986000Y-9611500D02*
X6986000Y-9691500D01*
X6946000Y-9651500D02*
X7026000Y-9651500D01*
X6986000Y-9865500D02*
X6986000Y-9945500D01*
X6946000Y-9905500D02*
X7026000Y-9905500D01*
X6986000Y-10119500D02*
X6986000Y-10199500D01*
X6946000Y-10159500D02*
X7026000Y-10159500D01*
X6986000Y-10373500D02*
X6986000Y-10453500D01*
X6946000Y-10413500D02*
X7026000Y-10413500D01*
X6986000Y-11008500D02*
X6986000Y-11088500D01*
X6946000Y-11048500D02*
X7026000Y-11048500D01*
X6986000Y-11262500D02*
X6986000Y-11342500D01*
X6946000Y-11302500D02*
X7026000Y-11302500D01*
X6986000Y-11516500D02*
X6986000Y-11596500D01*
X6946000Y-11556500D02*
X7026000Y-11556500D01*
X6986000Y-11770500D02*
X6986000Y-11850500D01*
X6946000Y-11810500D02*
X7026000Y-11810500D01*
X6986000Y-12024500D02*
X6986000Y-12104500D01*
X6946000Y-12064500D02*
X7026000Y-12064500D01*
X6986000Y-12278500D02*
X6986000Y-12358500D01*
X6946000Y-12318500D02*
X7026000Y-12318500D01*
X6986000Y-12532500D02*
X6986000Y-12612500D01*
X6946000Y-12572500D02*
X7026000Y-12572500D01*
X7621000Y-4658500D02*
X7621000Y-4738500D01*
X7581000Y-4698500D02*
X7661000Y-4698500D01*
X7621000Y-4912500D02*
X7621000Y-4992500D01*
X7581000Y-4952500D02*
X7661000Y-4952500D01*
X7621000Y-5166500D02*
X7621000Y-5246500D01*
X7581000Y-5206500D02*
X7661000Y-5206500D01*
X7621000Y-5420500D02*
X7621000Y-5500500D01*
X7581000Y-5460500D02*
X7661000Y-5460500D01*
X7621000Y-5674500D02*
X7621000Y-5754500D01*
X7581000Y-5714500D02*
X7661000Y-5714500D01*
X7621000Y-5928500D02*
X7621000Y-6008500D01*
X7581000Y-5968500D02*
X7661000Y-5968500D01*
X7621000Y-6182500D02*
X7621000Y-6262500D01*
X7581000Y-6222500D02*
X7661000Y-6222500D01*
X7621000Y-6690500D02*
X7621000Y-6770500D01*
X7581000Y-6730500D02*
X7661000Y-6730500D01*
X7621000Y-6944500D02*
X7621000Y-7024500D01*
X7581000Y-6984500D02*
X7661000Y-6984500D01*
X7621000Y-7198500D02*
X7621000Y-7278500D01*
X7581000Y-7238500D02*
X7661000Y-7238500D01*
X7621000Y-7452500D02*
X7621000Y-7532500D01*
X7581000Y-7492500D02*
X7661000Y-7492500D01*
X7621000Y-7706500D02*
X7621000Y-7786500D01*
X7581000Y-7746500D02*
X7661000Y-7746500D01*
X7621000Y-7960500D02*
X7621000Y-8040500D01*
X7581000Y-8000500D02*
X7661000Y-8000500D01*
X7621000Y-8214500D02*
X7621000Y-8294500D01*
X7581000Y-8254500D02*
X7661000Y-8254500D01*
X7621000Y-8849500D02*
X7621000Y-8929500D01*
X7581000Y-8889500D02*
X7661000Y-8889500D01*
X7621000Y-9103500D02*
X7621000Y-9183500D01*
X7581000Y-9143500D02*
X7661000Y-9143500D01*
X7621000Y-9357500D02*
X7621000Y-9437500D01*
X7581000Y-9397500D02*
X7661000Y-9397500D01*
X7621000Y-9611500D02*
X7621000Y-9691500D01*
X7581000Y-9651500D02*
X7661000Y-9651500D01*
X7621000Y-9865500D02*
X7621000Y-9945500D01*
X7581000Y-9905500D02*
X7661000Y-9905500D01*
X7621000Y-10119500D02*
X7621000Y-10199500D01*
X7581000Y-10159500D02*
X7661000Y-10159500D01*
X7621000Y-10373500D02*
X7621000Y-10453500D01*
X7581000Y-10413500D02*
X7661000Y-10413500D01*
X7621000Y-11008500D02*
X7621000Y-11088500D01*
X7581000Y-11048500D02*
X7661000Y-11048500D01*
X7621000Y-11262500D02*
X7621000Y-11342500D01*
X7581000Y-11302500D02*
X7661000Y-11302500D01*
X7621000Y-11516500D02*
X7621000Y-11596500D01*
X7581000Y-11556500D02*
X7661000Y-11556500D01*
X7621000Y-11770500D02*
X7621000Y-11850500D01*
X7581000Y-11810500D02*
X7661000Y-11810500D01*
X7621000Y-12024500D02*
X7621000Y-12104500D01*
X7581000Y-12064500D02*
X7661000Y-12064500D01*
X7621000Y-12278500D02*
X7621000Y-12358500D01*
X7581000Y-12318500D02*
X7661000Y-12318500D01*
X7621000Y-12532500D02*
X7621000Y-12612500D01*
X7581000Y-12572500D02*
X7661000Y-12572500D01*
X8383000Y-4658500D02*
X8383000Y-4738500D01*
X8343000Y-4698500D02*
X8423000Y-4698500D01*
X8383000Y-4912500D02*
X8383000Y-4992500D01*
X8343000Y-4952500D02*
X8423000Y-4952500D01*
X8383000Y-5166500D02*
X8383000Y-5246500D01*
X8343000Y-5206500D02*
X8423000Y-5206500D01*
X8383000Y-5420500D02*
X8383000Y-5500500D01*
X8343000Y-5460500D02*
X8423000Y-5460500D01*
X8383000Y-5674500D02*
X8383000Y-5754500D01*
X8343000Y-5714500D02*
X8423000Y-5714500D01*
X8383000Y-5928500D02*
X8383000Y-6008500D01*
X8343000Y-5968500D02*
X8423000Y-5968500D01*
X8383000Y-6182500D02*
X8383000Y-6262500D01*
X8343000Y-6222500D02*
X8423000Y-6222500D01*
X8383000Y-6690500D02*
X8383000Y-6770500D01*
X8343000Y-6730500D02*
X8423000Y-6730500D01*
X8383000Y-6944500D02*
X8383000Y-7024500D01*
X8343000Y-6984500D02*
X8423000Y-6984500D01*
X8383000Y-7198500D02*
X8383000Y-7278500D01*
X8343000Y-7238500D02*
X8423000Y-7238500D01*
X8383000Y-7452500D02*
X8383000Y-7532500D01*
X8343000Y-7492500D02*
X8423000Y-7492500D01*
X8383000Y-7706500D02*
X8383000Y-7786500D01*
X8343000Y-7746500D02*
X8423000Y-7746500D01*
X8383000Y-7960500D02*
X8383000Y-8040500D01*
X8343000Y-8000500D02*
X8423000Y-8000500D01*
X8383000Y-8214500D02*
X8383000Y-8294500D01*
X8343000Y-8254500D02*
X8423000Y-8254500D01*
X8383000Y-8849500D02*
X8383000Y-8929500D01*
X8343000Y-8889500D02*
X8423000Y-8889500D01*
X8383000Y-9103500D02*
X8383000Y-9183500D01*
X8343000Y-9143500D02*
X8423000Y-9143500D01*
X8383000Y-9357500D02*
X8383000Y-9437500D01*
X8343000Y-9397500D02*
X8423000Y-9397500D01*
X8383000Y-9611500D02*
X8383000Y-9691500D01*
X8343000Y-9651500D02*
X8423000Y-9651500D01*
X8383000Y-9865500D02*
X8383000Y-9945500D01*
X8343000Y-9905500D02*
X8423000Y-9905500D01*
X8383000Y-10119500D02*
X8383000Y-10199500D01*
X8343000Y-10159500D02*
X8423000Y-10159500D01*
X8383000Y-10373500D02*
X8383000Y-10453500D01*
X8343000Y-10413500D02*
X8423000Y-10413500D01*
X8383000Y-11008500D02*
X8383000Y-11088500D01*
X8343000Y-11048500D02*
X8423000Y-11048500D01*
X8383000Y-11262500D02*
X8383000Y-11342500D01*
X8343000Y-11302500D02*
X8423000Y-11302500D01*
X8383000Y-11516500D02*
X8383000Y-11596500D01*
X8343000Y-11556500D02*
X8423000Y-11556500D01*
X8383000Y-11770500D02*
X8383000Y-11850500D01*
X8343000Y-11810500D02*
X8423000Y-11810500D01*
X8383000Y-12024500D02*
X8383000Y-12104500D01*
X8343000Y-12064500D02*
X8423000Y-12064500D01*
X8383000Y-12278500D02*
X8383000Y-12358500D01*
X8343000Y-12318500D02*
X8423000Y-12318500D01*
X8383000Y-12532500D02*
X8383000Y-12612500D01*
X8343000Y-12572500D02*
X8423000Y-12572500D01*
X9018000Y-4658500D02*
X9018000Y-4738500D01*
X8978000Y-4698500D02*
X9058000Y-4698500D01*
X9018000Y-4912500D02*
X9018000Y-4992500D01*
X8978000Y-4952500D02*
X9058000Y-4952500D01*
X9018000Y-5166500D02*
X9018000Y-5246500D01*
X8978000Y-5206500D02*
X9058000Y-5206500D01*
X9018000Y-5420500D02*
X9018000Y-5500500D01*
X8978000Y-5460500D02*
X9058000Y-5460500D01*
X9018000Y-5674500D02*
X9018000Y-5754500D01*
X8978000Y-5714500D02*
X9058000Y-5714500D01*
X9018000Y-5928500D02*
X9018000Y-6008500D01*
X8978000Y-5968500D02*
X9058000Y-5968500D01*
X9018000Y-6182500D02*
X9018000Y-6262500D01*
X8978000Y-6222500D02*
X9058000Y-6222500D01*
X9018000Y-6690500D02*
X9018000Y-6770500D01*
X8978000Y-6730500D02*
X9058000Y-6730500D01*
X9018000Y-6944500D02*
X9018000Y-7024500D01*
X8978000Y-6984500D02*
X9058000Y-6984500D01*
X9018000Y-7198500D02*
X9018000Y-7278500D01*
X8978000Y-7238500D02*
X9058000Y-7238500D01*
X9018000Y-7452500D02*
X9018000Y-7532500D01*
X8978000Y-7492500D02*
X9058000Y-7492500D01*
X9018000Y-7706500D02*
X9018000Y-7786500D01*
X8978000Y-7746500D02*
X9058000Y-7746500D01*
X9018000Y-7960500D02*
X9018000Y-8040500D01*
X8978000Y-8000500D02*
X9058000Y-8000500D01*
X9018000Y-8214500D02*
X9018000Y-8294500D01*
X8978000Y-8254500D02*
X9058000Y-8254500D01*
X9018000Y-8849500D02*
X9018000Y-8929500D01*
X8978000Y-8889500D02*
X9058000Y-8889500D01*
X9018000Y-9103500D02*
X9018000Y-9183500D01*
X8978000Y-9143500D02*
X9058000Y-9143500D01*
X9018000Y-9357500D02*
X9018000Y-9437500D01*
X8978000Y-9397500D02*
X9058000Y-9397500D01*
X9018000Y-9611500D02*
X9018000Y-9691500D01*
X8978000Y-9651500D02*
X9058000Y-9651500D01*
X9018000Y-9865500D02*
X9018000Y-9945500D01*
X8978000Y-9905500D02*
X9058000Y-9905500D01*
X9018000Y-10119500D02*
X9018000Y-10199500D01*
X8978000Y-10159500D02*
X9058000Y-10159500D01*
X9018000Y-10373500D02*
X9018000Y-10453500D01*
X8978000Y-10413500D02*
X9058000Y-10413500D01*
X9018000Y-11008500D02*
X9018000Y-11088500D01*
X8978000Y-11048500D02*
X9058000Y-11048500D01*
X9018000Y-11262500D02*
X9018000Y-11342500D01*
X8978000Y-11302500D02*
X9058000Y-11302500D01*
X9018000Y-11516500D02*
X9018000Y-11596500D01*
X8978000Y-11556500D02*
X9058000Y-11556500D01*
X9018000Y-11770500D02*
X9018000Y-11850500D01*
X8978000Y-11810500D02*
X9058000Y-11810500D01*
X9018000Y-12024500D02*
X9018000Y-12104500D01*
X8978000Y-12064500D02*
X9058000Y-12064500D01*
X9018000Y-12278500D02*
X9018000Y-12358500D01*
X8978000Y-12318500D02*
X9058000Y-12318500D01*
X9018000Y-12532500D02*
X9018000Y-12612500D01*
X8978000Y-12572500D02*
X9058000Y-12572500D01*
X9780000Y-4658500D02*
X9780000Y-4738500D01*
X9740000Y-4698500D02*
X9820000Y-4698500D01*
X9780000Y-4912500D02*
X9780000Y-4992500D01*
X9740000Y-4952500D02*
X9820000Y-4952500D01*
X9780000Y-5166500D02*
X9780000Y-5246500D01*
X9740000Y-5206500D02*
X9820000Y-5206500D01*
X9780000Y-5420500D02*
X9780000Y-5500500D01*
X9740000Y-5460500D02*
X9820000Y-5460500D01*
X9780000Y-5674500D02*
X9780000Y-5754500D01*
X9740000Y-5714500D02*
X9820000Y-5714500D01*
X9780000Y-5928500D02*
X9780000Y-6008500D01*
X9740000Y-5968500D02*
X9820000Y-5968500D01*
X9780000Y-6182500D02*
X9780000Y-6262500D01*
X9740000Y-6222500D02*
X9820000Y-6222500D01*
X9780000Y-6690500D02*
X9780000Y-6770500D01*
X9740000Y-6730500D02*
X9820000Y-6730500D01*
X9780000Y-6944500D02*
X9780000Y-7024500D01*
X9740000Y-6984500D02*
X9820000Y-6984500D01*
X9780000Y-7198500D02*
X9780000Y-7278500D01*
X9740000Y-7238500D02*
X9820000Y-7238500D01*
X9780000Y-7452500D02*
X9780000Y-7532500D01*
X9740000Y-7492500D02*
X9820000Y-7492500D01*
X9780000Y-7706500D02*
X9780000Y-7786500D01*
X9740000Y-7746500D02*
X9820000Y-7746500D01*
X9780000Y-7960500D02*
X9780000Y-8040500D01*
X9740000Y-8000500D02*
X9820000Y-8000500D01*
X9780000Y-8214500D02*
X9780000Y-8294500D01*
X9740000Y-8254500D02*
X9820000Y-8254500D01*
X9780000Y-8849500D02*
X9780000Y-8929500D01*
X9740000Y-8889500D02*
X9820000Y-8889500D01*
X9780000Y-9103500D02*
X9780000Y-9183500D01*
X9740000Y-9143500D02*
X9820000Y-9143500D01*
X9780000Y-9357500D02*
X9780000Y-9437500D01*
X9740000Y-9397500D02*
X9820000Y-9397500D01*
X9780000Y-9611500D02*
X9780000Y-9691500D01*
X9740000Y-9651500D02*
X9820000Y-9651500D01*
X9780000Y-9865500D02*
X9780000Y-9945500D01*
X9740000Y-9905500D02*
X9820000Y-9905500D01*
X9780000Y-10119500D02*
X9780000Y-10199500D01*
X9740000Y-10159500D02*
X9820000Y-10159500D01*
X9780000Y-10373500D02*
X9780000Y-10453500D01*
X9740000Y-10413500D02*
X9820000Y-10413500D01*
X9780000Y-11008500D02*
X9780000Y-11088500D01*
X9740000Y-11048500D02*
X9820000Y-11048500D01*
X9780000Y-11262500D02*
X9780000Y-11342500D01*
X9740000Y-11302500D02*
X9820000Y-11302500D01*
X9780000Y-11516500D02*
X9780000Y-11596500D01*
X9740000Y-11556500D02*
X9820000Y-11556500D01*
X9780000Y-11770500D02*
X9780000Y-11850500D01*
X9740000Y-11810500D02*
X9820000Y-11810500D01*
X9780000Y-12024500D02*
X9780000Y-12104500D01*
X9740000Y-12064500D02*
X9820000Y-12064500D01*
X9780000Y-12278500D02*
X9780000Y-12358500D01*
X9740000Y-12318500D02*
X9820000Y-12318500D01*
X9780000Y-12532500D02*
X9780000Y-12612500D01*
X9740000Y-12572500D02*
X9820000Y-12572500D01*
X10414000Y-4658500D02*
X10414000Y-4738500D01*
X10374000Y-4698500D02*
X10454000Y-4698500D01*
X10414000Y-4912500D02*
X10414000Y-4992500D01*
X10374000Y-4952500D02*
X10454000Y-4952500D01*
X10414000Y-5166500D02*
X10414000Y-5246500D01*
X10374000Y-5206500D02*
X10454000Y-5206500D01*
X10414000Y-5420500D02*
X10414000Y-5500500D01*
X10374000Y-5460500D02*
X10454000Y-5460500D01*
X10414000Y-5674500D02*
X10414000Y-5754500D01*
X10374000Y-5714500D02*
X10454000Y-5714500D01*
X10414000Y-5928500D02*
X10414000Y-6008500D01*
X10374000Y-5968500D02*
X10454000Y-5968500D01*
X10414000Y-6182500D02*
X10414000Y-6262500D01*
X10374000Y-6222500D02*
X10454000Y-6222500D01*
X10415000Y-6690500D02*
X10415000Y-6770500D01*
X10375000Y-6730500D02*
X10455000Y-6730500D01*
X10415000Y-6944500D02*
X10415000Y-7024500D01*
X10375000Y-6984500D02*
X10455000Y-6984500D01*
X10415000Y-7198500D02*
X10415000Y-7278500D01*
X10375000Y-7238500D02*
X10455000Y-7238500D01*
X10415000Y-7452500D02*
X10415000Y-7532500D01*
X10375000Y-7492500D02*
X10455000Y-7492500D01*
X10415000Y-7706500D02*
X10415000Y-7786500D01*
X10375000Y-7746500D02*
X10455000Y-7746500D01*
X10415000Y-7960500D02*
X10415000Y-8040500D01*
X10375000Y-8000500D02*
X10455000Y-8000500D01*
X10415000Y-8214500D02*
X10415000Y-8294500D01*
X10375000Y-8254500D02*
X10455000Y-8254500D01*
X10415000Y-8849500D02*
X10415000Y-8929500D01*
X10375000Y-8889500D02*
X10455000Y-8889500D01*
X10415000Y-9103500D02*
X10415000Y-9183500D01*
X10375000Y-9143500D02*
X10455000Y-9143500D01*
X10415000Y-9357500D02*
X10415000Y-9437500D01*
X10375000Y-9397500D02*
X10455000Y-9397500D01*
X10415000Y-9611500D02*
X10415000Y-9691500D01*
X10375000Y-9651500D02*
X10455000Y-9651500D01*
X10415000Y-9865500D02*
X10415000Y-9945500D01*
X10375000Y-9905500D02*
X10455000Y-9905500D01*
X10415000Y-10119500D02*
X10415000Y-10199500D01*
X10375000Y-10159500D02*
X10455000Y-10159500D01*
X10415000Y-10373500D02*
X10415000Y-10453500D01*
X10375000Y-10413500D02*
X10455000Y-10413500D01*
X10415000Y-11008500D02*
X10415000Y-11088500D01*
X10375000Y-11048500D02*
X10455000Y-11048500D01*
X10415000Y-11262500D02*
X10415000Y-11342500D01*
X10375000Y-11302500D02*
X10455000Y-11302500D01*
X10415000Y-11516500D02*
X10415000Y-11596500D01*
X10375000Y-11556500D02*
X10455000Y-11556500D01*
X10415000Y-11770500D02*
X10415000Y-11850500D01*
X10375000Y-11810500D02*
X10455000Y-11810500D01*
X10415000Y-12024500D02*
X10415000Y-12104500D01*
X10375000Y-12064500D02*
X10455000Y-12064500D01*
X10415000Y-12278500D02*
X10415000Y-12358500D01*
X10375000Y-12318500D02*
X10455000Y-12318500D01*
X10415000Y-12532500D02*
X10415000Y-12612500D01*
X10375000Y-12572500D02*
X10455000Y-12572500D01*
X11176000Y-4658500D02*
X11176000Y-4738500D01*
X11136000Y-4698500D02*
X11216000Y-4698500D01*
X11176000Y-4912500D02*
X11176000Y-4992500D01*
X11136000Y-4952500D02*
X11216000Y-4952500D01*
X11176000Y-5166500D02*
X11176000Y-5246500D01*
X11136000Y-5206500D02*
X11216000Y-5206500D01*
X11176000Y-5420500D02*
X11176000Y-5500500D01*
X11136000Y-5460500D02*
X11216000Y-5460500D01*
X11176000Y-5674500D02*
X11176000Y-5754500D01*
X11136000Y-5714500D02*
X11216000Y-5714500D01*
X11176000Y-5928500D02*
X11176000Y-6008500D01*
X11136000Y-5968500D02*
X11216000Y-5968500D01*
X11176000Y-6182500D02*
X11176000Y-6262500D01*
X11136000Y-6222500D02*
X11216000Y-6222500D01*
X11177000Y-6690500D02*
X11177000Y-6770500D01*
X11137000Y-6730500D02*
X11217000Y-6730500D01*
X11177000Y-6944500D02*
X11177000Y-7024500D01*
X11137000Y-6984500D02*
X11217000Y-6984500D01*
X11177000Y-7198500D02*
X11177000Y-7278500D01*
X11137000Y-7238500D02*
X11217000Y-7238500D01*
X11177000Y-7452500D02*
X11177000Y-7532500D01*
X11137000Y-7492500D02*
X11217000Y-7492500D01*
X11177000Y-7706500D02*
X11177000Y-7786500D01*
X11137000Y-7746500D02*
X11217000Y-7746500D01*
X11177000Y-7960500D02*
X11177000Y-8040500D01*
X11137000Y-8000500D02*
X11217000Y-8000500D01*
X11177000Y-8214500D02*
X11177000Y-8294500D01*
X11137000Y-8254500D02*
X11217000Y-8254500D01*
X11177000Y-8849500D02*
X11177000Y-8929500D01*
X11137000Y-8889500D02*
X11217000Y-8889500D01*
X11177000Y-9103500D02*
X11177000Y-9183500D01*
X11137000Y-9143500D02*
X11217000Y-9143500D01*
X11177000Y-9357500D02*
X11177000Y-9437500D01*
X11137000Y-9397500D02*
X11217000Y-9397500D01*
X11177000Y-9611500D02*
X11177000Y-9691500D01*
X11137000Y-9651500D02*
X11217000Y-9651500D01*
X11177000Y-9865500D02*
X11177000Y-9945500D01*
X11137000Y-9905500D02*
X11217000Y-9905500D01*
X11177000Y-10119500D02*
X11177000Y-10199500D01*
X11137000Y-10159500D02*
X11217000Y-10159500D01*
X11177000Y-10373500D02*
X11177000Y-10453500D01*
X11137000Y-10413500D02*
X11217000Y-10413500D01*
X11177000Y-11008500D02*
X11177000Y-11088500D01*
X11137000Y-11048500D02*
X11217000Y-11048500D01*
X11177000Y-11262500D02*
X11177000Y-11342500D01*
X11137000Y-11302500D02*
X11217000Y-11302500D01*
X11177000Y-11516500D02*
X11177000Y-11596500D01*
X11137000Y-11556500D02*
X11217000Y-11556500D01*
X11177000Y-11770500D02*
X11177000Y-11850500D01*
X11137000Y-11810500D02*
X11217000Y-11810500D01*
X11177000Y-12024500D02*
X11177000Y-12104500D01*
X11137000Y-12064500D02*
X11217000Y-12064500D01*
X11177000Y-12278500D02*
X11177000Y-12358500D01*
X11137000Y-12318500D02*
X11217000Y-12318500D01*
X11177000Y-12532500D02*
X11177000Y-12612500D01*
X11137000Y-12572500D02*
X11217000Y-12572500D01*
D15*
X5619820Y-7016820D02*
X5619820Y-6953180D01*
X5556180Y-6953180D01*
X5556180Y-7016820D01*
X5619820Y-7016820D01*
X5619820Y-7270820D02*
X5619820Y-7207180D01*
X5556180Y-7207180D01*
X5556180Y-7270820D01*
X5619820Y-7270820D01*
D10*
X5334000Y-8051000D02*
X5384000Y-8001000D01*
X5334000Y-7951000D01*
X5284000Y-8001000D01*
X5334000Y-8051000D01*
X5334000Y-8305000D02*
X5384000Y-8255000D01*
X5334000Y-8205000D01*
X5284000Y-8255000D01*
X5334000Y-8305000D01*
X5334000Y-8559000D02*
X5384000Y-8509000D01*
X5334000Y-8459000D01*
X5284000Y-8509000D01*
X5334000Y-8559000D01*
X5334000Y-8813000D02*
X5384000Y-8763000D01*
X5334000Y-8713000D01*
X5284000Y-8763000D01*
X5334000Y-8813000D01*
X5334000Y-9067000D02*
X5384000Y-9017000D01*
X5334000Y-8967000D01*
X5284000Y-9017000D01*
X5334000Y-9067000D01*
X5334000Y-9321000D02*
X5384000Y-9271000D01*
X5334000Y-9221000D01*
X5284000Y-9271000D01*
X5334000Y-9321000D01*
X11938000Y-7796500D02*
X11988000Y-7746500D01*
X11938000Y-7696500D01*
X11888000Y-7746500D01*
X11938000Y-7796500D01*
X11938000Y-8050500D02*
X11988000Y-8000500D01*
X11938000Y-7950500D01*
X11888000Y-8000500D01*
X11938000Y-8050500D01*
X11938000Y-8304500D02*
X11988000Y-8254500D01*
X11938000Y-8204500D01*
X11888000Y-8254500D01*
X11938000Y-8304500D01*
X11938000Y-8558500D02*
X11988000Y-8508500D01*
X11938000Y-8458500D01*
X11888000Y-8508500D01*
X11938000Y-8558500D01*
X11938000Y-8812500D02*
X11988000Y-8762500D01*
X11938000Y-8712500D01*
X11888000Y-8762500D01*
X11938000Y-8812500D01*
X11938000Y-9066500D02*
X11988000Y-9016500D01*
X11938000Y-8966500D01*
X11888000Y-9016500D01*
X11938000Y-9066500D01*
X11938000Y-9320500D02*
X11988000Y-9270500D01*
X11938000Y-9220500D01*
X11888000Y-9270500D01*
X11938000Y-9320500D01*
D11*
X5078619Y-13650476D02*
X5078619Y-13450476D01*
X5126238Y-13450476D01*
X5154810Y-13460000D01*
X5173857Y-13479048D01*
X5183381Y-13498095D01*
X5192905Y-13536190D01*
X5192905Y-13564762D01*
X5183381Y-13602857D01*
X5173857Y-13621905D01*
X5154810Y-13640952D01*
X5126238Y-13650476D01*
X5078619Y-13650476D01*
X5278619Y-13650476D02*
X5278619Y-13517143D01*
X5278619Y-13555238D02*
X5288143Y-13536190D01*
X5297667Y-13526667D01*
X5316714Y-13517143D01*
X5335762Y-13517143D01*
X5402429Y-13650476D02*
X5402429Y-13517143D01*
X5402429Y-13450476D02*
X5392905Y-13460000D01*
X5402429Y-13469524D01*
X5411952Y-13460000D01*
X5402429Y-13450476D01*
X5402429Y-13469524D01*
X5526238Y-13650476D02*
X5507190Y-13640952D01*
X5497667Y-13621905D01*
X5497667Y-13450476D01*
X5631000Y-13650476D02*
X5611952Y-13640952D01*
X5602428Y-13621905D01*
X5602428Y-13450476D01*
X5859571Y-13650476D02*
X5859571Y-13450476D01*
X5926238Y-13593333D01*
X5992905Y-13450476D01*
X5992905Y-13650476D01*
X6173857Y-13650476D02*
X6173857Y-13545714D01*
X6164333Y-13526667D01*
X6145286Y-13517143D01*
X6107190Y-13517143D01*
X6088143Y-13526667D01*
X6173857Y-13640952D02*
X6154809Y-13650476D01*
X6107190Y-13650476D01*
X6088143Y-13640952D01*
X6078619Y-13621905D01*
X6078619Y-13602857D01*
X6088143Y-13583809D01*
X6107190Y-13574286D01*
X6154809Y-13574286D01*
X6173857Y-13564762D01*
X6269095Y-13517143D02*
X6269095Y-13717143D01*
X6269095Y-13526667D02*
X6288143Y-13517143D01*
X6326238Y-13517143D01*
X6345286Y-13526667D01*
X6354809Y-13536190D01*
X6364333Y-13555238D01*
X6364333Y-13612381D01*
X6354809Y-13631428D01*
X6345286Y-13640952D01*
X6326238Y-13650476D01*
X6288143Y-13650476D01*
X6269095Y-13640952D01*
X6450048Y-13631428D02*
X6459571Y-13640952D01*
X6450048Y-13650476D01*
X6440524Y-13640952D01*
X6450048Y-13631428D01*
X6450048Y-13650476D01*
X6450048Y-13526667D02*
X6459571Y-13536190D01*
X6450048Y-13545714D01*
X6440524Y-13536190D01*
X6450048Y-13526667D01*
X6450048Y-13545714D01*
D12*
X4781000Y-13960000D02*
X4821000Y-14000000D01*
X4821000Y-13960000D02*
X4781000Y-14000000D01*
D11*
X5116714Y-13870476D02*
X5135762Y-13870476D01*
X5154810Y-13880000D01*
X5164333Y-13889524D01*
X5173857Y-13908571D01*
X5183381Y-13946667D01*
X5183381Y-13994286D01*
X5173857Y-14032381D01*
X5164333Y-14051428D01*
X5154810Y-14060952D01*
X5135762Y-14070476D01*
X5116714Y-14070476D01*
X5097667Y-14060952D01*
X5088143Y-14051428D01*
X5078619Y-14032381D01*
X5069095Y-13994286D01*
X5069095Y-13946667D01*
X5078619Y-13908571D01*
X5088143Y-13889524D01*
X5097667Y-13880000D01*
X5116714Y-13870476D01*
X5269095Y-14051428D02*
X5278619Y-14060952D01*
X5269095Y-14070476D01*
X5259571Y-14060952D01*
X5269095Y-14051428D01*
X5269095Y-14070476D01*
X5450048Y-13937143D02*
X5450048Y-14070476D01*
X5402429Y-13860952D02*
X5354810Y-14003809D01*
X5478619Y-14003809D01*
X5592905Y-13870476D02*
X5611952Y-13870476D01*
X5631000Y-13880000D01*
X5640524Y-13889524D01*
X5650048Y-13908571D01*
X5659571Y-13946667D01*
X5659571Y-13994286D01*
X5650048Y-14032381D01*
X5640524Y-14051428D01*
X5631000Y-14060952D01*
X5611952Y-14070476D01*
X5592905Y-14070476D01*
X5573857Y-14060952D01*
X5564333Y-14051428D01*
X5554810Y-14032381D01*
X5545286Y-13994286D01*
X5545286Y-13946667D01*
X5554810Y-13908571D01*
X5564333Y-13889524D01*
X5573857Y-13880000D01*
X5592905Y-13870476D01*
X5783381Y-13870476D02*
X5802428Y-13870476D01*
X5821476Y-13880000D01*
X5831000Y-13889524D01*
X5840524Y-13908571D01*
X5850048Y-13946667D01*
X5850048Y-13994286D01*
X5840524Y-14032381D01*
X5831000Y-14051428D01*
X5821476Y-14060952D01*
X5802428Y-14070476D01*
X5783381Y-14070476D01*
X5764333Y-14060952D01*
X5754809Y-14051428D01*
X5745286Y-14032381D01*
X5735762Y-13994286D01*
X5735762Y-13946667D01*
X5745286Y-13908571D01*
X5754809Y-13889524D01*
X5764333Y-13880000D01*
X5783381Y-13870476D01*
X5935762Y-14070476D02*
X5935762Y-13937143D01*
X5935762Y-13956190D02*
X5945286Y-13946667D01*
X5964333Y-13937143D01*
X5992905Y-13937143D01*
X6011952Y-13946667D01*
X6021476Y-13965714D01*
X6021476Y-14070476D01*
X6021476Y-13965714D02*
X6031000Y-13946667D01*
X6050048Y-13937143D01*
X6078619Y-13937143D01*
X6097667Y-13946667D01*
X6107190Y-13965714D01*
X6107190Y-14070476D01*
X6202428Y-14070476D02*
X6202428Y-13937143D01*
X6202428Y-13956190D02*
X6211952Y-13946667D01*
X6231000Y-13937143D01*
X6259571Y-13937143D01*
X6278619Y-13946667D01*
X6288143Y-13965714D01*
X6288143Y-14070476D01*
X6288143Y-13965714D02*
X6297667Y-13946667D01*
X6316714Y-13937143D01*
X6345286Y-13937143D01*
X6364333Y-13946667D01*
X6373857Y-13965714D01*
X6373857Y-14070476D01*
X6764333Y-13860952D02*
X6592905Y-14118095D01*
X7021476Y-13870476D02*
X7040524Y-13870476D01*
X7059571Y-13880000D01*
X7069095Y-13889524D01*
X7078619Y-13908571D01*
X7088143Y-13946667D01*
X7088143Y-13994286D01*
X7078619Y-14032381D01*
X7069095Y-14051428D01*
X7059571Y-14060952D01*
X7040524Y-14070476D01*
X7021476Y-14070476D01*
X7002428Y-14060952D01*
X6992905Y-14051428D01*
X6983381Y-14032381D01*
X6973857Y-13994286D01*
X6973857Y-13946667D01*
X6983381Y-13908571D01*
X6992905Y-13889524D01*
X7002428Y-13880000D01*
X7021476Y-13870476D01*
X7173857Y-14051428D02*
X7183381Y-14060952D01*
X7173857Y-14070476D01*
X7164333Y-14060952D01*
X7173857Y-14051428D01*
X7173857Y-14070476D01*
X7307190Y-13870476D02*
X7326238Y-13870476D01*
X7345286Y-13880000D01*
X7354809Y-13889524D01*
X7364333Y-13908571D01*
X7373857Y-13946667D01*
X7373857Y-13994286D01*
X7364333Y-14032381D01*
X7354809Y-14051428D01*
X7345286Y-14060952D01*
X7326238Y-14070476D01*
X7307190Y-14070476D01*
X7288143Y-14060952D01*
X7278619Y-14051428D01*
X7269095Y-14032381D01*
X7259571Y-13994286D01*
X7259571Y-13946667D01*
X7269095Y-13908571D01*
X7278619Y-13889524D01*
X7288143Y-13880000D01*
X7307190Y-13870476D01*
X7564333Y-14070476D02*
X7450048Y-14070476D01*
X7507190Y-14070476D02*
X7507190Y-13870476D01*
X7488143Y-13899048D01*
X7469095Y-13918095D01*
X7450048Y-13927619D01*
X7745286Y-13870476D02*
X7650048Y-13870476D01*
X7640524Y-13965714D01*
X7650048Y-13956190D01*
X7669095Y-13946667D01*
X7716714Y-13946667D01*
X7735762Y-13956190D01*
X7745286Y-13965714D01*
X7754809Y-13984762D01*
X7754809Y-14032381D01*
X7745286Y-14051428D01*
X7735762Y-14060952D01*
X7716714Y-14070476D01*
X7669095Y-14070476D01*
X7650048Y-14060952D01*
X7640524Y-14051428D01*
X7821476Y-13870476D02*
X7954809Y-13870476D01*
X7869095Y-14070476D01*
X8021476Y-13870476D02*
X8021476Y-13908571D01*
X8097667Y-13870476D02*
X8097667Y-13908571D01*
X8392905Y-14146667D02*
X8383381Y-14137143D01*
X8364333Y-14108571D01*
X8354809Y-14089524D01*
X8345286Y-14060952D01*
X8335762Y-14013333D01*
X8335762Y-13975238D01*
X8345286Y-13927619D01*
X8354809Y-13899048D01*
X8364333Y-13880000D01*
X8383381Y-13851428D01*
X8392905Y-13841905D01*
X8564333Y-13870476D02*
X8469095Y-13870476D01*
X8459571Y-13965714D01*
X8469095Y-13956190D01*
X8488143Y-13946667D01*
X8535762Y-13946667D01*
X8554810Y-13956190D01*
X8564333Y-13965714D01*
X8573857Y-13984762D01*
X8573857Y-14032381D01*
X8564333Y-14051428D01*
X8554810Y-14060952D01*
X8535762Y-14070476D01*
X8488143Y-14070476D01*
X8469095Y-14060952D01*
X8459571Y-14051428D01*
X8764333Y-14070476D02*
X8650048Y-14070476D01*
X8707190Y-14070476D02*
X8707190Y-13870476D01*
X8688143Y-13899048D01*
X8669095Y-13918095D01*
X8650048Y-13927619D01*
X9002429Y-14070476D02*
X9002429Y-13870476D01*
X9088143Y-14070476D02*
X9088143Y-13965714D01*
X9078619Y-13946667D01*
X9059571Y-13937143D01*
X9031000Y-13937143D01*
X9011952Y-13946667D01*
X9002429Y-13956190D01*
X9211952Y-14070476D02*
X9192905Y-14060952D01*
X9183381Y-14051428D01*
X9173857Y-14032381D01*
X9173857Y-13975238D01*
X9183381Y-13956190D01*
X9192905Y-13946667D01*
X9211952Y-13937143D01*
X9240524Y-13937143D01*
X9259571Y-13946667D01*
X9269095Y-13956190D01*
X9278619Y-13975238D01*
X9278619Y-14032381D01*
X9269095Y-14051428D01*
X9259571Y-14060952D01*
X9240524Y-14070476D01*
X9211952Y-14070476D01*
X9392905Y-14070476D02*
X9373857Y-14060952D01*
X9364333Y-14041905D01*
X9364333Y-13870476D01*
X9545286Y-14060952D02*
X9526238Y-14070476D01*
X9488143Y-14070476D01*
X9469095Y-14060952D01*
X9459571Y-14041905D01*
X9459571Y-13965714D01*
X9469095Y-13946667D01*
X9488143Y-13937143D01*
X9526238Y-13937143D01*
X9545286Y-13946667D01*
X9554810Y-13965714D01*
X9554810Y-13984762D01*
X9459571Y-14003809D01*
X9631000Y-14060952D02*
X9650048Y-14070476D01*
X9688143Y-14070476D01*
X9707190Y-14060952D01*
X9716714Y-14041905D01*
X9716714Y-14032381D01*
X9707190Y-14013333D01*
X9688143Y-14003809D01*
X9659571Y-14003809D01*
X9640524Y-13994286D01*
X9631000Y-13975238D01*
X9631000Y-13965714D01*
X9640524Y-13946667D01*
X9659571Y-13937143D01*
X9688143Y-13937143D01*
X9707190Y-13946667D01*
X9783381Y-14146667D02*
X9792905Y-14137143D01*
X9811952Y-14108571D01*
X9821476Y-14089524D01*
X9831000Y-14060952D01*
X9840524Y-14013333D01*
X9840524Y-13975238D01*
X9831000Y-13927619D01*
X9821476Y-13899048D01*
X9811952Y-13880000D01*
X9792905Y-13851428D01*
X9783381Y-13841905D01*
D13*
X4821000Y-14244000D02*
G75*
G03*
X4821000Y-14244000I-35000J0D01*
G01*
D11*
X5116714Y-14134476D02*
X5135762Y-14134476D01*
X5154810Y-14144000D01*
X5164333Y-14153524D01*
X5173857Y-14172571D01*
X5183381Y-14210667D01*
X5183381Y-14258286D01*
X5173857Y-14296381D01*
X5164333Y-14315428D01*
X5154810Y-14324952D01*
X5135762Y-14334476D01*
X5116714Y-14334476D01*
X5097667Y-14324952D01*
X5088143Y-14315428D01*
X5078619Y-14296381D01*
X5069095Y-14258286D01*
X5069095Y-14210667D01*
X5078619Y-14172571D01*
X5088143Y-14153524D01*
X5097667Y-14144000D01*
X5116714Y-14134476D01*
X5269095Y-14315428D02*
X5278619Y-14324952D01*
X5269095Y-14334476D01*
X5259571Y-14324952D01*
X5269095Y-14315428D01*
X5269095Y-14334476D01*
X5345286Y-14134476D02*
X5478619Y-14134476D01*
X5392905Y-14334476D01*
X5592905Y-14134476D02*
X5611952Y-14134476D01*
X5631000Y-14144000D01*
X5640524Y-14153524D01*
X5650048Y-14172571D01*
X5659571Y-14210667D01*
X5659571Y-14258286D01*
X5650048Y-14296381D01*
X5640524Y-14315428D01*
X5631000Y-14324952D01*
X5611952Y-14334476D01*
X5592905Y-14334476D01*
X5573857Y-14324952D01*
X5564333Y-14315428D01*
X5554810Y-14296381D01*
X5545286Y-14258286D01*
X5545286Y-14210667D01*
X5554810Y-14172571D01*
X5564333Y-14153524D01*
X5573857Y-14144000D01*
X5592905Y-14134476D01*
X5783381Y-14134476D02*
X5802428Y-14134476D01*
X5821476Y-14144000D01*
X5831000Y-14153524D01*
X5840524Y-14172571D01*
X5850048Y-14210667D01*
X5850048Y-14258286D01*
X5840524Y-14296381D01*
X5831000Y-14315428D01*
X5821476Y-14324952D01*
X5802428Y-14334476D01*
X5783381Y-14334476D01*
X5764333Y-14324952D01*
X5754809Y-14315428D01*
X5745286Y-14296381D01*
X5735762Y-14258286D01*
X5735762Y-14210667D01*
X5745286Y-14172571D01*
X5754809Y-14153524D01*
X5764333Y-14144000D01*
X5783381Y-14134476D01*
X5935762Y-14334476D02*
X5935762Y-14201143D01*
X5935762Y-14220190D02*
X5945286Y-14210667D01*
X5964333Y-14201143D01*
X5992905Y-14201143D01*
X6011952Y-14210667D01*
X6021476Y-14229714D01*
X6021476Y-14334476D01*
X6021476Y-14229714D02*
X6031000Y-14210667D01*
X6050048Y-14201143D01*
X6078619Y-14201143D01*
X6097667Y-14210667D01*
X6107190Y-14229714D01*
X6107190Y-14334476D01*
X6202428Y-14334476D02*
X6202428Y-14201143D01*
X6202428Y-14220190D02*
X6211952Y-14210667D01*
X6231000Y-14201143D01*
X6259571Y-14201143D01*
X6278619Y-14210667D01*
X6288143Y-14229714D01*
X6288143Y-14334476D01*
X6288143Y-14229714D02*
X6297667Y-14210667D01*
X6316714Y-14201143D01*
X6345286Y-14201143D01*
X6364333Y-14210667D01*
X6373857Y-14229714D01*
X6373857Y-14334476D01*
X6764333Y-14124952D02*
X6592905Y-14382095D01*
X7021476Y-14134476D02*
X7040524Y-14134476D01*
X7059571Y-14144000D01*
X7069095Y-14153524D01*
X7078619Y-14172571D01*
X7088143Y-14210667D01*
X7088143Y-14258286D01*
X7078619Y-14296381D01*
X7069095Y-14315428D01*
X7059571Y-14324952D01*
X7040524Y-14334476D01*
X7021476Y-14334476D01*
X7002428Y-14324952D01*
X6992905Y-14315428D01*
X6983381Y-14296381D01*
X6973857Y-14258286D01*
X6973857Y-14210667D01*
X6983381Y-14172571D01*
X6992905Y-14153524D01*
X7002428Y-14144000D01*
X7021476Y-14134476D01*
X7173857Y-14315428D02*
X7183381Y-14324952D01*
X7173857Y-14334476D01*
X7164333Y-14324952D01*
X7173857Y-14315428D01*
X7173857Y-14334476D01*
X7307190Y-14134476D02*
X7326238Y-14134476D01*
X7345286Y-14144000D01*
X7354809Y-14153524D01*
X7364333Y-14172571D01*
X7373857Y-14210667D01*
X7373857Y-14258286D01*
X7364333Y-14296381D01*
X7354809Y-14315428D01*
X7345286Y-14324952D01*
X7326238Y-14334476D01*
X7307190Y-14334476D01*
X7288143Y-14324952D01*
X7278619Y-14315428D01*
X7269095Y-14296381D01*
X7259571Y-14258286D01*
X7259571Y-14210667D01*
X7269095Y-14172571D01*
X7278619Y-14153524D01*
X7288143Y-14144000D01*
X7307190Y-14134476D01*
X7450048Y-14153524D02*
X7459571Y-14144000D01*
X7478619Y-14134476D01*
X7526238Y-14134476D01*
X7545286Y-14144000D01*
X7554809Y-14153524D01*
X7564333Y-14172571D01*
X7564333Y-14191619D01*
X7554809Y-14220190D01*
X7440524Y-14334476D01*
X7564333Y-14334476D01*
X7631000Y-14134476D02*
X7764333Y-14134476D01*
X7678619Y-14334476D01*
X7926238Y-14134476D02*
X7888143Y-14134476D01*
X7869095Y-14144000D01*
X7859571Y-14153524D01*
X7840524Y-14182095D01*
X7831000Y-14220190D01*
X7831000Y-14296381D01*
X7840524Y-14315428D01*
X7850048Y-14324952D01*
X7869095Y-14334476D01*
X7907190Y-14334476D01*
X7926238Y-14324952D01*
X7935762Y-14315428D01*
X7945286Y-14296381D01*
X7945286Y-14248762D01*
X7935762Y-14229714D01*
X7926238Y-14220190D01*
X7907190Y-14210667D01*
X7869095Y-14210667D01*
X7850048Y-14220190D01*
X7840524Y-14229714D01*
X7831000Y-14248762D01*
X8021476Y-14134476D02*
X8021476Y-14172571D01*
X8097667Y-14134476D02*
X8097667Y-14172571D01*
X8392905Y-14410667D02*
X8383381Y-14401143D01*
X8364333Y-14372571D01*
X8354809Y-14353524D01*
X8345286Y-14324952D01*
X8335762Y-14277333D01*
X8335762Y-14239238D01*
X8345286Y-14191619D01*
X8354809Y-14163048D01*
X8364333Y-14144000D01*
X8383381Y-14115428D01*
X8392905Y-14105905D01*
X8459571Y-14153524D02*
X8469095Y-14144000D01*
X8488143Y-14134476D01*
X8535762Y-14134476D01*
X8554810Y-14144000D01*
X8564333Y-14153524D01*
X8573857Y-14172571D01*
X8573857Y-14191619D01*
X8564333Y-14220190D01*
X8450048Y-14334476D01*
X8573857Y-14334476D01*
X8811952Y-14334476D02*
X8811952Y-14134476D01*
X8897667Y-14334476D02*
X8897667Y-14229714D01*
X8888143Y-14210667D01*
X8869095Y-14201143D01*
X8840524Y-14201143D01*
X8821476Y-14210667D01*
X8811952Y-14220190D01*
X9021476Y-14334476D02*
X9002429Y-14324952D01*
X8992905Y-14315428D01*
X8983381Y-14296381D01*
X8983381Y-14239238D01*
X8992905Y-14220190D01*
X9002429Y-14210667D01*
X9021476Y-14201143D01*
X9050048Y-14201143D01*
X9069095Y-14210667D01*
X9078619Y-14220190D01*
X9088143Y-14239238D01*
X9088143Y-14296381D01*
X9078619Y-14315428D01*
X9069095Y-14324952D01*
X9050048Y-14334476D01*
X9021476Y-14334476D01*
X9202429Y-14334476D02*
X9183381Y-14324952D01*
X9173857Y-14305905D01*
X9173857Y-14134476D01*
X9354810Y-14324952D02*
X9335762Y-14334476D01*
X9297667Y-14334476D01*
X9278619Y-14324952D01*
X9269095Y-14305905D01*
X9269095Y-14229714D01*
X9278619Y-14210667D01*
X9297667Y-14201143D01*
X9335762Y-14201143D01*
X9354810Y-14210667D01*
X9364333Y-14229714D01*
X9364333Y-14248762D01*
X9269095Y-14267809D01*
X9440524Y-14324952D02*
X9459571Y-14334476D01*
X9497667Y-14334476D01*
X9516714Y-14324952D01*
X9526238Y-14305905D01*
X9526238Y-14296381D01*
X9516714Y-14277333D01*
X9497667Y-14267809D01*
X9469095Y-14267809D01*
X9450048Y-14258286D01*
X9440524Y-14239238D01*
X9440524Y-14229714D01*
X9450048Y-14210667D01*
X9469095Y-14201143D01*
X9497667Y-14201143D01*
X9516714Y-14210667D01*
X9592905Y-14410667D02*
X9602429Y-14401143D01*
X9621476Y-14372571D01*
X9631000Y-14353524D01*
X9640524Y-14324952D01*
X9650048Y-14277333D01*
X9650048Y-14239238D01*
X9640524Y-14191619D01*
X9631000Y-14163048D01*
X9621476Y-14144000D01*
X9602429Y-14115428D01*
X9592905Y-14105905D01*
D14*
X4781000Y-14468000D02*
X4781000Y-14548000D01*
X4741000Y-14508000D02*
X4821000Y-14508000D01*
D11*
X5116714Y-14398476D02*
X5135762Y-14398476D01*
X5154810Y-14408000D01*
X5164333Y-14417524D01*
X5173857Y-14436571D01*
X5183381Y-14474667D01*
X5183381Y-14522286D01*
X5173857Y-14560381D01*
X5164333Y-14579428D01*
X5154810Y-14588952D01*
X5135762Y-14598476D01*
X5116714Y-14598476D01*
X5097667Y-14588952D01*
X5088143Y-14579428D01*
X5078619Y-14560381D01*
X5069095Y-14522286D01*
X5069095Y-14474667D01*
X5078619Y-14436571D01*
X5088143Y-14417524D01*
X5097667Y-14408000D01*
X5116714Y-14398476D01*
X5269095Y-14579428D02*
X5278619Y-14588952D01*
X5269095Y-14598476D01*
X5259571Y-14588952D01*
X5269095Y-14579428D01*
X5269095Y-14598476D01*
X5392905Y-14484190D02*
X5373857Y-14474667D01*
X5364333Y-14465143D01*
X5354810Y-14446095D01*
X5354810Y-14436571D01*
X5364333Y-14417524D01*
X5373857Y-14408000D01*
X5392905Y-14398476D01*
X5431000Y-14398476D01*
X5450048Y-14408000D01*
X5459571Y-14417524D01*
X5469095Y-14436571D01*
X5469095Y-14446095D01*
X5459571Y-14465143D01*
X5450048Y-14474667D01*
X5431000Y-14484190D01*
X5392905Y-14484190D01*
X5373857Y-14493714D01*
X5364333Y-14503238D01*
X5354810Y-14522286D01*
X5354810Y-14560381D01*
X5364333Y-14579428D01*
X5373857Y-14588952D01*
X5392905Y-14598476D01*
X5431000Y-14598476D01*
X5450048Y-14588952D01*
X5459571Y-14579428D01*
X5469095Y-14560381D01*
X5469095Y-14522286D01*
X5459571Y-14503238D01*
X5450048Y-14493714D01*
X5431000Y-14484190D01*
X5592905Y-14398476D02*
X5611952Y-14398476D01*
X5631000Y-14408000D01*
X5640524Y-14417524D01*
X5650048Y-14436571D01*
X5659571Y-14474667D01*
X5659571Y-14522286D01*
X5650048Y-14560381D01*
X5640524Y-14579428D01*
X5631000Y-14588952D01*
X5611952Y-14598476D01*
X5592905Y-14598476D01*
X5573857Y-14588952D01*
X5564333Y-14579428D01*
X5554810Y-14560381D01*
X5545286Y-14522286D01*
X5545286Y-14474667D01*
X5554810Y-14436571D01*
X5564333Y-14417524D01*
X5573857Y-14408000D01*
X5592905Y-14398476D01*
X5783381Y-14398476D02*
X5802428Y-14398476D01*
X5821476Y-14408000D01*
X5831000Y-14417524D01*
X5840524Y-14436571D01*
X5850048Y-14474667D01*
X5850048Y-14522286D01*
X5840524Y-14560381D01*
X5831000Y-14579428D01*
X5821476Y-14588952D01*
X5802428Y-14598476D01*
X5783381Y-14598476D01*
X5764333Y-14588952D01*
X5754809Y-14579428D01*
X5745286Y-14560381D01*
X5735762Y-14522286D01*
X5735762Y-14474667D01*
X5745286Y-14436571D01*
X5754809Y-14417524D01*
X5764333Y-14408000D01*
X5783381Y-14398476D01*
X5935762Y-14598476D02*
X5935762Y-14465143D01*
X5935762Y-14484190D02*
X5945286Y-14474667D01*
X5964333Y-14465143D01*
X5992905Y-14465143D01*
X6011952Y-14474667D01*
X6021476Y-14493714D01*
X6021476Y-14598476D01*
X6021476Y-14493714D02*
X6031000Y-14474667D01*
X6050048Y-14465143D01*
X6078619Y-14465143D01*
X6097667Y-14474667D01*
X6107190Y-14493714D01*
X6107190Y-14598476D01*
X6202428Y-14598476D02*
X6202428Y-14465143D01*
X6202428Y-14484190D02*
X6211952Y-14474667D01*
X6231000Y-14465143D01*
X6259571Y-14465143D01*
X6278619Y-14474667D01*
X6288143Y-14493714D01*
X6288143Y-14598476D01*
X6288143Y-14493714D02*
X6297667Y-14474667D01*
X6316714Y-14465143D01*
X6345286Y-14465143D01*
X6364333Y-14474667D01*
X6373857Y-14493714D01*
X6373857Y-14598476D01*
X6764333Y-14388952D02*
X6592905Y-14646095D01*
X7021476Y-14398476D02*
X7040524Y-14398476D01*
X7059571Y-14408000D01*
X7069095Y-14417524D01*
X7078619Y-14436571D01*
X7088143Y-14474667D01*
X7088143Y-14522286D01*
X7078619Y-14560381D01*
X7069095Y-14579428D01*
X7059571Y-14588952D01*
X7040524Y-14598476D01*
X7021476Y-14598476D01*
X7002428Y-14588952D01*
X6992905Y-14579428D01*
X6983381Y-14560381D01*
X6973857Y-14522286D01*
X6973857Y-14474667D01*
X6983381Y-14436571D01*
X6992905Y-14417524D01*
X7002428Y-14408000D01*
X7021476Y-14398476D01*
X7173857Y-14579428D02*
X7183381Y-14588952D01*
X7173857Y-14598476D01*
X7164333Y-14588952D01*
X7173857Y-14579428D01*
X7173857Y-14598476D01*
X7307190Y-14398476D02*
X7326238Y-14398476D01*
X7345286Y-14408000D01*
X7354809Y-14417524D01*
X7364333Y-14436571D01*
X7373857Y-14474667D01*
X7373857Y-14522286D01*
X7364333Y-14560381D01*
X7354809Y-14579428D01*
X7345286Y-14588952D01*
X7326238Y-14598476D01*
X7307190Y-14598476D01*
X7288143Y-14588952D01*
X7278619Y-14579428D01*
X7269095Y-14560381D01*
X7259571Y-14522286D01*
X7259571Y-14474667D01*
X7269095Y-14436571D01*
X7278619Y-14417524D01*
X7288143Y-14408000D01*
X7307190Y-14398476D01*
X7440524Y-14398476D02*
X7564333Y-14398476D01*
X7497667Y-14474667D01*
X7526238Y-14474667D01*
X7545286Y-14484190D01*
X7554809Y-14493714D01*
X7564333Y-14512762D01*
X7564333Y-14560381D01*
X7554809Y-14579428D01*
X7545286Y-14588952D01*
X7526238Y-14598476D01*
X7469095Y-14598476D01*
X7450048Y-14588952D01*
X7440524Y-14579428D01*
X7754809Y-14598476D02*
X7640524Y-14598476D01*
X7697667Y-14598476D02*
X7697667Y-14398476D01*
X7678619Y-14427048D01*
X7659571Y-14446095D01*
X7640524Y-14455619D01*
X7935762Y-14398476D02*
X7840524Y-14398476D01*
X7831000Y-14493714D01*
X7840524Y-14484190D01*
X7859571Y-14474667D01*
X7907190Y-14474667D01*
X7926238Y-14484190D01*
X7935762Y-14493714D01*
X7945286Y-14512762D01*
X7945286Y-14560381D01*
X7935762Y-14579428D01*
X7926238Y-14588952D01*
X7907190Y-14598476D01*
X7859571Y-14598476D01*
X7840524Y-14588952D01*
X7831000Y-14579428D01*
X8021476Y-14398476D02*
X8021476Y-14436571D01*
X8097667Y-14398476D02*
X8097667Y-14436571D01*
X8392905Y-14674667D02*
X8383381Y-14665143D01*
X8364333Y-14636571D01*
X8354809Y-14617524D01*
X8345286Y-14588952D01*
X8335762Y-14541333D01*
X8335762Y-14503238D01*
X8345286Y-14455619D01*
X8354809Y-14427048D01*
X8364333Y-14408000D01*
X8383381Y-14379428D01*
X8392905Y-14369905D01*
X8459571Y-14417524D02*
X8469095Y-14408000D01*
X8488143Y-14398476D01*
X8535762Y-14398476D01*
X8554810Y-14408000D01*
X8564333Y-14417524D01*
X8573857Y-14436571D01*
X8573857Y-14455619D01*
X8564333Y-14484190D01*
X8450048Y-14598476D01*
X8573857Y-14598476D01*
X8650048Y-14417524D02*
X8659571Y-14408000D01*
X8678619Y-14398476D01*
X8726238Y-14398476D01*
X8745286Y-14408000D01*
X8754810Y-14417524D01*
X8764333Y-14436571D01*
X8764333Y-14455619D01*
X8754810Y-14484190D01*
X8640524Y-14598476D01*
X8764333Y-14598476D01*
X8935762Y-14465143D02*
X8935762Y-14598476D01*
X8888143Y-14388952D02*
X8840524Y-14531809D01*
X8964333Y-14531809D01*
X9192905Y-14598476D02*
X9192905Y-14398476D01*
X9278619Y-14598476D02*
X9278619Y-14493714D01*
X9269095Y-14474667D01*
X9250048Y-14465143D01*
X9221476Y-14465143D01*
X9202429Y-14474667D01*
X9192905Y-14484190D01*
X9402429Y-14598476D02*
X9383381Y-14588952D01*
X9373857Y-14579428D01*
X9364333Y-14560381D01*
X9364333Y-14503238D01*
X9373857Y-14484190D01*
X9383381Y-14474667D01*
X9402429Y-14465143D01*
X9431000Y-14465143D01*
X9450048Y-14474667D01*
X9459571Y-14484190D01*
X9469095Y-14503238D01*
X9469095Y-14560381D01*
X9459571Y-14579428D01*
X9450048Y-14588952D01*
X9431000Y-14598476D01*
X9402429Y-14598476D01*
X9583381Y-14598476D02*
X9564333Y-14588952D01*
X9554810Y-14569905D01*
X9554810Y-14398476D01*
X9735762Y-14588952D02*
X9716714Y-14598476D01*
X9678619Y-14598476D01*
X9659571Y-14588952D01*
X9650048Y-14569905D01*
X9650048Y-14493714D01*
X9659571Y-14474667D01*
X9678619Y-14465143D01*
X9716714Y-14465143D01*
X9735762Y-14474667D01*
X9745286Y-14493714D01*
X9745286Y-14512762D01*
X9650048Y-14531809D01*
X9821476Y-14588952D02*
X9840524Y-14598476D01*
X9878619Y-14598476D01*
X9897667Y-14588952D01*
X9907190Y-14569905D01*
X9907190Y-14560381D01*
X9897667Y-14541333D01*
X9878619Y-14531809D01*
X9850048Y-14531809D01*
X9831000Y-14522286D01*
X9821476Y-14503238D01*
X9821476Y-14493714D01*
X9831000Y-14474667D01*
X9850048Y-14465143D01*
X9878619Y-14465143D01*
X9897667Y-14474667D01*
X9973857Y-14674667D02*
X9983381Y-14665143D01*
X10002429Y-14636571D01*
X10011952Y-14617524D01*
X10021476Y-14588952D01*
X10031000Y-14541333D01*
X10031000Y-14503238D01*
X10021476Y-14455619D01*
X10011952Y-14427048D01*
X10002429Y-14408000D01*
X9983381Y-14379428D01*
X9973857Y-14369905D01*
D15*
X4807820Y-14803820D02*
X4807820Y-14740180D01*
X4744180Y-14740180D01*
X4744180Y-14803820D01*
X4807820Y-14803820D01*
D11*
X5116714Y-14662476D02*
X5135762Y-14662476D01*
X5154810Y-14672000D01*
X5164333Y-14681524D01*
X5173857Y-14700571D01*
X5183381Y-14738667D01*
X5183381Y-14786286D01*
X5173857Y-14824381D01*
X5164333Y-14843428D01*
X5154810Y-14852952D01*
X5135762Y-14862476D01*
X5116714Y-14862476D01*
X5097667Y-14852952D01*
X5088143Y-14843428D01*
X5078619Y-14824381D01*
X5069095Y-14786286D01*
X5069095Y-14738667D01*
X5078619Y-14700571D01*
X5088143Y-14681524D01*
X5097667Y-14672000D01*
X5116714Y-14662476D01*
X5269095Y-14843428D02*
X5278619Y-14852952D01*
X5269095Y-14862476D01*
X5259571Y-14852952D01*
X5269095Y-14843428D01*
X5269095Y-14862476D01*
X5373857Y-14862476D02*
X5411952Y-14862476D01*
X5431000Y-14852952D01*
X5440524Y-14843428D01*
X5459571Y-14814857D01*
X5469095Y-14776762D01*
X5469095Y-14700571D01*
X5459571Y-14681524D01*
X5450048Y-14672000D01*
X5431000Y-14662476D01*
X5392905Y-14662476D01*
X5373857Y-14672000D01*
X5364333Y-14681524D01*
X5354810Y-14700571D01*
X5354810Y-14748190D01*
X5364333Y-14767238D01*
X5373857Y-14776762D01*
X5392905Y-14786286D01*
X5431000Y-14786286D01*
X5450048Y-14776762D01*
X5459571Y-14767238D01*
X5469095Y-14748190D01*
X5592905Y-14662476D02*
X5611952Y-14662476D01*
X5631000Y-14672000D01*
X5640524Y-14681524D01*
X5650048Y-14700571D01*
X5659571Y-14738667D01*
X5659571Y-14786286D01*
X5650048Y-14824381D01*
X5640524Y-14843428D01*
X5631000Y-14852952D01*
X5611952Y-14862476D01*
X5592905Y-14862476D01*
X5573857Y-14852952D01*
X5564333Y-14843428D01*
X5554810Y-14824381D01*
X5545286Y-14786286D01*
X5545286Y-14738667D01*
X5554810Y-14700571D01*
X5564333Y-14681524D01*
X5573857Y-14672000D01*
X5592905Y-14662476D01*
X5783381Y-14662476D02*
X5802428Y-14662476D01*
X5821476Y-14672000D01*
X5831000Y-14681524D01*
X5840524Y-14700571D01*
X5850048Y-14738667D01*
X5850048Y-14786286D01*
X5840524Y-14824381D01*
X5831000Y-14843428D01*
X5821476Y-14852952D01*
X5802428Y-14862476D01*
X5783381Y-14862476D01*
X5764333Y-14852952D01*
X5754809Y-14843428D01*
X5745286Y-14824381D01*
X5735762Y-14786286D01*
X5735762Y-14738667D01*
X5745286Y-14700571D01*
X5754809Y-14681524D01*
X5764333Y-14672000D01*
X5783381Y-14662476D01*
X5935762Y-14862476D02*
X5935762Y-14729143D01*
X5935762Y-14748190D02*
X5945286Y-14738667D01*
X5964333Y-14729143D01*
X5992905Y-14729143D01*
X6011952Y-14738667D01*
X6021476Y-14757714D01*
X6021476Y-14862476D01*
X6021476Y-14757714D02*
X6031000Y-14738667D01*
X6050048Y-14729143D01*
X6078619Y-14729143D01*
X6097667Y-14738667D01*
X6107190Y-14757714D01*
X6107190Y-14862476D01*
X6202428Y-14862476D02*
X6202428Y-14729143D01*
X6202428Y-14748190D02*
X6211952Y-14738667D01*
X6231000Y-14729143D01*
X6259571Y-14729143D01*
X6278619Y-14738667D01*
X6288143Y-14757714D01*
X6288143Y-14862476D01*
X6288143Y-14757714D02*
X6297667Y-14738667D01*
X6316714Y-14729143D01*
X6345286Y-14729143D01*
X6364333Y-14738667D01*
X6373857Y-14757714D01*
X6373857Y-14862476D01*
X6764333Y-14652952D02*
X6592905Y-14910095D01*
X7021476Y-14662476D02*
X7040524Y-14662476D01*
X7059571Y-14672000D01*
X7069095Y-14681524D01*
X7078619Y-14700571D01*
X7088143Y-14738667D01*
X7088143Y-14786286D01*
X7078619Y-14824381D01*
X7069095Y-14843428D01*
X7059571Y-14852952D01*
X7040524Y-14862476D01*
X7021476Y-14862476D01*
X7002428Y-14852952D01*
X6992905Y-14843428D01*
X6983381Y-14824381D01*
X6973857Y-14786286D01*
X6973857Y-14738667D01*
X6983381Y-14700571D01*
X6992905Y-14681524D01*
X7002428Y-14672000D01*
X7021476Y-14662476D01*
X7173857Y-14843428D02*
X7183381Y-14852952D01*
X7173857Y-14862476D01*
X7164333Y-14852952D01*
X7173857Y-14843428D01*
X7173857Y-14862476D01*
X7307190Y-14662476D02*
X7326238Y-14662476D01*
X7345286Y-14672000D01*
X7354809Y-14681524D01*
X7364333Y-14700571D01*
X7373857Y-14738667D01*
X7373857Y-14786286D01*
X7364333Y-14824381D01*
X7354809Y-14843428D01*
X7345286Y-14852952D01*
X7326238Y-14862476D01*
X7307190Y-14862476D01*
X7288143Y-14852952D01*
X7278619Y-14843428D01*
X7269095Y-14824381D01*
X7259571Y-14786286D01*
X7259571Y-14738667D01*
X7269095Y-14700571D01*
X7278619Y-14681524D01*
X7288143Y-14672000D01*
X7307190Y-14662476D01*
X7440524Y-14662476D02*
X7564333Y-14662476D01*
X7497667Y-14738667D01*
X7526238Y-14738667D01*
X7545286Y-14748190D01*
X7554809Y-14757714D01*
X7564333Y-14776762D01*
X7564333Y-14824381D01*
X7554809Y-14843428D01*
X7545286Y-14852952D01*
X7526238Y-14862476D01*
X7469095Y-14862476D01*
X7450048Y-14852952D01*
X7440524Y-14843428D01*
X7745286Y-14662476D02*
X7650048Y-14662476D01*
X7640524Y-14757714D01*
X7650048Y-14748190D01*
X7669095Y-14738667D01*
X7716714Y-14738667D01*
X7735762Y-14748190D01*
X7745286Y-14757714D01*
X7754809Y-14776762D01*
X7754809Y-14824381D01*
X7745286Y-14843428D01*
X7735762Y-14852952D01*
X7716714Y-14862476D01*
X7669095Y-14862476D01*
X7650048Y-14852952D01*
X7640524Y-14843428D01*
X7926238Y-14729143D02*
X7926238Y-14862476D01*
X7878619Y-14652952D02*
X7831000Y-14795809D01*
X7954809Y-14795809D01*
X8021476Y-14662476D02*
X8021476Y-14700571D01*
X8097667Y-14662476D02*
X8097667Y-14700571D01*
X8392905Y-14938667D02*
X8383381Y-14929143D01*
X8364333Y-14900571D01*
X8354809Y-14881524D01*
X8345286Y-14852952D01*
X8335762Y-14805333D01*
X8335762Y-14767238D01*
X8345286Y-14719619D01*
X8354809Y-14691048D01*
X8364333Y-14672000D01*
X8383381Y-14643428D01*
X8392905Y-14633905D01*
X8459571Y-14681524D02*
X8469095Y-14672000D01*
X8488143Y-14662476D01*
X8535762Y-14662476D01*
X8554810Y-14672000D01*
X8564333Y-14681524D01*
X8573857Y-14700571D01*
X8573857Y-14719619D01*
X8564333Y-14748190D01*
X8450048Y-14862476D01*
X8573857Y-14862476D01*
X8811952Y-14862476D02*
X8811952Y-14662476D01*
X8897667Y-14862476D02*
X8897667Y-14757714D01*
X8888143Y-14738667D01*
X8869095Y-14729143D01*
X8840524Y-14729143D01*
X8821476Y-14738667D01*
X8811952Y-14748190D01*
X9021476Y-14862476D02*
X9002429Y-14852952D01*
X8992905Y-14843428D01*
X8983381Y-14824381D01*
X8983381Y-14767238D01*
X8992905Y-14748190D01*
X9002429Y-14738667D01*
X9021476Y-14729143D01*
X9050048Y-14729143D01*
X9069095Y-14738667D01*
X9078619Y-14748190D01*
X9088143Y-14767238D01*
X9088143Y-14824381D01*
X9078619Y-14843428D01*
X9069095Y-14852952D01*
X9050048Y-14862476D01*
X9021476Y-14862476D01*
X9202429Y-14862476D02*
X9183381Y-14852952D01*
X9173857Y-14833905D01*
X9173857Y-14662476D01*
X9354810Y-14852952D02*
X9335762Y-14862476D01*
X9297667Y-14862476D01*
X9278619Y-14852952D01*
X9269095Y-14833905D01*
X9269095Y-14757714D01*
X9278619Y-14738667D01*
X9297667Y-14729143D01*
X9335762Y-14729143D01*
X9354810Y-14738667D01*
X9364333Y-14757714D01*
X9364333Y-14776762D01*
X9269095Y-14795809D01*
X9440524Y-14852952D02*
X9459571Y-14862476D01*
X9497667Y-14862476D01*
X9516714Y-14852952D01*
X9526238Y-14833905D01*
X9526238Y-14824381D01*
X9516714Y-14805333D01*
X9497667Y-14795809D01*
X9469095Y-14795809D01*
X9450048Y-14786286D01*
X9440524Y-14767238D01*
X9440524Y-14757714D01*
X9450048Y-14738667D01*
X9469095Y-14729143D01*
X9497667Y-14729143D01*
X9516714Y-14738667D01*
X9592905Y-14938667D02*
X9602429Y-14929143D01*
X9621476Y-14900571D01*
X9631000Y-14881524D01*
X9640524Y-14852952D01*
X9650048Y-14805333D01*
X9650048Y-14767238D01*
X9640524Y-14719619D01*
X9631000Y-14691048D01*
X9621476Y-14672000D01*
X9602429Y-14643428D01*
X9592905Y-14633905D01*
D10*
X4771000Y-15086000D02*
X4821000Y-15036000D01*
X4771000Y-14986000D01*
X4721000Y-15036000D01*
X4771000Y-15086000D01*
D11*
X5183381Y-15126476D02*
X5069095Y-15126476D01*
X5126238Y-15126476D02*
X5126238Y-14926476D01*
X5107190Y-14955048D01*
X5088143Y-14974095D01*
X5069095Y-14983619D01*
X5269095Y-15107428D02*
X5278619Y-15116952D01*
X5269095Y-15126476D01*
X5259571Y-15116952D01*
X5269095Y-15107428D01*
X5269095Y-15126476D01*
X5402429Y-14926476D02*
X5421476Y-14926476D01*
X5440524Y-14936000D01*
X5450048Y-14945524D01*
X5459571Y-14964571D01*
X5469095Y-15002667D01*
X5469095Y-15050286D01*
X5459571Y-15088381D01*
X5450048Y-15107428D01*
X5440524Y-15116952D01*
X5421476Y-15126476D01*
X5402429Y-15126476D01*
X5383381Y-15116952D01*
X5373857Y-15107428D01*
X5364333Y-15088381D01*
X5354810Y-15050286D01*
X5354810Y-15002667D01*
X5364333Y-14964571D01*
X5373857Y-14945524D01*
X5383381Y-14936000D01*
X5402429Y-14926476D01*
X5592905Y-14926476D02*
X5611952Y-14926476D01*
X5631000Y-14936000D01*
X5640524Y-14945524D01*
X5650048Y-14964571D01*
X5659571Y-15002667D01*
X5659571Y-15050286D01*
X5650048Y-15088381D01*
X5640524Y-15107428D01*
X5631000Y-15116952D01*
X5611952Y-15126476D01*
X5592905Y-15126476D01*
X5573857Y-15116952D01*
X5564333Y-15107428D01*
X5554810Y-15088381D01*
X5545286Y-15050286D01*
X5545286Y-15002667D01*
X5554810Y-14964571D01*
X5564333Y-14945524D01*
X5573857Y-14936000D01*
X5592905Y-14926476D01*
X5783381Y-14926476D02*
X5802428Y-14926476D01*
X5821476Y-14936000D01*
X5831000Y-14945524D01*
X5840524Y-14964571D01*
X5850048Y-15002667D01*
X5850048Y-15050286D01*
X5840524Y-15088381D01*
X5831000Y-15107428D01*
X5821476Y-15116952D01*
X5802428Y-15126476D01*
X5783381Y-15126476D01*
X5764333Y-15116952D01*
X5754809Y-15107428D01*
X5745286Y-15088381D01*
X5735762Y-15050286D01*
X5735762Y-15002667D01*
X5745286Y-14964571D01*
X5754809Y-14945524D01*
X5764333Y-14936000D01*
X5783381Y-14926476D01*
X5935762Y-15126476D02*
X5935762Y-14993143D01*
X5935762Y-15012190D02*
X5945286Y-15002667D01*
X5964333Y-14993143D01*
X5992905Y-14993143D01*
X6011952Y-15002667D01*
X6021476Y-15021714D01*
X6021476Y-15126476D01*
X6021476Y-15021714D02*
X6031000Y-15002667D01*
X6050048Y-14993143D01*
X6078619Y-14993143D01*
X6097667Y-15002667D01*
X6107190Y-15021714D01*
X6107190Y-15126476D01*
X6202428Y-15126476D02*
X6202428Y-14993143D01*
X6202428Y-15012190D02*
X6211952Y-15002667D01*
X6231000Y-14993143D01*
X6259571Y-14993143D01*
X6278619Y-15002667D01*
X6288143Y-15021714D01*
X6288143Y-15126476D01*
X6288143Y-15021714D02*
X6297667Y-15002667D01*
X6316714Y-14993143D01*
X6345286Y-14993143D01*
X6364333Y-15002667D01*
X6373857Y-15021714D01*
X6373857Y-15126476D01*
X6764333Y-14916952D02*
X6592905Y-15174095D01*
X7021476Y-14926476D02*
X7040524Y-14926476D01*
X7059571Y-14936000D01*
X7069095Y-14945524D01*
X7078619Y-14964571D01*
X7088143Y-15002667D01*
X7088143Y-15050286D01*
X7078619Y-15088381D01*
X7069095Y-15107428D01*
X7059571Y-15116952D01*
X7040524Y-15126476D01*
X7021476Y-15126476D01*
X7002428Y-15116952D01*
X6992905Y-15107428D01*
X6983381Y-15088381D01*
X6973857Y-15050286D01*
X6973857Y-15002667D01*
X6983381Y-14964571D01*
X6992905Y-14945524D01*
X7002428Y-14936000D01*
X7021476Y-14926476D01*
X7173857Y-15107428D02*
X7183381Y-15116952D01*
X7173857Y-15126476D01*
X7164333Y-15116952D01*
X7173857Y-15107428D01*
X7173857Y-15126476D01*
X7307190Y-14926476D02*
X7326238Y-14926476D01*
X7345286Y-14936000D01*
X7354809Y-14945524D01*
X7364333Y-14964571D01*
X7373857Y-15002667D01*
X7373857Y-15050286D01*
X7364333Y-15088381D01*
X7354809Y-15107428D01*
X7345286Y-15116952D01*
X7326238Y-15126476D01*
X7307190Y-15126476D01*
X7288143Y-15116952D01*
X7278619Y-15107428D01*
X7269095Y-15088381D01*
X7259571Y-15050286D01*
X7259571Y-15002667D01*
X7269095Y-14964571D01*
X7278619Y-14945524D01*
X7288143Y-14936000D01*
X7307190Y-14926476D01*
X7440524Y-14926476D02*
X7564333Y-14926476D01*
X7497667Y-15002667D01*
X7526238Y-15002667D01*
X7545286Y-15012190D01*
X7554809Y-15021714D01*
X7564333Y-15040762D01*
X7564333Y-15088381D01*
X7554809Y-15107428D01*
X7545286Y-15116952D01*
X7526238Y-15126476D01*
X7469095Y-15126476D01*
X7450048Y-15116952D01*
X7440524Y-15107428D01*
X7659571Y-15126476D02*
X7697667Y-15126476D01*
X7716714Y-15116952D01*
X7726238Y-15107428D01*
X7745286Y-15078857D01*
X7754809Y-15040762D01*
X7754809Y-14964571D01*
X7745286Y-14945524D01*
X7735762Y-14936000D01*
X7716714Y-14926476D01*
X7678619Y-14926476D01*
X7659571Y-14936000D01*
X7650048Y-14945524D01*
X7640524Y-14964571D01*
X7640524Y-15012190D01*
X7650048Y-15031238D01*
X7659571Y-15040762D01*
X7678619Y-15050286D01*
X7716714Y-15050286D01*
X7735762Y-15040762D01*
X7745286Y-15031238D01*
X7754809Y-15012190D01*
X7926238Y-14993143D02*
X7926238Y-15126476D01*
X7878619Y-14916952D02*
X7831000Y-15059809D01*
X7954809Y-15059809D01*
X8021476Y-14926476D02*
X8021476Y-14964571D01*
X8097667Y-14926476D02*
X8097667Y-14964571D01*
X8392905Y-15202667D02*
X8383381Y-15193143D01*
X8364333Y-15164571D01*
X8354809Y-15145524D01*
X8345286Y-15116952D01*
X8335762Y-15069333D01*
X8335762Y-15031238D01*
X8345286Y-14983619D01*
X8354809Y-14955048D01*
X8364333Y-14936000D01*
X8383381Y-14907428D01*
X8392905Y-14897905D01*
X8573857Y-15126476D02*
X8459571Y-15126476D01*
X8516714Y-15126476D02*
X8516714Y-14926476D01*
X8497667Y-14955048D01*
X8478619Y-14974095D01*
X8459571Y-14983619D01*
X8640524Y-14926476D02*
X8764333Y-14926476D01*
X8697667Y-15002667D01*
X8726238Y-15002667D01*
X8745286Y-15012190D01*
X8754810Y-15021714D01*
X8764333Y-15040762D01*
X8764333Y-15088381D01*
X8754810Y-15107428D01*
X8745286Y-15116952D01*
X8726238Y-15126476D01*
X8669095Y-15126476D01*
X8650048Y-15116952D01*
X8640524Y-15107428D01*
X9002429Y-15126476D02*
X9002429Y-14926476D01*
X9088143Y-15126476D02*
X9088143Y-15021714D01*
X9078619Y-15002667D01*
X9059571Y-14993143D01*
X9031000Y-14993143D01*
X9011952Y-15002667D01*
X9002429Y-15012190D01*
X9211952Y-15126476D02*
X9192905Y-15116952D01*
X9183381Y-15107428D01*
X9173857Y-15088381D01*
X9173857Y-15031238D01*
X9183381Y-15012190D01*
X9192905Y-15002667D01*
X9211952Y-14993143D01*
X9240524Y-14993143D01*
X9259571Y-15002667D01*
X9269095Y-15012190D01*
X9278619Y-15031238D01*
X9278619Y-15088381D01*
X9269095Y-15107428D01*
X9259571Y-15116952D01*
X9240524Y-15126476D01*
X9211952Y-15126476D01*
X9392905Y-15126476D02*
X9373857Y-15116952D01*
X9364333Y-15097905D01*
X9364333Y-14926476D01*
X9545286Y-15116952D02*
X9526238Y-15126476D01*
X9488143Y-15126476D01*
X9469095Y-15116952D01*
X9459571Y-15097905D01*
X9459571Y-15021714D01*
X9469095Y-15002667D01*
X9488143Y-14993143D01*
X9526238Y-14993143D01*
X9545286Y-15002667D01*
X9554810Y-15021714D01*
X9554810Y-15040762D01*
X9459571Y-15059809D01*
X9631000Y-15116952D02*
X9650048Y-15126476D01*
X9688143Y-15126476D01*
X9707190Y-15116952D01*
X9716714Y-15097905D01*
X9716714Y-15088381D01*
X9707190Y-15069333D01*
X9688143Y-15059809D01*
X9659571Y-15059809D01*
X9640524Y-15050286D01*
X9631000Y-15031238D01*
X9631000Y-15021714D01*
X9640524Y-15002667D01*
X9659571Y-14993143D01*
X9688143Y-14993143D01*
X9707190Y-15002667D01*
X9783381Y-15202667D02*
X9792905Y-15193143D01*
X9811952Y-15164571D01*
X9821476Y-15145524D01*
X9831000Y-15116952D01*
X9840524Y-15069333D01*
X9840524Y-15031238D01*
X9831000Y-14983619D01*
X9821476Y-14955048D01*
X9811952Y-14936000D01*
X9792905Y-14907428D01*
X9783381Y-14897905D01*
M02*
