%TF.GenerationSoftware,KiCad,Pcbnew,(6.0.9)*%
%TF.CreationDate,2025-05-26T15:32:56-04:00*%
%TF.ProjectId,Seven Segment Display,53657665-6e20-4536-9567-6d656e742044,1*%
%TF.SameCoordinates,Original*%
%TF.FileFunction,Copper,L4,Bot*%
%TF.FilePolarity,Positive*%
%FSLAX46Y46*%
G04 Gerber Fmt 4.6, Leading zero omitted, Abs format (unit mm)*
G04 Created by KiCad (PCBNEW (6.0.9)) date 2025-05-26 15:32:56*
%MOMM*%
%LPD*%
G01*
G04 APERTURE LIST*
%TA.AperFunction,ComponentPad*%
%ADD10R,1.600000X1.600000*%
%TD*%
%TA.AperFunction,ComponentPad*%
%ADD11O,1.600000X1.600000*%
%TD*%
%TA.AperFunction,ComponentPad*%
%ADD12C,1.400000*%
%TD*%
%TA.AperFunction,ComponentPad*%
%ADD13O,1.400000X1.400000*%
%TD*%
%TA.AperFunction,ComponentPad*%
%ADD14R,1.800000X1.800000*%
%TD*%
%TA.AperFunction,ComponentPad*%
%ADD15C,1.800000*%
%TD*%
%TA.AperFunction,ComponentPad*%
%ADD16R,1.700000X1.700000*%
%TD*%
%TA.AperFunction,ComponentPad*%
%ADD17O,1.700000X1.700000*%
%TD*%
%TA.AperFunction,ViaPad*%
%ADD18C,0.800000*%
%TD*%
%TA.AperFunction,Conductor*%
%ADD19C,0.250000*%
%TD*%
G04 APERTURE END LIST*
D10*
%TO.P,U19,1*%
%TO.N,Net-(U19-Pad1)*%
X76210000Y-88895000D03*
D11*
%TO.P,U19,2*%
%TO.N,Net-(U12-Pad3)*%
X76210000Y-91435000D03*
%TO.P,U19,3*%
%TO.N,G-segment*%
X76210000Y-93975000D03*
%TO.P,U19,4*%
%TO.N,B'*%
X76210000Y-96515000D03*
%TO.P,U19,5*%
%TO.N,D*%
X76210000Y-99055000D03*
%TO.P,U19,6*%
%TO.N,Net-(U11-Pad10)*%
X76210000Y-101595000D03*
%TO.P,U19,7,GND*%
%TO.N,GND*%
X76210000Y-104135000D03*
%TO.P,U19,8*%
%TO.N,Net-(U11-Pad12)*%
X83830000Y-104135000D03*
%TO.P,U19,9*%
%TO.N,B'*%
X83830000Y-101595000D03*
%TO.P,U19,10*%
%TO.N,D'*%
X83830000Y-99055000D03*
%TO.P,U19,11*%
%TO.N,Net-(U19-Pad1)*%
X83830000Y-96515000D03*
%TO.P,U19,12*%
%TO.N,Net-(U11-Pad8)*%
X83830000Y-93975000D03*
%TO.P,U19,13*%
%TO.N,Net-(U11-Pad11)*%
X83830000Y-91435000D03*
%TO.P,U19,14,VCC*%
%TO.N,+5V*%
X83830000Y-88895000D03*
%TD*%
D10*
%TO.P,U18,1*%
%TO.N,Net-(U18-Pad1)*%
X104150000Y-110485000D03*
D11*
%TO.P,U18,2*%
%TO.N,Net-(U10-Pad11)*%
X104150000Y-113025000D03*
%TO.P,U18,3*%
%TO.N,F-segment*%
X104150000Y-115565000D03*
%TO.P,U18,4*%
%TO.N,B'*%
X104150000Y-118105000D03*
%TO.P,U18,5*%
%TO.N,C*%
X104150000Y-120645000D03*
%TO.P,U18,6*%
%TO.N,Net-(U11-Pad2)*%
X104150000Y-123185000D03*
%TO.P,U18,7,GND*%
%TO.N,GND*%
X104150000Y-125725000D03*
%TO.P,U18,8*%
%TO.N,Net-(U10-Pad12)*%
X111770000Y-125725000D03*
%TO.P,U18,9*%
%TO.N,B*%
X111770000Y-123185000D03*
%TO.P,U18,10*%
%TO.N,C'*%
X111770000Y-120645000D03*
%TO.P,U18,11*%
%TO.N,Net-(U18-Pad1)*%
X111770000Y-118105000D03*
%TO.P,U18,12*%
%TO.N,Net-(U11-Pad3)*%
X111770000Y-115565000D03*
%TO.P,U18,13*%
%TO.N,Net-(U11-Pad6)*%
X111770000Y-113025000D03*
%TO.P,U18,14,VCC*%
%TO.N,+5V*%
X111770000Y-110485000D03*
%TD*%
D10*
%TO.P,U17,1*%
%TO.N,Net-(U17-Pad1)*%
X90180000Y-67305000D03*
D11*
%TO.P,U17,2*%
%TO.N,Net-(U16-Pad6)*%
X90180000Y-69845000D03*
%TO.P,U17,3*%
%TO.N,D-segment*%
X90180000Y-72385000D03*
%TO.P,U17,4*%
%TO.N,Net-(U17-Pad4)*%
X90180000Y-74925000D03*
%TO.P,U17,5*%
%TO.N,Net-(U10-Pad3)*%
X90180000Y-77465000D03*
%TO.P,U17,6*%
%TO.N,E-segment*%
X90180000Y-80005000D03*
%TO.P,U17,7,GND*%
%TO.N,GND*%
X90180000Y-82545000D03*
%TO.P,U17,8*%
%TO.N,Net-(U17-Pad8)*%
X97800000Y-82545000D03*
%TO.P,U17,9*%
%TO.N,B*%
X97800000Y-80005000D03*
%TO.P,U17,10*%
%TO.N,C*%
X97800000Y-77465000D03*
%TO.P,U17,11*%
%TO.N,Net-(U10-Pad1)*%
X97800000Y-74925000D03*
%TO.P,U17,12*%
%TO.N,C*%
X97800000Y-72385000D03*
%TO.P,U17,13*%
%TO.N,B'*%
X97800000Y-69845000D03*
%TO.P,U17,14,VCC*%
%TO.N,+5V*%
X97800000Y-67305000D03*
%TD*%
D10*
%TO.P,U16,1*%
%TO.N,Net-(U16-Pad1)*%
X104150000Y-88895000D03*
D11*
%TO.P,U16,2*%
%TO.N,Net-(U16-Pad2)*%
X104150000Y-91435000D03*
%TO.P,U16,3*%
%TO.N,Net-(U15-Pad4)*%
X104150000Y-93975000D03*
%TO.P,U16,4*%
%TO.N,Net-(U16-Pad4)*%
X104150000Y-96515000D03*
%TO.P,U16,5*%
%TO.N,Net-(U16-Pad5)*%
X104150000Y-99055000D03*
%TO.P,U16,6*%
%TO.N,Net-(U16-Pad6)*%
X104150000Y-101595000D03*
%TO.P,U16,7,GND*%
%TO.N,GND*%
X104150000Y-104135000D03*
%TO.P,U16,8*%
%TO.N,Net-(U16-Pad8)*%
X111770000Y-104135000D03*
%TO.P,U16,9*%
%TO.N,B'*%
X111770000Y-101595000D03*
%TO.P,U16,10*%
%TO.N,D'*%
X111770000Y-99055000D03*
%TO.P,U16,11*%
%TO.N,Net-(U16-Pad11)*%
X111770000Y-96515000D03*
%TO.P,U16,12*%
%TO.N,D*%
X111770000Y-93975000D03*
%TO.P,U16,13*%
%TO.N,A*%
X111770000Y-91435000D03*
%TO.P,U16,14,VCC*%
%TO.N,+5V*%
X111770000Y-88895000D03*
%TD*%
D10*
%TO.P,U15,1*%
%TO.N,C'*%
X104150000Y-67305000D03*
D11*
%TO.P,U15,2*%
%TO.N,D'*%
X104150000Y-69845000D03*
%TO.P,U15,3*%
%TO.N,Net-(U15-Pad3)*%
X104150000Y-72385000D03*
%TO.P,U15,4*%
%TO.N,Net-(U15-Pad4)*%
X104150000Y-74925000D03*
%TO.P,U15,5*%
%TO.N,Net-(U15-Pad5)*%
X104150000Y-77465000D03*
%TO.P,U15,6*%
%TO.N,C-segment*%
X104150000Y-80005000D03*
%TO.P,U15,7,GND*%
%TO.N,GND*%
X104150000Y-82545000D03*
%TO.P,U15,8*%
%TO.N,Net-(U15-Pad12)*%
X111770000Y-82545000D03*
%TO.P,U15,9*%
%TO.N,B*%
X111770000Y-80005000D03*
%TO.P,U15,10*%
%TO.N,C'*%
X111770000Y-77465000D03*
%TO.P,U15,11*%
%TO.N,Net-(U15-Pad11)*%
X111770000Y-74925000D03*
%TO.P,U15,12*%
%TO.N,Net-(U15-Pad12)*%
X111770000Y-72385000D03*
%TO.P,U15,13*%
%TO.N,D*%
X111770000Y-69845000D03*
%TO.P,U15,14,VCC*%
%TO.N,+5V*%
X111770000Y-67305000D03*
%TD*%
D10*
%TO.P,U14,1*%
%TO.N,Net-(U13-Pad11)*%
X76210000Y-67305000D03*
D11*
%TO.P,U14,2*%
%TO.N,Net-(U14-Pad2)*%
X76210000Y-69845000D03*
%TO.P,U14,3*%
%TO.N,A-segment*%
X76210000Y-72385000D03*
%TO.P,U14,4*%
%TO.N,Net-(U14-Pad4)*%
X76210000Y-74925000D03*
%TO.P,U14,5*%
%TO.N,Net-(U14-Pad5)*%
X76210000Y-77465000D03*
%TO.P,U14,6*%
%TO.N,Net-(U14-Pad12)*%
X76210000Y-80005000D03*
%TO.P,U14,7,GND*%
%TO.N,GND*%
X76210000Y-82545000D03*
%TO.P,U14,8*%
%TO.N,Net-(U14-Pad8)*%
X83830000Y-82545000D03*
%TO.P,U14,9*%
%TO.N,Net-(U14-Pad9)*%
X83830000Y-80005000D03*
%TO.P,U14,10*%
%TO.N,Net-(U14-Pad10)*%
X83830000Y-77465000D03*
%TO.P,U14,11*%
%TO.N,B-segment*%
X83830000Y-74925000D03*
%TO.P,U14,12*%
%TO.N,Net-(U14-Pad12)*%
X83830000Y-72385000D03*
%TO.P,U14,13*%
%TO.N,Net-(U14-Pad13)*%
X83830000Y-69845000D03*
%TO.P,U14,14,VCC*%
%TO.N,+5V*%
X83830000Y-67305000D03*
%TD*%
D10*
%TO.P,U13,1*%
%TO.N,Net-(U13-Pad1)*%
X62240000Y-67305000D03*
D11*
%TO.P,U13,2*%
%TO.N,D'*%
X62240000Y-69845000D03*
%TO.P,U13,3*%
%TO.N,Net-(U13-Pad3)*%
X62240000Y-72385000D03*
%TO.P,U13,4*%
%TO.N,Net-(U13-Pad4)*%
X62240000Y-74925000D03*
%TO.P,U13,5*%
%TO.N,C*%
X62240000Y-77465000D03*
%TO.P,U13,6*%
%TO.N,Net-(U13-Pad6)*%
X62240000Y-80005000D03*
%TO.P,U13,7,GND*%
%TO.N,GND*%
X62240000Y-82545000D03*
%TO.P,U13,8*%
%TO.N,Net-(U13-Pad12)*%
X69860000Y-82545000D03*
%TO.P,U13,9*%
%TO.N,Net-(U13-Pad9)*%
X69860000Y-80005000D03*
%TO.P,U13,10*%
%TO.N,Net-(U13-Pad10)*%
X69860000Y-77465000D03*
%TO.P,U13,11*%
%TO.N,Net-(U13-Pad11)*%
X69860000Y-74925000D03*
%TO.P,U13,12*%
%TO.N,Net-(U13-Pad12)*%
X69860000Y-72385000D03*
%TO.P,U13,13*%
%TO.N,Net-(U13-Pad13)*%
X69860000Y-69845000D03*
%TO.P,U13,14,VCC*%
%TO.N,+5V*%
X69860000Y-67305000D03*
%TD*%
D10*
%TO.P,U12,1*%
%TO.N,Net-(U12-Pad1)*%
X62240000Y-88895000D03*
D11*
%TO.P,U12,2*%
%TO.N,C'*%
X62240000Y-91435000D03*
%TO.P,U12,3*%
%TO.N,Net-(U12-Pad3)*%
X62240000Y-93975000D03*
%TO.P,U12,4*%
%TO.N,A'*%
X62240000Y-96515000D03*
%TO.P,U12,5*%
%TO.N,B*%
X62240000Y-99055000D03*
%TO.P,U12,6*%
%TO.N,Net-(U12-Pad1)*%
X62240000Y-101595000D03*
%TO.P,U12,7,GND*%
%TO.N,GND*%
X62240000Y-104135000D03*
%TO.P,U12,8*%
%TO.N,unconnected-(U12-Pad8)*%
X69860000Y-104135000D03*
%TO.P,U12,9*%
%TO.N,unconnected-(U12-Pad9)*%
X69860000Y-101595000D03*
%TO.P,U12,10*%
%TO.N,unconnected-(U12-Pad10)*%
X69860000Y-99055000D03*
%TO.P,U12,11*%
%TO.N,unconnected-(U12-Pad11)*%
X69860000Y-96515000D03*
%TO.P,U12,12*%
%TO.N,unconnected-(U12-Pad12)*%
X69860000Y-93975000D03*
%TO.P,U12,13*%
%TO.N,unconnected-(U12-Pad13)*%
X69860000Y-91435000D03*
%TO.P,U12,14,VCC*%
%TO.N,+5V*%
X69860000Y-88895000D03*
%TD*%
D10*
%TO.P,U11,1*%
%TO.N,Net-(U10-Pad6)*%
X90180000Y-110485000D03*
D11*
%TO.P,U11,2*%
%TO.N,Net-(U11-Pad2)*%
X90180000Y-113025000D03*
%TO.P,U11,3*%
%TO.N,Net-(U11-Pad3)*%
X90180000Y-115565000D03*
%TO.P,U11,4*%
%TO.N,Net-(U10-Pad8)*%
X90180000Y-118105000D03*
%TO.P,U11,5*%
%TO.N,C'*%
X90180000Y-120645000D03*
%TO.P,U11,6*%
%TO.N,Net-(U11-Pad6)*%
X90180000Y-123185000D03*
%TO.P,U11,7,GND*%
%TO.N,GND*%
X90180000Y-125725000D03*
%TO.P,U11,8*%
%TO.N,Net-(U11-Pad8)*%
X97800000Y-125725000D03*
%TO.P,U11,9*%
%TO.N,A*%
X97800000Y-123185000D03*
%TO.P,U11,10*%
%TO.N,Net-(U11-Pad10)*%
X97800000Y-120645000D03*
%TO.P,U11,11*%
%TO.N,Net-(U11-Pad11)*%
X97800000Y-118105000D03*
%TO.P,U11,12*%
%TO.N,Net-(U11-Pad12)*%
X97800000Y-115565000D03*
%TO.P,U11,13*%
%TO.N,C*%
X97800000Y-113025000D03*
%TO.P,U11,14,VCC*%
%TO.N,+5V*%
X97800000Y-110485000D03*
%TD*%
D10*
%TO.P,U10,1*%
%TO.N,Net-(U10-Pad1)*%
X76210000Y-110485000D03*
D11*
%TO.P,U10,2*%
%TO.N,D'*%
X76210000Y-113025000D03*
%TO.P,U10,3*%
%TO.N,Net-(U10-Pad3)*%
X76210000Y-115565000D03*
%TO.P,U10,4*%
%TO.N,A*%
X76210000Y-118105000D03*
%TO.P,U10,5*%
%TO.N,D*%
X76210000Y-120645000D03*
%TO.P,U10,6*%
%TO.N,Net-(U10-Pad6)*%
X76210000Y-123185000D03*
%TO.P,U10,7,GND*%
%TO.N,GND*%
X76210000Y-125725000D03*
%TO.P,U10,8*%
%TO.N,Net-(U10-Pad8)*%
X83830000Y-125725000D03*
%TO.P,U10,9*%
%TO.N,A'*%
X83830000Y-123185000D03*
%TO.P,U10,10*%
%TO.N,B*%
X83830000Y-120645000D03*
%TO.P,U10,11*%
%TO.N,Net-(U10-Pad11)*%
X83830000Y-118105000D03*
%TO.P,U10,12*%
%TO.N,Net-(U10-Pad12)*%
X83830000Y-115565000D03*
%TO.P,U10,13*%
%TO.N,D'*%
X83830000Y-113025000D03*
%TO.P,U10,14,VCC*%
%TO.N,+5V*%
X83830000Y-110485000D03*
%TD*%
D10*
%TO.P,U9,1*%
%TO.N,C*%
X62240000Y-110485000D03*
D11*
%TO.P,U9,2*%
%TO.N,Net-(U16-Pad8)*%
X62240000Y-113025000D03*
%TO.P,U9,3*%
%TO.N,Net-(U16-Pad5)*%
X62240000Y-115565000D03*
%TO.P,U9,4*%
%TO.N,Net-(U9-Pad4)*%
X62240000Y-118105000D03*
%TO.P,U9,5*%
%TO.N,Net-(U16-Pad11)*%
X62240000Y-120645000D03*
%TO.P,U9,6*%
%TO.N,Net-(U16-Pad4)*%
X62240000Y-123185000D03*
%TO.P,U9,7,GND*%
%TO.N,GND*%
X62240000Y-125725000D03*
%TO.P,U9,8*%
%TO.N,Net-(U9-Pad4)*%
X69860000Y-125725000D03*
%TO.P,U9,9*%
%TO.N,B*%
X69860000Y-123185000D03*
%TO.P,U9,10*%
%TO.N,C'*%
X69860000Y-120645000D03*
%TO.P,U9,11*%
%TO.N,Net-(U17-Pad4)*%
X69860000Y-118105000D03*
%TO.P,U9,12*%
%TO.N,A*%
X69860000Y-115565000D03*
%TO.P,U9,13*%
%TO.N,Net-(U17-Pad8)*%
X69860000Y-113025000D03*
%TO.P,U9,14,VCC*%
%TO.N,+5V*%
X69860000Y-110485000D03*
%TD*%
D10*
%TO.P,U8,1*%
%TO.N,A*%
X90180000Y-88895000D03*
D11*
%TO.P,U8,2*%
%TO.N,B'*%
X90180000Y-91435000D03*
%TO.P,U8,3*%
%TO.N,Net-(U16-Pad1)*%
X90180000Y-93975000D03*
%TO.P,U8,4*%
%TO.N,A'*%
X90180000Y-96515000D03*
%TO.P,U8,5*%
%TO.N,Net-(U15-Pad11)*%
X90180000Y-99055000D03*
%TO.P,U8,6*%
%TO.N,Net-(U16-Pad2)*%
X90180000Y-101595000D03*
%TO.P,U8,7,GND*%
%TO.N,GND*%
X90180000Y-104135000D03*
%TO.P,U8,8*%
%TO.N,Net-(U15-Pad5)*%
X97800000Y-104135000D03*
%TO.P,U8,9*%
%TO.N,C'*%
X97800000Y-101595000D03*
%TO.P,U8,10*%
%TO.N,D*%
X97800000Y-99055000D03*
%TO.P,U8,11*%
%TO.N,Net-(U17-Pad1)*%
X97800000Y-96515000D03*
%TO.P,U8,12*%
%TO.N,B'*%
X97800000Y-93975000D03*
%TO.P,U8,13*%
%TO.N,D'*%
X97800000Y-91435000D03*
%TO.P,U8,14,VCC*%
%TO.N,+5V*%
X97800000Y-88895000D03*
%TD*%
D10*
%TO.P,U7,1*%
%TO.N,C'*%
X104140000Y-46985000D03*
D11*
%TO.P,U7,2*%
%TO.N,D'*%
X104140000Y-49525000D03*
%TO.P,U7,3*%
%TO.N,Net-(U14-Pad10)*%
X104140000Y-52065000D03*
%TO.P,U7,4*%
%TO.N,Net-(U6-Pad8)*%
X104140000Y-54605000D03*
%TO.P,U7,5*%
%TO.N,D*%
X104140000Y-57145000D03*
%TO.P,U7,6*%
%TO.N,Net-(U14-Pad4)*%
X104140000Y-59685000D03*
%TO.P,U7,7,GND*%
%TO.N,GND*%
X104140000Y-62225000D03*
%TO.P,U7,8*%
%TO.N,Net-(U14-Pad5)*%
X111760000Y-62225000D03*
%TO.P,U7,9*%
%TO.N,A'*%
X111760000Y-59685000D03*
%TO.P,U7,10*%
%TO.N,Net-(U14-Pad8)*%
X111760000Y-57145000D03*
%TO.P,U7,11*%
%TO.N,Net-(U14-Pad13)*%
X111760000Y-54605000D03*
%TO.P,U7,12*%
%TO.N,Net-(U15-Pad3)*%
X111760000Y-52065000D03*
%TO.P,U7,13*%
%TO.N,B'*%
X111760000Y-49525000D03*
%TO.P,U7,14,VCC*%
%TO.N,+5V*%
X111760000Y-46985000D03*
%TD*%
D10*
%TO.P,U6,1*%
%TO.N,A'*%
X76210000Y-46985000D03*
D11*
%TO.P,U6,2*%
%TO.N,Net-(U13-Pad6)*%
X76210000Y-49525000D03*
%TO.P,U6,3*%
%TO.N,Net-(U13-Pad9)*%
X76210000Y-52065000D03*
%TO.P,U6,4*%
%TO.N,A*%
X76210000Y-54605000D03*
%TO.P,U6,5*%
%TO.N,Net-(U13-Pad3)*%
X76210000Y-57145000D03*
%TO.P,U6,6*%
%TO.N,Net-(U13-Pad10)*%
X76210000Y-59685000D03*
%TO.P,U6,7,GND*%
%TO.N,GND*%
X76210000Y-62225000D03*
%TO.P,U6,8*%
%TO.N,Net-(U6-Pad8)*%
X83830000Y-62225000D03*
%TO.P,U6,9*%
%TO.N,A*%
X83830000Y-59685000D03*
%TO.P,U6,10*%
%TO.N,C'*%
X83830000Y-57145000D03*
%TO.P,U6,11*%
%TO.N,Net-(U14-Pad9)*%
X83830000Y-54605000D03*
%TO.P,U6,12*%
%TO.N,C*%
X83830000Y-52065000D03*
%TO.P,U6,13*%
%TO.N,D*%
X83830000Y-49525000D03*
%TO.P,U6,14,VCC*%
%TO.N,+5V*%
X83830000Y-46985000D03*
%TD*%
D10*
%TO.P,U1,1*%
%TO.N,A*%
X90180000Y-46985000D03*
D11*
%TO.P,U1,2*%
%TO.N,A'*%
X90180000Y-49525000D03*
%TO.P,U1,3*%
%TO.N,B*%
X90180000Y-52065000D03*
%TO.P,U1,4*%
%TO.N,B'*%
X90180000Y-54605000D03*
%TO.P,U1,5*%
%TO.N,C*%
X90180000Y-57145000D03*
%TO.P,U1,6*%
%TO.N,C'*%
X90180000Y-59685000D03*
%TO.P,U1,7,GND*%
%TO.N,GND*%
X90180000Y-62225000D03*
%TO.P,U1,8*%
%TO.N,D'*%
X97800000Y-62225000D03*
%TO.P,U1,9*%
%TO.N,D*%
X97800000Y-59685000D03*
%TO.P,U1,10*%
%TO.N,N/C*%
X97800000Y-57145000D03*
%TO.P,U1,11*%
X97800000Y-54605000D03*
%TO.P,U1,12*%
X97800000Y-52065000D03*
%TO.P,U1,13*%
X97800000Y-49525000D03*
%TO.P,U1,14,VCC*%
%TO.N,+5V*%
X97800000Y-46985000D03*
%TD*%
D10*
%TO.P,U5,1*%
%TO.N,B*%
X62240000Y-46985000D03*
D11*
%TO.P,U5,2*%
%TO.N,D*%
X62240000Y-49525000D03*
%TO.P,U5,3*%
%TO.N,Net-(U13-Pad4)*%
X62240000Y-52065000D03*
%TO.P,U5,4*%
%TO.N,B'*%
X62240000Y-54605000D03*
%TO.P,U5,5*%
%TO.N,C'*%
X62240000Y-57145000D03*
%TO.P,U5,6*%
%TO.N,Net-(U13-Pad1)*%
X62240000Y-59685000D03*
%TO.P,U5,7,GND*%
%TO.N,GND*%
X62240000Y-62225000D03*
%TO.P,U5,8*%
%TO.N,Net-(U13-Pad13)*%
X69860000Y-62225000D03*
%TO.P,U5,9*%
%TO.N,B'*%
X69860000Y-59685000D03*
%TO.P,U5,10*%
%TO.N,D'*%
X69860000Y-57145000D03*
%TO.P,U5,11*%
%TO.N,Net-(U14-Pad2)*%
X69860000Y-54605000D03*
%TO.P,U5,12*%
%TO.N,B*%
X69860000Y-52065000D03*
%TO.P,U5,13*%
%TO.N,C*%
X69860000Y-49525000D03*
%TO.P,U5,14,VCC*%
%TO.N,+5V*%
X69860000Y-46985000D03*
%TD*%
D12*
%TO.P,R1,1*%
%TO.N,GND*%
X55810000Y-61620000D03*
D13*
%TO.P,R1,2*%
%TO.N,Net-(D1-Pad1)*%
X55810000Y-66700000D03*
%TD*%
D14*
%TO.P,D1,1,K*%
%TO.N,Net-(D1-Pad1)*%
X55880000Y-69850000D03*
D15*
%TO.P,D1,2,A*%
%TO.N,+5V*%
X55880000Y-72390000D03*
%TD*%
D16*
%TO.P,J1,1,Pin_1*%
%TO.N,+5V*%
X53340000Y-80010000D03*
D17*
%TO.P,J1,2,Pin_2*%
%TO.N,A*%
X53340000Y-82550000D03*
%TO.P,J1,3,Pin_3*%
%TO.N,B*%
X53340000Y-85090000D03*
%TO.P,J1,4,Pin_4*%
%TO.N,C*%
X53340000Y-87630000D03*
%TO.P,J1,5,Pin_5*%
%TO.N,D*%
X53340000Y-90170000D03*
%TO.P,J1,6,Pin_6*%
%TO.N,GND*%
X53340000Y-92710000D03*
%TD*%
%TO.P,J2,7,Pin_7*%
%TO.N,G-segment*%
X119380000Y-92705000D03*
%TO.P,J2,6,Pin_6*%
%TO.N,F-segment*%
X119380000Y-90165000D03*
%TO.P,J2,5,Pin_5*%
%TO.N,E-segment*%
X119380000Y-87625000D03*
%TO.P,J2,4,Pin_4*%
%TO.N,D-segment*%
X119380000Y-85085000D03*
%TO.P,J2,3,Pin_3*%
%TO.N,C-segment*%
X119380000Y-82545000D03*
%TO.P,J2,2,Pin_2*%
%TO.N,B-segment*%
X119380000Y-80005000D03*
D16*
%TO.P,J2,1,Pin_1*%
%TO.N,A-segment*%
X119380000Y-77465000D03*
%TD*%
D18*
%TO.N,Net-(U15-Pad4)*%
X107950000Y-100330000D03*
X107950000Y-88900000D03*
%TO.N,+5V*%
X102870000Y-86360000D03*
X100330000Y-125730000D03*
%TO.N,A'*%
X88080000Y-117660000D03*
%TO.N,+5V*%
X67310000Y-125730000D03*
%TO.N,GND*%
X96520000Y-83820000D03*
%TO.N,D-segment*%
X92710000Y-74930000D03*
%TO.N,B-segment*%
X104140000Y-64770000D03*
%TO.N,Net-(U10-Pad6)*%
X71665500Y-109220000D03*
%TO.N,Net-(U16-Pad5)*%
X101600000Y-110490000D03*
%TO.N,Net-(U16-Pad4)*%
X114300000Y-118110000D03*
%TO.N,Net-(U11-Pad11)*%
X105410000Y-86360000D03*
%TO.N,Net-(U11-Pad8)*%
X81280000Y-128270000D03*
%TO.N,Net-(U11-Pad10)*%
X80010000Y-130810000D03*
X95250000Y-130810000D03*
%TO.N,Net-(U11-Pad12)*%
X86360000Y-118110000D03*
%TO.N,Net-(U16-Pad1)*%
X99060000Y-86360000D03*
%TO.N,Net-(U16-Pad2)*%
X109220000Y-95250000D03*
X99060000Y-100330000D03*
%TO.N,Net-(U11-Pad6)*%
X107950000Y-124460000D03*
%TO.N,Net-(U16-Pad8)*%
X64770000Y-106680000D03*
%TO.N,Net-(U15-Pad11)*%
X116840000Y-76200000D03*
X115570000Y-106680000D03*
X88804500Y-108957343D03*
%TO.N,Net-(U15-Pad5)*%
X106680000Y-96520000D03*
%TO.N,Net-(U17-Pad4)*%
X85090000Y-86360000D03*
X73660000Y-86360000D03*
%TO.N,Net-(U13-Pad11)*%
X80010000Y-68580000D03*
X80010000Y-74930000D03*
%TO.N,A*%
X95250000Y-116840000D03*
%TO.N,B*%
X81280000Y-124460000D03*
%TO.N,C*%
X81280000Y-49530000D03*
X93980000Y-71120000D03*
X93980000Y-76200000D03*
X91440000Y-107950000D03*
%TO.N,D*%
X93980000Y-52070000D03*
%TO.N,A'*%
X59690000Y-86360000D03*
X107950000Y-52070000D03*
X78740000Y-85090000D03*
X92710000Y-85364500D03*
%TO.N,C'*%
X100330000Y-55880000D03*
X67310000Y-101600000D03*
%TO.N,D'*%
X72390000Y-62230000D03*
X107950000Y-92710000D03*
X87630000Y-91440000D03*
%TO.N,Net-(U13-Pad3)*%
X75386995Y-73793067D03*
%TO.N,Net-(U14-Pad4)*%
X106680000Y-72390000D03*
%TO.N,Net-(U14-Pad5)*%
X114300000Y-77470000D03*
%TO.N,Net-(U14-Pad8)*%
X115570000Y-83820000D03*
%TO.N,Net-(U14-Pad13)*%
X116840000Y-67310000D03*
%TD*%
D19*
%TO.N,A*%
X68585000Y-116840000D02*
X69860000Y-115565000D01*
X59690000Y-116840000D02*
X68585000Y-116840000D01*
X49530000Y-85090000D02*
X49530000Y-106680000D01*
X52070000Y-82550000D02*
X49530000Y-85090000D01*
X49530000Y-106680000D02*
X59690000Y-116840000D01*
X53340000Y-82550000D02*
X52070000Y-82550000D01*
%TO.N,B*%
X57150000Y-87630000D02*
X54610000Y-85090000D01*
X60960000Y-97790000D02*
X57150000Y-93980000D01*
X57150000Y-93980000D02*
X57150000Y-87630000D01*
X60975000Y-97790000D02*
X60960000Y-97790000D01*
X62240000Y-99055000D02*
X60975000Y-97790000D01*
X54610000Y-85090000D02*
X53340000Y-85090000D01*
%TO.N,G-segment*%
X110495000Y-92705000D02*
X119380000Y-92705000D01*
X107858604Y-93435000D02*
X109765000Y-93435000D01*
X98115991Y-97790000D02*
X100805991Y-95100000D01*
X106193604Y-95100000D02*
X107858604Y-93435000D01*
X82550000Y-97790000D02*
X98115991Y-97790000D01*
X78735000Y-93975000D02*
X82550000Y-97790000D01*
X100805991Y-95100000D02*
X106193604Y-95100000D01*
X76210000Y-93975000D02*
X78735000Y-93975000D01*
X109765000Y-93435000D02*
X110495000Y-92705000D01*
%TO.N,D-segment*%
X95250000Y-74930000D02*
X92710000Y-74930000D01*
X114305000Y-76200000D02*
X96520000Y-76200000D01*
X96520000Y-76200000D02*
X95250000Y-74930000D01*
X116840000Y-82545000D02*
X116840000Y-78735000D01*
X119380000Y-85085000D02*
X116840000Y-82545000D01*
X116840000Y-78735000D02*
X114305000Y-76200000D01*
%TO.N,E-segment*%
X115570000Y-82550000D02*
X114300000Y-82550000D01*
X116840000Y-83820000D02*
X115570000Y-82550000D01*
X116840000Y-85085000D02*
X116840000Y-83820000D01*
X116840000Y-85085000D02*
X119380000Y-87625000D01*
X113030000Y-83820000D02*
X114300000Y-82550000D01*
X95250000Y-81280000D02*
X100330000Y-81280000D01*
X100330000Y-81280000D02*
X102870000Y-83820000D01*
X102870000Y-83820000D02*
X113030000Y-83820000D01*
X93975000Y-80005000D02*
X95250000Y-81280000D01*
X90180000Y-80005000D02*
X93975000Y-80005000D01*
%TO.N,A-segment*%
X119380000Y-76200000D02*
X119380000Y-77465000D01*
X95250000Y-69850000D02*
X96520000Y-71120000D01*
X114300000Y-71120000D02*
X119380000Y-76200000D01*
X78745000Y-72385000D02*
X80010000Y-71120000D01*
X80010000Y-71120000D02*
X92710000Y-71120000D01*
X76210000Y-72385000D02*
X78745000Y-72385000D01*
X92710000Y-71120000D02*
X93980000Y-69850000D01*
X93980000Y-69850000D02*
X95250000Y-69850000D01*
X96520000Y-71120000D02*
X114300000Y-71120000D01*
%TO.N,+5V*%
X64770000Y-71120000D02*
X68585000Y-67305000D01*
X59690000Y-71120000D02*
X64770000Y-71120000D01*
X58420000Y-72390000D02*
X59690000Y-71120000D01*
X68585000Y-67305000D02*
X69860000Y-67305000D01*
X55880000Y-72390000D02*
X58420000Y-72390000D01*
X109235000Y-107950000D02*
X111770000Y-110485000D01*
X100330000Y-107955000D02*
X100330000Y-107950000D01*
X97800000Y-110485000D02*
X100330000Y-107955000D01*
X100330000Y-107950000D02*
X109235000Y-107950000D01*
X82565000Y-87630000D02*
X83830000Y-88895000D01*
X73660000Y-87630000D02*
X82565000Y-87630000D01*
X72395000Y-88895000D02*
X73660000Y-87630000D01*
X69860000Y-88895000D02*
X72395000Y-88895000D01*
X70985000Y-66180000D02*
X69860000Y-67305000D01*
X82705000Y-66180000D02*
X70985000Y-66180000D01*
X83830000Y-67305000D02*
X82705000Y-66180000D01*
X85095000Y-66040000D02*
X83830000Y-67305000D01*
X95250000Y-66040000D02*
X85095000Y-66040000D01*
X96515000Y-67305000D02*
X95250000Y-66040000D01*
X97800000Y-67305000D02*
X96515000Y-67305000D01*
X100330000Y-44450000D02*
X109225000Y-44450000D01*
X100330000Y-44455000D02*
X100330000Y-44450000D01*
X97800000Y-46985000D02*
X100330000Y-44455000D01*
X109225000Y-44450000D02*
X111760000Y-46985000D01*
X95265000Y-44450000D02*
X97800000Y-46985000D01*
X86360000Y-44450000D02*
X95265000Y-44450000D01*
X86360000Y-44455000D02*
X86360000Y-44450000D01*
X83830000Y-46985000D02*
X86360000Y-44455000D01*
X81295000Y-44450000D02*
X83830000Y-46985000D01*
X72390000Y-44455000D02*
X72390000Y-44450000D01*
X72390000Y-44450000D02*
X81295000Y-44450000D01*
X69860000Y-46985000D02*
X72390000Y-44455000D01*
%TO.N,GND*%
X64770000Y-128255000D02*
X62240000Y-125725000D01*
X72390000Y-128270000D02*
X64770000Y-128270000D01*
X74935000Y-125725000D02*
X72390000Y-128270000D01*
X76210000Y-125725000D02*
X74935000Y-125725000D01*
X64770000Y-128270000D02*
X64770000Y-128255000D01*
X91440000Y-126985000D02*
X90180000Y-125725000D01*
X91440000Y-127000000D02*
X91440000Y-126985000D01*
X102875000Y-127000000D02*
X91440000Y-127000000D01*
X104150000Y-125725000D02*
X102875000Y-127000000D01*
X102885000Y-102870000D02*
X104150000Y-104135000D01*
X95250000Y-102870000D02*
X102885000Y-102870000D01*
X93985000Y-104135000D02*
X95250000Y-102870000D01*
X90180000Y-104135000D02*
X93985000Y-104135000D01*
X85723604Y-105410000D02*
X86998604Y-104135000D01*
X80010000Y-105410000D02*
X85723604Y-105410000D01*
X78735000Y-104135000D02*
X80010000Y-105410000D01*
X76210000Y-104135000D02*
X78735000Y-104135000D01*
X86998604Y-104135000D02*
X90180000Y-104135000D01*
X74935000Y-105410000D02*
X76210000Y-104135000D01*
X67310000Y-105410000D02*
X74935000Y-105410000D01*
X66035000Y-104135000D02*
X67310000Y-105410000D01*
X62240000Y-104135000D02*
X66035000Y-104135000D01*
X63505000Y-81280000D02*
X62240000Y-82545000D01*
X72390000Y-81280000D02*
X63505000Y-81280000D01*
X73655000Y-82545000D02*
X72390000Y-81280000D01*
X76210000Y-82545000D02*
X73655000Y-82545000D01*
X77475000Y-81280000D02*
X76210000Y-82545000D01*
X87630000Y-81280000D02*
X77475000Y-81280000D01*
X88895000Y-82545000D02*
X87630000Y-81280000D01*
X90180000Y-82545000D02*
X88895000Y-82545000D01*
X95245000Y-82545000D02*
X90180000Y-82545000D01*
X96520000Y-83820000D02*
X95245000Y-82545000D01*
X102875000Y-60960000D02*
X104140000Y-62225000D01*
X93980000Y-62230000D02*
X95250000Y-60960000D01*
X93975000Y-62225000D02*
X93980000Y-62230000D01*
X90180000Y-62225000D02*
X93975000Y-62225000D01*
X95250000Y-60960000D02*
X102875000Y-60960000D01*
X88905000Y-62225000D02*
X90180000Y-62225000D01*
X87630000Y-63500000D02*
X88905000Y-62225000D01*
X78740000Y-63500000D02*
X87630000Y-63500000D01*
X77465000Y-62225000D02*
X78740000Y-63500000D01*
X76210000Y-62225000D02*
X77465000Y-62225000D01*
X74945000Y-60960000D02*
X76210000Y-62225000D01*
X68580000Y-60960000D02*
X74945000Y-60960000D01*
X67315000Y-62225000D02*
X68580000Y-60960000D01*
X62240000Y-62225000D02*
X67315000Y-62225000D01*
%TO.N,D*%
X99065000Y-97790000D02*
X97800000Y-99055000D01*
X105410000Y-97790000D02*
X99065000Y-97790000D01*
X107955000Y-93975000D02*
X105410000Y-96520000D01*
X105410000Y-96520000D02*
X105410000Y-97790000D01*
X111770000Y-93975000D02*
X107955000Y-93975000D01*
%TO.N,Net-(U13-Pad3)*%
X66035000Y-72385000D02*
X62240000Y-72385000D01*
X67310000Y-73660000D02*
X66035000Y-72385000D01*
X75386995Y-73793067D02*
X75253928Y-73660000D01*
X75253928Y-73660000D02*
X67310000Y-73660000D01*
%TO.N,Net-(U10-Pad6)*%
X87625000Y-110485000D02*
X90180000Y-110485000D01*
X86360000Y-109220000D02*
X87625000Y-110485000D01*
X71665500Y-109220000D02*
X86360000Y-109220000D01*
%TO.N,Net-(U12-Pad3)*%
X72390000Y-92710000D02*
X63505000Y-92710000D01*
X63505000Y-92710000D02*
X62240000Y-93975000D01*
X73665000Y-91435000D02*
X72390000Y-92710000D01*
X76210000Y-91435000D02*
X73665000Y-91435000D01*
%TO.N,Net-(U16-Pad5)*%
X100330000Y-111760000D02*
X66045000Y-111760000D01*
X66045000Y-111760000D02*
X62240000Y-115565000D01*
X101600000Y-110490000D02*
X100330000Y-111760000D01*
%TO.N,Net-(U16-Pad4)*%
X66045000Y-119380000D02*
X62240000Y-123185000D01*
X113030000Y-119380000D02*
X66045000Y-119380000D01*
X114300000Y-118110000D02*
X113030000Y-119380000D01*
%TO.N,Net-(U11-Pad11)*%
X88900000Y-86360000D02*
X88900000Y-86365000D01*
X88900000Y-86365000D02*
X83830000Y-91435000D01*
X97790000Y-85090000D02*
X96520000Y-86360000D01*
X96520000Y-86360000D02*
X88900000Y-86360000D01*
X104140000Y-85090000D02*
X97790000Y-85090000D01*
X105410000Y-86360000D02*
X104140000Y-85090000D01*
%TO.N,A'*%
X92435500Y-85090000D02*
X78740000Y-85090000D01*
X92710000Y-85364500D02*
X92435500Y-85090000D01*
%TO.N,Net-(U11-Pad10)*%
X95250000Y-130810000D02*
X80010000Y-130810000D01*
%TO.N,Net-(U19-Pad1)*%
X83830000Y-96515000D02*
X76210000Y-88895000D01*
%TO.N,Net-(U16-Pad1)*%
X99060000Y-86360000D02*
X101595000Y-88895000D01*
X101595000Y-88895000D02*
X104150000Y-88895000D01*
%TO.N,Net-(U16-Pad2)*%
X109220000Y-95575991D02*
X109220000Y-95250000D01*
X104465991Y-100330000D02*
X109220000Y-95575991D01*
X99060000Y-100330000D02*
X104465991Y-100330000D01*
%TO.N,Net-(U11-Pad3)*%
X91445000Y-114300000D02*
X90180000Y-115565000D01*
X107950000Y-114300000D02*
X91445000Y-114300000D01*
X109215000Y-115565000D02*
X107950000Y-114300000D01*
X111770000Y-115565000D02*
X109215000Y-115565000D01*
%TO.N,Net-(U11-Pad6)*%
X92705000Y-123185000D02*
X93980000Y-124460000D01*
X93980000Y-124460000D02*
X107950000Y-124460000D01*
X90180000Y-123185000D02*
X92705000Y-123185000D01*
%TO.N,B*%
X84784009Y-128270000D02*
X81280000Y-124765991D01*
X110495000Y-123185000D02*
X105410000Y-128270000D01*
X105410000Y-128270000D02*
X84784009Y-128270000D01*
X81280000Y-124765991D02*
X81280000Y-124460000D01*
X111770000Y-123185000D02*
X110495000Y-123185000D01*
%TO.N,Net-(U16-Pad8)*%
X109225000Y-104135000D02*
X111770000Y-104135000D01*
X86360000Y-105410000D02*
X107950000Y-105410000D01*
X85090000Y-106680000D02*
X86360000Y-105410000D01*
X64770000Y-106680000D02*
X85090000Y-106680000D01*
X107950000Y-105410000D02*
X109225000Y-104135000D01*
%TO.N,Net-(U15-Pad11)*%
X91702657Y-108957343D02*
X93980000Y-106680000D01*
X93980000Y-106680000D02*
X115570000Y-106680000D01*
X88804500Y-108957343D02*
X91702657Y-108957343D01*
%TO.N,C*%
X64775000Y-107950000D02*
X62240000Y-110485000D01*
X91440000Y-107950000D02*
X64775000Y-107950000D01*
%TO.N,Net-(U15-Pad11)*%
X115565000Y-74925000D02*
X111770000Y-74925000D01*
X116840000Y-76200000D02*
X115565000Y-74925000D01*
%TO.N,Net-(U17-Pad4)*%
X73660000Y-86360000D02*
X85090000Y-86360000D01*
%TO.N,Net-(U13-Pad11)*%
X78735000Y-67305000D02*
X76210000Y-67305000D01*
X80010000Y-68580000D02*
X78735000Y-67305000D01*
X72390000Y-76200000D02*
X78740000Y-76200000D01*
X71115000Y-74925000D02*
X72390000Y-76200000D01*
X78740000Y-76200000D02*
X80010000Y-74930000D01*
X69860000Y-74925000D02*
X71115000Y-74925000D01*
%TO.N,A*%
X69860000Y-115565000D02*
X71115000Y-115565000D01*
X76210000Y-118105000D02*
X78745000Y-118105000D01*
X110505000Y-90170000D02*
X111770000Y-91435000D01*
X90180000Y-88895000D02*
X96209009Y-88895000D01*
X71115000Y-115565000D02*
X73660000Y-118110000D01*
X97484009Y-90170000D02*
X110505000Y-90170000D01*
X73660000Y-118110000D02*
X73665000Y-118105000D01*
X96209009Y-88895000D02*
X97484009Y-90170000D01*
X73665000Y-118105000D02*
X76210000Y-118105000D01*
X80010000Y-116840000D02*
X95250000Y-116840000D01*
X78745000Y-118105000D02*
X80010000Y-116840000D01*
%TO.N,B*%
X86360000Y-53340000D02*
X87635000Y-52065000D01*
X72385000Y-52065000D02*
X73660000Y-53340000D01*
X109225000Y-80005000D02*
X111770000Y-80005000D01*
X81280000Y-124460000D02*
X71135000Y-124460000D01*
X100325000Y-80005000D02*
X101600000Y-81280000D01*
X97800000Y-80005000D02*
X100325000Y-80005000D01*
X73660000Y-53340000D02*
X86360000Y-53340000D01*
X69860000Y-52065000D02*
X72385000Y-52065000D01*
X107950000Y-81280000D02*
X109225000Y-80005000D01*
X101600000Y-81280000D02*
X107950000Y-81280000D01*
X87635000Y-52065000D02*
X90180000Y-52065000D01*
X71135000Y-124460000D02*
X69860000Y-123185000D01*
%TO.N,C*%
X95245000Y-72385000D02*
X97800000Y-72385000D01*
X69860000Y-49525000D02*
X71125000Y-48260000D01*
X71125000Y-48260000D02*
X80010000Y-48260000D01*
X95245000Y-77465000D02*
X97800000Y-77465000D01*
X93980000Y-76200000D02*
X95245000Y-77465000D01*
X93980000Y-71120000D02*
X95245000Y-72385000D01*
X80010000Y-48260000D02*
X81280000Y-49530000D01*
%TO.N,D*%
X62240000Y-49525000D02*
X64765000Y-49525000D01*
X97800000Y-59685000D02*
X101600000Y-59685000D01*
X86360000Y-50800000D02*
X92710000Y-50800000D01*
X96525000Y-99055000D02*
X95250000Y-100330000D01*
X80010000Y-100330000D02*
X78735000Y-99055000D01*
X83830000Y-49525000D02*
X85085000Y-49525000D01*
X92710000Y-50800000D02*
X93980000Y-52070000D01*
X95250000Y-100330000D02*
X80010000Y-100330000D01*
X85085000Y-49525000D02*
X86360000Y-50800000D01*
X101600000Y-59685000D02*
X104140000Y-57145000D01*
X64765000Y-49525000D02*
X66040000Y-50800000D01*
X82555000Y-50800000D02*
X83830000Y-49525000D01*
X66040000Y-50800000D02*
X82555000Y-50800000D01*
X78735000Y-99055000D02*
X76210000Y-99055000D01*
X97800000Y-99055000D02*
X96525000Y-99055000D01*
%TO.N,A'*%
X82239009Y-46985000D02*
X83514009Y-48260000D01*
X76210000Y-46985000D02*
X82239009Y-46985000D01*
X90180000Y-49525000D02*
X96209009Y-49525000D01*
X106680000Y-50800000D02*
X107950000Y-52070000D01*
X60960000Y-85090000D02*
X59690000Y-86360000D01*
X97484009Y-50800000D02*
X106680000Y-50800000D01*
X78740000Y-85090000D02*
X60960000Y-85090000D01*
X83514009Y-48260000D02*
X86360000Y-48260000D01*
X86360000Y-48260000D02*
X87625000Y-49525000D01*
X87625000Y-49525000D02*
X90180000Y-49525000D01*
X96209009Y-49525000D02*
X97484009Y-50800000D01*
%TO.N,B'*%
X72395000Y-59685000D02*
X73660000Y-58420000D01*
X68735000Y-58560000D02*
X69860000Y-59685000D01*
X107950000Y-53340000D02*
X107950000Y-53335000D01*
X107950000Y-53335000D02*
X111760000Y-49525000D01*
X93975000Y-91435000D02*
X90180000Y-91435000D01*
X86365000Y-58420000D02*
X90180000Y-54605000D01*
X91445000Y-53340000D02*
X107950000Y-53340000D01*
X90180000Y-54605000D02*
X91445000Y-53340000D01*
X69860000Y-59685000D02*
X72395000Y-59685000D01*
X62240000Y-54605000D02*
X60965000Y-54605000D01*
X59690000Y-55880000D02*
X59690000Y-57150000D01*
X73660000Y-58420000D02*
X86365000Y-58420000D01*
X59690000Y-57150000D02*
X61100000Y-58560000D01*
X96515000Y-93975000D02*
X93975000Y-91435000D01*
X60965000Y-54605000D02*
X59690000Y-55880000D01*
X97800000Y-93975000D02*
X96515000Y-93975000D01*
X61100000Y-58560000D02*
X68735000Y-58560000D01*
%TO.N,C'*%
X93980000Y-102870000D02*
X95255000Y-101595000D01*
X88905000Y-120645000D02*
X90180000Y-120645000D01*
X95255000Y-101595000D02*
X97800000Y-101595000D01*
X87630000Y-121920000D02*
X88905000Y-120645000D01*
X90180000Y-120645000D02*
X92705000Y-120645000D01*
X66040000Y-57150000D02*
X67310000Y-55880000D01*
X72385000Y-120645000D02*
X73660000Y-121920000D01*
X66035000Y-57145000D02*
X66040000Y-57150000D01*
X92705000Y-120645000D02*
X93980000Y-121920000D01*
X109220000Y-121920000D02*
X110495000Y-120645000D01*
X110495000Y-120645000D02*
X111770000Y-120645000D01*
X80010000Y-55880000D02*
X81275000Y-57145000D01*
X73660000Y-121920000D02*
X87630000Y-121920000D01*
X90180000Y-59685000D02*
X92715000Y-59685000D01*
X96520000Y-55880000D02*
X100330000Y-55880000D01*
X69860000Y-120645000D02*
X72385000Y-120645000D01*
X67310000Y-55880000D02*
X80010000Y-55880000D01*
X81275000Y-57145000D02*
X83830000Y-57145000D01*
X67310000Y-101600000D02*
X68580000Y-102870000D01*
X68580000Y-102870000D02*
X93980000Y-102870000D01*
X92715000Y-59685000D02*
X96520000Y-55880000D01*
X62240000Y-57145000D02*
X66035000Y-57145000D01*
X93980000Y-121920000D02*
X109220000Y-121920000D01*
%TO.N,D'*%
X74930000Y-64770000D02*
X72390000Y-62230000D01*
X99075000Y-92710000D02*
X107950000Y-92710000D01*
X97800000Y-62225000D02*
X97800000Y-63490000D01*
X88760000Y-90310000D02*
X87630000Y-91440000D01*
X96675000Y-90310000D02*
X88760000Y-90310000D01*
X97800000Y-91435000D02*
X96675000Y-90310000D01*
X97800000Y-91435000D02*
X99075000Y-92710000D01*
X83830000Y-113025000D02*
X76210000Y-113025000D01*
X96520000Y-64770000D02*
X74930000Y-64770000D01*
X97800000Y-63490000D02*
X96520000Y-64770000D01*
%TO.N,Net-(U6-Pad8)*%
X100330000Y-58415000D02*
X104140000Y-54605000D01*
X83830000Y-62225000D02*
X86365000Y-62225000D01*
X93980000Y-60960000D02*
X96520000Y-58420000D01*
X87630000Y-60960000D02*
X93980000Y-60960000D01*
X86365000Y-62225000D02*
X87630000Y-60960000D01*
X96520000Y-58420000D02*
X100330000Y-58420000D01*
X100330000Y-58420000D02*
X100330000Y-58415000D01*
%TO.N,Net-(U14-Pad4)*%
X80010000Y-73660000D02*
X105410000Y-73660000D01*
X76210000Y-74925000D02*
X78745000Y-74925000D01*
X78745000Y-74925000D02*
X80010000Y-73660000D01*
X105410000Y-73660000D02*
X106680000Y-72390000D01*
%TO.N,Net-(U14-Pad5)*%
X77470000Y-78725000D02*
X76210000Y-77465000D01*
X113030000Y-78740000D02*
X77470000Y-78740000D01*
X114300000Y-77470000D02*
X113030000Y-78740000D01*
X77470000Y-78740000D02*
X77470000Y-78725000D01*
%TO.N,Net-(U14-Pad8)*%
X114750000Y-84640000D02*
X115570000Y-83820000D01*
X83830000Y-82545000D02*
X85925000Y-84640000D01*
X86360000Y-84640000D02*
X114750000Y-84640000D01*
X85925000Y-84640000D02*
X86360000Y-84640000D01*
%TO.N,Net-(U14-Pad13)*%
X86360000Y-68580000D02*
X85095000Y-69845000D01*
X116840000Y-67310000D02*
X115570000Y-68580000D01*
X85095000Y-69845000D02*
X83830000Y-69845000D01*
X115570000Y-68580000D02*
X86360000Y-68580000D01*
%TD*%
M02*
