M48
; DRILL file {KiCad (6.0.9)} date Mon May 26 15:33:46 2025
; FORMAT={-:-/ absolute / metric / decimal}
; #@! TF.CreationDate,2025-05-26T15:33:46-04:00
; #@! TF.GenerationSoftware,Kicad,Pcbnew,(6.0.9)
; #@! TF.FileFunction,Plated,1,4,PTH
FMAT,2
METRIC
; #@! TA.AperFunction,Plated,PTH,ViaDrill
T1C0.400
; #@! TA.AperFunction,Plated,PTH,ComponentDrill
T2C0.700
; #@! TA.AperFunction,Plated,PTH,ComponentDrill
T3C0.800
; #@! TA.AperFunction,Plated,PTH,ComponentDrill
T4C0.900
; #@! TA.AperFunction,Plated,PTH,ComponentDrill
T5C1.000
%
G90
G05
T1
X59.69Y-86.36
X64.77Y-106.68
X67.31Y-101.6
X67.31Y-125.73
X71.665Y-109.22
X72.39Y-62.23
X73.66Y-86.36
X75.387Y-73.793
X78.74Y-85.09
X80.01Y-68.58
X80.01Y-74.93
X80.01Y-130.81
X81.28Y-49.53
X81.28Y-124.46
X81.28Y-128.27
X85.09Y-86.36
X86.36Y-118.11
X87.63Y-91.44
X88.08Y-117.66
X88.804Y-108.957
X91.44Y-107.95
X92.71Y-74.93
X92.71Y-85.364
X93.98Y-52.07
X93.98Y-71.12
X93.98Y-76.2
X95.25Y-116.84
X95.25Y-130.81
X96.52Y-83.82
X99.06Y-86.36
X99.06Y-100.33
X100.33Y-55.88
X100.33Y-125.73
X101.6Y-110.49
X102.87Y-86.36
X104.14Y-64.77
X105.41Y-86.36
X106.68Y-72.39
X106.68Y-96.52
X107.95Y-52.07
X107.95Y-88.9
X107.95Y-92.71
X107.95Y-100.33
X107.95Y-124.46
X109.22Y-95.25
X114.3Y-77.47
X114.3Y-118.11
X115.57Y-83.82
X115.57Y-106.68
X116.84Y-67.31
X116.84Y-76.2
T2
X55.81Y-61.62
X55.81Y-66.7
T3
X62.24Y-46.985
X62.24Y-49.525
X62.24Y-52.065
X62.24Y-54.605
X62.24Y-57.145
X62.24Y-59.685
X62.24Y-62.225
X62.24Y-67.305
X62.24Y-69.845
X62.24Y-72.385
X62.24Y-74.925
X62.24Y-77.465
X62.24Y-80.005
X62.24Y-82.545
X62.24Y-88.895
X62.24Y-91.435
X62.24Y-93.975
X62.24Y-96.515
X62.24Y-99.055
X62.24Y-101.595
X62.24Y-104.135
X62.24Y-110.485
X62.24Y-113.025
X62.24Y-115.565
X62.24Y-118.105
X62.24Y-120.645
X62.24Y-123.185
X62.24Y-125.725
X69.86Y-46.985
X69.86Y-49.525
X69.86Y-52.065
X69.86Y-54.605
X69.86Y-57.145
X69.86Y-59.685
X69.86Y-62.225
X69.86Y-67.305
X69.86Y-69.845
X69.86Y-72.385
X69.86Y-74.925
X69.86Y-77.465
X69.86Y-80.005
X69.86Y-82.545
X69.86Y-88.895
X69.86Y-91.435
X69.86Y-93.975
X69.86Y-96.515
X69.86Y-99.055
X69.86Y-101.595
X69.86Y-104.135
X69.86Y-110.485
X69.86Y-113.025
X69.86Y-115.565
X69.86Y-118.105
X69.86Y-120.645
X69.86Y-123.185
X69.86Y-125.725
X76.21Y-46.985
X76.21Y-49.525
X76.21Y-52.065
X76.21Y-54.605
X76.21Y-57.145
X76.21Y-59.685
X76.21Y-62.225
X76.21Y-67.305
X76.21Y-69.845
X76.21Y-72.385
X76.21Y-74.925
X76.21Y-77.465
X76.21Y-80.005
X76.21Y-82.545
X76.21Y-88.895
X76.21Y-91.435
X76.21Y-93.975
X76.21Y-96.515
X76.21Y-99.055
X76.21Y-101.595
X76.21Y-104.135
X76.21Y-110.485
X76.21Y-113.025
X76.21Y-115.565
X76.21Y-118.105
X76.21Y-120.645
X76.21Y-123.185
X76.21Y-125.725
X83.83Y-46.985
X83.83Y-49.525
X83.83Y-52.065
X83.83Y-54.605
X83.83Y-57.145
X83.83Y-59.685
X83.83Y-62.225
X83.83Y-67.305
X83.83Y-69.845
X83.83Y-72.385
X83.83Y-74.925
X83.83Y-77.465
X83.83Y-80.005
X83.83Y-82.545
X83.83Y-88.895
X83.83Y-91.435
X83.83Y-93.975
X83.83Y-96.515
X83.83Y-99.055
X83.83Y-101.595
X83.83Y-104.135
X83.83Y-110.485
X83.83Y-113.025
X83.83Y-115.565
X83.83Y-118.105
X83.83Y-120.645
X83.83Y-123.185
X83.83Y-125.725
X90.18Y-46.985
X90.18Y-49.525
X90.18Y-52.065
X90.18Y-54.605
X90.18Y-57.145
X90.18Y-59.685
X90.18Y-62.225
X90.18Y-67.305
X90.18Y-69.845
X90.18Y-72.385
X90.18Y-74.925
X90.18Y-77.465
X90.18Y-80.005
X90.18Y-82.545
X90.18Y-88.895
X90.18Y-91.435
X90.18Y-93.975
X90.18Y-96.515
X90.18Y-99.055
X90.18Y-101.595
X90.18Y-104.135
X90.18Y-110.485
X90.18Y-113.025
X90.18Y-115.565
X90.18Y-118.105
X90.18Y-120.645
X90.18Y-123.185
X90.18Y-125.725
X97.8Y-46.985
X97.8Y-49.525
X97.8Y-52.065
X97.8Y-54.605
X97.8Y-57.145
X97.8Y-59.685
X97.8Y-62.225
X97.8Y-67.305
X97.8Y-69.845
X97.8Y-72.385
X97.8Y-74.925
X97.8Y-77.465
X97.8Y-80.005
X97.8Y-82.545
X97.8Y-88.895
X97.8Y-91.435
X97.8Y-93.975
X97.8Y-96.515
X97.8Y-99.055
X97.8Y-101.595
X97.8Y-104.135
X97.8Y-110.485
X97.8Y-113.025
X97.8Y-115.565
X97.8Y-118.105
X97.8Y-120.645
X97.8Y-123.185
X97.8Y-125.725
X104.14Y-46.985
X104.14Y-49.525
X104.14Y-52.065
X104.14Y-54.605
X104.14Y-57.145
X104.14Y-59.685
X104.14Y-62.225
X104.15Y-67.305
X104.15Y-69.845
X104.15Y-72.385
X104.15Y-74.925
X104.15Y-77.465
X104.15Y-80.005
X104.15Y-82.545
X104.15Y-88.895
X104.15Y-91.435
X104.15Y-93.975
X104.15Y-96.515
X104.15Y-99.055
X104.15Y-101.595
X104.15Y-104.135
X104.15Y-110.485
X104.15Y-113.025
X104.15Y-115.565
X104.15Y-118.105
X104.15Y-120.645
X104.15Y-123.185
X104.15Y-125.725
X111.76Y-46.985
X111.76Y-49.525
X111.76Y-52.065
X111.76Y-54.605
X111.76Y-57.145
X111.76Y-59.685
X111.76Y-62.225
X111.77Y-67.305
X111.77Y-69.845
X111.77Y-72.385
X111.77Y-74.925
X111.77Y-77.465
X111.77Y-80.005
X111.77Y-82.545
X111.77Y-88.895
X111.77Y-91.435
X111.77Y-93.975
X111.77Y-96.515
X111.77Y-99.055
X111.77Y-101.595
X111.77Y-104.135
X111.77Y-110.485
X111.77Y-113.025
X111.77Y-115.565
X111.77Y-118.105
X111.77Y-120.645
X111.77Y-123.185
X111.77Y-125.725
T4
X55.88Y-69.85
X55.88Y-72.39
T5
X53.34Y-80.01
X53.34Y-82.55
X53.34Y-85.09
X53.34Y-87.63
X53.34Y-90.17
X53.34Y-92.71
X119.38Y-77.465
X119.38Y-80.005
X119.38Y-82.545
X119.38Y-85.085
X119.38Y-87.625
X119.38Y-90.165
X119.38Y-92.705
T0
M30
