%TF.GenerationSoftware,KiCad,Pcbnew,(6.0.9)*%
%TF.CreationDate,2025-05-26T15:33:48-04:00*%
%TF.ProjectId,Seven Segment Display,53657665-6e20-4536-9567-6d656e742044,1*%
%TF.SameCoordinates,Original*%
%TF.FileFunction,Drillmap*%
%TF.FilePolarity,Positive*%
%FSLAX45Y45*%
G04 Gerber Fmt 4.5, Leading zero omitted, Abs format (unit mm)*
G04 Created by KiCad (PCBNEW (6.0.9)) date 2025-05-26 15:33:48*
%MOMM*%
%LPD*%
G01*
G04 APERTURE LIST*
%ADD10C,0.100000*%
%ADD11C,0.200000*%
G04 APERTURE END LIST*
D10*
X5461000Y-4318000D02*
G75*
G03*
X4826000Y-4953000I0J-635000D01*
G01*
X4826000Y-12700000D02*
G75*
G03*
X5461000Y-13335000I635000J0D01*
G01*
X11684000Y-13335000D02*
G75*
G03*
X12319000Y-12700000I0J635000D01*
G01*
X12319000Y-4953000D02*
X12319000Y-12700000D01*
X12319000Y-4953000D02*
G75*
G03*
X11684000Y-4318000I-635000J0D01*
G01*
X5461000Y-4318000D02*
X11684000Y-4318000D01*
X4826000Y-12700000D02*
X4826000Y-4953000D01*
X11684000Y-13335000D02*
X5461000Y-13335000D01*
D11*
X5078619Y-13650476D02*
X5078619Y-13450476D01*
X5126238Y-13450476D01*
X5154810Y-13460000D01*
X5173857Y-13479048D01*
X5183381Y-13498095D01*
X5192905Y-13536190D01*
X5192905Y-13564762D01*
X5183381Y-13602857D01*
X5173857Y-13621905D01*
X5154810Y-13640952D01*
X5126238Y-13650476D01*
X5078619Y-13650476D01*
X5278619Y-13650476D02*
X5278619Y-13517143D01*
X5278619Y-13555238D02*
X5288143Y-13536190D01*
X5297667Y-13526667D01*
X5316714Y-13517143D01*
X5335762Y-13517143D01*
X5402429Y-13650476D02*
X5402429Y-13517143D01*
X5402429Y-13450476D02*
X5392905Y-13460000D01*
X5402429Y-13469524D01*
X5411952Y-13460000D01*
X5402429Y-13450476D01*
X5402429Y-13469524D01*
X5526238Y-13650476D02*
X5507190Y-13640952D01*
X5497667Y-13621905D01*
X5497667Y-13450476D01*
X5631000Y-13650476D02*
X5611952Y-13640952D01*
X5602428Y-13621905D01*
X5602428Y-13450476D01*
X5859571Y-13650476D02*
X5859571Y-13450476D01*
X5926238Y-13593333D01*
X5992905Y-13450476D01*
X5992905Y-13650476D01*
X6173857Y-13650476D02*
X6173857Y-13545714D01*
X6164333Y-13526667D01*
X6145286Y-13517143D01*
X6107190Y-13517143D01*
X6088143Y-13526667D01*
X6173857Y-13640952D02*
X6154809Y-13650476D01*
X6107190Y-13650476D01*
X6088143Y-13640952D01*
X6078619Y-13621905D01*
X6078619Y-13602857D01*
X6088143Y-13583809D01*
X6107190Y-13574286D01*
X6154809Y-13574286D01*
X6173857Y-13564762D01*
X6269095Y-13517143D02*
X6269095Y-13717143D01*
X6269095Y-13526667D02*
X6288143Y-13517143D01*
X6326238Y-13517143D01*
X6345286Y-13526667D01*
X6354809Y-13536190D01*
X6364333Y-13555238D01*
X6364333Y-13612381D01*
X6354809Y-13631428D01*
X6345286Y-13640952D01*
X6326238Y-13650476D01*
X6288143Y-13650476D01*
X6269095Y-13640952D01*
X6450048Y-13631428D02*
X6459571Y-13640952D01*
X6450048Y-13650476D01*
X6440524Y-13640952D01*
X6450048Y-13631428D01*
X6450048Y-13650476D01*
X6450048Y-13526667D02*
X6459571Y-13536190D01*
X6450048Y-13545714D01*
X6440524Y-13536190D01*
X6450048Y-13526667D01*
X6450048Y-13545714D01*
M02*
